<?xml version="1.0" encoding="iso-8859-1"?>
<!-- Generator: Adobe Illustrator 27.5.0, SVG Export Plug-In . SVG Version: 6.00 Build 0)  -->
<svg version="1.1" id="Layer_1" xmlns="http://www.w3.org/2000/svg" xmlns:xlink="http://www.w3.org/1999/xlink" x="0px" y="0px"
	 viewBox="0 0 512 512" style="enable-background:new 0 0 512 512;" xml:space="preserve">
<g>
	<g>
		<path d="M490.646,44.081l19.257-26.54c2.429-3.347,2.774-7.773,0.896-11.457c-1.879-3.684-5.665-6.003-9.8-6.003h-88
			c-6.075,0-11,4.925-11,11v117h-21c-6.075,0-11,4.925-11,11s4.925,11,11,11h64c6.075,0,11-4.925,11-11s-4.925-11-11-11h-21v-40h77
			c4.135,0,7.921-2.319,9.8-6.003c1.878-3.684,1.532-8.11-0.896-11.457L490.646,44.081z M468.152,50.541l11.275,15.54H424v-44
			h55.428l-11.275,15.54C465.356,41.474,465.356,46.688,468.152,50.541z"/>
		<path d="M212.524,337.182h-60.762v-33c0-6.075-4.925-11-11-11h-58c-6.075,0-11,4.925-11,11v33H11c-6.075,0-11,4.925-11,11v56.121
			c0,5.27,3.738,9.773,8.878,10.783v85.833c0,6.075,4.925,11,11,11h183.769c6.075,0,11-4.925,11-11v-85.834
			c5.139-1.01,8.878-5.512,8.878-10.783v-56.121C223.524,342.107,218.6,337.182,212.524,337.182z M93.763,315.182h36v22h-36V315.182
			z M22,359.182h179.524v35.771l-56.762,9.265v-7.167c0-6.075-4.925-11-11-11h-44c-6.075,0-11,4.925-11,11v7.263L22,394.966V359.182
			z M122.763,408.05v15c0,6.065-4.935,11-11,11s-11-4.935-11-11v-15H122.763z M30.878,489.919v-71.195l48.084,7.918
			c1.796,16.512,15.819,29.407,32.801,29.407c17.018,0,31.065-12.949,32.814-29.511l48.07-7.846v71.226H30.878z"/>
		<path d="M439.107,368.224c-12.268,27.535-39.662,45.327-69.791,45.327H254.085c-6.075,0-11,4.925-11,11s4.925,11,11,11h115.231
			c38.806,0,74.089-22.913,89.887-58.374L439.107,368.224z"/>
		<path d="M291.622,260.815h77.694c30.246,0,57.685,17.889,69.901,45.574l20.127-8.882c-15.733-35.654-51.071-58.692-90.028-58.692
			h-77.694V260.815z"/>
		<path d="M72.766,130.986c12.354-27.279,39.674-44.905,69.602-44.905h171.187c6.075,0,11-4.925,11-11s-4.925-11-11-11H142.367
			c-38.547,0-73.733,22.7-89.643,57.83L72.766,130.986z"/>
		<path d="M72.466,193.242l-20.127,8.882c15.733,35.654,51.071,58.692,90.028,58.692h77.255v-22h-77.255
			C112.12,238.815,84.683,220.927,72.466,193.242z"/>
	</g>
	<g>
		<path style="fill:#33CCCC;" d="M456.684,384.183c-25.916,0-47-21.084-47-47s21.084-47,47-47s47,21.084,47,47
			S482.6,384.183,456.684,384.183z M456.684,312.183c-13.785,0-25,11.215-25,25s11.215,25,25,25s25-11.215,25-25
			S470.469,312.183,456.684,312.183z"/>
	</g>
	<g>
		<path style="fill:#33CCCC;" d="M55,209.448c-25.916,0-47-21.084-47-47s21.084-47,47-47s47,21.084,47,47S80.916,209.448,55,209.448
			z M55,137.448c-13.785,0-25,11.215-25,25s11.215,25,25,25s25-11.215,25-25S68.785,137.448,55,137.448z"/>
	</g>
	<g>
		<path style="fill:#33CCCC;" d="M255.622,296.816c-25.916,0-47-21.084-47-47s21.084-47,47-47s47,21.084,47,47
			S281.538,296.816,255.622,296.816z M255.622,224.816c-13.785,0-25,11.215-25,25c0,13.785,11.215,25,25,25s25-11.215,25-25
			C280.622,236.031,269.407,224.816,255.622,224.816z"/>
	</g>
</g>
<g>
</g>
<g>
</g>
<g>
</g>
<g>
</g>
<g>
</g>
<g>
</g>
<g>
</g>
<g>
</g>
<g>
</g>
<g>
</g>
<g>
</g>
<g>
</g>
<g>
</g>
<g>
</g>
<g>
</g>
</svg>
