<?xml version="1.0" encoding="iso-8859-1"?>
<!-- Generator: Adobe Illustrator 27.2.0, SVG Export Plug-In . SVG Version: 6.00 Build 0)  -->
<svg version="1.1" id="Capa_1" xmlns="http://www.w3.org/2000/svg" xmlns:xlink="http://www.w3.org/1999/xlink" x="0px" y="0px"
	 viewBox="0 0 514 514" style="enable-background:new 0 0 514 514;" xml:space="preserve">
<g>
	<g>
		<path style="fill:#33CCCC;" d="M76.394,104.639c-17.616,0-31.947-14.35-31.947-31.987c0-17.622,14.331-31.959,31.947-31.959
			c17.632,0,31.977,14.337,31.977,31.959C108.37,90.289,94.025,104.639,76.394,104.639z M76.394,62.692
			c-5.485,0-9.947,4.468-9.947,9.959c0,5.507,4.462,9.987,9.947,9.987c5.501,0,9.977-4.48,9.977-9.987
			C86.37,67.16,81.895,62.692,76.394,62.692z"/>
	</g>
	<g>
		<path style="fill:#33CCCC;" d="M160.27,104.639c-17.632,0-31.976-14.35-31.976-31.987c0-17.622,14.344-31.959,31.976-31.959
			c17.616,0,31.947,14.337,31.947,31.959C192.217,90.289,177.886,104.639,160.27,104.639z M160.27,62.692
			c-5.501,0-9.976,4.468-9.976,9.959c0,5.507,4.475,9.987,9.976,9.987c5.485,0,9.947-4.48,9.947-9.987
			C170.217,67.16,165.755,62.692,160.27,62.692z"/>
	</g>
	<g>
		<path d="M347.183,104.639h-86.653c-17.632,0-31.977-14.35-31.977-31.987c0-17.622,14.345-31.959,31.977-31.959h86.653
			c17.616,0,31.947,14.337,31.947,31.959C379.13,90.289,364.799,104.639,347.183,104.639z M260.529,62.692
			c-5.501,0-9.977,4.468-9.977,9.959c0,5.507,4.476,9.987,9.977,9.987h86.653c5.485,0,9.947-4.48,9.947-9.987
			c0-5.491-4.462-9.959-9.947-9.959H260.529z"/>
	</g>
	<g>
		<path style="fill:#33CCCC;" d="M444,450.529c-6.075,0-11-4.925-11-11v-89.873c0-6.075,4.925-11,11-11s11,4.925,11,11v89.873
			C455,445.604,450.075,450.529,444,450.529z"/>
	</g>
	<path style="fill:#33CCCC;" d="M412.277,435.522l-8.831-22.58c-0.083-0.229-0.168-0.457-0.265-0.679l-26.053-66.614
		c-1.649-4.217-5.715-6.993-10.244-6.993s-8.595,2.776-10.244,6.993l-26.053,66.614c-0.098,0.222-0.182,0.45-0.265,0.679
		l-8.831,22.58c-2.213,5.658,0.58,12.039,6.237,14.251c5.658,2.214,12.038-0.58,14.251-6.237l6.196-15.843h37.418l6.196,15.843
		c1.698,4.342,5.85,6.997,10.247,6.996c1.332,0,2.688-0.244,4.004-0.759C411.697,447.561,414.49,441.181,412.277,435.522z
		 M356.779,405.693l10.104-25.836l10.105,25.836H356.779z"/>
	<g>
		<path d="M87.817,256.712H74.211c-15.146,0-27.469-12.314-27.469-27.45V200.05c0-15.136,12.322-27.449,27.469-27.449h13.606
			c15.131,0,27.44,12.313,27.44,27.449v29.212C115.258,244.398,102.948,256.712,87.817,256.712z M74.211,194.601
			c-2.965,0-5.469,2.496-5.469,5.449v29.212c0,2.954,2.504,5.45,5.469,5.45h13.606c2.949,0,5.44-2.496,5.44-5.45V200.05
			c0-2.954-2.491-5.449-5.44-5.449H74.211z"/>
	</g>
	<g>
		<path style="fill:#33CCCC;" d="M146.408,256.712c-6.075,0-11-4.925-11-11v-62.111c0-6.075,4.925-11,11-11c6.075,0,11,4.925,11,11
			v62.111C157.408,251.788,152.483,256.712,146.408,256.712z"/>
	</g>
	<g>
		<path d="M218.605,256.712h-13.635c-15.131,0-27.44-12.314-27.44-27.45V200.05c0-15.136,12.309-27.449,27.44-27.449h13.635
			c15.131,0,27.44,12.313,27.44,27.449v29.212C246.046,244.398,233.736,256.712,218.605,256.712z M204.971,194.601
			c-2.949,0-5.44,2.496-5.44,5.449v29.212c0,2.954,2.491,5.45,5.44,5.45h13.635c2.949,0,5.44-2.496,5.44-5.45V200.05
			c0-2.954-2.491-5.449-5.44-5.449H204.971z"/>
	</g>
	<g>
		<path d="M307.243,256.712h-13.607c-15.146,0-27.469-12.314-27.469-27.45V200.05c0-15.136,12.322-27.449,27.469-27.449h13.607
			c15.131,0,27.44,12.313,27.44,27.449v29.212C334.684,244.398,322.374,256.712,307.243,256.712z M293.637,194.601
			c-2.965,0-5.469,2.496-5.469,5.449v29.212c0,2.954,2.504,5.45,5.469,5.45h13.607c2.949,0,5.44-2.496,5.44-5.45V200.05
			c0-2.954-2.491-5.449-5.44-5.449H293.637z"/>
	</g>
	<g>
		<path style="fill:#33CCCC;" d="M365.806,256.712c-6.075,0-11-4.925-11-11v-62.111c0-6.075,4.925-11,11-11s11,4.925,11,11v62.111
			C376.806,251.788,371.881,256.712,365.806,256.712z"/>
	</g>
	<g>
		<path d="M218.605,378.014h-13.635c-15.131,0-27.44-12.314-27.44-27.45v-29.212c0-15.136,12.309-27.45,27.44-27.45h13.635
			c15.131,0,27.44,12.314,27.44,27.45v29.212C246.046,365.7,233.736,378.014,218.605,378.014z M204.971,315.902
			c-2.949,0-5.44,2.496-5.44,5.45v29.212c0,2.954,2.491,5.45,5.44,5.45h13.635c2.949,0,5.44-2.496,5.44-5.45v-29.212
			c0-2.954-2.491-5.45-5.44-5.45H204.971z"/>
	</g>
	<g>
		<path d="M129.939,378.014h-13.606c-15.131,0-27.44-12.314-27.44-27.45v-29.212c0-15.136,12.31-27.45,27.44-27.45h13.606
			c15.146,0,27.469,12.314,27.469,27.45v29.212C157.408,365.7,145.086,378.014,129.939,378.014z M116.333,315.902
			c-2.949,0-5.44,2.496-5.44,5.45v29.212c0,2.954,2.491,5.45,5.44,5.45h13.606c2.965,0,5.469-2.496,5.469-5.45v-29.212
			c0-2.954-2.504-5.45-5.469-5.45H116.333z"/>
	</g>
	<g>
		<path style="fill:#33CCCC;" d="M57.771,378.014c-6.075,0-11-4.925-11-11v-62.111c0-6.075,4.925-11,11-11s11,4.925,11,11v62.111
			C68.771,373.089,63.846,378.014,57.771,378.014z"/>
	</g>
	<path d="M490.499,281.735h-66.923V42.106C423.576,20.543,406.04,3,384.485,3H39.091C17.536,3,0,20.543,0,42.106v349.072
		c0,21.563,17.536,39.106,39.091,39.106h227.077v57.237c0,12.946,10.53,23.479,23.473,23.479h200.858
		C503.457,511,514,500.467,514,487.521V305.214C514,292.268,503.457,281.735,490.499,281.735z M39.091,25h345.395
		c9.424,0,17.091,7.674,17.091,17.106v78.225H22V42.106C22,32.674,29.667,25,39.091,25z M39.091,408.284
		c-9.424,0-17.091-7.674-17.091-17.106V142.331h379.576v139.404H289.641c-12.942,0-23.473,10.533-23.473,23.479v103.069H39.091z
		 M492,487.521c0,0.802-0.688,1.479-1.501,1.479H289.641c-0.784,0-1.473-0.691-1.473-1.479V305.214c0-0.788,0.688-1.479,1.473-1.479
		h200.858c0.814,0,1.501,0.677,1.501,1.479V487.521z"/>
</g>
<g>
</g>
<g>
</g>
<g>
</g>
<g>
</g>
<g>
</g>
<g>
</g>
<g>
</g>
<g>
</g>
<g>
</g>
<g>
</g>
<g>
</g>
<g>
</g>
<g>
</g>
<g>
</g>
<g>
</g>
</svg>
