<?xml version="1.0" encoding="iso-8859-1"?>
<!-- Generator: Adobe Illustrator 28.0.0, SVG Export Plug-In . SVG Version: 6.00 Build 0)  -->
<svg version="1.1" id="Layer_1" xmlns="http://www.w3.org/2000/svg" xmlns:xlink="http://www.w3.org/1999/xlink" x="0px" y="0px"
	 viewBox="0 0 512 512" style="enable-background:new 0 0 512 512;" xml:space="preserve">
<g>
	<g>
		<path style="fill:#33CCCC;" d="M395.903,127.204C395.903,127.204,395.903,127.204,395.903,127.204
			c-4.513,0-8.568-2.756-10.228-6.952l-7.783-19.667c-1.794-4.532-5.435-8.159-9.99-9.949l-19.735-7.757
			c-4.208-1.654-6.976-5.716-6.976-10.238s2.768-8.583,6.976-10.238l19.735-7.757c4.555-1.79,8.196-5.417,9.99-9.949l7.783-19.667
			c1.66-4.196,5.715-6.952,10.228-6.952s8.567,2.756,10.228,6.952l7.784,19.667c1.793,4.533,5.435,8.159,9.99,9.949l0,0
			l19.735,7.757c4.208,1.654,6.976,5.716,6.976,10.238s-2.768,8.583-6.976,10.238l-19.735,7.757
			c-4.555,1.79-8.196,5.416-9.989,9.948l-7.784,19.668C404.471,124.447,400.416,127.204,395.903,127.204z M381.121,72.641
			c6.145,3.518,11.266,8.634,14.782,14.77c3.516-6.136,8.637-11.252,14.782-14.77c-6.145-3.518-11.266-8.633-14.782-14.77
			C392.387,64.007,387.266,69.123,381.121,72.641z"/>
	</g>
	<g>
		<path style="fill:#33CCCC;" d="M256,109.126c-4.513,0-8.568-2.756-10.228-6.952l-7.783-19.667
			c-1.794-4.532-5.435-8.159-9.99-9.949l-19.735-7.757c-4.208-1.654-6.976-5.716-6.976-10.238s2.768-8.583,6.976-10.238
			l19.735-7.757c4.555-1.79,8.196-5.417,9.99-9.949l7.783-19.667C247.432,2.756,251.487,0,256,0s8.568,2.756,10.228,6.952
			l7.783,19.667c1.794,4.532,5.435,8.159,9.99,9.949l0,0l19.735,7.757c4.208,1.654,6.976,5.716,6.976,10.238
			s-2.768,8.583-6.976,10.238l-19.735,7.757c-4.555,1.79-8.196,5.417-9.99,9.949l-7.783,19.667
			C264.568,106.37,260.513,109.126,256,109.126z M241.218,54.563c6.145,3.518,11.266,8.633,14.782,14.77
			c3.517-6.137,8.637-11.252,14.782-14.77c-6.145-3.518-11.266-8.633-14.782-14.77C252.483,45.93,247.363,51.045,241.218,54.563z"/>
	</g>
	<g>
		<path style="fill:#33CCCC;" d="M116.097,127.204c-4.513,0-8.567-2.756-10.228-6.952l-7.784-19.667
			c-1.793-4.533-5.435-8.159-9.99-9.949L68.36,82.878c-4.208-1.654-6.976-5.716-6.976-10.238s2.768-8.583,6.976-10.238l19.735-7.757
			c4.555-1.79,8.196-5.416,9.989-9.948l7.784-19.668c1.661-4.196,5.716-6.952,10.228-6.952c0,0,0,0,0,0
			c4.513,0,8.568,2.756,10.228,6.952l7.783,19.667c1.794,4.532,5.435,8.159,9.99,9.949l0,0l19.735,7.757
			c4.208,1.654,6.976,5.716,6.976,10.238s-2.768,8.583-6.976,10.238l-19.735,7.757c-4.555,1.79-8.196,5.417-9.99,9.949
			l-7.783,19.667C124.665,124.447,120.609,127.204,116.097,127.204z M101.314,72.641c6.145,3.518,11.266,8.633,14.782,14.77
			c3.517-6.137,8.637-11.252,14.782-14.77c-6.145-3.518-11.266-8.634-14.782-14.77C112.581,64.007,107.459,69.123,101.314,72.641z"
			/>
	</g>
	<path d="M470.75,247.312l-92.472-108.279c-2.09-2.447-5.146-3.856-8.365-3.856H142.087c-3.218,0-6.275,1.409-8.365,3.856
		L41.25,247.312c-3.487,4.083-3.517,10.087-0.07,14.205l206.385,246.543c2.09,2.497,5.179,3.939,8.435,3.939
		s6.345-1.442,8.435-3.939L470.82,261.517C474.267,257.399,474.237,251.396,470.75,247.312z M188.845,243.456L256,165.076
		l67.155,78.38H188.845z M329.67,265.456L256,468.718l-73.67-203.262H329.67z M158.929,265.456l65.483,180.673L73.169,265.456
		H158.929z M353.071,265.456h85.761L287.588,446.129L353.071,265.456z M438.526,243.456h-86.412
		c-0.038-0.046-0.069-0.095-0.108-0.14l-73.802-86.139h86.638L438.526,243.456z M147.158,157.177h86.638l-73.802,86.139
		c-0.039,0.045-0.07,0.094-0.108,0.14H73.474L147.158,157.177z"/>
</g>
<g>
</g>
<g>
</g>
<g>
</g>
<g>
</g>
<g>
</g>
<g>
</g>
<g>
</g>
<g>
</g>
<g>
</g>
<g>
</g>
<g>
</g>
<g>
</g>
<g>
</g>
<g>
</g>
<g>
</g>
</svg>
