<?xml version="1.0" encoding="UTF-8"?>
<!-- Generator: Adobe Illustrator 26.5.0, SVG Export Plug-In . SVG Version: 6.00 Build 0)  -->
<svg xmlns="http://www.w3.org/2000/svg" xmlns:xlink="http://www.w3.org/1999/xlink" version="1.1" id="Capa_1" x="0px" y="0px" viewBox="0 0 512.001 512.001" style="enable-background:new 0 0 512.001 512.001;" xml:space="preserve" width="512" height="512">
<g>
	<g>
		<path style="fill:#33CCCC;" d="M460.504,254.676c-5.26,0-9.91-3.784-10.829-9.143c-5.773-33.673-20.724-64.845-44.437-92.65    c-38.422-45.056-90.03-68.871-149.245-68.871c-59.212,0-110.819,23.813-149.243,68.867    c-22.236,26.074-36.796,55.167-43.271,86.472c-1.23,5.949-7.058,9.77-13,8.543c-5.949-1.23-9.774-7.051-8.543-13    c7.233-34.971,23.409-67.369,48.075-96.292c42.733-50.106,100.129-76.59,165.982-76.59c65.856,0,123.254,26.486,165.985,76.595    c26.314,30.857,42.929,65.581,49.38,103.208c1.026,5.988-2.995,11.674-8.983,12.701    C461.748,254.624,461.121,254.676,460.504,254.676z"/>
	</g>
	<g>
		<path d="M60.054,315.798c-5.311,0-9.983-3.854-10.849-9.265l-8.624-53.953C30.187,187.552,47.28,126.695,90.012,76.59    S190.14,0,255.994,0c65.856,0,123.254,26.486,165.985,76.595c42.732,50.109,59.823,110.968,49.425,175.997l-8.464,52.925    c-0.959,5.999-6.597,10.083-12.6,9.125c-5.999-0.959-10.084-6.6-9.125-12.599l8.464-52.924    c9.351-58.472-6.017-113.193-44.44-158.248C366.817,45.815,315.208,22,255.994,22c-59.213,0-110.82,23.813-149.243,68.866    c-38.422,45.052-53.791,99.771-44.444,158.241l8.624,53.953c0.959,5.999-3.127,11.64-9.126,12.599    C61.216,315.753,60.631,315.798,60.054,315.798z"/>
	</g>
	<g>
		<g>
			<path style="fill:#33CCCC;" d="M93.365,493.99c-1.746,0-3.517-0.417-5.165-1.295l-53.841-28.704     c-12.978-6.919-21.011-18.78-22.621-33.397l-6.854-62.243c-1.609-14.618,3.65-27.942,14.812-37.519l46.307-39.731     c4.612-3.955,11.556-3.426,15.512,1.186c3.956,4.61,3.425,11.555-1.186,15.511l-46.307,39.731     c-5.558,4.769-8.071,11.137-7.271,18.416l6.854,62.242c0.802,7.278,4.642,12.947,11.104,16.393l53.84,28.703     c5.361,2.858,7.39,9.521,4.532,14.881C101.102,491.875,97.297,493.99,93.365,493.99z"/>
		</g>
		<g>
			<path style="fill:#33CCCC;" d="M418.636,493.99c-3.934,0-7.737-2.114-9.717-5.827c-2.857-5.361-0.829-12.023,4.532-14.881     l53.841-28.703c6.462-3.446,10.302-9.114,11.104-16.393l6.854-62.242c0.801-7.278-1.713-13.646-7.271-18.416l-46.307-39.73     c-4.61-3.956-5.142-10.9-1.186-15.511c3.957-4.611,10.9-5.142,15.512-1.186l46.307,39.731     c11.161,9.577,16.421,22.901,14.812,37.519l-6.854,62.243c-1.61,14.618-9.644,26.478-22.62,33.397l-53.842,28.704     C422.153,493.574,420.381,493.99,418.636,493.99z"/>
		</g>
		<g>
			<path d="M124.18,512.001c-21.724,0-40.482-16.397-42.914-38.479L63.408,311.325c-1.261-11.448,2.026-22.719,9.255-31.737     s17.514-14.678,28.962-15.939l0,0c23.685-2.603,45.068,14.538,47.675,38.217l17.859,162.198     c2.607,23.681-14.536,45.068-38.217,47.675C127.343,511.915,125.753,512.001,124.18,512.001z M104.033,285.517L104.033,285.517     c-5.607,0.617-10.651,3.398-14.205,7.831c-3.553,4.432-5.17,9.961-4.553,15.568l17.858,162.197     c1.28,11.623,11.773,20.034,23.4,18.758c11.623-1.28,20.037-11.776,18.758-23.399l-17.859-162.198     C126.152,292.653,115.659,284.235,104.033,285.517z"/>
		</g>
		<g>
			<path d="M387.821,512.001c-1.574,0-3.161-0.085-4.762-0.262c-23.681-2.607-40.824-23.995-38.217-47.675l17.859-162.198     c2.606-23.68,23.981-40.826,47.675-38.217l0,0c11.448,1.261,21.733,6.921,28.963,15.939c7.229,9.018,10.516,20.289,9.255,31.737     l-17.859,162.197C428.304,495.602,409.542,512.001,387.821,512.001z M405.632,285.388c-10.662,0-19.87,8.048-21.063,18.886     l-17.859,162.198c-1.279,11.623,7.135,22.119,18.758,23.399c11.613,1.284,22.121-7.134,23.4-18.758l17.859-162.197     c0.617-5.607-1-11.136-4.554-15.568c-3.553-4.433-8.598-7.214-14.205-7.831C407.184,285.431,406.404,285.388,405.632,285.388z"/>
		</g>
	</g>
</g>















</svg>
