<?xml version="1.0" encoding="iso-8859-1"?>
<!-- Generator: Adobe Illustrator 27.5.0, SVG Export Plug-In . SVG Version: 6.00 Build 0)  -->
<svg version="1.1" id="Layer_1" xmlns="http://www.w3.org/2000/svg" xmlns:xlink="http://www.w3.org/1999/xlink" x="0px" y="0px"
	 viewBox="0 0 512.001 512.001" style="enable-background:new 0 0 512.001 512.001;" xml:space="preserve">
<g>
	<g>
		<g>
			<path d="M215.038,467.001c-2.205,0-4.431-0.661-6.365-2.037c-4.95-3.521-6.11-10.388-2.59-15.339l183.65-258.265
				c7.63-10.729,8.543-23.593,2.507-35.293c-6.036-11.7-17.05-18.41-30.215-18.41h-33.198c-3.93,0-7.562-2.097-9.526-5.5
				s-1.965-7.597,0-11L347.104,73c6.329-10.962,6.329-23.037,0-34s-16.786-17-29.444-17H206.431c-6.075,0-11-4.925-11-11
				s4.925-11,11-11H317.66c20.547,0,38.224,10.206,48.497,28s10.273,38.205,0,56l-18.277,31.658h14.146
				c21.365,0,39.97,11.335,49.766,30.323c9.797,18.987,8.253,40.718-4.128,58.129l-183.65,258.265
				C221.867,465.392,218.478,467.001,215.038,467.001z"/>
		</g>
		<g>
			<path d="M127.827,512.001c-1.578,0-3.175-0.34-4.68-1.048c-4.816-2.268-7.318-7.658-5.94-12.8l59.072-220.463H86.001
				c-3.42,0-6.646-1.59-8.727-4.304c-2.082-2.713-2.784-6.24-1.898-9.543l32.34-120.691c1.572-5.868,7.608-9.352,13.472-7.778
				c5.868,1.572,9.351,7.604,7.778,13.472L100.337,255.69h90.278c3.42,0,6.646,1.59,8.727,4.304c2.082,2.713,2.784,6.24,1.898,9.543
				l-46.973,175.306l186.438-262.186h-89.821c-3.93,0-7.562-2.097-9.526-5.5s-1.965-7.597,0-11L298.607,67h-66.152
				c-6.075,0-11-4.925-11-11s4.925-11,11-11h85.205c3.93,0,7.562,2.097,9.526,5.5s1.965,7.597,0,11l-57.249,99.158h92.088
				c4.116,0,7.888,2.298,9.775,5.956c1.888,3.658,1.574,8.064-0.811,11.418L136.796,507.375
				C134.675,510.356,131.296,512.001,127.827,512.001z"/>
		</g>
	</g>
	<g>
		<g>
			<path style="fill:#33CCCC;" d="M381.001,443.184L381.001,443.184c-4.979,0-9.337-3.344-10.625-8.153
				c-4.852-18.107-19.114-32.37-37.222-37.222c-4.81-1.288-8.153-5.646-8.153-10.625s3.344-9.337,8.153-10.625
				c18.107-4.852,32.37-19.114,37.222-37.222c1.288-4.809,5.646-8.153,10.625-8.153s9.337,3.344,10.625,8.153
				c4.853,18.108,19.114,32.37,37.222,37.222c4.81,1.289,8.153,5.646,8.153,10.625s-3.344,9.336-8.153,10.625
				c-18.106,4.852-32.369,19.114-37.222,37.222C390.337,439.84,385.979,443.184,381.001,443.184z M361.826,387.184
				c7.498,5.171,14.004,11.678,19.175,19.176c5.172-7.498,11.678-14.004,19.176-19.176c-7.498-5.171-14.004-11.678-19.176-19.175
				C375.83,375.507,369.324,382.013,361.826,387.184z"/>
		</g>
		<g>
			<path style="fill:#33CCCC;" d="M142.456,112c-4.979,0-9.337-3.344-10.625-8.153c-4.853-18.108-19.115-32.37-37.222-37.222
				c-4.81-1.289-8.153-5.646-8.153-10.625c0-4.979,3.344-9.337,8.153-10.625c18.106-4.851,32.369-19.113,37.222-37.221
				C133.119,3.344,137.477,0,142.456,0l0,0c4.979,0,9.337,3.344,10.625,8.153c4.852,18.107,19.113,32.37,37.221,37.221
				c4.81,1.289,8.153,5.646,8.153,10.625c0,4.979-3.344,9.336-8.153,10.625c-18.107,4.852-32.369,19.114-37.221,37.222
				C151.793,108.655,147.434,112,142.456,112z M123.28,56c7.498,5.172,14.004,11.678,19.176,19.175
				c5.171-7.498,11.677-14.003,19.175-19.175c-7.498-5.171-14.004-11.677-19.175-19.175C137.284,44.322,130.778,50.828,123.28,56z"
				/>
		</g>
	</g>
</g>
<g>
</g>
<g>
</g>
<g>
</g>
<g>
</g>
<g>
</g>
<g>
</g>
<g>
</g>
<g>
</g>
<g>
</g>
<g>
</g>
<g>
</g>
<g>
</g>
<g>
</g>
<g>
</g>
<g>
</g>
</svg>
