<?xml version="1.0" encoding="UTF-8"?>
<!-- Generator: Adobe Illustrator 24.2.3, SVG Export Plug-In . SVG Version: 6.00 Build 0)  -->
<svg xmlns="http://www.w3.org/2000/svg" xmlns:xlink="http://www.w3.org/1999/xlink" version="1.1" id="Capa_1" x="0px" y="0px" viewBox="0 0 512.016 512.016" style="enable-background:new 0 0 512.016 512.016;" xml:space="preserve" width="512" height="512">
<g>
	<path style="fill:#33CCCC;" d="M511.968,478.814l-7.827-101.75c-1.46-18.968-15.089-34.502-32.805-39.14v-203.91   c0-6.075-4.925-11-11-11H235.668c-6.075,0-11,4.925-11,11c0,6.075,4.925,11,11,11h213.668v192.91   c-17.717,4.638-31.345,20.17-32.805,39.14l-7.827,101.75c-0.608,6.196,4.739,11.98,10.968,11.844c0,0,81.328,0,81.328,0   C507.223,490.791,512.582,485.013,511.968,478.814z M431.551,468.658l6.916-89.906c0.874-11.356,10.479-20.252,21.869-20.252   s20.996,8.896,21.869,20.251v0l6.916,89.906H431.551z"/>
	<path d="M409.343,145.015l-173.675,78.586L37.683,134.015l197.985-89.586l173.675,78.586h50.993c1.834,0,3.56,0.455,5.08,1.249   c0.076-0.259-225.07-101.681-225.213-101.931c-2.883-1.303-6.188-1.303-9.071,0L6.465,123.993C2.529,125.774,0,129.695,0,134.015   s2.529,8.241,6.465,10.022l65.714,29.735v127.338c0,12.485,9.102,30.136,52.461,43.327c58.481,18.61,163.576,18.611,222.057-0.001   c43.359-13.19,52.461-30.842,52.461-43.326V173.772l50.179-22.705v-6.052H409.343z M377.157,301.109   c0,4.448-9.817,14.051-36.864,22.28c-27.792,8.455-64.948,13.111-104.625,13.111s-76.833-4.656-104.625-13.111   c-27.047-8.229-36.864-17.832-36.864-22.28V183.726l136.954,61.97c1.441,0.652,2.988,0.978,4.535,0.978s3.094-0.326,4.535-0.978   l136.954-61.97V301.109z"/>
</g>















</svg>
