<?xml version="1.0" encoding="iso-8859-1"?>
<!-- Generator: Adobe Illustrator 27.5.0, SVG Export Plug-In . SVG Version: 6.00 Build 0)  -->
<svg version="1.1" id="Layer_1" xmlns="http://www.w3.org/2000/svg" xmlns:xlink="http://www.w3.org/1999/xlink" x="0px" y="0px"
	 viewBox="0 0 512 512" style="enable-background:new 0 0 512 512;" xml:space="preserve">
<g>
	<path d="M486.372,427.188h-5.367V168.882c0-18.272-14.866-33.138-33.139-33.138h-78.379c1.192-6.636,1.815-13.468,1.815-20.442
		C371.303,51.725,319.578,0,256,0S140.698,51.725,140.698,115.302c0,6.974,0.623,13.806,1.815,20.442H64.134
		c-18.272,0-33.138,14.866-33.138,33.138v258.306h-5.368C11.497,427.188,0,438.685,0,452.815v0.144C0,485.515,26.485,512,59.041,512
		H452.96c32.555,0,59.04-26.485,59.04-59.041v-0.144C512,438.685,500.503,427.188,486.372,427.188z M420.172,427.188v-50.861h38.833
		v50.861H420.172z M420.172,303.466h38.833v50.861h-38.833V303.466z M459.005,281.466h-38.833v-50.861h38.833V281.466z
		 M459.005,168.882v39.723h-38.833v-50.861h27.694C454.008,157.744,459.005,162.741,459.005,168.882z M256,22
		c51.447,0,93.303,41.855,93.303,93.302S307.447,208.605,256,208.605s-93.302-41.855-93.302-93.303S204.553,22,256,22z M256,230.605
		c48.599,0,90.269-30.224,107.208-72.861h34.964v269.444H113.828V157.744h34.964C165.731,200.381,207.401,230.605,256,230.605z
		 M91.828,281.466H52.996v-50.861h38.833V281.466z M52.996,303.466h38.833v50.861H52.996V303.466z M64.134,157.744h27.694v50.861
		H52.996v-39.723C52.996,162.741,57.992,157.744,64.134,157.744z M52.996,376.327h38.833v50.861H52.996V376.327z M490,452.959
		C490,473.384,473.384,490,452.96,490H59.041C38.616,490,22,473.384,22,452.959v-0.144c0-2,1.627-3.627,3.627-3.627h460.745
		c2,0,3.628,1.627,3.628,3.627V452.959z"/>
	<g>
		<path style="fill:#33CCCC;" d="M325.489,92.325C306.883,73.722,282.205,63.477,256,63.477s-50.883,10.245-69.489,28.848
			c-4.296,4.295-4.297,11.26-0.001,15.556c4.295,4.296,11.26,4.296,15.557,0.001c14.45-14.448,33.604-22.405,53.934-22.405
			s39.483,7.957,53.935,22.405c2.147,2.147,4.963,3.221,7.777,3.221c2.815,0,5.631-1.074,7.779-3.223
			C329.786,103.585,329.785,96.62,325.489,92.325z"/>
		<path style="fill:#33CCCC;" d="M278.951,138.911c2.148,2.148,4.963,3.222,7.778,3.222s5.631-1.074,7.778-3.222
			c4.296-4.296,4.296-11.261,0-15.556c-10.299-10.298-23.974-15.969-38.508-15.969c-14.533,0-28.208,5.671-38.507,15.968
			c-4.296,4.296-4.296,11.26-0.001,15.557c4.295,4.295,11.26,4.296,15.557,0.001c6.144-6.143,14.294-9.526,22.952-9.526
			S272.809,132.768,278.951,138.911z"/>
		<path style="fill:#33CCCC;" d="M179.298,354.888h-16.601v-62.982c0-6.075-4.925-11-11-11s-11,4.925-11,11v73.982
			c0,6.075,4.925,11,11,11h27.601c6.075,0,11-4.925,11-11S185.374,354.888,179.298,354.888z"/>
		<path style="fill:#33CCCC;" d="M360.303,354.888h-19.121v-14.991h15.753c6.075,0,11-4.925,11-11s-4.925-11-11-11h-15.753v-14.991
			h19.121c6.075,0,11-4.925,11-11s-4.925-11-11-11h-30.121c-6.075,0-11,4.925-11,11v73.982c0,6.075,4.925,11,11,11h30.121
			c6.075,0,11-4.925,11-11S366.378,354.888,360.303,354.888z"/>
		<path style="fill:#33CCCC;" d="M216.232,280.905c-6.075,0-11,4.925-11,11v73.982c0,6.075,4.925,11,11,11s11-4.925,11-11v-73.982
			C227.232,285.83,222.308,280.905,216.232,280.905z"/>
		<path style="fill:#33CCCC;" d="M297.182,281.104c-5.969-1.153-11.733,2.757-12.881,8.723l-10.313,53.589l-10.314-53.589
			c-1.147-5.966-6.912-9.869-12.881-8.723c-5.965,1.148-9.871,6.915-8.723,12.881l12.891,66.977
			c1.805,9.377,9.629,15.927,19.027,15.927c9.397,0,17.222-6.549,19.026-15.927l12.891-66.977
			C307.053,288.019,303.147,282.251,297.182,281.104z"/>
		<circle style="fill:#33CCCC;" cx="256" cy="161.91" r="11"/>
	</g>
</g>
<g>
</g>
<g>
</g>
<g>
</g>
<g>
</g>
<g>
</g>
<g>
</g>
<g>
</g>
<g>
</g>
<g>
</g>
<g>
</g>
<g>
</g>
<g>
</g>
<g>
</g>
<g>
</g>
<g>
</g>
</svg>
