<?xml version="1.0" encoding="UTF-8"?>
<!-- Generator: Adobe Illustrator 26.0.3, SVG Export Plug-In . SVG Version: 6.00 Build 0)  -->
<svg xmlns="http://www.w3.org/2000/svg" xmlns:xlink="http://www.w3.org/1999/xlink" version="1.1" id="Capa_1" x="0px" y="0px" viewBox="0 0 512 512" style="enable-background:new 0 0 512 512;" xml:space="preserve" width="512" height="512">
<g>
	<path d="M338.903,95.388V70.755h7.534c6.075,0,11-4.925,11-11s-4.925-11-11-11h-37.069c-6.075,0-11,4.925-11,11s4.925,11,11,11   h7.535v24.633c-96.409,5.71-173.098,85.941-173.098,183.759c0,101.512,82.586,184.097,184.098,184.097S512,380.659,512,279.147   C512,181.33,435.312,101.099,338.903,95.388z M327.903,441.245c-89.381,0-162.098-72.716-162.098-162.097   c0-89.381,72.717-162.097,162.098-162.097C417.284,117.05,490,189.767,490,279.147C490,368.528,417.284,441.245,327.903,441.245z"/>
	<path style="fill:#33CCCC;" d="M463.143,279.147c0-74.571-60.668-135.24-135.239-135.24s-135.24,60.669-135.24,135.24   c0,74.567,60.662,135.232,135.227,135.239c0.004,0,0.008,0.001,0.013,0.001c0.004,0,0.009-0.001,0.013-0.001   C402.482,414.379,463.143,353.714,463.143,279.147z M338.903,391.851v-19.529c0-6.075-4.925-11-11-11s-11,4.925-11,11v19.529   c-53.677-5.199-96.506-48.026-101.705-101.703h19.529c6.075,0,11-4.925,11-11s-4.925-11-11-11h-19.529   c5.199-53.677,48.027-96.505,101.705-101.704v19.529c0,6.075,4.925,11,11,11s11-4.925,11-11v-19.529   c53.677,5.199,96.505,48.027,101.704,101.704h-19.529c-6.075,0-11,4.925-11,11s4.925,11,11,11h19.529   C435.408,343.825,392.581,386.652,338.903,391.851z"/>
	<g>
		<path style="fill:none;stroke:#000000;stroke-width:22;stroke-linecap:round;stroke-linejoin:round;stroke-miterlimit:10;" d="    M367.342,318.586"/>
	</g>
	<g>
		<g>
			<path style="fill:#33CCCC;" d="M96.208,213.562H39.402c-6.075,0-11-4.925-11-11c0-6.075,4.925-11,11-11h56.806     c6.075,0,11,4.925,11,11C107.208,208.637,102.283,213.562,96.208,213.562z"/>
		</g>
		<g>
			<path style="fill:#33CCCC;" d="M96.208,276.679H11c-6.075,0-11-4.925-11-11s4.925-11,11-11h85.208c6.075,0,11,4.925,11,11     S102.283,276.679,96.208,276.679z"/>
		</g>
		<g>
			<path style="fill:#33CCCC;" d="M96.208,339.796H39.402c-6.075,0-11-4.925-11-11c0-6.075,4.925-11,11-11h56.806     c6.075,0,11,4.925,11,11C107.208,334.872,102.283,339.796,96.208,339.796z"/>
		</g>
	</g>
	<g>
		<path d="M360.68,322.924c-2.815,0-5.63-1.074-7.778-3.222l-32.776-32.777c-2.062-2.063-3.222-4.861-3.222-7.778V238.89    c0-6.075,4.925-11,11-11s11,4.925,11,11v35.702l29.555,29.555c4.296,4.296,4.296,11.261,0,15.557    C366.31,321.85,363.494,322.924,360.68,322.924z"/>
	</g>
</g>















</svg>
