<?xml version="1.0" encoding="iso-8859-1"?>
<!-- Generator: Adobe Illustrator 26.5.1, SVG Export Plug-In . SVG Version: 6.00 Build 0)  -->
<svg version="1.1" id="Capa_1" xmlns="http://www.w3.org/2000/svg" xmlns:xlink="http://www.w3.org/1999/xlink" x="0px" y="0px"
	 viewBox="0 0 510 510" style="enable-background:new 0 0 510 510;" xml:space="preserve">
<g>
	<g>
		<path style="fill-rule:evenodd;clip-rule:evenodd;fill:#BC9AF4;" d="M10,155h390.001c55,0,100,44.999,100,100v0
			c0,55-45,100-100,100H10V155z"/>
		<path style="fill-rule:evenodd;clip-rule:evenodd;fill:#6864F7;" d="M101.074,355c-16.793-39.988-26.073-83.91-26.073-130
			c0-24.004,2.517-47.421,7.302-70H10v200H101.074z"/>
		
			<ellipse transform="matrix(0.9871 -0.1602 0.1602 0.9871 -35.6815 67.3657)" style="fill-rule:evenodd;clip-rule:evenodd;fill:#B1D952;" cx="400.001" cy="255" rx="100" ry="100"/>
	</g>
	<g>
		<path style="fill:#052A75;" d="M400.001,145c-2.164,0-7.716,0-8.376,0H10c-5.523,0-10,4.477-10,10v200c0,5.523,4.477,10,10,10
			h381.625c0.66,0,6.212,0,8.376,0C460.655,365,510,315.655,510,255S460.655,145,400.001,145z M20,345v-180h316.82
			C308.523,184.925,290,217.84,290,255c0,37.161,18.523,70.076,46.82,90H20z M400.001,345C350.375,345,310,304.626,310,255
			s40.374-90,90.001-90C449.627,165,490,205.374,490,255S449.627,345,400.001,345z"/>
		<g>
			<path style="fill:#FFFFFF;" d="M430,245h-20v-20c0-5.523-4.478-10-10-10s-10,4.477-10,10v20h-20c-5.522,0-10,4.477-10,10
				s4.478,10,10,10h20v20c0,5.523,4.478,10,10,10s10-4.477,10-10v-20h20c5.522,0,10-4.477,10-10S435.523,245,430,245z"/>
			<path style="fill:#FFFFFF;" d="M78.637,205c-16.542,0-30,13.458-30,30v60c0,5.523,4.477,10,10,10s10-4.477,10-10v-20.001h20V295
				c0,5.523,4.477,10,10,10s10-4.477,10-10v-60C108.637,218.458,95.179,205,78.637,205z M88.637,254.999h-20V235
				c0-5.514,4.486-10,10-10s10,4.486,10,10V254.999z"/>
			<path style="fill:#FFFFFF;" d="M155.001,205h-20c-5.523,0-10,4.477-10,10v80c0,5.523,4.477,10,10,10h20c16.542,0,30-13.458,30-30
				v-40C185.001,218.458,171.543,205,155.001,205z M165.001,275.001c0,5.514-4.486,10-10,10h-10v-60h10c5.514,0,10,4.486,10,10
				V275.001z"/>
			<path style="fill:#FFFFFF;" d="M231.364,205h-20c-5.523,0-10,4.477-10,10v80c0,5.523,4.477,10,10,10h20c16.542,0,30-13.458,30-30
				v-40C261.365,218.458,247.906,205,231.364,205z M241.364,275.001c0,5.514-4.486,10-10,10h-10v-60h10c5.514,0,10,4.486,10,10
				V275.001z"/>
		</g>
	</g>
</g>
<g>
</g>
<g>
</g>
<g>
</g>
<g>
</g>
<g>
</g>
<g>
</g>
<g>
</g>
<g>
</g>
<g>
</g>
<g>
</g>
<g>
</g>
<g>
</g>
<g>
</g>
<g>
</g>
<g>
</g>
</svg>
