<svg clip-rule="evenodd" fill-rule="evenodd" height="512" image-rendering="optimizeQuality" shape-rendering="geometricPrecision" text-rendering="geometricPrecision" viewBox="0 0 4335 4335" width="512" xmlns="http://www.w3.org/2000/svg"><g id="Layer_x0020_1"><g id="_574706072"><g><path d="m3874 3525c-31 0-57-22-63-51l-3301 2c-6 27-28 49-59 49-35 0-64-28-64-63v-2226c0-46 43-88 88-88 1132 0 2222-3 3377-3 46 0 85 38 85 88v2229c0 35-28 63-63 63z" fill="#4d4d4d"/><path d="m3733 3406v-2084c-1081 0-2094 4-3145 4v2082z" fill="#d9f2f2"/><path d="m3965 4000h-3602c-201 0-363-162-363-362v-176c0-36 28-64 63-64h4209c35 0 63 28 63 64v176c-4 200-169 362-370 362z" fill="#99a4ac"/><path d="m1737 3398h861v203c-2 24-21 40-42 40h-777c-23 0-42-19-42-42z" fill="#bcc3c9"/></g><path d="m3146 3208h-1965c-35 0-63-28-63-63 0-36 28-64 63-64h1965c36 0 64 28 64 64 0 35-28 63-64 63z" fill="#b0c4c4"/><path d="m2167 2750c-665 0-1207-542-1207-1208 0-665 542-1208 1207-1208 666 0 1208 543 1208 1208-3 666-542 1208-1208 1208z" fill="#7ed63f"/><g fill="#fff"><path d="m2322 2067c-24 0-49-18-59-42l-377-1113c-11-32 7-67 38-77 32-11 67 7 78 38l380 1113c11 32-7 67-38 78-8 0-15 3-22 3z"/><path d="m1565 2067c-7 0-14 0-21-3-32-11-49-46-39-78l377-1113c11-31 46-49 78-38 31 10 49 45 38 77l-376 1113c-7 24-32 42-57 42z"/><path d="m2167 1606h-443c-35 0-64-28-64-64 0-35 29-63 64-63h443c36 0 64 28 64 63 0 36-32 64-64 64z"/><path d="m2685 2067c-35 0-63-28-63-63v-1113c0-35 28-64 63-64s64 29 64 64v1113c0 35-29 63-64 63z"/><path d="m2837 954h-303c-36 0-64-28-64-60 0-31 28-63 64-63h303c35 0 63 28 63 63 0 36-28 60-63 60z"/><path d="m2837 2067h-303c-36 0-64-28-64-63 0-36 28-64 64-64h303c35 0 63 28 63 64 0 35-28 63-63 63z"/></g></g></g></svg>