<?xml version="1.0" encoding="iso-8859-1"?>
<!-- Generator: Adobe Illustrator 19.0.0, SVG Export Plug-In . SVG Version: 6.00 Build 0)  -->
<svg version="1.1" id="Capa_1" xmlns="http://www.w3.org/2000/svg" xmlns:xlink="http://www.w3.org/1999/xlink" x="0px" y="0px"
	 viewBox="0 0 512 512" style="enable-background:new 0 0 512 512;" xml:space="preserve">
<circle style="fill:#18C9B5;" cx="466.246" cy="469.3" r="33.79"/>
<path style="fill:#008878;" d="M466.246,467.423c-12.114,0-22.733-6.378-28.698-15.957c-3.224,5.177-5.092,11.285-5.092,17.834
	c0,18.662,15.128,33.79,33.79,33.79c18.662,0,33.79-15.128,33.79-33.79c0-6.548-1.868-12.657-5.092-17.834
	C488.979,461.044,478.36,467.423,466.246,467.423z"/>
<rect x="11.964" y="7.509" style="fill:#18C9B5;" width="97.614" height="97.614"/>
<polyline style="fill:#008878;" points="11.964,105.123 11.964,7.509 109.578,7.509 "/>
<polygon style="fill:#8CA1B6;" points="459.287,157.685 426.825,213.911 491.749,213.911 "/>
<circle style="fill:#EE6984;" cx="379.895" cy="60.07" r="50.684"/>
<path style="fill:#F9ACB6;" d="M355.492,80.72c0-27.992,22.692-50.684,50.684-50.684c5.746,0,11.262,0.97,16.411,2.731
	c-9.009-14.056-24.756-23.38-42.692-23.38c-27.992,0-50.684,22.693-50.684,50.684c0,22.246,14.339,41.131,34.273,47.953
	C358.433,100.141,355.492,90.776,355.492,80.72z"/>
<circle style="fill:#8CA1B6;" cx="117.087" cy="165.194" r="22.526"/>
<polygon style="fill:#3483E0;" points="345.6,305.075 345.6,206.525 260.255,157.251 174.909,206.525 174.909,305.075 
	260.255,354.348 "/>
<polygon style="fill:#54A7E9;" points="346.106,305.984 175.28,236.527 175.28,208.369 346.106,277.826 "/>
<rect x="11.964" y="274.071" style="fill:#EE6984;" width="45.053" height="45.053"/>
<polygon style="fill:#FFBF28;" points="115.848,339.773 20.747,504.491 210.947,504.491 "/>
<polyline style="fill:#F9AC11;" points="19.473,503.09 117.087,503.09 115.848,339.773 20.747,504.491 "/>
<g>
	<path style="fill:#FFFFFF;" d="M222.21,210.246v90.106h15.018v-30.035h15.018v30.035h15.018v-90.106H222.21z M237.228,255.299
		v-30.035h15.018v30.035H237.228z"/>
	<rect x="282.281" y="210.246" style="fill:#FFFFFF;" width="15.018" height="90.106"/>
</g>
<path d="M117.087,112.632H4.455V0h112.632V112.632z M19.473,97.614h82.597V15.018H19.473C19.473,15.018,19.473,97.614,19.473,97.614
	z"/>
<path d="M117.087,195.229c-16.561,0-30.035-13.474-30.035-30.035s13.474-30.035,30.035-30.035s30.035,13.474,30.035,30.035
	S133.649,195.229,117.087,195.229z M117.087,150.176c-8.281,0-15.018,6.737-15.018,15.018s6.737,15.018,15.018,15.018
	s15.018-6.737,15.018-15.018S125.368,150.176,117.087,150.176z"/>
<path d="M466.246,510.598c-22.772,0-41.298-18.527-41.298-41.298c0-22.772,18.527-41.298,41.298-41.298
	c22.772,0,41.298,18.527,41.298,41.298C507.545,492.072,489.018,510.598,466.246,510.598z M466.246,443.019
	c-14.491,0-26.281,11.79-26.281,26.281c0,14.491,11.79,26.281,26.281,26.281c14.491,0,26.281-11.79,26.281-26.281
	C492.527,454.809,480.737,443.019,466.246,443.019z"/>
<path d="M379.895,118.264c-32.088,0-58.193-26.106-58.193-58.193s26.106-58.193,58.193-58.193s58.193,26.106,58.193,58.193
	S411.983,118.264,379.895,118.264z M379.895,16.895c-23.807,0-43.176,19.369-43.176,43.176s19.369,43.176,43.176,43.176
	s43.176-19.369,43.176-43.176S403.702,16.895,379.895,16.895z"/>
<path d="M223.952,512H7.742l108.106-187.244L223.952,512z M33.754,496.982h164.188l-82.094-142.192L33.754,496.982z"/>
<path d="M504.755,221.419H413.82l45.468-78.752L504.755,221.419z M439.83,206.402h38.914l-19.457-33.699L439.83,206.402z"/>
<path d="M64.526,326.633H4.455v-60.07h60.07V326.633z M19.473,311.615h30.035V281.58H19.473V311.615z"/>
<rect x="34.49" y="30.035" style="fill:#FFFFFF;" width="15.018" height="15.018"/>
<rect x="72.034" y="67.579" width="15.018" height="15.018"/>
<rect x="132.105" y="75.088" style="fill:#54A7E9;" width="15.018" height="15.018"/>
<rect x="162.14" y="75.088" style="fill:#FF8398;" width="15.018" height="15.018"/>
<rect x="109.578" y="210.246" style="fill:#FFD840;" width="15.018" height="15.018"/>
<rect x="107.596" y="427.521" width="15.018" height="15.018"/>
<rect x="107.596" y="457.556" style="fill:#FFFFFF;" width="15.018" height="15.018"/>
<rect x="77.561" y="457.556" width="15.018" height="15.018"/>
<rect x="137.631" y="457.556" width="15.018" height="15.018"/>
<rect x="184.666" y="412.984" style="fill:#FF8398;" width="15.018" height="15.018"/>
<rect x="214.702" y="412.984" style="fill:#18C9B5;" width="15.018" height="15.018"/>
<rect x="439.966" y="232.773" style="fill:#54A7E9;" width="15.018" height="15.018"/>
<rect x="439.966" y="262.808" style="fill:#FF8398;" width="15.018" height="15.018"/>
<rect x="372.386" y="73.206" style="fill:#FFFFFF;" width="15.018" height="15.018"/>
<rect x="372.386" y="127.65" style="fill:#FFD840;" width="15.018" height="15.018"/>
<rect x="372.386" y="157.685" style="fill:#18C9B5;" width="15.018" height="15.018"/>
<polygon points="387.404,232.773 364.878,232.773 364.878,217.755 372.386,217.755 372.386,187.72 387.404,187.72 "/>
<rect x="79.543" y="292.843" style="fill:#18C9B5;" width="15.018" height="15.018"/>
<g>
	<rect x="109.578" y="292.843" style="fill:#54A7E9;" width="15.018" height="15.018"/>
	<rect x="394.913" y="458.037" style="fill:#54A7E9;" width="15.018" height="15.018"/>
</g>
<rect x="364.878" y="458.037" style="fill:#FFD840;" width="15.018" height="15.018"/>
<path d="M439.966,292.843v15.018H409.93v-45.053H353.11V202.19l-92.855-53.61l-53.062,30.636V127.65h97.614V75.088H192.175v15.018
	h97.614v22.526h-97.614v75.255L167.4,202.191v45.599h-42.804v-7.509h-15.018v22.526H167.4v30.035h-27.787v15.018H167.4v1.549
	l47.301,27.309v53.739h52.562v22.526h-22.526v15.018h37.544V375.44h-52.562v-30.051l30.536,17.63l52.061-30.057v44.356h52.562
	v43.176h-52.562v52.562h37.544v-15.018h-22.526V435.51h52.562V362.3h-52.562v-38.009l25.776-14.881v-31.584h41.803v45.053h60.07
	v-30.035H439.966z M338.091,300.738l-77.837,44.939l-77.837-44.939V210.86l77.837-44.939l77.837,44.939V300.738z"/>
<g>
</g>
<g>
</g>
<g>
</g>
<g>
</g>
<g>
</g>
<g>
</g>
<g>
</g>
<g>
</g>
<g>
</g>
<g>
</g>
<g>
</g>
<g>
</g>
<g>
</g>
<g>
</g>
<g>
</g>
</svg>
