<svg id="Capa_1" enable-background="new 0 0 512 512" viewBox="0 0 512 512" xmlns="http://www.w3.org/2000/svg"><g><path d="m163 0h30v45h-30z" fill="#ffdd46"/><path d="m319 0h30v45h-30z" fill="#ffb54c"/><path d="m193 352-30 17.633v-62.633h30z" fill="#ffdd46"/><path d="m349 362.962-30-10.962v-45h30z" fill="#ffb54c"/><path d="m256 393.922-63-41.83h-37.6c-79.902 0-144.907 65.005-144.907 144.908v15h99.507l15-22.76 15 22.76h116l6-66.878z" fill="#6354b1"/><path d="m110 437.659h30v74.341h-30z" fill="#463b84"/><path d="m356.6 352.092h-37.6l-63 41.83v118.078h112.195l15-23.697 15 23.697h103.312v-15c0-79.902-65.006-144.908-144.907-144.908z" fill="#463b84"/><path d="m368.195 437.659h30v74.341h-30z" fill="#392e6e"/><path d="m387 161h45v30h-45z" fill="#ffb54c"/><path d="m387 239h45v30h-45z" fill="#ffb54c"/><path d="m387 83h45v30h-45z" fill="#ffb54c"/><g fill="#ffdd46"><path d="m80 161h45v30h-45z"/><path d="m80 83h45v30h-45z"/><path d="m80 239h45v30h-45z"/><path d="m241 0v45h15l6-17-6-28z"/></g><path d="m256 0h15v45h-15z" fill="#ffb54c"/><path d="m241 359.276h15l6-20.91-6-31.366h-15z" fill="#ffdd46"/><path d="m256 307h15v52.276h-15z" fill="#ffb54c"/><path d="m110 30v292h146l20-149-20-143z" fill="#2ad7f5"/><path d="m256 30h146v292h-146z" fill="#3ba9ff"/><path d="m311.203 179.333h30v69.261h-30z" fill="#e7f2ff"/><path d="m311.203 119.333h30v30h-30z" fill="#e7f2ff"/><path d="m231.535 101.062-26.105.026-51.983 136.49 28.035 10.678 8.33-21.871h56.953l9.235 21.452 4.579-39.622-4.579-42.326zm-30.298 95.323 17.181-45.113 17.025 45.113z" fill="#fbf9f9"/><path d="m256 165.889v81.948l27.07-10.217z" fill="#e7f2ff"/><path d="m193 352.092v12.6c0 34.738 28.262 63 63 63l8.841-41.651-8.841-33.949z" fill="#ffcc73"/><path d="m256 352.092v75.6c34.738 0 63-28.262 63-63v-12.6z" fill="#ffb073"/></g><g/><g/><g/><g/><g/><g/><g/><g/><g/><g/><g/><g/><g/><g/><g/></svg>