<svg id="Capa_1" enable-background="new 0 0 512 512" height="512" viewBox="0 0 512 512" width="512" xmlns="http://www.w3.org/2000/svg"><g><circle cx="256" cy="256" fill="#b16ee5" r="256"/><path d="m442.596 153.496-7.77-7.77-17.195 17.195 7.77 7.77-19.854 19.854-34.547-34.545-133.655 133.656-143.605-143.605-7.781 7.781-7.721-7.721-17.195 17.195 7.66 7.66-6.844 6.844 75.346 75.346-4.94 4.94-7.468-7.468-11.681 11.681-11.681-11.681-11.58 11.58-22.151-22.151-7.888 7.888-8.659-8.659-17.195 17.195 8.654 8.654-6.719 6.719 56.699 56.699-10.105 10.105-5.948-5.947-17.195 17.195 9.291 9.291-6.707 6.707 140.457 140.456c17.291 3.684 35.221 5.64 53.611 5.64 141.385 0 256-114.615 256-256 0-18.39-1.956-36.321-5.641-53.612l-56.328-56.328z" fill="#8335ba"/><path d="m29.349 256c0 12.407 10.094 22.5 22.5 22.5 9.777 0 18.114-6.271 21.21-15h80.846v-15h-80.846c-3.096-8.729-11.433-15-21.21-15-12.407 0-22.5 10.093-22.5 22.5zm15 0c0-4.136 3.364-7.5 7.5-7.5s7.5 3.364 7.5 7.5-3.364 7.5-7.5 7.5-7.5-3.364-7.5-7.5z" fill="#fde575"/><path d="m61.949 177.9c6.913 6.913 17.242 8.374 25.604 4.391l28.213 28.213h46.139v-15h-39.926l-23.819-23.82c3.983-8.362 2.522-18.691-4.391-25.604-8.773-8.773-23.047-8.773-31.82 0s-8.773 23.047 0 31.82zm10.606-21.213c2.924-2.924 7.682-2.924 10.607 0 2.924 2.924 2.924 7.682 0 10.607-2.924 2.924-7.682 2.924-10.607 0s-2.924-7.683 0-10.607z" fill="#fde575"/><path d="m61.949 365.92c8.773 8.773 23.047 8.773 31.82 0 6.913-6.913 8.374-17.242 4.391-25.604l23.819-23.819h39.926v-15h-46.139l-28.213 28.213c-8.362-3.983-18.691-2.522-25.604 4.391-8.773 8.772-8.773 23.046 0 31.819zm10.606-21.213c2.924-2.924 7.682-2.924 10.607 0 2.924 2.924 2.924 7.682 0 10.607-2.924 2.924-7.682 2.924-10.607 0-2.924-2.925-2.924-7.683 0-10.607z" fill="#fde575"/><g fill="#fcc74c"><path d="m460.151 233.5c-9.777 0-18.114 6.271-21.21 15h-80.846v15h80.846c3.096 8.729 11.433 15 21.21 15 12.406 0 22.5-10.093 22.5-22.5s-10.093-22.5-22.5-22.5zm0 30c-4.136 0-7.5-3.364-7.5-7.5s3.364-7.5 7.5-7.5 7.5 3.364 7.5 7.5-3.364 7.5-7.5 7.5z"/><path d="m450.051 146.08c-8.773-8.773-23.047-8.773-31.82 0-6.913 6.913-8.374 17.242-4.391 25.604l-23.819 23.819h-39.926v15h46.139l28.213-28.213c8.362 3.983 18.691 2.522 25.604-4.391 8.773-8.772 8.773-23.046 0-31.819zm-10.606 21.213c-2.924 2.924-7.682 2.924-10.607 0-2.924-2.924-2.924-7.682 0-10.607 2.924-2.924 7.682-2.924 10.607 0 2.924 2.925 2.924 7.683 0 10.607z"/><path d="m450.051 334.1c-6.913-6.913-17.242-8.374-25.604-4.391l-28.213-28.213h-46.139v15h39.926l23.819 23.819c-3.983 8.362-2.522 18.691 4.391 25.604 8.773 8.773 23.047 8.773 31.82 0 8.773-8.772 8.773-23.046 0-31.819zm-10.606 21.213c-2.924 2.924-7.682 2.924-10.607 0-2.924-2.924-2.924-7.682 0-10.607 2.924-2.924 7.682-2.924 10.607 0s2.924 7.683 0 10.607z"/><path d="m141 156v200h115l19.398-99.919-19.398-100.081z"/></g><path d="m256 156h115v200h-115z" fill="#f49f36"/><path d="m296.428 190.503h15v128.993h-15z" fill="#333940"/><path d="m227.843 191.304h-15.136l-47.313 124.232 14.018 5.338 11.49-30.169h58.421l6.677 17.694 3.723-17.569-3.723-24.916zm-31.228 84.402 23.631-62.05 23.417 62.05z" fill="#555a65"/><path d="m274.737 315.565-18.737-49.651v42.485l4.703 12.462z" fill="#333940"/></g></svg>