<svg id="arrow5" enable-background="new 0 0 300 300" height="512" viewBox="0 0 300 300" width="512" xmlns="http://www.w3.org/2000/svg"><g><circle cx="146.008" cy="158" fill="#efefd2" r="92"/><g fill="#4c241d"><path d="m198.008 242c-6.617 0-12-5.383-12-12s5.383-12 12-12 12 5.383 12 12-5.382 12-12 12zm0-16c-2.205 0-4 1.793-4 4s1.795 4 4 4 4-1.793 4-4-1.794-4-4-4z"/><path d="m190.008 74c-2.209 0-4-1.789-4-4v-16c0-2.211 1.791-4 4-4s4 1.789 4 4v16c0 2.211-1.791 4-4 4z"/><path d="m198.008 66h-16c-2.209 0-4-1.789-4-4s1.791-4 4-4h16c2.209 0 4 1.789 4 4s-1.791 4-4 4z"/><circle cx="114.008" cy="62" r="4"/></g><g><path d="m259.04 150.098-28-32c-4.367-4.986-11.947-5.496-16.934-1.129-4.988 4.365-5.492 11.945-1.129 16.934l10.586 12.097h-173.555c-6.627 0-12 5.373-12 12s5.373 12 12 12h173.554l-10.586 12.098c-4.363 4.988-3.859 12.568 1.129 16.934 2.277 1.992 5.094 2.969 7.898 2.969 3.34 0 6.662-1.387 9.035-4.098l28-32c3.961-4.526 3.961-11.28.002-15.805z" fill="#ffce56"/><path d="m222.005 206c-3.873 0-7.615-1.406-10.531-3.957-6.639-5.812-7.314-15.941-1.506-22.578l4.781-5.465h-164.741c-8.822 0-16-7.176-16-16s7.178-16 16-16h164.74l-4.781-5.465c-5.811-6.641-5.135-16.77 1.506-22.578 6.629-5.809 16.758-5.133 22.574 1.504l28.002 32.004h.002c5.254 6.008 5.254 15.066-.002 21.07l-28 32c-3.039 3.473-7.429 5.465-12.044 5.465zm-171.997-56c-4.412 0-8 3.59-8 8s3.588 8 8 8h173.555c1.57 0 2.994.918 3.643 2.348s.4 3.105-.633 4.285l-10.586 12.098c-2.902 3.32-2.564 8.387.754 11.293 3.193 2.793 8.496 2.434 11.289-.754l28-32c2.627-3.004 2.627-7.531 0-10.539l-28-32c-2.914-3.32-7.975-3.656-11.289-.754-3.32 2.906-3.658 7.973-.752 11.293l10.584 12.098c1.033 1.18 1.281 2.855.633 4.285s-2.073 2.347-3.643 2.347z" fill="#4c241d"/></g><g><path d="m125.961 170c-2.2 22.347-9.595 32-11.681 32-3.154 0-12.271-15.129-12.271-44s9.117-44 12.271-44c2.086 0 9.481 9.653 11.681 32h16.008c0-.245.03-.485.007-.734-2.645-28.711-13.516-47.266-27.696-47.266-18.561 0-28.271 30.184-28.271 60s9.711 60 28.271 60c14.18 0 25.051-18.555 27.695-47.266.023-.249-.007-.489-.007-.734z" fill="#a9ba5a"/><path d="m114.28 222c-22.172 0-32.271-33.176-32.271-64s10.1-64 32.271-64c16.648 0 28.787 19.504 31.678 50.898.033.34.029.676.016 1.012-.092 2.141-1.861 4.09-4.004 4.09h-16.008c-2.057 0-3.779-1.559-3.98-3.609-1.533-15.566-5.516-23.91-7.77-27.18-2.898 4.309-8.203 17.121-8.203 38.789s5.305 34.48 8.203 38.789c2.254-3.27 6.236-11.613 7.77-27.18.201-2.051 1.924-3.609 3.98-3.609h16.008c2.209 0 4 1.789 4 4 .018.426.021.762-.012 1.109-2.891 31.387-15.03 50.891-31.678 50.891zm0-120c-15.766 0-24.271 28.852-24.271 56s8.506 56 24.271 56c11.225 0 20.404-15.918 23.326-40h-8.076c-2.604 19.863-9.73 32-15.25 32-7.682 0-16.271-20.527-16.271-48s8.59-48 16.271-48c5.52 0 12.646 12.137 15.25 32h8.072c-2.902-24.055-12.09-40-23.322-40z" fill="#4c241d"/></g><g><path d="m165.961 170c-2.2 22.347-9.595 32-11.681 32-3.154 0-12.271-15.129-12.271-44s9.117-44 12.271-44c2.086 0 9.481 9.653 11.681 32h16.008c0-.245.03-.485.007-.734-2.645-28.711-13.516-47.266-27.696-47.266-18.561 0-28.271 30.184-28.271 60s9.711 60 28.271 60c14.18 0 25.051-18.555 27.695-47.266.023-.249-.007-.489-.007-.734z" fill="#e66353"/><path d="m154.28 222c-22.172 0-32.271-33.176-32.271-64s10.1-64 32.271-64c16.648 0 28.787 19.504 31.678 50.898.033.34.029.676.016 1.012-.092 2.141-1.861 4.09-4.004 4.09h-16.008c-2.057 0-3.779-1.559-3.98-3.609-1.533-15.566-5.516-23.91-7.77-27.18-2.898 4.309-8.203 17.121-8.203 38.789s5.305 34.48 8.203 38.789c2.254-3.27 6.236-11.613 7.77-27.18.201-2.051 1.924-3.609 3.98-3.609h16.008c2.209 0 4 1.789 4 4 .018.426.021.762-.012 1.109-2.891 31.387-15.03 50.891-31.678 50.891zm0-120c-15.766 0-24.271 28.852-24.271 56s8.506 56 24.271 56c11.225 0 20.404-15.918 23.326-40h-8.076c-2.604 19.863-9.73 32-15.25 32-7.682 0-16.271-20.527-16.271-48s8.59-48 16.271-48c5.52 0 12.646 12.137 15.25 32h8.072c-2.902-24.055-12.09-40-23.322-40z" fill="#4c241d"/></g></g></svg>