<svg id="Capa_1" enable-background="new 0 0 512 512" viewBox="0 0 512 512" xmlns="http://www.w3.org/2000/svg"><g><path d="m385.642 512h-339.284c-25.603 0-46.358-20.755-46.358-46.358v-339.284c0-25.603 20.755-46.358 46.358-46.358h339.284c25.603 0 46.358 20.755 46.358 46.358v339.284c0 25.603-20.755 46.358-46.358 46.358z" fill="#26a6fe"/><path d="m406.466 84.93c3.154 6.262 4.93 13.336 4.93 20.824v334.426c0 28.286-22.93 51.216-51.216 51.216h-334.425c-7.489 0-14.563-1.777-20.824-4.93 7.627 15.145 23.313 25.534 41.427 25.534h339.284c25.603 0 46.358-20.755 46.358-46.358v-339.284c0-18.114-10.389-33.8-25.534-41.428z" fill="#0593fc"/><path d="m507.703 73.97c-32.628-11.195-58.452-37.033-69.627-69.669-.879-2.567-3.277-4.301-5.99-4.301h-.046c-2.713 0-5.111 1.734-5.99 4.301-11.187 32.679-37.06 58.543-69.745 69.714-2.569.878-4.305 3.276-4.305 5.991 0 2.715 1.736 5.113 4.305 5.991 32.685 11.168 58.557 37.025 69.744 69.701.879 2.567 3.277 4.301 5.99 4.301h.047c2.713 0 5.111-1.734 5.99-4.301 11.175-32.636 36.998-58.472 69.626-69.662 2.566-.88 4.298-3.277 4.298-5.989v-.089c0-2.711-1.732-5.107-4.297-5.988z" fill="#ffd15b"/><path d="m507.703 73.97c-4.358-1.495-8.595-3.252-12.692-5.251-.722.836-1.666 1.489-2.762 1.865-32.628 11.19-58.451 37.026-69.626 69.662-.37 1.081-1.01 2.015-1.829 2.733 2.001 4.106 3.76 8.352 5.255 12.72.879 2.567 3.277 4.301 5.99 4.301h.047c2.713 0 5.111-1.734 5.99-4.301 11.175-32.636 36.998-58.472 69.626-69.662 2.566-.88 4.298-3.277 4.298-5.989v-.089c0-2.712-1.732-5.108-4.297-5.989z" fill="#ffc344"/><g fill="#fff"><path d="m189.026 171.443c-4.186-11.111-15.051-18.88-27.461-18.88h-.029c-12.508.012-23.206 7.792-27.411 18.822l-89.698 235.51c-4.718 12.387 1.499 26.253 13.886 30.971 12.387 4.713 26.253-1.5 30.971-13.886l15.189-39.88c.761-1.997 2.676-3.318 4.814-3.318h103.875c2.143 0 4.062 1.327 4.819 3.332l15.019 39.797c4.731 12.536 18.755 18.723 31.173 13.887 12.338-4.805 18.225-18.94 13.55-31.327zm-62.348 154.355 29.971-78.692c1.687-4.431 7.959-4.421 9.633.015l29.697 78.692c1.271 3.369-1.218 6.97-4.819 6.97h-59.668c-3.608 0-6.098-3.613-4.814-6.985z"/><path d="m338.849 157.65c-13.255 0-24 10.745-24 24v233.788c0 13.255 10.745 24 24 24s24-10.745 24-24v-233.788c0-13.255-10.745-24-24-24z"/></g></g><g/><g/><g/><g/><g/><g/><g/><g/><g/><g/><g/><g/><g/><g/><g/></svg>