<svg id="Capa_1" enable-background="new 0 0 512 512" height="512" viewBox="0 0 512 512" width="512" xmlns="http://www.w3.org/2000/svg"><g><path d="m256 21.996c-77.592 0-146.748 36.079-191.639 92.365l2.664 11.586-16.809 8.054c-6.835 10.553-12.878 21.664-18.05 33.252l3.858 11.944-11.617 7.695c-8.682 25.103-13.41 52.05-13.41 80.105 0 8.429.428 16.759 1.259 24.969l9.435 8.124-6.642 11.515c5.086 27.648 14.815 53.671 28.346 77.232l70.254 77.58c36.881 26.374 81.384 42.764 129.565 45.242l9.82-6.38 9.82 6.619c11.293-.31 22.39-1.397 33.251-3.186l7.752-8.933 11.887 4.868c11.424-2.863 22.527-6.531 33.252-10.935l9.82-11.465 9.82 2.367c78.633-40.783 132.364-122.921 132.364-217.618.002-135.309-109.689-245-245-245z" fill="#1d2e79"/><path d="m94.706 113.862h-29.942c-5.3 6.61-10.273 13.494-14.876 20.64h44.818c5.699 0 10.32-4.62 10.32-10.32-.001-5.7-4.621-10.32-10.32-10.32z" fill="#5071b7"/><path d="m94.706 166.753h-62.32c-3.019 6.724-5.74 13.61-8.154 20.64h70.473c5.699 0 10.32-4.62 10.32-10.32s-4.62-10.32-10.319-10.32z" fill="#5071b7"/><path d="m15.146 312.107h46.016c5.699 0 10.32-4.62 10.32-10.32 0-5.699-4.62-10.32-10.32-10.32h-48.956c.691 6.97 1.677 13.854 2.94 20.64z" fill="#3f57a0"/><path d="m94.706 219.644h-33.544c-5.7 0-10.32 4.62-10.32 10.32v71.823c0 5.699 4.62 10.32 10.32 10.32s10.32-4.62 10.32-10.32v-61.503h23.224c5.699 0 10.32-4.62 10.32-10.32-.001-5.7-4.621-10.32-10.32-10.32z" fill="#5071b7"/><path d="m209.422 301.517h87.227v20.64h-87.227z" fill="#fd8d3e" transform="matrix(0 1 -1 0 564.872 58.801)"/><path d="m262.313 301.517h87.227v20.64h-87.227z" fill="#ffc242" transform="matrix(0 1 -1 0 617.763 5.91)"/><path d="m315.204 301.517h87.227v20.64h-87.227z" fill="#ffc242" transform="matrix(0 1 -1 0 670.654 -46.981)"/><g fill="#3f57a0"><path d="m253.036 452.498c-5.699 0-10.32 4.62-10.32 10.32v48.817c4.399.236 8.826.365 13.284.365 2.461 0 4.911-.047 7.355-.119v-49.063c0-5.699-4.62-10.32-10.319-10.32z"/><path d="m305.927 452.498c-5.699 0-10.32 4.62-10.32 10.32v45.979c6.983-1.135 13.868-2.558 20.64-4.27v-41.708c-.001-5.7-4.621-10.321-10.32-10.321z"/><path d="m358.818 452.498c-5.699 0-10.32 4.62-10.32 10.32v31.1c7.05-2.877 13.936-6.069 20.64-9.566v-21.535c0-5.698-4.621-10.319-10.32-10.319z"/></g><path d="m154.192 366.614-3.083-66.523c-13.881 7.685-25.863 18.191-33.872 29.365-.053.074-.107.149-.161.226-16.958 23.889-36.675 42.797-63.463 54.657l-10.216 4.5c17.598 30.641 41.632 57.113 70.254 77.58l71.746-42.479s6.087-3.442 9.392-2.289z" fill="#ffaa7b"/><path d="m397.076 113.863h56.086v20.64h-56.086z" fill="#fef156"/><g><circle cx="464.828" cy="124.182" fill="#fffbb3" r="18.172"/></g><path d="m397.076 166.754h56.086v20.64h-56.086z" fill="#ffc242"/><g><circle cx="464.828" cy="177.073" fill="#fef156" r="18.172"/></g><path d="m397.076 219.645h56.086v20.64h-56.086z" fill="#ffc242"/><g><circle cx="464.828" cy="229.964" fill="#fef156" r="18.172"/></g><path d="m158.691 113.863h56.086v20.64h-56.086z" fill="#fd8d3e" transform="matrix(-1 0 0 -1 373.468 248.365)"/><g><circle cx="147.025" cy="124.182" fill="#ffc242" r="18.172"/></g><path d="m158.691 166.754h56.086v20.64h-56.086z" fill="#fd8d3e" transform="matrix(-1 0 0 -1 373.468 354.147)"/><g><circle cx="147.025" cy="177.073" fill="#ffc242" r="18.172"/></g><path d="m158.691 219.645h56.086v20.64h-56.086z" fill="#fd8d3e" transform="matrix(-1 0 0 -1 373.468 459.929)"/><g><circle cx="147.025" cy="229.964" fill="#ffc242" r="18.172"/></g><path d="m224.993 47.561h56.086v20.64h-56.086z" fill="#fd8d3e" transform="matrix(0 -1 1 0 195.155 310.916)"/><g><circle cx="253.036" cy="18.172" fill="#ffc242" r="18.172"/></g><path d="m277.884 47.561h56.086v20.64h-56.086z" fill="#ffc242" transform="matrix(0 -1 1 0 248.046 363.807)"/><g><circle cx="305.927" cy="18.172" fill="#fef156" r="18.172"/></g><path d="m330.775 47.561h56.086v20.64h-56.086z" fill="#ffc242" transform="matrix(0 -1 1 0 300.937 416.698)"/><g><circle cx="358.818" cy="18.172" fill="#fef156" r="18.172"/></g><path d="m307.886 276.724h-55.908c-24.058 0-43.742-19.684-43.742-43.742v-111.817c0-24.058 19.684-43.742 43.742-43.742h55.908l19.614 94.524z" fill="#ffc242"/><g><path d="m439.74 304.272c-7.374-7.989-19.303-7.424-28.044-.959-21.792 16.118-62.705 44.287-62.705 44.287l-.004.001c1.448-2.662-11.057-10.27-11.057-10.27s10.865-6.556 7.659-9.221c-6.752-5.612-19.115-8.836-32.885-10.623-33.953-6.21-45.753-4.861-61.569-13.915-8.319-4.763-22.913-11.42-43.886-14.936-19.773-3.315-40.574 2.399-58.1 12.571-6.091 10.704-33.089 67.412 43.206 119.97.818.044 1.638.197 2.436.475 18.809 6.56 60.718 8.602 102.802 6.184 33.41-1.92 104.391-58.824 139.793-93.411 8.805-8.6 10.674-21.139 2.354-30.153z" fill="#ffc7ab"/></g><path d="m349.419 357.075-.428-9.475-.004.001c1.448-2.662 2.201-5.881 1.974-9.78-.26-4.435-2.807-8.015-6.943-10.902 0 0-27.539-6.97-27.927 15.183-.223 12.763 12.168 14.908 22.714 14.433 5.87-2.866 10.614.54 10.614.54z" fill="#fce0d4"/><path d="m365.87 354.335c1.226-2.131 6.001-11.154 6.833-23.207-13.202 9.235-23.712 16.472-23.712 16.472l-.004.001c-4.622 5.418-22.192 20.119-66.97 11.329-51.399-10.091-51.879-9.764-55.616-7.23-7.551 5.123-3.559 16.847 5.389 16.542 1.638.161 10.007 1.24 46.741 8.451 65.86 12.929 85.385-18.81 87.339-22.358z" fill="#ffaa7b"/><path d="m393.525 120.697-25.661-43.077c-1.341-.125-2.698-.197-4.07-.197h-57.703s-17.499 15.599 0 28.587c0 0-18.396 10.86-10.544 31.273 7.852 20.414 15.704 78.967 15.704 78.967s-19.574 13.741-4.141 31.885c0 0-18.63 14.69-1.019 28.587h57.703c24.058 0 43.742-19.684 43.742-43.742v-55.933z" fill="#fef156"/><path d="m366.839 77.542c-1.477 1.424-16.652 16.702-.733 28.468l12.844 72.426s15.168 18.944 28.587 0v-57.271c-.001-23.034-18.048-42.045-40.698-43.623z" fill="#fffbb3"/><path d="m307.886 106.01h-58.219c-6.962 0-12.844 5.881-12.844 12.844v116.439c0 6.962 5.881 12.844 12.844 12.844h59.238l22.121-61.28z" fill="#fd8d3e"/><path d="m366.105 106.01h-60.014s-18.396 10.86-10.544 31.273 15.704 78.967 15.704 78.967-19.574 13.741-4.141 31.885h58.995c6.962 0 12.844-5.882 12.844-12.843v-116.438c0-6.962-5.882-12.844-12.844-12.844z" fill="#ffc242"/><g><path d="m310.24 207.085h-38.716c-5.11 0-9.252-4.143-9.252-9.252 0-5.11 4.142-9.252 9.252-9.252h38.716c5.11 0 9.252 4.142 9.252 9.252 0 5.109-4.143 9.252-9.252 9.252z" fill="#ade9f7"/></g><g><path d="m318.247 220.559c-3.74 0-7.26-2.283-8.658-5.988l-18.687-49.516-18.868 49.542c-1.818 4.774-7.165 7.172-11.939 5.353-4.775-1.818-7.173-7.164-5.354-11.94l26.091-68.504c.027-.071.054-.14.083-.21 1.67-4.083 5.599-6.724 10.01-6.728h.011c4.407 0 8.336 2.632 10.013 6.708.034.084.068.168.1.253l25.853 68.507c1.804 4.782-.608 10.12-5.389 11.923-1.077.408-2.181.6-3.266.6z" fill="#e8f8fc"/></g><g><path d="m346.643 220.556c-5.11 0-9.252-4.143-9.252-9.252v-69.483c0-5.11 4.143-9.252 9.252-9.252s9.252 4.142 9.252 9.252v69.483c0 5.109-4.142 9.252-9.252 9.252z" fill="#e8f8fc"/></g></g></svg>