<svg id="Capa_1" enable-background="new 0 0 512 512" height="512" viewBox="0 0 512 512" width="512" xmlns="http://www.w3.org/2000/svg"><g><g><path d="m256 21.996c-135.311 0-245.002 109.691-245.002 245.002 0 67.077 26.965 127.847 70.635 172.091l209.581 70.382c118.624-17.078 209.788-119.121 209.788-242.472 0-135.312-109.691-245.003-245.002-245.003z" fill="#fef156"/></g><path d="m275.499 116.28-44.445-116.28c-44.367 0-85.217 15.036-117.751 40.278v9.169l-19.144 7.831c-34.234 34.715-55.371 82.38-55.371 134.988.186.827-1.028 22.638 7.215 52.006l11.245 6.925-5.625 10.075c6.481 16.958 16.249 35.364 30.958 53.175l27.25 7.5-11.397 9.5c6.096 5.803 11.022 11.176 15.475 25.334 6.694 21.284 1.42 44.534-13.433 61.184l-18.845 21.124c34.068 34.516 78.311 58.951 127.858 68.477l.008.005.004-.003 9.496-7.871 9 10.7c9.193 1.046 18.532 1.603 28.003 1.603 11.959 0 23.713-.874 35.214-2.53.042-18.438.068-39.849.078-40.141.347-10.643 4.997-12.918 16.249-33.757 1.363-2.321 3.863-3.882 6.603-4.098z" fill="#1d2e79"/><g fill="#2a428b"><path d="m214.415 151.866c-5.511-8.33-4.856-16.871-3.058-23.003 1.986-6.775 5.627-11.795 6.693-13.171l9.949-9.412v-57.502c0-3.938-2.696-7.25-6.337-8.21-9.611-19.547 3.394-36.195 7.308-40.546.695-.007 1.388-.022 2.084-.022 32.557 0 63.997 7.322 91.944 20.532v138.13z"/><path d=""/><path d="m431.826 227.363c-6.2-7.491-8.368-17.525-5.823-26.91.978-4.683 4.39-12.808 4.824-24.651l-131.995-21.521-79.333 10-2.853 102.989c-5.322 7.46-19.928 32.15 1.353 53.961v38.559l.092.25c.176.479 4.464 11.893 18.445 26.657 22.484 23.745 52.733 37.742 74.926 45.447 1.839-.795 3.978-.961 6.053-.238 17.867 5.42 30.247 13.14 51.037 12.222 10.129-.447 19.51-5.362 25.484-13.554 13.529-18.553 9.902-36.212 10.5-41.921 0-15.996 12.607-22.734 16.924-27.976 6.613-6.393 2.513-14.379 2.418-15.95-.34-1.347.129-2.768 1.203-3.649l11.94-9.79c1.057-.867 1.67-2.161 1.67-3.528v-17.143c0-1.228.776-2.317 1.936-2.719 7.277-2.523 32.585-12.041 32.585-22.363 0-6.681-21.879-34.604-41.386-58.172z"/></g><path d="m331.499 246c-5.522 0-10 4.478-10 10v56.947h-102c-5.523 0-10 4.478-10 10v56.825c0 5.522 4.477 10 10 10 5.522 0 10-4.478 10-10v-46.825h102c5.522 0 10-4.478 10-10v-66.947c0-5.522-4.477-10-10-10z" fill="#02c0fc"/><path d="m110.701 95.614c0 5.522 4.478 10 10 10s10-4.478 10-10v-36.836h78.798v47.502c0 5.522 4.477 10 10 10 5.522 0 10-4.478 10-10v-57.502c0-5.522-4.478-10-10-10h-104.239c-8.038 6.073-15.582 12.764-22.565 20h18.006z" fill="#95db76"/><g><path d="m317.988 154.281-12.761-5.619h-85.728c-5.523 0-10 4.478-10 10v97.338c0 5.522 4.477 10 10 10 5.522 0 10-4.478 10-10v-87.339h83.052c2.757-4.82 5.437-14.38 5.437-14.38z" fill="#fef156"/></g><path d="m155.762 312.947h-74.416c5.487 6.783 11.689 13.486 18.684 20h45.732v105c0 5.522 4.477 10 10 10h53.737v59.624c6.578 1.264 13.246 2.272 20 2.999v-72.623c0-5.522-4.478-10-10-10h-53.737v-105c0-5.522-4.478-10-10-10z" fill="#9957bc"/><path d="m130.701 252.773v-94.111c0-5.522-4.478-10-10-10s-10 4.478-10 10v84.111h-65.114c1.727 6.343 3.894 13.055 6.615 20h68.5c5.522 0 9.999-4.478 9.999-10z" fill="#1d8df2"/><g><g><circle cx="219.499" cy="252.772" fill="#fffbb3" r="20.25"/></g></g><g><g><circle cx="120.702" cy="158.662" fill="#27a6ff" r="20.25"/></g></g><g><g><circle cx="219.499" cy="106.281" fill="#baee63" r="20.25"/></g></g><g><g><circle cx="156.582" cy="438.75" fill="#bb81e3" r="20.25"/></g></g><g><g><circle cx="219.499" cy="379.772" fill="#64f9ea" r="20.25"/></g></g><g><g><circle cx="331.499" cy="252.772" fill="#64f9ea" r="20.25"/></g></g><path d="m384.053 177.302h-54.168c-14.386 0-26.157-11.771-26.157-26.157v-106.065c0-14.386 11.771-26.157 26.157-26.157h53.033l21.857 64.024z" fill="#fe3d97"/><path d="m435.95 18.923h-55.033s-20.5 12.102-11.75 34.85 17.5 87.998 17.5 87.998-21.812 15.313-4.614 35.531h53.897c14.386 0 26.157-11.771 26.157-26.157v-106.065c0-14.387-11.771-26.157-26.157-26.157z" fill="#fd77a6"/><g><path d="m385.541 131.556h-43.143c-5.694 0-10.311-4.617-10.311-10.311s4.616-10.311 10.311-10.311h43.143c5.694 0 10.31 4.616 10.31 10.311s-4.616 10.311-10.31 10.311z" fill="#ade9f7"/></g><g><path d="m394.464 146.571c-4.168 0-8.09-2.544-9.648-6.673l-20.825-55.178-21.026 55.208c-2.026 5.32-7.984 7.992-13.305 5.965-5.321-2.026-7.993-7.984-5.966-13.305l29.074-76.338c.03-.079.06-.156.092-.234 1.861-4.55 6.24-7.493 11.155-7.498h.013c4.911 0 9.289 2.933 11.158 7.476.038.093.076.187.111.282l28.81 76.341c2.011 5.328-.678 11.277-6.005 13.287-1.199.453-2.429.667-3.638.667z" fill="#e8f8fc"/></g><g><path d="m426.107 146.568c-5.694 0-10.311-4.617-10.311-10.311v-77.428c0-5.694 4.617-10.311 10.311-10.311s10.31 4.616 10.31 10.311v77.429c.001 5.694-4.616 10.31-10.31 10.31z" fill="#e8f8fc"/></g></g></svg>