<?xml version="1.0" encoding="iso-8859-1"?>
<!-- Generator: Adobe Illustrator 27.2.0, SVG Export Plug-In . SVG Version: 6.00 Build 0)  -->
<svg version="1.1" id="Capa_1" xmlns="http://www.w3.org/2000/svg" xmlns:xlink="http://www.w3.org/1999/xlink" x="0px" y="0px"
	 viewBox="0 0 509.535 509.535" style="enable-background:new 0 0 509.535 509.535;" xml:space="preserve">
<g>
	<g>
		<g>
			<path style="fill:#FFFFFF;" d="M76.923,360.04c-7.819,37.074-33.239,67.594-67.032,82.262l-0.002,0.002
				c16.764,19.276,41.38,31.448,68.817,31.448c28.037,0,53.127-12.709,69.903-32.719c36.08,24.932,79.756,39.519,126.813,39.519
				c123.969,0,224.466-101.242,224.466-226.131S399.392,28.29,275.422,28.29S50.956,129.532,50.956,254.421
				c0,38.155,9.38,74.103,25.944,105.631L76.923,360.04z"/>
			<path style="fill:#FFFFFF;" d="M275.422,482.052c-45.399,0-89.126-13.487-126.547-39.018
				c-17.69,20.493-43.186,32.217-70.169,32.217c-26.788,0-52.284-11.65-69.949-31.963l-1.025-1.179l1.376-1.102l0.186-0.082
				c33.624-14.595,58.275-44.707,66.04-80.63c-16.932-32.409-25.878-69.006-25.878-105.874c0-60.8,23.503-117.962,66.18-160.956
				c42.68-42.996,99.426-66.675,159.786-66.675s117.106,23.679,159.786,66.675c42.677,42.994,66.18,100.155,66.18,160.956
				s-23.503,117.962-66.18,160.956C392.529,458.373,335.782,482.052,275.422,482.052z M148.338,439.022l1.124,0.777
				c37.164,25.68,80.72,39.254,125.96,39.254c122.944,0,222.966-100.769,222.966-224.631S398.366,29.79,275.422,29.79
				S52.456,130.559,52.456,254.421c0,36.054,8.667,71.842,25.081,103.607l1.487-0.776l-0.633,3.098
				c-7.687,36.445-32.295,67.135-66.018,82.49c17.031,18.718,41.089,29.412,66.333,29.412c26.547,0,51.606-11.73,68.754-32.183
				L148.338,439.022z"/>
		</g>
		<path style="fill:#D2DCFD;" d="M153.25,261.847c0-93.742,42.534-177.542,109.345-233.181
			C144.596,35.365,50.956,133.871,50.956,254.421c0,38.155,9.38,74.103,25.944,105.631l0.022-0.012
			c-7.819,37.074-33.239,67.594-67.032,82.262l-0.002,0.002c16.764,19.276,41.38,31.448,68.817,31.448
			c28.037,0,53.127-12.709,69.903-32.719c27.953,19.315,60.467,32.416,95.578,37.341C188.075,423.328,153.25,346.66,153.25,261.847z
			"/>
		<path style="fill:#FDCB50;" d="M157.762,315.711l98.179-170.052c8.206-14.213,28.72-14.213,36.926,0l98.18,170.052
			c8.206,14.213-2.052,31.979-18.463,31.979H176.225C159.813,347.69,149.556,329.924,157.762,315.711z"/>
	</g>
	<g>
		<path style="fill:#052A75;" d="M372.584,357.69H176.225c-11.322,0-21.462-5.854-27.124-15.66c-5.661-9.806-5.661-21.514,0-31.319
			l0,0l98.18-170.052c5.661-9.806,15.8-15.66,27.123-15.66c11.323,0,21.462,5.854,27.123,15.66l98.18,170.052
			c5.661,9.806,5.661,21.514,0,31.319C394.045,351.836,383.906,357.69,372.584,357.69z M166.422,320.711
			c-2.949,5.108-0.982,9.618,0,11.319c0.982,1.702,3.904,5.66,9.803,5.66h196.359c5.898,0,8.82-3.958,9.802-5.66
			c0.983-1.702,2.95-6.211,0-11.319l-98.18-170.052c-2.949-5.108-7.838-5.66-9.803-5.66c-1.965,0-6.853,0.551-9.803,5.66
			L166.422,320.711z"/>
		<g>
			<path style="fill:#052A75;" d="M441.344,87.695c-87.29-91.636-244.352-91.641-331.638,0.003
				c-71.378,69.921-89.078,185.273-43.243,273.887c-7.901,32.337-30.721,59.069-61.282,72.173c-1.365,0.762-2.536,1.793-3.401,3.074
				c-1.575,2.227-2.128,5.114-1.567,7.775c0.335,1.624,1.145,3.192,2.232,4.476c37.081,44.04,107.918,46.505,147.851,5.219
				c89.647,58.816,216.531,44.813,291.047-32.722C532.263,333.703,532.268,175.574,441.344,87.695z M275.525,470.77
				c-44.767,0.377-86.877-14.401-123.763-39.043c-2.739-0.887-5.786-0.524-8.266,0.997c-0.928,0.555-1.738,1.286-2.447,2.101
				c-27.543,34.106-81.087,38.85-114.13,10.321c30.525-17.721,52.502-47.791,59.89-82.824c0.53-2.51,0.057-4.994-1.132-7.054
				C10.324,214.227,115.628,37.116,275.527,38.509C560.022,50.349,559.965,458.959,275.525,470.77z"/>
			<path style="fill:#052A75;" d="M274.487,259.702c-5.523,0-10-4.477-10-10v-45.296c0-5.523,4.477-10,10-10c5.523,0,10,4.477,10,10
				v45.296C284.487,255.225,280.01,259.702,274.487,259.702z"/>
			<path style="fill:#052A75;" d="M274.487,314.657c-5.523,0-10-4.477-10-10v-12.998c0-5.523,4.477-10,10-10c5.523,0,10,4.477,10,10
				v12.998C284.487,310.18,280.01,314.657,274.487,314.657z"/>
		</g>
	</g>
</g>
<g>
</g>
<g>
</g>
<g>
</g>
<g>
</g>
<g>
</g>
<g>
</g>
<g>
</g>
<g>
</g>
<g>
</g>
<g>
</g>
<g>
</g>
<g>
</g>
<g>
</g>
<g>
</g>
<g>
</g>
</svg>
