<svg height="512" viewBox="0 0 60 60" width="512" xmlns="http://www.w3.org/2000/svg"><g id="Page-1" fill="none" fill-rule="evenodd"><g id="050---Upward-Trend"><g id="Icons" transform="translate(1 1)"><path id="Path" d="m56.98 18h-4.98s.39 26.33-47 27.92c-.96.04-1.95.06-2.95.07-1.10062893.001313-2.00325435-.8718991-2.03839168-1.9719678s.80992245-2.0291037 1.90839168-2.0980322c33.97-1.75 33.08-23.92 33.08-23.92h-5.98c-.402509-.0044435-.7654688-.243181-.9289532-.6110208-.1634843-.3678398-.0974711-.797232.1689532-1.0989792l13.98-15.94c.1899882-.22216639.4676758-.35007693.76-.35007693s.5700118.12791054.76.35007693l13.98 15.94c.2664243.3017472.3324375.7311394.1689532 1.0989792-.1634844.3678398-.5264442.6065773-.9289532.6110208z" fill="#60a917"/><path id="Path" d="m49 18s.393 26.479-47.415 27.935c.15227899.0366609.30837018.0551233.465.055 50.36-.58 49.9500533-27.99 49.9500533-27.99z" fill="#549414"/><path id="Path" d="m57.74 16.29-13.98-15.94c-.1899882-.22216639-.4676758-.35007693-.76-.35007693s-.5700118.12791054-.76.35007693l-.74.844 13.24 15.1c.2638361.3019155.3282752.7295885.1651145 1.0958412-.1631606.3662527-.5242042.6043788-.9251145.6101588h3c.402509-.0044435.7654688-.243181.9289532-.6110208.1634843-.3678398.0974711-.797232-.1689532-1.0989792z" fill="#549414"/><path id="Path" d="m53 18v36h-48v-8.08c47.39-1.59 47-27.92 47-27.92z" fill="#ff9801"/><path id="Path" d="m52 18c-.1274261 2.6613354-.8086005 5.2668276-2 7.65v28.35h3v-36z" fill="#f57c00"/><path id="Path" d="m58 56c-.0081672 1.1011688-.8988312 1.9918328-2 2h-54c-1.10320187-.0032948-1.9967052-.8967981-2-2-.00282307-.5305905.2101411-1.0395388.59-1.41.3704612-.3798589.87940947-.5928231 1.41-.59h54c1.1032019.0032948 1.9967052.8967981 2 2z" fill="#02a9f4"/><path id="Path" d="m56 54h-3c1.1045695 0 2 .8954305 2 2s-.8954305 2-2 2h3c1.1045695 0 2-.8954305 2-2s-.8954305-2-2-2z" fill="#0377bc"/></g><g id="Icons_copy" fill="#000"><path id="Shape" d="m0 44.95c-.00055404 1.676833 1.35716913 3.0372412 3.034 3.04h.028c20.444-.235 35.161-4.822 43.742-13.634 3.9379793-3.838389 6.4563752-8.8998606 7.143-14.356h4.033c.7949773-.0045188 1.5140768-.4728937 1.8395874-1.1981883.3255107-.7252945.1974559-1.5738704-.3275874-2.1708117l-13.979-15.94c-.3900718-.42140987-.9382681-.66097688-1.5125-.66097688s-1.1224282.23956701-1.5125.66097688l-13.979 15.939c-.5255806.5967611-.6541063 1.4455383-.3287654 2.1711499.325341.7256115 1.0445686 1.1942833 1.8397654 1.1988501h4.957c-.276 4.2-3.22 20.433-32.113 21.922-1.60635596.09065-2.86284491 1.4190887-2.864 3.028zm2.972-1.031c34.556-1.78 34.037-24.728 34.028-24.959-.0214812-.5366039-.4629665-.9604298-1-.96l-5.988-.051 14-15.94 13.979 15.991h-4.991c-.2674843-.0000226-.5238284.1071169-.711743.2974744-.1879145.1903575-.2917343.4480639-.288257.7155256 0 .065-.005 6.652-5.938 13.212-5.533 6.117-17.489 13.475-43.021 13.765-.27540944.0094341-.54161688-.0998166-.731-.3-.29201599-.2864183-.38795783-.7179487-.24481047-1.1011166.14314737-.3831678.49852869-.6460887.90681047-.6708834z" fill-rule="nonzero"/><path id="Shape" d="m57 54h-2v-24.43c0-.5522847-.4477153-1-1-1s-1 .4477153-1 1v24.43h-6v-14.45c0-.5522847-.4477153-1-1-1s-1 .4477153-1 1v14.45h-6v-9.79c0-.5522847-.4477153-1-1-1s-1 .4477153-1 1v9.79h-6v-6.62c0-.5522847-.4477153-1-1-1s-1 .4477153-1 1v6.62h-6v-4.71c0-.5522847-.4477153-1-1-1s-1 .4477153-1 1v4.71h-6v-3.6c0-.5522847-.4477153-1-1-1s-1 .4477153-1 1v3.6h-6v-3.08c0-.5522847-.44771525-1-1-1s-1 .4477153-1 1v3.08h-2c-1.65685425 0-3 1.3431458-3 3s1.34314575 3 3 3h54c1.6568542 0 3-1.3431458 3-3s-1.3431458-3-3-3zm0 4h-54c-.55228475 0-1-.4477153-1-1s.44771525-1 1-1h54c.5522847 0 1 .4477153 1 1s-.4477153 1-1 1z" fill-rule="nonzero"/><path id="Path" d="m20 25c-.5522847 0-1 .4477153-1 1s.4477153 1 1 1h2c.5522847 0 1-.4477153 1-1s-.4477153-1-1-1z"/><path id="Path" d="m25 26c0 .5522847.4477153 1 1 1h2c.5522847 0 1-.4477153 1-1s-.4477153-1-1-1h-2c-.5522847 0-1 .4477153-1 1z"/><path id="Path" d="m56 25c-.5522847 0-1 .4477153-1 1s.4477153 1 1 1h2c.5522847 0 1-.4477153 1-1s-.4477153-1-1-1z"/><path id="Path" d="m14 25c-.5522847 0-1 .4477153-1 1s.4477153 1 1 1h2c.5522847 0 1-.4477153 1-1s-.4477153-1-1-1z"/><path id="Path" d="m7 26c0 .5522847.44771525 1 1 1h2c.5522847 0 1-.4477153 1-1s-.4477153-1-1-1h-2c-.55228475 0-1 .4477153-1 1z"/><path id="Path" d="m4 27c.55228475 0 1-.4477153 1-1s-.44771525-1-1-1h-2c-.55228475 0-1 .4477153-1 1s.44771525 1 1 1z"/></g></g></g></svg>