<?xml version="1.0" encoding="iso-8859-1"?>
<!-- Generator: Adobe Illustrator 27.2.0, SVG Export Plug-In . SVG Version: 6.00 Build 0)  -->
<svg version="1.1" id="Capa_1" xmlns="http://www.w3.org/2000/svg" xmlns:xlink="http://www.w3.org/1999/xlink" x="0px" y="0px"
	 viewBox="0 0 509.947 509.947" style="enable-background:new 0 0 509.947 509.947;" xml:space="preserve">
<g>
	<path style="fill:#FDCB50;" d="M444.932,55.446c-6.198-15.5-21.217-25.668-37.91-25.668H10v245h397.022
		c16.693,0,31.711-10.168,37.91-25.668c14.373-35.917,38.735-96.832,38.735-96.832S459.306,91.362,444.932,55.446z"/>
	<path style="fill:#FD7DA0;" d="M124.333,29.778H10v245h274.578C190.249,233.487,124.333,139.338,124.333,29.778z"/>
	<path style="fill:#052A75;" d="M199.667,397.278c0,0,0-20.417,0-20.417c0-21.275-17.309-38.583-38.584-38.583
		c0,0-28.583,0-28.583,0c-5.522,0-10,4.477-10,10v130.667c0.513,13.232,19.461,13.293,20,0c0,0,0-24.5,0-24.5
		c0-7.169,4.087-13.39,10.047-16.489l28.616,46.25c1.892,3.058,5.164,4.74,8.514,4.74c7.667,0.113,12.661-8.747,8.494-15.263
		c0,0-24.675-39.881-24.675-39.881C188.698,428.62,199.667,414.211,199.667,397.278z M179.667,397.278
		c0,10.247-8.337,18.583-18.584,18.583c-2.084,0.012-4.106,0.151-6.121,0.505c-4.45,0.713-8.654,2.171-12.462,4.273v-62.361h18.583
		c10.247,0,18.584,8.336,18.584,18.583V397.278z"/>
	<path style="fill:#052A75;" d="M54.917,338.278H26.333c-5.523,0-10,4.477-10,10v130.667c0,5.523,4.477,10,10,10s10-4.477,10-10
		v-24.5c0-10.247,8.337-18.583,18.584-18.583c21.274,0,38.583-17.309,38.583-38.583v-20.417
		C93.5,355.586,76.191,338.278,54.917,338.278z M73.5,397.278c0,10.247-8.336,18.583-18.583,18.583
		c-6.733,0-13.068,1.733-18.584,4.777v-62.361h18.584c10.247,0,18.583,8.336,18.583,18.583V397.278z"/>
	<path style="fill:#052A75;" d="M125.134,147.433c5.73-6.734,9.199-15.449,9.199-24.964v-8.167
		c0-21.275-17.309-38.583-38.583-38.583H67.167c-5.522,0-10,4.477-10,10v130.667c0,5.523,4.478,10,10,10h36.75
		c21.274,0,38.583-17.309,38.583-38.584v-8.166C142.5,166.195,135.587,154.343,125.134,147.433z M77.167,95.72H95.75
		c10.247,0,18.583,8.336,18.583,18.583v8.167c0,10.247-8.336,18.583-18.583,18.583c-6.732,0-13.067,1.733-18.583,4.777V95.72z
		 M122.5,187.803c0,10.247-8.336,18.584-18.583,18.584h-26.75v-26.75c0.034-11.67,10.018-19.446,21.29-18.689
		c0.907,0.187,4.475,0.079,5.46,0.106c10.247,0,18.583,8.336,18.583,18.583V187.803z"/>
	<path style="fill:#052A75;" d="M283.583,227.407c-21.274,0-38.583-17.51-38.583-39.033c0-5.523,4.477-10,10-10
		c5.522,0,10,4.477,10,10c1.017,25.232,36.136,25.263,37.167,0c0-9.235-4.883-17.806-12.742-22.369l-21.724-12.609
		c-35.597-20.543-28.047-77.252,15.882-78.706c21.275,0,38.583,17.51,38.583,39.033c0,5.523-4.477,10-10,10c-5.522,0-10-4.477-10-10
		c-1.017-25.231-36.136-25.264-37.167,0c0,9.24,4.883,17.814,12.742,22.376l21.724,12.609
		C335.067,169.253,327.508,225.953,283.583,227.407z"/>
	<path style="fill:#052A75;" d="M214.167,206.386H191.5v-45.334H206c5.523,0,10-4.477,10-10c0-5.523-4.477-10-10-10h-14.5V95.72
		c0,0,22.667,0,22.667,0c5.522,0,10-4.477,10-10c0-5.523-4.478-10-10-10H181.5c-5.523,0-10,4.477-10,10v130.667
		c0,5.523,4.477,10,10,10h32.667C227.44,225.849,227.423,206.913,214.167,206.386z"/>
	<path style="fill:#052A75;" d="M434.667,468.944H412v-45.333h14.5c5.522,0,10-4.477,10-10c0-5.523-4.478-10-10-10H412v-45.333
		h22.667c5.523,0,10-4.477,10-10c0-5.523-4.477-10-10-10c0,0-32.667,0-32.667,0c-5.522,0-10,4.477-10,10v130.667
		c0,5.523,4.478,10,10,10c0,0,32.667,0,32.667,0C447.94,488.407,447.923,469.471,434.667,468.944z"/>
	<path style="fill:#052A75;" d="M402,75.72h-49c-13.262,0.526-13.263,19.474,0,20c0,0,14.5,0,14.5,0v120.667c0,5.523,4.478,10,10,10
		s10-4.477,10-10V95.72H402C415.265,95.193,415.261,76.244,402,75.72z"/>
	<path style="fill:#052A75;" d="M238.667,488.944c-5.523,0-10-4.477-10-10V348.278c0-5.523,4.477-10,10-10c5.522,0,10,4.477,10,10
		v130.667C248.667,484.467,244.189,488.944,238.667,488.944z"/>
	<path style="fill:#052A75;" d="M324.417,490.169c-21.275,0-38.584-17.309-38.584-38.583c0,0,0-75.95,0-75.95
		c2.111-51.167,75.047-51.19,77.167,0c-0.541,13.288-19.483,13.239-20,0c-1.01-24.633-36.142-24.666-37.167,0c0,0,0,75.95,0,75.95
		c0,10.247,8.337,18.583,18.584,18.583S343,461.833,343,451.586c0-5.523,4.478-10,10-10s10,4.477,10,10
		C363,472.861,345.691,490.169,324.417,490.169z"/>
	<path style="fill:#052A75;" d="M500,141.053h-10.052c-6.953-17.385-24.429-61.079-35.731-89.32
		c-7.763-19.412-26.287-31.955-47.194-31.955H10c-5.523,0-10,4.477-10,10v245c0,5.523,4.477,10,10,10h397.022
		c20.907,0,39.432-12.543,47.193-31.953c11.879-29.682,30.577-76.434,36.712-91.773H500C513.265,160.526,513.26,141.577,500,141.053
		z M435.647,245.397c-4.708,11.773-15.943,19.381-28.624,19.381H20v-225h387.022c12.681,0,23.916,7.607,28.624,19.381
		c0,0.001,0.001,0.002,0.001,0.002c9.929,24.81,24.622,61.543,32.76,81.892H451c-5.522,0-10,4.477-10,10c0,5.523,4.478,10,10,10
		h18.387C461.498,180.778,445.988,219.555,435.647,245.397z"/>
</g>
<g>
</g>
<g>
</g>
<g>
</g>
<g>
</g>
<g>
</g>
<g>
</g>
<g>
</g>
<g>
</g>
<g>
</g>
<g>
</g>
<g>
</g>
<g>
</g>
<g>
</g>
<g>
</g>
<g>
</g>
</svg>
