<?xml version="1.0" encoding="iso-8859-1"?>
<!-- Generator: Adobe Illustrator 27.2.0, SVG Export Plug-In . SVG Version: 6.00 Build 0)  -->
<svg version="1.1" id="Capa_1" xmlns="http://www.w3.org/2000/svg" xmlns:xlink="http://www.w3.org/1999/xlink" x="0px" y="0px"
	 viewBox="0 0 510 510" style="enable-background:new 0 0 510 510;" xml:space="preserve">
<g>
	<g>
		<path style="fill:#FD8F01;" d="M500,91.667C500,46.562,463.436,10,418.333,10H91.667C46.564,10,10,46.562,10,91.667v326.667
			C10,463.438,46.564,500,91.667,500h326.667C463.436,500,500,463.438,500,418.333V91.667z"/>
		<path style="fill:#FD6050;" d="M84.811,91.667c0-27.932,2.692-55.234,7.822-81.667h-0.966C46.564,10,10,46.562,10,91.667v326.667
			C10,463.438,46.564,500,91.667,500h296.886C212.857,447.389,84.811,284.483,84.811,91.667z"/>
	</g>
	<g>
		<path style="fill:#052A75;" d="M149.634,153.381c5.73-6.734,9.199-15.45,9.199-24.964v-8.167
			c0-21.275-17.309-38.583-38.583-38.583H91.666c-5.523,0-10,4.477-10,10v130.667c0,5.523,4.477,10,10,10h36.75
			c21.275,0,38.584-17.309,38.584-38.584v-8.166C167,172.143,160.087,160.291,149.634,153.381z M101.666,101.667h18.584
			c10.247,0,18.583,8.336,18.583,18.583v8.167c0,10.247-8.336,18.583-18.583,18.583c-6.733,0-13.068,1.733-18.584,4.777V101.667z
			 M147,193.75c0,10.247-8.336,18.584-18.584,18.584h-26.75v-26.75c0.034-11.67,10.018-19.446,21.291-18.689
			c0.907,0.187,4.475,0.079,5.459,0.106c10.247,0,18.583,8.336,18.583,18.583V193.75z"/>
		<path style="fill:#052A75;" d="M308.083,233.354c-21.274,0-38.583-17.51-38.583-39.032c0-5.523,4.477-10,10-10
			c5.522,0,10,4.477,10,10c1.017,25.232,36.136,25.262,37.167,0c0-9.235-4.882-17.806-12.74-22.369l-21.728-12.608
			c-35.595-20.546-28.045-77.253,15.884-78.707c21.275,0,38.583,17.51,38.583,39.032c0,5.523-4.477,10-10,10
			c-5.522,0-10-4.477-10-10c-1.017-25.231-36.136-25.263-37.167,0c0,9.24,4.882,17.815,12.74,22.377l21.727,12.608
			C359.567,175.203,352.008,231.9,308.083,233.354z"/>
		<path style="fill:#052A75;" d="M426.5,428.334H402c-5.522,0-10-4.477-10-10V287.667c0.51-13.229,19.461-13.295,20,0
			c0,0,0,120.667,0,120.667h14.5C439.765,408.86,439.761,427.809,426.5,428.334z"/>
		<path style="fill:#052A75;" d="M238.666,212.334H216V167h14.5c5.523,0,10-4.477,10-10c0-5.523-4.477-10-10-10H216v-45.333
			c0,0,22.666,0,22.666,0c5.523,0,10-4.477,10-10c0-5.523-4.477-10-10-10c0,0-32.666,0-32.666,0c-5.523,0-10,4.477-10,10v130.667
			c0,5.523,4.477,10,10,10c0,0,32.666,0,32.666,0C251.94,231.797,251.922,212.86,238.666,212.334z"/>
		<path style="fill:#052A75;" d="M238.666,408.334H216V363h14.5c5.523,0,10-4.477,10-10c0-5.523-4.477-10-10-10H216v-45.333
			c0,0,22.666,0,22.666,0c5.523,0,10-4.477,10-10c0-5.523-4.477-10-10-10c0,0-32.666,0-32.666,0c-5.523,0-10,4.477-10,10v130.667
			c0,5.523,4.477,10,10,10c0,0,32.666,0,32.666,0C251.94,427.797,251.922,408.86,238.666,408.334z"/>
		<path style="fill:#052A75;" d="M426.5,81.667h-49c-13.262,0.526-13.263,19.474,0,20c0,0,14.5,0,14.5,0v120.667
			c0,5.523,4.478,10,10,10s10-4.477,10-10V101.667h14.5C439.765,101.14,439.761,82.191,426.5,81.667z"/>
		<path style="fill:#052A75;" d="M124.333,428.334H91.666c-5.523,0-10-4.477-10-10V287.667c0-5.523,4.477-10,10-10h32.667
			c23.526,0,42.667,19.14,42.667,42.667v65.333C167,409.193,147.86,428.334,124.333,428.334z M101.666,408.334h22.667
			c12.499,0,22.667-10.169,22.667-22.667v-65.333c0-12.499-10.168-22.667-22.667-22.667h-22.667V408.334z"/>
		<path style="fill:#052A75;" d="M418.333,510H91.666C41.122,510,0,468.878,0,418.334V91.667C0,41.122,41.122,0,91.666,0h326.667
			C468.878,0,510,41.122,510,91.667v326.667C510,468.878,468.878,510,418.333,510z M91.666,20C52.149,20,20,52.149,20,91.667
			v326.667C20,457.851,52.149,490,91.666,490h326.667C457.851,490,490,457.851,490,418.334V91.667C490,52.149,457.851,20,418.333,20
			H91.666z"/>
		<path style="fill:#052A75;" d="M316.25,276.442c-21.274,0-38.583,17.308-38.583,38.583v103.309c0,5.523,4.477,10,10,10
			c5.522,0,10-4.477,10-10v-32.667c0-10.247,8.336-18.583,18.583-18.583s18.583,8.336,18.583,18.583v32.667c0,5.523,4.477,10,10,10
			c5.522,0,10-4.477,10-10V315.025C354.833,293.75,337.524,276.442,316.25,276.442z M316.25,347.084
			c-6.733,0-13.067,1.738-18.583,4.783v-36.841c0-10.247,8.336-18.583,18.583-18.583s18.583,8.336,18.583,18.583v36.841
			C329.317,348.822,322.983,347.084,316.25,347.084z"/>
	</g>
</g>
<g>
</g>
<g>
</g>
<g>
</g>
<g>
</g>
<g>
</g>
<g>
</g>
<g>
</g>
<g>
</g>
<g>
</g>
<g>
</g>
<g>
</g>
<g>
</g>
<g>
</g>
<g>
</g>
<g>
</g>
</svg>
