<?xml version="1.0" encoding="iso-8859-1"?>
<!-- Generator: Adobe Illustrator 26.5.1, SVG Export Plug-In . SVG Version: 6.00 Build 0)  -->
<svg version="1.1" id="Capa_1" xmlns="http://www.w3.org/2000/svg" xmlns:xlink="http://www.w3.org/1999/xlink" x="0px" y="0px"
	 viewBox="0 0 510 510" style="enable-background:new 0 0 510 510;" xml:space="preserve">
<g>
	<g>
		<rect x="10" y="105" style="fill-rule:evenodd;clip-rule:evenodd;fill:#FD6050;" width="490" height="300"/>
		<path style="fill-rule:evenodd;clip-rule:evenodd;fill:#BC3C85;" d="M123.842,405c-37.119-54.042-58.841-119.484-58.841-190
			c0-38.525,6.484-75.535,18.419-110H10v300H123.842z"/>
	</g>
	<g>
		<g>
			<g>
				<path style="fill:#052A75;" d="M500,415H10c-5.522,0-10-4.477-10-10V105c0-5.523,4.478-10,10-10h490c5.522,0,10,4.477,10,10v300
					C510,410.523,505.522,415,500,415z M20,395h470V115H20V395z"/>
			</g>
		</g>
		<g>
			<path style="fill:#FFFFFF;" d="M248.182,212.5v-40c0-16.542-13.458-30-30-30s-30,13.458-30,30v40c0,16.542,13.458,30,30,30
				S248.182,229.042,248.182,212.5z M208.182,212.5v-40c0-5.514,4.486-10,10-10s10,4.486,10,10v40c0,5.514-4.486,10-10,10
				S208.182,218.014,208.182,212.5z"/>
			<path style="fill:#FFFFFF;" d="M124.091,242.5h20c16.542,0,30-13.458,30-30c0-7.676-2.898-14.688-7.657-20
				c4.759-5.312,7.657-12.324,7.657-20c0-16.542-13.458-30-30-30h-20c-5.522,0-10,4.477-10,10V232.5
				C114.091,238.022,118.568,242.5,124.091,242.5z M144.091,222.5h-10v-20h10c5.514,0,10,4.486,10,10
				C154.091,218.014,149.604,222.5,144.091,222.5z M144.091,162.5c5.514,0,10,4.486,10,10c0,5.514-4.486,10-10,10h-10v-20H144.091z"
				/>
			<path style="fill:#FFFFFF;" d="M340.909,232.5c0,5.523,4.478,10,10,10s10-4.477,10-10v-17.296l4.769-8.175l10.868,28.983
				c1.506,4.015,5.315,6.492,9.365,6.492c1.166,0,2.353-0.206,3.509-0.64c5.172-1.939,7.792-7.703,5.853-12.875l-16.593-44.25
				l15.867-27.201c2.783-4.771,1.172-10.894-3.599-13.676c-4.771-2.783-10.895-1.171-13.677,3.599l-16.362,28.05V152.5
				c0-5.523-4.478-10-10-10s-10,4.477-10,10V232.5z"/>
			<path style="fill:#FFFFFF;" d="M324.546,212.5v-40c0-16.542-13.458-30-30-30s-30,13.458-30,30v40c0,16.542,13.458,30,30,30
				S324.546,229.042,324.546,212.5z M304.546,212.5c0,5.514-4.486,10-10,10s-10-4.486-10-10v-40c0-5.514,4.486-10,10-10
				s10,4.486,10,10V212.5z"/>
			<path style="fill:#FFFFFF;" d="M250.616,267.5c-19.993,0-36.259,16.266-36.259,36.259v27.481
				c0,19.994,16.266,36.259,36.26,36.259s36.26-16.266,36.26-36.259V303.76C286.877,283.766,270.61,267.5,250.616,267.5z
				 M266.877,331.241c0,8.965-7.295,16.259-16.261,16.259c-8.965,0-16.259-7.294-16.259-16.259V303.76
				c0-8.965,7.294-16.259,16.259-16.259h0.001c8.966,0,16.26,7.294,16.26,16.259V331.241z"/>
			<path style="fill:#FFFFFF;" d="M176.611,267.5c-5.522,0-10,4.477-10,10v46.546l-34.161-52.035
				c-2.426-3.695-6.988-5.36-11.224-4.093c-4.234,1.266-7.136,5.161-7.136,9.581v80c0,5.523,4.478,10,10,10s10-4.477,10-10v-46.546
				l34.161,52.034c1.883,2.868,5.055,4.513,8.36,4.513c0.952,0,1.916-0.137,2.863-0.42c4.234-1.266,7.136-5.161,7.136-9.581v-80
				C186.611,271.978,182.134,267.5,176.611,267.5z"/>
			<path style="fill:#FFFFFF;" d="M386.93,267.553c-5.489-0.564-10.404,3.434-10.969,8.927l-5.197,50.669l-9.164-14.888
				c-1.819-2.957-5.043-4.758-8.516-4.758s-6.696,1.801-8.516,4.758l-9.164,14.888l-5.197-50.669
				c-0.563-5.494-5.468-9.491-10.969-8.927c-5.494,0.563-9.491,5.474-8.928,10.968l8.206,80c0.438,4.263,3.542,7.773,7.72,8.728
				c4.18,0.954,8.499-0.858,10.744-4.507l16.104-26.162l16.104,26.162c1.847,3,5.096,4.759,8.515,4.759
				c0.739,0,1.486-0.082,2.229-0.252c4.178-0.955,7.282-4.465,7.72-8.728l8.206-80C396.421,273.027,392.424,268.116,386.93,267.553z
				"/>
		</g>
	</g>
</g>
<g>
</g>
<g>
</g>
<g>
</g>
<g>
</g>
<g>
</g>
<g>
</g>
<g>
</g>
<g>
</g>
<g>
</g>
<g>
</g>
<g>
</g>
<g>
</g>
<g>
</g>
<g>
</g>
<g>
</g>
</svg>
