<svg id="Layer_1" enable-background="new 0 0 512 512" height="512" viewBox="0 0 512 512" width="512" xmlns="http://www.w3.org/2000/svg"><g><path d="m362.098 214.813 1.195 6.47c-5.913 6.336-11.25 14.103-15.71 23.591-3.781 8.025-6.923 17.266-9.261 27.918-9.591 44.298-35.716 50.118-67.58 50.118-15.834 0-30.452-5.202-42.227-14-26.043-19.47-64.232-9.467-76.656 20.573-5.378 13.011-3.191 27.016 2.537 39.976-10.168-7.912-20.524-16.282-27.343-27.274-5.769.948-11.703 1.453-17.75 1.453-.433 0-.876 0-1.308-.01-8.108-20.119-12.64-45.884-12.64-58.597 0-23.375 6.49-45.864 18.574-65.313 1.875-3.06 3.904-6.006 6.047-8.88v-.01c8.087-10.827 17.935-20.315 29.257-28.103 18.914-13.001 40.806-20.398 63.665-21.583 7.901-8.622 12.094-18.79 12.177-29.68.103-11.785-.814-37.107-29.37-56.969-16.71-11.62-37.19-13.104-53.435-12.682 4.811-.762 9.735-1.154 14.762-1.154 12.166 0 23.787 2.339 34.46 6.552 17.163-18.43 41.619-29.968 68.796-29.968 1.648 0 3.286.041 4.914.124 29.958 1.545 56.196 17.132 72.298 40.28 4.049-1.504 8.221-2.73 12.517-3.668 9.941 14.917 15.731 32.832 15.731 52.086 0 7.407-.855 14.608-2.472 21.52-5.164 22.036-5.288 44.968-1.178 67.23z" fill="#fee265"/><path d="m271.253 184.038c-7.388 0-14.095-1.557-21.194-3.206-8.763-2.034-18.695-4.341-32.639-4.341-11.542 0-22.872 1.939-33.674 5.764-4.02 1.428-8.437-.682-9.862-4.705-1.424-4.022.682-8.438 4.705-9.862 12.462-4.411 25.527-6.649 38.83-6.649 15.715 0 27.037 2.63 36.135 4.741 6.482 1.506 12.081 2.806 17.699 2.806 11.062 0 21.092-5.489 26.829-14.684 6.162-9.876 6.285-22 .346-34.136-1.875-3.833-.289-8.461 3.544-10.336 3.832-1.878 8.46-.289 10.337 3.543 8.247 16.854 7.841 34.754-1.117 49.109-8.578 13.748-23.509 21.956-39.939 21.956z" fill="#fdd330"/><path d="m512 270.629c0 50.706-40.146 92.016-90.388 93.932-6.624 11.229-15.216 21.16-25.291 29.329l12.969 62.266c1.999 9.596-5.327 18.604-15.128 18.604h-39.491c-2.619 0-5.051-1.356-6.428-3.584v-.001c-17.122-27.691-41.382-50.283-70.269-65.303-9.055-4.718-17.359-10.662-24.693-17.626-10.662 3.492-22.046 5.388-33.872 5.388-13.732 0-26.867-2.545-38.961-7.201-11.126-30.905 3.317-90.697 30.061-88.111 23.334 2.256 65.241 14.443 86.03-21.552 8.551-14.814-.361-39.579 11.404-61.811 51.241-96.909-21.747-171.721-62.583-176.532l19.841-1.061c29.958 1.545 56.196 17.132 72.298 40.28 10.178-3.771 21.181-5.841 32.677-5.841 51.921 0 94.014 42.093 94.014 94.025 0 7.417-.886 14.629-2.514 21.562 29.916 15.729 50.324 47.087 50.324 83.237z" fill="#fdd330"/><path d="m464.189 165.828c0 7.417-.886 14.629-2.514 21.562l-107.375 52.405-3.647-19.79c-4.11-22.262-3.987-45.194 1.174-67.23 1.617-6.913 2.472-14.113 2.472-21.521 0-19.924-6.202-38.405-16.782-53.621 10.168-3.76 21.17-5.831 32.657-5.831 51.922.002 94.015 42.095 94.015 94.026z" fill="#fc9744"/><path d="m407.869 135.386c-1.504 1.504-3.482 2.256-5.46 2.256s-3.956-.752-5.47-2.256c-11.167-11.167-27.496-15.216-42.608-10.58-.082.021-.165.052-.247.062-.35-5.264-1.133-10.415-2.318-15.401 20.027-5.398 41.372.258 56.104 14.989 3.018 3.019 3.018 7.912-.001 10.93z" fill="#fcb982"/><path d="m464.189 165.828c0 7.417-.886 14.629-2.514 21.562l-32.997 16.102c1.483-6.912 2.287-14.062 2.287-21.407 0-52.941-40.177-96.497-91.696-101.833-.567-.876-1.154-1.751-1.751-2.617 10.168-3.76 21.17-5.831 32.657-5.831 51.921 0 94.014 42.093 94.014 94.024z" fill="#fb8627"/><path d="m110.806 285.03c0 20.975 5.944 40.558 16.246 57.154-5.769.948-11.703 1.453-17.75 1.453-60.368.001-109.302-48.943-109.302-109.312 0-44.699 26.826-83.115 65.262-100.061l75.687 75.687c-18.677 19.501-30.143 45.946-30.143 75.079z" fill="#1c96f9"/><path d="m110.806 285.03c0 20.975 5.944 40.558 16.246 57.154-5.769.948-11.703 1.453-17.75 1.453-7.283 0-14.412-.711-21.294-2.081-10.796-45.38 4.543-77.367 4.543-77.367-53.703-34.223-60.513-83.434-60.297-107.376 9.467-9.406 20.635-17.091 33.007-22.551l75.687 75.687c-18.676 19.503-30.142 45.948-30.142 75.081z" fill="#1785f8"/><path d="m115.854 252.24c-1.823 5.717-3.173 11.641-4.007 17.729-4.739 1.298-9.642 1.947-14.649 1.947-24.745 0-46.183-15.906-53.353-39.579-1.246-4.079 1.071-8.396 5.151-9.632s8.396 1.071 9.632 5.151c5.099 16.844 20.964 28.608 38.57 28.608 5.851 0 11.486-1.226 16.751-3.637.617-.278 1.256-.474 1.905-.587z" fill="#31a7fb"/><path d="m219.408 176.429c-45.596 0-84.629 28.103-100.721 67.93-26.548-14.608-53.632-55.121-55.671-89.687-.177-3.004.258-8.077.762-12.012 5.893-46.245 45.4-82.003 93.252-82.003 17.235 0 33.388 4.636 47.275 12.733 7.036 4.1 13.794 8.798 19.203 14.804 21.85 24.25 24.91 62.047-4.1 88.235z" fill="#27d1b3"/><path d="m219.408 176.429c-6.552 0-12.96.577-19.192 1.689 15.164-24.364 9.952-53.703-8.128-73.761-5.408-6.006-12.166-10.704-19.203-14.804-13.887-8.097-30.04-12.733-47.275-12.733-9.189 0-18.08 1.319-26.476 3.781 15.947-12.496 36.056-19.944 57.896-19.944 17.235 0 33.388 4.636 47.275 12.733 7.036 4.1 13.794 8.798 19.203 14.804 21.85 24.25 24.91 62.047-4.1 88.235z" fill="#20b69f"/><path d="m512 270.629c0 50.706-40.146 92.016-90.388 93.932-6.624 11.229-15.216 21.16-25.291 29.329l12.969 62.266c1.999 9.596-5.327 18.604-15.128 18.604h-39.491c-2.619 0-5.051-1.356-6.428-3.584v-.001c-17.122-27.691-41.382-50.283-70.269-65.303-9.055-4.718-17.359-10.662-24.693-17.626-10.662 3.492-22.046 5.388-33.872 5.388-18.646 0-36.193-4.701-51.525-12.981-22.334-12.062-30.812-41.574-21.496-64.107 12.422-30.047 50.609-40.044 76.653-20.581 11.774 8.799 26.388 14.008 42.221 14.008 31.863 0 57.998-5.823 67.58-50.118 2.34-10.651 5.489-19.901 9.263-27.922 34.171-72.629 119.572-44.541 119.572-44.541 29.915 15.729 50.323 47.087 50.323 83.237z" fill="#fb6672"/><path d="m461.676 187.39s-26.589-8.746-56.032-3.863c10.693 1.587 17.616 3.863 17.616 3.863 29.917 15.731 50.324 47.09 50.324 83.239 0 36.772-21.118 68.598-51.885 84.046-4.272.133-8.735.256-10.685.256-23.592 0-45.621-9.341-62.028-26.302-2.968-3.066-7.859-3.148-10.925-.181-3.067 2.967-3.148 7.858-.182 10.926 12.442 12.861 27.628 21.998 44.28 26.887-4.066 6.612-8.813 12.761-14.157 18.337-6.13 6.396-8.841 15.328-7.035 24.001l13.78 66.162h19.413c9.802 0 17.127-9.008 15.128-18.604l-12.969-62.266c10.075-8.169 18.667-18.1 25.291-29.329 50.244-1.918 90.39-43.228 90.39-93.933 0-36.15-20.408-67.508-50.324-83.239z" fill="#fb4a59"/><path d="m287.575 387.997c-6.459 4.523-13.3 8.334-20.418 11.414-4.935-3.338-9.57-7.077-13.877-11.167-1.113.36 12.198-4.116 25.435-12.908 3.549-2.358 8.314-1.597 10.755 1.906 2.452 3.492 1.597 8.314-1.895 10.755z" fill="#fb4a59"/><path d="m187.974 131.437c-1.953 0-3.906-.735-5.41-2.211-8.281-8.125-19.223-12.599-30.809-12.599-11.587 0-22.529 4.474-30.81 12.599-3.047 2.99-7.939 2.941-10.926-.105-2.988-3.045-2.942-7.938.104-10.926 11.188-10.976 25.973-17.021 41.632-17.021 15.658 0 30.444 6.045 41.631 17.021 3.046 2.988 3.093 7.88.104 10.926-1.513 1.542-3.514 2.316-5.516 2.316z" fill="#64e0c4"/><path d="m400.559 319.572c-14.383 0-27.971-5.543-38.262-15.609-3.051-2.983-3.105-7.875-.121-10.926 2.984-3.05 7.876-3.106 10.926-.121 7.386 7.223 17.137 11.202 27.457 11.202 21.66 0 39.281-17.622 39.281-39.282 0-10.319-3.978-20.069-11.203-27.456-2.983-3.05-2.93-7.943.121-10.926 3.05-2.985 7.942-2.93 10.926.121 10.065 10.291 15.608 23.878 15.608 38.261.001 30.183-24.552 54.736-54.733 54.736z" fill="#fc9aa1"/><path d="m253.546 268.247c-21.524 0-41.167-11.827-51.264-30.865-1.999-3.77-.564-8.446 3.206-10.446 3.769-1.997 8.447-.564 10.446 3.206 7.41 13.972 21.822 22.652 37.612 22.652s30.202-8.68 37.613-22.652c2-3.772 6.676-5.204 10.446-3.206 3.77 2 5.205 6.676 3.206 10.446-10.098 19.039-29.741 30.865-51.265 30.865z" fill="#fdf0b2"/></g></svg>