<?xml version="1.0" encoding="iso-8859-1"?>
<!-- Generator: Adobe Illustrator 19.0.0, SVG Export Plug-In . SVG Version: 6.00 Build 0)  -->
<svg version="1.1" id="Layer_1" xmlns="http://www.w3.org/2000/svg" xmlns:xlink="http://www.w3.org/1999/xlink" x="0px" y="0px"
	 viewBox="0 0 511.997 511.997" style="enable-background:new 0 0 511.997 511.997;" xml:space="preserve">
<path style="fill:#D96F6F;" d="M483.8,288.248c-0.492-6.992-0.247-15.377-5.322-20.755c-2.414-2.559-5.625-4.351-9.003-4.902
	c-3.029-8.224-5.556-16.654-9.6-24.446c-2.376-4.579-4.767-9.108-7.174-13.626c0.719-1.739,1.132-3.64,1.124-5.677
	c-0.055-13.626-6.621-25.872-17.902-33.284c-4.163-2.735-9.11-5.099-14.009-6.108c-2.882-0.595-6.052-0.772-9.031-0.399
	c-3.73-7.653-9.15-14.047-16.191-18.848c-3.226-2.199-6.988-3.925-10.689-5.12c-1.573-0.508-9.765-2.473-12.469-2.056
	c-0.652-0.235-1.468-0.52-2.5-0.876c-1.536-0.528-3.11-0.919-4.653-1.418c-2.968-0.958-4.856-1.543-6.059-2.037
	c-9.411-3.859-18.347-3.392-28.281-1.331c-7.705,1.598-15.445,5.96-23.23,6.793c-1.014,0.109-5.663-0.394-8.021-0.16
	c-4.946,0.488-9.75,1.684-14.542,2.949c-2.004,0.529-3.782,1.5-5.295,2.77c-7.879-3.39-16.985-5.848-25.167-6.777
	c-9.048-1.027-17.629-2.626-26.814-2.562c-4.492,0.031-9.026-0.132-13.511,0.07c-5.355,0.242-10.205,1.809-15.373,2.946
	c-9.319,2.05-18.623,5.505-26.946,10.281c-4.14,2.377-8.048,5.311-12.43,7.245c-1.18,0.52-2.367,1.005-3.552,1.488
	c-10.795-0.748-21.476,9.268-31.067,13.55c-14.547,6.495-30.177,7.48-42.646,18.364c-5.015,4.377-11.027,10.371-14.097,16.285
	c-1.73,3.335-2.05,7.149-3.057,10.721c-1.132,4.009-2.605,7.915-3.68,11.939c-0.101,0.38-0.183,0.756-0.281,1.134
	c-1.206,2.521-2.304,5.131-3.37,7.772c-2.221,5.504-3.906,11.226-6.2,16.698c-2.299,5.484-5.478,10.558-7.869,15.998
	c-4.993,11.359-7.564,21.549-5.388,33.996c1.114,6.373,4.028,12.431,9.533,16.117c0.474,0.318,0.951,0.657,1.432,1.005
	c0.257,1.009,0.586,1.997,0.959,2.972c-3.487,11.855,1.046,29.627,14.114,32.312c4.419,0.908,8.136-0.04,10.881-2.271
	c2.07,2.153,4.189,4.089,6.419,6.351c2.934,2.977,5.273,6.485,8.324,9.36c6.953,6.552,14.887,11.726,23.71,15.338
	c9.409,3.853,18.682,4.523,28.589,2.404c7.711-1.648,15.863-0.435,23.728-1.142c5.733-0.515,10.854-1.781,15.803-3.673
	c1.515-0.018,3.047-0.086,4.625-0.265c4.39-0.5,8.531-1.791,12.869-2.511c0.743-0.123,1.634-0.178,2.451-0.258
	c1.547,1.811,3.51,3.245,4.947,4.402c5.727,4.613,10.977,7.234,18.082,9.136c13.066,3.498,25.447-1.545,36.887-8.117
	c2.328-1.337,4.632-2.818,6.924-4.384c0.364,0.586,0.776,1.162,1.291,1.72c1.502,1.621,4.76,2.611,5.597,2.91
	c4.182,1.496,8.206,2.917,12.748,3.057c0.591,0.018,1.04,0.014,1.383-0.005c0.045,0.026,0.084,0.05,0.134,0.077
	c1.372,0.753,2.94,1.142,4.333,1.864c1.57,0.813,3.867,2.103,4.982,3.342c3.842,4.268,3.878,12.896,6.763,18.304
	c3.493,6.548,10.5,12.779,17.086,16.026c7.192,3.546,14.189,5.469,22.044,6.596c5.079,0.729,13.53,1.21,20.686-1.4
	c1.88-0.685,3.798-1.419,5.727-2.206c3.509,5.011,8.971,7.408,14.873,8.548c6.391,1.234,12.055,2.28,18.577,1.566
	c7.443-0.814,14.018-3.723,20.408-7.585c10.967-6.625,21.267-16.68,26.758-28.364c1.125-2.395,2.107-4.984,2.855-7.651
	c0.776-1.236,1.524-2.528,2.202-3.923c5.253-10.798,8.93-21.762,11.07-33.544c1.518-8.355,3.997-19.112,2.537-28.429
	c4.759-4.332,7.774-11.806,9.338-19.197c0.386-0.685,0.756-1.378,1.078-2.08C487.775,313.247,484.685,300.814,483.8,288.248z
	 M91.646,345.432c0.485,0.385,0.985,0.747,1.491,1.1c0.04,0.231,0.073,0.463,0.114,0.694
	C92.723,346.632,92.189,346.033,91.646,345.432z M304.405,377.249l-2.597-0.349c-0.201-0.079-0.416-0.165-0.675-0.265
	c-0.749-0.293-1.546-0.54-2.377-0.749c2.202-2.156,4.058-4.753,5.506-7.564c0.55-0.474,1.095-0.947,1.648-1.421
	c0.653-0.559,1.3-1.116,1.94-1.675c0.147,0.148,0.277,0.302,0.43,0.449c0.316,0.307,0.639,0.573,0.96,0.848
	c0.12,1.238,0.251,2.474,0.407,3.709c0.419,3.314,0.822,6.783,1.422,10.198c-0.046-0.024-0.091-0.05-0.137-0.074
	C308.843,379.255,306.68,377.874,304.405,377.249z"/>
<g>
	<path style="fill:#BA3838;" d="M444.422,377.475c-1.97-3.578-3.91-4.956-7.49-6.797c4.154,2.137,1.22,0.17,0.169-0.767
		c-0.988-0.881-1.986-1.683-3.055-2.477c-2.596-1.926-6.205-0.266-7.791,2.043c-1.453,2.116-1.913,4.473-2.206,6.912
		c-0.428,0.803-0.771,1.653-1.037,2.592c-1.065,1.854-1.968,3.766-3.165,5.709c-1.401,2.277-4.107,4.514-6.481,6.524
		c-0.387,0.329-0.788,0.646-1.176,0.973c-2.79,0.357-5.198,1.575-8.113,2.878c-3.832,1.712-7.654,3.226-11.246,5.852
		c-6.36,4.65-13.276,10.367-20.302,13c-2.322,0.869-5.736,1.354-9.412,1.561c1.835-8.256-1.78-17.984-11.174-19.58
		c-10.202-1.733-21.638,0.968-31.287-3.269c-3.686-1.619-6.198-3.865-8.872-6.77c-1.773-1.926-4.666-4.313-6.043-6.903
		c0.228-1.974-0.251-3.736-1.18-5.198c0.171-0.139,0.348-0.268,0.518-0.409c1.074-0.652,2.103-1.355,3.069-2.106
		c7.123-5.54,11.545-9.833,12.812-19.136c0.592-4.346-0.142-7.458-3.252-10.615c-1.229-1.247-1.586-1.687-1.563-1.758
		c-1.201-0.946-2.395-1.461-3.865-1.938c-2.094-0.678-4.188,0.391-5.345,2.094c-0.593,0.153-1.088,0.304-1.304,0.431
		c-1.697,0.992-2.945,2.507-4.329,3.856c-8.926-0.006-16.533,6.912-23.753,11.358c-3.448,2.124-6.984,4.125-10.444,6.249
		c-3.443,2.114-7.113,3.113-10.772,4.788c-3.399,1.556-5.2,2.396-8.991,2.47c-0.543,0.01-1.667-0.168-2.593-0.252
		c-0.549-0.985-1.065-1.986-1.527-2.977c-3.35-7.187-7.231-17.887-6.236-25.855c0.001-0.01,0.001-0.02,0.003-0.032
		c6.452,3.722,14.745,6.117,22.012,5.829c10.893-0.431,17.396-8.196,20.026-16.878c3.129-10.33-8.144-16.329-16.517-12.698
		c4.428-1.921-2.403-0.421-3.509-0.316c-2.498,0.237-2.263,0.183-4.73-0.216c-3.932-0.635-7.467-1.408-10.77-3.404
		c-7.883-4.763-11.55-11.762-15.881-19.497c-5.816-10.388-20.493-1.268-15.698,9.175c4.742,10.334,8.095,21.321,15.268,29.791
		c-3.213,0.468-6.227,2.405-7.275,5.932c-1.199,4.035-0.891,7.883-1.298,11.999c-0.16,1.619-0.33,3.232-0.497,4.846
		c-2.256-0.231-4.517-0.32-6.885-0.363c-2.076-0.038-4.163-0.413-6.125-1.115c0.202-0.027-2.598-1.486-3.593-2.233
		c-6.004-4.507-11.522-11.965-14.282-19.101c-3.946-10.2-19.952-6.355-16.76,4.621c1.983,6.821,4.854,13.174,6.823,20
		c0.111,0.387,0.242,0.774,0.362,1.161c-1.525,0.003-3.157,0.042-4.946,0.06c-5.324,0.05-10.913-1.089-15.076-4.498
		c-8.595-7.039-16.406-16.491-22.054-26.365c0.361-0.869,0.655-1.771,0.84-2.721c1.412-3.094,2.505-6.176,1.977-9.631
		c12.726-2.264,32.068-10.522,26.786-23.349c-1.431-3.475-4.223-6.476-8.325-6.339c-9.944,0.334-18.539,6.946-28.442,7.552
		c-9.709,0.593-12.802-7.747-19.997-12.534c-5.785-3.849-10.673,4.268-6.899,8.943c4.351,5.391,4.814,12.724,9.751,17.905
		c1.765,1.851,3.955,3.419,6.359,4.687c-2.653,0.666-5.323,1.497-8.021,1.942c-6.359,1.05-12.976,2.928-19.344,1.185
		c-6.13-1.676-10.478-3.978-15.456-7.865c-5.028-3.925-9.245-8.499-15.565-10.357c-8.204-2.41-12.924,6.406-10.058,13.084
		c4.253,9.907,10.701,18.842,19.093,25.294c-3.4,0.161-6.627,2.527-6.879,7.21c-0.456,8.508,2.22,16.657,6.162,23.959
		c2.477,4.59,5.746,7.498,9.279,11.137c3.968,4.087,7.373,8.917,12.28,12.014c0.598,0.377,1.354,0.648,1.918,1.052
		c1.404,1.004,0.134,0.004-0.093-0.174c0.063,0.049,0.22,0.171,0.541,0.419c2.048,1.587,3.757,3.608,6.01,5.054
		c4.051,2.599,8.835,5.369,13.496,6.602c5.163,1.367,11.22,2.068,16.553,1.747c6.476-0.39,11.982-2.775,18.134-4.333
		c5.452-1.381,10.296-3.019,15.423-5.453c1.203-0.572,2.498-1.135,3.814-1.718c3.069,3.374,6.526,6.368,10.582,8.465
		c9.016,4.662,20.321,6.888,30.415,6.432c6.235-0.281,10.939-2.386,16.609-4.662c1.905-0.765,4.814-1.913,7.31-3.677
		c13.126,10.634,35.868,11.443,45.701-4.043c1.065-1.678,1.784-3.31,2.151-4.873c3.186-1.129,6.383-2.52,9.432-4.097
		c0.593,2.876,1.619,5.719,2.576,8.406c2.681,7.525,5.007,13.88,10.709,19.99c4.863,5.212,10.991,8.897,17.687,11.276
		c1.614,3.466,3.704,6.732,6.027,9.658c9.36,11.78,24.638,13.465,38.611,14.402c10.201,0.685,20.251-0.936,29.231-5.227
		c10.03-2.785,19.688-7.811,27.827-13.701c10.912-7.896,23.616-18.532,26.294-32.519
		C447.405,390.857,447.911,383.809,444.422,377.475z M130.167,372.271c-3.76,1.006-7.22,0.587-10.998-0.21
		c-1.153-0.243-1.676-0.349-1.795-0.355c-1.028-0.413-2.053-0.969-3.046-1.41c-2.427-1.078-2.707-2.052-6.122-4.147
		c-4.053-2.486-7.562-3.639-11.39-6.494c-4.235-3.16-8.92-5.534-13.077-8.725c-0.901-0.692-1.814-1.768-2.842-2.252
		c-0.277-0.13-0.476-0.198-0.642-0.239c-1.36-2.158-3.619-4.249-3.872-6.773c-0.088-0.884-0.286-1.686-0.572-2.409
		c3.142,1.638,6.479,2.973,10.026,3.911c10.333,2.736,21.478,1.355,31.416-2.323c2.117-0.784,4.365-1.749,6.557-2.904
		c1.083,4.48,2.477,8.894,3.982,13.117c2.383,6.691,5.425,13.858,9.714,19.823C135.059,371.229,132.611,371.617,130.167,372.271z"/>
	<path style="fill:#BA3838;" d="M316.148,339.735c0.019,0.015,0.038,0.026,0.058,0.041
		C318.844,341.883,316.204,339.552,316.148,339.735z"/>
	<path style="fill:#BA3838;" d="M190.766,267.527c-1.945-2.211-4.048-2.589-6.336-4.195c-1.955-1.372-3.507-3.305-5.369-4.828
		c-3.603-2.946-8.627-6.075-11.541-8.613c-2.775-2.418-6.667-7.485-9.393-10.975c-3.269-4.186-5.609-9.204-9.296-12.992
		c-10.739-11.036-26.316,5.236-16.67,16.67c1.239,1.469,2.302,4.643,3.438,6.511c1.802,2.963,3.433,6.004,5.338,8.911
		c3.766,5.744,7.494,10.6,12.965,14.757c10.347,7.862,23.715,11.269,35.648,4.168C193.035,274.868,193.305,270.414,190.766,267.527z
		"/>
	<path style="fill:#BA3838;" d="M424.297,372.95c-2.125-0.129-4.222-0.249-6.341-0.306c-0.439-0.012-3.253-0.189-2.94-0.107
		c-0.313-0.037-0.61-0.073-0.88-0.105c-1.138-0.972-2.731-2.227-3.108-2.575c-6.24-5.756-11.905-15.457-12.334-23.931
		c-0.256-5.061-3.659-7.988-7.485-8.755c-1.816-5.781-3.273-11.403-4.451-17.515c-1.023-5.306-3.092-10.568-3.36-15.955
		c0.903-4.851-1.867-10.056-8.485-10.238c-0.235-0.006-0.471-0.013-0.707-0.019c-2.91-0.079-6.664,1.734-7.89,4.526
		c-3.378,7.688-5.626,15.681-7.204,23.996c-2.193,11.558,0.079,22.324,1.417,33.741c0.228,1.94,0.56,3.688,1.068,5.446
		c-0.644-0.454-1.593-1.045-2.438-1.624c-0.093-0.193-0.207-0.414-0.366-0.702c-1.75-3.163-4.443-5.85-6.963-8.401
		c-7.052-7.14-17.928-19.658-28.288-10.774c-1.692,1.451-2.58,3.928-2.602,6.35c-0.009-0.003-0.017-0.005-0.026-0.006
		c0.004,0.068,0.012,0.139,0.015,0.207c0.003,0.266,0.035,0.523,0.059,0.785c0.408,5.646,1.813,11.812,3.943,17.001
		c-0.44,4.528-1.914,9.022-3.858,12.611c-3.12,5.762,5.522,10.847,8.798,5.143c0.6-1.045,1.147-2.115,1.665-3.198
		c0.995,1.575,2.188,3.19,3.731,4.948c5.13,5.843,11.99,10.577,19.864,11.505c6.988,0.825,13.827-2.293,17.754-7.783
		c4.667,5.989,11.295,10.467,18.167,10.634c9.966,11.739,28.649,15.827,41.943,7.212
		C447.647,395.566,441.438,373.993,424.297,372.95z"/>
</g>
<g>
	<path style="fill:#EAA9A9;" d="M140.496,200.482c-3.197,0.087-6.474,0.422-9.658,0.647c-4.768,0.336-8.362,3.307-11.903,6.249
		c-1.892,1.573-3.689,3.203-5.439,4.868c1.628-3.382,2.988-6.416,0.127-9.93c-8.314-10.211-21.495,2.747-26.464,9.623
		c-6.654,9.21-11.902,18.98-17.506,28.865c-4.832,8.522,7.676,19.219,14.12,10.895c5.378-6.947,10.576-13.868,15.97-20.702
		c0.939,6.174,9.168,10.624,15.711,5.499c5.841-4.575,12.037-8.738,17.474-13.79c4.709-4.375,10.89-9.45,12.192-16.154
		C145.693,203.604,143.813,200.392,140.496,200.482z"/>
	<path style="fill:#EAA9A9;" d="M195.769,171.148c-0.547-0.408-0.923-0.662-1.151-0.784c-0.026-0.033-0.051-0.066-0.078-0.101
		c-1.817-1.817-4.282-2.856-6.745-3.454c-5.43-1.318-11.331,0.661-16.161,3.115c-3.47,1.763-6.915,4.055-10.042,6.369
		c-3.83,2.833-4.937,6.423-7.772,9.915c-3.166,3.9-4.13,9.051-0.789,13.248c2.821,3.541,8.961,5.686,13.015,2.598
		c5.108-3.89,9.718-5.875,15.686-8.174c6.169-2.377,14.459-5.559,15.974-12.592C200.029,177.863,199.481,173.577,195.769,171.148z"
		/>
	<path style="fill:#EAA9A9;" d="M219.523,164.964c-6.925,6.767,2.44,19.875,10.652,13.807c-0.907-0.115-0.882-0.148,0.07-0.097
		c0.956,0.036,1.912-0.006,2.864-0.125c2.085-0.138,3.767-0.436,5.833-0.075c3.599,0.629,7.522,2.331,10.935,3.596
		c5.695,2.112,10.843,5.804,16.718,4.597c0.304,0.032,0.606,0.072,0.912,0.09c1.461,0.088,3.236-0.896,3.882-2.226
		C283.415,159.747,232.983,151.81,219.523,164.964z"/>
	<path style="fill:#EAA9A9;" d="M215.896,235.45c-2.126-2.91-3.298-5.804-7.371-8.014c-4.507-2.446-9.918-3.052-14.996-3.122
		c-8.736-0.121-18.14,1.376-23.898,8.392c-0.766,0.932-0.889,2.183,0,3.108c2.18,2.27,4.147,2.152,7.132,2.431
		c4.507,0.421,9.018,1.743,13.482,2.496c8.701,1.47,15.734,5.901,24.074,0.724C216.182,240.307,217.329,237.414,215.896,235.45z"/>
	<path style="fill:#EAA9A9;" d="M247.849,254.698c-0.198-0.202-1.285-1.146-1.394-1.143c-0.414-0.556-0.79-1.178-1.216-1.699
		c-1.118-1.372-2.221-2.729-3.466-3.988c-0.762-0.771-0.303-0.222-0.587-0.669c-0.34-0.534-0.6-1.114-0.869-1.685
		c-0.381-0.807-0.786-1.623-1.151-2.435c-0.454-1.011-0.043-0.583-0.069-0.294c0.346-3.983-3.645-7.392-7.392-7.392
		c-4.287,0-7.044,3.399-7.392,7.392c-0.286,3.289,1.118,5.76,2.514,8.592c1.08,2.193,1.964,4.154,3.627,6.017
		c2.029,2.272,4.451,3.608,7.245,4.718c2.473,0.982,4.63,0.462,6.869,0.506C248.643,262.698,250.614,257.515,247.849,254.698z"/>
	<path style="fill:#EAA9A9;" d="M343.167,170c4.118,1.913,7.515,4.927,11.707,6.79c1.975,0.877,4.32-0.566,3.743-2.877
		c-7.649-30.518-45.769-13.479-65.58-7.688c-4.254,1.243-2.408,7.177,1.793,6.502c5.542-0.891,11.038-1.992,16.553-2.963
		c-4.658,2.431-4.144,10.6,2.156,10.296c8.337-0.403,15.427-1.266,23.111,2.767c2.768,1.453,4.826,3.636,7.201,5.613
		c2.31,1.922,4.829,2.72,7.197,4.405c1.387,0.988,3.895,0.339,4.612-1.21c3.952-8.53-3.331-15.726-10.674-19.447
		c-8.71-4.414-17.543-4.344-26.741-3.526c3.433-0.497,6.882-0.903,10.367-1.107C333.782,167.25,338.427,167.8,343.167,170z"/>
	<path style="fill:#EAA9A9;" d="M335.417,215.789c-6.194-7.981-13.277-10.434-22.976-12.421c-4.861-0.996-10.058-0.644-14.984-0.517
		c-5.554,0.144-10.824-0.473-16.31-0.611c-8.329-0.208-8.241,12.446,0,12.886c4.689,0.251,9.381,0.837,14.114,1.056
		c5.235,0.242,10.615,1.336,15.483,3.287c7.19,2.881,16.47,7.227,23.78,3.259C337.28,221.235,337.079,217.932,335.417,215.789z"/>
	<path style="fill:#EAA9A9;" d="M383.381,194.715c-11.12-3.369-24.577,10.05-31.095,17.355c-3.728,4.18-7.182,9.293-10.343,13.937
		c-2.28,3.349-5.782,7.88-3.987,11.955c-3.491,4.792-6.544,9.789-10.079,14.634c-2.885,3.955-4.92,7.993-5.721,12.877
		c-0.779,4.749,0.173,9.119,0.147,13.818c-0.046,7.984,9.695,11.492,15.269,6.324c8.004-7.42,3.271-15.769,4.514-24.976
		c0.464-3.441,0.892-7.963,2.414-11.068c1.749-3.57,4.808-7.578,7.201-10.735c1.528-2.015,1.137-4.244-0.156-5.925
		c0.133-0.139,0.263-0.281,0.4-0.414c3.51-3.425,6.875-6.999,10.379-10.394c4.272-4.14,9.023-7.83,13.138-12.157
		c3.2-3.365,5.625-7.293,9.245-10.224C386.542,198.235,385.35,195.312,383.381,194.715z"/>
	<path style="fill:#EAA9A9;" d="M407.122,184.148c-2.155-1.978-6.065-2.45-8.158,0c-1.642,1.922-3.402,3.544-4.396,5.921
		c-0.476,1.138-0.917,2.382-0.917,3.638c0.029,0.22,0.059,0.439,0.088,0.657c-0.012,0.061-0.023,0.128-0.037,0.208
		c-0.165,0.424-0.217,1.032-0.297,1.401c-0.468,2.175,1.354,4.163,3.594,3.594c1.239-0.315,2.149-0.942,3.015-1.862
		c0.551-0.586-0.161,0.019,0.624-0.584c0.29-0.193,0.55-0.419,0.777-0.682c-0.262,0.164-0.258,0.157,0.012-0.018
		c0.349-0.251,0.745-0.417,1.105-0.646c0.35-0.214,0.683-0.453,0.996-0.717c0.624-0.483,0.731-0.565,0.32-0.244
		c1.1-0.826,2.203-1.646,3.272-2.511C409.477,190.4,409.254,186.106,407.122,184.148z"/>
	<path style="fill:#EAA9A9;" d="M423.925,221.473c-0.275-2.053-0.335-3.197-1.391-5.052c-2.209-3.879-5.901-6.967-9.579-9.366
		c-1.04-0.678-2.711-2.287-3.869-2.566c-0.111-0.027-0.169-0.024-0.203-0.01c-0.458-0.612-0.89-1.249-1.424-1.799
		c-3.055-3.138-7.575-2.569-10.705,0c-6.692,5.49-2.02,15.096,2.786,19.829c5.053,4.978,11.77,9.815,18.851,6.908
		c1.965-0.343,3.705-1.336,4.668-3.277l-0.058,0.201c0.573-0.515,0.822-2.119,0.93-2.908
		C424.043,222.587,423.608,219.114,423.925,221.473z"/>
	<path style="fill:#EAA9A9;" d="M472.499,297.83c-2.083-13.854-8.952-26.021-18.181-36.424c-1.454-1.638-3.308-2.249-5.155-2.148
		c-0.41-0.899-0.834-1.796-1.281-2.694c-3.583-7.176-9.37-10.894-16.115-14.814c-3.378-1.963-6.834-3.818-10.508-5.178
		c-1.896-0.702-3.844-1.118-5.746-1.791c-0.95-0.338-4.337-2.763-2.582-0.4c-3.969-5.346-14.923-2.449-11.913,5.022
		c2.546,6.32,8.66,8.477,13.848,12.332c4.405,3.275,10.469,8.467,12.873,13.321c1.848,3.73,3.009,7.608,3.959,11.55
		c-2.307-2.327-5.392-4.12-8.141-5.112c-4.338-1.565-9.175-1.538-13.648-2.676c-8.406-2.139-11.243,9.67-3.505,12.715
		c2.868,1.129,6.212,1.624,8.754,3.452c1.958,1.408,4,3.608,5.671,5.391c4.441,4.737,11.001,2.313,13.432-2.447
		c1.785,5.972,6.213,11.716,11.142,15.331c1.79,1.313,4.23,0.182,5.331-1.398c0.463-0.665,0.866-1.401,1.221-2.189
		c0.199,5.368-0.266,10.781,0.231,16.143c0.251,2.708,0.909,5.886,1.706,8.495c0.366,1.052,0.781,2.085,1.245,3.098
		c0.511,0.711,0.876,1.208,1.095,1.492c0.829,2.475,3.661,3.803,6.132,3.185C476.161,328.639,474.095,308.448,472.499,297.83z"/>
	<path style="fill:#EAA9A9;" d="M299.649,290.782c-3.851-0.376-7.701,0.307-11.555-0.225c-6.052-0.835-11.763-3.175-17.407-5.386
		c-5.851-2.291-9.807,7.268-4.272,10.133c9.798,5.072,27.838,16.329,38.337,7.796C310.13,298.73,305.156,291.319,299.649,290.782z"
		/>
	<path style="fill:#EAA9A9;" d="M217.93,324.922c-2.927-3.937-5.838-7.365-8.394-11.616c-3.512-5.841-4.499-11.871-5.351-18.525
		c-0.618-4.827-8.742-7.288-9.565-1.294c-0.74,5.388-1.763,10.701-1.129,16.148c0.685,5.888,2.63,11.142,4.778,16.626
		c3.064,7.821,12.781,16.487,19.663,7.218C219.541,331.306,219.544,327.093,217.93,324.922z"/>
	<path style="fill:#EAA9A9;" d="M195.384,318.704c-0.147-0.936-0.706-1.367-1.046-2.188c-0.476-1.147-0.532-2.322-0.964-3.489
		c-0.838-2.259-2.161-4.175-2.878-6.474c-0.759-2.433-1.583-4.846-2.318-7.286c0.738-5.103-4.58-9.926-10.281-7.093
		c-0.307,0.152-0.614,0.304-0.921,0.458c-2.047,1.018-3.787,3.873-3.548,6.187c0.375,3.647,1.499,6.761,2.44,10.267
		c0.703,2.624,1.263,5.268,2.662,7.651c2.502,4.266,9.312,8.58,14.445,6.169C194.702,322.095,195.681,320.595,195.384,318.704z"/>
	<path style="fill:#EAA9A9;" d="M428.328,322.794c-8.278-5.007-19.824-8.706-29.548-8.884c-8.441-0.155-8.089,12.07,0,12.886
		c8.566,0.864,14.951,6.604,20.943,12.036c2.78,2.519,5.14,5.443,7.924,7.934c3.071,2.748,6.259,3.428,9.938,4.913
		c4.438,1.791,10.024-2.784,9.669-7.365C446.468,334.182,436.228,327.572,428.328,322.794z"/>
</g>
<path d="M500.884,284.08c-1.339-6.822-5.035-12.399-8.637-18.186c-3.914-6.29-6.356-13.219-10.744-19.268
	c-2.346-3.235-4.881-6.337-7.553-9.306c-2.098-2.331-4.404-4.391-4.909-7.599c-0.504-3.203,0.228-6.676,0.102-9.908
	c-0.182-4.723-1.175-8.525-2.911-12.858c-2.589-6.462-3.553-13.111-7.557-19.05c-3.969-5.888-8.819-10.863-15.271-13.97
	c-5.974-2.877-12.669-4.404-19.471-5.048c-5.639-6.871-13.894-10.912-21.223-15.675c-8.904-5.786-18.082-11.138-28.265-14.372
	c-21.547-6.843-42.692-2.409-64.25,1.519c-4.847,0.884-9.76,1.247-14.608,2.097c-5.354,0.939-10.151,2.449-15.662,2.294
	c-10.558-0.295-20.67-3.911-31.034-5.54c-11.102-1.745-22.449-0.775-33.55,0.593c-5.54,0.683-11.041,1.612-16.57,2.373
	c-4.985,0.687-10.06,0.717-14.718,2.839c-3.509,1.598-7.162,1.642-10.697,3.149c-4.588,1.955-8.787,5.547-13.198,7.985
	c-9.661,5.341-19.434,8.046-29.878,11.34c-18.686,5.893-36.661,14.125-52.389,25.918c-7.298,5.471-13.868,11.581-19.153,19.059
	c-5.636,7.975-8.115,17.022-10.083,26.457c-1.119,5.363-2.002,10.831-2.294,16.306c-0.3,5.63-1.796,9.669-4.19,14.741
	c-4.026,8.532-8.356,17.444-9.721,26.86c-3.087,21.282,2.771,42.788,15.369,60.001c6.446,8.806,13.974,16.052,22.682,22.601
	c2.29,1.722,4.491,3.165,6.7,4.332c1.293,2.576,2.611,5.146,4.232,7.509c3.853,5.617,8.907,10.224,14.849,13.582
	c5.724,3.235,11.5,5.538,17.828,7.223c6.634,1.767,12.578,4.372,19.476,5.216c13.623,1.667,27.14-0.442,40.492-3.052
	c6.103-1.193,12.556-1.433,18.779-2.36c7.993-1.19,10.09,2.056,15.364,7.157c8.816,8.529,24.937,7.887,35.806,4.526
	c5.939-1.836,11.293-5.028,16.98-7.456c3.36-1.435,6.251-3.145,9.741-3.842c1.495-0.299,3.066-0.199,4.549-0.578
	c-0.078,0.02,4.732-1.652,3.417-1.556c5.342-0.39,11.097,4.259,13.775,8.407c3.584,5.551,4.26,12.414,7.472,18.173
	c5.479,9.822,16.126,17.769,26.275,22.186c5.669,2.466,11.908,4.616,18.146,4.736c3.328,0.064,6.595-0.671,9.847-1.288
	c4.78-0.907,8.941-0.889,13.813-0.629c2.346,0.125,5.595,0.766,8.064,0.292c0.015,0.017,0.023,0.027,0.04,0.043
	c0.748,0.958,1.481,1.545,2.441,2.358c4.817,4.079,10.792,5.512,16.877,6.604c13.488,2.422,27.753,1.083,39.938-5.497
	c12.069-6.517,20.819-18.484,28.287-29.664c3.757-5.623,6.228-11.884,9-18.017c3.142-6.949,6.701-12.326,7.659-20.064
	c0.735-5.938,1.651-11.977,1.551-17.97c-0.105-6.322-2.516-12.921-1.754-19.182c0.771-6.329,5.733-10.019,9.137-14.96
	c4.191-6.086,5.727-13.836,7.679-20.848c1.84-6.613,1.912-12.961,2.712-19.695C500.521,297.968,502.304,291.322,500.884,284.08z
	 M481.831,310.499c-0.153,6.27-2.311,12.26-3.791,18.313c-0.82,3.35-1.44,6.434-3.284,9.397c-1.648,2.648-3.919,4.86-5.645,7.456
	c-3.069,4.616-4.557,10.042-4.886,15.552c-0.372,6.246,1.685,12.309,1.507,18.587c-0.156,5.531-1.155,11.283-2.258,16.7
	c-1.219,5.992-5.776,11.693-8.507,17.186c-5.548,11.159-13.442,22.403-23.01,30.538c-8.445,7.18-20.518,9.646-31.352,8.117
	c-4.496-0.634-8.77-1.469-12.363-4.127c-1.767-1.307-3.369-2.179-4.955-2.759c4.74-3.707,8.601-7.838,13.075-12.281
	c2.844-2.823,5.769-5.49,8.133-8.755c2.509-3.465,3.556-7.203,4.992-11.142c0.963-2.64,2.339-4.904,3.626-7.071
	c1.236,0.344,2.5,0.592,3.775,0.726c6.281,0.665,15.65,1.33,20.924-2.615c3.533-2.643,3.529-6.93,0-9.574
	c-6.456-4.836-14.997-1.426-22.238-3.02c-0.124-0.308-0.228-0.609-0.376-0.928c-0.759-1.632-2.059-2.538-3.515-2.892
	c-0.045-3.68,0.504-7.815,3.143-10.478c3.672-3.707-1.777-8.936-5.65-5.652c-4.283,3.633-5.985,8.785-7.829,13.896
	c-1.789,4.96-2.553,9.426,0.933,13.703c-1.58,3.489-4.237,6.802-5.462,10.412c-2.322,6.841-5.892,10.636-10.53,16.003
	c-3.796,4.395-6.456,9.077-10.913,12.918c-2.043,1.759-4.319,3.879-6.756,5.916c-5.594,0.069-11.009-0.064-16.647,1.212
	c-6.795,1.538-11.348,1.68-18.007-0.638c-9.98-3.473-19.985-10.863-23.288-21.124c-3.457-10.742-8.355-20.975-18.637-26.718
	c-1.369-0.765-2.867-1.519-4.433-2.186c5.773-4.411,11.348-9.055,17.238-13.353c2.845-2.075,5.443-4.29,7.883-6.651
	c4.561,3.14,10.12,5.057,15.368,6.623c11.081,3.307,24.561,3.347,35.927,1.67c10.15-1.499,19.951-5.608,28.17-11.749
	c6.455-4.823,11.916-12.712,9.513-20.984c-0.95-3.267-5.163-2.886-6.261,0c-2.083,5.469-10.134,7.697-14.946,10.226
	c-2.264,1.19-4.543,2.318-6.851,3.344c0.171-8.629-0.35-16.826-1.533-25.677c-0.708-5.297-1.817-10.576-2.451-15.877
	c-0.49-4.097,0.199-8.007,0.969-11.955c0.962-0.258,1.924-0.488,2.89-0.643c5.259-0.839,10.522-0.949,15.831-1.105
	c10.031-0.295,20.223-0.77,30.251-0.11c4.355,0.286,9.306,1.051,12.738,4.025c3.115,2.7,3.613,6.331,5.03,9.966
	c0.953,2.442,1.903,5.525,3.268,8.271c-2.605,7.187-2.025,14.068,4.177,20.005c5.845,5.595,14.666-1.447,11.012-8.497
	c-1.004-1.937-2.004-2.69-1.936-4.882c0.082-2.634,1.537-5.767,2.943-7.86c1.878-2.795,4.91-8.376,7.647-10.324
	c4.982-3.546,1.816-10.315-4.003-9.494c-3.988,0.563-6.545,3.463-9.2,6.21c-0.359,0.372-0.722,0.74-1.087,1.109
	c-0.483-2.309-1.133-4.604-2.055-6.884c-4.198-10.367-15.239-14.734-25.647-15.746c-11.272-1.097-23.735-0.433-34.852,1.563
	c-5.089,0.914-10.385,2.124-15.17,4.134c1.034-5.981,2.181-11.981,4.245-17.666c2.667-7.344,6.792-11.899,12.189-16.489
	c4.639,2.84,10.282,4.3,15.587,4.543c5.25,0.242,13.317-0.999,16.451-5.678c0.689-1.028,0.692-2.703,0-3.731
	c-4.771-7.085-16.295-5.246-23.394-8.24c-4.049-1.708-6.911-5.375-8.947-9.168c-3.195-5.953-2.413-11.685-1.327-17.967
	c0.903-5.223-6.655-7.541-8.091-2.231c-1.949,7.213-4.558,14.146-3.312,21.806c0.541,3.319,1.735,6.804,3.424,10.013
	c-11.505,11.445-15.166,30.924-17.806,45.977c-0.825,4.702-2,9.386-2.51,14.137c-0.623,5.804,0.647,11.304,1.515,17.021
	c1.734,11.43,4.306,22.793,5.406,34.317c-2.63,0.759-5.328,1.317-8.138,1.554c-9.317,0.784-19.128,0.629-28.363-0.651
	c-2.937-0.408-6.163-0.641-9.363-1.04c0.497-0.633,0.993-1.27,1.481-1.923c6.58-8.833,12.26-17.551,16.079-27.898
	c1.112-3.015,2.355-7.483,2.477-11.606c3.01-0.809,5.873-2.061,8.41-3.725c2.146-1.408,2.165-4.375,0-5.779
	c-6.76-4.382-12.721-4.333-20.569-4.208c-2.947,0.047-10.632-0.147-11.403-3.661c-1.068-4.863-8.718-3.755-8.633,1.169
	c0.116,6.833,6.322,12.137,12.092,14.791c2.319,1.066,4.806,1.776,7.356,2.158c-0.304,1.234-0.483,2.527-0.839,3.757
	c-1.019,3.526-2.399,6.948-3.977,10.26c-3.91,8.208-9.592,16.274-15.578,23.063c-4.207,4.772-9.311,8.25-14.348,12.065
	c-4.616,3.497-8.656,7.49-12.949,11.353c-3.216,2.894-6.736,5.241-10.28,7.575c-4.204,0.785-8.273,1.557-12.427,3.63
	c-9.989,4.983-20.977,11.462-32.59,9.957c-5.871-0.761-8.484-6.626-13.477-9.553c-1.373-0.806-2.775-1.449-4.198-1.965
	c2.4-1.305,4.726-2.732,6.843-4.585c4.017-3.518,7.041-7.984,10.187-12.254c2.669-3.624,5.68-7.191,7.233-11.474
	c2.302-6.348,2.789-13.091,2.305-19.779c5.841,3.387,12.018,4.702,19.023,4.78c3.969,0.045,8.104-0.229,11.872-1.589
	c3.842-1.387,7.013-4.428,10.904-5.539c4.872-1.39,3.34-7.678-1.116-8.241c-5.75-0.726-10.806,1.197-16.478,1.226
	c-5.988,0.031-11.922-0.118-17.531-2.413c-5.667-2.319-8.255-6.052-12.632-9.911c-1.83-1.612-4.084-2.358-5.98-3.814
	c-3.647-2.8-5.612-7.062-6.002-11.578c-0.299-3.466-5.577-3.587-5.494,0c0.164,7.006,3.025,13.914,7.324,19.403
	c3.602,4.6,5.98,9.211,9.986,13.115c-0.375,2.234-0.889,4.448-1.841,6.709c-1.78,4.221-3.324,8.895-5.396,12.97
	c-1.83,3.599-4.57,6.602-6.937,9.845c-0.968,1.326-1.912,2.667-2.89,3.975c-3.056-0.789-6.394,1.164-9.774,0.77
	c-7.531-0.877-11.801-5.448-16.602-10.776c-4.42-4.905-5.654-10.971-8.973-16.635c-2.212-3.778-2.761-7.412-2.809-11.728
	c-0.024-2.085,0.068-3.776-0.32-5.434c2.061-1.545,3.787-3.374,4.878-5.496c2.897-5.631-2.833-10.847-8.303-8.303
	c-4.111,1.91-7.791,4.708-11.605,7.139c-1.702,1.084-5.687,4.725-8.462,4.792c-0.12-0.123-0.274-0.219-0.458-0.263
	c-0.503-0.121-1.006-0.243-1.509-0.364c-0.955-0.23-2.154,0.297-2.364,1.343c-1.446,7.201,8.098,7.723,12.964,7.036
	c1.236-0.174,2.556-0.444,3.908-0.802c-0.151,5.559,1.502,11.825,3.539,15.665c1.147,2.163,2.736,3.928,3.702,6.219
	c0.139,0.331,0.24,0.673,0.343,1.013c-0.423,0.34-0.84,0.684-1.244,1.031c-4.601,3.939-9.436,5.021-15.051,7.102
	c-8.899,3.298-18.397,6.163-26.674,0.132c-5.479-3.992-10.554,4.262-6.779,8.785c7.258,8.7,21.678,6.121,30.864,2.603
	c5.294-2.027,10.838-4.228,15.888-6.786c2.102-1.064,3.882-2.344,5.543-3.994c0.221-0.22,0.445-0.473,0.671-0.748
	c1.404,1.892,3.153,3.588,4.714,5.232c5.349,5.637,11.024,11.027,19.123,11.932c1.095,0.123,2.257,0.223,3.433,0.27
	c-2.537,1.318-5.146,2.52-7.534,4.087c-3.268,2.146-5.661,3.8-9.476,4.841c-4.374,1.193-8.899,1.327-13.281,2.386
	c-1.189,0.288-2.342,0.676-3.48,1.097c-4.921,1.009-9.861,1.825-14.895,2.212c-6.678,0.514-13.577,0.633-20.141-0.857
	c-6.63-1.505-14.377-3.07-20.636-5.662c-5.684-2.354-11.051-4.717-15.959-8.158c0.958-0.084,1.933-0.197,2.949-0.366
	c2.498-0.414,2.36-4.393,0-4.913c-8.497-1.871-14.694-8.445-21.105-13.849c-6.7-5.646-12.505-11.967-17.273-19.337
	c-3.878-5.995-6.961-12.61-8.964-19.518c5.824,7.307,14.272,12.506,23.772,13.592c11.13,1.271,23.71-2.239,33.807-6.828
	c4.241-1.928,8.982-5.199,12.917-7.803c4-2.647,5.553-6.345,4.9-11.013c-0.703-5.03-8.241-5.319-10.457-1.367
	c-0.978,1.745-4,2.295-5.696,3.322c-3.606,2.181-6.121,4.626-10.197,6.013c-7.953,2.708-15.56,6.035-24.176,5.616
	c-7.571-0.368-13.773-3.36-18.906-8.842c-2.137-2.281-5.804-5.81-8.518-9.533c-0.04-4.391,0.418-8.8,1.458-13.152
	c1.977-8.278,6.579-15.799,10.592-23.214c1.995-3.682,3.998-7.545,5.03-11.63c1.208-4.788,0.905-9.806,1.694-14.661
	c1.4-8.609,3.208-18.029,7.74-25.599c3.943-6.587,9.65-12.049,15.665-16.753c13.748-10.751,29.668-18.379,46.029-24.215
	c2.38-0.849,4.758-1.66,7.126-2.47c-1.405,3.451-2.243,6.718-4.347,9.976c-4.966,7.688-7.536,15.968-10.528,24.546
	c-4.327,12.401-4.259,27.085,0.591,39.705c-12.368-3.639-28.984,0.711-39.216,5.04c-7.364,3.116-16.558,8.706-21.37,15.268
	c-4.524,6.168-3.255,13.644,0.222,20.005c0.682,1.247,2.693,1.289,3.364,0c2.146-4.126,2.725-9.114,5.937-12.658
	c3.773-4.164,9.723-7.925,15.244-10.284c0.313,0.261,0.666,0.483,1.074,0.639c3.523,1.34,3.48,7.525,3.61,10.879
	c0.21,5.427-1.63,10.195-0.586,15.656c0.101,0.529,0.3,1.008,0.556,1.447c-2.032-0.031-4.032,0.335-5.519,1.352
	c-0.312,0.096-0.629,0.175-0.901,0.196c-4.144,0.323-4.209,5.884-0.312,6.536c0.949,1.233,2.426,2.147,3.73,2.932
	c2.868,1.727,5.584,2.189,8.867,1.431c2.51-0.579,4.333-3.18,4.333-5.691c0-1.835-0.854-3.358-2.153-4.437
	c0.986-0.467,1.817-1.23,2.307-2.341c4.117-9.353,3.902-25.101-4.401-31.981c4.016-1.024,8.109-1.886,12.057-2.611
	c4.874-0.895,13.454-3.002,18.617-0.951c3.511,5.203,9.133,12.593,15.648,16.379c-2.911,2.005-5.97,2.845-8.521,0.71
	c-2.584-2.163-6.958,0.583-4.942,3.813c6.204,9.936,19.136,8.984,28.054,2.942c7.483-5.067,17.833-17.059,14.096-26.982
	c-1.199-3.185-5.875-5.521-8.516-2.248c-1.605,1.991-3.978,3.269-5.732,5.143c-1.896,2.027-3.482,4.304-5.076,6.566
	c-0.524,0.743-1.21,1.681-2.01,2.703c-1.713-1.952-3.218-4.175-4.342-5.713c-3.319-4.544-6.806-9.152-9.415-14.157
	c-2.01-3.856-3.354-8.264-4.282-12.658c2.041-2.502,4.534-4.525,7.146-6.498c7.165-5.415,15.506-9.633,23.601-13.477
	c8.341-3.96,16.883-3.284,25.814-4.076c2.919-0.26,5.925-1.022,8.938-1.607c1.799,0.472,3.597,0.942,5.384,1.445
	c-0.364,0.977-0.67,2.025-0.85,3.264c-0.584,4.023-0.666,8.165-0.673,12.228c-0.012,7.907,0.556,16.427,3.91,23.688
	c3.101,6.714,8.693,13.208,14.966,17.167c3.011,1.9,6.444,2.455,9.788,3.097c-1.102,2.677-2.076,5.409-3.098,8.21
	c-1.862,5.102-3.838,9.883-0.109,14.729c4.872,6.328,13.78,2.633,12.644-5.331c0.043,0.303,1.69-3.783,2.217-5.329
	c1.203-3.528,2.267-7.027,3.67-10.486c0.776-1.915,1.51-3.841,2.472-5.675c0.528-1.006,1.222-1.935,1.724-2.95
	c0.329-0.666,0.614-0.878,0.757-0.944c3.391,0.601,5.953-4.078,3.263-6.534c-7.407-6.767-13.877-2.217-18.515,4.638
	c-6.191-3.713-12.55-7.624-16.788-13.646c-4.41-6.265-5.502-15.361-6.122-22.813c-0.285-3.423-0.644-6.847-0.482-10.253
	c4.272,1.889,8.865,4.369,13.522,4.764c1.786,7.752,9.062,18.218,17.513,13.721c1.097-0.583,1.643-2.041,1.308-3.214
	c-1.065-3.741-4.235-5.478-6.548-8.364c-3.134-3.913-3.171-8.753-1.853-13.45c2.156-7.673,9.424-15.344,5.184-23.508
	c-1.261-2.428-5.538-2.66-6.728,0c-2.441,5.458-4.375,11.289-6.72,16.856c-0.863,2.048-1.513,4.175-1.959,6.341
	c-7.055-4.369-14.849-6.947-23.428-7.878c-4.331-0.471-10.573-1.447-15.578-0.29c-9.569,0.033-19.137,0.635-27.97,4.744
	c-9.567,4.45-19.163,9.614-27.136,16.613c0.739-4.193,2.179-8.231,3.547-12.591c2.071-6.595,4.517-12.293,8.041-18.232
	c2.977-5.015,3.339-10.916,6.822-15.546c1.88-2.498,3.67-5.075,5.534-7.591c0.193-0.096,0.389-0.18,0.581-0.277
	c4.094-2.065,8.277-4.204,12.165-6.639c1.588-0.993,3.018-2.472,4.675-3.321c2.071-1.061,4.3-0.876,6.511-1.444
	c3.431-0.88,6.098-2.821,9.684-3.276c1.123-0.143,2.245-0.302,3.368-0.453c-0.097,0.233-0.189,0.459-0.27,0.667
	c-1.832,4.764-3.705,9.656-4.416,14.711c-0.839,5.964-4.951,13.461-0.302,18.709c2.124,2.397,6.336,5.199,8.866,1.803
	c1.405-1.886,0.896-4.51,1.43-6.692c0.78-3.19,2.013-5.871,2.349-9.216c0.547-5.444,1.527-10.376,2.762-15.694
	c0.375-1.612,0.688-3.767,1.229-5.838c9.858-1.22,20.092-2.029,30.017-1.415c10.128,0.625,19.903,4.719,29.846,6.616
	c9.103,1.736,17.346,1.692,26.401-0.271c10.38-2.25,21.191-3.156,31.683-5.005c10.269-1.809,20.606-3.111,31.025-1.656
	c10.909,1.523,20.723,6.104,29.975,11.893c1.759,1.101,3.628,2.174,5.531,3.253c-8.213,0.706-16.365,4.392-23.445,8.104
	c-10.077,5.282-18.527,12.551-27,20.012c-0.753-1.164-1.574-2.268-2.369-3.286c-5.161-6.612-12.519-10.319-20.427-12.739
	c-5.896-1.804-12.753-2.12-18.94-2.139c-1.419-0.004-2.77,0.078-4.044,0.271c0.024-2.062,0.155-4.374,1.207-5.838
	c2.744-3.814-2.685-9.154-6.492-6.492c-4.833,3.379-6.503,9.248-7.697,14.772c-1.25,5.79-5.093,17.334,1.34,21.367
	c5.998,3.76,8.954-2.818,10.173-8.058c0.11-0.027,0.221-0.049,0.33-0.082c1.171-0.348,2.084-1.009,3.021-1.761
	c0.061-0.049,0.104-0.084,0.159-0.129c2.881,0.436,6.49,0.104,9.401,0.242c6.121,0.292,11.601,1.817,17.15,4.451
	c2.61,1.239,6.938,3.496,10.004,6.174c-2.658,2.822-5.043,5.941-6.534,9.352c-1.502,2.464-2.661,5.126-3.79,7.782
	c-1.827,4.296-3.689,8.637-5.397,13.025c-7.761-4.758-16.441-7.497-25.725-5.327c-4.863,1.135-9.888,3.668-13.95,6.55
	c-0.647,0.459-1.358,0.95-2.091,1.474c-2.208-3.142-5.193-5.768-8.201-8.931c-2.899-3.05-8.2,0.922-5.883,4.539
	c2.084,3.255,3.858,6.651,4.42,10.538c0.62,4.28-0.852,8.147-1.282,12.341c-0.481,4.689,1.417,14.01,8.169,10.721
	c5.13-2.498,6.423-11.454,6.331-17.458c4.422-1.455,8.91-4.292,12.065-5.698c7.641-3.404,15.46-2.518,23.284-0.767
	c-0.171,0.528-0.349,1.055-0.511,1.586c-1.27,4.125-2.709,9.26-2.399,13.928c-0.682,0.274-1.35,0.565-1.981,0.896
	c-3.867,2.028-7.263,5.088-11.388,6.573c-4.015,1.446-3.634,7.795,1.048,7.751c4.099-0.04,8.025-0.574,12.024-1.433
	c3.844-0.826,7.356-0.675,11.221-0.967c8.601-0.65,9.353-11.922,2.092-14.215c-0.155-0.899-0.226-1.845-0.127-2.896
	c0.531-5.563,2.114-11.159,3.731-16.484c0.928-3.057,1.805-6.136,2.716-9.205c1.348-0.197,2.585-0.924,3.246-2.275
	c1.585-3.245,2.399-6.82,4.418-9.851c2.321-3.483,5.663-5.946,8.833-8.599c7.135-5.971,13.956-12.348,21.973-17.149
	c6.714-4.021,14.167-7.802,21.985-8.996c2.418-0.37,4.838-0.401,7.252-0.159c9.074,5.652,19.334,5.106,29.423,8.199
	c4.822,1.478,8.421,4.012,11.303,8.163c3.46,4.983,4.006,10.729,6.347,16.207c2.013,4.708,1.516,9.211,1.557,14.062
	c-0.139,0.019-0.277,0.043-0.421,0.06c-4.193,0.471-8.481-1.174-12.669-1.4c-5.189-0.281-15.703,1.509-18.887-3.59
	c-0.501-0.802-1.74-0.658-2.009,0.262c-2.502,8.569,9.894,12.676,15.937,14.378c6.432,1.812,14.571,4.817,21.542,4.173
	c1.128,1.99,2.501,3.897,4.103,5.79c3.859,4.556,7.896,8.716,10.977,13.887c3.162,5.305,5.37,11.009,8.743,16.213
	c2.789,4.299,5.282,8.237,5.529,13.501C483.836,297.273,481.992,303.941,481.831,310.499z"/>
<path d="M27.991,138.633c-2.307,6.18-5.085,14.215-3.303,20.785c0.423,1.561,1.812,3.152,3.465,3.465
	c0.427,0.081,0.854,0.161,1.28,0.242c1.386,0.262,3.232-0.143,3.892-1.584c1.476-3.22,0.993-6.99,1.52-10.509
	c0.604-4.035,1.524-7.751,2.605-11.685c0.088-0.321,0.155-0.642,0.229-0.963c4.386,2.679,8.938,5.447,13.767,5.886
	c3.047,0.277,4.148-3.232,3.148-5.487c-2.555-5.759-9.883-8.788-15.8-11.187c0.041-0.514,0.086-1.029,0.142-1.547
	c0.531-4.898,2.415-9.211,2.331-14.194c-0.072-4.25-6.098-4.093-6.493,0c-0.432,4.474-2.787,8.392-3.712,12.759
	c-5.744-1.965-11.62-3.498-17.283-5.675c-2.81-1.08-4.451,3.276-2.001,4.746c5.837,3.507,11.618,6.884,17.618,10.053
	C29.039,135.374,28.599,137.001,27.991,138.633z"/>
<path d="M54.871,122.939c4.268,0.711,8.255-0.724,12.183-2.336c1.202,3.332,2.666,6.613,4.934,9.069
	c1.945,2.106,4.944,0.754,5.843-1.543c1.468-3.75,0.26-7.751-1.482-11.417c3.149-1.655,5.507-3.895,5.763-8.027
	c0.188-3.041-3.552-5.003-6.042-3.466c2.319-1.432-0.804,0.068-1.478,0.401c-0.82,0.405-1.726,1.219-2.487,1.727
	c-0.327,0.219-0.662,0.419-0.992,0.632c-2.842-3.526-6.253-6.567-8.44-10.504c-1.064-1.915-3.97-0.6-3.469,1.463
	c1.141,4.693,3.226,8.945,4.964,13.395c-3.336,2.438-6.215,5.483-9.669,7.778C53.506,120.77,53.457,122.704,54.871,122.939z"/>
<path d="M102.472,110.035c8.138-2.909,7.881-9.715,6.612-16.664c4.618,6.066,8.825,12.841,9.75,19.599
	c1.687,12.329-13.524,21.766-23.689,24.244c-1.4,0.341-1.55,2.754,0,2.986c14.729,2.201,31.888-6.595,33.631-22.77
	c1.661-15.415-12.178-28.611-22.467-38.043c-3.399-3.116-7.705,2.129-4.686,4.806c0.565,0.68,1.156,1.386,1.756,2.105
	c0.944,2.426,1.188,6.602,1.299,8.103c0.27,3.662,0.266,4.445-2.697,6.278c-0.926,0.573-2.689,1.565-3.746,1.32
	c-3.543-0.823-6.975-9.273-9.9-11.685c-3.263-2.693-7.834,1.624-4.732,4.732C89.338,100.792,91.25,114.045,102.472,110.035z"/>
<path d="M130.43,459.098c-2.114-1.189-4.663-2.05-6.589-3.525c-1.959-1.502-3.212-3.179-5.499-4.345
	c-2.447-1.247-5.111-1.868-7.651-2.869c-3.718-1.464-6.68-4.135-9.844-6.504c-5.061-3.791-10.546-6.516-15.744-10.009
	c-3.592-2.414-6.667-6.63-11.451-6.54c-3.726,0.07-6.357,2.463-8.099,5.667c-1.62,1.727-2.231,3.262-3.102,5.767
	c-1.354,3.89-3.884,4.686-6.383,7.553c-2.658,3.05-4.106,7.048-6.301,10.417c-2.642,4.056-6.053,7.691-9.11,11.439
	c-10.202,12.504-19.38,26.037-21.225,42.509c-0.199,1.781,1.692,3.364,3.341,3.341c4.895-0.069,8.511-2.258,12.83-4.329
	c3.97-1.904,8.476-3.14,12.913-4.097c0.042,0.495,0.082,0.983,0.116,1.447c0.064,0.848,1.208,1.275,1.675,0.454
	c0.536-0.941,1.139-1.789,1.74-2.612c0.338-0.065,0.678-0.132,1.013-0.194c13.121-2.456,25.997-6.082,39.199-8.1
	c5.823-0.89,11.517-2.248,17.283-3.414c5.072-1.027,10.256-1.299,15.367-2.047c0.946,0.894,2.496,0.543,3.032-0.519
	c0.495-0.096,0.99-0.185,1.483-0.297c5.118-1.155,9.712-2.364,14.95-2.764c4.03-0.308,7.384-0.928,10.574-3.483
	c0.982-0.786,1.27-2.823,0.496-3.846C149.073,469.765,139.508,464.207,130.43,459.098z M62.796,447.742
	c0.738-0.768,1.542-1.445,2.299-2.162c0.715-0.105,1.406-0.556,1.752-1.391c0.848-2.051,3.176-7.844,5.317-8.892
	c2.459-1.202,7.477,4.317,9.775,5.73c2.899,1.782,5.804,3.399,8.647,5.185c-1.254,1.303-2.53,2.594-3.744,3.909
	c-2.758,2.984-5.054,9.174-9.692,8.096c-3.948-0.917-7.157-5.796-10.701-7.86c-1.352-0.788-2.686-1.533-4.066-2.142
	C62.523,448.059,62.649,447.894,62.796,447.742z M37.137,499.84c-3.526,1.176-6.796,3.519-10.335,4.721
	c1.895-8.935,6.467-16.757,11.852-24.073c5.594,2.883,7.957,9.884,9.065,16.525C44.144,497.785,40.588,498.689,37.137,499.84z
	 M119.741,480.626c0.151,0.968,0.367,1.795,0.638,2.541c-10.815,1.371-21.365,3.697-32.144,5.356
	c-11.084,1.706-21.858,4.913-32.87,6.993c0.16-3.998-1.69-8.53-3.916-11.789c-2.749-4.024-6.027-6.264-10.023-6.894
	c2.862-3.656,5.855-7.206,8.734-10.728c2.052-2.509,4.189-4.96,5.942-7.694c0.954-1.487,1.773-3.071,2.617-4.635
	c7.422,6.461,15.14,17.76,25.662,12.247c4.631-2.427,7.422-8.048,10.806-11.875c0.802-0.908,1.632-1.94,2.328-3.03
	c2.617,1.998,5.272,3.965,8.297,5.249c4.196,1.781,8.173,2.755,11.95,5.278c1.463,0.977,2.934,1.716,4.438,2.388
	c-1.245,2.346-1.866,5.178-2.225,7.601C119.538,474.611,119.273,477.64,119.741,480.626z M137.378,479.627
	c-2.937,0.483-5.785,1.277-8.656,1.995c0.084-0.748,0.15-1.495,0.166-2.232c0.052-2.316-0.063-4.657,0.221-6.961
	c0.188-1.523,0.503-3.372,1.073-4.911c6.392,2.918,12.79,6.203,17.613,11.315C144.539,479.722,140.425,479.125,137.378,479.627z"/>
<path d="M76.379,447.986c2.151,0,4.211-1.891,4.111-4.111c-0.1-2.227-1.807-4.111-4.111-4.111c-2.151,0-4.211,1.891-4.111,4.111
	C72.368,446.103,74.075,447.986,76.379,447.986z"/>
<path d="M338.558,118.218c5.478,0.15,13.615-4.088,15.441-9.507c1.048-3.112-0.483-5.878-2.25-8.38
	c-1.892-2.681-7.665-7.635-7.301-11.233c0.368-3.657,8.145-6.402,12.451-7.75c1.487,0.981,3.946-0.073,3.902-2.094
	c-0.267-12.283-20.282-0.043-23.239,5.24c-3.847,6.874,3.121,13.515,6.547,18.795c0.491,0.743,0.94,1.51,1.371,2.29
	c-0.235,0.201-0.534,0.469-0.908,0.817c-1.134,0.665-2.105,1.532-3.35,2.029c-2.491,0.993-3.212,0.891-4.337-1.335
	c-0.533-1.054-2.119-1.197-2.902-0.375C329.635,111.278,331.498,118.025,338.558,118.218z"/>
<path d="M364.562,107.515c0.208,0.219,0.417,0.436,0.625,0.655c1.194,1.252,3.479,1.291,4.667,0
	c5.184-5.627,4.787-17.405,0.818-23.667c-0.404-0.638-1.323-0.651-1.725,0c-1.942,3.147-2.088,7.282-2.851,10.834
	c-0.739,3.438-2.394,6.691-1.975,10.16C363.914,106.209,364.007,106.933,364.562,107.515z"/>
<path d="M367.589,75.247c0.651,0.513,1.344,0.959,2.222,0.921c0.886-0.04,1.531-0.375,2.222-0.921
	c1.178-0.93,1.254-2.491,1.014-3.827c-0.248-1.381-1.869-2.525-3.236-2.464c-1.385,0.063-2.97,0.986-3.236,2.464
	C366.333,72.755,366.41,74.318,367.589,75.247z"/>
<path d="M379.313,104.681c1.593,4.658,7.717,3.225,7.917-1.095c0.029,0.004,0.059,0.008,0.087,0.012
	c0.706-5.882,1.75-16.111,9.88-16.212c3.776-0.047,2.851,2.582,2.542,5.62c-0.35,3.433-1.562,6.923-1.644,10.367
	c-3.415,3.454-1.984,10.991,4.319,10.991c5.719,0,7.433-6.223,5.138-9.952c1.68-5.276,2.158-11.955,1.556-16.822
	c-0.771-6.236-5.875-9.366-11.91-9.284c-5.501,0.075-10.606,3.466-14.088,8.182c-1.401,0.13-2.534,1.697-2,3.2
	C378.613,94.445,377.695,99.95,379.313,104.681z"/>
<path d="M442.937,100.018c2.217-0.996,4.328-2.481,6.333-4.18c0.123,0.129,0.243,0.26,0.368,0.385
	c8.165,8.283,19.274,10.184,30.208,6.727c2.518-0.797,2.608-4.442,0-5.201c-4.965-1.445-10.166-1.017-15.125-2.359
	c-3.726-1.009-6.69-2.913-9.349-5.471c0.859-0.904,1.693-1.791,2.5-2.631c2.47-2.573,4.227-5.851,6.29-8.734
	c1.658-2.319,2.89-4.025,2.542-6.971c-0.101-0.857-1.401-1.518-1.862-0.504c-1.119,2.461-3.322,3.528-5.177,5.302
	c-2.111,2.019-3.7,4.461-5.887,6.415c-0.884,0.789-1.757,1.6-2.625,2.418c-3.808-4.601-7.541-9.395-13.217-11.772
	c-10.009-4.193-24.797-0.655-22.728,12.47C417.229,98.74,431.386,105.204,442.937,100.018z M426.154,77.794
	c9.701-0.678,14.061,6.343,19.003,13.018c-0.478,0.43-0.951,0.866-1.437,1.282c-4.93,4.227-13.762,5.194-19.231,1.403
	c-2.677-1.855-4.075-4.721-4.676-7.893C418.925,80.915,421.617,78.111,426.154,77.794z"/>
<path d="M251.682,61.998c8.484,1.583,17.351,2.62,25.702,4.654c3.471,0.846,6.47,2.138,10.11,2.227
	c3.362,0.082,6.58-0.605,9.805-1.377c0.035,0.123,0.058,0.247,0.095,0.37c1.671,5.667,10.455,4.68,10.416-1.409
	c-0.038-5.967-2.385-11.263-3.188-17.039c-0.673-4.84-7.376-2.983-7.848,1.063c-0.281,2.418-0.745,4.657-0.812,7.034
	c-3.14,0.731-6.421,1.683-9.595,1.479c-3.246-0.208-6.385-1.55-9.638-1.931c-5.336-0.625-10.701-1.345-16.029-2.218
	c3.948-1.823,9.999-3.299,11.68-3.844c4.589-1.488,9.398-2.253,13.895-4.032c4.066-1.607,7.211-4.305,10.949-6.47
	c1.63-0.944,2.692-3.207,2.06-5.061c-2.174-6.389-7.613-7.725-13.651-8.92c-4.171-0.826-7.665-2.645-11.38-4.659
	c-2.667-1.446-9.728-3.629-11.258-6.3c-0.789-1.378,0.185-0.987,2.252-1.34c2.743-0.469,5.59-0.343,8.356-0.235
	c5.365,0.207,10.666,0.784,16.025,0.124c5.623-0.692,11.77-1.234,17.369-2.982c0.479,2.574,1.34,5.235,2.915,7.201
	c1.444,1.804,4.17,0.917,5.255-0.678c1.68-2.466,1.446-6.568,0.604-9.324c-0.143-0.465-0.285-0.983-0.436-1.515
	c0.191-0.448,0.169-0.978-0.257-1.322c-0.06-0.049-0.123-0.086-0.184-0.132c-0.462-1.391-1.084-2.743-2.077-3.64
	c-0.733-2.323-4.358-2.314-4.962,0.129c-0.003,0.012-0.006,0.023-0.009,0.036c-0.648,0.697-1.017,1.55-1.204,2.474
	c-0.995,0.147-1.993,0.294-2.979,0.355c-6.045,0.373-12.045,1.802-18.085,1.921c-8.443,0.169-23.816-4.318-30.341,3.443
	c-6.278,7.467,4.677,13.753,10.117,16.655c4.501,2.403,8.825,5.318,13.639,7.075c1.649,0.602,5.512,0.889,8.357,1.758
	c-3.53,1.77-7.064,3.292-11.123,4.301c-4.525,1.124-8.892,2.422-13.193,4.213c-5.924,2.468-14.579,6.148-14.524,13.749
	C248.52,59.594,249.831,61.653,251.682,61.998z"/>
<path d="M153.501,69.481c3.152-1.895,4.445-4.758,5.411-8.197c0.863-3.069,2.199-8.802,5.43-7.11
	c-0.239,1.349-0.33,2.716-0.133,4.084c0.382,2.64,1.712,4.748,1.624,7.522c-0.097,3.035-0.641,5.526,0.042,8.545
	c0.905,4.001,1.38,7.796,1.777,11.895c0.616,6.35,0.211,13.066,1.869,19.249c0.959,3.575,1.729,6.543,2.184,10.219
	c0.279,2.253,0.751,4.485,2.079,6.373c5.939,8.435,20.199,0.683,27.905-0.055c12.941-1.238,25.837-2.119,38.721-3.815
	c-2.088,2.787-3.686,5.824-3.413,9.012c0.176,2.052,2.5,3.184,4.093,1.695c2.836-2.648,6.612-3.767,9.289-6.931
	c2.264-2.677,5.462-6.132,5.621-9.835c0.38-8.933-11.593-10.645-17.566-13.417c-1.85-0.859-3.95,1.386-2.299,2.98
	c2.055,1.987,4.359,3.667,6.357,5.721c0.612,0.63,1.423,1.854,2.232,2.727c-12.036-0.666-24.198,3.289-36.271,3.356
	c-6.056,0.035-12.031,0.371-17.951,1.744c-2.057,0.477-4.076,1.23-6.157,1.607c-2.657,0.482-3.47,0.038-3.96-1.773
	c3.402,0.403,6.994-0.101,9.835-1.279c4.601-1.908,8.704-6.419,12.646-9.361c4.538-3.387,8.421-7.125,11.611-11.825
	c4.955-7.298,6.499-15.254,6.212-23.919c-0.119-3.59-1.212-15.31-7.792-11.29c-1.519,0.928-1.84,2.695-1.111,4.237
	c3.682,7.797,0.811,20.531-3.562,27.317c-4.222,6.55-10.356,10.425-16.038,15.515c-3.018,2.704-7.989,5.326-12.793,5.741
	c-1.029-3.983-2.74-7.742-3.222-11.868c-0.693-5.933-1.248-11.834-2.209-17.75c-0.458-2.816-1.406-5.191-2.212-7.889
	c-0.896-2.996-0.205-5.828-0.687-8.837c-0.289-1.8-1.074-3.02-1.734-4.556c3.758,4.209,8.178,8.242,13.965,5.141
	c2.17-1.164,1.638-4.592-0.68-5.204c-7.269-1.918-11.09-11.772-19.034-11.588c-0.215,0.005-0.416,0.023-0.619,0.038
	c0.253-0.886,0.472-1.788,0.633-2.713c0.156-0.894-0.864-1.632-1.587-0.923c-5.437,5.338-11.402,14.327-13.174,21.835
	C148.217,68.523,151.053,70.952,153.501,69.481z"/>
<path d="M327.198,408.308c0.399-4.034,0.288-7.873,0.184-11.93c-0.072-2.764-4.211-2.766-4.295,0
	c-0.115,3.771-0.414,7.139-1.334,10.804c-0.543,2.17-0.887,4.354-0.143,6.529c1.363,3.987,6.074,5.811,9.558,3.248
	c0.768-0.565,1.202-1.809,0.329-2.55C328.973,412.269,326.824,412.094,327.198,408.308z"/>
<path d="M340.501,402.087c-0.694-2.966-4.843-2.082-5.053,0.684c-0.482,6.38-5.268,15.377-0.721,21.224
	c0.607,0.781,2.16,1.192,3.073,0.812l0.904-0.376c1.565-0.651,2.533-2.565,1.376-4.003c-0.091-2.523-0.113-4.989-0.066-7.555
	C340.079,409.239,341.345,405.694,340.501,402.087z"/>
<path d="M99.393,236.714c1.733-0.028,2.786-1.057,3.969-2.211c1.96-1.912,4.171-3.301,6.277-5.033c4.116-3.385,6.769-9.765,3-14.317
	c-0.898-1.083-2.486,0.102-2.212,1.288c1.231,5.346-0.208,8.768-4.583,12.019c-1.002,0.745-2.066,1.419-2.987,2.267
	c-0.818,0.753-1.522,2.007-2.481,2.557c-3.039,1.741-5.233-3.094-5.195-5.653c0.06-4.063,3.588-7.608,6.091-10.464
	c1.289-1.47-0.871-3.638-2.154-2.154c-3.255,3.762-7.452,8.36-6.805,13.741C92.741,232.318,95.318,236.781,99.393,236.714z"/>
<path d="M173.508,183.838c-1.102-0.237-2.46,0.757-1.997,1.996c0.749,2.005,1.791,3.112,0.702,5.242
	c-0.913,1.785-2.451,3.216-3.856,4.611c-1.227,1.22-2.813,3.272-4.553,3.705c-2.744,0.684-4.672-3.13-5.061-5.318
	c-0.238-1.337-2.226-0.756-2.023,0.557c0.391,2.538,2.424,6.242,4.898,7.339c3.204,1.422,6.201-0.768,8.624-2.644
	c2.617-2.027,5.721-4.474,6.878-7.717C178.243,188.473,177.043,184.597,173.508,183.838z"/>
<path d="M404.291,196.017c-0.353-0.001-0.707-0.003-1.06-0.004c-0.826-0.004-1.311,1.312-0.454,1.675
	c2.986,1.265-1.781,7.46-3.011,8.592c-2.202,2.027-4.768,3.853-7.173,5.617c-5.097,3.741-10.664,6.717-17.18,6.526
	c-4.182-0.121-4.996-3.647-2.661-6.614c1.371-1.742,2.938-3.368,4.585-4.854c4.539-4.097,11.944-9.773,18.222-10.074
	c1.597-0.077,1.617-2.481,0-2.497c-8.812-0.088-17.736,7.27-23.511,13.469c-3.29,3.53-8.027,10.192-1.363,12.99
	c7.796,3.273,17.355-1.903,23.488-6.24c6.19-4.375,15.107-9.367,11.079-18.035C405.09,196.22,404.654,196.018,404.291,196.017z"/>
<path d="M280.488,273.636c-3.748,3.018-8.069,5.152-11.387,8.692c-2.931,3.125-5.02,6.937-7.709,10.256
	c-2.799,3.456-8.31,8.548-5.753,13.516c3.042,5.91,9.848,3.785,14.323,1.445c7.108-3.718,10.803-9.175,10.614-17.293
	c-0.038-1.626-2.152-1.765-2.698-0.366c-2.108,5.405-4.341,10.102-9.324,13.331c-3.259,2.112-10.811,3.339-8.792-2.493
	c0.651-1.881,2.588-3.438,3.81-4.984c2.447-3.096,4.551-6.455,7.049-9.503c3.459-4.219,8.232-6.664,12.408-10.059
	C284.831,274.716,282.273,272.199,280.488,273.636z"/>
<path d="M329.151,178.391c2.249-0.182,6.865-0.63,8.562-2.245c0.499-0.474,0.566-1.481,0-1.942
	c-2.348-1.913-11.665,2.85-12.284-0.505c-0.416-2.261,4.574-5.664,6.086-7.078c2.995-2.799,6.779-4.533,9.733-7.397
	c0.881-0.854-0.449-2.171-1.343-1.343c-2.312,2.143-5.065,3.53-7.614,5.34c-1.717,1.22-3.227,2.694-4.884,3.993
	c-2.362,1.854-5.999,4.505-4.921,7.999C323.376,178.094,326.535,178.602,329.151,178.391z"/>
<g>
</g>
<g>
</g>
<g>
</g>
<g>
</g>
<g>
</g>
<g>
</g>
<g>
</g>
<g>
</g>
<g>
</g>
<g>
</g>
<g>
</g>
<g>
</g>
<g>
</g>
<g>
</g>
<g>
</g>
</svg>
