<svg id="Capa_1" enable-background="new 0 0 512 512" height="512" viewBox="0 0 512 512" width="512" xmlns="http://www.w3.org/2000/svg"><path d="m7.5 504.499s49.498-204.052 153.544-204.052c70.711 0 112.128 121.219 190.92 121.219 87.884 0 152.534-165.666 152.534-165.666v248.499z" fill="#6df3bf"/><path d="m494.396 278.976v199.329c0 5.579-4.523 10.102-10.102 10.102h-472.363c-2.962 10.02-4.431 16.074-4.431 16.074h496.998v-248.499s-3.545 9.083-10.102 22.994z" fill="#05e29a"/><path d="m220.635 7.501c-38.235 0-71.535 27.191-79.181 64.654l-4.122 20.2h-39.928v40.406h31.682l-11.545 56.568c-1.911 9.366-10.236 16.163-19.795 16.163h-35.697v40.406h35.698c28.676 0 53.651-20.393 59.385-48.49l13.194-64.648h48.298v-40.406h-40.052l2.474-12.12c3.823-18.731 20.472-32.327 39.59-32.327h19.201v-40.406z" fill="#fc8086"/><g fill="#fa4954"><path d="m140.969 197.408c-5.734 28.097-30.709 48.49-59.385 48.49h16.163c28.676 0 53.651-20.393 59.385-48.49l13.194-64.648h-7.915c-4.8 0-8.937 3.378-9.897 8.081z"/><path d="m202.461 92.354h16.163v40.406h-16.163z"/><path d="m223.674 7.501h16.163v40.406h-16.163z"/></g><path d="m364.797 213.175 18.482-27.354 18.482 27.354h48.766l-42.865-63.441 42.865-63.441h-48.766l-18.482 27.354-18.482-27.354h-48.767l42.866 63.441-42.866 63.441z" fill="#97e4f9"/><path d="m450.527 86.293h-19.339l-39.044 57.785c-2.309 3.417-2.309 7.894 0 11.311l39.044 57.785h19.339l-42.865-63.441z" fill="#0acefa"/><path d="m504.498 496.999h-487.213c11.086-39.182 59.051-189.052 143.759-189.052 19.062 0 37.346 9.587 61.136 32.056 3.011 2.844 7.758 2.707 10.602-.303 2.844-3.012 2.708-7.758-.303-10.603-18.928-17.876-42.217-36.151-71.436-36.151-25.783 0-50.401 11.459-73.17 34.06-17.634 17.504-34.233 41.77-49.335 72.125-9.743 19.588-17.562 39.039-23.538 55.717v-447.347c0-4.142-3.358-7.5-7.5-7.5s-7.5 3.358-7.5 7.5v496.998c0 4.142 3.358 7.5 7.5 7.5h496.998c4.143 0 7.5-3.358 7.5-7.5s-3.358-7.5-7.5-7.5z"/><path d="m62.049 253.398h35.698c32.225 0 60.291-22.916 66.734-54.491l11.969-58.647h42.174c4.142 0 7.5-3.358 7.5-7.5v-40.406c0-4.142-3.358-7.5-7.5-7.5h-30.867l.637-3.121c3.113-15.254 16.672-26.326 32.241-26.326h19.202c4.142 0 7.5-3.358 7.5-7.5v-40.406c0-4.142-3.358-7.5-7.5-7.5h-19.202c-22.942 0-44.733 8.845-61.36 24.904-2.979 2.877-3.062 7.625-.184 10.605 2.876 2.979 7.625 3.061 10.605.184 13.816-13.344 31.906-20.693 50.939-20.693h11.702v25.407h-11.702c-22.666 0-42.407 16.119-46.938 38.326l-2.474 12.12c-.45 2.207.115 4.499 1.539 6.244 1.425 1.744 3.558 2.756 5.81 2.756h32.552v25.407h-40.798c-3.564 0-6.636 2.508-7.349 6l-13.193 64.648c-5.024 24.62-26.909 42.49-52.037 42.49h-28.198v-25.407h28.198c13.107 0 24.523-9.321 27.143-22.163l11.545-56.568c.45-2.207-.115-4.499-1.539-6.244-1.425-1.744-3.558-2.756-5.81-2.756h-24.182v-25.407h32.428c3.564 0 6.636-2.508 7.349-6l4.123-20.199c.751-3.68 1.794-7.325 3.1-10.832 1.445-3.882-.53-8.2-4.412-9.645-3.882-1.446-8.2.531-9.645 4.412-1.576 4.232-2.833 8.628-3.74 13.066l-2.898 14.199h-33.805c-4.142 0-7.5 3.358-7.5 7.5v40.407c0 4.142 3.358 7.5 7.5 7.5h22.497l-9.708 47.569c-1.202 5.889-6.436 10.163-12.446 10.163h-35.698c-4.142 0-7.5 3.358-7.5 7.5v40.407c0 4.14 3.357 7.497 7.5 7.497z"/><path d="m309.406 216.694c1.302 2.45 3.85 3.981 6.624 3.981h48.766c2.491 0 4.819-1.237 6.215-3.301l12.268-18.156 12.268 18.156c1.396 2.064 3.724 3.301 6.215 3.301h48.766c.007.001.015 0 .02 0 4.143 0 7.5-3.358 7.5-7.5 0-1.737-.59-3.335-1.581-4.607l-39.752-58.834 40.028-59.242c1.553-2.299 1.71-5.267.408-7.717-1.301-2.45-3.849-3.981-6.623-3.981h-48.766c-2.491 0-4.819 1.237-6.215 3.301l-12.268 18.156-12.268-18.156c-1.396-2.064-3.724-3.301-6.215-3.301h-48.766c-2.774 0-5.322 1.532-6.624 3.981-1.301 2.45-1.144 5.419.409 7.717l40.029 59.242-40.029 59.241c-1.553 2.3-1.71 5.268-.409 7.719zm55.705-62.76c1.714-2.537 1.714-5.861 0-8.398l-34.962-51.742h30.663l16.252 24.053c1.396 2.064 3.724 3.301 6.215 3.301s4.819-1.237 6.215-3.301l16.252-24.053h30.663l-34.961 51.742c-1.714 2.537-1.714 5.861 0 8.397l34.961 51.742h-30.663l-16.252-24.053c-1.396-2.064-3.724-3.301-6.215-3.301s-4.819 1.237-6.215 3.301l-16.252 24.053h-30.663z"/><path d="m292.389 245.118c1.666 0 3.344-.553 4.736-1.688 3.209-2.619 3.688-7.343 1.07-10.553-18.467-22.636-28.637-51.804-28.637-82.132 0-31.263 10.734-61.107 30.226-84.036 2.684-3.156 2.3-7.889-.856-10.572s-7.89-2.298-10.571.856c-21.796 25.639-33.799 58.933-33.799 93.752 0 33.773 11.369 66.309 32.014 91.615 1.483 1.816 3.642 2.758 5.817 2.758z"/><path d="m496.998 150.744c0 30.328-10.17 59.497-28.637 82.132-2.618 3.21-2.139 7.934 1.07 10.553 1.393 1.136 3.069 1.688 4.736 1.688 2.176 0 4.334-.942 5.816-2.759 20.644-25.306 32.014-57.842 32.014-91.615 0-34.819-12.003-68.114-33.798-93.752-2.683-3.156-7.416-3.539-10.571-.856-3.156 2.683-3.54 7.416-.856 10.572 19.492 22.929 30.226 52.774 30.226 84.037z"/><path d="m246.793 364.925c28.836 30.112 61.519 64.241 105.171 64.241 39.136 0 77.994-29.009 115.496-86.221 27.264-41.594 43.353-82.497 44.025-84.218 1.505-3.858-.401-8.206-4.26-9.712-3.859-1.505-8.206.401-9.714 4.258-.629 1.609-63.802 160.894-145.547 160.894-37.248 0-66.27-30.307-94.337-59.616-2.865-2.991-7.612-3.094-10.604-.229-2.992 2.864-3.095 7.611-.23 10.603z"/></svg>