<svg height="511pt" viewBox="0 0 511 511.98022" width="511pt" xmlns="http://www.w3.org/2000/svg"><path d="m278.507812 414.226562-28.8125-93.542968 65.988282-20.328125 28.742187 93.316406c.746094 2.414063-1.503906 4.679687-3.921875 3.957031l-30.667968-9.183594c-1.1875-.355468-2.472657.015626-3.289063.953126l-22.636719 25.972656c-1.628906 1.867187-4.671875 1.222656-5.402344-1.144532zm0 0" fill="#fc4e51"/><path d="m290.644531 308.070312-14.769531 4.550782 26.078125 82.046875 4.59375-5.269531c.8125-.9375 2.097656-1.308594 3.285156-.953126l7.074219 2.117188zm0 0" fill="#ea3942"/><path d="m414.734375 278-93.542969-28.8125-20.324218 65.984375 93.3125 28.746094c2.414062.742187 4.679687-1.503907 3.957031-3.921875l-9.179688-30.671875c-.355469-1.1875.015625-2.472657.949219-3.285157l25.976562-22.636718c1.863282-1.628906 1.21875-4.671875-1.148437-5.402344zm0 0" fill="#fc4e51"/><path d="m395.355469 301.289062-82.164063-26.117187-4.554687 14.777344 82.355469 26.171875-2.035157-6.796875c-.355469-1.1875.015625-2.472657.949219-3.289063zm0 0" fill="#ea3942"/><path d="m508.261719 116.101562-111.890625-111.894531-183.992188 207.632813-207.664062 184.023437c-12.210938 12.210938 2.941406 47.15625 33.835937 78.054688 30.898438 30.898437 65.847657 46.046875 78.058594 33.835937l184.023437-207.664062zm0 0" fill="#f3e8d7"/><path d="m467.226562 75.0625-207.628906 183.992188-203.558594 230.390624c25.625 20.058594 50.628907 28.25 60.570313 18.308594l184.023437-207.664062 207.628907-183.992188zm0 0" fill="#ddd1c3"/><path d="m474.421875 38.046875c-30.894531-30.898437-65.84375-46.046875-78.054687-33.835937-12.210938 12.210937 2.9375 47.15625 33.835937 78.054687s65.84375 46.046875 78.054687 33.835937c12.210938-12.210937-2.9375-47.15625-33.835937-78.054687zm0 0" fill="#ddd1c3"/><path d="m396.800781 35.453125c6.035157 14.296875 17.671875 31.074219 33.40625 46.808594 15.734375 15.738281 32.511719 27.375 46.8125 33.40625 3.683594-11.132813-7.265625-33.261719-27.113281-53.105469-19.84375-19.84375-41.96875-30.796875-53.105469-27.109375zm0 0" fill="#efefef"/><path d="m210.683594 187.503906c6.757812-.367187 13.046875-3.574218 17.320312-8.824218 7.730469-9.503907 21.375-11.664063 31.664063-5.015626 5.6875 3.675782 12.65625 4.777344 19.199219 3.042969 11.839843-3.144531 24.152343 3.125 28.566406 14.554688 2.4375 6.3125 7.429687 11.304687 13.742187 13.742187 11.429688 4.417969 17.699219 16.726563 14.558594 28.566406-1.738281 6.542969-.632813 13.515626 3.039063 19.199219 6.648437 10.289063 4.488281 23.933594-5.015626 31.664063-5.25 4.273437-8.457031 10.5625-8.824218 17.320312-.667969 12.234375-10.4375 22-22.667969 22.671875-6.761719.367188-13.050781 3.574219-17.320313 8.824219-7.734374 9.503906-21.378906 11.664062-31.667968 5.015625-5.683594-3.675781-12.65625-4.777344-19.199219-3.042969-11.839844 3.144532-24.148437-3.125-28.5625-14.554687-2.441406-6.3125-7.433594-11.304688-13.746094-13.746094-11.425781-4.414063-17.699219-16.722656-14.554687-28.5625 1.738281-6.542969.632812-13.515625-3.042969-19.199219-6.648437-10.289062-4.484375-23.933594 5.015625-31.664062 5.253906-4.273438 8.457031-10.5625 8.828125-17.320313.667969-12.234375 10.433594-22.003906 22.667969-22.671875zm0 0" fill="#fcb038"/><path d="m338.773438 252.769531c-3.671876-5.683593-4.777344-12.65625-3.039063-19.199219 3.140625-11.839843-3.128906-24.148437-14.558594-28.566406-6.3125-2.4375-11.304687-7.429687-13.742187-13.742187-4.417969-11.429688-16.726563-17.699219-28.566406-14.554688-6.542969 1.734375-13.511719.632813-19.199219-3.042969-10.289063-6.648437-23.933594-4.488281-31.664063 5.015626-4.273437 5.25-10.5625 8.457031-17.320312 8.824218-12.234375.667969-22 10.4375-22.667969 22.671875-.050781.863281-.144531 1.71875-.28125 2.566407 30.546875-8.464844 64.648437-.714844 88.664063 23.300781 24.011718 24.015625 31.765624 58.113281 23.296874 88.664062.847657-.140625 1.703126-.234375 2.570313-.28125 12.230469-.667969 22-10.4375 22.667969-22.671875.367187-6.757812 3.574218-13.046875 8.824218-17.320312 9.503907-7.730469 11.664063-21.375 5.015626-31.664063zm0 0" fill="#fd8f31"/><path d="m292.636719 219.796875c-19.972657-19.972656-52.359375-19.972656-72.332031 0-19.976563 19.976563-19.976563 52.359375 0 72.335937 19.972656 19.972657 52.359374 19.972657 72.332031 0 19.976562-19.976562 19.976562-52.359374 0-72.335937zm0 0" fill="#ffe285"/></svg>