<svg id="Capa_1" enable-background="new 0 0 510 510" height="512" viewBox="0 0 510 510" width="512" xmlns="http://www.w3.org/2000/svg" xmlns:xlink="http://www.w3.org/1999/xlink"><linearGradient id="lg1"><stop offset="0" stop-color="#26a6fe"/><stop offset="1" stop-color="#2740b0"/></linearGradient><linearGradient id="SVGID_1_" gradientUnits="userSpaceOnUse" x1="136" x2="564.803" xlink:href="#lg1" y1="66.555" y2="495.358"/><linearGradient id="SVGID_00000168078000482669486390000015239163691192808371_" gradientUnits="userSpaceOnUse" x1="89.683" x2="61.144" y1="97.539" y2="69.001"><stop offset="0" stop-color="#2740b0" stop-opacity="0"/><stop offset=".2568" stop-color="#253daa" stop-opacity=".257"/><stop offset=".6039" stop-color="#213699" stop-opacity=".604"/><stop offset="1" stop-color="#192a7d"/></linearGradient><linearGradient id="lg2"><stop offset="0" stop-color="#2740b0" stop-opacity="0"/><stop offset="1" stop-color="#192a7d"/></linearGradient><linearGradient id="SVGID_00000014623006692256523100000013781489970458335673_" gradientUnits="userSpaceOnUse" x1="255" x2="255" xlink:href="#lg2" y1="319.555" y2="365.189"/><linearGradient id="SVGID_00000137837123523564413660000009643372989399062946_" gradientUnits="userSpaceOnUse" x1="257.187" x2="216.687" xlink:href="#lg2" y1="433.842" y2="334.842"/><linearGradient id="lg3"><stop offset="0" stop-color="#fff"/><stop offset="1" stop-color="#d8ecfe"/></linearGradient><linearGradient id="SVGID_00000129200373809097940860000001379010697336419464_" gradientUnits="userSpaceOnUse" x1="197.103" x2="337.103" xlink:href="#lg3" y1="79.273" y2="336.273"/><linearGradient id="lg4"><stop offset="0" stop-color="#a8d3d8" stop-opacity="0"/><stop offset="1" stop-color="#6cabca"/></linearGradient><linearGradient id="SVGID_00000163037328509943490370000004239933632004602787_" gradientUnits="userSpaceOnUse" x1="82.621" x2="54.713" xlink:href="#lg4" y1="91.934" y2="64.025"/><linearGradient id="SVGID_00000150781560494443215260000014098878168083395751_" gradientUnits="userSpaceOnUse" x1="260.202" x2="104.202" xlink:href="#lg4" y1="378.112" y2="230.112"/><linearGradient id="lg5"><stop offset="0" stop-color="#5a5a5a"/><stop offset="1" stop-color="#444"/></linearGradient><linearGradient id="SVGID_00000024681633213867611550000006992713284968890257_" gradientUnits="userSpaceOnUse" x1="65.601" x2="81.601" xlink:href="#lg5" y1="160.985" y2="251.985"/><linearGradient id="SVGID_00000181049062825642493380000000261795884827188407_" gradientUnits="userSpaceOnUse" x1="107.839" x2="123.839" xlink:href="#lg5" y1="153.558" y2="244.558"/><linearGradient id="SVGID_00000126301706588067001810000014258442454570352560_" gradientUnits="userSpaceOnUse" x1="148.976" x2="164.976" xlink:href="#lg5" y1="146.325" y2="237.325"/><linearGradient id="SVGID_00000085944677893882617180000000971478196059694758_" gradientUnits="userSpaceOnUse" x1="194.986" x2="210.986" xlink:href="#lg5" y1="138.236" y2="229.236"/><linearGradient id="SVGID_00000008858180330114223690000005161192565475457153_" gradientUnits="userSpaceOnUse" x1="221.592" x2="237.592" xlink:href="#lg5" y1="133.558" y2="224.558"/><linearGradient id="SVGID_00000077321748338874406240000010585146024085367691_" gradientUnits="userSpaceOnUse" x1="253.106" x2="269.106" xlink:href="#lg5" y1="128.017" y2="219.017"/><linearGradient id="SVGID_00000059302422562383019760000014987633098821940130_" gradientUnits="userSpaceOnUse" x1="280.638" x2="296.638" xlink:href="#lg5" y1="123.176" y2="214.176"/><linearGradient id="SVGID_00000136400060202319678050000004263602098244393660_" gradientUnits="userSpaceOnUse" x1="312.85" x2="328.85" xlink:href="#lg5" y1="117.512" y2="208.512"/><linearGradient id="SVGID_00000181086979585616997680000015315617329080358279_" gradientUnits="userSpaceOnUse" x1="351.526" x2="367.526" xlink:href="#lg5" y1="110.712" y2="201.712"/><linearGradient id="SVGID_00000150780696552229901270000001096707293861011636_" gradientUnits="userSpaceOnUse" x1="397.591" x2="413.591" xlink:href="#lg5" y1="102.613" y2="193.613"/><linearGradient id="SVGID_00000111908244521243126730000011571933403568906660_" gradientUnits="userSpaceOnUse" x1="436.039" x2="452.039" xlink:href="#lg5" y1="95.853" y2="186.853"/><linearGradient id="lg6"><stop offset="0" stop-color="#fee45a"/><stop offset="1" stop-color="#fea613"/></linearGradient><linearGradient id="SVGID_00000069398263415393566160000014294749109837539207_" gradientUnits="userSpaceOnUse" x1="219.06" x2="288.438" xlink:href="#lg6" y1="93.366" y2="93.366"/><linearGradient id="SVGID_00000046297785538872694700000003835032874805528254_" gradientUnits="userSpaceOnUse" x1="63.677" x2="143.771" xlink:href="#lg3" y1="359.195" y2="439.29"/><linearGradient id="SVGID_00000034807790993794913790000003309269520486638519_" gradientUnits="userSpaceOnUse" x1="121.934" x2="117.895" xlink:href="#lg4" y1="473.232" y2="373.335"/><linearGradient id="lg7"><stop offset="0" stop-color="#fd4755"/><stop offset="1" stop-color="#a72b2b"/></linearGradient><linearGradient id="SVGID_00000024685631959594989260000001598063831598607250_" gradientUnits="userSpaceOnUse" x1="38.825" x2="124.031" xlink:href="#lg7" y1="395.848" y2="437.349"/><linearGradient id="SVGID_00000061446948646972469930000008488059282073502398_" gradientUnits="userSpaceOnUse" x1="131.019" x2="223.57" xlink:href="#lg1" y1="379.116" y2="450.366"/><linearGradient id="SVGID_00000056402129992066494490000008105636379320502459_" gradientUnits="userSpaceOnUse" x1="158.976" x2="158.976" xlink:href="#lg2" y1="451.828" y2="405.376"/><linearGradient id="SVGID_00000106125456104045726360000002225958630020250803_" gradientUnits="userSpaceOnUse" x1="49.732" x2="67.728" y1="459.335" y2="339.239"><stop offset="0" stop-color="#a72b2b" stop-opacity="0"/><stop offset="1" stop-color="#42210b"/></linearGradient><linearGradient id="SVGID_00000027586406992900438710000000179200050253440957_" gradientUnits="userSpaceOnUse" x1="43.183" x2="211.528" xlink:href="#lg6" y1="252.861" y2="421.206"/><linearGradient id="SVGID_00000073697193698428312890000016873963822591539356_" gradientUnits="userSpaceOnUse" x1="183.635" x2="5.733" xlink:href="#lg6" y1="393.313" y2="215.411"/><linearGradient id="SVGID_00000180344095934740169550000006827236962175959192_" gradientUnits="userSpaceOnUse" x1="62.451" x2="154.583" xlink:href="#lg6" y1="272.128" y2="364.26"/><linearGradient id="SVGID_00000060008100594591162820000016826395269550844569_" gradientUnits="userSpaceOnUse" x1="109.504" x2="109.504" y1="345.574" y2="447.926"><stop offset="0" stop-color="#fea613" stop-opacity="0"/><stop offset="1" stop-color="#e94444"/></linearGradient><linearGradient id="SVGID_00000171690173817033459720000014994459060528048519_" gradientUnits="userSpaceOnUse" x1="423.508" x2="498.05" xlink:href="#lg7" y1="18.047" y2="92.589"/><linearGradient id="SVGID_00000167379005362800371370000015618756455572424107_" gradientUnits="userSpaceOnUse" x1="28.349" x2="81.042" xlink:href="#lg7" y1="36.206" y2="88.898"/><g><g><path d="m470.651 363.253h-431.302c-21.732 0-39.349-17.617-39.349-39.349v-276.698c0-21.732 17.617-39.349 39.349-39.349h431.302c21.732 0 39.349 17.617 39.349 39.349v276.698c0 21.732-17.617 39.349-39.349 39.349z" fill="url(#SVGID_1_)"/><path d="m0 118.054v131.09l241.287-241.287h-131.09z" fill="url(#SVGID_00000168078000482669486390000015239163691192808371_)"/><path d="m0 197.727v126.178c0 21.732 17.617 39.349 39.349 39.349h431.302c21.732 0 39.349-17.617 39.349-39.349v-126.178z" fill="url(#SVGID_00000014623006692256523100000013781489970458335673_)"/><path d="m150.631 363.253h155.356l-106.896-106.896-13.482-1.769-34.978-34.979z" fill="url(#SVGID_00000137837123523564413660000009643372989399062946_)"/><path d="m451.479 33.171h-392.958c-19.143 0-34.662 15.546-34.662 34.723v235.321c0 19.177 15.518 34.723 34.661 34.723h392.959c19.143 0 34.661-15.546 34.661-34.723v-235.321c.001-19.177-15.518-34.723-34.661-34.723z" fill="url(#SVGID_00000129200373809097940860000001379010697336419464_)"/><path d="m23.859 94.195v131.09l192.113-192.114h-131.089z" fill="url(#SVGID_00000163037328509943490370000004239933632004602787_)"/><path d="m150.631 337.939h130.042l-81.582-81.582-13.482-1.769-34.978-34.979z" fill="url(#SVGID_00000150781560494443215260000014098878168083395751_)"/></g><g><g><path d="m64.378 136.575c6.642 0 6.876 5.001 6.954 7.032.156 2.813 2.813 3.673 6.095 3.673 4.142 0 6.095-1.094 6.095-5.782 0-9.924-8.438-15.55-19.613-15.55-10.236 0-18.753 5.001-18.753 18.44v20.707c0 13.44 8.517 18.441 18.753 18.441 11.175 0 19.613-5.938 19.613-16.331 0-4.688-1.953-5.782-6.173-5.782-3.125 0-5.782.781-6.017 3.672-.234 3.048-.625 7.814-6.876 7.814-4.532 0-7.111-2.501-7.111-7.814v-20.707c0-5.313 2.579-7.813 7.033-7.813z" fill="url(#SVGID_00000024681633213867611550000006992713284968890257_)"/><path d="m122.826 136.575c2.345 0 3.673-2.501 3.673-5.392 0-2.501-1.094-5.235-3.673-5.235h-27.817c-2.657 0-5.313 1.25-5.313 3.75v49.619c0 2.501 2.656 3.751 5.313 3.751h27.817c2.579 0 3.673-2.735 3.673-5.235 0-2.892-1.328-5.392-3.673-5.392h-20.941v-13.284h11.722c2.578 0 3.672-2.5 3.672-4.61 0-2.5-1.328-4.767-3.672-4.767h-11.722v-13.205z" fill="url(#SVGID_00000181049062825642493380000000261795884827188407_)"/><path d="m161.505 158.532c5.47-2.109 9.455-7.11 9.455-15.862 0-12.737-8.518-16.722-19.223-16.722h-16.175c-2.267 0-3.751 1.719-3.751 3.672v49.697c0 2.501 3.047 3.751 6.095 3.751s6.095-1.25 6.095-3.751v-18.832h5.157l10.705 20.786c.86 1.641 2.345 2.266 3.907 2.266 3.595 0 7.658-3.282 7.658-6.329 0-.391-.078-.938-.391-1.406zm-9.768-7.422h-7.736v-14.534h7.736c4.376 0 7.032 1.797 7.032 7.267s-2.656 7.267-7.032 7.267z" fill="url(#SVGID_00000126301706588067001810000014258442454570352560_)"/><path d="m210.656 125.948h-33.757c-2.579 0-3.673 2.812-3.673 5.392 0 2.969 1.328 5.548 3.673 5.548h10.783v42.43c0 2.501 3.048 3.751 6.095 3.751 3.048 0 6.095-1.25 6.095-3.751v-42.43h10.784c2.344 0 3.672-2.579 3.672-5.548 0-2.579-1.094-5.392-3.672-5.392z" fill="url(#SVGID_00000085944677893882617180000000971478196059694758_)"/><path d="m225.268 125.948c-3.048 0-6.095 1.094-6.095 3.672v49.697c0 2.501 3.047 3.751 6.095 3.751s6.095-1.25 6.095-3.751v-49.697c-.001-2.578-3.048-3.672-6.095-3.672z" fill="url(#SVGID_00000008858180330114223690000005161192565475457153_)"/><path d="m272.229 125.948h-27.114c-2.657 0-5.313 1.25-5.313 3.75v49.619c0 2.501 3.047 3.751 6.095 3.751s6.095-1.25 6.095-3.751v-20.16h11.8c2.578 0 3.672-2.5 3.672-4.61 0-2.5-1.328-4.767-3.672-4.767h-11.8v-13.205h20.238c2.345 0 3.673-2.501 3.673-5.392-.001-2.5-1.094-5.235-3.674-5.235z" fill="url(#SVGID_00000077321748338874406240000010585146024085367691_)"/><path d="m286.139 125.948c-3.048 0-6.095 1.094-6.095 3.672v49.697c0 2.501 3.047 3.751 6.095 3.751s6.095-1.25 6.095-3.751v-49.697c-.001-2.578-3.047-3.672-6.095-3.672z" fill="url(#SVGID_00000059302422562383019760000014987633098821940130_)"/><path d="m319.271 136.575c6.642 0 6.876 5.001 6.954 7.032.156 2.813 2.813 3.673 6.095 3.673 4.142 0 6.095-1.094 6.095-5.782 0-9.924-8.438-15.55-19.613-15.55-10.236 0-18.753 5.001-18.753 18.44v20.707c0 13.44 8.517 18.441 18.753 18.441 11.175 0 19.613-5.938 19.613-16.331 0-4.688-1.953-5.782-6.173-5.782-3.125 0-5.782.781-6.017 3.672-.234 3.048-.625 7.814-6.876 7.814-4.532 0-7.111-2.501-7.111-7.814v-20.707c-.001-5.313 2.578-7.813 7.033-7.813z" fill="url(#SVGID_00000136400060202319678050000004263602098244393660_)"/><path d="m371.311 129.542c-.859-2.734-4.376-4.063-7.97-4.063-3.595 0-7.111 1.329-7.971 4.063l-14.534 47.666c-.078.312-.156.625-.156.859 0 2.892 4.454 5.001 7.814 5.001 1.953 0 3.516-.625 3.984-2.266l2.657-9.768h16.487l2.657 9.768c.469 1.641 2.031 2.266 3.985 2.266 3.359 0 7.813-2.109 7.813-5.001 0-.234-.078-.547-.156-.859zm-13.675 32.116 5.705-20.941 5.704 20.941z" fill="url(#SVGID_00000181086979585616997680000015315617329080358279_)"/><path d="m419.524 125.948h-33.757c-2.579 0-3.673 2.812-3.673 5.392 0 2.969 1.328 5.548 3.673 5.548h10.783v42.43c0 2.501 3.048 3.751 6.095 3.751 3.048 0 6.095-1.25 6.095-3.751v-42.43h10.784c2.344 0 3.672-2.579 3.672-5.548 0-2.579-1.093-5.392-3.672-5.392z" fill="url(#SVGID_00000150780696552229901270000001096707293861011636_)"/><path d="m461.172 172.442h-20.942v-13.284h11.722c2.578 0 3.672-2.5 3.672-4.61 0-2.5-1.328-4.767-3.672-4.767h-11.722v-13.205h20.941c2.345 0 3.673-2.501 3.673-5.392 0-2.501-1.094-5.235-3.673-5.235h-27.817c-2.657 0-5.313 1.25-5.313 3.75v49.619c0 2.501 2.656 3.751 5.313 3.751h27.817c2.579 0 3.673-2.735 3.673-5.235.001-2.892-1.327-5.392-3.672-5.392z" fill="url(#SVGID_00000111908244521243126730000011571933403568906660_)"/></g><g fill="#26a6fe"><g><path d="m205.255 267.125h48.14c5.865 0 10.619 4.754 10.619 10.619s-4.754 10.619-10.619 10.619h-48.14c-5.865 0-10.619-4.754-10.619-10.619 0-5.864 4.754-10.619 10.619-10.619z"/><path d="m279.589 277.744c0-5.865 4.754-10.619 10.619-10.619h12.035c5.865 0 10.619 4.754 10.619 10.619s-4.754 10.619-10.619 10.619h-12.035c-5.865 0-10.619-4.754-10.619-10.619z"/></g><path d="m335.744 238.336h-163.99c-5.865 0-10.619-4.754-10.619-10.619s4.754-10.619 10.619-10.619h163.989c5.865 0 10.619 4.755 10.619 10.619.001 5.865-4.753 10.619-10.618 10.619z"/></g><path d="m229.679 82.746h48.14c5.865 0 10.619 4.754 10.619 10.619s-4.754 10.619-10.619 10.619h-48.14c-5.865 0-10.619-4.754-10.619-10.619s4.754-10.619 10.619-10.619z" fill="url(#SVGID_00000069398263415393566160000014294749109837539207_)"/></g><g><path d="m39.262 489.195c0 9.662 11.658 14.717 18.571 7.968.051-.05.102-.1.153-.151l7.18-7.18c6.841-6.841 17.931-6.841 24.772 0l7.18 7.18c6.841 6.841 17.931 6.841 24.772 0l7.18-7.18c6.841-6.841 17.931-6.841 24.772 0l7.18 7.18c.051.051.101.101.153.151 6.913 6.749 18.571 1.693 18.571-7.968v-172.928h-140.484z" fill="url(#SVGID_00000046297785538872694700000003835032874805528254_)"/><path d="m56.454 347.646v61.559l77.296 77.297c6.539-3.205 14.654-2.106 20.091 3.331l7.18 7.18c.051.051.102.101.152.151 6.913 6.749 18.571 1.693 18.571-7.968v-141.55z" fill="url(#SVGID_00000034807790993794913790000003309269520486638519_)"/><g><path d="m80.803 316.267h-41.541v172.929c0 9.662 11.658 14.717 18.571 7.968.051-.05.102-.1.153-.151l7.18-7.18c4.251-4.251 10.143-5.856 15.637-4.823z" fill="url(#SVGID_00000024685631959594989260000001598063831598607250_)"/><path d="m138.205 316.267v168.742c5.494-1.033 11.386.572 15.637 4.823l7.18 7.18c.051.051.102.101.152.151 6.913 6.749 18.571 1.693 18.571-7.968v-172.928z" fill="url(#SVGID_00000061446948646972469930000008488059282073502398_)"/><path d="m138.205 316.267v168.742c5.494-1.033 11.386.572 15.637 4.823l7.18 7.18c.051.051.102.101.152.151 6.913 6.749 18.571 1.693 18.571-7.968v-172.928z" fill="url(#SVGID_00000056402129992066494490000008105636379320502459_)"/></g><path d="m80.803 347.646h-41.541v44.267l41.541 41.64z" fill="url(#SVGID_00000106125456104045726360000002225958630020250803_)"/><g><path d="m213.945 331.557-9.89 10.065c-3.885 3.954-5.688 9.503-4.868 14.985l2.085 13.951c1.424 9.53-5.054 18.441-14.559 20.026l-13.906 2.319c-5.478.913-10.207 4.351-12.766 9.279l-6.485 12.489c-4.445 8.561-14.939 11.97-23.566 7.656l-12.589-6.295c-4.971-2.486-10.822-2.486-15.793 0l-12.589 6.295c-8.628 4.314-19.121.905-23.566-7.656l-6.485-12.489c-2.559-4.929-7.288-8.366-12.766-9.279l-13.906-2.319c-9.504-1.585-15.983-10.496-14.559-20.026l2.085-13.951c.819-5.482-.983-11.031-4.868-14.985l-9.891-10.065c-6.75-6.869-6.75-17.881 0-24.75l9.89-10.065c3.885-3.954 5.688-9.503 4.869-14.985l-2.085-13.951c-1.424-9.53 5.054-18.441 14.559-20.026l13.906-2.319c5.478-.913 10.207-4.351 12.766-9.279l6.485-12.489c4.445-8.561 14.939-11.97 23.566-7.656l12.589 6.295c4.971 2.486 10.822 2.486 15.793 0l12.589-6.295c8.628-4.314 19.121-.905 23.566 7.656l6.485 12.489c2.559 4.929 7.288 8.366 12.766 9.279l13.906 2.319c9.504 1.585 15.983 10.496 14.559 20.026l-2.085 13.951c-.819 5.482.983 11.031 4.868 14.985l9.891 10.065c6.749 6.869 6.749 17.881-.001 24.75z" fill="url(#SVGID_00000027586406992900438710000000179200050253440957_)"/><circle cx="109.504" cy="319.182" fill="url(#SVGID_00000073697193698428312890000016873963822591539356_)" r="78.301"/><circle cx="109.504" cy="319.182" fill="url(#SVGID_00000180344095934740169550000006827236962175959192_)" r="66.789"/><path d="m14.953 341.622c3.885 3.954 5.688 9.503 4.868 14.985l-2.085 13.951c-1.424 9.53 5.054 18.441 14.559 20.026l13.906 2.319c5.478.913 10.207 4.351 12.766 9.279l6.485 12.489c4.445 8.561 14.939 11.97 23.566 7.656l12.589-6.295c4.971-2.486 10.822-2.486 15.793 0l12.589 6.295c8.628 4.314 19.121.905 23.567-7.656l6.485-12.489c2.559-4.929 7.288-8.366 12.766-9.279l13.906-2.319c9.504-1.585 15.983-10.496 14.559-20.026l-2.085-13.951c-.819-5.482.983-11.031 4.869-14.985l9.891-10.065c3.375-3.435 5.062-7.905 5.062-12.375h-219.009c0 4.47 1.687 8.94 5.062 12.375z" fill="url(#SVGID_00000060008100594591162820000016826395269550844569_)"/></g></g><path d="m379.327 7.857 130.673 130.672v-67.98l-62.693-62.692z" fill="url(#SVGID_00000171690173817033459720000014994459060528048519_)"/><path d="m130.673 7.857-130.673 130.672v-67.98l62.693-62.692z" fill="url(#SVGID_00000167379005362800371370000015618756455572424107_)"/></g></svg>