<svg id="Layer_1" enable-background="new 0 0 500 500" viewBox="0 0 500 500" xmlns="http://www.w3.org/2000/svg"><g clip-rule="evenodd" fill-rule="evenodd"><path d="m250.019 153.41c3.062.213 6.091 1.308 8.674 3.334l62.812 49.267c9.733 7.634 20.123 11.122 32.475 11.122 12.168 0 22.626-3.612 32.201-11.122l62.812-49.267c6.883-5.399 16.933-4.185 22.332 2.699s4.185 16.933-2.699 22.333l-55.142 43.251c-9.857 7.732-15.103 18.513-15.103 31.041v128.264l-89.076-36.903v-91.362c0-12.528-5.246-23.31-15.103-31.041l-44.183-34.655-16.408 1.903v-29.464z" fill="#ffbf31"/><ellipse cx="353.843" cy="151.656" fill="#ffbf31" rx="33.665" ry="33.665" transform="matrix(.707 -.707 .707 .707 -3.599 294.624)"/><ellipse cx="387.54" cy="294.289" fill="#19cfba" rx="33.665" ry="33.665" transform="matrix(.987 -.16 .16 .987 -42.136 65.877)"/><path d="m250.019 335.592 60.618 24.159c8.891 3.543 14.427 11.709 14.427 21.28v74.172h89.075v-61.703c0-16.483-9.534-30.546-24.845-36.648l-139.275-55.508-15.247 6.077-.598 28.17h15.845z" fill="#19cfba"/><path d="m250.019 153.41c-3.062.213-6.091 1.308-8.674 3.334l-62.812 49.267c-9.733 7.634-20.123 11.122-32.475 11.122-12.169 0-22.626-3.612-32.201-11.122l-62.812-49.267c-6.883-5.399-16.933-4.185-22.332 2.699-5.4 6.884-4.185 16.933 2.699 22.333l55.142 43.251c9.857 7.732 15.103 18.513 15.103 31.041v128.264l89.076-36.903v-91.362c0-12.528 5.246-23.31 15.103-31.041l44.183-34.655z" fill="#fa6e85"/><ellipse cx="146.195" cy="151.656" fill="#fa6e85" rx="33.665" ry="33.665" transform="matrix(.526 -.851 .851 .526 -59.671 196.287)"/><ellipse cx="112.498" cy="294.289" fill="#88c8fe" rx="33.665" ry="33.665" transform="matrix(.16 -.987 .987 .16 -196.011 358.194)"/><path d="m250.019 335.592-60.618 24.159c-8.891 3.543-14.427 11.709-14.427 21.28v74.172h-89.075v-61.703c0-16.483 9.534-30.546 24.845-36.648l139.275-55.508z" fill="#88c8fe"/><path d="m335.913 75.405-85.894 30.63v-61.26z" fill="#19cfba"/><path d="m146.182 125.041c14.686 0 26.644 11.952 26.644 26.626s-11.958 26.626-26.644 26.626c-14.704 0-26.644-11.952-26.644-26.626s11.941-26.626 26.644-26.626zm0 67.275c22.425 0 40.684-18.224 40.684-40.649s-18.26-40.708-40.684-40.708c-22.443 0-40.685 18.283-40.685 40.708s18.242 40.649 40.685 40.649zm207.636-67.275c14.698 0 26.65 11.952 26.65 26.626s-11.952 26.626-26.65 26.626c-14.686 0-26.638-11.952-26.638-26.626s11.952-26.626 26.638-26.626zm-40.685 26.626c0 22.425 18.26 40.649 40.685 40.649 22.443 0 40.691-18.224 40.691-40.649s-18.248-40.708-40.691-40.708c-22.425 0-40.685 18.283-40.685 40.708zm151.136 24.614c3.858-3.077 4.532-8.639 1.515-12.485-3.055-3.934-8.728-4.444-12.473-1.538l-62.808 49.288c-10.834 8.461-22.78 12.603-36.543 12.603-13.916 0-25.846-4.023-36.809-12.603l-60.128-47.158v22.544l41.489 32.602c11.479 8.994 17.798 21.952 17.798 36.507v64.199l75.032 29.88v-15.325c-23.866 2.231-44.507-16.55-44.507-40.531 0-23.916 20.599-42.691 44.566-40.471.621-13.668 6.858-25.739 17.727-34.259zm-50.105 117.983c0 14.733-11.952 26.685-26.638 26.685-14.692 0-26.65-11.952-26.65-26.685 0-14.674 11.958-26.626 26.65-26.626 14.686 0 26.638 11.953 26.638 26.626zm-7.064 153.899h-75.038v-67.157c0-12.485-7.213-23.135-18.84-27.75l-56.199-22.425v-19.112l129.657 51.655c12.591 5.029 20.419 16.567 20.419 30.117v54.672zm-220.316-94.907c-11.627 4.615-18.845 15.266-18.845 27.75v67.157h-75.033v-54.672c0-13.55 7.822-25.088 20.414-30.117l129.663-51.655v19.112zm-74.305-18.283c-1.284 0-2.556-.059-3.822-.177v15.325l75.038-29.88v-64.199c0-14.555 6.319-27.513 17.792-36.507l41.495-32.602v-22.544l-60.133 47.158c-10.828 8.461-22.774 12.603-36.537 12.603-13.916 0-25.846-4.02-36.809-12.603l-62.808-49.288c-1.852-1.42-4.183-2.071-6.544-1.775-7.694.866-10.678 10.848-4.42 15.798l55.139 43.253c10.87 8.52 17.106 20.591 17.733 34.259 23.943-2.228 44.56 16.548 44.56 40.471.001 22.484-18.247 40.708-40.684 40.708zm-26.643-40.709c0 14.733 11.952 26.685 26.644 26.685 14.685 0 26.644-11.952 26.644-26.685 0-14.674-11.958-26.626-26.644-26.626-14.692 0-26.644 11.953-26.644 26.626zm171.187-239.516 57.968 20.65-57.968 20.709zm-14.04 241.824v-91.771l-32.833 25.739c-8.118 6.39-12.413 15.206-12.413 25.502v58.578zm59.287 18.047-45.247-18.047v-91.771l32.833 25.739c8.112 6.39 12.414 15.206 12.414 25.502zm174.56-159.52c-7.872-10.01-22.341-11.593-32.194-3.905l-62.808 49.288c-8.529 6.69-17.319 9.645-28.135 9.645-10.65 0-19.502-3.077-27.875-9.645l-62.808-49.288c-1.834-1.42-3.846-2.544-5.988-3.373v-36.862l81.227-28.933c6.189-2.212 6.189-11.042 0-13.254l-85.89-30.59c-4.735-1.689-9.378 1.873-9.378 6.568v103.073c-2.148.828-4.16 1.953-5.982 3.373l-62.82 49.288c-8.53 6.692-17.316 9.645-28.141 9.645-10.645 0-19.49-3.077-27.869-9.645l-62.808-49.288c-9.855-7.689-24.329-6.1-32.194 3.905-7.798 9.94-6.059 24.378 3.893 32.188l55.139 43.253c8.124 6.39 12.414 15.206 12.414 25.502v1.716c-13.502 6.627-22.821 20.532-22.821 36.507 0 16.035 9.319 29.94 22.821 36.566v27.632c-9.964 8.579-15.757 21.064-15.757 35.028v61.713c0 3.905 3.148 7.041 7.023 7.041h89.079c3.87 0 7.017-3.136 7.017-7.041v-74.198c0-6.745 3.734-12.248 10.005-14.733l50.998-20.295v102.185h-18.437c-3.876 0-7.017 3.136-7.017 7.041s3.142 7.041 7.017 7.041h50.909c3.876 0 7.023-3.136 7.023-7.041s-3.148-7.041-7.023-7.041h-18.431v-102.187l50.992 20.295c6.272 2.485 10.005 7.988 10.005 14.733v74.198c0 3.905 3.148 7.041 7.024 7.041h89.073c3.882 0 7.023-3.136 7.023-7.041v-61.713c0-13.964-5.798-26.449-15.757-35.028v-27.632c13.502-6.627 22.827-20.532 22.827-36.566 0-15.975-9.325-29.88-22.827-36.507v-1.716c0-10.295 4.29-19.112 12.414-25.502l55.139-43.253c9.957-7.81 11.697-22.248 3.898-32.188z" fill="#1e2f3f"/></g></svg>