<svg id="Layer_1" height="512" viewBox="0 0 256 256" width="512" xmlns="http://www.w3.org/2000/svg"><g><g><path d="m150.499 178.724 1.205.696c1.702-.622 3.204-1.819 4.18-3.511l5.543-9.601c.276-.478.112-1.09-.366-1.366l-40.797-23.554c-4.783-2.761-10.899-1.123-13.66 3.66l-3.608 6.25z" fill="#fcc4ae"/><g><g><g><path d="m180.1 136.288-25.999 15.01-25.552 14.753 21.95 12.673 41.179 23.775 19.987-11.54z" fill="#f2ad97"/></g></g><g><g><g><path d="m220.479 196.225 23.74-13.706c2.391-1.381 3.211-4.439 1.83-6.83l-37.032-64.141c-.552-.957-1.775-1.284-2.732-.732l-26.338 15.206c-2.391 1.381-3.211 4.439-1.83 6.83l35.532 61.543c1.38 2.391 4.438 3.211 6.83 1.83z" fill="#b171f4"/></g></g><g><g><path d="m179.947 126.021 3.125-1.804 28.554 49.457c1.381 2.391 4.439 3.211 6.83 1.83l20.615-11.902 6.978 12.086c1.381 2.391.561 5.449-1.83 6.83l-23.74 13.706c-2.391 1.381-5.449.561-6.83-1.83l-35.532-61.543c-1.381-2.391-.562-5.449 1.83-6.83z" fill="#a54af4"/></g></g></g></g><g><g><g><g><path d="m36.619 196.225-26.338-15.206c-.957-.552-1.284-1.775-.732-2.732l38.532-66.739c.552-.957 1.775-1.284 2.732-.732l26.338 15.206c2.391 1.381 3.211 4.439 1.83 6.83l-35.532 61.543c-1.381 2.391-4.439 3.211-6.83 1.83z" fill="#893add"/></g></g><g><g><path d="m77.151 126.021-3.125-1.804-28.554 49.457c-1.381 2.391-4.439 3.211-6.83 1.83l-20.615-11.902-8.478 14.684c-.552.957-.225 2.18.732 2.732l26.338 15.206c2.391 1.381 5.449.561 6.83-1.83l35.532-61.543c1.381-2.391.561-5.449-1.83-6.83z" fill="#6c2bc1"/></g></g></g><g><g><path d="m193.08 203.308-42.582-24.584-47.502-27.426-25.999-15.01-31.565 54.671 25.999 15.01c3.625 6.431 8.91 11.771 15.303 15.462l33.082 19.1 21.434 12.375c4.117 2.377 9.382.967 11.759-3.151 2.377-4.117.966-9.382-3.151-11.76l-21.434-12.375 36.344 20.983c4.117 2.377 9.382.967 11.76-3.151s.966-9.382-3.151-11.76l-36.344-20.983 43.8 25.288c4.117 2.377 9.382.967 11.759-3.151 2.377-4.117.966-9.382-3.151-11.76l-43.8-25.288 38.829 22.418c4.117 2.377 9.382.966 11.76-3.151s.968-9.38-3.15-11.757z" fill="#fcc4ae"/></g></g><g><g><path d="m197.24 212.186c-2.692 2.221-6.568 2.684-9.768.837l-32.814-18.945c-1.435-.828-3.27-.337-4.098 1.098-.828 1.435-.337 3.27 1.098 4.098l32.814 18.945c4.117 2.377 9.382.966 11.759-3.151.53-.918.843-1.895 1.009-2.882z" fill="#f2ad97"/></g></g><g><g><g><path d="m56.997 180.969h5.739v30.021h-5.739z" fill="#f2ad97" transform="matrix(.5 -.866 .866 .5 -139.79 149.837)"/></g></g><g><g><path d="m144.25 247.711-54.646-31.249c-6.393-3.691-11.678-9.031-15.303-15.462l-2.87 4.97c3.625 6.431 8.91 11.771 15.303 15.462l54.516 31.475c4.117 2.377 9.382.966 11.76-3.151.53-.917.843-1.895 1.008-2.882-2.691 2.22-6.568 2.684-9.768.837z" fill="#f2ad97"/></g></g></g><g><g><path d="m177.538 240.572c-2.692 2.221-6.568 2.684-9.768.837l-30.329-17.51c-1.435-.828-3.27-.337-4.098 1.098-.828 1.435-.337 3.27 1.098 4.098l30.329 17.511c4.117 2.377 9.382.966 11.759-3.151.53-.919.843-1.896 1.009-2.883z" fill="#f2ad97"/></g></g><g><g><path d="m193.601 229.966c-2.692 2.221-6.568 2.684-9.768.837l-37.784-21.815c-1.435-.828-3.27-.337-4.098 1.098-.828 1.435-.337 3.27 1.098 4.098l37.313 21.543c3.22 1.859 7.305 1.719 10.224-.583 1.854-1.463 2.701-3.303 3.015-5.178z" fill="#f2ad97"/></g></g></g><g><g><g><path d="m115.847 252.907 13.047-7.532c4.117-2.377 5.528-7.642 3.151-11.759-2.377-4.117-7.642-5.528-11.759-3.151l-13.047 7.532c-4.117 2.377-5.528 7.642-3.151 11.759 2.377 4.117 7.642 5.528 11.759 3.151z" fill="#f2ad97"/></g></g><g><g><path d="m126.024 240.404-13.047 7.532c-3.241 1.871-7.173 1.366-9.868-.929.173.94.472 1.873.978 2.749 2.377 4.117 7.642 5.528 11.759 3.151l13.047-7.532c4.117-2.377 5.528-7.642 3.151-11.759-.506-.876-1.163-1.602-1.891-2.221.641 3.48-.887 7.138-4.129 9.009z" fill="#e59076"/></g></g><g><g><path d="m92.328 246.605 25.472-14.706c4.117-2.377 5.528-7.642 3.151-11.759-2.377-4.117-7.642-5.528-11.759-3.151l-25.472 14.706c-4.117 2.377-5.528 7.642-3.151 11.759 2.377 4.117 7.641 5.528 11.759 3.151z" fill="#f2ad97"/></g></g><g><g><path d="m114.931 226.929-25.472 14.706c-3.241 1.871-7.173 1.366-9.868-.929.173.94.472 1.873.978 2.749 2.377 4.117 7.642 5.528 11.759 3.151l25.472-14.706c4.117-2.377 5.528-7.642 3.151-11.76-.506-.876-1.163-1.602-1.891-2.221.64 3.48-.888 7.138-4.129 9.01z" fill="#e59076"/></g></g><g><g><path d="m76.264 235.999 30.442-17.576c4.117-2.377 5.528-7.642 3.151-11.759-2.377-4.117-7.642-5.528-11.759-3.151l-30.442 17.576c-4.117 2.377-5.528 7.642-3.151 11.759 2.377 4.117 7.642 5.528 11.759 3.151z" fill="#f2ad97"/></g></g><g><g><path d="m103.837 213.453-30.442 17.576c-3.241 1.871-7.173 1.366-9.868-.93.173.94.472 1.873.978 2.749 2.377 4.117 7.642 5.528 11.759 3.151l30.442-17.576c4.117-2.377 5.528-7.642 3.151-11.759-.506-.876-1.163-1.602-1.891-2.221.641 3.481-.888 7.138-4.129 9.01z" fill="#e59076"/></g></g><g><g><path d="m72.626 218.219 22.987-13.271c4.117-2.377 5.528-7.642 3.151-11.759-2.377-4.117-7.642-5.528-11.759-3.151l-22.987 13.271c-4.117 2.377-5.528 7.642-3.151 11.759 2.376 4.117 7.641 5.528 11.759 3.151z" fill="#f2ad97"/></g></g><g><g><path d="m92.743 199.977-22.987 13.272c-3.241 1.871-7.173 1.366-9.868-.929.173.94.472 1.873.978 2.749 2.377 4.117 7.642 5.528 11.759 3.151l22.987-13.271c4.117-2.377 5.528-7.642 3.151-11.759-.506-.876-1.163-1.602-1.891-2.221.641 3.479-.887 7.137-4.129 9.008z" fill="#e59076"/></g></g><g><g><path d="m92.804 203.255 2.014-1.163c2.391-1.381 3.211-4.439 1.83-6.83l-.739-1.28c-1.381-2.391-4.439-3.211-6.83-1.83l-2.014 1.163c-.957.552-1.284 1.775-.732 2.732l3.739 6.476c.552.957 1.775 1.285 2.732.732z" fill="#ffd2c0"/></g></g><g><g><path d="m103.897 216.731 2.014-1.163c2.391-1.381 3.211-4.439 1.83-6.83l-.739-1.28c-1.381-2.391-4.439-3.211-6.83-1.83l-2.906 1.678c-.464.268-.623.861-.355 1.325l4.254 7.368c.553.957 1.776 1.284 2.732.732z" fill="#ffd2c0"/></g></g><g><g><path d="m114.991 230.207 2.014-1.163c2.391-1.381 3.211-4.439 1.83-6.83l-.739-1.28c-1.381-2.391-4.439-3.211-6.83-1.83l-2.014 1.163c-.957.552-1.284 1.775-.732 2.732l3.739 6.476c.552.956 1.775 1.284 2.732.732z" fill="#ffd2c0"/></g></g><g><g><path d="m126.085 243.683 2.014-1.163c2.391-1.381 3.211-4.439 1.83-6.83l-.739-1.28c-1.381-2.391-4.439-3.211-6.83-1.83l-2.014 1.163c-.957.552-1.284 1.775-.732 2.732l3.739 6.476c.552.956 1.775 1.284 2.732.732z" fill="#ffd2c0"/></g></g></g><g><g><path d="m119.936 174.337 35.6-20.554-5.043-8.735c-2.761-4.783-8.877-6.422-13.66-3.66l-40.797 23.554c-.478.276-.642.888-.366 1.366l1.043 1.807c4.695 8.13 15.092 10.916 23.223 6.222z" fill="#f2ad97"/></g></g><g><g><path d="m110.206 166.355 4.565-2.636c1.372-.792 1.843-2.547 1.05-3.92l-2.72-4.711-12.962 7.484.741 1.284c1.886 3.265 6.061 4.384 9.326 2.499z" fill="#ffd2c0"/></g></g></g><g><path d="m123.925 128.136c0 2.553 2.07 4.624 4.623 4.624s4.623-2.07 4.623-4.624z" fill="#939598"/><path d="m131.718 128.136c-.551 1.937-2.314 3.364-4.428 3.364-.955 0-1.842-.29-2.579-.786.83 1.233 2.239 2.045 3.838 2.045 2.553 0 4.623-2.07 4.623-4.624h-1.454z" fill="#808285"/><g><g><path d="m128.549 1.938c-23.167 0-41.947 18.78-41.947 41.947 0 13.103 6.008 25.777 15.419 34.574 5.917 5.531 10.266 12.377 12.958 19.856h27.14c2.692-7.48 7.041-14.325 12.958-19.856 9.411-8.797 15.419-21.471 15.419-34.574 0-23.166-18.781-41.947-41.947-41.947z" fill="#ffa91a"/></g></g><g><g><path d="m93.317 38.739c-.131 0-.265-.013-.399-.04-1.083-.219-1.783-1.274-1.563-2.356 2.115-10.445 8.608-19.584 17.814-25.073.951-.566 2.176-.255 2.742.693.566.949.255 2.177-.693 2.742-8.24 4.913-14.05 13.089-15.942 22.431-.193.949-1.026 1.603-1.959 1.603zm24.145-27.051c-.843 0-1.627-.538-1.901-1.383-.342-1.051.233-2.179 1.284-2.521l.117-.038c1.053-.337 2.179.234 2.52 1.284.342 1.051-.233 2.179-1.284 2.521l-.117.038c-.206.067-.414.099-.619.099z" fill="#ffc91d"/></g></g><g><g><path d="m152.779 9.655c4.854 6.844 7.717 15.2 7.717 24.23 0 13.103-6.008 25.776-15.419 34.573-5.094 4.762-9.026 10.497-11.738 16.773-.802 1.855-2.596 3.083-4.617 3.083h-18.612c1.975 3.151 3.611 6.502 4.87 10h27.14c2.692-7.48 7.041-14.325 12.958-19.856 9.411-8.797 15.419-21.471 15.419-34.573-.001-14.137-7.002-26.631-17.718-34.23z" fill="#f79219"/></g></g><g><g><path d="m155.598 11.835c6.171 7.304 9.897 16.74 9.897 27.05 0 13.103-6.008 25.776-15.419 34.573-5.094 4.762-9.026 10.497-11.738 16.773-.802 1.855-2.596 3.083-4.617 3.083h-20.851c.784 1.63 1.495 3.296 2.108 5h27.14c2.692-7.48 7.041-14.325 12.958-19.856 9.411-8.797 15.419-21.471 15.419-34.573.001-12.856-5.789-24.355-14.897-32.05z" fill="#ef7816"/></g></g><g><g><g><path d="m136.935 19.761h-9.109c-.785 0-1.497.462-1.817 1.179l-13.024 29.184c-.587 1.316.376 2.8 1.817 2.8h13.872l-7.593 21.491c-.301.851.824 1.466 1.378.754l21.406-27.509c1.017-1.307.086-3.211-1.57-3.211h-13.647l10.093-21.864c.609-1.319-.354-2.824-1.806-2.824z" fill="#fff"/></g></g></g><g><g><g><path d="m116.412 119.956v1.884c0 3.477 2.819 6.296 6.296 6.296h11.682c3.477 0 6.296-2.819 6.296-6.296v-1.884z" fill="#58595b"/></g></g></g><g><g><path d="m139.426 119.956v.625c0 3.477-2.819 6.296-6.296 6.296h-11.681c-1.417 0-2.72-.474-3.772-1.264 1.149 1.529 2.972 2.523 5.032 2.523h11.682c3.477 0 6.296-2.819 6.296-6.296v-1.884z" fill="#414042"/></g></g><g><g><g><path d="m142.196 105.529h-27.294c-1.799 0-3.258-1.459-3.258-3.258v-.698c0-1.799 1.459-3.258 3.258-3.258h27.294c1.799 0 3.258 1.459 3.258 3.258v.698c0 1.799-1.459 3.258-3.258 3.258z" fill="#939598"/></g></g><g><g><path d="m144.117 98.895c.048.219.078.446.078.68v.918c0 1.739-1.409 3.148-3.148 3.148h-27.515c-.676 0-1.298-.217-1.811-.579.311 1.411 1.565 2.468 3.07 2.468h27.515c1.739 0 3.148-1.409 3.148-3.148v-.918c0-1.064-.53-1.999-1.337-2.569z" fill="#808285"/></g></g><g><g><path d="m142.196 112.743h-27.294c-1.799 0-3.258-1.459-3.258-3.258v-.698c0-1.799 1.459-3.258 3.258-3.258h27.294c1.799 0 3.258 1.459 3.258 3.258v.698c0 1.799-1.459 3.258-3.258 3.258z" fill="#939598"/></g></g><g><g><path d="m143.801 105.923c.243.447.394.951.394 1.495v.918c0 1.739-1.409 3.148-3.148 3.148h-27.515c-.544 0-1.048-.151-1.495-.394.533.98 1.56 1.653 2.754 1.653h27.515c1.739 0 3.148-1.409 3.148-3.148v-.918c0-1.195-.673-2.221-1.653-2.754z" fill="#808285"/></g></g><g><g><path d="m142.196 119.956h-27.294c-1.799 0-3.258-1.459-3.258-3.258v-.698c0-1.799 1.459-3.258 3.258-3.258h27.294c1.799 0 3.258 1.459 3.258 3.258v.698c0 1.8-1.459 3.258-3.258 3.258z" fill="#939598"/></g></g><g><g><path d="m143.801 113.136c.243.447.394.951.394 1.495v.918c0 1.738-1.409 3.148-3.148 3.148h-27.515c-.544 0-1.048-.151-1.495-.394.533.98 1.56 1.653 2.754 1.653h27.515c1.739 0 3.148-1.409 3.148-3.148v-.918c0-1.194-.673-2.22-1.653-2.754z" fill="#808285"/></g></g></g></g><g><g><g><g><path d="m156.548 118.547c-.238 0-.48-.043-.716-.134-1.031-.396-1.546-1.553-1.15-2.584l7-18.23c.397-1.031 1.552-1.546 2.584-1.15 1.031.396 1.546 1.553 1.15 2.584l-7 18.23c-.306.796-1.063 1.284-1.868 1.284z" fill="#6c2bc1"/></g></g><g><g><path d="m168.548 123.546c-.471 0-.944-.166-1.325-.503-.827-.732-.903-1.996-.171-2.823l25-28.23c.731-.827 1.995-.904 2.823-.171.827.732.903 1.996.171 2.823l-25 28.23c-.395.446-.945.674-1.498.674z" fill="#6c2bc1"/></g></g></g><g><g><g><path d="m100.549 118.547c-.804 0-1.562-.488-1.868-1.284l-7-18.23c-.396-1.031.119-2.188 1.15-2.584 1.03-.397 2.188.119 2.584 1.15l7 18.23c.396 1.031-.119 2.188-1.15 2.584-.235.091-.477.134-.716.134z" fill="#6c2bc1"/></g></g><g><g><path d="m88.55 123.546c-.553 0-1.103-.228-1.498-.674l-25-28.23c-.732-.827-.656-2.091.171-2.823.828-.731 2.092-.655 2.823.171l25 28.23c.732.827.656 2.091-.171 2.823-.381.337-.854.503-1.325.503z" fill="#6c2bc1"/></g></g></g></g></g></svg>