<svg id="Layer_1" enable-background="new 0 0 500 500" viewBox="0 0 500 500" xmlns="http://www.w3.org/2000/svg"><g clip-rule="evenodd" fill-rule="evenodd"><path d="m142.693 215.545c-11.011 19.029-17.314 41.122-17.314 64.689 0 71.442 57.915 129.357 129.357 129.357v-44.72h16.322c10.977 0 19.958-8.981 19.958-19.959 0-10.977-8.981-19.958-19.958-19.958h-16.322v-44.72l-38.729-22.36-8.161 14.135c-5.439 9.422-17.151 12.746-27.264 7.305-9.506-5.488-12.793-17.757-7.305-27.263l8.161-14.135z" fill="#ffbf31"/><path d="m311.475 418.522c21.985.021 44.27-5.567 64.679-17.35 61.87-35.721 83.069-114.834 47.348-176.704l-38.728 22.36-8.161-14.135c-5.488-9.506-17.757-12.794-27.264-7.305s-12.794 17.757-7.305 27.263l8.161 14.135-38.729 22.36v44.72h16.322c10.879 0 19.614 8.48 19.958 19.959 0 10.977-8.981 19.958-19.959 19.958h-16.322z" fill="#88c8fe"/><path d="m402.867 170.863c-10.974-19.05-26.956-35.555-47.365-47.338-61.87-35.721-140.984-14.523-176.705 47.348l38.728 22.36-8.161 14.135c-5.488 9.506-2.202 21.775 7.306 27.264 9.507 5.489 21.775 2.201 27.263-7.305l8.161-14.135 38.728 22.36 38.729-22.36-8.161-14.135c-5.44-9.422-2.463-21.226 7.306-27.264 9.506-5.488 21.775-2.201 27.263 7.306l8.161 14.135z" fill="#fa6e85"/><path d="m127.082 259.2c-11.194 68.43 33.238 132.473 99.267 147.258 16.545-22.796-51.255-11.826-80.142-80.885l11.582 6.687c11.282 6.514 25.829 2.615 32.343-8.667 6.503-11.264 2.628-25.784-8.613-32.312z" fill="#e3a829"/><path d="m357.087 410.214c6.488-2.453 12.864-5.461 19.067-9.042 53.424-30.845 76.515-94.042 58.828-150.555-28-2.931 15.347 50.328-29.977 109.848v-13.373c0-13.045-10.632-23.677-23.677-23.677-13.024 0-23.643 10.599-23.677 23.615z" fill="#60b7fe"/><path d="m372.866 135.517c-5.369-4.392-11.161-8.411-17.364-11.992-53.424-30.845-119.7-19.244-159.799 24.331 11.467 25.725 35.878-38.472 110.12-28.963l-11.582 6.687c-11.282 6.513-15.179 21.061-8.666 32.343 6.503 11.264 21.015 15.167 32.29 8.697z" fill="#e33f65"/><g fill="#fcd4a9"><path d="m210.385 408.603c-3.654 5.433-19.922 6.026-25.593 2.752-43.588-25.165-59.691-38.524-89.115-79.828-2.42-3.397-5.124-5.856-8.737-7.942l-29.026-16.758 32.191-55.755 85.475 50.373c5.671 3.274 7.631 10.592 4.357 16.263-3.274 5.671-10.592 7.632-16.263 4.358l-17.593-10.157c-1.786-1.031-3.837-1.02-5.611.031-1.716 1.016-6.229 1.604-7.251 12.747 13.534 36.987 43.475 66.065 81.01 78.429-1.318 1.817-2.609 3.65-3.844 5.487z"/><path d="m444.823 263.37c6.532.448 15.18 14.24 15.18 20.788 0 50.331-3.517 70.956-24.576 117.09-1.732 3.794-2.51 7.365-2.51 11.537v33.517h-64.381l.886-99.21c.029-6.598 5.372-11.905 11.905-11.905 6.548 0 11.905 5.357 11.905 11.905v20.314c0 2.063 1.035 3.833 2.833 4.844 1.738.978 4.504 4.593 14.665-.094 25.265-30.215 35.476-70.684 27.417-109.372 2.234.233 4.467.434 6.676.586z"/><path d="m201.827 132.957c-2.878-5.881 4.742-20.266 10.413-23.54 43.588-25.165 63.208-32.432 113.69-37.261 4.152-.397 7.633-1.509 11.246-3.595l29.026-16.758 32.19 55.755-86.362 48.838c-5.671 3.274-12.989 1.313-16.263-4.357-3.274-5.671-1.313-12.989 4.357-16.263l17.592-10.157c1.786-1.031 2.802-2.813 2.779-4.875-.022-1.994 1.725-6.196-7.414-12.653-38.799-6.773-78.952 4.618-108.427 30.942-.911-2.053-1.853-4.087-2.827-6.076z"/></g><path d="m394.455 109.784-82.423 46.61c-5.776 3.3-13.107 1.266-16.333-4.484 4.871.305 9.942-.265 15.516-3.052l70.02-41.886 10.035-2.589z" fill="#f0b16e"/><path d="m94.002 253.37 81.577 48.076c5.746 3.352 7.65 10.718 4.284 16.387-2.172-4.371-5.2-8.477-10.401-11.911l-71.285-39.696-7.259-7.396z" fill="#f0b16e"/><path d="m368.537 441.775.846-94.686c.03-6.652 5.458-11.984 12.05-11.903-2.7 4.066-4.741 8.742-5.114 14.963l1.265 81.583-2.776 9.985z" fill="#f0b16e"/><path d="m387.8 118.344-36.542-63.292c-1.464-2.536-.587-5.809 1.949-7.274l18.271-10.549c2.536-1.464 5.81-.587 7.274 1.949l36.542 63.292c1.464 2.536.587 5.809-1.949 7.274l-18.271 10.549c-2.537 1.464-5.81.587-7.274-1.949z" fill="#e33f65"/><path d="m104.743 254.853-36.542 63.292c-1.464 2.536-4.737 3.414-7.274 1.949l-18.271-10.549c-2.536-1.464-3.413-4.737-1.949-7.274l36.542-63.292c1.464-2.536 4.737-3.413 7.274-1.949l18.271 10.549c2.536 1.465 3.413 4.738 1.949 7.274z" fill="#ffbf31"/><path d="m364.492 431.733h73.084c2.929 0 5.325 2.396 5.325 5.325v21.098c0 2.928-2.396 5.325-5.325 5.325h-73.084c-2.929 0-5.325-2.396-5.325-5.325v-21.098c0-2.929 2.396-5.325 5.325-5.325z" fill="#60b7fe"/></g></svg>