<svg id="Layer_1" viewBox="0 0 512 512" xmlns="http://www.w3.org/2000/svg" data-name="Layer 1"><g fill-rule="evenodd"><path d="m342.955 447.723c-9.913 9.468-24.656 11.803-37.008 5.859-7.394-3.557-13.005-9.633-16.059-16.868-26.695-4.958-41.03-24.36-38.913-46.301-9.685-2.563-17.572-9.792-20.894-19.409-2.7-7.815-2.054-16.25 1.523-23.427-15.712-23.047-8.38-60.148 19.177-70.732-.482-20.596 13.725-38.366 39.106-43.08 3.053-7.234 8.664-13.311 16.059-16.868 12.353-5.943 27.095-3.609 37.008 5.859 9.913-9.468 24.655-11.803 37.008-5.859 7.394 3.557 13.005 9.634 16.058 16.868 25.381 4.714 39.588 22.484 39.106 43.08 27.557 10.584 34.889 47.686 19.177 70.732 3.577 7.177 4.223 15.612 1.523 23.427-3.322 9.617-11.209 16.847-20.894 19.409 2.117 21.941-12.218 41.343-38.913 46.301-3.053 7.234-8.664 13.311-16.058 16.868-12.353 5.943-27.095 3.609-37.008-5.859z" fill="#ff5471"/><path d="m76.958 234.302h81.5v-5.776c0-39.474 40.75-50.563 40.75-103.613 0-48.673-40.75-73.01-81.5-73.01s-81.5 24.337-81.5 73.01c0 53.05 40.75 64.138 40.75 103.613z" fill="#fcdb35"/><path d="m76.958 234.302h64.816v-5.776c0-39.474 40.75-50.563 40.75-103.613 0-45.347-35.371-69.565-73.158-72.665-37.788 3.099-73.158 27.318-73.158 72.665 0 53.05 40.75 64.138 40.75 103.613z" fill="#ffeb87"/><path d="m76.958 234.302h81.5v13.074c0 4.984-4.065 9.049-9.05 9.049h-63.4c-4.984 0-9.05-4.065-9.05-9.049z" fill="#909cd1"/><path d="m76.958 234.302h64.816v13.074c0 4.984-4.065 9.049-9.05 9.049h-46.717c-4.984 0-9.05-4.065-9.05-9.049v-13.074z" fill="#a3afe0"/><path d="m86.488 256.425h62.44v12.701c0 4.984-4.065 9.05-9.05 9.05h-44.341c-4.984 0-9.049-4.065-9.049-9.05z" fill="#5d689e"/><path d="m86.488 256.425h45.756v12.701c0 4.984-4.065 9.05-9.05 9.05h-27.657c-4.984 0-9.05-4.065-9.05-9.05v-12.701z" fill="#7986bf"/><path d="m101.42 278.176h32.577v10.776c0 4.985-4.065 9.05-9.05 9.05h-14.477c-4.984 0-9.05-4.065-9.05-9.05z" fill="#3d4a75"/><path d="m101.42 278.176h15.892v10.776c0 4.611-3.479 8.435-7.946 8.982-4.467-.547-7.946-4.371-7.946-8.982z" fill="#5d689e"/><path d="m156.251 344.974 10.198-6.839c1.661-1.114 3.825-.903 5.239.511l15.784 15.784c1.415 1.414 1.625 3.578.512 5.239l-6.84 10.199 8.675 20.939 12.046 2.375c1.962.387 3.343 2.066 3.343 4.067v22.322c0 2-1.381 3.68-3.343 4.067l-12.046 2.375-8.675 20.939 6.84 10.199c1.114 1.661.903 3.825-.512 5.24l-15.784 15.784c-1.414 1.414-3.578 1.626-5.239.512l-10.199-6.839-20.939 8.675-2.375 12.046c-.387 1.962-2.067 3.343-4.067 3.343h-22.322c-2 0-3.68-1.38-4.067-3.343l-2.375-12.046-20.939-8.675-10.199 6.839c-1.661 1.114-3.825.903-5.239-.512l-15.784-15.784c-1.414-1.414-1.626-3.578-.512-5.24l6.84-10.199-8.675-20.939-12.046-2.375c-1.962-.387-3.343-2.067-3.343-4.067v-22.322c0-2 1.381-3.68 3.343-4.067l12.046-2.375 8.675-20.939-6.84-10.199c-1.114-1.661-.903-3.825.512-5.239l15.784-15.784c1.414-1.414 3.578-1.625 5.239-.511l10.199 6.839 20.939-8.675 2.375-12.046c.387-1.962 2.066-3.343 4.067-3.343h22.322c2 0 3.68 1.381 4.067 3.343l2.375 12.046 20.939 8.675z" fill="#fdc72e"/><path d="m156.251 344.974 7.401-4.963 16.829 16.829-8.737 13.029 8.675 20.939 15.389 3.034v29.138l-15.389 3.034-8.675 20.939 8.737 13.029-16.829 16.828-15.019-10.071-21.784 9.025-3.973 20.147h-16.328c-2 0-3.68-1.381-4.067-3.343l-2.375-12.046-28.732-11.903-10.296 6.905-13.133-13.133c-1.414-1.414-1.626-3.578-.512-5.24l6.84-10.199-8.675-20.939-12.046-2.375c-1.962-.387-3.343-2.067-3.343-4.067v-22.322c0-2 1.381-3.68 3.343-4.067l12.046-2.375 8.675-20.939-6.84-10.199c-1.114-1.661-.903-3.826.512-5.24l13.133-13.132 10.296 6.905 7.793-3.229 20.939-8.675 2.375-12.045c.387-1.962 2.066-3.343 4.067-3.343h16.328l3.973 20.147 21.784 9.025 7.618-5.108z" fill="#ffeb87"/></g><circle cx="110.582" cy="408.41" fill="#fdc72e" r="44.872" transform="matrix(.139 -.99 .99 .139 -309.218 461.276)"/><circle cx="117.709" cy="408.41" fill="#fff" r="44.873" transform="matrix(.957 -.29 .29 .957 -113.3 51.634)"/><path d="m485.225 199.77 14.021 14.022c1.141 1.141 1.716 2.53 1.716 4.144v54.029c0 1.74-2.103 2.612-3.333 1.381l-15.167-15.167-15.166 15.166c-1.23 1.23-3.334.361-3.334-1.381v-54.029c0-1.614.575-3.002 1.716-4.144l14.022-14.022c1.521-1.521 4.004-1.521 5.524 0z" fill="#fcdb35" fill-rule="evenodd"/><path d="m493.882 269.599-14.926-14.994-14.994 14.994v-51.663c0-1.614.576-3.003 1.716-4.144l13.244-13.244 13.244 13.244c1.141 1.141 1.716 2.531 1.716 4.144z" fill="#ffeb87" fill-rule="evenodd"/><path d="m254.431 158.936h177.049v73.966c0 4.101-2.09 7.62-5.692 9.582-23.824 12.976-52.273 20.521-82.833 20.521s-59.008-7.545-82.833-20.521c-3.602-1.962-5.691-5.481-5.691-9.582z" fill="#7986bf" fill-rule="evenodd"/><path d="m254.431 158.936h156.062v71.381c0 4.1-1.903 8.014-5.692 9.582-43.807 18.134-98.503 18.07-150.37-11.787v-69.175z" fill="#909cd1" fill-rule="evenodd"/><path d="m203.388 146.501 132.211-35.426c5.039-1.35 9.67-1.35 14.709 0l132.212 35.426c2.652.711 4.434 3.033 4.434 5.779s-1.782 5.068-4.434 5.778l-132.212 35.426c-5.039 1.35-9.669 1.35-14.709 0l-132.211-35.426c-2.652-.711-4.434-3.033-4.434-5.778s1.782-5.068 4.434-5.779z" fill="#3d4a75" fill-rule="evenodd"/><path d="m470.444 143.265-120.135 32.19c-5.039 1.351-9.67 1.351-14.709 0l-120.135-32.19 120.135-32.19c5.039-1.35 9.67-1.35 14.709 0z" fill="#5d689e" fill-rule="evenodd"/><path d="m155.516 408.405c0-20.847-16.966-37.808-37.837-37.808s-37.789 16.962-37.789 37.808 16.966 37.823 37.789 37.823 37.837-16.971 37.837-37.823zm13.978 0c0 28.568-23.233 51.82-51.815 51.82s-51.767-23.252-51.767-51.82 23.233-51.811 51.767-51.811 51.815 23.252 51.815 51.811zm28.583-8.787v17.588l-9.737 1.918c-2.265.453-4.193 2.019-5.109 4.179l-8.628 20.924c-.916 2.159-.675 4.627.627 6.57l5.543 8.237-12.436 12.431-8.242-5.519c-1.976-1.301-4.434-1.552-6.603-.651l-20.871 8.662c-2.169.897-3.76 2.82-4.193 5.119l-1.928 9.722h-17.593l-1.928-9.722c-.434-2.299-2.024-4.222-4.194-5.119l-20.871-8.662c-2.169-.901-4.675-.651-6.604.651l-8.242 5.519-12.436-12.431 5.543-8.237c1.301-1.942 1.542-4.41.626-6.57l-8.676-20.924c-.868-2.159-2.796-3.726-5.109-4.179l-9.688-1.918v-17.588l9.688-1.923c2.314-.448 4.242-2.02 5.109-4.189l8.676-20.909c.916-2.159.675-4.632-.626-6.57l-5.543-8.242 12.436-12.431 8.242 5.519c1.928 1.301 4.386 1.552 6.604.65l20.871-8.657c2.169-.901 3.76-2.82 4.194-5.119l1.928-9.722h17.593l1.928 9.722c.434 2.299 2.024 4.217 4.193 5.119l20.871 8.657c2.169.901 4.627.651 6.603-.65l8.242-5.519 12.436 12.431-5.543 8.242c-1.301 1.938-1.542 4.41-.627 6.57l8.628 20.909c.916 2.169 2.844 3.74 5.109 4.189zm14.026-2.352v22.288c0 5.311-3.808 9.915-9.014 10.932l-8.339 1.649-5.784 13.983 4.724 7.071c2.94 4.41 2.362 10.329-1.349 14.089l-15.762 15.747c-3.76 3.76-9.688 4.343-14.123 1.383l-7.037-4.743-13.978 5.794-1.639 8.348c-1.06 5.21-5.639 8.989-10.941 8.989h-22.317c-5.302 0-9.881-3.779-10.942-8.989l-1.639-8.348-13.978-5.794-7.037 4.743c-4.434 2.95-10.363 2.376-14.123-1.383l-15.762-15.747c-3.711-3.76-4.338-9.679-1.35-14.104l4.724-7.056-5.784-13.983-8.339-1.649c-5.206-1.017-9.013-5.62-9.013-10.932v-22.288c0-5.311 3.808-9.91 9.013-10.927l8.339-1.653 5.784-13.978-4.724-7.071c-2.988-4.41-2.362-10.329 1.35-14.089l15.762-15.752c3.76-3.75 9.688-4.328 14.123-1.378l7.037 4.738 13.978-5.789 1.639-8.353c1.06-5.206 5.64-8.984 10.942-8.984h22.317c5.302 0 9.881 3.779 10.941 8.984l1.639 8.353 13.978 5.789 7.037-4.738c4.434-2.95 10.363-2.381 14.123 1.378l15.762 15.752c3.711 3.76 4.29 9.679 1.349 14.089l-4.724 7.071 5.784 13.978 8.339 1.653c5.206 1.017 9.014 5.615 9.014 10.927zm281.876-178.279-11.52-11.529-11.52 11.529v40.797l6.555-6.579c1.398-1.369 3.181-2.049 4.965-2.049s3.567.68 4.965 2.049l6.555 6.579zm-69.698-38.122-72.156 19.333c-3.133.839-6.17 1.258-9.158 1.258-3.036 0-6.073-.419-9.206-1.258l-72.156-19.333v54.399c24.052 13.592 52.056 20.75 81.362 20.75s57.262-7.158 81.314-20.75zm-4.627 72.508c10.122 11.081 11.472 26.983 3.23 42.532-1.784 3.422-.482 7.649 2.94 9.462 1.06.549 2.169.809 3.278.809 2.506 0 4.916-1.35 6.17-3.721 2.555-4.83 4.386-9.751 5.543-14.629 5.977 4.541 10.46 11.149 12.87 19.169 2.747 9.047 2.506 18.789-.434 27.33-2.844-2.781-6.121-5.08-9.736-6.82-3.47-1.677-7.664-.222-9.351 3.258s-.193 7.664 3.278 9.341c2.506 1.21 4.724 2.839 6.652 4.839 6.121 6.362 8.146 15.482 5.254 23.821-1.687 4.83-4.916 8.96-9.11 11.77-1.157-4.217-2.796-8.411-4.965-12.508-1.783-3.413-6.025-4.714-9.447-2.911-3.422 1.812-4.724 6.04-2.94 9.462 6.314 11.857 7.085 24.067 2.265 34.357-3.711 7.939-10.508 14.089-19.569 17.858.145-2.077.096-4.179-.048-6.3-1.494-16.48-13.159-30.525-29.113-34.955-3.711-1.046-7.567 1.138-8.628 4.868-1.012 3.721 1.157 7.577 4.868 8.618 10.363 2.882 17.979 12.012 18.895 22.712.964 10.71-4.916 21.03-14.605 25.686-8.821 4.242-19.329 3.08-26.992-2.767v-174.78c24.631-.892 48.345-6.522 69.698-16.504zm-83.724 191.25c-7.664 5.866-18.172 7.042-26.992 2.8-9.688-4.656-15.569-14.976-14.605-25.686.916-10.7 8.532-19.83 18.895-22.712 3.711-1.041 5.88-4.897 4.868-8.618-1.06-3.731-4.916-5.914-8.628-4.868-15.954 4.429-27.619 18.475-29.065 34.955-.193 2.111-.241 4.222-.048 6.29-9.158-3.808-16.003-10.03-19.714-18.036-4.724-10.262-3.904-22.394 2.362-34.169 1.784-3.422.482-7.649-2.94-9.462-3.422-1.812-7.664-.501-9.447 2.911-2.169 4.126-3.856 8.319-5.013 12.498-4.193-2.791-7.375-6.878-9.062-11.761-2.892-8.339-.868-17.458 5.254-23.821 1.928-2 4.145-3.629 6.651-4.839 3.47-1.678 4.965-5.861 3.278-9.341s-5.88-4.936-9.351-3.258c-3.615 1.74-6.893 4.039-9.736 6.82-2.989-8.599-3.133-18.389-.386-27.489 2.41-7.963 6.892-14.513 12.821-19.02 1.157 4.887 2.988 9.799 5.543 14.638 1.253 2.371 3.663 3.721 6.218 3.721 1.06 0 2.217-.26 3.229-.809 3.422-1.812 4.724-6.04 2.94-9.462-8.242-15.549-6.892-31.451 3.23-42.532 21.353 9.982 45.068 15.612 69.698 16.504v124.94c0 9.549-6.025 20.726-17.207 22.64-3.808.651-6.362 4.271-5.736 8.078.579 3.408 3.567 5.818 6.893 5.818.386 0 .771-.029 1.205-.096 5.784-.993 10.749-3.388 14.846-6.69v20.056zm-127.008-292.374 128.503-34.425c3.808-1.027 7.23-1.027 11.038 0l128.502 34.425-128.502 34.424c-3.808 1.032-7.23 1.032-11.038 0zm-124.694-29.783c-1.398-1.051-2.314-1.239-2.651-1.239-.048 0-.096 0-.096.01-.916.54-2.699 6.15 2.265 16.87 2.989 6.401 7.519 11.019 12.677 14.2-2.217-16.562-7.326-26.149-12.195-29.841zm67.432 15.641c4.965-10.72 3.181-16.33 2.266-16.88-.048 0-.048-.01-.096-.01-.289 0-1.253.178-2.651 1.248-4.868 3.692-9.978 13.279-12.195 29.841 5.157-3.181 9.688-7.799 12.676-14.2zm40.344-13.072c0 26.163-10.797 41.24-21.256 55.821-9.351 13.029-18.991 26.501-19.376 46.311h-13.448v-58.703c11.664-4.56 21.111-13.096 26.414-24.438 6.266-13.482 6.218-25.57-.145-32.328-4.194-4.463-10.363-5.683-16.436-3.263-10.219 4.049-21.015 19.102-23.377 49.213-2.265.366-4.531.54-6.7.54-2.121 0-4.386-.173-6.652-.54-2.362-30.111-13.159-45.164-23.377-49.213-6.073-2.42-12.243-1.2-16.437 3.263-6.362 6.758-6.41 18.846-.144 32.328 5.302 11.341 14.749 19.868 26.414 24.428v58.713h-13.448c-.386-19.81-10.026-33.283-19.377-46.311-10.459-14.581-21.256-29.657-21.256-55.821 0-45.241 38.512-65.842 74.277-65.842s74.325 20.601 74.325 65.842zm-50.177 143.873v-5.673h-48.297v5.673c0 1.099.964 2.015 2.072 2.015h44.2c1.109 0 2.024-.916 2.024-2.015zm-14.894 19.767v-3.75h-18.461v3.75c0 1.099.916 2.029 2.024 2.029h14.412c1.109 0 2.024-.93 2.024-2.029zm-3.037-61.509v-55.31c-4.049.429-8.339.429-12.387 0v55.31zm-39.862 13.997v6.039c0 1.104.964 2.034 2.024 2.034h63.239c1.109 0 2.073-.93 2.073-2.034v-6.039zm423.971-25.069v55.869c0 3.634-2.169 6.883-5.543 8.271s-7.182.631-9.785-1.938l-10.218-10.243-10.267 10.243c-1.687 1.716-4 2.627-6.314 2.627-1.157 0-2.314-.231-3.422-.689-3.374-1.388-5.543-4.637-5.543-8.271v-55.869c0-1.861.723-3.639 2.073-4.95l16.485-16.489v-27.508l-37.211 9.958v62.188c0 2.463-1.253 4.733-3.374 6.001-.82.501-1.687.959-2.506 1.441 5.784 7.418 9.11 16.171 9.737 25.469 11.954 6.039 20.822 16.909 24.968 30.762 4.579 15.212 2.796 31.99-4.772 45.178 2.94 7.963 3.181 16.822.289 25.19-3.422 9.852-10.941 17.873-20.389 22.033-.096 6.806-1.542 13.438-4.386 19.521-6.603 14.079-19.714 23.989-36.969 28.077-3.953 7.283-10.074 13.352-17.834 17.072-5.447 2.637-11.375 3.919-17.208 3.919-8.098 0-16.099-2.439-22.847-7.1-6.796 4.661-14.797 7.1-22.847 7.1-5.88 0-11.809-1.282-17.256-3.919-7.761-3.721-13.882-9.789-17.834-17.063-17.4-4.131-30.559-14.171-37.066-28.371-2.844-6.097-4.242-12.6-4.338-19.256-9.544-4.184-16.87-12.074-20.292-22.013-2.892-8.368-2.699-17.227.241-25.19-7.616-13.27-9.351-30.12-4.724-45.4 4.194-13.761 13.014-24.529 24.92-30.54.627-9.298 3.953-18.051 9.736-25.469-.819-.482-1.687-.94-2.506-1.441-2.121-1.268-3.374-3.538-3.374-6.001v-62.188l-45.983-12.32c-1.35-.352-2.555-.892-3.615-1.581-4.579 9.963-10.411 18.143-15.906 25.811-9.014 12.551-16.774 23.401-16.774 39.38v18.808c0 6.512-3.904 12.122-9.495 14.634v7.071c0 8.45-6.604 15.376-14.894 15.969v3.799c0 8.84-7.182 16.031-16.051 16.031h-14.412c-8.869 0-16.051-7.192-16.051-16.031v-3.799c-8.29-.593-14.894-7.519-14.894-15.969v-7.071c-5.591-2.511-9.495-8.122-9.495-14.634v-18.808c0-15.978-7.809-26.828-16.774-39.38-11.182-15.622-23.907-33.321-23.907-63.981 0-24.708 9.736-45.487 28.053-60.111 16.003-12.72 37.404-19.729 60.251-19.729s44.296 7.008 60.299 19.729c18.316 14.624 28.053 35.403 28.053 60.111 0 4.902-.338 9.471-.964 13.751l128.695-34.483c6.266-1.677 12.099-1.677 18.364 0l132.165 35.413c5.736 1.538 9.592 6.58 9.592 12.537 0 3.899-1.687 7.404-4.434 9.794v32.607l16.484 16.48c1.302 1.321 2.073 3.099 2.073 4.96zm-205.43 93.793c-2.988-2.444-7.375-2.005-9.833.998-2.458 2.989-2.024 7.399.964 9.847 4.386 3.572 6.893 8.864 6.893 14.513s-2.506 10.927-6.893 14.508c-2.989 2.439-3.422 6.849-.964 9.842 1.398 1.697 3.374 2.579 5.399 2.579 1.59 0 3.133-.52 4.434-1.581 7.664-6.252 12.05-15.487 12.05-25.349s-4.386-19.112-12.05-25.359zm80.736 50.707c1.301 1.06 2.844 1.581 4.435 1.581 2.024 0 4.001-.882 5.398-2.579 2.458-2.993 2.024-7.404-.964-9.842-4.386-3.581-6.892-8.869-6.892-14.508s2.506-10.942 6.892-14.513c2.989-2.449 3.422-6.859.964-9.847-2.41-3.003-6.845-3.442-9.833-.998-7.664 6.247-12.05 15.487-12.05 25.359s4.386 19.097 12.05 25.349zm-356.538-273.479c1.928-3.34.819-7.62-2.555-9.558l-9.736-5.62c-3.326-1.933-7.616-.79-9.544 2.56s-.82 7.63 2.555 9.558l9.736 5.63c1.109.632 2.314.94 3.47.94 2.458 0 4.772-1.258 6.073-3.509zm28.872-40.98c1.301 2.241 3.663 3.499 6.073 3.499 1.205 0 2.41-.299 3.47-.94 3.374-1.928 4.531-6.208 2.603-9.558l-5.736-9.862c-1.928-3.35-6.17-4.502-9.544-2.559-3.326 1.933-4.482 6.208-2.555 9.558l5.688 9.862zm114.524 2.559c1.109.641 2.314.94 3.519.94 2.41 0 4.772-1.258 6.073-3.499l5.687-9.862c1.928-3.35.771-7.626-2.555-9.558-3.374-1.943-7.664-.791-9.592 2.559l-5.687 9.862c-1.928 3.35-.771 7.63 2.554 9.558zm-52.49-14.06c3.904 0 7.037-3.138 7.037-6.999v-11.428c0-3.861-3.133-7.004-7.037-7.004-3.856 0-6.989 3.143-6.989 7.004v11.428c0 3.861 3.133 6.999 6.989 6.999zm90.954 52.481c1.253 2.251 3.615 3.509 6.025 3.509 1.205 0 2.41-.308 3.519-.94l9.736-5.63c3.326-1.928 4.483-6.208 2.555-9.558s-6.218-4.492-9.544-2.56l-9.736 5.62c-3.374 1.928-4.531 6.218-2.555 9.558z" fill-rule="evenodd"/></svg>