<svg id="Capa_1" enable-background="new 0 0 512 512" height="512" viewBox="0 0 512 512" width="512" xmlns="http://www.w3.org/2000/svg"><g><path d="m441.87 460.053s-42.427-42.427-79.803-127.28c-42.349-96.144-41.417-214.155-106.067-214.155s-63.718 118.011-106.067 214.154c-24.017 54.526-50.121 91.533-65.711 111.021-5.244 6.555-.596 16.259 7.798 16.259h349.85z" fill="#e490d0"/><path d="m482.168 460.053c8.39 0 13.058-9.708 7.805-16.249-10.492-13.065-25.16-34.008-38.819-62.83-28.309-59.734-27.686-133.055-70.904-133.055s-42.594 73.321-70.904 133.055c-24.985 52.72-53.346 79.08-53.346 79.08h226.168z" fill="#b3e59f"/><path d="m451.154 380.973c-28.309-59.734-27.686-133.055-70.904-133.055-4.909 0-9.248.955-13.132 2.72 30.312 13.771 32.678 77.386 57.771 130.335 24.985 52.72 53.346 79.08 53.346 79.08h3.932c8.39 0 13.058-9.708 7.805-16.249-10.491-13.066-25.159-34.009-38.818-62.831z" fill="#95d6a4"/><path d="m362.067 332.772c-42.349-96.143-41.417-214.154-106.067-214.154-4.521 0-8.71.597-12.627 1.703 40.526 11.447 50.714 79.54 71.782 151.316 2.218 7.558 2.156 15.608-.175 23.132-1.858 5.995-3.658 12.206-5.501 18.576-5.645 19.508-11.481 39.68-20.216 58.111-22.583 47.652-48.199 72.135-48.393 72.319l-17.514 16.278h193.26 15.152 10.102s-42.427-42.427-79.803-127.281z" fill="#df73c1"/><path d="m343.258 281.132c-10.945 26.804-17.664 65.558-33.912 99.841-24.985 52.72-53.346 79.08-53.346 79.08h185.87s-42.427-42.427-79.803-127.28c-7.398-16.795-13.472-34.257-18.809-51.641z" fill="#ac80dd"/><g><g><path d="m31.165 126.118h-7.502c-4.142 0-7.5-3.357-7.5-7.5s3.358-7.5 7.5-7.5h7.502c4.142 0 7.5 3.357 7.5 7.5s-3.358 7.5-7.5 7.5z" fill="#3d4fc3"/></g><g><path d="m466.715 126.118h-11.92c-4.143 0-7.5-3.357-7.5-7.5s3.357-7.5 7.5-7.5h11.92c4.143 0 7.5 3.357 7.5 7.5s-3.358 7.5-7.5 7.5zm-43.705 0h-11.92c-4.143 0-7.5-3.357-7.5-7.5s3.357-7.5 7.5-7.5h11.92c4.143 0 7.5 3.357 7.5 7.5s-3.358 7.5-7.5 7.5zm-43.706 0h-11.919c-4.143 0-7.5-3.357-7.5-7.5s3.357-7.5 7.5-7.5h11.919c4.143 0 7.5 3.357 7.5 7.5s-3.358 7.5-7.5 7.5zm-43.705 0h-11.919c-4.143 0-7.5-3.357-7.5-7.5s3.357-7.5 7.5-7.5h11.919c4.143 0 7.5 3.357 7.5 7.5s-3.358 7.5-7.5 7.5zm-43.705 0h-11.919c-4.143 0-7.5-3.357-7.5-7.5s3.357-7.5 7.5-7.5h11.919c4.143 0 7.5 3.357 7.5 7.5s-3.358 7.5-7.5 7.5zm-43.706 0h-11.919c-4.142 0-7.5-3.357-7.5-7.5s3.358-7.5 7.5-7.5h11.919c4.142 0 7.5 3.357 7.5 7.5s-3.357 7.5-7.5 7.5zm-43.705 0h-11.919c-4.142 0-7.5-3.357-7.5-7.5s3.358-7.5 7.5-7.5h11.919c4.142 0 7.5 3.357 7.5 7.5s-3.358 7.5-7.5 7.5zm-43.705 0h-11.92c-4.142 0-7.5-3.357-7.5-7.5s3.358-7.5 7.5-7.5h11.92c4.142 0 7.5 3.357 7.5 7.5s-3.358 7.5-7.5 7.5zm-43.705 0h-11.92c-4.142 0-7.5-3.357-7.5-7.5s3.358-7.5 7.5-7.5h11.92c4.142 0 7.5 3.357 7.5 7.5s-3.358 7.5-7.5 7.5zm-43.705 0h-11.92c-4.142 0-7.5-3.357-7.5-7.5s3.358-7.5 7.5-7.5h11.919c4.142 0 7.5 3.357 7.5 7.5s-3.357 7.5-7.499 7.5z" fill="#3d4fc3"/></g><g><path d="m504.5 126.118h-6c-4.143 0-7.5-3.357-7.5-7.5s3.357-7.5 7.5-7.5h6c4.143 0 7.5 3.357 7.5 7.5s-3.357 7.5-7.5 7.5z" fill="#3d4fc3"/></g></g><g><g><path d="m31.165 255.419h-7.502c-4.142 0-7.5-3.357-7.5-7.5s3.358-7.5 7.5-7.5h7.502c4.142 0 7.5 3.357 7.5 7.5s-3.358 7.5-7.5 7.5z" fill="#3d4fc3"/></g><g><path d="m466.715 255.419h-11.92c-4.143 0-7.5-3.357-7.5-7.5s3.357-7.5 7.5-7.5h11.92c4.143 0 7.5 3.357 7.5 7.5s-3.358 7.5-7.5 7.5zm-43.705 0h-11.92c-4.143 0-7.5-3.357-7.5-7.5s3.357-7.5 7.5-7.5h11.92c4.143 0 7.5 3.357 7.5 7.5s-3.358 7.5-7.5 7.5zm-43.706 0h-11.919c-4.143 0-7.5-3.357-7.5-7.5s3.357-7.5 7.5-7.5h11.919c4.143 0 7.5 3.357 7.5 7.5s-3.358 7.5-7.5 7.5zm-43.705 0h-11.919c-4.143 0-7.5-3.357-7.5-7.5s3.357-7.5 7.5-7.5h11.919c4.143 0 7.5 3.357 7.5 7.5s-3.358 7.5-7.5 7.5zm-43.705 0h-11.919c-4.143 0-7.5-3.357-7.5-7.5s3.357-7.5 7.5-7.5h11.919c4.143 0 7.5 3.357 7.5 7.5s-3.358 7.5-7.5 7.5zm-43.706 0h-11.919c-4.142 0-7.5-3.357-7.5-7.5s3.358-7.5 7.5-7.5h11.919c4.142 0 7.5 3.357 7.5 7.5s-3.357 7.5-7.5 7.5zm-43.705 0h-11.919c-4.142 0-7.5-3.357-7.5-7.5s3.358-7.5 7.5-7.5h11.919c4.142 0 7.5 3.357 7.5 7.5s-3.358 7.5-7.5 7.5zm-43.705 0h-11.92c-4.142 0-7.5-3.357-7.5-7.5s3.358-7.5 7.5-7.5h11.92c4.142 0 7.5 3.357 7.5 7.5s-3.358 7.5-7.5 7.5zm-43.705 0h-11.92c-4.142 0-7.5-3.357-7.5-7.5s3.358-7.5 7.5-7.5h11.92c4.142 0 7.5 3.357 7.5 7.5s-3.358 7.5-7.5 7.5zm-43.705 0h-11.92c-4.142 0-7.5-3.357-7.5-7.5s3.358-7.5 7.5-7.5h11.919c4.142 0 7.5 3.357 7.5 7.5s-3.357 7.5-7.499 7.5z" fill="#3d4fc3"/></g><g><path d="m504.5 255.419h-6c-4.143 0-7.5-3.357-7.5-7.5s3.357-7.5 7.5-7.5h6c4.143 0 7.5 3.357 7.5 7.5s-3.357 7.5-7.5 7.5z" fill="#3d4fc3"/></g></g><path d="m504.5 480.837h-473.337v-473.337c0-4.143-3.358-7.5-7.5-7.5s-7.5 3.357-7.5 7.5v38.968h-8.663c-4.142 0-7.5 3.357-7.5 7.5s3.358 7.5 7.5 7.5h8.663v49.65h-8.663c-4.142 0-7.5 3.357-7.5 7.5s3.358 7.5 7.5 7.5h8.663v49.65h-8.663c-4.142 0-7.5 3.357-7.5 7.5s3.358 7.5 7.5 7.5h8.663v49.65h-8.663c-4.142 0-7.5 3.357-7.5 7.5s3.358 7.5 7.5 7.5h8.663v49.65h-8.663c-4.142 0-7.5 3.357-7.5 7.5s3.358 7.5 7.5 7.5h8.663v49.65h-8.663c-4.142 0-7.5 3.357-7.5 7.5s3.358 7.5 7.5 7.5h8.663v49.65h-8.663c-4.142 0-7.5 3.357-7.5 7.5s3.358 7.5 7.5 7.5h8.663v38.967c0 4.143 3.358 7.5 7.5 7.5h38.967v8.663c0 4.143 3.358 7.5 7.5 7.5s7.5-3.357 7.5-7.5v-8.663h49.65v8.663c0 4.143 3.358 7.5 7.5 7.5s7.5-3.357 7.5-7.5v-8.663h49.65v8.663c0 4.143 3.358 7.5 7.5 7.5s7.5-3.357 7.5-7.5v-8.663h49.65v8.663c0 4.143 3.357 7.5 7.5 7.5s7.5-3.357 7.5-7.5v-8.663h49.65v8.663c0 4.143 3.357 7.5 7.5 7.5s7.5-3.357 7.5-7.5v-8.663h49.65v8.663c0 4.143 3.357 7.5 7.5 7.5s7.5-3.357 7.5-7.5v-8.663h49.65v8.663c0 4.143 3.357 7.5 7.5 7.5s7.5-3.357 7.5-7.5v-8.663h38.97c4.143 0 7.5-3.357 7.5-7.5s-3.357-7.498-7.5-7.498z" fill="#ac80dd"/></g></svg>