<svg id="Layer_1" viewBox="0 0 64 64" xmlns="http://www.w3.org/2000/svg" data-name="Layer 1"><path d="m25 36c-5.52 0-10 2.24-10 5v16c0 2.76 4.48 5 10 5s10-2.24 10-5v-16c0-2.76-4.48-5-10-5z" fill="#596c80"/><path d="m35 41v8c0 2.76-4.48 5-10 5s-10-2.24-10-5v-8c0 2.76 4.48 5 10 5s10-2.24 10-5z" fill="#54cc59"/><circle cx="38" cy="51" fill="#ffba33" r="11"/><path d="m45.3 48.5v-2h-5v2h1.5v5h-1.5v2h5v-2h-1.5v-5z" fill="#805d1a"/><path d="m35.5 46.5h-2c-.47 0-.87.33-.98.78l-1.83 8.22h2.05l.44-2h2.62l.44 2h2.05l-1.83-8.22c-.1-.46-.51-.78-.98-.78zm-1.86 5 .67-3h.4l.67 3h-1.73z" fill="#805d1a"/><g fill="#798899"><path d="m33 28h2v6h-2z"/><path d="m33 24h2v2h-2z"/><path d="m59 51h-6v-2h5v-30h2v31c0 .55-.45 1-1 1z"/><path d="m58 15h2v2h-2z"/><path d="m11 51h-6c-.55 0-1-.45-1-1v-15h2v14h5z"/><path d="m4 31h2v2h-2z"/></g><path d="m53.42 12.36 5.99-10.36h-11.97l1.99 3.45-17.32 10-5-8.66-22.52 13 2 3.46 19.06-11 5 8.66 20.78-12z" fill="#e55c62"/></svg>