<svg id="Layer_1" enable-background="new 0 0 493.076 493.076" viewBox="0 0 493.076 493.076" xmlns="http://www.w3.org/2000/svg"><g><g><g><g><path d="m246.538 471.056 204.61-247.326h-409.219z" fill="#fd8f01"/><path d="m41.929 223.73 84.581-98.357h120.028 120.028l84.582 98.357z" fill="#fdcb50"/><path d="m321.701 223.715-75.163-98.342-75.162 98.342z" fill="#fff"/><path d="m126.51 125.373h120.028l-75.162 98.342z" fill="#fde0be"/><path d="m366.566 125.373h-120.028l75.163 98.342z" fill="#fde0be"/><path d="m246.538 471.076 75.163-247.356h-150.325z" fill="#fdcb50"/></g></g><g><path d="m403.538 47.076c17.882 11.012 32.988 26.118 44 44.001 11.012-17.883 26.118-32.989 44-44-17.882-11.012-32.988-26.118-44-44.001-11.012 17.882-26.118 32.989-44 44z" fill="#fdcb50"/></g><g><path d="m1.538 441.787c20.844 12.836 38.452 30.445 51.288 51.289 12.836-20.845 30.445-38.453 51.288-51.288-20.844-12.836-38.452-30.445-51.288-51.289-12.836 20.844-30.444 38.453-51.288 51.288z" fill="#fdcb50"/></g></g><g><path d="m458.727 217.21-84.578-98.357c-1.899-2.209-4.668-3.48-7.582-3.48h-240.057c-2.914 0-5.683 1.271-7.582 3.48l-84.579 98.357c-3.177 3.694-3.229 9.14-.123 12.895l204.607 247.325c1.899 2.296 4.725 3.625 7.705 3.625s5.806-1.33 7.705-3.626l204.607-247.325c3.105-3.754 3.053-9.2-.123-12.894zm-327.627-81.837h230.877l67.38 78.357h-365.638zm115.438 319.994-183.355-221.637h366.71z" fill="#052a75"/><g><path d="m246.538 87.359c-5.522 0-10-4.477-10-10v-67.359c0-5.523 4.478-10 10-10s10 4.477 10 10v67.359c0 5.523-4.477 10-10 10z" fill="#fd8f01"/></g><g><path d="m180.214 87.36c-3.457 0-6.817-1.793-8.67-5.001l-17.657-30.583c-2.762-4.783-1.123-10.899 3.66-13.66 4.784-2.762 10.898-1.122 13.66 3.66l17.657 30.583c2.762 4.783 1.123 10.899-3.66 13.66-1.574.909-3.294 1.341-4.99 1.341z" fill="#fd8f01"/></g><g><path d="m312.862 87.36c-1.696 0-3.415-.432-4.99-1.341-4.783-2.761-6.422-8.877-3.66-13.66l17.657-30.583c2.761-4.782 8.876-6.422 13.66-3.66 4.783 2.761 6.422 8.877 3.66 13.66l-17.657 30.583c-1.851 3.208-5.214 5.001-8.67 5.001z" fill="#fd8f01"/></g></g></g><g/><g/><g/><g/><g/><g/><g/><g/><g/><g/><g/><g/><g/><g/><g/></svg>