<svg id="Diamond" enable-background="new 0 0 64 64" height="512" viewBox="0 0 64 64" width="512" xmlns="http://www.w3.org/2000/svg" xmlns:x="http://ns.adobe.com/Extensibility/1.0/" xmlns:i="http://ns.adobe.com/AdobeIllustrator/10.0/" xmlns:graph="http://ns.adobe.com/Graphs/1.0/"><g><path d="m63.995 19.719c-.011.403-.17.805-.424 1.166l-30.1 36.565c-.297.382-.721.615-1.166.689-.212.032-.403.032-.615.011h-.01c-.445-.074-.869-.307-1.177-.699l-30.1-36.459c-.276-.382-.413-.827-.403-1.272.011-.403.148-.806.403-1.166l9.327-11.977c.18-.233.424-.435.71-.562.233-.117.488-.18.774-.18h41.547c.297 0 .541.064.763.191.265.127.488.318.721.551l9.327 11.871c.328.381.455.826.423 1.271z" fill="#4aabf4"/><path d="m42.798 19.719-10.493 38.421c-.212.032-.403.032-.615.011h-.01l-10.503-38.432z" fill="#7cc0f2"/><path d="m63.995 19.719h-63.994c.011-.403.148-.806.403-1.166l9.326-11.976c.18-.233.424-.435.71-.562.233-.117.488-.18.774-.18h41.547c.297 0 .541.064.763.191.265.127.488.318.721.551l9.327 11.871c.328.381.455.826.423 1.271z" fill="#a4d1f7"/><g fill="#4aabf4"><path d="m11.214 5.835h20.773c-3.604 4.663-7.207 9.221-10.811 13.884l-10.736-13.704c.233-.116.488-.18.774-.18z"/><path d="m53.524 6.026-10.726 13.693c-3.604-4.663-7.207-9.221-10.811-13.884h20.773c.297 0 .541.064.764.191z"/></g></g></svg>