<svg id="Capa_1" enable-background="new 0 0 512.007 512.007" height="512" viewBox="0 0 512.007 512.007" width="512" xmlns="http://www.w3.org/2000/svg"><g><g><path d="m405.104 271.787v216.15c0 9.15-7.417 16.567-16.567 16.567h-265.067c-9.149 0-16.567-7.417-16.567-16.567v-216.15z" fill="#ecbf71"/><path d="m382.104 271.787v216.15c0 9.15-7.417 16.567-16.567 16.567h23c9.15 0 16.567-7.417 16.567-16.567v-216.15z" fill="#e9b255"/><path d="m405.103 239.437h-107.683l-42.756 20.913-40.077-20.913h-107.684c-9.149 0-16.567 7.417-16.567 16.567v16.567c0 9.15 7.417 16.567 16.567 16.567h298.2c9.149 0 16.567-7.417 16.567-16.567v-16.567c0-9.15-7.417-16.567-16.567-16.567z" fill="#e39736"/><path d="m405.103 239.437h-23.066c9.149 0 16.567 7.417 16.567 16.567v16.567c0 9.15-7.417 16.567-16.567 16.567h23.066c9.149 0 16.567-7.417 16.567-16.567v-16.567c0-9.15-7.417-16.567-16.567-16.567z" fill="#de8631"/><path d="m313.987 140.037-21.687 40.895c-2.873 5.418-8.504 8.805-14.636 8.805h-43.321c-6.132 0-11.763-3.387-14.636-8.805l-21.687-40.895v-10.618h115.967z" fill="#d6e3fa"/><path d="m290.987 129.419v10.618l-21.687 40.895c-2.873 5.418-8.504 8.805-14.636 8.805h23c6.132 0 11.763-3.387 14.636-8.805l21.687-40.895v-10.618z" fill="#bdd5f8"/><path d="m410.104 106.904h-308.201v33.133h69.456l84.644-18.697 84.645 18.697h69.456z" fill="#617881"/><path d="m223.437 371.97h-67.4c-8.837 0-16 7.164-16 16v67.4c0 8.837 7.163 16 16 16h67.4c8.837 0 16-7.163 16-16v-67.4c0-8.836-7.164-16-16-16z" fill="#ecf3fd"/><path d="m198.303 405.104h-17.133c-4.418 0-8 3.582-8 8v17.133c0 4.418 3.582 8 8 8h17.133c4.418 0 8-3.582 8-8v-17.133c0-4.419-3.581-8-8-8z" fill="#a3f3c3"/><path d="m297.42 239.437v91.104c0 6.439-7.024 10.415-12.545 7.103l-20.348-12.209c-5.246-3.148-11.801-3.148-17.047 0l-20.348 12.209c-5.521 3.313-12.545-.664-12.545-7.103v-91.104z" fill="#82b7f9"/><g><path d="m496.209 24.07c6.158 0 10.163 6.48 7.409 11.988l-5.994 11.988c-2.806 5.612-8.543 9.158-14.818 9.158h-119.109c-6.158 0-10.163-6.48-7.409-11.988l5.994-11.988c2.806-5.613 8.543-9.158 14.818-9.158z" fill="#d6e3fa"/><path d="m496.21 24.07h-23c6.158 0 10.163 6.48 7.409 11.988l-5.994 11.988c-2.806 5.613-8.543 9.158-14.818 9.158h23c6.275 0 12.012-3.545 14.818-9.158l5.994-11.988c2.753-5.508-1.252-11.988-7.409-11.988z" fill="#bdd5f8"/><path d="m446.52 102.806v-78.736c0-9.149-7.417-16.567-16.567-16.567-9.15 0-16.567 7.417-16.567 16.567v78.735h33.134z" fill="#ecf3fd"/><path d="m429.103 189.737h1.7c13.255 0 24-10.745 24-24v-67.4c0-4.418-3.582-8-8-8h-33.7c-4.418 0-8 3.582-8 8v67.4c0 13.255 10.746 24 24 24z" fill="#d6e3fa"/><path d="m446.803 90.337h-23c4.418 0 8 3.582 8 8v67.4c0 9.429-5.44 17.583-13.35 21.508 3.21 1.592 6.824 2.492 10.65 2.492h1.7c13.255 0 24-10.745 24-24v-67.4c0-4.418-3.581-8-8-8z" fill="#bdd5f8"/></g><path d="m340.648 140.037h-169.289c-2.973 0-4.908-3.129-3.578-5.789l33.943-67.887c2.806-5.612 8.543-9.158 14.818-9.158h78.922c6.275 0 12.011 3.545 14.818 9.158l33.943 67.887c1.33 2.66-.604 5.789-3.577 5.789z" fill="#ecf3fd"/><path d="m344.226 134.248-33.943-67.887c-2.806-5.612-8.542-9.158-14.818-9.158h-23c6.275 0 12.012 3.545 14.818 9.158l33.943 67.887c1.33 2.66-.604 5.789-3.578 5.789h23c2.974 0 4.907-3.129 3.578-5.789z" fill="#d6e3fa"/><path d="m274.42 239.437v91.104c0 .272-.03.534-.054.797l10.509 6.305c5.521 3.313 12.545-.664 12.545-7.103v-91.104h-23z" fill="#66a4f7"/><path d="m223.437 371.97h-23c8.837 0 16 7.163 16 16v67.4c0 8.837-7.163 16-16 16h23c8.837 0 16-7.163 16-16v-67.4c0-8.836-7.164-16-16-16z" fill="#d6e3fa"/><path d="m198.303 405.104h-17.133c-1.037 0-2.024.204-2.933.562 2.965 1.171 5.067 4.056 5.067 7.438v17.133c0 3.382-2.101 6.267-5.067 7.438.909.359 1.896.562 2.933.562h17.133c4.418 0 8-3.582 8-8v-17.133c0-4.419-3.581-8-8-8z" fill="#81df9e"/><path d="m15.797 24.07c-6.158 0-10.163 6.48-7.409 11.988l5.994 11.988c2.806 5.612 8.543 9.158 14.818 9.158h119.109c6.158 0 10.163-6.48 7.409-11.988l-5.994-11.988c-2.806-5.613-8.543-9.158-14.818-9.158z" fill="#d6e3fa"/><path d="m155.718 45.216-5.994-11.988c-2.806-5.613-8.543-9.158-14.818-9.158h-23c6.275 0 12.011 3.545 14.818 9.158l5.994 11.988c2.754 5.507-1.251 11.988-7.409 11.988h23c6.158 0 10.163-6.481 7.409-11.988z" fill="#bdd5f8"/><path d="m98.62 102.806v-78.736c0-9.149-7.417-16.567-16.567-16.567-9.15 0-16.567 7.417-16.567 16.567v78.735h33.134z" fill="#ecf3fd"/><path d="m81.203 189.737h1.7c13.255 0 24-10.745 24-24v-67.4c0-4.418-3.582-8-8-8h-33.7c-4.418 0-8 3.582-8 8v67.4c0 13.255 10.746 24 24 24z" fill="#d6e3fa"/><path d="m98.904 90.337h-23c4.418 0 8 3.582 8 8v67.4c0 9.429-5.44 17.583-13.35 21.508 3.21 1.592 6.824 2.492 10.65 2.492h1.7c13.255 0 24-10.745 24-24v-67.4c0-4.418-3.582-8-8-8z" fill="#bdd5f8"/></g><g><path d="m223.437 364.47h-67.4c-12.958 0-23.5 10.542-23.5 23.5v18.7c0 4.142 3.357 7.5 7.5 7.5s7.5-3.358 7.5-7.5v-18.7c0-4.687 3.813-8.5 8.5-8.5h67.4c4.687 0 8.5 3.813 8.5 8.5v67.4c0 4.687-3.813 8.5-8.5 8.5h-67.4c-4.687 0-8.5-3.813-8.5-8.5v-18.7c0-4.142-3.357-7.5-7.5-7.5s-7.5 3.358-7.5 7.5v18.7c0 12.958 10.542 23.5 23.5 23.5h67.4c12.958 0 23.5-10.542 23.5-23.5v-67.4c0-12.958-10.542-23.5-23.5-23.5z"/><path d="m198.303 445.737c8.547 0 15.5-6.953 15.5-15.5v-17.133c0-8.547-6.953-15.5-15.5-15.5h-17.133c-8.547 0-15.5 6.953-15.5 15.5v17.133c0 8.547 6.953 15.5 15.5 15.5zm-17.633-15.5v-17.133c0-.276.225-.5.5-.5h17.133c.275 0 .5.224.5.5v17.133c0 .276-.225.5-.5.5h-17.133c-.275 0-.5-.224-.5-.5z"/><path d="m371.97 447.303h-33.133c-4.143 0-7.5 3.358-7.5 7.5s3.357 7.5 7.5 7.5h33.133c4.143 0 7.5-3.358 7.5-7.5s-3.357-7.5-7.5-7.5z"/><path d="m347.121 429.17h16.566c4.143 0 7.5-3.358 7.5-7.5s-3.357-7.5-7.5-7.5h-16.566c-4.143 0-7.5 3.358-7.5 7.5s3.357 7.5 7.5 7.5z"/><path d="m509.635 24.055c-2.897-4.687-7.916-7.485-13.426-7.485h-43.392c-3.16-9.608-12.212-16.567-22.863-16.567-10.652 0-19.704 6.959-22.865 16.567h-29.989c-9.176 0-17.424 5.098-21.525 13.304l-5.994 11.987c-2.465 4.928-2.206 10.669.69 15.356 2.897 4.688 7.916 7.486 13.427 7.486h42.189v19.927c-4.919 2.601-8.283 7.765-8.283 13.706v1.066h-62.414l-18.198-36.396c-4.103-8.205-12.352-13.303-21.526-13.303h-78.922c-9.175 0-17.423 5.098-21.526 13.304l-18.198 36.396h-62.414v-1.066c0-5.941-3.364-11.105-8.283-13.706v-19.927h42.188c5.511 0 10.529-2.798 13.427-7.486 2.896-4.688 3.155-10.428.69-15.356l-5.993-11.987c-4.103-8.206-12.351-13.304-21.526-13.304h-29.989c-3.16-9.608-12.213-16.567-22.865-16.567s-19.706 6.958-22.865 16.566h-43.393c-5.51 0-10.528 2.798-13.426 7.485-2.896 4.687-3.155 10.427-.691 15.356l5.994 11.989c4.103 8.206 12.352 13.304 21.526 13.304h28.786v19.927c-4.919 2.601-8.283 7.765-8.283 13.706v67.4c0 17.369 14.131 31.5 31.5 31.5h1.7c17.369 0 31.5-14.131 31.5-31.5v-18.2h79.104l9.616 18.133h-.452c-11.064 0-20.665 7.497-23.348 18.23l-12.009 48.037h-12.278c-4.143 0-7.5 3.358-7.5 7.5s3.357 7.5 7.5 7.5h18.108c.011 0 .021.002.032.002.008 0 .015-.002.023-.002h33.887v34.701h-100.182c-5 0-9.067-4.067-9.067-9.067v-16.567c0-4.999 4.067-9.066 9.067-9.066h18.133c4.143 0 7.5-3.358 7.5-7.5s-3.357-7.5-7.5-7.5h-18.133c-13.271 0-24.067 10.796-24.067 24.066v16.567c0 10.652 6.959 19.704 16.567 22.864v192.503c0 13.27 10.796 24.066 24.066 24.066h265.067c13.271 0 24.066-10.796 24.066-24.066v-192.504c9.607-3.16 16.565-12.212 16.565-22.864v-16.567c0-13.27-10.796-24.066-24.066-24.066h-60.411l-12.009-48.036c-2.683-10.734-12.283-18.231-23.348-18.231h-.453l9.616-18.133h79.104v18.2c0 17.369 14.131 31.5 31.5 31.5h1.7c17.369 0 31.5-14.131 31.5-31.5v-67.4c0-5.941-3.364-11.105-8.283-13.706v-19.927h28.786c9.175 0 17.423-5.098 21.526-13.304l5.995-11.988c2.466-4.929 2.207-10.67-.69-15.357zm-62.832 73.782c.275 0 .5.224.5.5v50.767h-34.7v-50.767c0-.276.225-.5.5-.5zm-25.917-15v-34.7h18.134v34.7zm9.068-67.833c4.999 0 9.066 4.067 9.066 9.067v9.066h-18.134v-9.067c0-4.999 4.068-9.066 9.068-9.066zm-66.256 34.7c-.119 0-.438 0-.667-.372s-.088-.655-.034-.762l5.995-11.988c1.545-3.091 4.651-5.011 8.108-5.011h28.786v18.133zm-298.994 48.633c0-.276.225-.5.5-.5h33.7c.275 0 .5.224.5.5v50.767h-34.7zm8.283-50.2h18.134v34.7h-18.134zm70.029-11.555 5.994 11.988c.054.106.195.39-.034.762-.23.372-.548.372-.667.372h-42.188v-18.134h28.786c3.457 0 6.563 1.92 8.109 5.012zm-60.963-21.578c5 0 9.067 4.067 9.067 9.067v9.066h-18.133v-9.067c0-4.999 4.067-9.066 9.066-9.066zm-52.852 34.7c-3.457 0-6.564-1.921-8.11-5.012l-5.993-11.987c-.054-.107-.195-.391.034-.762.229-.372.547-.372.666-.372h42.189v18.133zm53.703 132.533h-1.7c-9.098 0-16.5-7.402-16.5-16.5v-1.633h34.7v1.633c0 9.098-7.403 16.5-16.5 16.5zm31.5-67.834h54.914l-9.067 18.134h-45.847zm175.516 132.534v83.604c0 .137 0 .457-.398.682-.394.225-.671.061-.789-.01l-20.349-12.209c-7.637-4.582-17.127-4.582-24.764 0l-20.35 12.209c-.116.071-.393.234-.788.01-.398-.225-.398-.545-.398-.682v-83.604zm98.618 250.067h-265.068c-4.999 0-9.066-4.067-9.066-9.066v-191.3h92.683v33.903c0 5.762 2.993 10.896 8.007 13.735 2.448 1.386 5.116 2.077 7.781 2.077 2.795 0 5.587-.761 8.115-2.278l20.349-12.209c2.879-1.727 6.453-1.726 9.33 0l20.349 12.209c4.938 2.964 10.881 3.04 15.897.201 5.014-2.839 8.007-7.973 8.007-13.735v-33.903h92.684v191.3c-.002 4.998-4.069 9.066-9.068 9.066zm25.631-241.001v16.567c0 5-4.067 9.067-9.066 9.067h-100.183v-34.701h33.887c.008 0 .015.002.023.002.01 0 .021-.002.032-.002h66.241c4.999.001 9.066 4.068 9.066 9.067zm-104.834-75.333c4.168 0 7.785 2.824 8.795 6.868l11.1 44.399h-146.453l11.1-44.4c1.01-4.043 4.627-6.867 8.795-6.867h8.407l2.002 3.775c4.185 7.89 12.331 12.791 21.262 12.791h43.322c8.931 0 17.077-4.901 21.262-12.791l2.002-3.775zm-19.504-11.091c-.008.014-.014.027-.022.041l-4.135 7.798c-1.576 2.972-4.646 4.819-8.01 4.819h-43.322c-3.364 0-6.434-1.847-8.01-4.819l-4.135-7.798c-.008-.014-.014-.027-.022-.041l-11.689-22.042h91.033zm24.156-37.042h-115.967-20.999l31.411-62.821c1.546-3.092 4.653-5.012 8.11-5.012h78.922c3.457 0 6.565 1.92 8.11 5.012l31.411 62.822h-20.998zm37.769 0-9.067-18.134h54.914v18.134zm79.047 49.7h-1.7c-9.098 0-16.5-7.402-16.5-16.5v-1.633h34.7v1.633c0 9.098-7.402 16.5-16.5 16.5zm66.108-149.533-5.994 11.987c-1.546 3.092-4.653 5.013-8.11 5.013h-28.787v-18.134h42.19c.119 0 .436 0 .666.372.229.372.087.655.035.762z"/><path d="m239.437 82.837c-4.143 0-7.5 3.358-7.5 7.5v16.566c0 4.142 3.357 7.5 7.5 7.5s7.5-3.358 7.5-7.5v-16.566c0-4.142-3.357-7.5-7.5-7.5z"/><path d="m272.57 82.837c-4.143 0-7.5 3.358-7.5 7.5v16.566c0 4.142 3.357 7.5 7.5 7.5s7.5-3.358 7.5-7.5v-16.566c0-4.142-3.358-7.5-7.5-7.5z"/></g></g></svg>