<svg viewBox="0 0 512 512" xmlns="http://www.w3.org/2000/svg"><g id="b" data-name="Layer 5"><g><g><path d="m264.388 438.581c10.995-10.995 28.821-10.995 39.815 0l7.618 7.618c-10.185-11.243-10.106-28.997.921-39.613 11.022-10.612 28.561-10.485 39.427.381 1.591 1.601 4.77 4.79 8.734 8.762-10.362-10.979-10.178-28.276.567-39.021 11.017-11.017 28.907-10.928 39.814.198 1.281 1.181 3.515 3.501 6.152 6.326 24.283-31.95 38.706-71.802 38.706-115.029 0-105.092-85.193-190.285-190.285-190.285s-190.284 85.194-190.284 190.286c0 43.251 14.439 83.124 38.747 115.083 2.969-2.865 5.386-5.251 6.396-6.379 10.907-11.126 28.797-11.215 39.814-.198 10.745 10.745 10.929 28.042.567 39.021 3.964-3.973 7.143-7.162 8.734-8.762 10.866-10.866 28.405-10.993 39.427-.381 11.027 10.617 11.106 28.37.921 39.613l7.618-7.618c10.995-10.995 28.821-10.995 39.815 0 5.497 5.497 8.246 12.702 8.246 19.908.095 0 .189-.003.284-.004 0-7.204 2.75-14.408 8.246-19.904z" fill="#33a6fb"/><path d="m347.091 286.541c11.732 0 21.256 9.525 21.256 21.256v7.348c0 11.732-9.525 21.256-21.256 21.256h-9.185c-6.662 0-12.071-5.409-12.071-12.071v-16.533c0-11.732 9.525-21.256 21.256-21.256z" fill="#29d0b3"/><path d="m365.942 161.557c-15.154 0-27.439 12.285-27.439 27.439s12.285 27.439 27.439 27.439c15.571 0 28.195 12.623 28.195 28.194v29.045c0 6.462 1.908 12.78 5.485 18.161 6.081 9.147 16.336 14.644 27.32 14.644h15.35c2.525-12.364 3.852-25.165 3.852-38.275 0-39.522-12.051-76.227-32.676-106.647h-47.525z" fill="#29d0b3"/><g fill="#ffd5ae"><path d="m215.639 425.337c15.538 0 28.154 12.615 28.154 28.154v10.178c0 28.755-23.346 52.101-52.101 52.101h-4.206v-62.28c0-15.538 12.615-28.154 28.154-28.154z" transform="matrix(.707 .707 -.707 .707 395.891 -14.658)"/><path d="m199.257 406.586c-11.022-10.612-28.561-10.485-39.427.381-6.258 6.295-37.02 37.101-43.891 43.949-.633.624-1.45 1.369-2.071 2.013-.014-.018-.03-.036-.044-.055-12.494 10.895-29.956 13.126-44.485 6.593v.004s6.297 9.632 6.297 9.632c5.731 8.767 13.457 16.052 22.544 21.26 21.719 12.446 49.084 8.799 66.785-8.902l34.23-34.23c11.161-11.161 11.43-29.698.06-40.645z"/><path d="m66.429 322.44 3.241-14.827c-2.678-12.716-4.097-25.897-4.097-39.41 0-8.134.513-16.148 1.503-24.014-27.01 9.044-47.831 31.825-53.812 60.557l-3.234 15.536-.03.004.011.084-.011.053.019.004 8.507 64.24c.716 5.406 5.679 9.209 11.086 8.493 25.348-3.357 43.086-26.751 39.477-52.064l-2.66-18.659z"/><path d="m150.53 376.709c-11.017-11.017-28.907-10.928-39.814.198l-5.095 5.198-1.288 1.218c-16.721-21.975-28.77-47.696-34.669-75.685l-3.235 14.802 2.66 18.659c3.044 21.35-9.099 41.335-28.186 49.083l4.597 37.235c1.136 9.2 5.414 17.726 12.111 24.137 16.383 15.681 42.293 15.398 58.328-.638l34.59-34.59c10.94-10.94 10.94-28.677 0-39.617z"/><path d="m268.207 425.337h4.206c28.755 0 52.101 23.346 52.101 52.101v10.178c0 15.538-12.615 28.154-28.154 28.154-15.538 0-28.154-12.615-28.154-28.154v-62.28z" transform="matrix(-.707 .707 -.707 -.707 838.652 593.727)"/><path d="m312.743 406.586c11.022-10.612 28.561-10.485 39.427.381 6.258 6.295 37.02 37.101 43.891 43.949.633.624 1.45 1.369 2.071 2.013.014-.018.03-.036.044-.055 12.494 10.895 29.956 13.126 44.485 6.593v.004s-6.297 9.632-6.297 9.632c-5.731 8.767-13.457 16.052-22.544 21.26-21.719 12.446-49.084 8.799-66.785-8.902l-34.23-34.23c-11.161-11.161-11.43-29.698-.06-40.645z"/><path d="m445.571 322.44-3.241-14.827c2.678-12.716 4.097-25.897 4.097-39.41 0-8.134-.513-16.148-1.503-24.014 27.01 9.044 47.831 31.825 53.812 60.557l3.234 15.536.03.004-.011.084.011.053-.019.004-8.507 64.24c-.716 5.406-5.679 9.209-11.086 8.493-25.348-3.357-43.086-26.751-39.477-52.064l2.66-18.659z"/><path d="m361.47 376.709c11.017-11.017 28.907-10.928 39.814.198l5.095 5.198 1.288 1.218c16.721-21.975 28.77-47.696 34.669-75.685l3.235 14.802-2.66 18.659c-3.044 21.35 9.099 41.335 28.186 49.083l-4.597 37.235c-1.136 9.2-5.414 17.726-12.111 24.137-16.383 15.681-42.293 15.398-58.328-.638l-34.59-34.59c-10.94-10.94-10.94-28.677 0-39.617z"/></g><path d="m122.137 309.562c7.029 0 12.728 5.698 12.728 12.727 0 7.03-5.698 12.728-12.728 12.728-15.142 0-28.34 8.259-35.382 20.507 5.061 9.781 10.953 19.061 17.569 27.758 2.967-2.863 5.382-5.248 6.392-6.375 10.907-11.126 28.797-11.215 39.814-.198 10.745 10.745 10.929 28.042.567 39.021 3.964-3.973 7.143-7.162 8.734-8.762 8.259-8.259 20.369-10.307 30.546-6.159 1.774-5.159 2.746-10.693 2.746-16.456 0-8.551 6.932-15.483 15.483-15.483h11.809c15.073 0 27.292-12.219 27.292-27.292v-28.341c0-6.667-5.404-12.071-12.071-12.071h-44.612c-6.087 0-11.021-4.935-11.021-11.022s4.935-11.021 11.021-11.021c12.464 0 22.568-10.104 22.568-22.568v-8.66c0-17.247 13.982-31.228 31.228-31.228h4.724c15.218 0 27.554-12.336 27.554-27.554s-12.336-27.554-27.554-27.554h-48.548c-8.116 0-14.696-6.58-14.696-14.696s-6.579-14.696-14.696-14.696h-48.776c-35.323 34.546-57.255 82.727-57.255 136.038 0 14.205 1.569 28.042 4.521 41.358h52.043z" fill="#29d0b3"/></g><g><path d="m385.292 44.357h21.74c26.217 0 47.502 21.285 47.502 47.502v48.063h-10.591c-32.37 0-58.651-26.281-58.651-58.651z" fill="#29d0b3" transform="matrix(.28 -.96 .96 .28 213.979 469.51)"/><g><path d="m370.435 91.139c4.21-14.45 14.688-25.36 27.608-30.66-.925-5.095-2.838-10.098-5.814-14.724l-22.265-34.608-7.626 4.906c-23.324 15.005-30.068 46.077-15.062 69.401l17.08 26.549 6.079-20.863z" fill="#29d0b3"/><path d="m364.363 112.014.013.02.018-.011z"/></g></g></g></g><g id="c" data-name="Layer 3"><g><path d="m338.037 341.614h9.185c15.029 0 27.256-12.227 27.256-27.256v-7.348c0-15.029-12.227-27.257-27.256-27.257s-27.256 12.228-27.256 27.257v16.532c0 9.965 8.107 18.071 18.071 18.071zm-6.071-34.604c0-8.413 6.844-15.257 15.256-15.257s15.256 6.844 15.256 15.257v7.348c0 8.412-6.844 15.256-15.256 15.256h-9.185c-3.348 0-6.071-2.724-6.071-6.071v-16.532z"/><circle cx="485.352" cy="273.16" r="6"/><path d="m507.875 317.794-3.134-15.058c-.7-3.361-1.629-6.771-2.763-10.135-1.058-3.14-4.462-4.825-7.602-3.769-3.14 1.059-4.828 4.462-3.769 7.603.981 2.91 1.784 5.853 2.386 8.746l3.044 14.626-8.381 63.286c-1.575 6.364-9.999 1.926-14.056.793-6.64-2.663-12.459-7.08-16.898-12.935-6.497-8.568-9.239-19.149-7.721-29.794l2.66-18.659c.53-1.045-3.016-14.934-3.177-16.304 2.52-12.638 3.808-25.605 3.808-38.78 0-4.998-.19-9.951-.559-14.856 4.681 2.239 9.126 4.962 13.285 8.144 1.088.832 2.37 1.234 3.642 1.234 1.804 0 3.588-.811 4.77-2.354 2.014-2.631 1.513-6.397-1.119-8.411-6.764-5.175-14.186-9.303-22.1-12.303-6.499-44.409-27.913-84.039-58.99-113.611l7.046 2.053c6.016 1.753 12.086 2.588 18.059 2.588 28.005 0 53.877-18.363 62.097-46.571l2.963-10.168c.927-3.182-.9-6.512-4.082-7.439l-46.144-13.446c-9.736-2.837-19.641-2.77-28.783-.31-1.217-3.587-2.872-7.014-4.95-10.244l-22.265-34.608c-.861-1.338-2.218-2.28-3.773-2.617-1.555-.338-3.18-.044-4.519.817l-7.625 4.906c-12.628 8.125-21.337 20.68-24.522 35.354s-.464 29.71 7.66 42.338l3.106 4.827c-26.847-13.808-57.268-21.609-89.478-21.609-98.58 0-180.407 73.052-194.22 167.862-27.571 10.585-48.2 34.689-54.248 63.744-.215 2.014-3.93 16.384-3.267 18.087l8.455 63.846c1.056 7.975 7.892 13.793 15.727 13.793 2.531-.036 5.084-.603 7.53-1.155l3.711 30.058c1.301 10.541 6.244 20.392 13.917 27.735 3.536 3.385 7.509 6.154 11.778 8.277l5.375 8.222c6.22 9.514 14.721 17.53 24.583 23.183 9.517 5.453 20.038 8.107 30.497 8.107 13.467-.002 26.815-4.422 37.761-12.922 11.201 10.704 25.654 16.072 40.117 16.072 14.879 0 29.757-5.663 41.084-16.99l7.197-7.197c1.569-1.569 2.946-3.257 4.146-5.031 1.199 1.774 2.576 3.462 4.146 5.031l7.197 7.197c11.327 11.327 26.205 16.99 41.084 16.99 14.463 0 28.917-5.368 40.117-16.072 10.945 8.501 24.292 12.922 37.761 12.922 10.457 0 20.981-2.655 30.497-8.107 9.862-5.652 18.363-13.669 24.583-23.183l5.376-8.222c4.269-2.124 8.242-4.892 11.778-8.276 7.673-7.345 12.616-17.195 13.917-27.736l3.711-30.058c2.446.552 4.998 1.119 7.53 1.155 7.834 0 14.67-5.818 15.727-13.792l8.484-64.073c.159-.934.113-1.905-.162-2.803zm-141.802-108.148c-11.821 0-21.439-9.618-21.439-21.439s9.618-21.438 21.439-21.438h44.211c18.951 28.954 29.989 63.533 29.989 100.646 0 10.938-.949 21.722-2.802 32.275h-10.399c-8.997 0-17.342-4.474-22.323-11.966-2.932-4.411-4.482-9.542-4.482-14.839v-29.045c0-18.855-15.339-34.194-34.194-34.194zm61.708-145.851 40.384 11.768-1.284 4.408c-8.122 27.872-37.406 43.939-65.278 35.82l-24.605-7.17c8.792-6.286 24.414-15.028 45.57-17.32 3.294-.357 5.676-3.317 5.318-6.611-.356-3.294-3.316-5.679-6.611-5.318-19.995 2.167-35.479 9.324-45.872 15.829l.923-3.169c6.402-21.971 29.485-34.636 51.456-28.235zm-81.354-15.677c2.505-11.542 9.355-21.417 19.288-27.808l2.58-1.66 19.019 29.562c1.652 2.568 2.935 5.305 3.854 8.17-4.5 2.382-8.657 5.398-12.332 8.97-.255-2.886-.627-5.766-1.149-8.63-.594-3.26-3.722-5.423-6.978-4.828-3.26.594-5.421 3.718-4.828 6.978 1.484 8.145 1.724 16.42.731 24.604-.683 1.682-1.287 3.415-1.806 5.195l-2.396 8.224-9.957-15.477c-6.39-9.933-8.53-21.759-6.025-33.301zm14.216 67.701c15.604 10.803 29.478 23.963 41.087 38.949h-35.657c-18.438 0-33.439 15-33.439 33.438s15 33.439 33.439 33.439c12.238 0 22.194 9.957 22.194 22.194v29.045c0 7.668 2.244 15.097 6.489 21.481 7.21 10.848 19.291 17.323 32.316 17.323h7.881c-5.39 21.931-14.824 42.678-28.036 61.471-6.565-7.245-15.702-11.491-25.512-11.446-9.084 0-17.618 3.534-24.046 9.962-6.356 6.356-9.881 14.785-9.955 23.763-12.54-6.081-28.164-4.101-38.692 6.035-6.756 6.493-10.466 15.538-10.241 25.083-4.358-1.968-9.12-3.011-14.044-3.011-9.123 0-17.7 3.553-24.15 10.004-1.569 1.569-2.946 3.257-4.146 5.031-1.199-1.774-2.576-3.462-4.146-5.031-6.451-6.451-15.027-10.004-24.15-10.004-4.925 0-9.687 1.044-14.044 3.011.007-.337.019-.674.016-1.012-.087-9.238-3.73-17.786-10.257-24.07-1.827-1.76-3.812-3.264-5.905-4.533 1.062-4.369 1.608-8.849 1.608-13.379 0-5.229 4.254-9.482 9.483-9.482h11.809c18.357 0 33.292-14.935 33.292-33.292v-28.341c0-9.965-8.107-18.071-18.071-18.071h-44.612c-2.769 0-5.021-2.253-5.021-5.022s2.252-5.021 5.021-5.021c15.752 0 28.568-12.815 28.568-28.568v-8.66c0-13.911 11.317-25.228 25.228-25.228h4.724c18.502 0 33.554-15.052 33.554-33.554s-15.052-33.554-33.554-33.554h-48.548c-4.794 0-8.695-3.901-8.695-8.695 0-11.412-9.284-20.696-20.696-20.696h-33.034c31.887-26.377 72.769-42.247 117.288-42.247 38.842 0 74.908 12.09 104.655 32.689zm-235.108 21.558h46.199c4.795 0 8.696 3.901 8.696 8.696 0 11.412 9.284 20.695 20.695 20.695h48.548c11.885 0 21.554 9.669 21.554 21.554s-9.669 21.554-21.554 21.554h-4.724c-20.527 0-37.228 16.7-37.228 37.228v8.66c0 9.135-7.433 16.568-16.568 16.568-9.386 0-17.021 7.636-17.021 17.021s7.636 17.022 17.021 17.022h44.612c3.348 0 6.071 2.724 6.071 6.071v28.341c0 11.74-9.552 21.292-21.292 21.292h-11.809c-11.846 0-21.483 9.637-21.483 21.482 0 3.056-.312 6.082-.925 9.047-7.206-1.363-14.774-.413-21.47 2.834-.073-8.979-3.599-17.409-9.955-23.766-6.429-6.43-14.962-9.963-24.046-9.963h-.174c-9.149.045-17.715 3.668-24.121 10.202l-1.384 1.411c-4.164-5.909-7.951-12.013-11.359-18.286 6.484-9.203 17.106-14.815 28.448-14.815 10.326 0 18.728-8.401 18.728-18.728s-8.401-18.727-18.728-18.727h-47.194c-2.229-11.532-3.371-23.353-3.371-35.359 0-50.702 20.584-96.685 53.832-130.038zm-37.579 205.895c-4.174-9.208-7.559-18.731-10.142-28.498h44.454c3.709 0 6.728 3.018 6.728 6.727s-3.018 6.728-6.728 6.728c-13.136 0-25.548 5.597-34.312 15.043zm-59.001 43.155c-2.118.276-4.07-1.215-4.35-3.333l-8.381-63.287 3.045-14.625c4.783-22.977 20.136-42.368 40.984-52.472-.361 4.856-.55 9.759-.55 14.705 0 13.415 1.331 26.615 3.942 39.47l-2.948 13.486c-.153.699-.179 1.42-.078 2.128l2.66 18.659c1.518 10.645-1.225 21.226-7.721 29.794-6.497 8.567-15.944 14.063-26.604 15.475zm22.63 39.467-4.058-32.87c6.818-3.507 12.819-8.525 17.594-14.822 7.292-9.617 10.937-21.185 10.53-33.073 5.55 12.834 12.52 25.115 20.844 36.687l-14.817 14.024c-2.407 2.277-2.511 6.075-.233 8.481 1.18 1.247 2.768 1.876 4.359 1.876 1.48 0 2.963-.545 4.124-1.643.426-.409 19.701-18.635 20.109-19.038l5.095-5.198c4.146-4.229 9.689-6.573 15.611-6.603h.112c5.879 0 11.402 2.287 15.563 6.448 4.158 4.157 6.448 9.686 6.448 15.565s-2.29 11.408-6.448 15.566l-34.59 34.589c-13.62 13.622-36.022 13.865-49.937.546-5.682-5.438-9.342-12.731-10.306-20.537zm49.711 58.476c-7.106-4.072-13.357-9.621-18.274-16.17 1.35.1 2.716.158 4.08.14 12.545-.137 24.339-5.099 33.211-13.97l34.59-34.59c3.711-3.792 7.802-7.828 9.301-9.358 8.475-8.474 22.393-8.611 31.022-.302 4.187 4.031 6.524 9.55 6.581 15.54.059 6.182-2.391 12.21-6.721 16.54l-34.23 34.23c-15.746 15.746-40.237 19.013-59.559 7.938zm142.204-11.003-7.197 7.197c-17.541 17.541-45.812 17.955-63.871 1.26l31.139-31.138c.336-.336.66-.683.981-1.032 6.125-6.376 13.558-14.75 23.283-14.106 5.917 0 11.481 2.305 15.665 6.488 8.637 8.638 8.637 22.693 0 31.331zm32.459 7.197-7.197-7.197c-8.637-8.638-8.637-22.693 0-31.331 4.184-4.184 9.748-6.488 15.665-6.488 9.714-.652 17.17 7.74 23.283 14.106.321.348.644.695.98 1.031l31.139 31.139c-18.059 16.695-46.33 16.281-63.871-1.26zm135.006 3.806c-19.322 11.072-43.813 7.807-59.559-7.938l-34.23-34.231c-4.33-4.329-6.78-10.357-6.721-16.539.057-5.99 2.394-11.509 6.581-15.54 8.63-8.31 22.547-8.173 31.01.288 1.59 1.6 4.763 4.783 8.721 8.749.198.208.39.419.593.623l34.59 34.591c8.872 8.87 20.666 13.832 33.211 13.969 1.364.018 2.729-.04 4.08-.14-4.917 6.549-11.169 12.097-18.274 16.17zm49.711-58.476c-.964 7.806-4.624 15.1-10.306 20.538-13.915 13.318-36.316 13.073-49.937-.546l-34.59-34.59c-4.158-4.158-6.448-9.687-6.448-15.566s2.29-11.408 6.448-15.566c4.187-4.187 9.792-6.477 15.675-6.447 5.921.029 11.465 2.374 15.626 6.618 2.467 2.53 6.046 6.174 6.601 6.628l18.588 17.593c2.407 2.279 6.204 2.174 8.482-.233 2.278-2.406 2.173-6.204-.233-8.481l-14.986-14.184c8.429-11.743 15.464-24.215 21.039-37.252-.584 12.142 3.063 23.986 10.504 33.798 4.774 6.296 10.776 11.314 17.594 14.822l-4.058 32.87z"/></g></g></svg>