<svg id="Layer_1" viewBox="0 0 512 512" xmlns="http://www.w3.org/2000/svg" data-name="Layer 1"><g fill-rule="evenodd"><path d="m392.038 170.259c-28.226-9.494-48.314-1.694-60.265 23.399-9.191-11.327-7.436-51.274 38.402-72.538-25.073-7.221-53.738-7.006-71.491 18.474 8.386-34.165-24.11-56.878-38.969-84.278-6.215-11.461-10.466-25.191-8.645-44.419-64.417 52.076-15.532 100.95-13.076 122.838 2.467 21.987-20.409 19.84-35.558 8.368-14.678-11.115-19.138-27.176-13.381-48.183-54.456 38.493 10.359 75.32-17.488 94.287-10.015-21.027-26.849-27.563-50.502-19.607 26.886 28.471-13.065 78.073-13.065 134.922 0 73.464 66.262 133.017 148 133.017s148-59.554 148-133.017c0-51.277-39.258-104.359-11.962-133.263z" fill="#e8333c"/><path d="m349.293 134.339c1.09-.936 2.227-1.859 3.413-2.767-16.25-4.348-33.806-5.402-48.814 1.575-1.346 1.435-2.646 2.985-3.898 4.647-.238.641-.6 1.263-1.309 1.801-4.289 5.59-9.208 16.019-12.685 21.011 8.386-34.165-26.647-66.814-41.506-94.213-5.802-10.699-9.892-23.378-8.927-40.662-39.978 46.345.208 88.211 2.429 108.005 4.336 24.421-26.48 37.846-50.781 19.444-13.517-10.236-18.369-24.667-14.554-43.292-16.742 24.949 5.767 48.178 6.187 65.003l.008.019c5.437 21.075-9.341 31.339-11.999 34.472-3.693-17.647-15.347-41.816-45.79-40.781 26.887 28.471-13.065 78.073-13.065 134.922 0 73.464 66.262 133.017 148 133.017 31.738 0 61.139-8.983 85.237-24.268 15.214-12.646 27.472-28.125 35.726-45.508 44.753-93.08-33.128-151.191-7.345-187.518-17.382-4.2-31.228 3.355-37.845 14.412-3.013 5.036-5.836 10.589-7.728 22.924-8.862-10.922-23.265-61.881 25.247-82.242z" fill="#fb545c"/><path d="m186.675 413.7-1.318 87.301h119.072l-1.291-58.219c-.284-12.788 2.23-23.808 8.028-35.209 18.333-36.045 37.856-44.227 43.793-90.569 2.481-19.361.598-37.123-6.421-48.958-4.252-7.17-11.634-12.77-23.762-14.109-1.818-.2-3.743-.305-5.78-.305h-142.226c-3.558 12.198-4.426 17.843-5.814 25.918-14.689 119.435 16.307 95.17 15.719 134.15z" fill="#fdb0a0"/><path d="m186.675 413.7-1.318 87.301h101.94l-1.291-58.219c-.284-12.788 2.23-23.808 8.029-35.209 18.333-36.044 37.855-44.227 43.793-90.569 2.481-19.361.598-37.123-6.42-48.958-4.253-7.17-11.635-12.77-23.763-14.109-1.79-.197-3.684-.302-5.685-.305h-125.188c-3.558 12.198-4.426 17.843-5.814 25.918-14.689 119.435 16.307 95.17 15.719 134.15z" fill="#ffcec0"/><path d="m264.041 202.839c11.485 0 20.881 9.396 20.881 20.881v29.911h-16.319c-11.485 0-20.881 9.396-20.881 20.881 0 1.625.189 3.208.544 4.729-3.178-3.667-5.106-8.441-5.106-13.644v-41.877c0-11.485 9.397-20.881 20.88-20.881z" fill="#fdb0a0"/><path d="m264.041 254.138c-9.309 2.095-16.318 10.456-16.318 20.374 0 .391.012.779.033 1.165-1.397-1.014-2.614-2.264-3.588-3.69-.653-2.016-1.008-4.163-1.008-6.39v-41.877c0-11.485 9.397-20.881 20.88-20.881v51.298z" fill="#ffcec0"/><path d="m304.849 209.699c10.96 0 19.927 8.967 19.927 19.926v27.719c-3.406-1.688-7.45-2.88-12.233-3.408-1.79-.197-3.683-.302-5.685-.305h-21.936v-24.006c0-10.96 8.967-19.926 19.927-19.926z" fill="#fdb0a0"/><path d="m304.849 253.631h-19.927v-24.006c0-10.96 8.967-19.926 19.927-19.926z" fill="#ffcec0"/><path d="m186.023 219.446c9.789 0 17.797 8.008 17.797 17.797v32.863c0 9.789-8.008 17.798-17.797 17.798s-17.797-8.009-17.797-17.798v-32.863c0-9.788 8.009-17.797 17.797-17.797z" fill="#fdb0a0"/><path d="m186.023 276.271c-2.081 1.792-4.784 2.879-7.728 2.879-3.916 0-7.404-1.923-9.569-4.869-.326-1.34-.499-2.739-.499-4.176v-32.863c0-9.789 8.009-17.797 17.797-17.797v56.825z" fill="#ffcec0"/><path d="m223.49 208.794c10.819 0 19.67 8.851 19.67 19.671v39.45c0 10.819-8.851 19.67-19.67 19.67s-19.671-8.851-19.671-19.67v-39.45c0-10.819 8.852-19.671 19.671-19.671z" fill="#fdb0a0"/><path d="m223.49 275.409c-2.156 1.45-4.745 2.299-7.524 2.299-5.183 0-9.709-2.951-11.982-7.256-.108-.831-.165-1.678-.165-2.537v-39.45c0-10.819 8.852-19.671 19.671-19.671z" fill="#ffcec0"/><path d="m297.297 441h-105.974c-9.582 0-17.455 7.842-17.424 17.424l.138 42.576h140.823l-.137-42.576c-.031-9.583-7.842-17.424-17.425-17.424z" fill="#2a93fc"/><path d="m264.231 441h-72.907c-9.582 0-17.455 7.842-17.424 17.424l.138 42.576h107.756l-.138-42.576c-.031-9.583-7.841-17.424-17.425-17.424z" fill="#4eb1fc"/><path d="m307.777 494.002h-126.834v-35.553c0-5.75 4.675-10.43 10.425-10.43h105.993c5.75 0 10.416 4.68 10.416 10.43zm-110.789-223.982h-.087c0 5.938-4.839 10.768-10.782 10.768s-10.768-4.83-10.768-10.768v-32.825c0-5.938 4.83-10.773 10.768-10.773s10.782 4.834 10.782 10.773v30.636c0 .738.029 1.465.087 2.188zm13.911-41.587c0-6.975 5.668-12.643 12.638-12.643s12.653 5.668 12.653 12.643v39.399c0 6.97-5.678 12.648-12.653 12.648s-12.638-5.678-12.638-12.648zm66.989 18.133h-9.288c-7.061 0-13.501 2.641-18.413 6.979v-29.855c0-7.635 6.213-13.848 13.853-13.848s13.848 6.213 13.848 13.848zm26.901-29.875c7.119 0 12.913 5.789 12.913 12.903v16.971h-25.811v-16.971c0-7.114 5.789-12.903 12.899-12.903zm-119.508 166.899c4.29 7.129 8.719 14.508 8.488 29.942l-.308 20.485h102.86c.791-10.45 3.557-20.08 8.541-29.875 6.449-12.682 13.13-22.153 19.01-30.506 11.356-16.108 20.326-28.838 24.028-57.667 2.391-18.658.439-34.439-5.49-44.436-4.381-7.379-12.06-10.966-23.488-10.966h-50.321c-7.64 0-13.858 6.213-13.858 13.853s6.218 13.848 13.858 13.848h26.077c6.42 0 10.464 2.13 12.026 6.338 1.075 2.936 1.109 7.524-4.941 12.72-1.041.901-2.121 1.812-3.244 2.752-13.125 11.11-29.48 24.939-34.015 52.948-.622 3.813-4.222 6.401-8.044 5.779-3.808-.617-6.401-4.208-5.779-8.03 4.95-30.516 21.762-46.798 35.408-58.506h-17.487c-11.313 0-21.049-6.772-25.411-16.461-4.878 5.316-11.877 8.666-19.651 8.666-7.408 0-14.128-3.046-18.957-7.948-4.54 5.071-11.129 8.261-18.461 8.261-3.379 0-6.599-.679-9.529-1.908-6.811 64.907 1.74 79.145 8.69 90.708zm-70.209-80.109c0 43.11 24.496 82.789 64.627 105.901-.458-8.671-3.027-12.942-6.42-18.581-8.396-13.983-18.851-31.374-9.428-109.931-1.6-3.282-2.502-6.965-2.502-10.85v-32.825c0-13.66 11.11-24.77 24.77-24.77 5.022 0 9.698 1.504 13.602 4.082 4.386-8.719 13.409-14.72 23.816-14.72 6.623 0 12.682 2.434 17.343 6.444 5.013-7.466 13.52-12.392 23.16-12.392 9.92 0 18.649 5.225 23.58 13.062 4.671-3.876 10.647-6.213 17.169-6.213 14.841 0 26.91 12.07 26.91 26.906v18.417c12.262 2.998 19.049 10.146 22.751 16.379 7.51 12.667 10.117 31.619 7.331 53.358-4.131 32.28-14.981 47.661-26.462 63.952-5.89 8.358-11.987 17-17.979 28.78-1.34 2.646-2.482 5.249-3.442 7.847 50.143-20.177 83.03-64.969 83.03-114.847 0-19.213-5.866-38.907-11.549-57.951-7.881-26.438-15.39-51.608-4.95-71.134-19.738-3.933-33.331 3.297-42.373 22.288-1.036 2.169-3.104 3.659-5.485 3.943-2.391.284-4.753-.68-6.271-2.545-5.808-7.158-7.548-19.647-4.55-32.598 2.309-9.992 9.071-26.92 28.857-41.091-20.36-2.034-35.856 4.406-46.2 19.242-1.928 2.771-5.548 3.769-8.628 2.381-3.07-1.388-4.719-4.772-3.909-8.049 5.056-20.639-7.683-37.09-21.179-54.505-6.102-7.876-12.412-16.027-17.131-24.727-5.524-10.18-8.681-20.514-9.621-31.706-30.911 32.651-17.02 62.525-6.613 84.919 3.731 8.011 6.941 14.932 7.635 21.049 1.528 13.67-5.061 19.594-9.134 21.912-11.028 6.271-27.219.675-37.587-7.182-8.83-6.685-17.964-17.849-18.523-35.596-10.802 14.349-5.389 27.725.28 41.708 5.254 12.97 11.79 29.108-4.449 40.175-1.692 1.147-3.798 1.504-5.77.969-1.971-.535-3.61-1.899-4.488-3.75-7.051-14.793-17.521-20.765-32.583-18.345 9.683 18.668 2.473 42.344-5.109 67.196-5.871 19.256-12.528 41.086-12.528 63.398zm295.859 0c0-21.252-6.449-42.874-12.132-61.952-8.31-27.845-15.477-51.888-1.74-66.439 1.639-1.735 2.28-4.184 1.702-6.502-.574-2.314-2.289-4.174-4.56-4.94-25.459-8.56-45.863-4.121-59.87 12.792.077-2.362.4-4.974 1.06-7.804 2.28-9.886 10.218-28.38 37.678-41.115 2.651-1.229 4.251-3.977 4.03-6.888-.222-2.911-2.227-5.379-5.042-6.189-26.785-7.717-49.078-5.264-65.557 7.004-2.559-17.94-14.171-32.926-24.741-46.562-6.02-7.775-11.717-15.125-15.887-22.823-6.864-12.653-9.283-25.112-7.833-40.402.27-2.805-1.171-5.495-3.658-6.825-2.482-1.335-5.519-1.051-7.712.723-53.96 43.626-33.967 86.611-22.028 112.292 3.07 6.613 5.967 12.855 6.41 16.706.477 4.343-.241 7.095-2.149 8.179-3.876 2.203-13.723.251-22.211-6.174-12.272-9.288-15.819-22.611-10.85-40.729.776-2.853-.313-5.885-2.733-7.582s-5.649-1.692-8.059.014c-36.319 25.676-25.31 52.847-18.017 70.83 3.089 7.649 4.786 12.503 4.878 15.983-12.05-16.239-30.169-20.769-53.011-13.086-2.261.762-3.982 2.622-4.56 4.936-.579 2.318.063 4.767 1.701 6.507 13.029 13.8 6.469 35.317-1.832 62.564-6.16 20.191-13.139 43.077-13.139 67.481 0 50.63 29.971 96.897 78.518 121.778l-.178 11.901c-7.428 4.188-12.469 12.161-12.469 21.29v42.547c0 3.875 3.138 7.004 6.999 7.004h140.841c3.871 0 6.999-3.128 6.999-7.004v-42.547c0-8.792-4.671-16.508-11.659-20.808.039-1.031.101-2.044.188-3.051 60.371-20.379 100.623-72.541 100.623-131.11z"/></g></svg>