<svg id="Capa_1" enable-background="new 0 0 5960.837 5960.837" viewBox="0 0 5960.837 5960.837" xmlns="http://www.w3.org/2000/svg"><g><g><path d="m5134.145 2466.503s240.087 12.76 285.635-239.097c45.548-251.856-174.156-334.915-292.045-278.649-12.675-226.982-18.548-676.792-18.548-676.792l-1419.165 9.321c-75.697 1086.26-158.275 1819.046 636.369 1819.046 59.609 0 115.064-4.889 166.649-13.902-1.98 50.345-6.016 84.36-12.397 117.424-14.489 75.073-34.86 110.33-131.511 128.069-211.525 38.822-454.955 954.709 457.258 954.709s647.134-915.568 432.657-953.738c-68.611-12.211-134.109-82.74-146.082-215.938-24.192-269.126 7.594-473.258 40.208-649.152z" fill="#fccca7"/><path d="m4806.39 4308.632c-219.14 0-389.537-51.904-506.458-154.27-96.492-84.48-154.202-202.832-166.891-342.26-9.934-109.154 9.052-228.951 52.088-328.674 42.824-99.23 101.153-162.338 160.031-173.145 87.257-16.014 101.127-44.52 113.881-110.6 5.262-27.265 8.611-54.4 10.667-87.274-45.966 6.589-94.047 9.922-143.317 9.922-227.126 0-392.293-58.771-504.938-179.671-116.591-125.136-178.507-318.181-194.853-607.524-14.727-260.699 7.41-573.472 33.043-935.631 2.79-39.414 5.616-79.337 8.432-119.749.799-11.474 10.301-20.395 21.802-20.47l1419.165-9.32c.049-.001.099-.001.148-.001 12.027 0 21.837 9.668 21.995 21.713.056 4.302 5.516 414.621 16.954 646.07 66.751-18.659 147.562-3.125 206.568 41.937 44.579 34.045 115.123 114.604 86.723 271.636-25.266 139.707-107.941 202.343-172.848 230.286-47.756 20.561-92.535 25.622-116.818 26.728-30.788 168.406-60.024 369.247-36.886 626.651 5.209 57.957 21.665 107.143 47.586 142.238 22.082 29.897 49.897 48.573 80.438 54.009 59.739 10.633 122.262 76.982 167.248 177.49 46.06 102.904 66.858 225.555 57.062 336.5-12.046 136.441-68.579 251.971-163.486 334.1-114.49 99.075-281.818 149.309-497.336 149.309zm-313.351-1244.202c5.285 0 10.441 1.905 14.483 5.439 5.004 4.377 7.762 10.782 7.5 17.425-1.888 47.989-5.709 84.095-12.779 120.729-16.021 83.004-42.424 125.953-149.142 145.539-42.875 7.869-91.76 64.311-127.575 147.301-40.218 93.191-57.957 205.182-48.668 307.252 8.121 89.232 41.093 215.994 152.056 313.143 108.665 95.137 269.31 143.375 477.475 143.375 204.639 0 362.281-46.625 468.545-138.582 86.094-74.5 137.427-179.863 148.448-304.695 9.156-103.701-10.306-218.389-53.394-314.656-38.444-85.891-90.095-144.189-134.796-152.145-41.239-7.34-79.637-32.621-108.122-71.188-30.715-41.586-50.085-98.448-56.017-164.44-24.399-271.429 8.105-480.485 40.488-655.132.614-3.314 1.982-6.443 3.998-9.145l.971-1.302c4.39-5.885 11.427-9.177 18.753-8.816.563.026 57.055 2.442 117.419-23.989 79.131-34.648 128.066-100.945 145.447-197.051 17.961-99.313-6.945-180.582-70.131-228.837-55.56-42.431-134.016-53.138-190.79-26.043-6.62 3.158-14.379 2.811-20.69-.927-6.311-3.739-10.343-10.377-10.752-17.701-10.96-196.276-16.899-562.876-18.271-655.875l-1376.951 9.043c-2.346 33.498-4.693 66.656-7.015 99.461-25.527 360.661-47.573 672.139-33.004 930.043 15.734 278.512 73.92 462.814 183.115 580.012 103.865 111.476 258.501 165.665 472.746 165.665 56.52 0 111.315-4.567 162.863-13.574 1.264-.22 2.531-.329 3.79-.329z" fill="#552527"/></g><g><path d="m5837.405 1976.911c-3.924-1238.304-1119.194-1304.953-1119.194-1304.953s-780.362-113.897-1141.724 608.539c-230.168 460.151-293.182 1171.474 161.788 1501.895-35.682-68.993-54.968-155.993-69.48-251.749-41.025-270.696-27.778-417.193-11.285-693.034l589.601-571.735c1061.283 1397.176 883.375 684.494 883.375 684.494 185.874-62.824 294.188 64.744 294.188 220.283 0 155.541-98.239 287.867-291.924 297.292 0 0-47.875 260.355-41.803 485.035 183.649-12.817 748.893-207.485 746.458-976.067z" fill="#733436"/><path d="m5090.945 2974.978c-5.448 0-10.724-2.023-14.784-5.71-4.441-4.031-7.043-9.7-7.206-15.695-6.064-224.391 41.675-486.982 42.158-489.608 1.847-10.046 10.366-17.499 20.568-17.995 85.329-4.152 155.655-34.122 203.377-86.67 44.235-48.708 67.616-113.941 67.616-188.648 0-78.973-30.336-147.889-81.148-184.351-43.746-31.391-100.617-38.463-165.369-20.786 2.861 15.379 6.257 37.786 7.257 61.547 2.672 63.515-13.038 103.901-46.693 120.04-53.362 25.588-137.538-17.734-264.916-136.33-147.834-137.643-352.048-377.06-607.183-711.838l-565.662 548.521c-.977 16.245-1.939 32.043-2.878 47.445-14.559 238.808-23.347 382.951 14.465 632.446 21.828 144.019 47.416 206.551 67.271 244.939 4.684 9.057 2.531 20.145-5.201 26.79-7.732 6.648-19.018 7.109-27.268 1.117-212.828-154.565-332.774-403.232-346.872-719.118-11.819-264.827 53.182-560.213 178.335-810.419 84.003-167.94 197.559-305.131 337.51-407.762 111.955-82.099 240.833-142.285 383.056-178.886 235.893-60.705 426.408-36.277 443.09-33.95 9.095.61 77.242 5.813 177.295 30.293 96.979 23.728 243.376 70.915 390.084 160.97 165.296 101.466 297.197 235.441 392.038 398.205 118.214 202.877 178.614 450.945 179.521 737.315.574 181.181-30.256 343.976-91.635 483.862-51.902 118.291-125.639 220.593-219.163 304.065-75.169 67.092-160.935 120.502-254.914 158.75-70.418 28.659-143.758 47.396-201.215 51.405-.513.039-1.024.056-1.534.056zm60.535-486.267c-9.794 58.351-40.842 258.463-38.98 439.918 91.085-12.243 258.212-64.06 406.809-196.686 88.782-79.241 158.82-176.447 208.169-288.918 58.899-134.235 88.482-291.036 87.927-466.044-.881-278.074-59.078-518.41-172.974-714.334-90.896-156.36-217.436-285.188-376.102-382.903-78.211-48.168-207.162-114.373-377.33-156.237-102.074-25.112-171.423-29.546-172.111-29.588-.617-.037-1.243-.102-1.854-.19-1.909-.276-194.823-27.125-428.301 33.308-136.487 35.328-260.037 93.18-367.219 171.948-133.88 98.389-242.671 230.06-323.351 391.355-57.634 115.221-103.981 245.719-134.03 377.385-32.224 141.195-45.582 279.606-39.7 411.389 8.535 191.254 62.632 447.865 263.232 631.94-19.166-59.956-30.503-123.545-38.622-177.113-38.511-254.109-29.617-400.006-14.881-641.718 1.102-18.069 2.236-36.684 3.387-55.927.328-5.487 2.699-10.653 6.646-14.48l589.601-571.735c4.52-4.382 10.702-6.622 16.977-6.144 6.277.476 12.05 3.617 15.857 8.63 260.628 343.117 468.271 587.38 617.157 726.002 148.695 138.444 200.527 136.238 215.908 128.858 30.05-14.409 24.595-99.058 11.446-151.729-2.775-11.116 3.446-22.501 14.3-26.17 109.246-36.927 181.967-8.947 223.736 21.025 63.231 45.373 99.496 125.596 99.496 220.099 0 84.601-28.072 162.104-79.044 218.23-52.322 57.613-126.778 91.931-216.149 99.829z" fill="#552527"/></g><g><ellipse cx="4530.244" cy="2078.159" fill="#552527" rx="95.899" ry="95.901" transform="matrix(.16 -.987 .987 .16 1753.19 6216.979)"/></g><g><path d="m4356.261 2603.774c-165.733 120.387-290.373 10.367-290.373 10.367-29.538-14.153-2.021 109.671 151.798 104.179 149.325-5.331 153.073-125.077 138.575-114.546z" fill="#552527"/></g><g><path d="m4611.796 1881.807s-99.956-57.114-214.447 5.57c-34.733 19.017-26.083-80.629 103.825-84.657 130.834-4.057 154.203 100.351 110.622 79.087z" fill="#552527"/></g><g><ellipse cx="3912.312" cy="2078.166" fill="#552527" rx="95.899" ry="95.901" transform="matrix(.16 -.987 .987 .16 1234.242 5607.033)"/></g><g><path d="m3782.004 1881.807s99.956-57.114 214.447 5.57c34.734 19.017 26.084-80.629-103.824-84.657-130.833-4.057-154.203 100.351-110.623 79.087z" fill="#552527"/></g><g><path d="m4184.225 2484.317s-69.198 9.391-90.116-40.052c-9.406-22.231 2.49-57.561 14.465-83.839 24.15-52.996 10.934-75.758-29.1-20.141-13.594 18.885-27.728 40.052-41.404 69.869-30.044 65.507 15.226 107.127 87.316 107.127 61.92-.001 74.243-30.653 58.839-32.964z" fill="#552527"/></g><g><path d="m4480.528 3277.625s379.795-14.513 397.257-368.51c-61.91 90.484-362.127 190.088-362.127 190.088s1.849 82.739-35.13 178.422z" fill="#f9a870"/></g><g><path d="m4324.827 3122.312c-11.957 0-21.76-9.576-21.988-21.583-.23-12.148 9.431-22.183 21.579-22.413 240.943-4.567 412.837-70.885 557.354-215.028 8.602-8.582 22.531-8.563 31.113.04 8.58 8.603 8.562 22.532-.041 31.112-71.62 71.436-148.423 123.926-234.798 160.471-101.082 42.768-216.481 64.813-352.793 67.397-.142.003-.285.004-.426.004z" fill="#552527"/></g><g><path d="m5170.873 2288.33c-26.897-19.82-49.083-73.238-19.47-134.023 43.646-89.589 130.68-52.039 122.125-.712" fill="#f9a870"/><path d="m5170.855 2310.331c-4.533 0-9.104-1.395-13.033-4.29-37.389-27.55-59.277-93.469-26.197-161.369 30.893-63.41 81.005-73.407 114.535-62.69 33.893 10.829 54.529 42.468 49.068 75.231-1.998 11.984-13.329 20.085-25.318 18.083-11.985-1.997-20.081-13.332-18.083-25.317 2.174-13.044-8.355-22.665-19.058-26.084-17.602-5.626-43.024 1.944-61.588 40.049-24.056 49.378-7.03 92.106 12.742 106.676 9.782 7.207 11.869 20.979 4.661 30.762-4.312 5.851-10.977 8.949-17.729 8.949z" fill="#552527"/></g><g><path d="m5553.725 1451.072c-16.23 0-31.686-9.463-38.554-25.302-51.4-118.535-139.108-235.403-246.968-329.075-62.754-54.5-131.846-100.807-205.356-137.634-81.343-40.751-168.624-70.097-259.417-87.22-157.467-29.697-306.348-29.213-442.51 1.435-111.87 25.183-216.374 70.932-310.608 135.978-19.089 13.177-45.247 8.384-58.424-10.707-13.177-19.09-8.383-45.247 10.707-58.424 103.122-71.18 217.474-121.242 339.88-148.796 147.405-33.182 307.73-33.864 476.523-2.03 98.457 18.568 193.159 50.418 281.474 94.662 79.79 39.974 154.754 90.21 222.811 149.314 117.146 101.736 212.663 229.26 268.955 359.079 9.228 21.281-.543 46.015-21.824 55.242-5.444 2.361-11.113 3.478-16.689 3.478z" fill="#a85e63"/></g><g><path d="m3757.441 1293.527c-7.858 0-15.804-2.201-22.879-6.81-19.438-12.657-24.935-38.676-12.277-58.114 27.439-42.138 74.037-106.165 140.2-171.889 16.457-16.347 43.05-16.256 59.396.198 16.347 16.457 16.258 43.05-.198 59.397-60.934 60.528-103.788 119.401-129.007 158.131-8.05 12.363-21.506 19.087-35.235 19.087z" fill="#a85e63"/></g><g><path d="m5130.473 1972.374c-9.678 0-18.546-6.435-21.213-16.222-.896-3.287-91.274-332.005-238.528-619.502-5.539-10.814-1.262-24.071 9.552-29.61 10.814-5.538 24.071-1.263 29.61 9.552 149.396 291.679 240.912 624.666 241.819 627.995 3.193 11.723-3.721 23.813-15.443 27.008-1.936.527-3.883.779-5.797.779z" fill="#552527"/></g><g><path d="m3472.637 1977.753c-13.362 0-24.938-3.349-34.689-10.058-43.842-30.166-26.219-109.452-9.149-166.466 28.457-95.045 91.156-233.463 186.356-411.409 5.731-10.713 19.063-14.752 29.776-9.021s14.752 19.063 9.021 29.776c-93.816 175.358-155.387 311.039-183.002 403.273-22.564 75.367-18.445 110.452-8.061 117.598 9.324 6.414 38.229.437 81.787-27.383 40.949-26.152 80.058-61.669 99.066-83.602 7.958-9.182 21.852-10.174 31.033-2.217 9.182 7.957 10.175 21.852 2.217 31.033-21.727 25.07-63.744 63.199-108.633 91.868-38.172 24.381-70.198 36.608-95.722 36.608z" fill="#552527"/></g><g><path d="m5288.754 2986.912c-106.184-43.632-195.778-299.909 47.962-370.4 234.319-67.767 314.47 170.301 258.54 259.478-49.631 79.134-200.318 154.555-306.502 110.922z" fill="#4bacc6"/><path d="m5358.045 3021.768c-27.844 0-54.075-4.818-77.653-14.507-33.25-13.663-65.427-44.974-88.279-85.903-23.547-42.174-35.173-90.153-32.736-135.098 2.909-53.636 29.022-149.756 171.227-190.882 56.655-16.384 108.725-17.113 154.765-2.171 40.1 13.017 75.113 38.223 101.256 72.893 50.89 67.49 62.868 164.819 27.269 221.58-27.514 43.869-80.739 85.059-142.377 110.182-39.014 15.9-77.583 23.906-113.472 23.906zm-60.929-55.204c97.705 40.146 236.914-34.358 279.502-102.263 28.343-45.191 9.891-125.271-25.125-171.71-62.097-82.354-157.388-69.771-208.665-54.945-110.272 31.892-136.734 99.715-139.515 150.997-4.358 80.345 45.938 158.252 93.803 177.921z" fill="#552527"/></g><g><g><g><g><g><path d="m4094.821 3415.359s-363.893 125.117-489.441 738.248c-43.366 211.784-32.09 400.662-32.09 400.662l-1036.262 271.13 83.201 309.58s1239.443-96.794 1324.724-242.104c69.445-118.328 149.868-1477.516 149.868-1477.516z" fill="#fccca7"/><path d="m2620.216 5156.98c-9.871 0-18.634-6.621-21.232-16.289l-83.201-309.58c-1.521-5.66-.721-11.691 2.222-16.76 2.943-5.068 7.786-8.752 13.456-10.234l1019.096-266.64c-1.691-52.602-2.932-211.484 33.271-388.283 29.056-141.898 73.313-269.709 131.543-379.883 46.811-88.566 102.716-166.023 166.164-230.217 109.035-110.316 202.22-143.193 206.134-144.539 6.939-2.389 14.612-1.154 20.456 3.283 5.845 4.436 9.092 11.496 8.659 18.82-.201 3.4-20.449 344.096-48.925 694.865-16.736 206.158-33.002 375.457-48.347 503.193-26.343 219.299-44.339 270.135-55.583 289.293-14.645 24.953-57.22 63.447-257.004 109.436-114.089 26.264-266.645 52.098-453.429 76.783-317.432 41.955-628.447 66.443-631.551 66.686-.581.044-1.157.066-1.729.066zm-56.194-315.903 72.696 270.492c71.022-5.873 338.764-28.975 611.167-64.982 185.373-24.504 336.515-50.086 449.229-76.035 66.262-15.254 119.554-30.742 158.394-46.033 51.331-20.209 66.185-35.477 70.471-42.779 15.258-25.998 48.28-161.086 98.016-773.711 23.036-283.74 40.681-560.91 46.662-657.795-38.943 20.248-98.731 59.533-159.934 121.928-60.015 61.184-112.999 135.088-157.48 219.658-55.769 106.031-98.266 229.238-126.311 366.201-42.235 206.26-31.792 393.078-31.681 394.941.621 10.475-6.241 19.934-16.392 22.59z" fill="#552527"/></g><g><path d="m5584.498 5405.165-179.521-1148.321s-50.07-230.497 34.204-459.912c84.275-229.414 230.173-281.699 230.173-281.699-151.273-115.099-320.863-162.093-428.207-181.197 0 0-424.673 489.839-632.556 489.839-207.882 0-258.241-490.812-258.241-490.812-66.069 12.126-157.439 34.588-253.976 77.623-15.14 6.75-197.497 202.603-270.823 777.754-57.175 303.905 156.925 784.665 270.306 1216.725z" fill="#f7686b"/><path d="m5584.498 5427.165h-1488.639c-10 0-18.741-6.744-21.279-16.416-32.042-122.104-72.732-249.896-112.083-373.482-103.027-323.568-200.344-629.217-158.687-852.246 21.396-167.537 66.345-408.771 159.028-607.891 52.487-112.764 105.367-177.973 124.579-186.537 80.048-35.684 167.175-62.32 258.962-79.168 6.037-1.105 12.259.357 17.169 4.039 4.909 3.68 8.059 9.246 8.687 15.35.125 1.211 12.895 122.432 50.444 241.621 59.743 189.635 134.075 229.441 185.912 229.441 55.336 0 166.058-41.475 379.281-239.057 129.771-120.252 235.598-241.979 236.652-243.195 5.073-5.852 12.85-8.605 20.478-7.248 115.565 20.566 285.308 69.418 437.674 185.35 6.42 4.885 9.651 12.891 8.421 20.863-1.231 7.975-6.727 14.633-14.321 17.355-.251.092-34.613 13.021-78.256 52.311-40.38 36.35-97.22 103.377-138.689 216.264-81.13 220.854-33.843 445.412-33.356 447.654.091.422.171.846.237 1.271l179.521 1148.322c.993 6.352-.841 12.818-5.021 17.703s-10.286 7.696-16.714 7.696zm-1471.709-44h1446.002l-175.458-1122.332c-1.5-7.137-12.935-63.998-14.852-147.41-1.853-80.643 5.325-202.33 50.049-324.076 24.898-67.779 71.607-163.697 152.731-235.744 21.345-18.955 40.797-32.426 56.168-41.668-132.438-92.096-275.144-134.498-378.005-154.008-27.718 31.252-121.18 134.803-231.647 237.166-179.58 166.408-317.25 250.783-409.187 250.783-54.787 0-103.825-28.809-145.752-85.627-31.489-42.672-59.183-101.611-82.311-175.182-29.094-92.547-43.536-183.875-49.161-225.92-79.345 16.174-154.747 39.996-224.495 70.947-10.348 8.375-56.477 60.268-109.046 176.277-87.277 192.602-129.988 424.352-150.451 584.85-.055.432-.123.859-.203 1.287-17.825 94.744-9.418 217.496 25.699 375.268 31.797 142.851 80.251 295.029 131.55 456.14 37.771 118.62 76.767 241.089 108.369 359.249zm-5.214-1953.611c-.001 0-.001 0 0 0z" fill="#552527"/></g><g><g><path d="m5195.196 4715.174c-567.637-36.867-1243.113-42.986-1420.129-30.65-61.657 4.297-393.722 6.199-536.862 26.392-34.92 8.82-32.662 135.733 173.091 108.963-116.954 74.86-221.176 164.228-322.202 223.786 13.839 61.023 59.639 66.771 59.639 66.771l-69.167 54.636s32.015 86.146 110.976 39.121c78.96-47.024 159.331-103.95 159.331-103.95l-156.59 161.061s59.701 50.538 104.549 16.061c24.781-19.051 27.572-23.104 27.572-23.104s49.62 36.207 77.031 29.234 204.541-154.273 409.637-261.533c47.091-33.306 690.71 181.631 1377.614 274.057 363.252 49.034 487.676-36.731 624.854-505.311 101.593-347.027 277.804-1075.862-145.186-1275.474-323.314 41.29-474.158 1199.94-474.158 1199.94z" fill="#fccca7"/><path d="m5345.804 5330.173c-45.703 0-97.848-4.09-159.061-12.352-388.7-52.301-756.029-141.877-1024.241-207.279-94.175-22.967-175.506-42.799-235.388-55.328-77.582-16.23-98.433-15.553-103.98-14.234-.285.166-.574.324-.866.477-129.168 67.553-246.183 150.475-323.613 205.348-57.111 40.471-77.537 54.641-90.796 58.012-4.059 1.033-8.311 1.496-12.664 1.496-23.841.004-50.875-13.885-67.786-24.291-4.162 3.42-9.442 7.615-16.167 12.785-58.25 44.787-129.181-14.178-132.172-16.711-4.654-3.939-7.464-9.633-7.76-15.725-.295-6.09 1.95-12.031 6.2-16.402l19.657-20.219c-27.467 15.125-53.62 18.477-77.803 9.949-41.404-14.596-58.595-58.055-60.419-62.963-3.324-8.945-.503-19.012 6.985-24.928l41.515-32.793c-15.757-12.064-32.073-32.393-39.805-66.486-2.116-9.33 2.042-18.959 10.283-23.816 53.092-31.301 107.209-71.074 164.504-113.184 30.066-22.098 60.741-44.643 92.335-66.74-29.177-2.094-54.354-8.293-75.287-18.572-31.815-15.623-53.256-41.334-58.824-70.541-6.011-31.527 7.818-59.939 32.167-66.09.762-.193 1.535-.344 2.314-.455 103.136-14.549 299.646-19.627 429.682-22.986 51.085-1.32 91.436-2.363 108.724-3.568 182.549-12.719 847.368-5.852 1402.67 29.334 10.17-71.383 47.792-318.668 113.56-566.857 45.775-172.744 96.105-312.395 149.591-415.072 32.322-62.049 66.342-111.428 101.116-146.764 40.108-40.756 82.533-64.242 126.094-69.805 4.157-.533 8.383.137 12.176 1.926 191.857 90.539 286.709 293.314 281.92 602.693-2.99 193.135-43.88 421.734-125.009 698.859-73.641 251.543-141.765 384.191-235.138 457.85-48.755 38.461-106.454 61.594-176.395 70.719-24.03 3.135-49.935 4.711-78.319 4.713zm-1514.457-333.578c43.964 0 135 20.824 341.579 71.199 267.26 65.172 633.286 154.428 1019.694 206.422 191.823 25.891 298.543 10.744 380.646-54.021 85.539-67.479 149.325-193.699 220.162-435.668 80.002-273.275 120.314-498.052 123.242-687.176 2.083-134.545-15.505-248.645-52.275-339.131-41.334-101.719-108.081-175.773-198.444-220.207-64.024 11.598-127.068 76.195-187.495 192.152-51.977 99.74-101.118 236.266-146.057 405.783-76.904 290.094-115.01 579.179-115.386 582.064-1.499 11.502-11.673 19.836-23.242 19.113-596.282-38.723-1256.43-41.857-1417.174-30.656-18.249 1.271-59.023 2.324-110.646 3.658-127.466 3.295-319.307 8.252-420.968 22.059-1.949 3.625-3.441 14.08 2.68 26.195 17.989 35.605 78.099 50.441 160.796 39.68 10.216-1.318 19.984 4.607 23.509 14.285 3.526 9.678-.135 20.508-8.811 26.061-53.783 34.426-105.072 72.121-154.673 108.576-52.976 38.936-103.274 75.902-153.353 106.68 11.797 29.309 32.934 34.312 36.511 34.957 8.903.85 16.013 6.971 18.58 15.555 2.583 8.639-.775 17.936-7.85 23.523l-54.913 43.377c5.627 8.646 14.527 18.965 26.714 23.189 12.601 4.365 27.78 1.348 45.113-8.975 77.265-46.016 157.077-102.436 157.874-103 9.278-6.574 22.037-4.988 29.43 3.648 7.393 8.641 6.985 21.488-.941 29.641l-138.045 141.986c16.28 8.529 39.303 15.824 56.822 2.357 17.93-13.785 23.191-18.859 24.125-19.801 3.338-3.98 7.997-6.67 13.162-7.549 5.855-.992 11.863.418 16.661 3.916 19.336 14.051 48.194 27.887 58.347 25.754 8.706-3.301 43.163-27.719 76.494-51.34 78.218-55.43 196.323-139.127 327.763-207.965 6.696-4.126 16.031-6.341 30.369-6.341zm-524.025 245.133c-.012.02-.025.037-.038.055.013-.018.026-.036.038-.055zm.038-.053c-.01.014-.021.029-.031.045.01-.016.021-.031.031-.045zm.036-.053c-.008.012-.017.025-.025.037.008-.011.017-.025.025-.037zm.036-.05c-.007.01-.013.02-.02.029.007-.01.013-.02.02-.029zm517.343-201.649c-.014.012-.029.021-.043.031.015-.009.029-.019.043-.031z" fill="#552527"/></g><g><path d="m3148.753 5132.437c-7.047 0-13.968-3.377-18.223-9.646-6.824-10.055-4.205-23.734 5.848-30.559l239.019-162.227c10.054-6.826 23.735-4.205 30.558 5.848 6.824 10.055 4.205 23.734-5.848 30.559l-239.019 162.227c-3.783 2.567-8.083 3.798-12.335 3.798z" fill="#552527"/></g><g><path d="m3349.885 5122.243c-6.307 0-12.566-2.697-16.917-7.922-7.775-9.336-6.509-23.209 2.828-30.984l104.032-86.635c9.337-7.775 23.208-6.508 30.984 2.828 7.775 9.336 6.509 23.209-2.827 30.984l-104.033 86.635c-4.112 3.425-9.104 5.094-14.067 5.094z" fill="#552527"/></g><g><path d="m3325.411 5276.261c-6.019 0-12.013-2.455-16.357-7.279-8.13-9.031-7.4-22.941 1.629-31.07l194.657-175.254c9.03-8.129 22.941-7.398 31.07 1.629 8.129 9.031 7.4 22.941-1.63 31.07l-194.657 175.254c-4.204 3.785-9.467 5.65-14.712 5.65z" fill="#552527"/></g></g><g><g><path d="m2784.179 5405.669h-2086.856c-51.3 0-92.887-41.586-92.887-92.887 0-51.3 41.587-92.887 92.887-92.887h2086.856c51.3 0 92.887 41.587 92.887 92.887-.001 51.301-41.587 92.887-92.887 92.887z" fill="#4bacc6"/><path d="m2784.179 5427.038h-2086.856c-63.001 0-114.256-51.254-114.256-114.256s51.255-114.256 114.256-114.256h2086.856c63.001 0 114.256 51.254 114.256 114.256s-51.255 114.256-114.256 114.256zm-2086.856-185.773c-39.434 0-71.517 32.082-71.517 71.518s32.083 71.518 71.517 71.518h2086.856c39.435 0 71.517-32.082 71.517-71.518s-32.083-71.518-71.517-71.518z" fill="#552527"/></g><g><path d="m4405.393 5405.669h-1678.456c-51.3 0-92.886-41.586-92.886-92.887 0-51.3 41.587-92.887 92.886-92.887h1678.456c51.3 0 92.887 41.587 92.887 92.887-.001 51.301-41.587 92.887-92.887 92.887z" fill="#4bacc6"/><path d="m4405.393 5427.038h-1678.456c-63.001 0-114.256-51.254-114.256-114.256s51.255-114.256 114.256-114.256h1678.456c63.001 0 114.256 51.254 114.256 114.256s-51.255 114.256-114.256 114.256zm-1678.456-185.773c-39.435 0-71.517 32.082-71.517 71.518s32.082 71.518 71.517 71.518h1678.456c39.435 0 71.517-32.082 71.517-71.518s-32.083-71.518-71.517-71.518z" fill="#552527"/></g><g><path d="m23.576 3518.607c-11.314-51.3 21.101-92.887 72.4-92.887h2086.856c51.3 0 102.059 41.587 113.373 92.887l438.165 1603.844c11.314 51.3-21.101 92.887-72.4 92.887h-2086.857c-51.3 0-102.059-41.586-113.373-92.887z" fill="#4bacc6"/><path d="m2661.969 5236.706h-2086.856c-61.534 0-120.334-47.883-134.121-109.113l-438.031-1603.353c-.093-.342-.178-.686-.254-1.031-6.886-31.219-.49-62 17.546-84.447 17.829-22.189 44.721-34.41 75.722-34.41h2086.856c61.534 0 120.334 47.883 134.121 109.113l438.031 1603.353c.093.342.178.686.254 1.031 6.886 31.219.49 62-17.547 84.447-17.828 22.19-44.72 34.41-75.721 34.41zm-2617.632-1723.195 438.017 1603.307c.093.342.178.686.254 1.031 9.1 41.26 51.462 76.119 92.505 76.119h2086.855c17.791 0 32.85-6.551 42.405-18.441 9.941-12.373 13.213-29.398 9.233-47.988l-438.016-1603.298c-.093-.342-.177-.686-.254-1.031-9.1-41.26-51.462-76.119-92.504-76.119h-2086.856c-17.79 0-32.849 6.551-42.405 18.441-9.94 12.37-13.212 29.393-9.234 47.979z" fill="#552527"/></g><g><path d="m2149.972 3518.607 438.164 1603.844" fill="none"/><path d="m2588.124 5144.456c-9.673 0-18.538-6.428-21.209-16.207l-438.165-1603.844c-3.202-11.723 3.704-23.818 15.424-27.021 11.721-3.199 23.818 3.703 27.02 15.424l438.165 1603.844c3.202 11.723-3.704 23.818-15.424 27.021-1.941.529-3.893.783-5.811.783z" fill="#552527"/></g></g><g><path d="m5763.886 4489.337c-2.578 0-5.188-.238-7.814-.732-22.796-4.289-37.799-26.246-33.509-49.043 34.422-182.932 62.709-436.459 1.983-605.408-30.811-85.721-70.618-108.646-71-108.824-21.042-9.762-30.186-34.732-20.424-55.775 9.762-21.041 34.736-30.186 55.775-20.424 7.175 3.328 71.348 36.002 114.699 156.609 53.879 149.904 54.391 368.379 1.519 649.357-3.797 20.17-21.427 34.24-41.229 34.24z" fill="#f7e1d2"/></g><g><path d="m5172.425 4901.544c-.441 0-.881-.006-1.325-.02l-716.419-22.211c-23.185-.719-41.397-20.098-40.679-43.281.719-23.188 20.099-41.336 43.282-40.68l716.419 22.211c23.185.719 41.397 20.098 40.678 43.281-.705 22.743-19.364 40.7-41.956 40.7z" fill="#f7e1d2"/></g></g><g><path d="m453.854 3618.605h-139.246c-23.196 0-42-18.805-42-42s18.804-42 42-42h139.246c23.196 0 42 18.805 42 42s-18.804 42-42 42z" fill="#97d9e8"/></g><g><path d="m1891.649 3618.605h-1282.358c-23.196 0-42-18.805-42-42s18.804-42 42-42h1282.358c23.196 0 42 18.805 42 42s-18.804 42-42 42z" fill="#97d9e8"/></g></g><g><g><path d="m2759.089 2003.179c.554-1.099 1.114-2.196 1.664-3.298 1.147-2.243 2.302-4.485 3.537-6.731 0 0-.089.004-.219.01 66.013-134.605 103.094-285.975 103.094-446.011.001-560.16-454.099-1014.261-1014.259-1014.261s-1014.26 454.101-1014.26 1014.261 454.1 1014.26 1014.26 1014.26c187.35 0 362.829-50.806 513.429-139.377 168.305-69.365 329.035 90.317 403.195 6.213l-.594.258c85.177-80.295-98.317-246.049-9.847-425.324z" fill="#f7686b"/></g></g></g></g><g><path d="m5494.348 2804.411c79.764 74.886 292.988 448.1 192.453 807.154-68.774 245.622-192.453-157.984-192.453-157.984s-100.477 537.749-427.993 715.236c-478.243 259.169 1.823-591.858 135.363-789.498-219.006 219.006-408.244 318.419-480.745 256.397-107.179-91.688 308.375-464.494 463.152-673.321 180.963-244.157 230.459-232.869 310.223-157.984z" fill="#733436"/><path d="m4924.856 4239.486c-27.129 0-48.262-8.525-63.695-25.543-49.697-54.801-22.741-191.033 82.41-416.484 48.366-103.701 105.512-208.611 154.399-292.311-64.81 54.799-126.148 97.924-181.247 127.186-42.124 22.371-94.141 43.475-140.412 43.479-25.936 0-50.06-6.627-69.642-23.379-15.184-12.988-23.577-30.258-24.945-51.326-6.246-96.156 142.868-261.635 300.737-436.83 71.417-79.256 138.874-154.115 183.987-214.981 110.17-148.643 175.732-208.589 233.836-213.806 44.461-3.985 78.286 23.936 109.119 52.882 47.286 44.395 120.722 163.726 169.586 305.903 44.118 128.366 84.961 323.342 28.994 523.223-8.456 30.199-18.022 52.408-29.245 67.895-16.244 22.412-34.079 27.293-46.18 27.439-.202.002-.409.004-.611.004-37.389 0-73.347-41.785-113.114-131.408-7.494-16.891-14.318-33.703-20.273-49.199-14.402 54.65-38.5 134.137-75.122 220.963-39.024 92.527-84.217 173.959-134.323 242.035-63.286 85.982-134.708 150.896-212.281 192.934-63.193 34.246-113.587 51.322-151.978 51.324zm276.867-882.166c4.949 0 9.913 1.662 13.995 5.029 8.745 7.215 10.576 19.895 4.229 29.287-48.121 71.219-154.879 249.42-236.499 424.42-44.032 94.406-74.357 173.98-90.133 236.51-22.555 89.4-9.405 120.963.44 131.818 12.023 13.26 49.073 26.352 162.118-34.908 71.72-38.867 138.175-99.408 197.52-179.939 48.024-65.172 91.479-143.436 129.159-232.621 64.535-152.75 89.923-286.051 90.171-287.379 1.864-9.953 10.281-17.348 20.389-17.916 10.117-.562 19.301 5.834 22.27 15.514.18.584 18.26 59.238 43.817 116.771 45.965 103.475 71.478 104.93 72.807 104.93h.02c.16-.002 16.15-.918 33.59-63.201 52.912-188.971 13.851-374.605-28.235-497.059-51.642-150.258-124.375-256.472-158.091-288.126-29.479-27.676-51.215-43.28-75.068-41.137-42.244 3.793-104.673 64.298-202.423 196.182-46.365 62.558-114.506 138.177-186.648 218.236-131.234 145.638-294.559 326.888-289.517 404.524.586 9.027 3.649 15.619 9.64 20.744 27.848 23.818 84.959 14.754 160.813-25.525 84.215-44.725 184.521-124.156 290.075-229.711 4.274-4.273 9.908-6.443 15.561-6.443z" fill="#552527"/></g><g><path d="m4987.609 3421.318c-9.938 0-19.911-3.504-27.917-10.635-17.323-15.426-18.86-41.975-3.434-59.297l319.701-359.008c15.426-17.325 41.974-18.862 59.297-3.435s18.86 41.975 3.434 59.298l-319.7 359.008c-8.297 9.317-19.815 14.069-31.381 14.069z" fill="#a85e63"/></g><g><g><circle cx="1862.936" cy="1546.793" fill="#f9e5d7" r="664.338"/><path d="m1862.49 2233.325c-38.299 0-76.594-3.247-114.702-9.748-87.478-14.922-170.261-46.271-246.051-93.178s-140.775-107.013-193.153-178.648c-54.235-74.176-92.497-157.511-113.726-247.691s-24.158-181.833-8.707-272.413c14.922-87.478 46.272-170.261 93.178-246.051 46.907-75.789 107.013-140.775 178.648-193.152 74.176-54.234 157.511-92.498 247.692-113.727 90.18-21.228 181.833-24.158 272.413-8.706 87.478 14.922 170.261 46.271 246.051 93.178s140.775 107.013 193.153 178.648c54.235 74.176 92.497 157.511 113.726 247.691s24.158 181.833 8.707 272.413c-14.922 87.478-46.271 170.261-93.178 246.051-46.907 75.789-107.013 140.775-178.648 193.152-74.176 54.234-157.511 92.498-247.692 113.727-52.24 12.297-104.978 18.453-157.711 18.454zm1.653-1329.111c-49.385 0-99.116 5.732-148.391 17.332-167.01 39.313-308.713 141.312-399.008 287.205-90.294 145.893-118.37 318.216-79.056 485.226s141.312 308.713 287.206 399.008c145.893 90.294 318.216 118.369 485.226 79.056s308.713-141.312 399.008-287.205c90.294-145.893 118.371-318.216 79.056-485.226s-141.312-308.713-287.205-399.008c-102.849-63.653-218.839-96.388-336.836-96.388z" fill="#552527"/></g><g><circle cx="1862.936" cy="1546.793" fill="#4bacc6" r="547.492"/><path d="m1861.864 2116.5c-104.625.004-207.442-29.018-298.635-85.457-129.348-80.055-219.778-205.688-254.634-353.758-34.855-148.069-9.964-300.85 70.091-430.197s205.688-219.778 353.758-254.635c148.07-34.853 300.85-9.964 430.198 70.092 129.348 80.054 219.778 205.688 254.634 353.757 34.855 148.069 9.964 300.851-70.091 430.198s-205.688 219.778-353.758 254.634c-43.678 10.281-87.788 15.364-131.563 15.366zm2.059-1095.397c-40.401 0-81.085 4.689-121.397 14.18-136.63 32.162-252.556 115.606-326.426 234.961-73.869 119.354-96.838 260.33-64.675 396.959 32.163 136.63 115.606 252.557 234.96 326.426 119.354 73.871 260.33 96.843 396.96 64.675 136.63-32.162 252.556-115.605 326.426-234.96 73.869-119.354 96.838-260.33 64.675-396.96-32.163-136.629-115.606-252.556-234.96-326.425-84.14-52.076-179.031-78.856-275.563-78.856z" fill="#552527"/></g><g><g><g><g><circle cx="1439.326" cy="1646.511" r="39.906"/></g></g><g><g><circle cx="2286.545" cy="1447.076" r="39.906"/></g></g></g><g><g><g><circle cx="1763.218" cy="1123.184" r="39.906"/></g></g><g><g><circle cx="1962.653" cy="1970.402" r="39.906"/></g></g></g></g><g><g><g><g><g><circle cx="1439.326" cy="1646.511" fill="#f2ebe5" r="39.906"/></g></g><g><g><circle cx="2286.545" cy="1447.076" fill="#f2ebe5" r="39.906"/></g></g></g><g><g><g><circle cx="1763.218" cy="1123.184" fill="#f2ebe5" r="39.906"/></g></g><g><g><circle cx="1962.653" cy="1970.402" fill="#f2ebe5" r="39.906"/></g></g></g></g><g><g><g><g><path d="m1572.299 1871.699c-9.926 9.873-26.033 9.83-35.906-.096s-9.832-26.035.094-35.908 26.035-9.829 35.908.097 9.83 26.033-.096 35.907z" fill="#f2ebe5"/></g></g><g><g><path d="m2189.385 1257.892c-9.926 9.873-26.033 9.83-35.906-.096s-9.832-26.035.094-35.908 26.035-9.829 35.908.097 9.83 26.034-.096 35.907z" fill="#f2ebe5"/></g></g></g><g><g><g><path d="m1573.939 1256.253c-9.926 9.873-26.033 9.83-35.906-.096s-9.832-26.035.094-35.908 26.035-9.829 35.908.097c9.872 9.926 9.83 26.033-.096 35.907z" fill="#f2ebe5"/></g></g><g><g><circle cx="2169.84" cy="1855.337" fill="#f2ebe5" r="25.39"/></g></g></g></g><g><g><g><g><path d="m1754.178 1968.936c-4.277 13.331-18.601 20.697-31.932 16.421s-20.699-18.602-16.423-31.933 18.603-20.696 31.934-16.42c13.331 4.277 20.697 18.601 16.421 31.932z" fill="#f2ebe5"/></g></g><g><g><path d="m2020.048 1140.162c-4.276 13.331-18.601 20.697-31.932 16.421-13.331-4.277-20.699-18.602-16.423-31.933 4.277-13.331 18.603-20.696 31.934-16.42 13.332 4.277 20.698 18.601 16.421 31.932z" fill="#f2ebe5"/></g></g></g><g><g><g><path d="m1472.726 1421.614c-4.276 13.331-18.601 20.697-31.932 16.421-13.331-4.277-20.699-18.602-16.423-31.933 4.277-13.331 18.603-20.696 31.934-16.42 13.332 4.277 20.698 18.601 16.421 31.932z" fill="#f2ebe5"/></g></g><g><g><circle cx="2277.324" cy="1679.729" fill="#f2ebe5" r="25.39"/></g></g></g></g></g><g><path d="m1862.937 1588.794c-.434 0-.866-.007-1.301-.021-11.134-.345-21.675-5.098-29.304-13.214l-188.648-200.705c-15.887-16.901-15.063-43.481 1.838-59.368 16.902-15.887 43.482-15.063 59.369 1.838l159.883 170.102 174.352-163.88c16.902-15.886 43.482-15.063 59.368 1.839 15.886 16.901 15.064 43.481-1.838 59.368l-204.955 192.644c-7.8 7.331-18.093 11.397-28.764 11.397z" fill="#97d9e8"/></g></g><g><path d="m5840.211 5427.949h-5501.198c-12.151 0-22-9.85-22-22s9.849-22 22-22h5501.198c12.15 0 22 9.85 22 22s-9.85 22-22 22z" fill="#552527"/></g><g><path d="m1846.343 2445.792c-121.264 0-238.923-23.759-349.708-70.618-106.985-45.25-203.059-110.022-285.552-192.516s-147.265-178.567-192.516-285.553c-46.858-110.785-70.617-228.444-70.617-349.708 0-23.196 18.804-42 42-42s42 18.804 42 42c0 109.961 21.527 216.61 63.982 316.985 41.016 96.973 99.742 184.072 174.549 258.878 74.806 74.807 161.905 133.533 258.878 174.55 100.376 42.455 207.025 63.981 316.986 63.981 23.196 0 42 18.804 42 42s-18.806 42.001-42.002 42.001z" fill="#f78d98"/></g><g><path d="m2702.737 1589.397c-23.196 0-42-18.804-42-42 0-109.961-21.527-216.61-63.982-316.986-41.016-96.973-99.743-184.072-174.549-258.878-74.806-74.807-161.906-133.533-258.878-174.549-100.375-42.456-207.025-63.982-316.986-63.982-23.196 0-42-18.804-42-42s18.804-42 42-42c121.264 0 238.923 23.759 349.708 70.618 106.985 45.251 203.059 110.022 285.552 192.516 82.494 82.494 147.265 178.567 192.516 285.553 46.858 110.786 70.617 228.445 70.617 349.709.002 23.195-18.802 41.999-41.998 41.999z" fill="#f78d98"/></g></g><g/><g/><g/><g/><g/><g/><g/><g/><g/><g/><g/><g/><g/><g/><g/></svg>