<?xml version="1.0" encoding="iso-8859-1"?>
<!-- Generator: Adobe Illustrator 27.2.0, SVG Export Plug-In . SVG Version: 6.00 Build 0)  -->
<svg version="1.1" id="Capa_1" xmlns="http://www.w3.org/2000/svg" xmlns:xlink="http://www.w3.org/1999/xlink" x="0px" y="0px"
	 viewBox="0 0 509.536 509.536" style="enable-background:new 0 0 509.536 509.536;" xml:space="preserve">
<g>
	<g>
		<g>
			<g>
				<path style="fill:#FFFFFF;" d="M77.026,361.258c-7.819,37.075-33.239,67.594-67.032,82.262l-0.002,0.002
					c16.764,19.276,41.38,31.448,68.817,31.448c28.037,0,53.127-12.709,69.903-32.719c36.08,24.932,79.756,39.519,126.813,39.519
					c123.969,0,224.466-101.242,224.466-226.131S399.495,29.508,275.526,29.508S51.06,130.75,51.06,255.639
					c0,38.155,9.38,74.103,25.944,105.631L77.026,361.258z"/>
				<path style="fill:#FFFFFF;" d="M275.526,483.27c-45.399,0-89.126-13.487-126.547-39.018
					c-17.69,20.493-43.185,32.217-70.169,32.217c-26.788,0-52.284-11.65-69.949-31.963l-1.025-1.179l1.376-1.102l0.186-0.082
					c33.624-14.595,58.275-44.707,66.04-80.63C58.506,329.104,49.56,292.507,49.56,255.639c0-60.8,23.503-117.962,66.18-160.956
					c42.68-42.996,99.427-66.675,159.787-66.675c60.359,0,117.106,23.679,159.786,66.675c42.677,42.994,66.18,100.155,66.18,160.956
					s-23.503,117.962-66.18,160.956C392.633,459.591,335.886,483.27,275.526,483.27z M148.441,440.239l1.124,0.777
					c37.164,25.68,80.72,39.254,125.961,39.254c122.943,0,222.966-100.769,222.966-224.631S398.47,31.008,275.526,31.008
					c-122.944,0-222.966,100.769-222.966,224.631c0,36.054,8.667,71.842,25.08,103.607l1.487-0.776l-0.633,3.098
					c-7.687,36.445-32.295,67.135-66.018,82.49c17.031,18.718,41.089,29.412,66.333,29.412c26.547,0,51.606-11.73,68.754-32.183
					L148.441,440.239z"/>
			</g>
		</g>
		<path style="fill:#D2DCFD;" d="M153.354,263.064c0-93.742,42.534-177.542,109.345-233.181
			C144.7,36.582,51.06,135.088,51.06,255.639c0,38.155,9.38,74.103,25.944,105.631l0.022-0.012
			c-7.819,37.075-33.239,67.594-67.032,82.262l-0.002,0.002c16.764,19.276,41.38,31.448,68.817,31.448
			c28.037,0,53.127-12.709,69.903-32.719c27.953,19.315,60.467,32.416,95.578,37.341
			C188.179,424.546,153.354,347.878,153.354,263.064z"/>
		<g>
			<g id="favorite_00000062183183463637349520000013459859899460470200_">
				<path style="fill:#FD6050;" d="M290.47,349.582c-8.457,7.746-21.431,7.746-29.888,0l0,0
					c-55.507-49.102-91.799-82.193-91.799-122.755c0-33.09,25.618-58.709,58.709-58.709c16.029,0,32.059,6.663,43.674,17.783
					c2.444,2.339,6.278,2.339,8.722,0c11.615-11.119,27.644-17.783,43.674-17.783c33.091,0,58.709,25.618,58.709,58.709
					C382.269,267.39,345.977,300.48,290.47,349.582L290.47,349.582z"/>
			</g>
		</g>
	</g>
	<g>
		<g>
			<g id="favorite_00000068656275380308613070000012887279135667846064_">
				<path style="fill:#052A75;" d="M275.526,365.454c-7.728,0-15.456-2.812-21.629-8.435
					c-55.221-48.85-95.114-84.156-95.114-130.192c0-38.528,30.181-68.709,68.709-68.709c17.371,0,34.687,6.605,48.035,18.227
					c13.348-11.622,30.663-18.227,48.034-18.227c38.528,0,68.709,30.181,68.709,68.709c0,46.036-39.892,81.342-95.114,130.191
					C290.982,362.643,283.255,365.454,275.526,365.454z M227.492,178.118c-27.768,0-48.709,20.94-48.709,48.709
					c0,35.323,31.952,65.308,88.425,115.265c0.043,0.038,0.086,0.077,0.128,0.116c4.67,4.276,11.711,4.276,16.379,0
					c0.043-0.039,0.086-0.078,0.129-0.116c56.474-49.957,88.426-79.943,88.426-115.265c0-27.769-20.94-48.709-48.709-48.709
					c-13.202,0-26.943,5.61-36.759,15.006c-6.324,6.054-16.23,6.052-22.553-0.001C254.434,183.728,240.693,178.118,227.492,178.118z
					"/>
			</g>
		</g>
		<path style="fill:#052A75;" d="M441.345,87.695C354.054-3.941,196.994-3.946,109.707,87.698
			C38.329,157.619,20.63,272.972,66.464,361.585c-7.852,31.982-30.237,58.648-60.454,71.763c-1.829,0.809-3.407,2.151-4.469,3.833
			c-1.381,2.185-1.862,4.895-1.327,7.422c0.335,1.625,1.145,3.195,2.233,4.481c37.08,44.04,107.919,46.505,147.851,5.22
			c89.647,58.816,216.53,44.813,291.047-32.723C532.264,333.703,532.268,175.574,441.345,87.695z M275.526,470.77
			c-43.517,0.001-85.411-13.062-121.155-37.763c-1.236-0.837-2.649-1.421-4.129-1.63c-2.711-0.45-5.568,0.326-7.723,2.02
			c-28.422,35.121-81.004,41.045-115.599,11.749c30.525-17.721,52.502-47.791,59.891-82.824c0.53-2.513,0.056-4.999-1.135-7.06
			C10.329,214.221,115.632,37.117,275.528,38.509C560.023,50.35,559.965,458.959,275.526,470.77z"/>
	</g>
</g>
<g>
</g>
<g>
</g>
<g>
</g>
<g>
</g>
<g>
</g>
<g>
</g>
<g>
</g>
<g>
</g>
<g>
</g>
<g>
</g>
<g>
</g>
<g>
</g>
<g>
</g>
<g>
</g>
<g>
</g>
</svg>
