<svg id="Layer_1" viewBox="0 0 512 512" xmlns="http://www.w3.org/2000/svg" data-name="Layer 1"><path d="m200.542 502.674c94.887 0 172.26-77.4 172.26-172.289s-77.373-172.259-172.26-172.259-172.289 77.374-172.289 172.259 77.4 172.289 172.289 172.289z" fill="#ffd23b" fill-rule="evenodd"/><path d="m200.542 465.955c74.663 0 135.541-60.878 135.541-135.57 0-74.662-60.878-135.54-135.541-135.54s-135.569 60.878-135.569 135.54c0 74.692 60.907 135.57 135.569 135.57z" fill="#ffab02" fill-rule="evenodd"/><path d="m412.698 122.368v389.632h-86.116v-389.632h-71.048l114.092-122.368 114.121 122.368z" fill="#69a7ff" fill-rule="evenodd"/><path d="m193.344 236.4a7.2 7.2 0 0 1 14.4 0v18.971a61.753 61.753 0 0 1 22.206 6.645c8.946 4.75 15.912 11.628 19.758 19.729a7.176 7.176 0 1 1 -12.968 6.149c-2.506-5.275-7.256-9.85-13.464-13.172a48.749 48.749 0 0 0 -22.731-5.362c-21.069 0-38.118 12.064-38.118 26.927 0 7.053 3.964 13.551 10.375 18.389 6.994 5.275 16.786 8.539 27.743 8.539 14.076 0 26.928 4.371 36.341 11.452 9.966 7.519 16.144 18.039 16.144 29.842s-6.178 22.323-16.144 29.842a59.034 59.034 0 0 1 -29.142 11.074v18.942a7.2 7.2 0 0 1 -14.4 0v-18.94a61.393 61.393 0 0 1 -22.206-6.645c-8.947-4.75-15.941-11.627-19.788-19.729a7.183 7.183 0 0 1 13-6.12c2.506 5.246 7.256 9.821 13.463 13.144a48.668 48.668 0 0 0 22.731 5.361c10.929 0 20.72-3.264 27.715-8.538 6.411-4.838 10.4-11.336 10.4-18.389s-3.992-13.551-10.4-18.389c-7-5.275-16.786-8.539-27.715-8.539-14.1 0-26.956-4.371-36.34-11.452-10-7.519-16.174-18.068-16.174-29.842 0-20.895 19.729-38.176 45.316-40.916z" fill="#ffd23b"/><g fill-rule="evenodd"><path d="m50.81 330.385a172.27 172.27 0 0 1 160.981-171.91c-3.7-.233-7.46-.349-11.249-.349-95.149 0-172.289 77.139-172.289 172.259a172.293 172.293 0 0 0 172.289 172.289c3.789 0 7.548-.116 11.249-.349a172.318 172.318 0 0 1 -160.981-171.94z" fill="#e8bd31"/><path d="m320.608 330.385a135.6 135.6 0 0 1 -127.817 135.366c2.564.146 5.129.2 7.751.2a135.563 135.563 0 0 0 126.04-85.591v-99.924a135.563 135.563 0 0 0 -126.04-85.591c-2.622 0-5.187.058-7.751.2a135.594 135.594 0 0 1 127.817 135.34z" fill="#ed9e00"/><path d="m354.122 252.314v-129.946h-27.54v90.603 67.465 99.928 67.465 64.171h27.54v-103.513z" fill="#5f96e6"/><path d="m283.102 122.368 100.308-107.593-13.784-14.775-114.092 122.368z" fill="#5f96e6"/></g></svg>