<?xml version="1.0" encoding="iso-8859-1"?>
<!-- Generator: Adobe Illustrator 27.0.0, SVG Export Plug-In . SVG Version: 6.00 Build 0)  -->
<svg version="1.1" id="Capa_1" xmlns="http://www.w3.org/2000/svg" xmlns:xlink="http://www.w3.org/1999/xlink" x="0px" y="0px"
	 viewBox="0 0 512 512" style="enable-background:new 0 0 512 512;" xml:space="preserve">
<g>
	<g>
		<path style="fill:#67CCD1;" d="M472,372.414H40c-16.569,0-30-13.431-30-30V49.554c0-16.569,13.431-30,30-30h432
			c16.569,0,30,13.431,30,30v292.86C502,358.983,488.569,372.414,472,372.414z"/>
		<path style="fill:#D2DCFD;" d="M10,306.145v36.269c0,16.569,13.431,30,30,30h432c16.569,0,30-13.431,30-30v-36.269H10z"/>
		<path style="fill:#27A2CC;" d="M502,261.964V49.554c0-16.569-13.431-30-30-30H256v242.41H502z"/>
		<polygon style="fill:#93B2F4;" points="301.602,448.267 210.398,448.267 221.59,372.447 290.41,372.447 		"/>
		<rect x="123.959" y="448.267" style="fill:#D2DCFD;" width="264.081" height="44.18"/>
		<path style="fill:#FD6050;" d="M419.566,118.27l1.6,1.6c22.656,22.656,24.091,58.92,3.297,83.295l0,0h-47.334L419.566,118.27z"/>
		<path style="fill:#BC9AF4;" d="M459.924,261.965v-4.179c0-33.014-26.763-59.777-59.777-59.777h0h-42.294h0
			c-33.014,0-59.777,26.763-59.777,59.777v4.179H459.924z"/>
		<polygon style="fill:#FD7DA0;" points="357.853,164.736 357.853,198.009 379,219.156 400.147,198.009 400.147,164.736 		"/>
		<path style="fill:#FDBEB9;" d="M419.566,118.27v16.715c0,22.295-17.735,40.878-40.027,41.167
			c-22.651,0.294-41.105-17.979-41.105-40.563v-17.32L379,94.506L419.566,118.27z"/>
		<path style="fill:#FD8F01;" d="M379,63.733c-22.404,0-40.566,18.162-40.566,40.566v13.971l31.321,0l9.245-9.245l9.245,9.245
			l31.321,0v-13.971C419.566,81.895,401.404,63.733,379,63.733L379,63.733z"/>
		<path style="fill:#FDCB50;" d="M155.967,236.684L155.967,236.684c35.856,0,64.923,29.067,64.923,64.923v4.538H45.11v-4.538
			c0-35.856,29.067-64.923,64.923-64.923h0H155.967z"/>
		<polygon style="fill:#F7B073;" points="155.967,200.792 155.967,236.684 133,259.651 110.033,236.684 110.033,200.792 		"/>
		<path style="fill:#FDE0BE;" d="M177.058,140.04v28.195c0,24.214-19.261,44.397-43.473,44.711
			c-24.6,0.319-44.643-19.527-44.643-44.054V140.04L177.058,140.04z"/>
		<path style="fill:#6864F7;" d="M133,90.85c-24.332,0-44.058,19.725-44.058,44.058v5.132l88.116,0v-5.132
			C177.058,110.576,157.332,90.85,133,90.85L133,90.85z"/>
		<path style="fill:#FD8F01;" d="M103.645,265.3c0-10.1,1.92-19.751,5.416-28.609c-35.407,0.52-63.95,29.384-63.95,64.915v4.539
			h70.076C107.867,294.266,103.645,280.276,103.645,265.3z"/>
	</g>
	<path style="fill:#052A75;" d="M472,9.554H40c-22.056,0-40,17.944-40,40v292.86c0,22.056,17.944,40,40,40h170.01l-8.245,55.853
		H123.96c-5.522,0-10,4.477-10,10v44.18c0,5.523,4.478,10,10,10h264.08c5.522,0,10-4.477,10-10v-44.18c0-5.523-4.478-10-10-10
		h-77.806l-8.245-55.853H472c22.056,0,40-17.944,40-40V49.554C512,27.498,494.056,9.554,472,9.554z M378.04,482.446H133.96v-24.18
		h244.08V482.446z M221.982,438.267l8.239-55.819h51.557l8.239,55.819H221.982z M492,49.554v202.411h-22.317
		c-1.798-21.655-13.528-40.536-30.611-52.061c7.064-11.816,10.58-25.459,10.027-39.426c-0.687-17.369-7.606-33.74-19.533-46.314
		v-9.864c0-27.882-22.684-50.566-50.566-50.566s-50.566,22.684-50.566,50.566v31.291c0,13.63,5.343,26.411,15.044,35.988
		c1.396,1.378,2.857,2.663,4.376,3.856v13.29c-31.868,4.594-56.844,30.805-59.537,63.241H266V29.554h206
		C483.028,29.554,492,38.526,492,49.554z M369.755,128.27c2.652,0,5.195-1.054,7.071-2.929l2.174-2.174l2.174,2.174
		c1.876,1.875,4.419,2.929,7.071,2.929h21.321v6.715c0,16.97-13.528,30.952-30.157,31.168c-8.259,0.081-16.018-3.022-21.881-8.81
		c-5.865-5.789-9.095-13.515-9.095-21.754v-7.32H369.755z M410.146,188.724v-13.512c8.018-6.385,14.103-15.158,17.182-25.22
		c3.641,13.759,1.565,28.816-6.386,41.182C417.452,190.082,413.846,189.257,410.146,188.724z M409.566,108.27h-17.179l-6.316-6.316
		c-3.906-3.904-10.236-3.904-14.143,0l-6.316,6.316h-17.179v-3.971c0-16.854,13.712-30.566,30.566-30.566
		s30.566,13.712,30.566,30.566V108.27z M378.992,186.156c0.225,0,0.451-0.001,0.677-0.004c3.593-0.047,7.098-0.479,10.478-1.257
		v9.035L379,205.077l-11.146-11.147v-8.998C371.468,185.741,375.198,186.156,378.992,186.156z M353.812,208.173l18.117,18.117
		c1.953,1.953,4.512,2.929,7.071,2.929s5.118-0.976,7.071-2.929l18.117-18.117c23.634,1.908,42.659,20.397,45.396,43.792H308.415
		C311.153,228.57,330.177,210.081,353.812,208.173z M40,29.554h206v232.411c0,5.523,4.478,10,10,10h236v24.181H230.692
		c-2.565-35.444-29.895-64.132-64.726-68.797v-15.84c12.808-10.042,21.091-25.75,21.091-43.273v-33.327
		c0-29.808-24.25-54.058-54.058-54.058s-54.058,24.25-54.058,54.058v33.983c0,14.572,5.712,28.235,16.083,38.473
		c1.593,1.572,3.265,3.034,5.008,4.38v15.603c-34.831,4.664-62.16,33.352-64.726,68.797H20V49.554
		C20,38.526,28.972,29.554,40,29.554z M98.942,150.041h68.115v18.194c0,18.9-15.074,34.472-33.603,34.712
		c-9.178,0.121-17.847-3.367-24.38-9.816c-6.534-6.45-10.133-15.059-10.133-24.239V150.041z M99.289,130.041
		c2.369-16.481,16.584-29.19,33.711-29.19s31.342,12.709,33.711,29.19H99.289z M132.992,222.95c0.239,0,0.482-0.001,0.723-0.005
		c4.215-0.055,8.317-0.606,12.252-1.597v11.262L133,245.577l-12.967-12.967v-11.215C124.224,222.422,128.567,222.95,132.992,222.95z
		 M105.972,246.833l19.957,19.957c1.876,1.875,4.419,2.929,7.071,2.929s5.195-1.054,7.071-2.929l19.957-19.957
		c26.586,1.953,47.974,22.914,50.592,49.312H55.38C57.998,269.746,79.386,248.785,105.972,246.833z M472,362.414H40
		c-11.028,0-20-8.972-20-20v-26.269h472v26.269C492,353.442,483.028,362.414,472,362.414z"/>
</g>
<g>
</g>
<g>
</g>
<g>
</g>
<g>
</g>
<g>
</g>
<g>
</g>
<g>
</g>
<g>
</g>
<g>
</g>
<g>
</g>
<g>
</g>
<g>
</g>
<g>
</g>
<g>
</g>
<g>
</g>
</svg>
