<?xml version="1.0" encoding="iso-8859-1"?>
<!-- Generator: Adobe Illustrator 26.5.1, SVG Export Plug-In . SVG Version: 6.00 Build 0)  -->
<svg version="1.1" id="Capa_1" xmlns="http://www.w3.org/2000/svg" xmlns:xlink="http://www.w3.org/1999/xlink" x="0px" y="0px"
	 viewBox="0 0 510 510" style="enable-background:new 0 0 510 510;" xml:space="preserve">
<g>
	<g>
		<path style="fill-rule:evenodd;clip-rule:evenodd;fill:#FDCB50;" d="M439.003,87.5c-20.688,5.543-30.976,28.303-25.185,49.915
			c8.068,30.11-35.812,27.565-35.812,70.603c0,33.193,27.564,61.61,60.997,61.482C472.436,269.627,500,241.211,500,208.017
			c0-7.778-1.762-16.008-4.698-24.222c-13.749,13.749-32.909,7.914-36.86-6.833c-5.258-19.624,12.973-23.226,8.794-38.821
			C461.738,117.62,439.003,119.376,439.003,87.5z"/>
		<path style="fill-rule:evenodd;clip-rule:evenodd;fill:#FD8F01;" d="M378.266,202.5c-0.168,1.754-0.259,3.588-0.259,5.518
			c0,33.193,27.564,61.61,60.997,61.482c18.262,0.07,34.773-8.378,45.997-21.468V242.5c0-22-18-40-40-40H378.266z"/>
		<path style="fill-rule:evenodd;clip-rule:evenodd;fill:#FDCB50;" d="M85.721,87.5c-25.682,6.881-38.453,35.135-31.264,61.963
			C64.472,186.841,10,183.682,10,237.109c0,41.206,34.218,76.481,75.721,76.323c41.503,0.158,75.721-35.117,75.721-76.323
			c0-9.655-2.937-29.873-11.832-39.569c-51.554-5.033-26.234-34.97-31.257-53.716C111.263,117.362,85.721,127.07,85.721,87.5z"/>
		<path style="fill-rule:evenodd;clip-rule:evenodd;fill:#FD8F01;" d="M25.001,282.226c13.859,18.818,35.996,31.3,60.721,31.206
			c41.503,0.158,75.721-35.117,75.721-76.323c0-8.218-2.129-24.088-8.248-34.609H65.001c-22,0-40,18-40,40V282.226z"/>
		<rect x="65.001" y="242.5" style="fill-rule:evenodd;clip-rule:evenodd;fill:#67CCD1;" width="380" height="180"/>
	</g>
	<g>
		<path style="fill:#052A75;" d="M510,208.017c0-8.503-1.777-17.785-5.282-27.588c-1.153-3.227-3.88-5.639-7.224-6.39
			c-3.344-0.753-6.84,0.262-9.264,2.686c-4.112,4.112-8.921,5.811-13.2,4.668c-3.406-0.913-5.996-3.537-6.93-7.019
			c-1.106-4.129,0.342-6.925,3.456-12.359c3.574-6.236,8.47-14.777,5.339-26.461c-3.026-11.296-10.06-17.642-15.711-22.742
			c-7.072-6.381-12.182-10.992-12.182-25.312c0-3.109-1.446-6.041-3.912-7.934c-2.467-1.893-5.678-2.529-8.676-1.726
			c-12.69,3.4-22.962,11.996-28.921,24.204c-5.622,11.52-6.807,25-3.335,37.958c2.037,7.605-0.185,10.445-10.574,19.289
			c-10.795,9.188-25.578,21.771-25.578,48.727c0,8.364,1.506,16.642,4.414,24.482H171.284c-0.748-11.718-4.322-30.838-14.306-41.72
			c-1.666-1.816-3.943-2.953-6.396-3.192c-15.706-1.533-20.805-5.331-22.445-7.458c-2.67-3.46-1.61-10.055-0.489-17.036
			c1.094-6.805,2.332-14.518,0.365-21.858c-3.886-14.504-12.369-20.884-19.186-26.011c-7.892-5.934-13.104-9.854-13.104-27.726
			c0-3.109-1.446-6.041-3.912-7.934c-2.468-1.893-5.678-2.529-8.676-1.726c-15.07,4.038-27.271,14.256-34.357,28.774
			c-6.725,13.777-8.138,29.914-3.979,45.437c3.06,11.419-1.747,16.069-13.895,26.408C17.861,189.559,0,204.762,0,237.109
			c0,35.097,22.422,67.626,55.001,80.509V422.5c0,5.523,4.478,10,10,10H445c5.522,0,10-4.477,10-10V277.657
			C486.678,270.179,510,241.08,510,208.017z M20,237.109c0-23.106,11.593-32.973,23.866-43.42
			c11.897-10.126,26.704-22.729,20.25-46.815c-2.868-10.705-1.909-22.182,2.633-31.487c2.542-5.208,6.085-9.537,10.374-12.774
			c3.381,16.338,12.25,23.008,19.683,28.597c5.682,4.273,9.786,7.36,11.888,15.203c0.86,3.212,0.02,8.447-0.793,13.51
			c-1.583,9.853-3.553,22.115,4.4,32.424c6.052,7.846,16.259,12.543,31.931,14.639c3.933,6.397,6.321,17.209,7.006,25.514H65.001
			c-5.522,0-10,4.477-10,10v53.07C33.956,284.043,20,261.372,20,237.109z M435,412.5H75.001v-160H435V412.5z M455,256.876V242.5
			c0-5.523-4.478-10-10-10h-50.646c-4.16-7.577-6.347-15.98-6.347-24.482c0-17.715,8.592-25.028,18.541-33.497
			c10.001-8.512,22.446-19.105,16.93-39.695c-2.191-8.177-1.466-16.928,1.99-24.008c1.441-2.953,3.309-5.528,5.52-7.656
			c3.498,12.497,10.946,19.218,16.799,24.499c4.815,4.345,8.295,7.484,9.791,13.069c0.914,3.414-0.137,5.694-3.372,11.341
			c-3.678,6.416-8.713,15.202-5.423,27.481c2.805,10.466,10.683,18.376,21.072,21.16c6.392,1.712,13.093,1.249,19.374-1.168
			c0.514,2.966,0.771,5.797,0.771,8.475C490,230.222,475.427,249.942,455,256.876z"/>
		<g>
			<path style="fill:#FFFFFF;" d="M234.576,298.5c5.522,0,10-4.477,10-10s-4.478-10-10-10h-38.5c-5.522,0-10,4.477-10,10v88
				c0,5.523,4.478,10,10,10h38.5c5.522,0,10-4.477,10-10s-4.478-10-10-10h-28.5v-24h17.087c5.522,0,10-4.477,10-10s-4.478-10-10-10
				h-17.087v-24H234.576z"/>
			<path style="fill:#FFFFFF;" d="M156.076,278.5c-5.522,0-10,4.477-10,10v45.639l-25.056-50.111
				c-2.074-4.148-6.726-6.329-11.242-5.26c-4.514,1.065-7.702,5.095-7.702,9.732v88c0,5.523,4.478,10,10,10s10-4.477,10-10v-45.639
				l25.056,50.111c1.722,3.443,5.221,5.529,8.942,5.529c0.762,0,1.532-0.087,2.3-0.269c4.514-1.065,7.702-5.095,7.702-9.732v-88
				C166.076,282.977,161.599,278.5,156.076,278.5z"/>
			<path style="fill:#FFFFFF;" d="M388.416,325.683l-11.697-4.845c-2.845-1.178-5.068-3.414-6.262-6.296s-1.202-6.036-0.023-8.881
				c1.178-2.845,3.413-5.068,6.295-6.262c2.882-1.195,6.035-1.202,8.882-0.024l5.849,2.422c5.102,2.114,10.951-0.309,13.065-5.412
				c2.113-5.103-0.311-10.952-5.413-13.065l-5.849-2.422c-7.781-3.223-16.369-3.213-24.188,0.023
				c-7.817,3.238-13.898,9.307-17.119,17.086c-3.224,7.78-3.215,16.37,0.023,24.188c3.237,7.818,9.306,13.898,17.086,17.12
				l11.697,4.845c5.917,2.451,8.736,9.259,6.285,15.177c-1.178,2.845-3.413,5.068-6.295,6.262c-2.883,1.192-6.035,1.202-8.881,0.024
				l-5.849-2.422c-5.1-2.114-10.951,0.31-13.065,5.412c-2.113,5.103,0.311,10.952,5.413,13.065l5.848,2.422
				c3.881,1.607,7.962,2.411,12.049,2.411c4.107,0,8.221-0.812,12.139-2.435c7.818-3.238,13.898-9.307,17.119-17.086
				C412.197,350.885,404.522,332.355,388.416,325.683z"/>
			<path style="fill:#FFFFFF;" d="M325.356,278.53c-5.506-0.43-10.319,3.684-10.749,9.191l-3.926,50.244l-4.55-9.707
				c-1.646-3.512-5.176-5.755-9.055-5.755s-7.408,2.243-9.055,5.755l-4.551,9.708l-3.925-50.245
				c-0.43-5.505-5.234-9.61-10.748-9.191c-5.507,0.43-9.621,5.242-9.191,10.749l6.874,88c0.354,4.526,3.711,8.246,8.178,9.059
				c4.461,0.815,8.919-1.483,10.847-5.593l11.571-24.682l11.569,24.682c1.668,3.557,5.228,5.756,9.051,5.756
				c0.595,0,1.195-0.053,1.796-0.163c4.466-0.813,7.824-4.533,8.178-9.059l6.876-88C334.977,283.773,330.862,278.96,325.356,278.53z
				"/>
		</g>
	</g>
</g>
<g>
</g>
<g>
</g>
<g>
</g>
<g>
</g>
<g>
</g>
<g>
</g>
<g>
</g>
<g>
</g>
<g>
</g>
<g>
</g>
<g>
</g>
<g>
</g>
<g>
</g>
<g>
</g>
<g>
</g>
</svg>
