<svg height="512" viewBox="0 0 60 60" width="512" xmlns="http://www.w3.org/2000/svg"><g id="Page-1" fill="none" fill-rule="evenodd"><g id="048---AI-Idea-Sharing" transform="translate(-1 -1)"><g id="Icons_copy" transform="translate(2 1)"><path id="Path" d="m37.01 44c-.01.13-.01.27-.01.4v7.6c0 1.6568542-1.3431458 3-3 3h-10c-1.6568542 0-3-1.3431458-3-3v-7.5c0-.17 0-.33-.01-.5z" fill="#9e9e9e"/><path id="Path" d="m34.01 44c-.01.13-.01.27-.01.4v7.6c0 1.6568542-1.3431458 3-3 3h3c1.6568542 0 3-1.3431458 3-3v-7.6c0-.13 0-.27.01-.4z" fill="#707070"/><path id="Path" d="m41.42 34.38c-2.7583718 2.4431147-4.359393 5.9355918-4.41 9.62h-16.02c-.0872348-3.696001-1.6975927-7.1917442-4.45-9.66-5.9877964-5.203622-8.11241733-13.5797149-5.3288008-21.008232 2.7836166-7.42851709 9.8895159-12.34574613 17.8224362-12.33299224s15.0229719 4.95280601 17.7826882 12.39023524c2.7597164 7.4374292.6081737 15.8066472-5.3963236 20.990989z" fill="#ffdf00"/><path id="Path" d="m47.89 17.93c-.985553-8.8137116-7.9210902-15.78241328-16.73-16.81-1.2119994-.13156632-2.4336382-.14964483-3.649-.054.216.017.431.03.649.054 7.4965897.85591368 13.7763423 6.06665035 16.0004849 13.2766875 2.2241425 7.2100371-.0288408 15.0529406-5.7404849 19.9833125-2.7583718 2.4431147-4.359393 5.9355918-4.41 9.62h3c.050607-3.6844082 1.6516282-7.1768853 4.41-9.62 4.731365-4.0851744 7.1506478-10.2362102 6.47-16.45z" fill="#fec108"/><path id="Path" d="m34 55c0 2.21-2.24 4-5 4s-5-1.79-5-4" fill="#37474f"/><path id="Path" d="m18 47h3v4h-3c-1.1045695 0-2-.8954305-2-2s.8954305-2 2-2z" fill="#707070"/><path id="Path" d="m39 47h3v4h-3c-1.1045695 0-2-.8954305-2-2s.8954305-2 2-2z" fill="#707070" transform="matrix(-1 0 0 -1 79 98)"/><g fill="#00bcd4"><circle id="Oval" cx="3" cy="20" r="3"/><circle id="Oval" cx="5" cy="4" r="3"/><circle id="Oval" cx="5" cy="36" r="3"/><circle id="Oval" cx="55" cy="20" r="3"/><circle id="Oval" cx="53" cy="4" r="3"/><circle id="Oval" cx="53" cy="36" r="3"/></g><path id="Path" d="m53 33c-.5281059.0027453-1.0459153.1463511-1.5.416.9273539.5298262 1.4996803 1.5159639 1.4996803 2.584s-.5723264 2.0541738-1.4996803 2.584c.4540847.2696489.9718941.4132547 1.5.416 1.6568542 0 3-1.3431458 3-3s-1.3431458-3-3-3z" fill="#00838f"/><path id="Path" d="m55 17c-.5281059.0027453-1.0459153.1463511-1.5.416.9273539.5298262 1.4996803 1.5159639 1.4996803 2.584s-.5723264 2.0541738-1.4996803 2.584c.4540847.2696489.9718941.4132547 1.5.416 1.6568542 0 3-1.3431458 3-3s-1.3431458-3-3-3z" fill="#00838f"/><path id="Path" d="m53 1c-.5281059.00274535-1.0459153.14635115-1.5.416.9273539.5298262 1.4996803 1.5159639 1.4996803 2.584s-.5723264 2.0541738-1.4996803 2.584c.4540847.26964885.9718941.41325465 1.5.416 1.6568542 0 3-1.34314575 3-3s-1.3431458-3-3-3z" fill="#00838f"/><path id="Path" d="m5 1c-.52810593.00274535-1.0459153.14635115-1.5.416.92735392.5298262 1.49968025 1.5159639 1.49968025 2.584s-.57232633 2.0541738-1.49968025 2.584c.4540847.26964885.97189407.41325465 1.5.416 1.65685423-.00000002 2.99999996-1.34314577 2.99999996-3s-1.34314573-2.99999998-2.99999996-3z" fill="#00838f"/><path id="Path" d="m3 17c-.52810593.0027453-1.0459153.1463511-1.5.416.92735392.5298262 1.49968025 1.5159639 1.49968025 2.584s-.57232633 2.0541738-1.49968025 2.584c.4540847.2696489.97189407.4132547 1.5.416 1.65685425 0 3-1.3431458 3-3s-1.34314575-3-3-3z" fill="#00838f"/><path id="Path" d="m5 33c-.52810593.0027453-1.0459153.1463511-1.5.416.92735392.5298262 1.49968025 1.5159639 1.49968025 2.584s-.57232633 2.0541738-1.49968025 2.584c.4540847.2696489.97189407.4132547 1.5.416 1.65685425 0 3-1.3431458 3-3s-1.34314575-3-3-3z" fill="#00838f"/></g><g id="Icons"><path id="Path" d="m16 22c-.5522847 0-1-.4477153-1-1 .0311866-6.6095047 4.0958928-12.52955327 10.253-14.933.5152817-.19909865 1.0944013.05721833 1.2935.5725s-.0572183 1.09440135-.5725 1.2935c-5.3883493 2.1027164-8.9459865 7.2829755-8.974 13.067 0 .5522847-.4477153 1-1 1z" fill="#fff"/><g fill="#000"><path id="Shape" d="m26.923 14.615c-.1553161-.3725487-.5193719-.6152001-.923-.6152001s-.7676839.2426514-.923.6152001l-5 12c-.2126296.5097588.0282412 1.0953704.538 1.308s1.0953704-.0282412 1.308-.538l1.41-3.385h5.334l1.41 3.385c.1553781.3724703.5194204.6150337.923.615.1321949.0003751.2631182-.0258095.385-.077.2448085-.1020919.4390282-.297261.5399252-.5425644.1008969-.2453034.1002044-.5206429-.0019252-.7654356zm-2.756 7.385 1.833-4.4 1.833 4.4z" fill-rule="nonzero"/><path id="Path" d="m40 16c.5522847 0 1-.4477153 1-1s-.4477153-1-1-1h-6c-.5522847 0-1 .4477153-1 1s.4477153 1 1 1h2v10h-2c-.5522847 0-1 .4477153-1 1s.4477153 1 1 1h6c.5522847 0 1-.4477153 1-1s-.4477153-1-1-1h-2v-10z"/><path id="Shape" d="m57 17c-1.8184116.0068148-3.4034067 1.2393149-3.858 3h-2.169c-.019-.391-.047-.782-.088-1.174-.1769484-1.6506579-.5623515-3.2722405-1.147-4.826h3.262c1.6568542 0 3-1.3431458 3-3v-2.142c1.9503067-.50356703 3.2219252-2.37878672 2.9681188-4.37700052-.2538064-1.99821379-1.9538507-3.49598283-3.9681188-3.49598283s-3.7143124 1.49776904-3.9681188 3.49598283c-.2538064 1.9982138 1.0178121 3.87343349 2.9681188 4.37700052v2.142c0 .5522847-.4477153 1-1 1h-4.146c-3.3943446-6.74624464-10.3014544-11.00308657-17.8535-11.00308657s-14.4591554 4.25684193-17.8535 11.00308657h-4.147c-.55228475 0-1-.4477153-1-1v-2.142c1.95030672-.50356703 3.2219252-2.37878672 2.9681188-4.37700052-.2538064-1.99821379-1.95385068-3.49598283-3.9681188-3.49598283s-3.71431236 1.49776904-3.96811879 3.49598283c-.25380642 1.9982138 1.01781207 3.87343349 2.96811879 4.37700052v2.142c0 1.6568542 1.34314575 3 3 3h3.273c-.7212713 1.9240648-1.1415427 3.9478435-1.246 6h-2.169c-.50356703-1.9503067-2.37878672-3.2219252-4.37700052-2.9681188-1.99821379.2538064-3.49598283 1.9538507-3.49598283 3.9681188s1.49776904 3.7143124 3.49598283 3.9681188c1.9982138.2538064 3.87343349-1.0178121 4.37700052-2.9681188h2.169c.1030682 2.0521467.5226879 4.0760358 1.244 6h-3.271c-1.65685425 0-3 1.3431458-3 3v2.142c-1.95030672.503567-3.22192521 2.3787867-2.96811879 4.3770005.25380643 1.9982138 1.95385067 3.4959828 3.96811879 3.4959828s3.7143124-1.497769 3.9681188-3.4959828-1.01781208-3.8734335-2.9681188-4.3770005v-2.142c0-.5522847.44771525-1 1-1h4.145c1.1673595 2.3222645 2.7767848 4.3943401 4.738 6.1 2.6684916 2.3895339 4.1702605 5.8183966 4.117 9.4v1.5h-2c-1.6568542 0-3 1.3431458-3 3s1.3431458 3 3 3h2c.0039217 1.8592528 1.2884158 3.4706713 3.1 3.889.506 2.334 2.956 4.111 5.9 4.111s5.394-1.777 5.9-4.111c1.8115842-.4183287 3.0960783-2.0297472 3.1-3.889h2c1.6568542 0 3-1.3431458 3-3s-1.3431458-3-3-3h-2v-1.6c-.0529102-3.5328372 1.4337707-6.9139137 4.073-9.263 1.9777642-1.7124047 3.5986496-3.797808 4.77-6.137h4.157c.5522847 0 1 .4477153 1 1v2.142c-1.9503067.503567-3.2219252 2.3787867-2.9681188 4.3770005s1.9538507 3.4959828 3.9681188 3.4959828 3.7143124-1.497769 3.9681188-3.4959828-1.0178121-3.8734335-2.9681188-4.3770005v-2.142c0-1.6568542-1.3431458-3-3-3h-3.282c.7184143-1.9247567 1.1376135-3.9482444 1.243-6h2.181c.5232114 2.0075927 2.4967022 3.2800579 4.5412858 2.9281251 2.0445836-.3519327 3.4790448-2.2110063 3.3009012-4.2779954-.1781435-2.066989-1.9095378-3.6532132-3.984187-3.6501297zm-4-12c0-1.1045695.8954305-2 2-2s2 .8954305 2 2-.8954305 2-2 2-2-.8954305-2-2zm-48 0c0-1.1045695.8954305-2 2-2s2 .8954305 2 2-.8954305 2-2 2c-.53043298 0-1.03914081-.21071368-1.41421356-.58578644-.37507276-.37507275-.58578644-.88378058-.58578644-1.41421356zm4 32c0 1.1045695-.8954305 2-2 2s-2-.8954305-2-2 .8954305-2 2-2 2 .8954305 2 2zm48 0c0 1.1045695-.8954305 2-2 2s-2-.8954305-2-2 .8954305-2 2-2 2 .8954305 2 2zm-52-14c-1.1045695 0-2-.8954305-2-2s.8954305-2 2-2 2 .8954305 2 2-.8954305 2-2 2zm33 23v3h-14v-3zm-18 5c-.5522847 0-1-.4477153-1-1s.4477153-1 1-1h2v2zm11 8c-1.5270965.0887805-2.9758264-.6830522-3.754-2h7.508c-.7781736 1.3169478-2.2269035 2.0887805-3.754 2zm7-6c0 1.1045695-.8954305 2-2 2h-10c-1.1045695 0-2-.8954305-2-2v-2h14zm4-4c.5522847 0 1 .4477153 1 1s-.4477153 1-1 1h-2v-2zm.767-14.381c-2.7210787 2.4007819-4.404246 5.7638899-4.695 9.381h-14.148c-.3120733-3.6281794-2.0052449-6.9980561-4.73-9.414-3.8999648-3.3882085-6.1561047-8.2887924-6.1943719-13.4548565-.0382671-5.1660641 2.145028-10.0995327 5.9943719-13.5451435 3.2843201-2.96553388 7.5559648-4.60060299 11.981-4.586.6922377-.00013916 1.3839559.03791869 2.072.114 6.2118274.71644275 11.608633 4.6009317 14.26 10.264l.01.024c.8374147 1.7772118 1.3724271 3.681694 1.583 5.635.6310928 5.8849885-1.660011 11.7059535-6.133 15.582zm14.233-11.619c-1.1045695 0-2-.8954305-2-2s.8954305-2 2-2 2 .8954305 2 2-.8954305 2-2 2z" fill-rule="nonzero"/></g></g></g></g></svg>