<svg id="Capa_1" enable-background="new 0 0 512.034 512.034" viewBox="0 0 512.034 512.034" xmlns="http://www.w3.org/2000/svg"><g><g><g><g><g><g><path d="m413.136 79.418-108.231-59.316c-30.571-16.753-67.323-16.767-97.918 0-6.456 3.538-19.029 10.429-25.599 14.029-35.102 23.512-20.473 57.881 9.482 67.64l168.857 54.242c.101-.055 54.559-29.71 57.172-31.738 14.858-11.571 13.603-35.337-3.763-44.857z" fill="#594c5e"/><path d="m181.387 34.131-82.632 45.287c-17.366 9.52-18.621 33.285-3.763 44.857 2.613 2.028 57.071 31.683 57.172 31.738 40.552 9.057 80.4-52.256 51.522-57.993-29.99-5.023-42.72-41.315-22.299-63.889z" fill="#4c3e4f"/><path d="m359.819 165.671c0-5.718 0-24.813 0-29.381 0-24.368-46.487-44.127-103.818-44.127h-.12c-18.956 0-36.724 2.162-52.02 5.935-21.937 7.231-25.894 18.141-25.894 26.869v48.86l13.018 24.55c58.267 10.354 160.734-12.586 168.834-32.706z" fill="#4c3e4f"/><path d="m203.862 98.097c-30.963 7.638-51.788 21.882-51.788 38.193v29.381c3.764 8.251 18.671 29.107 38.912 32.705 0-43.441 0-74.917 0-76.209 0-8.729 4.673-16.933 12.876-24.07z" fill="#3c2f3f"/><path d="m190.986 165.671c-23.058 4.518-23.56 49.198 0 53.716h168.833v-53.716z" fill="#f0edff"/><path d="m152.074 165.671v53.716h38.912c0-14.255 0-29.07 0-53.716z" fill="#dcdbff"/><path d="m301.389 464.372v-38.906h-73.827v40.8c0 16.737 7.119 37.986 38.352 37.986 19.97-2.323 35.475-19.287 35.475-39.88z" fill="#4c3e4f"/><path d="m243.115 466.266v-40.8h-32.471v38.906c0 22.179 17.982 40.162 40.162 40.162h10.422c1.587 0 3.148-.102 4.687-.281-13.487-6.792-22.8-21.25-22.8-37.987z" fill="#3c2f3f"/><path d="m392.144 286.738c0-32.671-13.138-62.662-32.325-86.116h-168.594c-78.284 18.765-49.669 229.111 80.984 218.961 15.46-1.636 30.919-5.608 46.379-11.929 43.696-22.661 73.556-68.305 73.556-120.916z" fill="#fade65"/><path d="m191.225 200.621h-39.151c-59.039 72.169-31.561 169.209 41.371 207.033 26.255 10.734 52.51 14.707 78.764 11.929-100.622-11.536-144.197-135.234-80.984-218.962z" fill="#ffc647"/><circle cx="97.881" cy="195.792" fill="#fade65" r="15.061"/><path d="m331.32 425.466c0-10.496-8.516-18.826-18.826-18.826-28.211 0-56.477 0-84.836 0-20.086 0-23.472 10.585-23.472 18.826 0 8.243 0 18.826 23.471 18.826h84.837c10.402-.001 18.826-8.426 18.826-18.826z" fill="#594c5e"/><path d="m217.279 425.466c0-8.24 4.227-15.357 10.38-18.826-9.362 0-18.735 0-28.119 0-10.402 0-18.826 8.428-18.826 18.826 0 10.402 8.424 18.826 18.826 18.826h28.117c-6.151-3.468-10.378-10.583-10.378-18.826z" fill="#4c3e4f"/></g></g></g></g></g><g><path d="m367.32 197.989v-37.57c12.99-7.067 51.353-28.031 54.193-30.228 19.234-14.985 17.164-45.315-4.771-57.354l-49.238-26.979c-3.633-1.992-8.19-.659-10.181 2.974-1.99 3.632-.659 8.19 2.974 10.181l49.233 26.976c12.653 6.946 13.299 24.028 2.902 32.261-3.146 2.058-29.507 16.543-45.113 25.078v-7.038c0-14.985-12.422-28.518-34.976-38.104-67.368-28.634-187.771-9.876-187.771 38.104v7.043c-15.601-8.532-41.959-23.017-45.107-25.078-10.447-8.279-9.733-25.336 2.892-32.262 12.079-6.62 94.908-52.009 108.236-59.31 28.401-15.566 62.309-15.564 90.706 0l28.184 15.441c3.634 1.994 8.191.659 10.181-2.974s.659-8.19-2.974-10.181l-28.183-15.441c-32.909-18.038-72.21-18.038-105.121-.001-15.714 8.607-96.001 52.604-108.24 59.312-10.233 5.613-16.896 15.878-17.823 27.456-.93 11.628 3.948 22.802 13.058 29.897v44.327c-8.763 3.099-15.061 11.463-15.061 21.273 0 12.439 10.121 22.561 22.561 22.561s22.561-10.121 22.561-22.561c0-9.811-6.298-18.175-15.061-21.273v-35.641c13.073 7.299 31.085 17.135 39.192 21.546v37.572c-37.623 47.617-41.407 106.559-15.834 155.339 1.933 3.686 6.474 5.075 10.125 3.16 3.669-1.923 5.083-6.456 3.16-10.125-22.839-43.563-19.455-95.697 13.669-138.248h200.511c52.48 67.375 27.665 155.334-38.575 191.525-4.246-.843-6.045-.37-21.293-.507 26.32-58.988 21.814-110.803 21.596-113.108-.001-.009-.003-.017-.004-.025-.919-9.437-14.963-8.713-14.963.731 0 11.286-5.624 19.72-10.653 19.72-5.023 0-10.643-8.434-10.643-19.72 0-4.143-3.357-7.5-7.5-7.5s-7.5 3.357-7.5 7.5c0 11.286-5.624 19.72-10.653 19.72s-10.653-8.434-10.653-19.72c0-4.143-3.357-7.5-7.5-7.5s-7.5 3.357-7.5 7.5c0 11.286-5.619 19.72-10.643 19.72-5.029 0-10.653-8.434-10.653-19.72 0-.008-.001-.016-.001-.024-.019-9.611-14.064-9.956-14.962-.707-.001.009-.003.017-.004.025-.218 2.305-4.724 54.121 21.596 113.108-15.488.138-17.056-.332-21.272.503-12.485-6.822-23.711-15.592-33.368-26.148-2.798-3.056-7.539-3.265-10.597-.472-3.056 2.796-3.268 7.54-.472 10.597 8.767 9.583 18.686 17.862 29.583 24.72-14.593 16.989-2.462 43.452 19.968 43.452h3.605v12.581c0 26.28 21.381 47.661 47.661 47.661h10.422c26.28 0 47.661-21.381 47.661-47.661v-12.581h3.605c22.427 0 34.567-26.466 19.962-43.459 68.464-42.993 92.21-137.801 34.866-210.344zm-269.439 5.364c-4.169 0-7.561-3.392-7.561-7.561s3.392-7.561 7.561-7.561 7.561 3.392 7.561 7.561-3.392 7.561-7.561 7.561zm61.692-10.241v-19.94h192.747v19.94zm96.308-93.451h.121c56.762 0 96.317 19.304 96.317 36.628v21.882h-192.746c0-4.325 0-17.547 0-21.882 0-17.324 39.552-36.628 96.308-36.628zm-45.999 219.234c8.978 4.914 20.282 2.941 27.983-7.407 9.905 13.304 26.392 13.312 36.303 0 7.705 10.352 19.008 12.319 27.983 7.408-2.103 20.895-7.789 49.967-22.348 80.245h-47.573c-14.559-30.279-20.245-59.353-22.348-80.246zm84.007 145.477c0 18.01-14.651 32.661-32.661 32.661h-10.422c-18.01 0-32.661-14.651-32.661-32.661v-12.581h75.744zm18.605-27.581h-112.955c-6.245 0-11.325-5.081-11.325-11.326s5.08-11.325 11.325-11.325h112.955c6.245 0 11.325 5.08 11.325 11.325s-5.08 11.326-11.325 11.326z"/><path d="m451.804 278.656h-15.061c-4.143 0-7.5 3.357-7.5 7.5s3.357 7.5 7.5 7.5h15.061c4.143 0 7.5-3.357 7.5-7.5s-3.358-7.5-7.5-7.5z"/><path d="m82.79 286.156c0-4.143-3.357-7.5-7.5-7.5h-15.06c-4.143 0-7.5 3.357-7.5 7.5s3.357 7.5 7.5 7.5h15.06c4.143 0 7.5-3.358 7.5-7.5z"/><path d="m86.176 348.384-13.916 5.763c-3.827 1.585-5.645 5.973-4.061 9.799 1.588 3.833 5.981 5.643 9.799 4.061l13.916-5.763c3.827-1.585 5.645-5.973 4.061-9.799-1.585-3.827-5.977-5.646-9.799-4.061z"/><path d="m122.92 408.646-10.653 10.652c-2.93 2.929-2.93 7.678-.001 10.606 2.928 2.928 7.677 2.931 10.606.001l10.653-10.652c2.93-2.929 2.93-7.678.001-10.606-2.928-2.93-7.677-2.929-10.606-.001z"/><path d="m389.113 408.646c-2.928-2.928-7.677-2.929-10.606.001-2.929 2.929-2.929 7.678.001 10.606l10.653 10.652c2.928 2.928 7.677 2.929 10.606-.001 2.929-2.929 2.929-7.678-.001-10.606z"/><path d="m439.774 354.147-13.916-5.763c-3.827-1.584-8.214.233-9.799 4.061-1.584 3.826.233 8.214 4.061 9.799 13.882 5.557 14.219 6.335 16.782 6.335 2.943 0 5.736-1.744 6.933-4.633 1.583-3.826-.234-8.214-4.061-9.799z"/><path d="m200.815 245.492v-12.048c0-4.143-3.357-7.5-7.5-7.5s-7.5 3.357-7.5 7.5v12.048c0 4.143 3.357 7.5 7.5 7.5s7.5-3.358 7.5-7.5z"/><path d="m326.219 245.492v-12.048c0-4.143-3.357-7.5-7.5-7.5s-7.5 3.357-7.5 7.5v12.048c0 4.143 3.357 7.5 7.5 7.5s7.5-3.358 7.5-7.5z"/><path d="m256.017 260.161c8.515 0 16.602-3.685 22.187-10.109 2.718-3.126 2.387-7.863-.739-10.581-3.127-2.717-7.864-2.386-10.581.739-2.735 3.146-6.696 4.951-10.866 4.951s-8.131-1.805-10.866-4.951c-2.718-3.127-7.456-3.456-10.581-.739-3.126 2.718-3.457 7.455-.739 10.581 5.583 6.424 13.67 10.109 22.185 10.109z"/></g></g><g/><g/><g/><g/><g/><g/><g/><g/><g/><g/><g/><g/><g/><g/><g/></svg>