<svg id="Icons" height="512" viewBox="0 0 60 60" width="512" xmlns="http://www.w3.org/2000/svg"><path d="m22.393 47.5a.5.5 0 0 1 -.275-.918l12.582-8.253-13.889 8.018a.5.5 0 0 1 -.522-.853l12.993-8.394-13.876 8.015a.5.5 0 0 1 -.519-.853l13.17-8.426-12.842 7.414a.5.5 0 0 1 -.515-.85l12.7-8.09-12.526 7.223a.5.5 0 0 1 -.516-.856l8.581-5.371-8.582 4.954a.5.5 0 0 1 -.516-.856l10.726-6.758-11.019 6.363a.5.5 0 0 1 -.515-.857l9.144-5.716-9.6 5.539a.5.5 0 0 1 -.52-.854l15.811-10.143-16.7 9.641a.5.5 0 0 1 -.515-.856l9.965-6.22-10.418 6.016a.5.5 0 0 1 -.519-.854l16.152-10.32-16.8 9.7a.5.5 0 0 1 -.511-.859l1.486-.908-1.565.9a.5.5 0 0 1 -.51-.86l.589-.358-.6.347a.5.5 0 0 1 -.521-.854l17.293-11.107-17.671 10.2a.5.5 0 0 1 -.519-.854l16.37-10.479-16.552 9.558a.5.5 0 0 1 -.514-.857l9.6-5.987-9.491 5.477a.5.5 0 0 1 -.514-.857l6.618-4.1-6.388 3.687a.5.5 0 0 1 -.516-.857l10.308-6.476-10.025 5.787a.5.5 0 0 1 -.521-.853l14.88-9.63-14.477 8.355a.5.5 0 0 1 -.522-.852l13.679-8.894-13.039 7.533a.5.5 0 0 1 -.519-.854l8.039-5.112-7.267 4.193a.5.5 0 0 1 -.528-.848l12.345-8.266-11.112 6.411a.5.5 0 0 1 -.521-.853l5.636-3.651-4.328 2.5a.5.5 0 0 1 -.53-.848l6.278-4.229-4.383 2.531a.5.5 0 0 1 -.528-.849l1.918-1.278a.5.5 0 0 1 -.337-.9l3-2.168a.478.478 0 0 1 -.134-.151.5.5 0 0 1 .182-.682l5.557-3.208a.5.5 0 0 1 .543.837l-.593.428 4.153-2.4a.5.5 0 0 1 .528.848l-1.314.876 3.454-1.993a.5.5 0 0 1 .53.848l-6.279 4.231 8.642-4.993a.5.5 0 0 1 .522.853l-5.634 3.65 7.24-4.18a.5.5 0 0 1 .528.848l-12.342 8.268 14.511-8.377a.5.5 0 0 1 .519.854l-8.045 5.115 9.187-5.3a.5.5 0 0 1 .523.851l-13.68 8.891 15.126-8.733a.5.5 0 0 1 .522.853l-14.877 9.629 16.14-9.319a.5.5 0 0 1 .516.857l-10.32 6.484 11.032-6.369a.5.5 0 0 1 .513.857l-6.612 4.1 7.068-4.08a.5.5 0 0 1 .514.856l-9.606 5.994 10.093-5.829a.5.5 0 0 1 .519.854l-16.366 10.477 17.066-9.853a.5.5 0 0 1 .521.854l-17.286 11.1 17.882-10.323a.5.5 0 0 1 .511.859l-.623.38.627-.361a.5.5 0 0 1 .511.859l-1.459.892 1.431-.826a.5.5 0 0 1 .52.853l-16.152 10.32 16.373-9.453a.5.5 0 0 1 .514.857l-9.983 6.231 9.936-5.736a.5.5 0 0 1 .52.853l-15.806 10.143 15.762-9.1a.5.5 0 0 1 .515.857l-9.133 5.711 8.863-5.117a.5.5 0 0 1 .517.855l-10.735 6.763 10.372-5.989a.5.5 0 0 1 .516.857l-8.577 5.369 8.082-4.666a.5.5 0 0 1 .519.854l-12.691 8.086 12.038-6.95a.5.5 0 0 1 .52.854l-13.174 8.428 12.265-7.081a.5.5 0 0 1 .521.853l-12.99 8.388 11.7-6.753a.5.5 0 0 1 .524.85l-12.585 8.253 10.624-6.134a.5.5 0 0 1 .529.849l-9.647 6.448 6.507-3.757a.5.5 0 0 1 .535.843l-6.591 4.585 2.425-1.4a.5.5 0 0 1 .554.829l-3.484 2.672 2.107-1.217a.5.5 0 0 1 .567.819l-1.419 1.163.672-.387a.5.5 0 0 1 .6.788l-.843.833a.5.5 0 0 1 .3.929l-3.046 1.759a.5.5 0 0 1 -.6-.788l.721-.713-2.606 1.5a.5.5 0 0 1 -.568-.819l1.418-1.162-3.44 1.986a.5.5 0 0 1 -.554-.829l3.484-2.668-6.075 3.508a.5.5 0 0 1 -.535-.843l6.588-4.583-9.408 5.432a.5.5 0 0 1 -.528-.849l9.65-6.45-12.649 7.305a.5.5 0 0 1 -.25.069z" fill="#fcc80a"/><path d="m30.061 59.469a.5.5 0 0 1 -.289-.908l1.777-1.253-3.4 1.963a.5.5 0 0 1 -.542-.839l3.841-2.762-5.438 3.14a.5.5 0 0 1 -.527-.85l1.558-1.031-2.341 1.348a.5.5 0 0 1 -.522-.852l.234-.152-.713.412a.5.5 0 0 1 -.531-.846l5.236-3.571-5.872 3.389a.5.5 0 0 1 -.546-.835l6.589-4.848-7.075 4.088a.5.5 0 0 1 -.531-.846l1.509-1.028-1.895 1.093a.5.5 0 0 1 -.534-.843l1.124-.777-1.538.888a.5.5 0 0 1 -.567-.82l3.907-3.2-3.475 2.007a.5.5 0 0 1 -.555-.829l.879-.676a.509.509 0 0 1 -.449-.2.5.5 0 0 1 .066-.665l.454-.415-.512.295a.5.5 0 0 1 -.657-.724l.595-.832a.5.5 0 0 1 -.25-.932l1.656-.956a.5.5 0 0 1 .657.723l-.5.7 2.466-1.425a.5.5 0 0 1 .587.8l-.455.416 2.111-1.216a.5.5 0 0 1 .554.829l-.6.461 2.235-1.29a.5.5 0 0 1 .567.819l-3.908 3.2 6.965-4.02a.5.5 0 0 1 .534.843l-1.12.774 2.8-1.617a.5.5 0 0 1 .531.845l-1.509 1.029 3.25-1.873a.5.5 0 0 1 .545.835l-6.59 4.849 9.611-5.548a.5.5 0 0 1 .531.846l-5.234 3.57 5.8-3.35a.5.5 0 0 1 .522.852l-.319.207a.5.5 0 0 1 .457.883l-1.571 1.039a.5.5 0 0 1 .508.858l-3.84 2.759 4.3-2.481a.5.5 0 0 1 .538.841l-1.777 1.253 1.188-.685a.5.5 0 0 1 .572.815l-3.392 2.857a.491.491 0 0 1 .2.194.5.5 0 0 1 -.182.683l-3.428 1.979a.5.5 0 0 1 -.572-.815l2.388-2.01-5.836 3.369a.5.5 0 0 1 -.25.069z" fill="#d4e6e7"/><path d="m31.957 54.47a.5.5 0 0 1 -.318-.886l.14-.116-1.619.932a.5.5 0 0 1 -.626-.762l1.458-1.66-4.192 2.422a.5.5 0 0 1 -.637-.75l1.49-1.818-4.453 2.568a.5.5 0 0 1 -.57-.816l.243-.2-1.749 1.01a.5.5 0 0 1 -.576-.812l.531-.458-1.218.7a.5.5 0 0 1 -.6-.792l.561-.544-.511.295a.5.5 0 0 1 -.635-.75l.472-.575a.5.5 0 0 1 -.084-.9l1.656-.956a.5.5 0 0 1 .635.75l-.157.192 1.636-.944a.5.5 0 0 1 .649.131.5.5 0 0 1 -.051.661l-.562.543 2.317-1.335a.5.5 0 0 1 .576.811l-.532.458 2.2-1.269a.5.5 0 0 1 .57.816l-.244.2 1.767-1.02a.5.5 0 0 1 .637.75l-1.49 1.818 4.449-2.564a.5.5 0 0 1 .626.762l-1.458 1.66 4.2-2.422a.5.5 0 0 1 .569.818l-.141.116 1.619-.934a.5.5 0 0 1 .567.819l-.046.038.843-.486a.5.5 0 0 1 .669.7l-1.185 1.829 1.323-.764a.5.5 0 0 1 .5.866l-3.121 1.8a.5.5 0 0 1 -.67-.7l1.185-1.829-4.385 2.527a.5.5 0 0 1 -.567-.819l.049-.041-1.49.86a.493.493 0 0 1 -.25.07z" fill="#aac7c8"/><path d="m29.242 31.459a.5.5 0 0 1 -.3-.9l2.442-1.856-4.324 2.5a.5.5 0 0 1 -.534-.845l.595-.408-1.646.95a.5.5 0 0 1 -.535-.843l2.757-1.91-3.821 2.206a.5.5 0 0 1 -.556-.829l5.65-4.356-6.57 3.791a.5.5 0 0 1 -.534-.844l.779-.538-.362.208a.5.5 0 0 1 -.55-.833l1.827-1.37-1.277.736a.5.5 0 0 1 -.654-.138.5.5 0 0 1 .069-.666l1.892-1.7-1.307.753a.5.5 0 0 1 -.632-.754l.8-.943-.163.094a.5.5 0 0 1 -.724-.589l.213-.647a.506.506 0 0 1 -.171-.176.5.5 0 0 1 .181-.684l.5-.29a.507.507 0 0 1 .567.045.5.5 0 0 1 .159.544l-.091.275 1.505-.868a.5.5 0 0 1 .632.755l-.8.944 2.951-1.7a.5.5 0 0 1 .585.8l-1.891 1.7 4.352-2.511a.5.5 0 0 1 .55.833l-1.826 1.37 3.82-2.208a.5.5 0 0 1 .534.843l-.775.537 2.4-1.384a.5.5 0 0 1 .556.828l-5.651 4.356 7.856-4.537a.5.5 0 0 1 .535.844l-2.755 1.911 2.222-1.282a.5.5 0 0 1 .533.845l-.595.408.062-.035a.5.5 0 0 1 .552.831l-2.441 1.855 1.889-1.09a.5.5 0 0 1 .573.815l-1.622 1.375 1.049-.606a.5.5 0 0 1 .606.783l-.567.579a.492.492 0 0 1 .331.239.5.5 0 0 1 -.183.682l-2.489 1.437a.5.5 0 0 1 -.606-.783l.233-.237-2.684 1.548a.5.5 0 0 1 -.573-.814l1.623-1.375-3.919 2.262a.491.491 0 0 1 -.252.067z" fill="#306c8e"/><path d="m43.18 29.286a.5.5 0 0 1 -.417-.775l.973-1.478-1.408.813a.5.5 0 0 1 -.641-.744l.5-.63a.5.5 0 0 1 -.122-.916l1.657-.956a.5.5 0 0 1 .641.744l-.255.319.959-.553a.5.5 0 0 1 .667.708l-.972 1.482.943-.544a.5.5 0 1 1 .5.865l-2.775 1.6a.489.489 0 0 1 -.25.065z" fill="#fff"/><path d="m29.705 24.4a.5.5 0 0 1 -.289-.908l3.059-2.163-4.132 2.386a.5.5 0 0 1 -.557-.827l5.488-4.272-7.274 4.196a.5.5 0 0 1 -.529-.847l.359-.242-1.067.616a.5.5 0 0 1 -.551-.832l4.876-3.666-6.409 3.7a.5.5 0 0 1 -.531-.847l.68-.46-1.42.82a.5.5 0 0 1 -.552-.832l4.975-3.757-6.542 3.776a.5.5 0 0 1 -.549-.834l4.66-3.468-6.119 3.533a.5.5 0 0 1 -.594-.8l2.374-2.257-3.888 2.244a.5.5 0 0 1 -.696-.659l.159-.31-.352.2a.5.5 0 0 1 -.5-.866l1.826-1.054a.5.5 0 0 1 .7.662l-.16.309 6.058-3.5a.5.5 0 0 1 .595.8l-2.379 2.259 9.909-5.721a.5.5 0 0 1 .549.834l-4.659 3.468 6.119-3.532a.5.5 0 0 1 .552.832l-4.975 3.759 6.542-3.777a.5.5 0 0 1 .53.847l-.68.46 1.42-.819a.5.5 0 0 1 .551.832l-4.876 3.666 6.409-3.7a.5.5 0 0 1 .53.848l-.36.242 1.068-.616a.5.5 0 0 1 .556.827l-5.488 4.272 7.275-4.2a.5.5 0 0 1 .54.84l-3.059 2.163 4.132-2.385a.5.5 0 0 1 .583.8l-1.987 1.777 3.249-1.875a.5.5 0 0 1 .691.667l-.146.274.317-.183a.5.5 0 0 1 .5.866l-1.826 1.058a.5.5 0 0 1 -.692-.667l.146-.274-5.926 3.417a.5.5 0 0 1 -.583-.806l1.986-1.776-9.366 5.407a.491.491 0 0 1 -.25.075z" fill="#215772"/><g fill="#262626"><path d="m36.97 1.68c-18.599-6.64-37.07 16.197-24.764 32.42 2.035 2.977 5.843 4.877 6 8.862.115 1.252.017 2.667 1.441 3.168-1.8.683-1.834 3.5.061 3.918a2.216 2.216 0 0 0 .6 4.261c2.771 7.115 16.405 6.676 19.31-.165 2.221-.181 2.907-3.7.6-4.266 1.791-.491 1.972-3.554.064-3.951a2.235 2.235 0 0 0 1.414-2.123h.017c-.31-4.708 3.956-7.079 6.386-10.453 8.025-11.051 1.817-27.834-11.129-31.671zm-2.765 56.52c-4.186 1.284-10.3.583-12.311-3.849 5.443-.012 10.887.024 16.33-.013a6.227 6.227 0 0 1 -4.019 3.862zm3.7-4.551c-5.77-.35-11.958.7-17.536-.406-4.173-5.317 13.922-2.05 16.614-2.893 3.323-.839 4.945 3.609.917 3.299zm2.373-5.455c-.555 2.925-4.728.88-6.854 1.455-2.67-.672-17.137 2.248-12.841-3.321 3.717.847 19.349-2.013 19.693 1.866zm5.611-13.587c-13.429 14.093 4.39 10.742-24.479 11.053-2.232-.275-1.6-3.122-2.079-4.714-7.169-9.374-13.527-17.1-6.907-29.368 14.908-24.763 50.528.422 33.463 23.029z"/><path d="m33.491 11.675c-4.176-2.575-8.317 1.078-12.408 2.195-10.55 3.5-9.687 4.019.193 7.45.4 3.287-1.636 8.739 3.057 9.39 4.318 1.039 9.727 1.131 13.58-1.318 1.688-2.243.452-5.538.811-8.189l4.552-1.744v5.309a2.35 2.35 0 1 0 1.224 4.523c2.627-.331 3.05-4.293.225-4.638v-5.753c7.237-2.335-9.402-5.819-11.234-7.225zm10.075 13.725-.029.01a.143.143 0 0 1 .029-.01zm1.71 1.794c-.547 3.652-4.355-.8-1.564-1.808 0 0 .162.011.169.014a1.786 1.786 0 0 1 1.395 1.794zm-15.417-15.677c.342-.167.111-.01 0 0zm7.417 16.488c-1.525 4.071-8.3 2.61-11.757 2.126-4.195-.567-2.475-5.31-2.795-8.256 5.75 2.886 8.82 2.929 14.552-.094-.013 2.074.024 4.151 0 6.224zm7.924-10.291c-17.744 6.932-12.533 6.826-30.278-.074-.485-.437.3-.513.708-.669 4.731-1.837 9.5-3.6 14.221-5.449 4.949 2.188 10.801 3.578 15.349 6.192z"/></g></svg>