<svg id="Layer_1" viewBox="0 0 512 512" xmlns="http://www.w3.org/2000/svg" data-name="Layer 1"><g fill-rule="evenodd"><path d="m303.096 162.06h-222.935c-17.109 0-31.064 13.954-31.064 31.063v282.319c0 14.065 11.508 25.573 25.573 25.573h228.426z" fill="#4eb1fc"/><path d="m74.67 162.547c-14.506 2.605-25.573 15.34-25.573 30.576v282.319c0 14.065 11.508 25.573 25.573 25.573z" fill="#2a92fa"/><path d="m74.67 449.868h228.426v51.147h-228.426c-14.065 0-25.573-11.508-25.573-25.573 0-14.066 11.508-25.574 25.573-25.574z" fill="#b6dbff"/><path d="m74.67 449.869h228.427v35.401h-217.146c-6.204 0-11.281-5.076-11.281-11.281v-24.121z" fill="#e3f1ff"/><path d="m261.117 326.995c0 10.555 8.638 19.195 19.195 19.195h70.68c10.557 0 19.195-8.638 19.195-19.195v-26.356c0-52.828 54.535-67.668 54.535-138.664 0-65.139-54.535-97.709-109.07-97.709s-109.07 32.569-109.07 97.709c0 70.995 54.535 85.836 54.535 138.664z" fill="#fcdb35"/><path d="m261.117 326.995c0 10.556 8.638 19.195 19.195 19.195h49.003c10.557 0 19.195-8.637 19.195-19.195v-31.31c0-52.828 54.535-67.668 54.535-138.664 0-48.641-30.41-79.116-68.52-91.436-6.235-.875-12.554-1.318-18.874-1.318-54.535 0-109.07 32.569-109.07 97.708 0 70.996 54.536 85.836 54.536 138.664z" fill="#ffeb87"/><path d="m344.845 332.737v33.827c0 8.083-6.619 14.702-14.702 14.702h-28.981c-8.083 0-14.702-6.615-14.702-14.702v-33.827h58.386z" fill="#495586"/><path d="m307.697 381.267h-6.535c-8.083 0-14.702-6.615-14.702-14.702v-33.827h35.94v33.827c0 8.083-6.619 14.702-14.702 14.702z" fill="#5d689e"/><path d="m370.229 326.995c0 10.564-8.645 19.21-19.21 19.21h-70.734c-10.565 0-19.21-8.645-19.21-19.21v-18.828h109.154z" fill="#5d689e"/><path d="m329.3 346.205h-49.015c-10.565 0-19.21-8.645-19.21-19.21v-18.828h87.435v16.901c0 11.624-8.645 21.137-19.21 21.137z" fill="#7986bf"/></g><circle cx="274.218" cy="169.142" fill="#f23353" r="18.25"/><path d="m270.018 186.905c-8.055-1.897-14.05-9.13-14.05-17.764s5.995-15.866 14.05-17.764c8.055 1.897 14.05 9.13 14.05 17.764s-5.996 15.866-14.05 17.764z" fill="#ff5471" fill-rule="evenodd"/><path d="m331.601 113.874v159.749c9.208 8.795 22.902 10.963 34.376 5.443 6.868-3.304 12.08-8.948 14.916-15.668 24.796-4.605 38.111-22.627 36.145-43.008 8.996-2.381 16.322-9.096 19.407-18.029 2.508-7.259 1.908-15.094-1.415-21.76 14.594-21.407 7.784-55.87-17.813-65.701.448-19.131-12.749-35.637-36.324-40.016-2.836-6.72-8.048-12.364-14.916-15.668-11.474-5.521-25.168-3.352-34.376 5.443z" fill="#ff6b84" fill-rule="evenodd"/><path d="m248.508 367.23h-130.943c-3.858 0-6.998 3.13-6.998 6.998s3.14 7.003 6.998 7.003h130.943c3.868 0 6.998-3.13 6.998-7.003s-3.13-6.998-6.998-6.998zm-91.681-18.529h52.418c3.873 0 7.003-3.13 7.003-7.003s-3.13-6.998-7.003-6.998h-52.418c-3.858 0-7.003 3.13-7.003 6.998s3.144 7.003 7.003 7.003zm91.681 55.119h-130.943c-3.858 0-6.998 3.13-6.998 6.998s3.14 7.002 6.998 7.002h130.943c3.868 0 6.998-3.14 6.998-7.002s-3.13-6.998-6.998-6.998zm176.398-225.33c-1.741-1.813-3.757-3.279-6.019-4.369-3.482-1.683-4.939-5.865-3.26-9.342 1.683-3.492 5.869-4.948 9.351-3.26 3.14 1.51 5.999 3.472 8.551 5.831 2.46-7.741 2.517-16.46 0-24.543-2.141-6.868-5.961-12.558-10.991-16.595-1.08 4.336-2.72 8.657-4.939 12.867-1.263 2.382-3.685 3.728-6.192 3.728-1.11 0-2.228-.26-3.27-.81-3.419-1.808-4.721-6.038-2.922-9.458 5.71-10.788 6.453-21.891 2.093-31.242-3.27-7.007-9.187-12.491-17.068-15.968.077 1.668.048 3.357-.101 5.049-1.37 15.447-12.332 28.618-27.273 32.78-3.728 1.042-7.591-1.143-8.618-4.861-1.042-3.728 1.138-7.591 4.861-8.618 9.361-2.609 16.229-10.861 17.087-20.54.863-9.679-4.447-19.011-13.2-23.221-7.9-3.8-17.299-2.807-24.22 2.349v17.232c3.694-2.759 8.073-4.77 13.132-5.638 3.81-.641 7.427 1.92 8.078 5.729.651 3.81-1.91 7.422-5.72 8.078-10.06 1.712-15.491 11.792-15.491 20.4v155.949c6.921 5.16 16.32 6.154 24.22 2.353 8.753-4.21 14.063-13.542 13.2-23.221-.859-9.68-7.726-17.931-17.087-20.54-3.723-1.032-5.903-4.89-4.861-8.623 1.027-3.718 4.89-5.889 8.618-4.857 14.941 4.162 25.903 17.328 27.273 32.78.15 1.688.179 3.381.101 5.049 7.88-3.482 13.808-8.97 17.077-15.987 4.35-9.342 3.607-20.434-2.103-31.222-1.799-3.41-.497-7.649 2.922-9.462 3.419-1.799 7.649-.497 9.462 2.922 1.896 3.588 3.376 7.268 4.437 10.967 3.492-2.498 6.149-6.029 7.591-10.219 2.6-7.509.791-15.736-4.721-21.466zm-61.452 148.59v-11.849h-95.249v11.849c0 6.737 5.484 12.226 12.221 12.226h70.803c6.752 0 12.226-5.488 12.226-12.226zm-25.406 39.61v-13.378h-44.442v13.378c0 4.249 3.463 7.711 7.721 7.711h29.009c4.254 0 7.712-3.463 7.712-7.711zm-41.982 127.306v-37.135h-221.39c-10.239 0-18.568 8.329-18.568 18.568s8.329 18.567 18.568 18.567h221.389zm-239.958-300.849v255.544c4.881-3.405 10.74-5.512 17.058-5.802v-272.761c-9.858 3-17.058 12.182-17.058 23.019zm223.502 173.543c0 10.157 7.017 18.712 16.455 21.071v55.1h-208.898v-273.77h112.592c1.828 36.127 17.516 58.018 31.459 77.458 12.327 17.208 22.99 32.072 22.99 54.329v26.202c0 14.189 11.319 25.768 25.402 26.207zm-5.401-208.802c-6.202 0-11.252 5.049-11.252 11.252s5.049 11.256 11.252 11.256 11.247-5.045 11.247-11.256-5.04-11.252-11.247-11.252zm-60.632 4.09c0-62.441 53.002-90.88 102.253-90.88 2.966 0 5.956.121 8.946.333v90.712h-26.308c-3.048-10.523-12.761-18.254-24.259-18.254-13.923 0-25.252 11.334-25.252 25.252s11.329 25.262 25.252 25.262c11.498 0 21.211-7.731 24.259-18.264h26.308v97.121c0 1.91.781 3.743 2.161 5.059 7.099 6.781 16.479 10.345 25.961 10.345 3.54 0 7.099-.511 10.557-1.534v14.102h-95.249v-.352c0-26.762-13.017-44.919-25.609-62.479-14.27-19.908-29.019-40.492-29.019-76.421zm229.13 19.151c2.691 7.408 2.841 15.631.164 23.4-3.212 9.269-9.983 16.61-18.833 20.55-.12 6.212-1.442 12.25-4.032 17.801-6.12 13.152-18.298 22.44-34.357 26.308-2.098 3.844-4.861 7.321-8.189 10.239v47.654c0 14.189-11.324 25.768-25.411 26.207v13.403c0 11.97-9.742 21.707-21.712 21.707h-20.27v112.602c0 3.858-3.13 7.003-6.998 7.003h-228.393c-17.96 0-32.568-14.613-32.568-32.573v-282.283c0-20.988 17.068-38.061 38.061-38.061h119.61c1.688-29.419 14.237-54.208 36.581-71.989 21.046-16.769 49.269-25.999 79.47-25.999 4.538 0 9.12.231 13.667.675 11.131-8.845 26.612-10.702 39.571-4.471 7.167 3.458 12.901 9.067 16.581 15.8 16.05 3.868 28.218 13.147 34.348 26.289 2.214 4.751 3.511 9.848 3.911 15.11 10.909 5.59 19.04 15.51 22.98 28.141 4.437 14.227 2.86 30.036-4.181 42.488zm-65.102-24.992c-3.916 3.202-6.168 7.943-6.168 13.002s2.252 9.81 6.168 13.007c2.995 2.455 3.443 6.853.994 9.853-1.379 1.688-3.391 2.57-5.421 2.57-1.558 0-3.13-.521-4.432-1.582-7.186-5.869-11.309-14.56-11.309-23.849s4.123-17.97 11.309-23.839c3.005-2.45 7.413-2.001 9.853.989 2.45 3 2.001 7.413-.994 9.848zm-212.327-54.179 18.11 10.46c1.1.642 2.31.941 3.492.941 2.421 0 4.77-1.259 6.067-3.501 1.934-3.347.791-7.63-2.556-9.559l-18.114-10.461c-3.347-1.929-7.63-.791-9.568 2.561-1.929 3.352-.781 7.629 2.57 9.559zm70.051-46.598c1.288 2.247 3.651 3.496 6.062 3.496 1.186 0 2.397-.299 3.497-.94 3.352-1.929 4.49-6.207 2.561-9.559l-10.46-18.109c-1.929-3.352-6.207-4.5-9.559-2.571-3.352 1.939-4.499 6.221-2.561 9.568l10.461 18.114zm151.449 2.556c1.1.641 2.31.94 3.492.94 2.416 0 4.779-1.259 6.067-3.496l10.461-18.114c1.929-3.347.791-7.63-2.561-9.568-3.347-1.929-7.63-.781-9.559 2.571l-10.461 18.109c-1.929 3.352-.786 7.629 2.561 9.559zm82.18 34.483c-1.939-3.352-6.221-4.49-9.568-2.561l-18.114 10.461c-3.347 1.929-4.495 6.212-2.556 9.559 1.288 2.243 3.651 3.501 6.072 3.501 1.177 0 2.387-.299 3.487-.941l18.109-10.46c3.352-1.929 4.5-6.207 2.571-9.559zm-160.132-60.491v-20.912c0-3.868 3.14-6.998 7.003-6.998s6.998 3.13 6.998 6.998v20.912c0 3.873-3.13 7.003-6.998 7.003s-7.003-3.13-7.003-7.003z" fill-rule="evenodd"/></svg>