<svg fill="none" height="512" viewBox="0 0 100 101" width="512" xmlns="http://www.w3.org/2000/svg" xmlns:xlink="http://www.w3.org/1999/xlink"><linearGradient id="lg1"><stop offset="0" stop-color="#a8e66a"/><stop offset=".541667" stop-color="#3ec24f"/><stop offset="1" stop-color="#1b8e2a"/></linearGradient><linearGradient id="paint0_linear_865_4165" gradientUnits="userSpaceOnUse" x1="16.154" x2="97.585" xlink:href="#lg1" y1="9.004" y2="75.289"/><linearGradient id="paint4_linear_865_4165" gradientUnits="userSpaceOnUse" x1="50.533" x2="50.533" y1="35.677" y2="49.902"><stop offset="0" stop-color="#FFD700"/><stop offset="1" stop-color="#DAA520"/></linearGradient><linearGradient id="paint9_linear_865_4165" gradientUnits="userSpaceOnUse" x1="14.455" x2="23.175" xlink:href="#lg1" y1="60" y2="68.72"/><linearGradient id="paint10_linear_865_4165" gradientUnits="userSpaceOnUse" x1="76.824" x2="85.544" xlink:href="#lg1" y1="60" y2="68.72"/><path d="m50.9672 9.16404c-.6265-.21319-1.306-.21319-1.9326 0l-30.8437 10.49436c-3.2117 1.0927-2.4262 5.8401.9663 5.8401h7.5643v4.3172c0 1.6568 1.3432 3 3 3h40.5576c1.6568 0 3-1.3432 3-3v-4.3172h7.5655c3.3926 0 4.1781-4.7474.9664-5.8401z" fill="url(#paint0_linear_865_4165)"/><path d="m28.1748 54.9167v10.7914c0 5.5752 4.5196 10.0948 10.0948 10.0948s10.0948-4.5196 10.0948-10.0948v-10.7914c0-1.1045-.8955-2-2-2h-1c-1.1046 0-2 .8955-2 2v10.7914c0 2.8137-2.281 5.0948-5.0948 5.0948s-5.0948-2.2811-5.0948-5.0948v-10.7914c0-1.1045-.8954-2-2-2h-1c-1.1046 0-2 .8955-2 2z" fill="url(#paint0_linear_865_4165)"/><path clip-rule="evenodd" d="m59.3643 68.8521c-.5523 0-1 .4477-1 1v2.4238c0 1.1045-.8955 2-2 2h-1c-1.1046 0-2-.8955-2-2v-17.3571c0-1.1044.8951-1.9997 1.9995-2l8.4928-.0021c4.4004 0 7.9676 3.5673 7.9676 7.9677s-3.5672 7.9677-7.9676 7.9677zm1-5c-1.1046 0-2-.8955-2-2v-1.9354c0-1.1045.8954-2 2-2h3.4923c1.639 0 2.9676 1.3287 2.9676 2.9677s-1.3286 2.9677-2.9676 2.9677z" fill="url(#paint0_linear_865_4165)" fill-rule="evenodd"/><path d="m29.7217 79.665c-1.6569 0-3 1.3432-3 3v6.5c0 1.6569 1.3431 3 3 3h40.5575c1.6569 0 3-1.3431 3-3v-6.5c0-1.6568-1.3431-3-3-3z" fill="url(#paint0_linear_865_4165)"/><g fill="url(#paint4_linear_865_4165)"><path d="m26.0654 35.6771c.5523 0 1 .4477 1 1v10c0 .5523.4477 1 1 1h5.3298c.5523 0 1 .4477 1 1s-.4477 1-1 1h-5.3298c-1.6568 0-3-1.3431-3-3v-10c0-.5523.4477-1 1-1z"/><path d="m41.9434 38.6771c.5522 0 1-.4477 1-1s-.4478-1-1-1l-4.7608.0006c-.5523.0001-.9999.4478-.9999 1.0001l.0008 11.0001c.0001.5523.4478 1 1 1h4.3487c.5523 0 1-.4478 1-1 0-.5523-.4477-1-1-1h-3.3496v-2.9317h3.3496c.5523 0 1-.4477 1-1s-.4477-1-1-1h-3.3496v-4.0691z"/><path d="m45.1679 38.0146c-.2335-.6515.2493-1.3375.9413-1.3375.4222 0 .7989.2652.9414.6626l3.7861 10.5624 3.2319-10.5187c.129-.4198.5168-.7063.9559-.7063.6726 0 1.1535.6508.9559 1.2937l-3.2319 10.5187c-.5649 1.8384-3.1456 1.8979-3.7945.0874z"/><path d="m63.6064 38.6771c.5523 0 1-.4477 1-1s-.4477-1-1-1l-4.7608.0006c-.5522.0001-.9999.4478-.9998 1.0001l.0008 11.0001c0 .5523.4477 1 1 1h4.3487c.5523 0 1-.4478 1-1 0-.5523-.4477-1-1-1h-3.3496v-2.9317h3.3496c.5523 0 1-.4477 1-1s-.4477-1-1-1h-3.3496v-4.0691z"/><path d="m68.6699 36.6771c0-.5523-.4477-1-1-1s-1 .4477-1 1v10c0 1.6569 1.3432 3 3 3h5.3298c.5523 0 1-.4477 1-1s-.4477-1-1-1h-5.3298c-.5523 0-1-.4477-1-1z"/></g><path d="m19.8145 61c0-.5523-.4478-1-1-1-.5523 0-1 .4477-1 1v2.3599h-2.3594c-.5523 0-1 .4477-1 1 0 .5522.4477 1 1 1h2.3594v2.3598c0 .5523.4477 1 1 1 .5522 0 1-.4477 1-1v-2.3598h2.3603c.5523 0 1-.4478 1-1 0-.5523-.4477-1-1-1h-2.3603z" fill="url(#paint9_linear_865_4165)"/><path d="m82.1836 61c0-.5523-.4477-1-1-1s-1 .4477-1 1v2.3599h-2.3594c-.5523 0-1 .4477-1 1 0 .5522.4477 1 1 1h2.3594v2.3598c0 .5523.4477 1 1 1s1-.4477 1-1v-2.3598h2.3603c.5523 0 1-.4478 1-1 0-.5523-.4477-1-1-1h-2.3603z" fill="url(#paint10_linear_865_4165)"/></svg>