<svg id="Capa_1" enable-background="new 0 0 512 512" height="512" viewBox="0 0 512 512" width="512" xmlns="http://www.w3.org/2000/svg"><g><g><g><g><path d="m0 293.479h512v211h-512z" fill="#feef8f"/></g><g><path d="m16.34 480.479v-187h-16.34v211h512v-24z" fill="#fde31d"/></g><g><path d="m195.999 323.979-30 99.998-29.999-99.998h-30l45 150h30l44.999-150z" fill="#00adeb"/></g><g><g><path d="m165.936 450.106-37.839-126.127h-22.097l45 150h30l7.161-23.873z" fill="#0089cb"/></g></g><g><path d="m361.768 128.553-105.768-117.584-105.769 117.584h45.769v164.926h120v-164.926z" fill="#c3f839"/></g><g><g><path d="m218.596 105.957h-19.464l71.155-79.105-14.287-15.883-105.769 117.584h45.769v164.926h120v-22.596h-97.404z" fill="#abe700"/></g><g><path d="m341.443 105.957h-33.19v22.596h53.515z" fill="#abe700"/></g></g><g><path d="m60.999 443.149v-120h-30v150h75v-30z" fill="#00adeb"/></g><g><path d="m30.999 323.149h22.468v150h-22.468z" fill="#0089cb"/></g><g><path d="m331.001 323.532v105c0 8.284-6.716 15-15 15-8.284 0-15-6.716-15-15v-105h-30v105c0 24.853 20.147 45 45 45 24.853 0 45-20.147 45-45v-105z" fill="#f05475"/></g><g><g><path d="m338.469 467.277c-24.853 0-45-20.147-45-45v-98.745h-22.468v105c0 24.853 20.147 45 45 45 8.365 0 16.192-2.29 22.902-6.266-.145.001-.288.011-.434.011z" fill="#e21743"/></g></g><g><path d="m436.192 323.532h-45.191v150h30v-60.383h15.191c24.747 0 44.809-20.061 44.809-44.808 0-24.748-20.062-44.809-44.809-44.809zm14.809 44.808c0 8.178-6.63 14.808-14.809 14.808h-15.191v-29.617h15.191c8.179.001 14.809 6.631 14.809 14.809z" fill="#f05475"/></g><g><path d="m391.001 323.532h22.468v150h-22.468z" fill="#e21743"/></g><g><circle cx="231.658" cy="458.532" fill="#abe700" r="15"/></g><g><path d="m218.499 83.5h15v15h-15z" fill="#fff"/></g><g><path d="m248.5 83.5h15v15h-15z" fill="#fff"/></g></g></g><g><path d="m156.58 466.073-18.657-62.159-14.367 4.308 21.863 72.845h41.161l49.499-164.928h-45.661l-24.419 81.362-24.419-81.362h-45.661l23.137 77.09 14.367-4.309-17.343-57.787h14.339l35.58 118.547 35.58-118.547h14.339l-40.499 134.94z"/><path d="m23.499 315.757v164.928h90v-44.98h-45v-119.948zm75 134.94v14.993h-60v-134.94h15v119.947z"/><path d="m263.501 316.139v112.451c0 28.936 23.552 52.477 52.5 52.477s52.5-23.541 52.5-52.477v-112.451h-45v112.451c0 4.134-3.364 7.497-7.5 7.497s-7.5-3.363-7.5-7.497v-112.451zm52.5 134.941c12.406 0 22.5-10.089 22.5-22.49v-97.457h15v97.457c0 20.669-16.822 37.484-37.5 37.484s-37.5-16.815-37.5-37.484v-97.457h15v97.457c0 12.401 10.094 22.49 22.5 22.49z"/><path d="m436.192 420.71c28.843 0 52.309-23.455 52.309-52.286s-23.466-52.286-52.309-52.286h-52.691v164.928h45v-60.356zm-22.691-14.993v60.356h-15v-134.94h37.691c20.572 0 37.309 16.729 37.309 37.292s-16.736 37.292-37.309 37.292z"/><path d="m458.501 368.425c0-12.295-10.008-22.299-22.309-22.299h-22.691v44.598h22.691c12.301 0 22.309-10.004 22.309-22.299zm-30-7.306h7.691c4.03 0 7.309 3.277 7.309 7.305s-3.278 7.305-7.309 7.305h-7.691z"/><path d="m231.658 436.087c-12.407 0-22.5 10.089-22.5 22.49s10.093 22.49 22.5 22.49 22.5-10.089 22.5-22.49-10.093-22.49-22.5-22.49zm0 29.986c-4.136 0-7.5-3.363-7.5-7.497s3.364-7.497 7.5-7.497 7.5 3.363 7.5 7.497-3.364 7.497-7.5 7.497z"/><path d="m278.5 497.007h233.5v14.993h-233.5z"/><path d="m248.501 497.007h14.999v14.993h-14.999z"/><path d="m0 497.007h233.5v14.993h-233.5z"/><path d="m323.5 286.099v-149.859h55.102l-54.245-60.279-11.152 10.027 31.729 35.258h-36.434v164.853h-105v-164.853h-36.435l88.935-98.826 46.677 51.869 11.152-10.027-57.829-64.262-122.603 136.24h55.103v149.859h-188.5v14.994h512v-14.994z"/><path d="m365.108 45.056h44.99v14.997h-44.99z" transform="matrix(.707 -.707 .707 .707 76.315 289.404)"/><path d="m337.035 22.94h43.001v14.998h-43.001z" transform="matrix(.447 -.895 .895 .447 171.022 337.543)"/><path d="m387.587 73.477h43.013v14.995h-43.013z" transform="matrix(.895 -.447 .447 .895 6.957 191.43)"/><path d="m119.834 30.059h14.996v44.99h-14.996z" transform="matrix(.707 -.707 .707 .707 .145 105.458)"/><path d="m148.9 8.938h14.998v43.001h-14.998z" transform="matrix(.894 -.447 .447 .894 2.906 73.185)"/><path d="m98.344 59.468h14.994v43.013h-14.994z" transform="matrix(.447 -.895 .895 .447 -13.908 139.449)"/></g></g></svg>