<svg id="Capa_1" enable-background="new 0 0 512.467 512.467" height="512" viewBox="0 0 512.467 512.467" width="512" xmlns="http://www.w3.org/2000/svg"><g><path d="m287.296 191.67h-63.734v257.062h-31.868l-30 31.868 30 31.867h95.602z" fill="#73d093"/><path d="m159.827 448.732v-257.062h-63.734v320.797h95.601v-63.735z" fill="#96e192"/><path d="m30.233 0h-30v150h60v-30h-30z" fill="#62605f"/><path d="m377.233 120v-120h-30v150h60v-30z" fill="#464443"/><path d="m76.233 150h60v-30h-30v-30h30v-30h-30v-30h30v-30h-60z" fill="#62605f"/><path d="m225.224.091-21.489 99.676c-.001-.004-15 25.116-15 25.116l14.998 25.117h19.861l30.956-143.586c.454-2.104.684-4.262.684-6.414z" fill="#464443"/><path d="m182.233 0h-30c0 2.152.23 4.31.684 6.413l30.956 143.587h19.861v-50.237z" fill="#62605f"/><path d="m271.233 150h60v-30h-30v-30h30v-30h-30v-30h30v-30h-60z" fill="#464443"/><path d="m512.233 191.67h-95.601l-30 31.867 30 31.868h31.867v63.734h-31.867l-30 31.867 30 31.868h95.601z" fill="#73d093"/><path d="m384.765 319.139v-63.734h31.867v-63.735h-95.602v320.797h63.735v-129.593h31.867v-63.735z" fill="#96e192"/></g></svg>