<svg id="Capa_1" enable-background="new 0 0 512 512" height="512" viewBox="0 0 512 512" width="512" xmlns="http://www.w3.org/2000/svg"><g><path d="m503.913 249.601c0-1.709-3.365-7.21-5.923-10.048-1.544-.497-3.188-.772-4.897-.772-8.821 0-15.972 7.151-15.972 15.972 0 1.709.275 3.353.772 4.897 3.294 3.558 8.339 5.923 10.048 5.923 8.821 0 15.972-7.151 15.972-15.972z" fill="#f4daa7"/><path d="m497.989 239.553c.497 1.544.772 3.188.772 4.897 0 8.821-7.151 15.972-15.972 15.972-1.709 0-3.353-.275-4.897-.772 2.069 6.424 8.088 11.075 15.2 11.075 8.821 0 15.972-7.151 15.972-15.972 0-7.112-4.651-13.132-11.075-15.2z" fill="#f1cd88"/><path d="m54.795 226.64c-6.069 0-10.302 46.023-14.933 50.654s-36.926 8.964-36.926 15.033 32.295 10.402 36.926 15.033 8.863 50.654 14.933 50.654 10.302-46.023 14.933-50.654 36.926-8.964 36.926-15.033-32.295-10.402-36.926-15.033-8.864-50.654-14.933-50.654z" fill="#f4daa7"/><path d="m446.263 288.451c-6.069 0-10.302 46.023-14.933 50.654s-36.926 8.964-36.926 15.033 32.295 10.402 36.926 15.033 8.863 50.654 14.933 50.654c6.069 0 10.302-46.023 14.933-50.654s36.926-8.964 36.926-15.033-32.295-10.402-36.926-15.033-8.863-50.654-14.933-50.654z" fill="#f4daa7"/><path d="m133.459 369.345h-11.187v-16.231c0-4.267-3.459-7.726-7.726-7.726-4.268 0-7.726 3.459-7.726 7.726v16.231h-11.189c-4.268 0-7.726 3.459-7.726 7.726s3.459 7.726 7.726 7.726h11.188v16.231c0 4.267 3.459 7.726 7.726 7.726 4.268 0 7.726-3.459 7.726-7.726v-16.231h11.187c4.268 0 7.726-3.459 7.726-7.726s-3.457-7.726-7.725-7.726z" fill="#ccf49f"/><path d="m440.98 218.126h-11.188v-16.231c0-4.267-3.459-7.726-7.726-7.726s-7.726 3.459-7.726 7.726v16.231h-11.187c-4.268 0-7.726 3.459-7.726 7.726s3.459 7.726 7.726 7.726h11.187v16.231c0 4.267 3.459 7.726 7.726 7.726s7.726-3.459 7.726-7.726v-16.231h11.188c4.268 0 7.726-3.459 7.726-7.726s-3.458-7.726-7.726-7.726z" fill="#f4daa7"/><path d="m343.917 149.117 75.671-9.087-1.904-15.233-146.282-121.242c-5.657-4.689-13.833-4.746-19.555-.136l-151.853 122.332c-2.435 1.961-4.044 4.346-4.936 6.881l69.763 20.605v28.052l168.112 16.047z" fill="#ccf49f"/><path d="m95.058 132.632c-3.267 9.288 3.176 20.605 14.63 20.605h55.133v-12.879c0-4.267-3.459-7.726-7.726-7.726z" fill="#b3e59f"/><path d="m419 125.888-1.316-1.091c.019 3.968-2.993 7.835-7.721 7.835h-69.79c-4.267 0-7.726 3.459-7.726 7.726v33.205c0 4.267-3.459 7.726-7.726 7.726h-159.9v12.879c0 4.267 3.459 7.726 7.726 7.726h172.778c4.267 0 7.726-3.459 7.726-7.726v-40.931h56.087c14.473 0 21.004-18.113 9.862-27.349z" fill="#b3e59f"/><path d="m352.307 478.841-19.86-75.01h-159.9c-4.267 0-7.726 3.459-7.726 7.726v79.838l144.32 18.09z" fill="#ccf49f"/><path d="m345.325 403.831h-12.879v79.838c0 4.267-3.459 7.726-7.726 7.726h-159.9v5.152c0 8.534 6.918 15.453 15.453 15.453h157.325c8.534 0 15.453-6.918 15.453-15.453v-84.99c0-4.267-3.459-7.726-7.726-7.726z" fill="#b3e59f"/><path d="m214.891 298.986 32.606-46.284c2.458-3.488 1.623-8.308-1.866-10.766-3.491-2.458-8.31-1.621-10.766 1.867l-29.418 41.759-29.374-41.755c-2.454-3.488-7.272-4.329-10.765-1.874-3.49 2.455-4.329 7.275-1.873 10.765l32.558 46.282-38.072 54.043c-2.458 3.488-1.623 8.308 1.866 10.766 1.353.953 2.905 1.41 4.443 1.41 2.429 0 4.819-1.141 6.323-3.277l34.884-49.517 34.832 49.513c1.504 2.138 3.895 3.281 6.326 3.281 1.535 0 3.087-.457 4.439-1.407 3.49-2.455 4.329-7.275 1.873-10.765z" fill="#f1cd88"/><path d="m321.626 240.526h-30.412c-2.053 0-4.022.817-5.472 2.272-1.318 1.323-2.102 3.074-2.229 4.925-.015.156-.026.327-.026.53v109.22c0 4.267 3.459 7.726 7.726 7.726s7.726-3.459 7.726-7.726v-39.758c7.116-.04 17.491-.092 22.686-.092 21.589 0 39.152-17.293 39.152-38.548.001-21.256-17.562-38.549-39.151-38.549zm0 61.644c-5.165 0-15.392.051-22.518.091-.039-7.308-.092-17.919-.092-23.187 0-4.437-.03-15.5-.052-23.096h22.662c12.846 0 23.699 10.576 23.699 23.096s-10.853 23.096-23.699 23.096z" fill="#f1cd88"/><path d="m119.045 217.458c0-1.709-3.365-7.21-5.923-10.048-1.544-.497-3.188-.772-4.897-.772-8.821 0-15.972 7.151-15.972 15.972 0 1.709.275 3.353.772 4.897 3.294 3.558 8.339 5.923 10.048 5.923 8.821-.001 15.972-7.152 15.972-15.972z" fill="#f4daa7"/><path d="m113.122 207.409c.497 1.544.772 3.188.772 4.897 0 8.821-7.151 15.972-15.972 15.972-1.709 0-3.353-.275-4.897-.772 2.069 6.424 8.088 11.075 15.2 11.075 8.821 0 15.972-7.151 15.972-15.972-.001-7.112-4.652-13.131-11.075-15.2z" fill="#f1cd88"/><circle cx="478.355" cy="176.986" fill="#ccf49f" r="7.726"/><circle cx="403.152" cy="424.23" fill="#f4daa7" r="7.726"/><circle cx="44.38" cy="178.534" fill="#ccf49f" r="7.726"/></g></svg>