<svg height="512" viewBox="0 0 32 32" width="512" xmlns="http://www.w3.org/2000/svg"><g id="color"><path d="m18 28a1.96109 1.96109 0 0 1 -.59 1.42 2.0011 2.0011 0 0 1 -3.41-1.42z" fill="#f2f2f2"/><path d="m13 24h6v4h-6z" fill="#f45151"/><path d="m18 12a1.003 1.003 0 0 1 -1 1h-1v3h-3v-1a1 1 0 0 0 -2 0v1h-3a7.99778 7.99778 0 0 1 8-8v3h1a1.003 1.003 0 0 1 1 1z" fill="#f2f2f2"/><path d="m24 16a7.9808 7.9808 0 0 1 -4 6.92v1.08h-4v-3h-1a1 1 0 0 1 0-2h1v-3h3v1a1 1 0 0 0 2 0v-1z" fill="#ffc943"/><path d="m14 20a1.003 1.003 0 0 0 1 1h1v3h-4v-1.08a7.9808 7.9808 0 0 1 -4-6.92h3v-1a1 1 0 0 1 2 0v1h3v3h-1a1.003 1.003 0 0 0 -1 1z" fill="#43b3ff"/><path d="m24 16h-3v1a1 1 0 0 1 -2 0v-1h-3v-3h1a1 1 0 0 0 0-2h-1v-3a7.99778 7.99778 0 0 1 8 8z" fill="#f45151"/></g><g id="outline"><path d="m16 7.5a8.46179 8.46179 0 0 0 -4.33643 1.19092.49993.49993 0 0 0 .5127.8584 7.43855 7.43855 0 0 1 3.32373-1.01581v2.46649a.49971.49971 0 0 0 .5.5h1a.5.5 0 0 1 0 1h-1a.49971.49971 0 0 0 -.5.5v2.5h-2v-.5a1.5 1.5 0 0 0 -3 0v.50049l-1.96655.00116a7.438 7.438 0 0 1 1.01587-3.32538.49993.49993 0 0 0 -.8584-.5127 8.48664 8.48664 0 0 0 2.80908 11.53907v.79736a.49971.49971 0 0 0 .5.5h.5v1.002h-.5a.5.5 0 0 0 0 1h.5v1.5a.49971.49971 0 0 0 .5.5h.5506a2.49989 2.49989 0 0 0 4.8988 0h.5506a.49971.49971 0 0 0 .5-.5v-1.5h.5a.5.5 0 0 0 0-1h-.5v-1.002h.5a.49971.49971 0 0 0 .5-.5v-.79736a8.49456 8.49456 0 0 0 -4.5-15.70264zm0 22.002a1.50309 1.50309 0 0 1 -1.41455-1h2.8291a1.50309 1.50309 0 0 1 -1.41455 1zm2.5-2h-5v-1h5zm-5-2v-1h5v1zm3-12.002h.5a1.5 1.5 0 0 0 0-3h-.5v-1.97467a7.49889 7.49889 0 0 1 6.97473 6.97626l-2.47424-.00159h-.00049a.50011.50011 0 0 0 -.5.5v1a.5.5 0 0 1 -1 0v-1a.49971.49971 0 0 0 -.5-.5h-2.5zm-7.96637 3.00159 2.46686-.00159a.49992.49992 0 0 0 .49951-.5v-1a.5.5 0 0 1 1 0v1a.49971.49971 0 0 0 .5.5h2.5v2h-.5a1.5 1.5 0 0 0 0 3h.5v2h-3v-.58008a.4999.4999 0 0 0 -.25-.4331 7.50477 7.50477 0 0 1 -3.71637-5.98523zm11.21637 5.98523a.4999.4999 0 0 0 -.25.4331v.58008h-3v-2.5a.49971.49971 0 0 0 -.5-.5h-1a.5.5 0 0 1 0-1h1a.49971.49971 0 0 0 .5-.5v-2.5h2v.5a1.5 1.5 0 0 0 3 0v-.49951l1.96637.00116a7.50485 7.50485 0 0 1 -3.71637 5.98517z"/><path d="m5.5 16a.49971.49971 0 0 0 -.5-.5h-3a.5.5 0 0 0 0 1h3a.49971.49971 0 0 0 .5-.5z"/><path d="m6.72363 10.06689-2.59814-1.5a.50008.50008 0 1 0 -.5.86622l2.59814 1.5a.50008.50008 0 0 0 .5-.86622z"/><path d="m10.06689 6.72363a.50008.50008 0 1 0 .86622-.5l-1.5-2.59814a.50008.50008 0 0 0 -.86622.5z"/><path d="m16 5.5a.49971.49971 0 0 0 .5-.5v-3a.5.5 0 0 0 -1 0v3a.49971.49971 0 0 0 .5.5z"/><path d="m21.25 6.90674a.50031.50031 0 0 0 .68311-.18311l1.5-2.59814a.50008.50008 0 0 0 -.86622-.5l-1.5 2.59814a.5.5 0 0 0 .18311.68311z"/><path d="m25.52686 11a.49724.49724 0 0 0 .24951-.06689l2.59814-1.5a.50008.50008 0 0 0 -.5-.86622l-2.59814 1.5a.5.5 0 0 0 .25049.93311z"/><path d="m30 15.5h-3a.5.5 0 0 0 0 1h3a.5.5 0 0 0 0-1z"/><path d="m28.37451 22.56689-2.59814-1.5a.50008.50008 0 1 0 -.5.86622l2.59814 1.5a.50008.50008 0 0 0 .5-.86622z"/><path d="m6.22363 21.06689-2.59814 1.5a.50008.50008 0 0 0 .5.86622l2.59814-1.5a.50008.50008 0 1 0 -.5-.86622z"/><path d="m9.98956 9.98956a.5.5 0 1 0 .70716 0 .5.5 0 0 0 -.70716 0z"/></g></svg>