<svg id="Layer_1" enable-background="new 0 0 512 512" viewBox="0 0 512 512" xmlns="http://www.w3.org/2000/svg"><g><g><path d="m68.8 343.3c.3.9.7 1.8 1.2 2.6-.4-.8-.9-1.7-1.2-2.6z" fill="#ea6077"/><path d="m437.8 377.1c-27.2 25.2-71.9 35.9-106.1 43-10.3 1.8-20.3 2.9-30.5 3.6-7.7 38.6-21.6 38.6-32.4.3-26.9-1.2-52.6-6-76.3-13.1-19.2 44.6-32.1 30.2-33-11.6-34.9-17.5-108.9-41.7-77.1-82 32.6-52.4 108.6-181.3 135.6-226.8 4.6-7.7 10.9-14.2 18.3-18.9 17.5-12.8 45.3-7.2 62 .5 8.5-.4 118.3 230.2 124.5 238.5 4.8 9.5 12.5 24.7 17.3 34.2 6.3 10.2 5.7 23.6-2.3 32.3z" fill="#ea6077"/><path d="m290.6 66.3c-1-.6-2-1.2-3.1-1.8 1 .6 2.1 1.2 3.1 1.8z" fill="#cd3858"/><path d="m422.9 310.7c-9.4 9.2-21.8 18.6-33.6 25.4-5.6-26.7-50.1-116.3-82.3-174.5-10.4-18.9-20.5-36.4-29.1-50.4-17.7-26.5-20.1-37.5-41.6-39.6 3.7-8 12.6-6.3 19.6-7.3 12.1-2.9 35.8 3.6 44.6 7.4 9.3.7 119.1 227 122.4 239z" fill="#cd3858"/><path d="m440.2 344.9c-.5 7.7-3.6 28.7-22 29.2-22.5.7-30.6 14.9-43 26.4-6.5 6-18.9 10.8-32.8 12.7 12.8-8.9 33.6-25.8 43-46.5 15.3-7.1 28-15.2 38.1-23 4.1-3.1 7.8-6.3 11.3-9.4z" fill="#2a723a"/><path d="m71.2 347.7c.4.6.9 1.1 1.4 1.6-.5-.5-1-1-1.4-1.6z" fill="#5f9c45"/><path d="m434.8 334.3c-14.9 13.1-28.6 22.5-49.4 32.4-9.2 19.2-25.6 34.4-43 46.5-3.2 2.2-6.2 4.1-9.4 6.1-10.2 3.3-21.4 3.3-31.9 4.4-7.7 38.6-21.6 38.6-32.4.3-26.9-1.2-52.6-6-76.3-13.1-19.2 44.6-32.1 30.2-33-11.6-29.9-12.1-57.9-28.8-75.4-41.2-10.9-10.5-14.5-28.9-3.5-41.5 142.5 62.5 121.5 49.6 272.2 48.1 18.9-10.7 58.4-29.4 78.5-37.5z" fill="#5f9c45"/><path d="m437.8 377.1c-10 11.2-26.5 22.1-40.9 27.8-21.8 8.8-44.5 11.7-65.2 15.2.2-.1 4.5-2.6 10.7-6.9 14-1.9 26.4-6.7 32.8-12.7 12.4-11.5 20.5-25.7 43-26.4 18.4-.5 21.5-21.6 22-29.2l1.3 2.6c5 9.8 3.5 21.7-3.7 29.6z" fill="#1c5128"/><path d="m68.8 343.3c.3.9.7 1.8 1.2 2.6-.4-.8-.9-1.7-1.2-2.6z" fill="#256131"/><path d="m342.4 413.2c-4.1 2.8-6.9 4.7-10.7 6.9-10.3 1.8-20.3 2.9-30.5 3.6-7.7 38.6-21.6 38.6-32.4.3-26.9-1.2-52.6-6-76.3-13.1-19.2 44.6-32.5 30.8-33.3-11-23.1-11.2-59.5-23.5-76.3-40.9-5-5.2-7.1-12.8-8-18.7 2.6 1.9 5.6 4.7 8.9 8.7 10.6 13.1 17.1 3.8 34.2 16.2s10.8 19.5 36.9 21.8 30.4-.8 46.8 9.5c53 31.8 48.7.7 101.6 13.7 12.2 4.2 26.3 4.8 39.1 3z" fill="#256131"/><path d="m237.9 384.5h-.1c-90.6-10.1-146.2-42.7-162.5-53.4.3-1.3.8-2.7 1.3-4.1.5-1.2 1.1-2.4 1.8-3.7z" fill="#e7eda9"/><g><path d="m434.8 334.3c-3.5 3.1-7.3 6.3-11.3 9.4-10.1 7.8-22.8 15.9-38.1 23 4.3-9.5 6.3-19.8 4-30.5 6.1-3.6 12-7.5 17.7-11.8 6-4.5 11.3-9.2 15.9-13.6z" fill="#c1d36e"/><path d="m390.3 345.1c.1 7.5-1.8 14.8-4.9 21.6-34.9 18.4-99.8 26-147.5 17.8-80.3-10.1-132.2-36.9-161.3-57.5 4-8 8.1-12.8 13.2-21.8 57 45.5 218.6 84.4 299.5 30.9.7 3 1 6 1 9z" fill="#d8e299"/></g><path d="m192.5 410.9c-.4 1.1-.9 2.3-1.4 3.5-4.4 10-11.7 22.9-19.8 24.1-1.2.2-2.2-.2-3.2-1-5.4-4.7-7.6-21.5-8.3-34-.1-1.5-.2-2.9-.2-4.2z" fill="#2a723a"/><path d="m301.2 423.7c-.2 1.3-.5 2.6-.8 4-2.2 10.3-6.5 22.6-13.5 25.3-1.1.4-2.2.3-3.4-.3-5.2-2.8-10-14.1-13.5-24.7-.4-1.3-.9-2.6-1.2-3.9z" fill="#2a723a"/><path d="m289.4 362.4.3-.1c-.2.1-.3.1-.3.1z" fill="#dd3b5d"/><ellipse cx="289.7" cy="143.7" fill="#cd3858" rx="19.4" ry="34.5" transform="matrix(.944 -.329 .329 .944 -31.144 103.387)"/><ellipse cx="251.9" cy="107.8" fill="#cd3858" rx="11.3" ry="17" transform="matrix(.944 -.329 .329 .944 -21.462 88.95)"/><ellipse cx="312.9" cy="169.2" fill="#cd3858" rx="8.2" ry="9.8" transform="matrix(.944 -.329 .329 .944 -38.273 112.461)"/><ellipse cx="259.5" cy="133.1" fill="#cd3858" rx="3.4" ry="4" transform="matrix(.944 -.329 .329 .944 -29.338 92.858)"/><path d="m84.1 358.1c-3.5-2.4-9.6-3.8-12.6-6.7-3.7-3.6-4.1-9-3.8-14.9 1.7.5 4.2 1.5 7.2 3.7 1.1 7.7 5.6 14 9.2 17.9z" fill="#44854d"/><path d="m74.9 340.2c-3.1-2.2-5.5-3.2-7.2-3.7.1-3.1 1-6.3 2.6-9 0 0 1.7 1.3 5 3.5-.8 3.3-.8 6.4-.4 9.2z" fill="#91c17f"/><path d="m76.6 327c-.6 1.4-1 2.7-1.3 4.1-3.3-2.2-5-3.5-5-3.5l2.2-3.6c1.3 1 2.7 2 4.1 3z" fill="#e7eda9"/><path d="m85.5 302c-3.3 5.5-9.9 16.5-13.1 21.9 1.3 1 2.8 2 4.2 3.1 4-8 8.1-12.8 13.2-21.8-1.5-1.1-2.9-2.1-4.3-3.2z" fill="#e7eda9"/><path d="m236.4 71.6c-7.4 4.7-13.8 11.1-18.3 18.9-23.4 39.6-99 167.2-128.2 214.7-1.5-1.1-3-2.2-4.3-3.2l10.4-17.5 15.9-26.6 8.4-14 25.9-43.3 28.2-47.1 45.4-75.9c.4-.4 6.8-6 16.6-6z" fill="#f7b4c7"/><path d="m299 71.8c-16.7-7.7-45.2-13-62.7-.1-9.8-.1-16.2 5.5-16.6 5.9-.6-3.9 4-8.8 8.4-11.5 20.3-12.6 53.5-11 70.9 5.7z" fill="#f38aa6"/><g><path d="m445.2 345.7-131.4-259.9c-16.4-38.2-76-39.7-97.5-10.4 0 0-149.5 250-149.5 250-5.9 9.9-3.4 22.5 5.8 29.3 15.8 11.8 44.8 31.1 82.9 46.9.4 42.9 19 58.8 39.4 13.8 23.7 6.8 47.3 10.8 70.7 12.2 11 39.6 31 38.3 38.9-.3 35.6-2.5 165.9-26.5 140.7-81.6zm-7.4 31.4c-35.7 31.2-93.5 42.6-136.6 46.6-7.7 38.6-21.6 38.6-32.4.3-26.9-1.2-52.6-6-76.3-13.1-19.2 44.6-32.1 30.2-33-11.6-35.1-14.2-67.3-34.6-84.5-47.7-7.5-5.6-9.6-15.9-4.8-24 0 0 149.5-250 149.5-250 20.5-26.4 74.6-25.7 90.4 10.1 0 0 131.4 259.9 131.4 259.9 5 9.7 3.5 21.6-3.7 29.5z" fill="#4e1827"/></g><g fill="#cd3858"><ellipse cx="338.2" cy="234.3" rx="18.2" ry="26.8" transform="matrix(.944 -.329 .329 .944 -58.285 124.413)"/><ellipse cx="278.8" cy="198.2" rx="10.1" ry="14.9" transform="matrix(.944 -.329 .329 .944 -49.692 102.847)"/><ellipse cx="317.5" cy="265.4" rx="10.1" ry="14.9" transform="matrix(.944 -.329 .329 .944 -69.675 119.315)"/><ellipse cx="343.5" cy="287.5" rx="6.5" ry="9.6" transform="matrix(.944 -.329 .329 .944 -75.503 129.101)"/><ellipse cx="305.4" cy="204.2" rx="6.4" ry="9.5" transform="matrix(.944 -.329 .329 .944 -50.219 111.921)"/><ellipse cx="354.3" cy="269.4" rx="3.4" ry="4" transform="matrix(.944 -.329 .329 .944 -68.934 131.654)"/><ellipse cx="295.9" cy="220" rx="3.4" ry="4" transform="matrix(.944 -.329 .329 .944 -55.934 109.683)"/></g></g><g><ellipse cx="171.3" cy="294.1" fill="#f04a5d" rx="11.6" ry="14.7" transform="matrix(.285 -.958 .958 .285 -159.416 374.364)"/><ellipse cx="295.7" cy="316.4" fill="#f04a5d" rx="11.6" ry="14.7" transform="matrix(.285 -.958 .958 .285 -91.916 509.504)"/><g><path d="m232.6 314.7c-1.1 0-2.1-.1-3.2-.3-7.5-1.6-11.6-8.6-11.8-8.9-.6-1-.2-2.2.8-2.8s2.2-.2 2.8.8c0 .1 3.4 5.7 9.1 7 3.6.8 7.5-.3 11.6-3.3.9-.7 2.2-.4 2.8.5.7.9.4 2.2-.5 2.8-3.9 2.7-7.8 4.2-11.6 4.2z" fill="#4e1827"/></g><g><path d="m204.4 296.9c-.6 0-1.1-.2-1.5-.7-4.5-5.3-9.4-8-14.5-8.1-8.2-.2-14.5 6.4-14.5 6.4-.8.8-2 .9-2.9.1-.8-.8-.9-2-.1-2.9.3-.3 7.5-7.9 17.6-7.7 6.3.1 12.2 3.3 17.5 9.5.7.8.6 2.1-.2 2.9-.5.3-1 .5-1.4.5z" fill="#4e1827"/></g><g><path d="m294.1 311.2c-.6 0-1.1-.2-1.5-.7-4.5-5.3-9.4-8-14.5-8.1-8.2-.2-14.5 6.4-14.5 6.4-.8.8-2 .9-2.9.1-.8-.8-.9-2-.1-2.9.3-.3 7.6-7.9 17.6-7.7 6.3.1 12.2 3.3 17.5 9.5.7.8.6 2.1-.2 2.9-.5.4-1 .5-1.4.5z" fill="#4e1827"/></g></g><path d="m113.3 62.3c-25.4 0-46 15.4-46 34.3s20.6 34.3 46 34.3 46-15.4 46-34.3-20.7-34.3-46-34.3z" fill="#fff"/><path d="m148.4 133.5c-7.7 0-14.1 4.5-14.1 9.9s6.5 9.9 14.1 9.9c7.7 0 14.1-4.5 14.1-9.9 0-5.3-6.5-9.9-14.1-9.9z" fill="#fff"/><path d="m130.5 80.7c-10.3-7.8-20.3 5.5-20.3 5.5s-10-13.3-20.3-5.5c-10.1 7.7 2.4 26.8 20.3 36.6 17.9-9.8 30.4-28.9 20.3-36.6z" fill="#cd3858"/></g></svg>