<svg id="Capa_1" enable-background="new 0 0 512 512" height="512" viewBox="0 0 512 512" width="512" xmlns="http://www.w3.org/2000/svg"><path d="m497.182 153.606c-9.581-9.581-25.116-9.581-34.697 0l-76.068 76.068c-11.177 11.177-29.79 8.617-37.795-5.013-.107-.182-.214-.364-.321-.545-5.614-9.479-4.183-21.537 3.608-29.327l145.405-145.406c9.581-9.581 9.581-25.116 0-34.697s-25.115-9.581-34.697 0l-95.908 95.908c-7.79 7.79-19.848 9.222-29.327 3.608-.181-.107-.363-.215-.545-.321-13.63-8.005-16.19-26.618-5.013-37.795l26.571-26.571c9.581-9.581 9.581-25.116 0-34.697-9.581-9.581-25.115-9.581-34.697 0l-52.207 52.207c-45.464 45.464-98.939 82.423-158.286 107.161-62.071 25.873-105.703 87.121-105.705 158.569-.002 94.478 77.267 171.747 171.745 171.745 71.447-.002 132.696-43.634 158.57-105.705 24.738-59.347 61.696-112.821 107.161-158.286l52.207-52.207c9.58-9.581 9.58-25.115-.001-34.696zm-199.755 26.27c-9.581 9.581-25.115 9.581-34.697 0-9.581-9.581-9.581-25.116 0-34.697s25.116-9.581 34.697 0c9.582 9.581 9.582 25.115 0 34.697z" fill="#ffe45c"/><path d="m239.241 444.5c-94.85 0-171.741-76.891-171.741-171.741 0-32.034 8.78-62.013 24.051-87.68-50.325 29.941-84.049 84.865-84.051 147.676-.002 94.478 77.267 171.747 171.745 171.745 62.811-.002 117.735-33.726 147.676-84.051-25.667 15.271-55.646 24.051-87.68 24.051z" fill="#ffda45"/><path d="m193.687 220.405h-15.427c-4.746 0-9.395 1.351-13.401 3.896l-69.943 44.419c-7.222 4.586-11.596 12.547-11.596 21.102v40.913c0 4.603-1.271 9.117-3.673 13.043l-8.325 13.611c-6.027 9.853-4.518 22.552 3.649 30.719l65.04 65.04c7.824 7.824 19.862 9.574 29.59 4.3l19.095-10.352c4.177-2.265 8.913-3.292 13.653-2.961l16.511 1.152c8.821.615 17.311-3.476 22.327-10.759l18.59-26.993c4.223-6.132 5.493-13.826 3.464-20.99l-11.2-39.551c-1.939-6.849-.867-14.2 2.948-20.209l32.003-50.409c6.274-9.883 4.85-22.797-3.428-31.074l-32.933-32.933c-8.149-8.149-20.813-9.671-30.66-3.685l-13.299 8.084c-3.914 2.379-8.405 3.637-12.985 3.637z" fill="#ff6c52"/><g fill="#ffe45c"><circle cx="79.253" cy="109.333" r="30"/><circle cx="437.459" cy="367.641" r="20"/><circle cx="173.934" cy="84.667" r="20"/></g><ellipse cx="131.703" cy="380.323" fill="#f2f6fc" rx="24.82" ry="19.765" transform="matrix(.707 -.707 .707 .707 -230.355 204.524)"/><ellipse cx="226.831" cy="285.195" fill="#f2f6fc" rx="24.82" ry="19.765" transform="matrix(.707 -.707 .707 .707 -135.226 243.924)"/><path d="m128.478 364.141c-1.92 0-3.839-.732-5.304-2.197l-7.174-7.174c-2.929-2.929-2.929-7.678.001-10.607 2.929-2.928 7.678-2.928 10.606 0l7.174 7.174c2.929 2.929 2.929 7.678-.001 10.607-1.464 1.465-3.384 2.197-5.302 2.197z"/><path d="m203.149 289.469c-1.919 0-3.839-.732-5.303-2.196l-7.175-7.174c-2.93-2.929-2.93-7.678-.001-10.607 2.93-2.929 7.679-2.929 10.606 0l7.175 7.174c2.93 2.929 2.93 7.678.001 10.607-1.464 1.464-3.384 2.196-5.303 2.196z"/><path d="m157.029 336.479c-.594 0-1.189-.02-1.786-.061-4.133-.284-7.253-3.864-6.969-7.997.283-4.132 3.882-7.255 7.996-6.968 3.177.22 6.272-.941 8.51-3.18 2.239-2.238 3.398-5.341 3.181-8.512-.283-4.132 2.837-7.712 6.97-7.996 4.117-.284 7.712 2.836 7.995 6.969.515 7.498-2.233 14.84-7.539 20.145-4.882 4.883-11.491 7.6-18.358 7.6z"/><path d="m457.182 148.302-76.068 76.068c-3.622 3.623-8.609 5.327-13.681 4.68-5.178-.662-9.676-3.646-12.335-8.174l-.344-.582c-3.886-6.562-2.875-14.869 2.458-20.203l31.607-31.607c2.929-2.929 2.929-7.678 0-10.606-2.93-2.929-7.678-2.929-10.607 0l-31.607 31.607c-10.18 10.181-12.136 25.993-4.755 38.456l.306.518c5.036 8.576 13.557 14.214 23.375 15.47 9.71 1.24 19.26-2.021 26.19-8.952l76.068-76.068c6.642-6.643 17.448-6.641 24.09 0 3.217 3.218 4.989 7.496 4.989 12.045s-1.772 8.828-4.99 12.045l-52.206 52.207c-47.554 47.553-84.152 101.622-108.78 160.703-25.597 61.409-85.121 101.089-151.647 101.091-43.69.001-84.887-17.133-115.999-48.246-31.113-31.112-48.247-72.309-48.246-115.999.002-66.525 39.683-126.05 101.091-151.647 59.08-24.627 113.148-61.226 160.704-108.78l52.205-52.207c3.218-3.217 7.496-4.989 12.046-4.989 4.551 0 8.828 1.772 12.045 4.989 6.643 6.642 6.643 17.449 0 24.09l-26.569 26.57c-6.932 6.931-10.195 16.477-8.953 26.19 1.256 9.818 6.895 18.338 15.464 23.371l.528.312c12.46 7.379 28.271 5.423 38.452-4.758l95.908-95.908c3.217-3.217 7.494-4.989 12.045-4.989 4.55 0 8.828 1.772 12.045 4.989 6.643 6.642 6.643 17.449 0 24.09l-93.999 93.999c-2.929 2.929-2.929 7.678 0 10.606 2.929 2.929 7.677 2.929 10.607 0l93.999-93.999c6.05-6.05 9.382-14.095 9.382-22.651 0-8.557-3.332-16.602-9.383-22.652-6.051-6.049-14.095-9.381-22.651-9.381-8.558 0-16.602 3.332-22.652 9.383l-95.908 95.908c-5.332 5.334-13.639 6.345-20.206 2.456l-.564-.333c-4.541-2.667-7.525-7.166-8.188-12.343-.648-5.072 1.058-10.059 4.681-13.681l26.57-26.571c12.49-12.49 12.49-32.813 0-45.303-6.051-6.051-14.096-9.383-22.652-9.383s-16.601 3.332-22.652 9.383l-52.206 52.207c-46.163 46.163-98.604 81.672-155.868 105.541-67.016 27.932-110.319 92.892-110.321 165.491-.001 47.697 18.693 92.66 52.639 126.606s78.909 52.64 126.606 52.639c72.599-.002 137.559-43.305 165.492-110.319 23.87-57.265 59.38-109.707 105.542-155.868l52.205-52.206c6.052-6.051 9.384-14.096 9.384-22.652s-3.332-16.602-9.383-22.652c-12.49-12.491-32.813-12.49-45.303-.001z"/><path d="m302.731 185.179c12.489-12.49 12.489-32.813-.001-45.304-12.49-12.49-32.813-12.487-45.304 0-12.489 12.49-12.489 32.813 0 45.304 6.246 6.246 14.447 9.367 22.652 9.367 8.203 0 16.408-3.123 22.653-9.367-.001 0 0 0 0 0zm-10.606-10.607c-6.645 6.643-17.45 6.641-24.091 0-6.642-6.642-6.642-17.449 0-24.091 3.32-3.321 7.682-4.981 12.045-4.981 4.361 0 8.725 1.661 12.045 4.981 6.642 6.643 6.642 17.45.001 24.091z"/><path d="m293.324 280.397c8.217-12.944 6.385-29.556-4.456-40.397l-32.934-32.934c-10.627-10.626-27.016-12.597-39.859-4.791l-13.299 8.083c-2.74 1.666-5.883 2.546-9.089 2.546h-15.427c-6.181 0-12.205 1.751-17.422 5.064l-69.942 44.419c-9.439 5.994-15.075 16.25-15.075 27.433v40.914c0 3.223-.889 6.38-2.571 9.13l-8.325 13.611c-7.864 12.857-5.914 29.279 4.743 39.937l36.351 36.351c2.93 2.929 7.678 2.929 10.607 0s2.929-7.678 0-10.606l-36.351-36.351c-5.738-5.738-6.789-14.581-2.554-21.503l8.325-13.611c3.123-5.108 4.774-10.971 4.774-16.957v-40.914c0-6.021 3.034-11.543 8.116-14.771l69.942-44.419c2.81-1.784 6.053-2.727 9.381-2.727h15.428c5.954 0 11.791-1.635 16.88-4.728l13.299-8.084c6.916-4.202 15.74-3.142 21.461 2.58l32.934 32.934c5.838 5.837 6.824 14.782 2.399 21.751l-32.003 50.409c-4.954 7.803-6.351 17.379-3.832 26.272l11.2 39.551c1.424 5.031.54 10.386-2.426 14.692l-18.589 26.993c-3.494 5.073-9.467 7.965-15.629 7.531l-16.512-1.152c-6.167-.427-12.31.901-17.749 3.85l-19.095 10.352c-6.762 3.665-15.277 2.425-20.713-3.01l-8.895-8.894c-2.928-2.93-7.677-2.929-10.606 0s-2.929 7.678.001 10.606l8.894 8.894c6.217 6.216 14.601 9.477 23.058 9.477 5.279 0 10.586-1.271 15.41-3.887l19.095-10.352c2.93-1.588 6.234-2.309 9.558-2.073l16.512 1.152c11.402.796 22.537-4.563 29.025-13.987l18.589-26.992c5.509-7.998 7.15-17.943 4.504-27.288l-11.2-39.551c-1.355-4.789-.604-9.944 2.064-14.146z"/><path d="m79.253 146.833c20.678 0 37.5-16.822 37.5-37.5s-16.822-37.5-37.5-37.5-37.5 16.822-37.5 37.5 16.822 37.5 37.5 37.5zm0-60c12.406 0 22.5 10.093 22.5 22.5s-10.094 22.5-22.5 22.5-22.5-10.093-22.5-22.5 10.094-22.5 22.5-22.5z"/><path d="m437.459 340.141c-15.163 0-27.5 12.336-27.5 27.5s12.337 27.5 27.5 27.5 27.5-12.336 27.5-27.5-12.337-27.5-27.5-27.5zm0 40c-6.893 0-12.5-5.607-12.5-12.5s5.607-12.5 12.5-12.5 12.5 5.607 12.5 12.5-5.607 12.5-12.5 12.5z"/><path d="m173.935 112.167c15.163 0 27.5-12.336 27.5-27.5s-12.337-27.5-27.5-27.5-27.5 12.336-27.5 27.5 12.336 27.5 27.5 27.5zm0-40c6.893 0 12.5 5.607 12.5 12.5s-5.607 12.5-12.5 12.5-12.5-5.607-12.5-12.5 5.607-12.5 12.5-12.5z"/></svg>