<svg height="512" viewBox="0 0 512 512" width="512" xmlns="http://www.w3.org/2000/svg"><g id="Flat"><path d="m336 488h-192v-256h224l56 152h-48v64a40 40 0 0 1 -40 40z" fill="#fec9a3"/><path d="m361.97 181.31a32.115 32.115 0 0 0 -15.38-11.51 31.995 31.995 0 0 0 -50.89-38.61 39.989 39.989 0 0 0 -79.4 0 32 32 0 0 0 -50.89 38.61 32 32 0 0 0 10.59 62.2h160a32 32 0 0 0 25.97-50.69z" fill="#f7afaf"/><path d="m361.97 181.31a32.115 32.115 0 0 0 -15.38-11.51 32 32 0 0 0 -9.14-44.63c-41.28 56.83-97.68 89.79-153.79 106.83h152.34a32 32 0 0 0 25.97-50.69z" fill="#f1a9a9"/><path d="m219.775 151.805a7.728 7.728 0 0 1 -10.642-5.377 48.124 48.124 0 0 1 -1.133-10.428c0-.152 0-.3 0-.457a7.721 7.721 0 0 1 9.272-7.447l.535.109a7.793 7.793 0 0 1 6.191 7.73v.065a32.162 32.162 0 0 0 .748 6.929 7.681 7.681 0 0 1 -4.468 8.655z" fill="#e68e8e"/><path d="m181.146 200h-.581a7.709 7.709 0 0 1 -7.3-10.275 30.009 30.009 0 0 1 39.1-17.673 7.717 7.717 0 0 1 2.9 12.289l-.224.254a7.9 7.9 0 0 1 -8.641 2.305 14.006 14.006 0 0 0 -18.046 8.144 7.7 7.7 0 0 1 -7.208 4.956z" fill="#e68e8e"/><path d="m318.5 176.094a7.859 7.859 0 0 1 -7.691-4.477 14 14 0 0 0 -18.519-7 7.7 7.7 0 0 1 -8.6-1.595l-.412-.412a7.71 7.71 0 0 1 2.1-12.429 30.01 30.01 0 0 1 40.145 15.15 7.718 7.718 0 0 1 -6.639 10.739z" fill="#e68e8e"/><path d="m255.233 231.211a7.71 7.71 0 0 1 -12.43-2.1 30.007 30.007 0 0 1 15.15-40.143 7.717 7.717 0 0 1 10.739 6.64l.024.386a7.859 7.859 0 0 1 -4.476 7.69 14.006 14.006 0 0 0 -7 18.519 7.7 7.7 0 0 1 -1.594 8.6z" fill="#e68e8e"/><g fill="#ffb531"><path d="m248 48h16v24h-16z"/><path d="m248 16h16v16h-16z"/><path d="m16 184h24v16h-24z"/><path d="m56 184h64v16h-64z"/><path d="m16 90.584h16v17.232h-16z" transform="matrix(.371 -.928 .928 .371 -77.018 84.642)"/><path d="m84 79.01h16v94.779h-16z" transform="matrix(.371 -.928 .928 .371 -59.527 164.876)"/><path d="m164 15.056h16v17.889h-16z" transform="matrix(.894 -.447 .447 .894 7.425 79.454)"/><path d="m188 45.167h16v53.666h-16z" transform="matrix(.894 -.447 .447 .894 -11.507 95.255)"/><path d="m111.636 23.561h16v96.878h-16z" transform="matrix(.661 -.751 .751 .661 -13.45 114.248)"/><path d="m56 12.383h16v21.313h-16z" transform="matrix(.661 -.751 .751 .661 4.423 55.865)"/><path d="m472 184h24v16h-24z"/><path d="m392 184h64v16h-64z"/><path d="m479.384 91.2h17.232v16h-17.232z" transform="matrix(.928 -.371 .371 .928 -1.943 188.312)"/><path d="m372.611 118.4h94.779v16h-94.779z" transform="matrix(.928 -.371 .371 .928 -16.906 165.005)"/><path d="m331.056 16h17.889v16h-17.889z" transform="matrix(.447 -.894 .894 .447 166.481 317.372)"/><path d="m289.167 64h53.666v16h-53.666z" transform="matrix(.447 -.894 .894 .447 110.282 322.44)"/><path d="m343.925 64h96.878v16h-96.878z" transform="matrix(.751 -.661 .661 .751 50.245 277.154)"/><path d="m437.343 15.04h21.313v16h-21.313z" transform="matrix(.751 -.661 .661 .751 96.459 301.705)"/></g><path d="m292 360a36.04 36.04 0 0 1 -36-36v-12h16v12a20 20 0 0 0 40 0v-12h16v12a36.04 36.04 0 0 1 -36 36z" fill="#92563a"/><path d="m376 424h-3.155a61.775 61.775 0 0 1 -51.5-27.562l13.312-8.876a45.8 45.8 0 0 0 38.188 20.438h3.155z" fill="#f7ad7c"/><path d="m224 232a107.152 107.152 0 0 1 -2.71 24 107.639 107.639 0 0 1 -13.03 32 107.514 107.514 0 0 1 -60.89 46.99l-3.37 1.01v-104z" fill="#92563a"/><path d="m221.29 256a105.366 105.366 0 0 1 -5.01 16h-72.28v-16z" fill="#6e3d26"/><path d="m208 288a106.964 106.964 0 0 1 -11.93 16h-52.33v-16z" fill="#6e3d26"/></g></svg>