<svg height="465pt" viewBox="0 0 465.5651 465" width="465pt" xmlns="http://www.w3.org/2000/svg"><path d="m461.199219 109.242188c3.089843 1.5625 4.8125 4.941406 4.265625 8.355468-.546875 3.417969-3.242188 6.089844-6.664063 6.605469l-12.800781 2.078125-2.078125 12.800781c-.519531 3.421875-3.1875 6.117188-6.605469 6.664063-3.417968.550781-6.796875-1.175782-8.355468-4.261719l-5.921876-11.601563-12.878906 2.078126c-3.4375.554687-6.835937-1.179688-8.40625-4.285157-1.570312-3.105469-.953125-6.871093 1.527344-9.3125l9.199219-9.199219-5.921875-11.523437c-1.625-3.097656-1.046875-6.894531 1.429687-9.371094 2.476563-2.472656 6.273438-3.050781 9.371094-1.425781l11.519531 5.917969 9.199219-9.199219c2.445313-2.480469 6.207031-3.097656 9.3125-1.527344 3.105469 1.570313 4.839844 4.972656 4.289063 8.40625l-2.078126 12.882813zm0 0" fill="#ff9811"/><path d="m352 400.28125h112v32h-112zm0 0" fill="#ff9811"/><path d="m352 336.28125v32h112v-32zm0 0" fill="#ff9811"/><path d="m344 432.28125h112v32h-112zm0 0" fill="#cc7400"/><path d="m344 368.28125h112v32h-112zm0 0" fill="#cc7400"/><path d="m348.480469 245.722656c.824219 2.445313.421875 5.136719-1.085938 7.234375-1.507812 2.09375-3.933593 3.332031-6.515625 3.324219h-44.878906l-8-16c4.417969 0 8-3.582031 8-8v-72h12.480469c6.890625.015625 13.007812 4.425781 15.199219 10.960938zm0 0" fill="#1e81ce"/><path d="m232 240.28125h-56c-4.417969 0-8-3.582031-8-8v-131.359375c.035156-31.464844 13.269531-61.472656 36.480469-82.71875 10.878906-9.921875 21.441406-17.921875 27.519531-17.921875s16.640625 8 27.519531 17.921875c23.210938 21.246094 36.445313 51.253906 36.480469 82.71875v131.359375c0 4.417969-3.582031 8-8 8zm0 0" fill="#3d9ae2"/><path d="m272 240.28125-16 32h-48l-16-32zm0 0" fill="#1e81ce"/><path d="m272 272.28125-16 48h-48l-16-48zm0 0" fill="#00b39d"/><path d="m248 320.28125h-32c-35.347656 0-64 28.65625-64 64v64c.027344 8.828125 7.175781 15.976562 16 16h128c8.824219-.023438 15.972656-7.171875 16-16v-64c0-35.34375-28.652344-64-64-64zm0 0" fill="#00ccb3"/><path d="m176 240.28125-8 16h-44.878906c-2.582032.007812-5.007813-1.230469-6.515625-3.324219-1.507813-2.097656-1.910157-4.789062-1.085938-7.234375l24.800781-74.480468c2.191407-6.535157 8.308594-10.945313 15.199219-10.960938h12.480469v72c0 4.417969 3.582031 8 8 8zm0 0" fill="#1e81ce"/><path d="m69.199219 29.242188c3.089843 1.5625 4.8125 4.941406 4.265625 8.355468-.546875 3.417969-3.242188 6.089844-6.664063 6.605469l-12.800781 2.078125-2.078125 12.800781c-.519531 3.421875-3.1875 6.117188-6.605469 6.664063-3.417968.550781-6.796875-1.175782-8.355468-4.261719l-5.921876-11.601563-12.878906 2.078126c-3.4375.554687-6.835937-1.179688-8.40625-4.285157-1.570312-3.105469-.953125-6.871093 1.527344-9.3125l9.199219-9.199219-5.921875-11.523437c-1.625-3.097656-1.046875-6.894531 1.429687-9.371094 2.476563-2.472656 6.273438-3.050781 9.371094-1.425781l11.519531 5.917969 9.199219-9.199219c2.445313-2.480469 6.207031-3.097656 9.3125-1.527344 3.105469 1.570313 4.839844 4.972656 4.289063 8.40625l-2.078126 12.882813zm0 0" fill="#ff9811"/><path d="m8 432.28125h112v32h-112zm0 0" fill="#ff9811"/><path d="m8 368.28125h112v32h-112zm0 0" fill="#ff9811"/><path d="m0 400.28125h112v32h-112zm0 0" fill="#cc7400"/><path d="m0 336.28125h112v32h-112zm0 0" fill="#cc7400"/><path d="m224 176.28125h16v64h-16zm0 0" fill="#1e81ce"/><path d="m232 80.28125c-4.417969 0-8-3.582031-8-8s3.582031-8 8-8 8 3.582031 8 8h16c-.042969-10.132812-6.445312-19.148438-16-22.527344v-9.472656h-16v9.472656c-11.011719 3.878906-17.621094 15.136719-15.644531 26.640625 1.980469 11.507813 11.96875 19.910157 23.644531 19.886719 4.417969 0 8 3.582031 8 8s-3.582031 8-8 8-8-3.582031-8-8h-16c.042969 10.136719 6.445312 19.152344 16 22.53125v9.46875h16v-9.46875c11.011719-3.878906 17.621094-15.136719 15.644531-26.644531-1.980469-11.503907-11.96875-19.90625-23.644531-19.886719zm0 0" fill="#ed1c24"/><path d="m232 384.28125c-4.417969 0-8-3.582031-8-8s3.582031-8 8-8 8 3.582031 8 8h16c-.042969-10.132812-6.445312-19.148438-16-22.527344v-9.472656h-16v9.472656c-11.011719 3.878906-17.621094 15.136719-15.644531 26.640625 1.980469 11.507813 11.96875 19.910157 23.644531 19.886719 4.417969 0 8 3.582031 8 8s-3.582031 8-8 8-8-3.582031-8-8h-16c.042969 10.136719 6.445312 19.152344 16 22.53125v9.46875h16v-9.46875c11.011719-3.878906 17.621094-15.136719 15.644531-26.644531-1.980469-11.503907-11.96875-19.90625-23.644531-19.886719zm0 0" fill="#ee8700"/><g fill="#aa6100"><path d="m384 400.28125h16v32h-16zm0 0"/><path d="m416 400.28125h16v32h-16zm0 0"/><path d="m376 432.28125h16v32h-16zm0 0"/><path d="m408 432.28125h16v32h-16zm0 0"/><path d="m376 368.28125h16v32h-16zm0 0"/><path d="m408 368.28125h16v32h-16zm0 0"/><path d="m384 336.28125h16v32h-16zm0 0"/><path d="m416 336.28125h16v32h-16zm0 0"/><path d="m64 400.28125h16v32h-16zm0 0"/><path d="m32 400.28125h16v32h-16zm0 0"/><path d="m72 432.28125h16v32h-16zm0 0"/><path d="m40 432.28125h16v32h-16zm0 0"/><path d="m72 368.28125h16v32h-16zm0 0"/><path d="m40 368.28125h16v32h-16zm0 0"/><path d="m64 336.28125h16v32h-16zm0 0"/><path d="m32 336.28125h16v32h-16zm0 0"/></g><path d="m72 152.28125h16v48h-16zm0 0" fill="#78b9eb"/><path d="m72 216.28125h16v16h-16zm0 0" fill="#78b9eb"/><path d="m40 184.28125h16v64h-16zm0 0" fill="#78b9eb"/><path d="m40 264.28125h16v16h-16zm0 0" fill="#78b9eb"/><path d="m376 152.28125h16v48h-16zm0 0" fill="#78b9eb"/><path d="m376 216.28125h16v16h-16zm0 0" fill="#78b9eb"/><path d="m408 184.28125h16v64h-16zm0 0" fill="#78b9eb"/><path d="m408 264.28125h16v16h-16zm0 0" fill="#78b9eb"/><path d="m336 8.28125h16v16h-16zm0 0" fill="#ee8700"/><path d="m416 24.28125h16v16h-16zm0 0" fill="#ee8700"/><path d="m112 88.28125h16v16h-16zm0 0" fill="#ee8700"/><path d="m8 104.28125h16v16h-16zm0 0" fill="#ee8700"/></svg>