<svg id="Layer_1" height="512" viewBox="0 0 64 64" width="512" xmlns="http://www.w3.org/2000/svg" data-name="Layer 1"><g fill="#7bcc8f"><path d="m10 41-8 8h4v14h8v-14h4z"/><path d="m54 41-8 8h4v14h8v-14h4z"/><path d="m38 44v-8h6l-12-12-12 12h6v8"/></g><circle cx="32" cy="47.5" fill="#9dc8f2" r="4.5"/><path d="m36 52h-8a5 5 0 0 0 -5 5v6h18v-6a5 5 0 0 0 -5-5z" fill="#9dc8f2"/><path d="m32 6 2.163 4.609 4.837.739-3.5 3.587.826 5.065-4.326-2.391-4.326 2.391.826-5.065-3.5-3.587 4.837-.739z" fill="#d97777"/><path d="m24.05176 11.03027a.99926.99926 0 0 0 .23242 1.01563l3.14746 3.22558-.74464 4.56739a.99976.99976 0 0 0 1.4707 1.03613l3.8423-2.124 3.84229 2.124a.99976.99976 0 0 0 1.4707-1.03613l-.74463-4.56739 3.14746-3.22558a.99977.99977 0 0 0 -.56494-1.68652l-4.30908-.6587-1.93653-4.12548a1 1 0 0 0 -1.81054 0l-1.93653 4.12548-4.30908.6587a.9992.9992 0 0 0 -.79736.67089zm5.936.56641a.99935.99935 0 0 0 .7544-.56348l1.25784-2.67968 1.25781 2.67968a.99935.99935 0 0 0 .7544.56348l2.91308.44531-2.14111 2.19434a.999.999 0 0 0 -.271.85937l.49463 3.03272-2.52392-1.395a.9991.9991 0 0 0 -.96778 0l-2.52392 1.395.49463-3.03272a.999.999 0 0 0 -.271-.85937l-2.14111-2.19433z"/><path d="m31 1h2v3h-2z"/><path d="m24.283 4.561h2v3h-2z" transform="matrix(.707 -.707 .707 .707 3.121 19.655)"/><path d="m37.218 5.061h3v2h-3z" transform="matrix(.707 -.707 .707 .707 7.055 29.153)"/><path d="m22 57v6h2v-6a4.00458 4.00458 0 0 1 4-4h8a4.00458 4.00458 0 0 1 4 4v6h2v-6a6.00219 6.00219 0 0 0 -5.77118-5.9884 5.5 5.5 0 1 0 -8.45764 0 6.00219 6.00219 0 0 0 -5.77118 5.9884zm10-13a3.5 3.5 0 1 1 -3.5 3.5 3.50424 3.50424 0 0 1 3.5-3.5z"/><path d="m36 56h2v7h-2z"/><path d="m26 56h2v7h-2z"/><path d="m20 37h5v7h2v-8a1 1 0 0 0 -1-1h-3.58594l9.58594-9.58594 9.58594 9.58594h-3.58594a1 1 0 0 0 -1 1v8h2v-7h5a.99991.99991 0 0 0 .707-1.707l-12-12a.99962.99962 0 0 0 -1.41406 0l-12 12a.99991.99991 0 0 0 .70706 1.707z"/><path d="m2 50h3v13h2v-14a1 1 0 0 0 -1-1h-1.58594l5.58594-5.58594 5.58594 5.58594h-1.58594a1 1 0 0 0 -1 1v10h2v-9h3a.99991.99991 0 0 0 .707-1.707l-8-8a.99962.99962 0 0 0 -1.41406 0l-8 8a.99991.99991 0 0 0 .70706 1.707z"/><path d="m13 61h2v2h-2z"/><path d="m46 50h3v9h2v-10a1 1 0 0 0 -1-1h-1.58594l5.58594-5.58594 5.58594 5.58594h-1.58594a1 1 0 0 0 -1 1v14h2v-13h3a.99991.99991 0 0 0 .707-1.707l-8-8a.99962.99962 0 0 0 -1.41406 0l-8 8a.99991.99991 0 0 0 .70706 1.707z"/><path d="m49 61h2v2h-2z"/></svg>