<?xml version="1.0" encoding="iso-8859-1"?>
<!-- Generator: Adobe Illustrator 27.2.0, SVG Export Plug-In . SVG Version: 6.00 Build 0)  -->
<svg version="1.1" id="Capa_1" xmlns="http://www.w3.org/2000/svg" xmlns:xlink="http://www.w3.org/1999/xlink" x="0px" y="0px"
	 viewBox="0 0 510 510" style="enable-background:new 0 0 510 510;" xml:space="preserve">
<g>
	<g>
		<path style="fill:#B1D952;" d="M148.153,34.488c32.299-15.696,68.553-24.5,106.847-24.5s74.548,8.804,106.847,24.5H500v432.833
			H377.234c-35.988,20.776-77.733,32.667-122.234,32.667s-86.246-11.891-122.234-32.667H10V34.488H148.153z"/>
		<path style="fill:#91B706;" d="M87.047,92.88c0-19.833,1.443-39.328,4.217-58.392H10v432.833h122.766
			c35.988,20.776,77.733,32.667,122.234,32.667c38.812,0,75.526-9.047,108.155-25.143C202.795,421.976,87.047,270.948,87.047,92.88z
			"/>
	</g>
	<g>
		<path style="fill:#052A75;" d="M210.083,268.263c-21.275,0-38.583,17.309-38.583,38.583v103.308c0,5.523,4.477,10,10,10
			c5.523,0,10-4.477,10-10v-32.667c0-10.247,8.336-18.583,18.583-18.583c10.247,0,18.583,8.336,18.583,18.583v32.667
			c0,5.523,4.477,10,10,10c5.523,0,10-4.477,10-10V306.847C248.666,285.572,231.358,268.263,210.083,268.263z M210.083,338.905
			c-6.734,0-13.067,1.738-18.583,4.783v-36.841c0-10.247,8.336-18.583,18.583-18.583c10.247,0,18.583,8.336,18.583,18.583v36.841
			C223.151,340.643,216.817,338.905,210.083,338.905z"/>
		<path style="fill:#052A75;" d="M320.333,233.546c-21.275,0-38.583-17.55-38.583-39.122c0-5.523,4.477-10,10-10
			c5.523,0,10,4.477,10,10c1.018,25.35,36.134,25.383,37.167,0c0-9.284-4.885-17.895-12.75-22.473l-21.729-12.65
			c-35.566-20.578-28.048-77.411,15.896-78.871c21.274,0,38.582,17.547,38.582,39.114c0,5.523-4.477,10-10,10
			c-5.523,0-10-4.477-10-10c-1.018-25.34-36.135-25.371-37.167,0c0,9.284,4.885,17.894,12.75,22.473l21.73,12.65
			C371.797,175.245,364.273,232.086,320.333,233.546z"/>
		<path style="fill:#052A75;" d="M434.666,400.155h-39v-45.333h26.75c5.523,0,10-4.477,10-10c0-5.523-4.477-10-10-10h-26.75v-45.333
			h39c5.523,0,10-4.477,10-10c0-5.523-4.477-10-10-10h-49c-5.523,0-10,4.477-10,10v130.667c0,5.523,4.477,10,10,10h49
			c5.523,0,10-4.477,10-10C444.666,404.632,440.189,400.155,434.666,400.155z"/>
		<path style="fill:#052A75;" d="M434.666,81.655h-49c-13.262,0.525-13.263,19.474,0,20c0,0,14.5,0,14.5,0v120.667
			c0,5.523,4.477,10,10,10c5.523,0,10-4.477,10-10V101.655h14.5C447.932,101.128,447.927,82.179,434.666,81.655z"/>
		<path style="fill:#052A75;" d="M140.666,233.546c-5.523,0-10-4.477-10-10v-89.531l-13.722,27.445
			c-1.694,3.388-5.157,5.528-8.944,5.528c-3.788,0-7.251-2.14-8.944-5.528l-13.722-27.445v88.306c-0.508,13.226-19.46,13.298-20,0
			c0,0,0-130.667,0-130.667c0-4.638,3.189-8.667,7.703-9.732c4.512-1.065,9.167,1.112,11.242,5.26L108,134.627l23.722-47.445
			c4.8-9.344,18.828-6.058,18.944,4.472c0,0,0,131.891,0,131.891C150.666,229.069,146.189,233.546,140.666,233.546z"/>
		<path style="fill:#052A75;" d="M132.5,269.488c-5.523,0-10,4.477-10,10v55.333H85.333v-55.333c0-5.523-4.477-10-10-10
			c-5.523,0-10,4.477-10,10v130.667c0,5.523,4.477,10,10,10c5.523,0,10-4.477,10-10v-55.333H122.5v55.333
			c0.516,13.242,19.466,13.283,20,0c0,0,0-130.666,0-130.666C142.5,273.965,138.023,269.488,132.5,269.488z"/>
		<path style="fill:#052A75;" d="M218.25,233.546c-21.275,0-38.584-17.308-38.584-38.583V91.655c0.518-13.241,19.464-13.285,20,0
			c0,0,0,103.309,0,103.309c0,10.247,8.336,18.583,18.584,18.583c10.247,0,18.583-8.336,18.583-18.583V91.655
			c0.516-13.232,19.452-13.299,20,0c0,0,0,103.309,0,103.309C256.833,216.238,239.525,233.546,218.25,233.546z"/>
		<path style="fill:#052A75;" d="M312.166,420.155c-4.589,0-8.588-3.123-9.702-7.575l-32.667-130.667
			c-2.712-12.966,15.661-17.613,19.403-4.851c0,0,22.965,91.861,22.965,91.861l22.965-91.861c3.711-12.72,22.106-8.167,19.403,4.851
			c0,0-32.667,130.666-32.667,130.666C320.755,417.032,316.755,420.155,312.166,420.155z"/>
		<path style="fill:#052A75;" d="M255,509.988c-43.794,0-86.914-11.287-124.884-32.667H10c-5.523,0-10-4.477-10-10V34.488
			c0-5.523,4.477-10,10-10h135.876c67.738-32.636,150.51-32.635,218.248,0H500c5.523,0,10,4.477,10,10v432.833
			c0,5.523-4.477,10-10,10H379.884C341.914,498.701,298.794,509.988,255,509.988z M20,457.322c0,0,112.766,0,112.766,0
			c1.755,0,3.479,0.462,4.999,1.339c70.775,41.597,163.695,41.597,234.469-0.001c1.52-0.877,3.244-1.339,5-1.339
			c0,0,112.766,0,112.766,0V44.488H361.847c-1.514,0-3.009-0.344-4.371-1.006C325.396,27.893,290.918,19.988,255,19.988
			s-70.397,7.905-102.476,23.494c-1.362,0.662-2.857,1.006-4.371,1.006H20V457.322z"/>
	</g>
</g>
<g>
</g>
<g>
</g>
<g>
</g>
<g>
</g>
<g>
</g>
<g>
</g>
<g>
</g>
<g>
</g>
<g>
</g>
<g>
</g>
<g>
</g>
<g>
</g>
<g>
</g>
<g>
</g>
<g>
</g>
</svg>
