<svg height="256" viewBox="0 0 256 256" width="256" xmlns="http://www.w3.org/2000/svg"><g fill="none" stroke-miterlimit="10" stroke-width="0" transform="matrix(2.81 0 0 2.81 1.407 1.407)"><path d="m88.015 38.609c.001-.043-.017-.08-.022-.121-.006-.061-.015-.117-.031-.175-.024-.084-.058-.158-.101-.232-.018-.031-.021-.068-.042-.097l-12.844-17.64c-.002-.003-.006-.005-.009-.008-.029-.039-.07-.064-.104-.098-.054-.054-.102-.115-.167-.156l-18.452-11.7c-.026-.016-.056-.023-.083-.037-.031-.016-.062-.03-.095-.043-.1-.039-.203-.064-.311-.07-.012-.001-.022-.007-.035-.008-.004 0-.007.002-.011.001-.004 0-.009-.002-.013-.002l-23.532.008c-.023 0-.045.008-.068.009-.013.001-.025-.005-.038-.004-.019.002-.034.013-.052.016-.1.016-.196.046-.288.09-.02.01-.043.016-.062.027-.008.004-.016.006-.024.01l-19.03 11.611c-.025.015-.037.046-.061.063-.093.068-.172.15-.239.248-.016.024-.046.037-.06.063l-10.126 18.103c-.025.044-.028.095-.046.142-.017.045-.048.082-.059.13-.004.019.002.037-.001.055-.012.068-.007.135-.005.204.002.067.001.133.016.197.004.017-.001.034.004.05l4.873 17.182c.098.349.374.618.724.71l13.359 3.507 3.569 20.287c.066.379.339.687.705.8.099.031.201.046.302.046.271 0 .536-.108.731-.308l15.873-16.236 14.232 7.23c.47.238 1.046.081 1.327-.365l9.071-14.307 16.153-1.6c.038-.004.072-.02.109-.028.051-.011.101-.02.151-.039.056-.021.107-.052.158-.082.031-.019.066-.028.096-.05.009-.006.012-.016.02-.023.095-.076.177-.165.24-.27.014-.023.019-.049.031-.073.033-.065.068-.13.086-.203l4.15-16.589c.009-.034-.002-.069.003-.103.007-.042.027-.078.028-.122zm-5.643 14.236-10.201-13.576 13.519.31zm-15.87 2.92-12.273-9.641 15.524-6.668 11.181 14.88zm-25.07 7.065-17.709-3.67 9.916-12.273h16.846zm-27.824-40.718 18.562 6.463-14.359 12.717-13.244-3.019zm19.659 22.729-13.006-2.987 13.859-12.274 15.613 15.261zm3.139-15.888 18.588-2.139 13.168 11.099-15.695 6.741zm20.272-17.874 14.921 9.462-15.229 3.883zm-2.364 13.754-19.25 2.215-1.764-16.772 21.35-.007zm-21.345 1.854-17.455-6.077 15.801-9.641zm-1.642 19.807-8.906 11.023-2.985-13.754zm39.145-9.309-12.976-10.938 16.234-4.139 11.218 15.408zm-66.01 3.162 12.772 2.911 3.288 15.151-11.817-3.101zm21.756 38.267-3.076-17.485 16.773 3.476zm30.273-8.395-13.118-6.663 9.172-16.154 12.29 9.655z" fill="#c9cfd4"/><circle cx="13.137" cy="20.867" fill="#f17b7b" r="3.007"/><circle cx="34.16" cy="28.18" fill="#f17b7b" r="6.14"/><circle cx="55.317" cy="25.747" fill="#7ec6c5" r="5.607"/><circle cx="52.237" cy="45.867" fill="#f7bf50" r="6.897"/><circle cx="18.101" cy="42.401" fill="#f7bf50" r="4.581"/><circle cx="7.877" cy="56.147" fill="#7ec6c5" r="3.007"/><g fill="#f7bf50"><circle cx="3.007" cy="38.967" r="3.007"/><circle cx="32.167" cy="9.257" r="3.007"/><circle cx="55.697" cy="9.247" r="3.007"/></g><circle cx="74.147" cy="20.947" fill="#7ec6c5" r="3.007"/><circle cx="86.997" cy="38.587" fill="#f17b7b" r="3.007"/><circle cx="70.084" cy="38.194" fill="#f7bf50" r="3.514"/><circle cx="82.847" cy="55.177" fill="#f7bf50" r="3.007"/><circle cx="66.197" cy="56.827" fill="#7ec6c5" r="3.007"/><circle cx="56.857" cy="71.557" fill="#f7bf50" r="3.007"/><circle cx="41.957" cy="63.987" fill="#f17b7b" r="4.527"/><circle cx="25.557" cy="80.757" fill="#7ec6c5" r="3.007"/><circle cx="21.877" cy="59.817" fill="#f7bf50" r="3.007"/><circle cx="33.147" cy="45.867" fill="#7ec6c5" r="4.527"/></g></svg>