<svg id="Icons" viewBox="0 0 60 60" xmlns="http://www.w3.org/2000/svg"><path d="m49.738 42.336 8.6-7.74c.421-.379.662-.92.662-1.487v-9.676c0-.286-.061-.568-.179-.828l-4.528-9.961c-.19-.417-.517-.756-.926-.961l-12.944-6.472c-.278-.139-.584-.211-.894-.211h-19.203c-.215 0-.429.035-.632.103l-11.118 3.706c-.375.125-.704.358-.946.669l-6.207 7.98c-.273.351-.421.783-.421 1.228v12.406c0 .577.249 1.125.683 1.505l6.751 5.908c.365.319.833.495 1.317.495h6.547c.454 0 .895.155 1.249.438l3.904 3.123c.355.284.795.438 1.249.438h16.15c.711 0 1.369.378 1.728.992l6.132 10.512c.179.307.508.496.864.496h1.339c.585 0 1.045-.5.997-1.083l-.827-9.928c-.052-.623.19-1.234.655-1.653z" fill="#18316d"/><path d="m59 23.43c0-.28-.06-.56-.18-.82l-.3-.67-9.06 1-4.83-6.43 9.92-3.3-.26-.57c-.19-.41-.51-.75-.92-.96l-.22-.11-10.2 3.39-10.77-2.48 8.54-7.12-.3-.15c-.28-.14-.58-.21-.89-.21h-1.49l-8.05 6.7-8.19-6.7h-1.48c-.21 0-.42.03-.63.1l-.66.22 9 7.37-10.79 4.14-8.18-8.18-.49.16c-.37.12-.7.36-.94.67l-.25.32 8.29 8.28-5.76 7.41-8.28-8.3-.21.27c-.27.35-.42.78-.42 1.23v.7l7.37 7.4-7.37 4.3c0 .58.25 1.13.68 1.51l.28.24 6.9-4.02-.73 9.43.3.26c.37.31.84.49 1.32.49h.34l.82-10.71 8.69 2.37-3.79 8.34h.49c.45 0 .89.15 1.25.44l.19.15 3.44-7.58 7.6 10.99h2.44l-8.05-11.62 14.83 2.47v9.15h.85c.42 0 .82.13 1.15.37v-7.96l9.13 9.14-.05-.56c-.05-.62.19-1.24.66-1.65l.01-.01-9.3-9.29 8.46-7.61 8.58 9.93.85-.76c.23-.2.4-.45.51-.73l-7.85-9.08 8-.89zm-18.49-6.98-8.67 5.79-.72-7.95zm-10.51-3.46v.01l-.01-.01zm-.88 1.42.73 8.01-10.2-4.37zm-17.41 12.02 4.93-6.34 2.82 8.46zm9.84 2.07-2.9-8.7 10.16 4.35zm2.29.96 6.96-4.17 5.57 6.26zm15.24 2.12-5.86-6.58h13.17zm-4.77-8.58 8.46-5.65 4.23 5.65zm14.69 1.01v-.01h.01z" fill="#2955a3"/><circle cx="10" cy="27" fill="#4ed8d5" r="2"/><circle cx="21" cy="30" fill="#f7ca3c" r="2"/><circle cx="39" cy="33" fill="#f7ca3c" r="2"/><circle cx="49" cy="24" fill="#4ed8d5" r="2"/><circle cx="43" cy="16" fill="#f7ca3c" r="2"/><circle cx="30" cy="13" fill="#4ed8d5" r="2"/><circle cx="17" cy="18" fill="#f7ca3c" r="2"/><circle cx="31" cy="24" fill="#4ed8d5" r="2"/></svg>