<svg id="Layer_1" enable-background="new 0 0 512 512" viewBox="0 0 512 512" xmlns="http://www.w3.org/2000/svg"><g><path d="m305.3 427.4c8.7-.7 17.5-1.7 26.4-3.3 28.8-6.2 130.7-27.2 109.9-72.6-5.4-10.6-13.2-26.1-18.6-36.9-7.5-10.3-114.4-236.3-124.5-238.5-16.8-7.7-44.5-13.4-62-.5-7.4 4.7-13.8 11.1-18.3 18.8-29.8 50.6-106.8 179.7-141.6 236.6-5.2 10.3.8 24.7 7.4 31.1 21.8 16.8 68.9 40 102.3 51.9 0 0 61.7 16.2 61.7 16.2s57.2-.7 57.2-.7z" fill="#ea6077"/><path d="m290.5 70.3c-1-.6-2-1.2-3.1-1.8 1.1.6 2.1 1.2 3.1 1.8z" fill="#cd3858"/><path d="m424.3 313.8c-9.4 9.2-23.2 19.5-35 26.3-5.6-26.7-50.1-116.3-82.3-174.5-10.4-18.9-20.5-36.4-29.1-50.4-17.7-26.5-20.1-37.5-41.6-39.6 3.7-8 12.6-6.3 19.6-7.3 12.1-2.9 36.6 4.1 45.4 7.9 9.3.7 116.3 228.6 123 237.6z" fill="#cd3858"/><path d="m440.2 348.9c-.5 7.7-3.6 28.7-22 29.2-22.5.7-30.6 14.9-43 26.4-6.5 6-18.9 10.8-32.8 12.7 12.8-8.9 33.6-25.8 43-46.5 15.3-7.1 28-15.2 38.1-23 4.1-3.1 7.8-6.3 11.3-9.4z" fill="#2a723a"/><path d="m71.2 351.7c.4.6.9 1.1 1.4 1.6-.6-.5-1-1-1.4-1.6z" fill="#5f9c45"/><path d="m301.1 427.7c10.5-1.1 21.6-1 31.9-4.4 20.8-13.1 41.5-30 52.4-52.6 20.9-9.9 34.5-19.3 49.4-32.4l-3.6-7.1c-20.2 8.2-59.6 26.8-78.5 37.5-151 1.5-128.3 14.9-270.4-47.4-5.1 5.8-7.8 12.9-7.7 19.7.1 7.9 3.6 15.4 9.4 21.1 24.5 19.4 80.9 44.6 116.6 57.9 0 0 55.4 9.2 55.4 9.2s45.1-1.5 45.1-1.5z" fill="#5f9c45"/><path d="m437.8 381.1c-10 11.2-27.9 19.1-42.4 24.7-21.8 8.8-43.1 14.7-63.8 18.2.2-.1 4.5-2.6 10.7-6.9 14-1.9 26.4-6.7 32.8-12.7 12.4-11.5 20.5-25.7 43-26.4 18.4-.5 21.5-21.6 22-29.2l1.3 2.6c5 9.9 3.5 21.8-3.6 29.7z" fill="#1c5128"/><path d="m237.9 388.5h-.1c-90.6-10.1-146.2-42.7-162.5-53.4.3-1.3.8-2.7 1.3-4.1.5-1.2 1.1-2.4 1.8-3.7z" fill="#e7eda9"/><g><path d="m434.8 338.3c-3.5 3.1-7.3 6.3-11.3 9.4-10.1 7.8-22.8 15.9-38.1 23 4.3-9.5 6.3-19.8 4-30.5 6.1-3.6 12-7.5 17.7-11.8 6-4.5 11.3-9.2 15.9-13.6z" fill="#c1d36e"/><path d="m390.3 349.1v.4 1.3.1c0 .4 0 .9-.1 1.3 0 .3 0 .6-.1 1v.1c0 .2 0 .4-.1.6 0 .4-.1.8-.1 1.1-.1.4-.1.8-.2 1.1 0 .1 0 .3-.1.4-.1.6-.2 1.1-.3 1.7-.1.3-.1.5-.2.8s-.1.5-.2.8v.1.2c-.1.2-.1.4-.2.6-.2.8-.4 1.6-.6 2.3-.2.6-.4 1.2-.6 1.8s-.4 1.2-.6 1.8c-.2.5-.4 1.1-.6 1.6-.3.9-.7 1.7-1.1 2.5-25.8 12-59.1 21.1-101 21.1-7.9 0-16-.3-24.5-1-7.6-.6-14.9-1.4-22-2.3h-.1c-80.4-10.1-132-36.9-161.2-57.5.5-1.2 1.1-2.4 1.8-3.7.3-.6.7-1.2 1.1-1.8.7-1 1.6-2.4 2.8-4.2 1.9-3 4.5-7.1 7.5-12.1 5.8 4.2 12.8 8.8 21 13.4 28.6 16.3 78 36.9 151.2 42.9 49.1 4 91.8-4.5 127.4-25.4.1.6.2 1.2.3 1.8 0 .2.1.3.1.5s.1.3.1.5v.2c0 .2.1.4.1.6.1.4.1.8.1 1.2.1.5.1 1.1.1 1.6v.7c0 .4 0 .8.1 1.1.2.2.2.5.2.8z" fill="#d8e299"/></g><path d="m289.3 366.4.3-.1c-.1.1-.2.1-.3.1z" fill="#dd3b5d"/><ellipse cx="289.7" cy="147.7" fill="#cd3858" rx="19.4" ry="34.5" transform="matrix(.944 -.329 .329 .944 -32.463 103.595)"/><ellipse cx="251.9" cy="111.8" fill="#cd3858" rx="11.3" ry="17" transform="matrix(.944 -.329 .329 .944 -22.781 89.159)"/><ellipse cx="312.9" cy="173.2" fill="#cd3858" rx="8.2" ry="9.8" transform="matrix(.944 -.329 .329 .944 -39.592 112.669)"/><ellipse cx="259.5" cy="137.1" fill="#cd3858" rx="3.4" ry="4" transform="matrix(.944 -.329 .329 .944 -30.657 93.066)"/><path d="m84 362.1c-3.5-2.4-9.6-3.8-12.6-6.7-3.7-3.6-4.1-9-3.8-14.9 1.7.5 4.2 1.5 7.2 3.7 1.2 7.7 5.7 14 9.2 17.9z" fill="#44854d"/><path d="m74.9 344.2c-3.1-2.2-5.5-3.2-7.2-3.7.1-3.1 1-6.3 2.6-9 0 0 1.7 1.3 5 3.5-.8 3.3-.9 6.4-.4 9.2z" fill="#91c17f"/><path d="m76.6 331c-.6 1.4-1 2.7-1.3 4.1-3.3-2.2-5-3.5-5-3.5l2.2-3.6c1.2.9 2.6 2 4.1 3z" fill="#e7eda9"/><path d="m85.5 306-8 13.3-3.7 6.2-1.4 2.4c1.3 1 2.8 2 4.2 3.1.5-1.2 1.1-2.4 1.8-3.7.3-.6.7-1.2 1.1-1.8.7-1 1.6-2.4 2.8-4.2 1.9-3 4.5-7.1 7.5-12.1-1.5-1.1-2.9-2.1-4.3-3.2z" fill="#e7eda9"/><path d="m236.3 75.6c-7.4 4.7-13.8 11.1-18.3 18.9-23.4 39.6-99 167.2-128.2 214.7-1.5-1.1-3-2.2-4.3-3.2l10.5-17.5 15.9-26.6 8.4-14 25.9-43.3 28.2-47.1 45.4-75.9c.3-.4 6.7-6 16.5-6z" fill="#f7b4c7"/><path d="m298.3 76.2c-16.7-7.7-44.5-13.4-62-.5-9.8-.1-16.2 5.5-16.6 5.9-.6-3.9 4-8.8 8.4-11.5 20.2-12.6 52.8-10.6 70.2 6.1z" fill="#f38aa6"/><g fill="#cd3858"><ellipse cx="338.2" cy="238.3" rx="18.2" ry="26.8" transform="matrix(.944 -.329 .329 .944 -59.604 124.621)"/><ellipse cx="278.8" cy="202.2" rx="10.1" ry="14.9" transform="matrix(.944 -.329 .329 .944 -51.011 103.055)"/><ellipse cx="317.4" cy="269.4" rx="10.1" ry="14.9" transform="matrix(.944 -.329 .329 .944 -70.994 119.523)"/><ellipse cx="343.4" cy="291.5" rx="6.5" ry="9.6" transform="matrix(.944 -.329 .329 .944 -76.822 129.31)"/><ellipse cx="305.3" cy="208.2" rx="6.4" ry="9.5" transform="matrix(.944 -.329 .329 .944 -51.538 112.129)"/><ellipse cx="354.2" cy="273.4" rx="3.4" ry="4" transform="matrix(.944 -.329 .329 .944 -70.253 131.862)"/><ellipse cx="295.9" cy="224" rx="3.4" ry="4" transform="matrix(.944 -.329 .329 .944 -57.253 109.892)"/></g><path d="m303.3 414.2c-25.2-8.8-47.5 1-55.9 1.7-8.4.6-29.2-5-45.6-15.4s-20.7-7.3-46.8-9.5-19.8-9.4-36.9-21.8-23.7-3.2-34.2-16.2c-3.3-4-6.3-6.8-8.9-8.7 1.1 7.7 5.6 13.9 9.2 17.8l16 14.1 48.5 24.7 6 2.2-22.9 21.4-1.5 8.8 10 2.7 41.9-9.7 17.4-7.7 18.3 5.7s17.1 2.4 30.4 4.2l-1.5 2.3-11.6 16.6 6 3.9 18.4-.9 34.8-11.1 27-11.7-2.6-1.2c4.3-.5 8.6-1.2 12.9-1.9s.2-.1.6-.3c.1 0 .2-.1.3-.2.2-.1.5-.3.8-.5.1-.1.2-.1.3-.2.4-.3.9-.6 1.5-.9.4-.2.8-.5 1.2-.8 1.7-1.1 3.7-2.4 6.1-4.1-13 1.5-27.1.9-39.2-3.3z" fill="#256131"/><path d="m445.1 349.7-131.4-259.9c-11.9-23.5-37.8-35.7-63.2-29.8-16 3.7-29.5 11.4-34.3 19.4l-149.5 250c-5.9 9.9-3.4 22.5 5.8 29.3 15.3 11.4 43 29.9 79.5 45.5 1.1.5 2.3 1 3.4 1.4l.9.3c1.2-.9 2.4-1.7 3.6-2.6l-.5-.2c-1.3-.5-2.6-1.1-3.9-1.6-.1 0-.1-.1-.2-.1-35.4-15-63.1-33.2-80.4-46-7.5-5.6-9.6-15.9-4.8-24l149.5-250c4.2-7.1 17-14.1 31.7-17.6 4-.9 7.9-1.4 11.8-1.4 19.4 0 37.7 10.9 46.8 29l131.4 259.9c4.9 9.7 3.4 21.6-3.7 29.6-10 11.2-27.9 19.1-42.4 24.7-26.6 10.8-52.4 17.2-77.2 20.2-.2 0-.4.1-.6.2-.1.1-4.6 2.3-10.8 5-16.2 7-47.8 19.5-64.7 18.1-2.7-.2-4.4-.9-4.6-1.9-.8-2.9 5.1-9.6 13.5-16.9 1.3-1.1 2.7-2.3 4.1-3.4-1.9-.2-3.8-.4-5.6-.6-15.5-1.7-30.3-4.5-44.3-8.1-2.1-.5-4.2-1.1-6.3-1.7-1.7.7-3.5 1.5-5.4 2.3l1.5.5c1.6.4 3.1.9 4.7 1.3 15.4 4.2 30.8 7.2 46 9.1-12.1 11-12.7 15.8-12 18.5.8 2.8 3.5 4.5 8.2 4.9 3.9.4 8.6 0 13.6-.8 25.9-4.3 61.6-21.4 63.4-22.2.2-.1.3-.2.5-.3 26.2-3.3 52.1-10 77.6-20.3 14.9-5.8 33.3-14 43.9-25.8 8.4-9.1 10.1-22.8 4.4-34z" fill="#4e1827"/><g><path d="m205.2 418.4c-1.7.7-3.5 1.6-5.6 2.4-13.2 5.6-33.6 13.5-50 16.2-5 .8-9.6 1.2-13.6.8-4.7-.4-7.4-2.1-8.2-4.9-.8-3 0-8.5 16.1-22.1 2.8-2.4 5.6-4.6 8.2-6.6 1.2-1 2.4-1.8 3.5-2.6 1.3.5 2.6 1.1 3.9 1.6l.5.2c-1.2.9-2.4 1.7-3.6 2.6-13.7 10.2-25.8 21.8-24.7 25.9.3 1 1.9 1.7 4.6 1.9 14.5 1.3 39.9-7.8 57.1-14.8 1.9-.8 3.7-1.6 5.4-2.3 2.1.6 4.2 1.2 6.4 1.7z" fill="#4e1827"/></g><g><ellipse cx="180.4" cy="310.9" fill="#f04a5d" rx="11.6" ry="14.7" transform="matrix(.228 -.974 .974 .228 -163.469 415.519)"/><ellipse cx="286.5" cy="328" fill="#f04a5d" rx="11.6" ry="14.7" transform="matrix(.228 -.974 .974 .228 -98.22 532.014)"/><g><path d="m207.7 321.4 1.1 5.3 20.7 11.5 25.8-2.7 2.2-5.2s1.2-2.9 1.1-3.4c0-.5-50.9-5.5-50.9-5.5z" fill="#f4f4f4"/><g><g><path d="m234.1 345.8c-2.4.1-3.9-.1-4-.1-.2 0-24.5-3.3-25.8-25.7l-.1-2.4 58 7.2-.7 2.3c-5.1 16.1-20.1 18.6-27.4 18.7zm-25.4-23.5c2.7 16.8 21.8 19.4 22 19.4.8.1 19.4 2.2 26.1-13.4z" fill="#4e1827"/></g><path d="m256.9 332.4c-26.1 3.5-50.2-6.5-50.2-6.5l3.3 4s8.9 9.8 9.4 10 10.4 4.7 12.1 4.4 9-1.4 9.7-1.4 8.7-3.5 9-3.7c.4-.2 6.7-6.8 6.7-6.8z" fill="#4e1827"/></g><path d="m217 336s6.4-3.3 15.4-1.2 12.4 5 12.4 5-14.8 8.6-27.8-3.8z" fill="#f04a5d"/></g><g fill="#4e1827"><ellipse cx="191" cy="298.4" rx="7.4" ry="14.9"/><ellipse cx="281.4" cy="309.8" rx="7.4" ry="14.9"/></g></g><g><g><path d="m109.6 66.3c-25.4 0-46 15.4-46 34.3s20.6 34.3 46 34.3 46-15.4 46-34.3-20.6-34.3-46-34.3z" fill="#fff"/></g><g><path d="m144.7 137.5c-7.7 0-14.1 4.5-14.1 9.9s6.5 9.9 14.1 9.9c7.7 0 14.1-4.5 14.1-9.9 0-5.3-6.5-9.9-14.1-9.9z" fill="#fff"/></g><g fill="#ea6077"><path d="m77.8 100.6c0-4.6 1.3-8.2 3.8-10.7 2.6-2.6 6.1-3.8 10.7-3.8 4.7 0 8.3 1.3 10.8 3.8s3.8 6 3.8 10.6c0 3.3-.6 6-1.7 8.1s-2.7 3.7-4.8 4.9-4.7 1.8-7.8 1.8c-3.2 0-5.8-.5-7.9-1.5s-3.8-2.6-5.1-4.8c-1.2-2.4-1.8-5.1-1.8-8.4zm8.7.1c0 2.8.5 4.9 1.6 6.1s2.5 1.9 4.3 1.9c1.9 0 3.3-.6 4.3-1.8s1.5-3.4 1.5-6.5c0-2.6-.5-4.6-1.6-5.8s-2.5-1.8-4.3-1.8-3.2.6-4.2 1.9c-1.1 1-1.6 3.1-1.6 6z"/><path d="m111.6 86.5h8.7v10.6l9.1-10.6h11.5l-10.3 10.6 10.7 17.5h-10.7l-5.9-11.6-4.5 4.7v6.9h-8.7v-28.1z"/></g></g></g></svg>