<svg id="Capa_1" enable-background="new 0 0 512 512" height="512" viewBox="0 0 512 512" width="512" xmlns="http://www.w3.org/2000/svg"><g><path d="m456.946 386.293-7.976-2.658c-6.744-2.249-11.293-8.56-11.293-15.669v-1.201l-40.307-1.266-26.715 47.348 84.271 13.9z" fill="#fbbd80"/><path d="m388.129 338.581v29.386c0 5.916-3.156 11.27-8.1 14.199l5.899 15.563c8-3.849 13.984-10.721 16.81-18.951 1.484-4.32 5.511-7.173 10.078-7.165h.087c8.768 0 17.118-1.746 24.774-4.847v-28.185z" fill="#f4aa73"/><path d="m489.414 397.116-32.468-10.822-34.881 23.254c-5.548 3.699-12.775 3.699-18.323 0l-34.881-23.254 2.752 92.674h90.839l8.258-6.337 8.258 6.337h8.258c13.682 0 24.774-11.092 24.774-24.774v-25.741c0-14.218-9.098-26.841-22.586-31.337z" fill="#b8b2b8"/><path d="m382.065 399.302c1.347-.449 2.626-1.016 3.878-1.62l-17.082-11.388-32.468 10.823c-13.488 4.496-22.586 17.119-22.586 31.337v25.74c0 10.771 6.916 19.844 16.516 23.257v-48.999c0-7.121 4.54-13.415 11.298-15.665z" fill="#4e3d4d"/><path d="m429.419 231.226h-33.032c-2.828 0-5.59.28-8.258.822l-14.758 65.243h89.081c5.288-5.288 8.258-12.459 8.258-19.937v-4.837c0-22.805-18.487-41.291-41.291-41.291z" fill="#d48c64"/><path d="m388.129 232.047c-18.846 3.827-33.032 20.493-33.032 40.469v4.837c0 7.478 2.97 14.649 8.258 19.937h24.774z" fill="#c6805d"/><path d="m395.792 275.07c-2.5-.833-5.126-1.045-7.667-.666l-18.121 23.765c0 27.365 15.534 55.71 42.899 55.71 4.283 0 8.438.673 12.402-.348 21.363-5.505 37.146-24.901 37.146-47.983v-8.258z" fill="#ffd18d"/><path d="m388.129 305.548v-31.144c-2.372.355-4.673 1.227-6.721 2.592l-14.376 9.584c-2.297 1.532-3.677 4.11-3.677 6.871v12.097c0 27.365 22.183 49.548 49.548 49.548 4.285 0 8.436-.542 12.402-1.565-21.358-5.508-37.176-24.903-37.176-47.983z" fill="#fbbd80"/><path d="m478.968 478.968h-16.516v-33.032c0-4.561 3.697-8.258 8.258-8.258 4.561 0 8.258 3.697 8.258 8.258z" fill="#b0a8af"/><path d="m147.597 387.78-12.433-4.145c-6.744-2.249-11.293-8.56-11.293-15.669v-1.201l-43.387.037-31.602 56.145 98.715 3.909z" fill="#af6e4d"/><path d="m74.323 338.581v29.387c0 7.109-4.549 13.42-11.293 15.668l-7.975 2.658 8.65 14.527 4.554-1.519c9.936-3.313 17.409-11.017 20.674-20.524 1.483-4.32 5.511-7.173 10.078-7.165h.087c8.768 0 17.119-1.746 24.774-4.847v-28.185z" fill="#845252"/><path d="m175.608 397.116-32.468-10.822-34.881 23.254c-5.548 3.699-12.775 3.699-18.323 0l-17.756-11.837-43.388 4.712c-13.488 4.496-22.586 17.119-22.586 31.336v25.741l10.31 18.068c2.582.912 5.364 1.399 8.258 1.399h8.258l8.574-7.26 7.942 7.26h90.839l57.806-50.516c.001-14.216-9.097-26.839-22.585-31.335z" fill="#887f88"/><path d="m49.548 478.968h-16.516v-33.032c0-4.561 3.697-8.258 8.258-8.258 4.561 0 8.258 3.697 8.258 8.258z" fill="#736572"/><path d="m306.831 348.521c-5.902-4.604-9.54-11.752-9.54-19.539v-16.046l-75.63-.432-6.95 57.339 37.792 52.995z" fill="#e29a6c"/><path d="m214.71 280.774v48.208c0 7.788-3.64 14.938-9.544 19.542l-3.378 10.025 15.311 1.525c8.787-7.683 14.127-18.928 14.127-31.109 0-5.124 4.583-8.949 9.642-8.133 4.931.795 9.978 1.232 15.132 1.232 14.747 0 28.702-3.326 41.29-9.128v-32.162z" fill="#d48c64"/><path d="m306.831 348.521-45.09 43.623c-3.201 3.096-8.281 3.096-11.482 0l-33.16-32.07-14.636-3.162-12.528 39.476 41.29 82.581h49.548l41.29-82.581z" fill="#eceaec"/><path d="m198.412 369.678 4.572-1.525c5.309-1.77 10.077-4.55 14.115-8.079l-11.933-11.55z" fill="#dbd8db"/><path d="m188.321 371.473-60.271 14.986-6.19 67.113 10.269 23.99c2.583.913 5.363 1.406 8.258 1.406h57.806z" fill="#615260"/><path d="m175.365 359.954-37.165 12.388c-13.489 4.496-22.587 17.119-22.587 31.337v50.514c0 10.771 6.916 19.955 16.516 23.368v-73.872c0-7.113 4.551-13.427 11.299-15.677l40.185-13.399z" fill="#4e3d4d"/><circle cx="256" cy="90.839" fill="#845252" r="57.806"/><path d="m180.325 94.428c-23.936 14.461-39.938 40.728-39.938 70.733 0 45.608 36.972 82.581 82.581 82.581h95.67z" fill="#70393c"/><path d="m245.117 148.645c-31.926 0-57.806 25.881-57.806 57.807v16.516c0 45.608 23.081 81.392 68.689 81.392l16.518-.463c37.693-7.652 66.063-40.978 66.063-80.929v-74.323z" fill="#f4aa73"/><path d="m206.452 222.968v-24.774c0-27.365 22.183-49.548 49.548-49.548h-24.774c-31.925 0-57.806 25.881-57.806 57.806v16.516c0 45.608 36.973 82.581 82.581 82.581 5.657 0 11.18-.569 16.517-1.652-37.694-7.653-66.066-40.978-66.066-80.929z" fill="#e29a6c"/><path d="m371.613 165.161c0-45.608-36.973-82.581-82.581-82.581h-66.065c-15.6 0-30.197 4.33-42.643 11.847 13.308 30.647 49.233 86.319 136.088 94.493 12.604 1.186 22.167 11.942 22.167 24.602v17.59c20.026-15.068 33.034-38.96 33.034-65.951z" fill="#7a4646"/><path d="m205.166 348.524c-2.178 1.697-4.671 3.053-7.396 3.961l-22.405 7.468-14.704 29.018c-2.364 4.665-2.379 10.174-.04 14.851l37.573 75.145h33.032z" fill="#736572"/><path d="m373.8 372.342-37.165-12.389-22.829 119.014h57.806c13.683 0 24.774-11.092 24.774-24.774v-50.513c.001-14.219-9.097-26.842-22.586-31.338z" fill="#615260"/><path d="m306.831 348.521c2.178 1.697 4.674 3.056 7.4 3.964l22.405 7.468 14.704 29.018c2.364 4.665 2.379 10.174.04 14.851l-37.573 75.145h-33.032z" fill="#736572"/><path d="m115.613 231.226h-33.032c-2.828 0-5.59.28-8.258.822l-14.759 65.242h89.081c5.288-5.288 8.258-12.459 8.258-19.937v-4.837c0-22.804-18.486-41.29-41.29-41.29z" fill="#615260"/><path d="m74.323 232.047c-18.846 3.827-33.032 20.493-33.032 40.469v4.837c0 7.478 2.97 14.649 8.258 19.937h24.774z" fill="#4e3d4d"/><path d="m81.986 275.07c-2.5-.833-5.126-1.045-7.667-.666l-18.121 23.766c0 27.365 15.534 55.71 42.899 55.71 4.283 0 8.438.673 12.402-.348 21.363-5.505 37.146-24.901 37.146-47.983v-8.258z" fill="#c6805d"/><path d="m74.323 305.548v-31.144c-2.372.355-4.673 1.227-6.721 2.592l-14.376 9.584c-2.297 1.532-3.677 4.11-3.677 6.871v12.097c0 27.365 22.183 49.548 49.548 49.548 4.285 0 8.436-.542 12.402-1.565-21.359-5.508-37.176-24.903-37.176-47.983z" fill="#af6e4d"/><path d="m68.258 399.302c1.347-.449 2.669-.987 3.922-1.591l-17.126-11.417h-.001l-32.468 10.823c-13.487 4.496-22.585 17.118-22.585 31.336v25.74c0 10.771 6.916 19.962 16.516 23.375v-49.117c0-7.121 4.54-13.415 11.298-15.665z" fill="#736572"/></g></svg>