<?xml version="1.0"?>
<svg xmlns="http://www.w3.org/2000/svg" viewBox="0 0 64 64"><g id="color"><path d="M30,31h4A12,12,0,0,1,46,43v8a0,0,0,0,1,0,0H18a0,0,0,0,1,0,0V43A12,12,0,0,1,30,31Z" style="fill:#2678db"/><path d="M22,13H42a0,0,0,0,1,0,0V23A10,10,0,0,1,32,33h0A10,10,0,0,1,22,23V13a0,0,0,0,1,0,0Z" style="fill:#ffc9bd"/><path d="M32,3h0A12,12,0,0,0,20,15v2a2,2,0,0,0,2,2h2.343a4,4,0,0,0,2.829-1.172L30,15l2.828,2.828A4,4,0,0,0,35.657,19H42a2,2,0,0,0,2-2V15A12,12,0,0,0,32,3Z" style="fill:#ffa31d"/><path d="M32,37a64.994,64.994,0,0,0-16.653-5.643A2,2,0,0,0,13,33.333V37Z" style="fill:#04a56b"/><path d="M32,37a64.994,64.994,0,0,1,16.653-5.643A2,2,0,0,1,51,33.333V37Z" style="fill:#04a56b"/><path d="M11,37.2V55.181a2,2,0,0,0,1.81,1.991L32,59l19.19-1.828A2,2,0,0,0,53,55.181V37.2a2,2,0,0,0-2.19-1.991L32,37,13.19,35.209A2,2,0,0,0,11,37.2Z" style="fill:#00c383"/><path d="M32,37l-2-.19V59a2,2,0,0,0,4,0V36.81Z" style="fill:#04a56b"/><rect height="10" rx="3" style="fill:#ffc9bd" width="6" x="7" y="41"/><rect height="10" rx="3" style="fill:#ffc9bd" transform="translate(108 92) rotate(-180)" width="6" x="51" y="41"/><path d="M22,20h2.343a4.966,4.966,0,0,0,3.535-1.464L30,16.414l2.122,2.122A4.966,4.966,0,0,0,35.657,20H42a3,3,0,0,0,3-3V15a13,13,0,0,0-26,0v2A3,3,0,0,0,22,20Zm-1-5a11,11,0,0,1,22,0v2a1,1,0,0,1-1,1H35.657a3.02,3.02,0,0,1-2.121-.878l-2.829-2.829a1,1,0,0,0-1.414,0l-2.829,2.829A3.02,3.02,0,0,1,24.343,18H22a1,1,0,0,1-1-1Z"/><path d="M28,21a1,1,0,0,0-1,1v1a1,1,0,0,0,2,0V22A1,1,0,0,0,28,21Z"/><path d="M35,22v1a1,1,0,0,0,2,0V22a1,1,0,0,0-2,0Z"/><path d="M32,30a3.862,3.862,0,0,0,2.707-1.291,1,1,0,0,0-1.414-1.414c-.943.942-1.643.943-2.586,0a1,1,0,0,0-1.414,1.414A3.86,3.86,0,0,0,32,30Z"/><path d="M54,40V37.2a2.983,2.983,0,0,0-2-2.824V33.333a3,3,0,0,0-3.522-2.961,55.776,55.776,0,0,0-7.247,1.836A12.97,12.97,0,0,0,39.35,31.16,10.96,10.96,0,0,0,43,23a1,1,0,0,0-2,0,9,9,0,0,1-18,0,1,1,0,0,0-2,0,10.96,10.96,0,0,0,3.65,8.16,12.882,12.882,0,0,0-1.881,1.049,55.624,55.624,0,0,0-7.247-1.837A3,3,0,0,0,12,33.333v1.044A2.975,2.975,0,0,0,10,37.2V40a4,4,0,0,0-4,4v4a4,4,0,0,0,4,4v3.182a2.989,2.989,0,0,0,2.716,2.986L29.1,59.728a2.987,2.987,0,0,0,5.8,0l16.385-1.56A2.989,2.989,0,0,0,54,55.182V52a4,4,0,0,0,4-4V44A4,4,0,0,0,54,40Zm-5.172-7.659a.982.982,0,0,1,.81.218,1,1,0,0,1,.362.774v.949L38.19,35.406A57.7,57.7,0,0,1,48.828,32.341Zm-22.258.213a10.92,10.92,0,0,0,10.861,0,11.009,11.009,0,0,1,1.293.514Q35.427,34.274,32,35.9q-3.425-1.624-6.725-2.829A10.8,10.8,0,0,1,26.57,32.554Zm-12.208,0a.98.98,0,0,1,.81-.218A57.7,57.7,0,0,1,25.81,35.406L14,34.282v-.949A1,1,0,0,1,14.362,32.559ZM8,48V44a2,2,0,0,1,4,0v4a2,2,0,0,1-4,0Zm4,7.182V51.444A3.987,3.987,0,0,0,14,48V44a3.987,3.987,0,0,0-2-3.444V37.2a1,1,0,0,1,1.1-.995L29,37.719V57.71L12.906,56.178A1,1,0,0,1,12,55.182ZM32,60a1,1,0,0,1-1-1V37.909S31.987,38,32,38l1-.091V59A1,1,0,0,1,32,60Zm20-4.818a1,1,0,0,1-.905,1L35,57.71V37.719L50.906,36.2A1,1,0,0,1,52,37.2v3.357A3.987,3.987,0,0,0,50,44v4a3.987,3.987,0,0,0,2,3.444ZM56,48a2,2,0,0,1-4,0V44a2,2,0,0,1,4,0Z"/><path d="M47.89,48.006l-9,1A1,1,0,0,0,39,51a1.032,1.032,0,0,0,.111-.006l9-1a1,1,0,1,0-.22-1.988Z"/><path d="M47.89,43.006l-9,1A1,1,0,0,0,39,46a1.032,1.032,0,0,0,.111-.006l9-1a1,1,0,1,0-.22-1.988Z"/><path d="M61,28H60V27a1,1,0,0,0-2,0v1H57a1,1,0,0,0,0,2h1v1a1,1,0,0,0,2,0V30h1a1,1,0,0,0,0-2Z"/><path d="M49,18h1v1a1,1,0,0,0,2,0V18h1a1,1,0,0,0,0-2H52V15a1,1,0,0,0-2,0v1H49a1,1,0,0,0,0,2Z"/><path d="M55,8h1V9a1,1,0,0,0,2,0V8h1a1,1,0,0,0,0-2H58V5a1,1,0,0,0-2,0V6H55a1,1,0,0,0,0,2Z"/><path d="M7,8H8V9a1,1,0,0,0,2,0V8h1a1,1,0,0,0,0-2H10V5A1,1,0,0,0,8,5V6H7A1,1,0,0,0,7,8Z"/><path d="M12,18a1,1,0,0,0,0,2h1v1a1,1,0,0,0,2,0V20h1a1,1,0,0,0,0-2H15V17a1,1,0,0,0-2,0v1Z"/><path d="M6,34H7a1,1,0,0,0,0-2H6V31a1,1,0,0,0-2,0v1H3a1,1,0,0,0,0,2H4v1a1,1,0,0,0,2,0Z"/></g></svg>
