<svg id="Layer_1" height="512" viewBox="0 0 206.0665 302.5094" width="512" xmlns="http://www.w3.org/2000/svg"><g><path d="m106.5344 200.0665 7.4286 91.084c.5547 6.8076 6.5234 11.8716 13.3281 11.3174 6.8047-.5547 11.873-6.5201 11.3184-13.3272l-8.5303-104.5916v-31.1198l25.7932 49.4056c1.4277 2.7344 4.2139 4.2998 7.0986 4.2998 1.2471 0 2.5137-.293 3.6953-.9102 3.917-2.0449 5.4346-6.8779 3.3896-10.7939l-39.0547-74.8071c-1.4666-2.8088-4.368-4.3746-7.3359-4.2866-.4281-.0735-.8655-.1199-1.3147-.1199h-38.6347c-.4492 0-.8868.0464-1.3149.1199-2.9683-.0883-5.8685 1.4775-7.3352 4.2861l-39.0557 74.8076c-2.0449 3.916-.5273 8.749 3.3896 10.7939 1.1826.6172 2.4482.9102 3.6953.9102 2.8848 0 5.6709-1.5654 7.0986-4.2998l25.7937-49.4048v31.1205l-8.5303 104.59c-.5547 6.8071 4.5137 12.7725 11.3184 13.3272 6.8047.5542 12.7734-4.5098 13.3281-11.3174l7.4287-91.084h7.0022z"/><circle cx="103.033" cy="88.019" r="22.5"/><path d="m42.5104 124.7383h7.2661v-41.0367h11.547l-15.1801-25.3486-15.1801 25.3486h11.5471z"/><path d="m42.51 137.371h7.266v6.606h-7.266z"/><path d="m42.51 127.766h7.266v4.651h-7.266z"/><path d="m11.547 210.114h7.266v4.651h-7.266z"/><path d="m11.547 219.72h7.266v6.606h-7.266z"/><path d="m30.3602 166.0502-15.1801-25.3486-15.1801 25.3486h11.5471v41.0367h7.266v-41.0367z"/><path d="m156.29 137.371h7.266v6.606h-7.266z"/><path d="m156.29 127.766h7.266v4.651h-7.266z"/><path d="m144.743 83.7016h11.5472v41.0367h7.2661v-41.0367h11.5471l-15.1802-25.3486z"/><path d="m187.254 210.114h7.266v4.651h-7.266z"/><path d="m187.254 219.72h7.266v6.606h-7.266z"/><path d="m206.0665 166.0502-15.1799-25.3486-15.1802 25.3486h11.5471v41.0367h7.266v-41.0367z"/><path d="m114.0214 22.451h.3604c.6656-7.9924 3.0529-10.3798 11.0454-11.0448v-.3612c-7.9926-.6647-10.3798-3.0524-11.0455-11.045h-.3604c-.6655 7.9926-3.0527 10.3803-11.0452 11.045v.3613c7.9925.665 10.3797 3.0523 11.0453 11.0447z"/><path d="m129.3873 62.7059h.3096c.5717-6.8651 2.6222-8.9157 9.4874-9.487v-.3103c-6.8652-.5709-8.9158-2.6218-9.4874-9.4871h-.3096c-.5715 6.8652-2.6222 8.9162-9.4873 9.4871v.3103c6.8651.5713 8.9158 2.6219 9.4873 9.487z"/><path d="m179.912 114.6309v.4149c9.1792.7639 11.9209 3.5056 12.6853 12.6848h.4138c.7644-9.1792 3.5061-11.9209 12.6853-12.6848v-.4149c-9.1792-.7632-11.9209-3.5056-12.6853-12.6847h-.4138c-.7644 9.1791-3.5061 11.9214-12.6853 12.6847z"/><path d="m11.9964 121.7538c.6656-7.9925 3.0529-10.3798 11.0455-11.0449v-.3613c-7.9926-.6646-10.3798-3.0524-11.0455-11.0449h-.3603c-.6655 7.9926-3.0529 10.3803-11.0453 11.0449v.3613c7.9925.665 10.3798 3.0524 11.0453 11.0449z"/><path d="m68.7059 48.3756h-.3093c-.5718 6.8653-2.6223 8.9162-9.4875 9.4871v.3103c6.8652.5712 8.9158 2.6218 9.4875 9.487h.3093c.5718-6.8652 2.6223-8.9158 9.4875-9.487v-.3103c-6.8652-.5709-8.9157-2.6218-9.4875-9.4871z"/><path d="m97.2313 25.6526h-.4138c-.7644 9.1791-3.5061 11.9214-12.6853 12.6847v.4149c9.1792.7639 11.9209 3.5056 12.6853 12.6848h.4138c.7644-9.1792 3.5061-11.9209 12.6853-12.6848v-.4149c-9.1792-.7633-11.9209-3.5056-12.6853-12.6847z"/><path d="m46.9266 241.2941h.3604c.6656-7.9924 3.0529-10.3798 11.0454-11.0449v-.3612c-7.9926-.6647-10.3798-3.0524-11.0454-11.045h-.3604c-.6655 7.9926-3.0527 10.3803-11.0452 11.045v.3612c7.9925.665 10.3797 3.0524 11.0452 11.0449z"/><path d="m36.3141 46.9155c-7.9926-.6647-10.3798-3.0524-11.0454-11.045h-.3603c-.6655 7.9926-3.0529 10.3803-11.0453 11.045v.3612c7.9925.665 10.3798 3.0524 11.0453 11.0449h.3603c.6656-7.9925 3.0529-10.3798 11.0454-11.0449z"/><path d="m181.1586 39.8339h-.3604c-.6655 7.9926-3.0527 10.3803-11.0453 11.0449v.3613c7.9926.665 10.3798 3.0524 11.0453 11.0449h.3604c.6655-7.9925 3.0529-10.3798 11.0454-11.0449v-.3613c-7.9926-.6646-10.3799-3.0524-11.0454-11.0449z"/><path d="m192.3879 247.4669h-.3602c-.6655 7.9926-3.053 10.3803-11.0454 11.045v.3613c7.9924.665 10.3799 3.0524 11.0454 11.0448h.3602c.6656-7.9924 3.0529-10.3798 11.0454-11.0448v-.3613c-7.9925-.6647-10.3797-3.0524-11.0454-11.045z"/><path d="m165.782 266.3593v-.3613c-7.9926-.6646-10.3798-3.0524-11.0454-11.0449h-.3602c-.6655 7.9926-3.053 10.3803-11.0454 11.0449v.3613c7.9924.665 10.3799 3.0524 11.0454 11.0449h.3602c.6656-7.9925 3.0528-10.3798 11.0454-11.0449z"/><path d="m11.6974 267.7161h.3603c.6656-7.9925 3.0529-10.3798 11.0454-11.0449v-.3612c-7.9926-.6647-10.3798-3.0524-11.0454-11.0449h-.3603c-.6655 7.9926-3.0529 10.3802-11.0453 11.0449v.3613c7.9924.665 10.3798 3.0523 11.0453 11.0448z"/><path d="m44.2845 284.4501h.3602c.6656-7.9925 3.0529-10.3798 11.0455-11.0449v-.3613c-7.9927-.6647-10.3799-3.0524-11.0455-11.0449h-.3602c-.6655 7.9926-3.0529 10.3802-11.0453 11.0449v.3613c7.9925.6651 10.3798 3.0524 11.0453 11.0449z"/><path d="m176.3507 235.0933v-.3613c-7.9924-.6646-10.3798-3.0524-11.0454-11.0449h-.3602c-.6655 7.9926-3.0529 10.3803-11.0453 11.0449v.3613c7.9924.665 10.3798 3.0524 11.0453 11.0449h.3602c.6656-7.9926 3.053-10.3799 11.0454-11.0449z"/></g></svg>