<svg height="1000" viewBox="0 0 1000 1000" width="1000" xmlns="http://www.w3.org/2000/svg"><g><g><g><path d="m254.288 829.645 190.91-121.328-114.554-138.247z" fill="#00aeef"/><g fill="#ec1f81"><path d="m944.391 92.945-695.559 483.713-193.223-241.418z"/><path d="m944.391 92.945-624.344 572.692 193.223 241.418z"/></g><path d="m248.832 576.658 5.456 252.987 65.759-164.008 624.344-572.692z" fill="#aed300"/></g><g opacity=".7"><path d="m139.458 363.6a8.5 8.5 0 0 1 -2.374-16.662l545.032-158.83a8.5 8.5 0 1 1 4.756 16.32l-545.032 158.834a8.484 8.484 0 0 1 -2.382.338z" fill="#fff"/></g><g opacity=".7"><path d="m367.964 676.79a8.5 8.5 0 0 1 -5.8-14.719l173.936-162.064a8.5 8.5 0 1 1 11.589 12.437l-173.932 162.065a8.473 8.473 0 0 1 -5.793 2.281z" fill="#fff"/></g></g><g fill="#203063"><g><path d="m139.462 660.748a7 7 0 0 1 -7-7v-50.839a7 7 0 0 1 14 0v50.839a7 7 0 0 1 -7 7z"/><path d="m164.881 635.329h-50.839a7 7 0 0 1 0-14h50.839a7 7 0 0 1 0 14z"/></g><g><path d="m886.84 515.987a7 7 0 0 1 -7-7v-50.839a7 7 0 0 1 14 0v50.839a7 7 0 0 1 -7 7z"/><path d="m912.259 490.567h-50.838a7 7 0 0 1 0-14h50.838a7 7 0 0 1 0 14z"/></g><g><path d="m676.419 805.479a7 7 0 0 1 -7-7v-50.839a7 7 0 0 1 14 0v50.839a7 7 0 0 1 -7 7z"/><path d="m701.839 780.06h-50.839a7 7 0 0 1 0-14h50.839a7 7 0 0 1 0 14z"/></g><path d="m819.822 829.205a7 7 0 0 1 -3.387-13.13c27.319-15.076 40.334-36.427 37.635-61.742a75.417 75.417 0 0 0 -7.392-24.761c-10.032 13.438-24.821 20.988-41.071 20.256-18.434-.8-25.082-10.208-27.4-15.741-5.381-12.827 1.076-28.42 9.862-38.184 9.638-10.706 21.984-15.117 33.024-11.8 7.515 2.259 15.766 8.283 23.244 16.7a62.215 62.215 0 0 0 -19.218-58.335c-38.093-35.389-72-18.417-72.338-18.241a7 7 0 0 1 -6.453-12.424c1.738-.9 43.077-21.625 88.321 20.409 26.652 24.76 29.289 59.07 20.072 82.745 6.793 11.217 11.836 24.406 13.273 37.89a68.2 68.2 0 0 1 -7.578 40.185c-7.457 13.91-19.978 25.786-37.216 35.3a6.961 6.961 0 0 1 -3.378.873zm-6.133-132.181c-4.948 0-10.419 2.915-15.215 8.244-6.679 7.422-9.842 17.483-7.359 23.4 2.3 5.482 9.483 6.924 15.1 7.171 13.438.574 25.242-6.65 32.465-19.6-7.139-9.848-15.365-16.85-21.622-18.73a11.651 11.651 0 0 0 -3.369-.485z"/><path d="m232.846 229.1a7 7 0 0 1 -4.247-12.568c.3-.225 19.477-15.077 27.451-33.351-15.4-4.162-28.54-15.655-32.314-28.83-4.072-14.22 3.137-23.449 11.558-26 12.129-3.684 28.945 4.621 36.212 27.265a41.211 41.211 0 0 1 1.9 14.969c13.05-1.712 25.419-10.786 35.584-26.34a7 7 0 0 1 11.719 7.658c-17.185 26.3-36.619 32.526-50.31 32.949-8.528 23.7-31.96 41.788-33.323 42.825a6.969 6.969 0 0 1 -4.23 1.423zm8.287-87.6a6.088 6.088 0 0 0 -1.773.248c-3.988 1.21-2.665 7.006-2.165 8.753 2.087 7.287 10.4 15.909 22.242 19.115a27.531 27.531 0 0 0 -1.261-9.721c-4.224-13.17-12.007-18.404-17.043-18.404z"/><g><path d="m254.289 836.644a7 7 0 0 1 -6.5-9.605l65.761-164.008a7 7 0 0 1 11.962-1.769l64.838 81.011a7 7 0 0 1 -1.71 10.282l-130.6 83a6.992 6.992 0 0 1 -3.751 1.089zm67.79-157.266-53.208 132.7 105.671-67.156z"/><path d="m248.837 583.658a6.989 6.989 0 0 1 -5.47-2.626l-193.222-241.418a7 7 0 0 1 3.624-11.128l888.781-242.295a7 7 0 0 1 5.838 12.5l-695.559 483.714a6.972 6.972 0 0 1 -3.992 1.253zm-181.101-244.469 182.472 227.986 656.857-456.8z"/><path d="m513.269 914.054a7 7 0 0 1 -5.464-2.626l-193.223-241.417a7 7 0 0 1 .733-9.533l624.344-572.691a7 7 0 0 1 10.918 8.434l-431.121 814.11a7 7 0 0 1 -5.529 3.692c-.22.022-.44.031-.658.031zm-183.669-247.682 182.473 227.985 407.133-768.812z"/><path d="m254.292 836.645a7.007 7.007 0 0 1 -7-6.849l-5.456-252.987a7 7 0 0 1 3-5.9l695.558-483.709a7 7 0 0 1 8.728 10.9l-623.17 571.619-65.167 162.531a7 7 0 0 1 -6.493 4.395zm1.619-256.384 4.636 214.962 53-132.192a7 7 0 0 1 1.765-2.553l547.823-502.5z"/></g><path d="m454.924 146.809a7 7 0 0 1 -1.609-13.809l196.071-46.47a7 7 0 1 1 3.228 13.623l-196.07 46.466a7.057 7.057 0 0 1 -1.62.19z"/></g></g></svg>