<svg id="Layer_1" enable-background="new 0 0 500 500" viewBox="0 0 500 500" xmlns="http://www.w3.org/2000/svg"><g clip-rule="evenodd" fill-rule="evenodd"><path d="m287.923 282.049-2.35-1.157.94-1.682c15.584-27.879-4.553-62.339-36.503-62.339-31.938 0-52.104 34.452-36.503 62.339l.942 1.684c-3.273 1.536-3.639 1.919-6.914 4.4-12.187 9.231-32.054 26.941-41.033 39.448l-1.206 1.68-20.196-19.299 1.824-17.795c.131-1.276-.24-2.576-1.041-3.579-1.162-1.456-10.769-13.842-11.798-14.723-7.18-6.147-23.344 5.444-29.729 9.703-8.18 5.457-9.916 16.725-4.085 24.013l48.456 76.816c4.561 7.232 12.697 10.143 20.956 10.291 8.242.148 15.54-2.85 20.967-9.092l9.62-11.064v88.01l-2.184-.481c-53.371-11.766-100.661-46.831-132.738-90.402l-2.594-3.523 4.321.683c9.807 1.55 19.64 1.25 29.303-1.052 3.051-.727 4.701-4.117 3.33-6.952-11.064-22.882-23.335-47.047-29.516-71.708-7.287-29.075-5.279-56.002 3.053-84.642l.795-2.732 2.125 1.892c17.497 15.577 34.23 17.355 55.846 22.939 3.549.917 6.867-2.279 6.083-5.884-6.75-31.032-12.827-66.283 3.887-95.306l1.746-3.031 1.447 3.184c9.902 21.78 24.595 41.912 46.544 52.673 3.256 1.597 7.027-.645 7.123-4.282.842-31.794 15.463-71.245 30.478-98.831 6.351-11.669 12.094-20.622 20.69-30.743 8.595 10.12 14.338 19.074 20.69 30.743 15.016 27.587 29.636 67.038 30.478 98.832.096 3.638 3.866 5.879 7.122 4.282 21.949-10.761 36.641-30.894 46.544-52.673l1.447-3.184 1.746 3.031c16.715 29.023 10.637 64.274 3.885 95.306-.785 3.605 2.536 6.801 6.085 5.884 21.611-5.581 38.353-7.364 55.843-22.939l2.126-1.893.795 2.733c8.333 28.642 10.342 55.571 3.055 84.648-6.179 24.656-18.451 48.826-29.516 71.703-1.371 2.835.28 6.225 3.33 6.952 9.666 2.303 19.495 2.602 29.303 1.052l4.321-.683-2.594 3.523c-32.077 43.571-79.368 78.636-132.74 90.402l-2.184.481v-88.01l9.62 11.064c5.426 6.24 12.728 9.24 20.966 9.092 8.259-.148 16.395-3.059 20.956-10.291l48.456-76.816c5.842-7.313 4.087-18.566-4.082-24.013-5.937-3.959-19.85-13.749-27.402-11.033-2.229.801-2.992 2.022-4.451 3.81l-9.674 12.244c-.801 1.004-1.172 2.303-1.041 3.579l1.822 17.795-20.197 19.297c-5.801-8.082-11.413-13.95-18.613-20.825-5.862-5.604-20.746-18.869-28.182-23.549z" fill="#9bc9ff"/><path d="m301.545 457.466v-80.968l6.467 7.438c5.673 6.53 13.403 9.88 22.355 9.71 10.05-.17 18.021-4.145 22.444-11.129l48.34-76.653c3.13-3.918 4.394-8.914 3.56-14.138-.841-5.224-3.622-9.596-8.049-12.492-13.921-9.34-24.886-15.319-31.868-9.596-1.196.981-10.317 12.8-12.061 14.99-1.091 1.363-1.604 3.123-1.424 4.883l1.732 16.92-18.066 17.261c-11.493-16.012-38.912-38.667-46.166-43.21-.247-.113-.486-.284-.727-.397 16.29-29.141-4.824-65.013-38.071-65.013-33.27 0-54.356 35.905-38.071 65.013-.242.114-.484.284-.727.397-7.257 4.543-34.674 27.198-46.169 43.21l-18.065-17.261 1.735-16.92c.177-1.76-.333-3.52-1.424-4.883-1.748-2.195-10.861-14.003-12.061-14.99-6.968-5.73-17.961.262-31.867 9.596-4.427 2.896-7.211 7.268-8.049 12.492-.834 5.224.428 10.22 3.557 14.138l48.34 76.653c4.425 6.984 12.396 10.959 22.443 11.129 8.959.17 16.684-3.18 22.355-9.71l6.467-7.438v80.968c-49.968-11.015-97.777-43.664-131.678-89.712 10.058 1.59 20.097 1.249 30-1.079 4.155-1.021 6.42-5.595 4.531-9.482l-2.306-4.77c-24.364-50.364-42.319-87.498-24.05-150.296 17.955 15.985 34.937 17.743 56.591 23.337 4.728 1.222 9.376-2.977 8.289-8.006-7.06-32.421-12.367-66.148 3.688-94.027 11.771 25.892 27.678 43.891 47.389 53.543 4.439 2.188 9.578-.919 9.711-5.848 1.102-41.676 26.802-100.273 49.372-126.846 22.57 26.573 48.27 85.17 49.372 126.846.132 4.93 5.271 8.036 9.71 5.848 19.711-9.652 35.616-27.652 47.389-53.543 16.056 27.879 10.748 61.606 3.687 94.027-1.086 5.027 3.559 9.228 8.291 8.006 21.65-5.592 38.64-7.354 56.589-23.337 18.27 62.798.317 99.932-24.047 150.296l-2.307 4.77c-1.89 3.886.377 8.461 4.531 9.482 9.903 2.328 19.937 2.669 30 1.079-33.903 46.048-81.712 78.696-131.682 89.712zm-51.535-168.58c16.646 0 30.189-13.514 30.189-30.15 0-16.693-13.543-30.207-30.189-30.207s-30.189 13.514-30.189 30.207c.001 16.637 13.543 30.15 30.189 30.15zm204.297 63.31c-1.856-2.271-4.944-3.066-7.656-1.987-10.861 4.259-21.376 5.848-31.916 4.77 25.287-52.351 44.524-94.652 19.789-167.614-1.659-4.907-7.893-6.205-11.372-2.385-15.532 17.091-27.152 19.873-46.401 24.529-.401.057-.805.17-1.209.284 6.922-35.09 9.917-73.587-15.322-104.645-3.303-4.066-9.731-2.887-11.538 1.874-9.271 24.699-21.301 42.017-36.605 52.635-2.182-19.816-8.663-43.153-18.693-67-11.421-27.084-25.498-50.08-38.631-63.082-2.628-2.612-6.858-2.612-9.484 0-13.132 13.003-27.212 35.998-38.63 63.082-10.032 23.848-16.513 47.184-18.695 67-15.302-10.618-27.331-27.936-36.603-52.635-1.804-4.754-8.23-5.945-11.538-1.874-25.24 31.059-22.246 69.555-15.321 104.645-.406-.114-.807-.227-1.211-.284-19.247-4.656-30.867-7.438-46.402-24.529-3.478-3.822-9.712-2.52-11.371 2.385-24.735 72.962-5.498 115.263 19.789 167.614-10.538 1.079-21.053-.511-31.915-4.77-6.085-2.402-11.599 4.458-8.151 9.88 35.667 56.081 94.038 100.943 158.844 112.197 4.121.716 7.889-2.478 7.889-6.643v-105.44c0-3.69-3.016-6.7-6.738-6.7-2.487 0-4.606.019-6.562 2.271l-16.808 19.305c-3.016 3.464-7.022 5.167-11.944 5.11-3.793-.114-8.83-.965-11.294-4.883l-48.558-76.936c-.729-1.198-1.856-1.887-1.428-4.542.383-2.379 1.671-3.008 3.446-4.202 8.917-5.962 13.217-7.892 15.236-8.517l7.723 9.766-1.79 17.488c-.213 2.101.546 4.145 2.051 5.564l26.771 25.551c3.727 3.527 10.082 1.677 11.238-3.464.419-1.874 4.919-8.858 18.944-22.258 11.856-11.309 21.812-19.248 28.115-23.053 16.727 15.598 42.582 15.6 59.31 0 6.26 3.766 16.303 11.784 28.117 23.053 14.024 13.4 18.524 20.384 18.943 22.258 1.147 5.225 7.504 6.987 11.238 3.464l26.769-25.551c1.508-1.419 2.267-3.464 2.054-5.564l-1.79-17.488 7.723-9.766c3.465 1.072 7.225 3.339 16.495 9.369 2.593 1.687 2.912 5.039 1.311 7.097-.202.284-.386.511-.552.795l-48.56 76.936c-2.462 3.918-7.501 4.77-11.291 4.883-4.909.057-8.93-1.647-11.944-5.11l-16.807-19.305c-1.957-2.252-4.077-2.271-6.563-2.271-3.721 0-6.74 3.009-6.74 6.7v105.44c0 4.068 3.586 7.334 7.892 6.643 30.774-5.337 61.868-18.794 89.92-38.951 27.074-19.476 50.906-44.799 68.921-73.246 1.557-2.442 1.357-5.622-.495-7.893z" fill="#1e81ce"/></g></svg>