<svg id="Layer_1" enable-background="new 0 0 128 128" viewBox="0 0 128 128" xmlns="http://www.w3.org/2000/svg"><g><path d="m110.7 54.95c0 5.38 5.25 11.52 3.68 16.37-1.64 5.02-9.55 6.9-12.59 11.08-.27.39-.52.79-.74 1.23-2.26 4.41-2.07 11.37-5.92 14.17-4.18 3.04-11.66-.05-16.69 1.58-1.12.36-2.19 1.01-3.25 1.78-3.59 2.62-7.04 6.74-11.18 6.74s-7.6-4.13-11.18-6.74c-1.06-.77-2.14-1.42-3.25-1.78-5.02-1.64-12.51 1.46-16.69-1.58-3.85-2.79-3.66-9.76-5.92-14.17-.22-.44-.47-.84-.74-1.23-3.04-4.18-10.96-6.06-12.59-11.08-1.57-4.85 3.68-10.99 3.68-16.37s-5.25-11.52-3.68-16.37c1.64-5.02 9.55-6.9 12.59-11.08 3.08-4.23 2.43-12.32 6.66-15.4 4.18-3.04 11.66.05 16.69-1.58 4.83-1.57 9.04-8.52 14.42-8.52s9.59 6.95 14.44 8.53c5.02 1.64 12.51-1.46 16.69 1.58 4.23 3.07 3.59 11.16 6.66 15.4 3.04 4.18 10.96 6.06 12.59 11.08 1.57 4.84-3.68 10.98-3.68 16.36z" fill="#ffe36e"/><circle cx="64" cy="54.95" fill="#ffaa39" r="36.33"/><path d="m66.83 34.89 4.11 8.33c.46.93 1.35 1.58 2.37 1.73l9.2 1.34c2.59.38 3.62 3.55 1.75 5.38l-6.65 6.49c-.74.72-1.08 1.77-.91 2.79l1.57 9.16c.44 2.58-2.26 4.54-4.58 3.32l-8.22-4.32c-.92-.48-2.02-.48-2.93 0l-8.22 4.32c-2.31 1.22-5.02-.75-4.58-3.32l1.57-9.16c.18-1.02-.16-2.07-.91-2.79l-6.65-6.49c-1.87-1.82-.84-5 1.75-5.38l9.2-1.34c1.03-.15 1.91-.79 2.37-1.73l4.11-8.33c1.15-2.35 4.49-2.35 5.65 0z" fill="#fffeeb"/><g fill="#3980e5"><path d="m52.82 101.16-9.49 24.34-12.5-9.87-15.89-1.19 12.01-30.81c2.26 4.41 2.07 11.37 5.92 14.17 4.18 3.04 11.66-.05 16.69 1.58 1.12.36 2.19 1.01 3.26 1.78z"/><path d="m113.05 114.44-15.89 1.19-12.5 9.87-9.49-24.34c1.06-.77 2.14-1.42 3.25-1.78 5.02-1.64 12.51 1.46 16.69-1.58 3.85-2.79 3.66-9.76 5.92-14.17z"/></g></g></svg>