<svg id="Layer_1" viewBox="0 0 512 512" xmlns="http://www.w3.org/2000/svg" data-name="Layer 1"><path d="m256 94.274c-62.989 0-114.234 51.246-114.234 114.235s51.245 114.235 114.234 114.235 114.235-51.246 114.235-114.235-51.246-114.235-114.235-114.235z" fill="#ffc338"/><path d="m396.81 334.45 16.443-9.474c14.11-8.164 22.203-22.202 22.203-38.515v-21.685c0-5.648 1.264-10.342 4.11-15.242l10.821-18.782c8.17-14.119 8.171-30.33.007-44.473l-10.841-18.815c-2.834-4.878-4.098-9.563-4.098-15.192v-21.713c0-16.328-8.097-30.358-22.207-38.489l-18.801-10.861c-4.892-2.818-8.33-6.257-11.155-11.159l-10.846-18.748c-8.128-14.139-22.159-22.249-38.497-22.249h-21.685c-5.641 0-10.342-1.259-15.235-4.078l-18.794-10.857c-14.133-8.176-30.345-8.175-44.476 0l-18.785 10.853c-4.901 2.823-9.603 4.082-15.243 4.082h-21.685c-16.337 0-30.368 8.109-38.487 22.232l-10.86 18.775c-2.82 4.892-6.259 8.331-11.156 11.153l-18.788 10.853c-14.135 8.145-22.241 22.175-22.241 38.493v21.713c0 5.662-1.255 10.347-4.083 15.214l-10.824 18.789c-8.167 14.148-8.166 30.36-.003 44.467l10.84 18.816c2.815 4.844 4.07 9.537 4.07 15.219v21.685c0 16.302 8.103 30.341 22.242 38.522l16.432 9.467-58.741 101.778c-1.319 2.286-1.241 5.119.203 7.328 1.442 2.209 3.992 3.417 6.63 3.128l65.553-7.258 26.505 60.4c1.061 2.417 3.391 4.031 6.025 4.177.129.007.258.01.386.01 2.491 0 4.807-1.327 6.062-3.501l58.739-101.766 7.206 4.152c7.069 4.09 14.658 6.135 22.246 6.135 7.583 0 15.167-2.043 22.227-6.128l7.218-4.159 58.739 101.767c1.255 2.174 3.57 3.501 6.062 3.501.128 0 .257-.003.386-.01 2.635-.145 4.965-1.76 6.025-4.177l26.506-60.4 65.553 7.258c2.627.289 5.187-.919 6.63-3.128 1.444-2.209 1.522-5.042.203-7.328l-58.741-101.778zm-270.563 8.848c.876 1.131 1.693 2.343 2.457 3.667l7.637 13.222-39.661 68.714-21.193 2.346zm6.16 81.647-18.459 2.044 30.999-53.706c8.296 9.44 19.954 14.711 33.102 14.711h2.56l-33.555 58.108-7.465-17.012c-1.229-2.802-4.135-4.481-7.181-4.145zm30.194 56.59-8.568-19.526 42.741-74.015h2.959c5.461 0 10.013 1.176 14.68 3.777zm108.629-90.755c-9.677 5.6-20.781 5.601-30.472-.006l-18.772-10.816c-7.005-4.069-14.076-5.964-22.253-5.964h-21.685c-11.176 0-20.784-5.552-26.366-15.238l-10.853-18.787c-4.034-7-9.203-12.172-16.29-16.29l-18.782-10.821c-9.687-5.605-15.242-15.226-15.242-26.397v-21.685c0-8.179-1.896-15.25-5.952-22.231l-10.834-18.805c-5.594-9.668-5.593-20.773.007-30.473l10.814-18.771c4.069-7.003 5.965-14.066 5.965-22.225v-21.713c0-11.176 5.552-20.785 15.237-26.366l18.788-10.853c7.05-4.062 12.226-9.239 16.284-16.279l10.864-18.781c5.562-9.676 15.17-15.226 26.359-15.226h21.685c8.119 0 15.184-1.891 22.239-5.956l18.797-10.859c9.68-5.602 20.783-5.6 30.461 0l18.805 10.863c7.048 4.061 14.112 5.952 22.231 5.952h21.685c11.189 0 20.797 5.549 26.369 15.243l10.85 18.753c4.062 7.052 9.239 12.228 16.283 16.286l18.8 10.861c9.662 5.567 15.204 15.176 15.204 26.362v21.713c0 8.125 1.904 15.187 5.979 22.203l10.831 18.799c5.597 9.695 5.598 20.8-.003 30.479l-10.815 18.771c-4.088 7.037-5.992 14.108-5.992 22.253v21.685c0 11.182-5.546 20.803-15.203 26.391l-18.815 10.84c-7.065 4.105-12.234 9.277-16.265 16.271l-10.86 18.8c-5.577 9.68-15.186 15.231-26.362 15.231h-21.685c-8.178 0-15.249 1.895-22.23 5.952l-18.806 10.835zm78.168 90.755-51.812-89.764c4.655-2.598 9.21-3.777 14.68-3.777h2.96l42.74 74.015zm30.196-56.59c-3.058-.337-5.951 1.342-7.181 4.145l-7.466 17.012-33.555-58.108h2.559c13.15 0 24.809-5.272 33.103-14.71l30.999 53.705zm35.727 3.956-39.662-68.714 7.642-13.228c.762-1.322 1.578-2.532 2.452-3.661l50.76 87.95-21.192-2.346zm-31.086-220.392c0-70.709-57.526-128.235-128.235-128.235s-128.234 57.526-128.234 128.235 57.525 128.235 128.234 128.235 128.235-57.526 128.235-128.235zm-128.235 114.235c-62.989 0-114.234-51.246-114.234-114.235s51.245-114.235 114.234-114.235 114.235 51.246 114.235 114.235-51.246 114.235-114.235 114.235zm73.418-140.436-45.643-7.889-21.582-40.972c-1.211-2.299-3.596-3.738-6.193-3.738s-4.982 1.439-6.193 3.738l-21.581 40.972-45.644 7.889c-2.56.442-4.663 2.265-5.466 4.736-.802 2.47-.17 5.182 1.642 7.043l32.292 33.188-6.622 45.825c-.372 2.571.711 5.136 2.812 6.664 2.101 1.527 4.876 1.766 7.206.618l41.554-20.447 41.554 20.447c.979.482 2.037.719 3.09.719 1.453 0 2.898-.452 4.116-1.338 2.102-1.527 3.185-4.093 2.812-6.663l-6.621-45.825 32.291-33.188c1.812-1.862 2.443-4.573 1.642-7.043-.803-2.47-2.906-4.293-5.466-4.736zm-40.905 37.675c-1.517 1.558-2.223 3.731-1.911 5.883l5.215 36.09-32.727-16.103c-.975-.479-2.033-.719-3.091-.719s-2.116.24-3.091.719l-32.726 16.103 5.215-36.09c.312-2.151-.395-4.325-1.911-5.883l-25.436-26.141 35.954-6.214c2.141-.37 3.988-1.713 5.001-3.635l16.993-32.263 16.994 32.263c1.013 1.922 2.86 3.265 5.001 3.635l35.953 6.214-25.435 26.141z"/><path d="m383.301 346.958-7.642 13.228 39.661 68.714 21.192 2.346-50.76-87.95c-.875 1.129-1.69 2.339-2.452 3.661z" fill="#fd4755"/><path d="m333.951 387.994h-2.559l33.555 58.108 7.466-17.012c1.229-2.802 4.123-4.481 7.181-4.145l18.459 2.044-30.999-53.705c-8.294 9.438-19.952 14.71-33.103 14.71z" fill="#fe646f"/><path d="m312.267 387.994c-5.47 0-10.024 1.178-14.68 3.777l51.812 89.764 8.568-19.526-42.74-74.015z" fill="#fd4755"/><path d="m225.398 225.866-5.215 36.09 32.726-16.103c.975-.479 2.033-.719 3.091-.719s2.116.24 3.091.719l32.727 16.103-5.215-36.09c-.312-2.151.395-4.325 1.911-5.883l25.435-26.141-35.953-6.214c-2.141-.37-3.988-1.713-5.001-3.635l-16.994-32.263-16.993 32.263c-1.013 1.922-2.86 3.265-5.001 3.635l-35.954 6.214 25.436 26.141c1.517 1.558 2.223 3.731 1.911 5.883z" fill="#ffe177"/><path d="m84.563 242.545c4.057 6.981 5.952 14.052 5.952 22.231v21.685c0 11.171 5.556 20.793 15.242 26.397l18.782 10.821c7.087 4.118 12.256 9.29 16.29 16.29l10.853 18.787c5.582 9.686 15.19 15.238 26.366 15.238h21.685c8.177 0 15.248 1.895 22.253 5.964l18.772 10.816c9.69 5.608 20.795 5.606 30.472.006l18.806-10.835c6.981-4.056 14.053-5.952 22.23-5.952h21.685c11.177 0 20.785-5.552 26.362-15.231l10.86-18.8c4.03-6.994 9.199-12.166 16.265-16.271l18.815-10.84c9.657-5.588 15.203-15.209 15.203-26.391v-21.685c0-8.145 1.904-15.216 5.992-22.253l10.815-18.771c5.601-9.679 5.6-20.784.003-30.479l-10.831-18.799c-4.075-7.015-5.979-14.077-5.979-22.203v-21.713c0-11.187-5.542-20.795-15.204-26.362l-18.8-10.861c-7.044-4.058-12.221-9.235-16.283-16.286l-10.85-18.753c-5.572-9.693-15.18-15.243-26.369-15.243h-21.685c-8.119 0-15.184-1.891-22.231-5.952l-18.805-10.863c-9.678-5.6-20.781-5.601-30.461 0l-18.797 10.859c-7.056 4.064-14.12 5.956-22.239 5.956h-21.685c-11.189 0-20.797 5.55-26.359 15.226l-10.864 18.781c-4.059 7.041-9.234 12.217-16.284 16.279l-18.788 10.853c-9.686 5.582-15.237 15.19-15.237 26.366v21.713c0 8.159-1.896 15.222-5.965 22.225l-10.814 18.771c-5.6 9.7-5.601 20.805-.007 30.473l10.834 18.805zm171.437-162.271c70.709 0 128.235 57.526 128.235 128.235s-57.526 128.235-128.235 128.235-128.234-57.526-128.234-128.235 57.525-128.235 128.234-128.235z" fill="#ffe177"/><path d="m196.774 387.994-42.741 74.015 8.568 19.526 51.812-89.764c-4.667-2.602-9.219-3.777-14.68-3.777z" fill="#fd4755"/><path d="m128.704 346.965c-.764-1.325-1.581-2.536-2.457-3.667l-50.76 87.949 21.192-2.346 39.661-68.714-7.637-13.222z" fill="#fd4755"/><path d="m178.049 387.994c-13.148 0-24.807-5.271-33.103-14.711l-30.998 53.706 18.459-2.044c3.046-.336 5.951 1.342 7.181 4.145l7.465 17.012 33.556-58.108z" fill="#fe646f"/></svg>