<svg id="Layer_1" enable-background="new 0 0 128 128" viewBox="0 0 128 128" xmlns="http://www.w3.org/2000/svg"><g><g><path d="m110.7 54.95c0 5.38 5.25 11.52 3.68 16.37-1.64 5.02-9.55 6.9-12.59 11.08-.27.39-.52.79-.74 1.23-2.26 4.41-2.07 11.37-5.92 14.17-4.18 3.04-11.66-.05-16.69 1.58-1.12.36-2.19 1.01-3.25 1.78-3.59 2.62-7.04 6.74-11.18 6.74s-7.6-4.13-11.18-6.74c-1.06-.77-2.14-1.42-3.25-1.78-5.02-1.64-12.51 1.46-16.69-1.58-3.85-2.79-3.66-9.76-5.92-14.17-.22-.44-.47-.84-.74-1.23-3.04-4.18-10.96-6.06-12.59-11.08-1.57-4.85 3.68-10.99 3.68-16.37s-5.25-11.52-3.68-16.37c1.64-5.02 9.55-6.9 12.59-11.08 3.08-4.23 2.43-12.32 6.66-15.4 4.18-3.04 11.66.05 16.69-1.58 4.83-1.57 9.04-8.52 14.42-8.52s9.59 6.95 14.44 8.53c5.02 1.64 12.51-1.46 16.69 1.58 4.23 3.07 3.59 11.16 6.66 15.4 3.04 4.18 10.96 6.06 12.59 11.08 1.57 4.84-3.68 10.98-3.68 16.36z" fill="#ffe36e"/><circle cx="64" cy="54.95" fill="#ffaa39" r="36.33"/><path d="m66.83 34.89 4.11 8.33c.46.93 1.35 1.58 2.37 1.73l9.2 1.34c2.59.38 3.62 3.55 1.75 5.38l-6.65 6.49c-.74.72-1.08 1.77-.91 2.79l1.57 9.16c.44 2.58-2.26 4.54-4.58 3.32l-8.22-4.32c-.92-.48-2.02-.48-2.93 0l-8.22 4.32c-2.31 1.22-5.02-.75-4.58-3.32l1.57-9.16c.18-1.02-.16-2.07-.91-2.79l-6.65-6.49c-1.87-1.82-.84-5 1.75-5.38l9.2-1.34c1.03-.15 1.91-.79 2.37-1.73l4.11-8.33c1.15-2.35 4.49-2.35 5.65 0z" fill="#fffeeb"/><g fill="#3980e5"><path d="m52.82 101.16-9.49 24.34-12.5-9.87-15.89-1.19 12.01-30.81c2.26 4.41 2.07 11.37 5.92 14.17 4.18 3.04 11.66-.05 16.69 1.58 1.12.36 2.19 1.01 3.26 1.78z"/><path d="m113.05 114.44-15.89 1.19-12.5 9.87-9.49-24.34c1.06-.77 2.14-1.42 3.25-1.78 5.02-1.64 12.51 1.46 16.69-1.58 3.85-2.79 3.66-9.76 5.92-14.17z"/></g></g><g fill="#14236d"><path d="m99.73 28.02c.15.24.3.47.44.65.23.32.49.64.83 1 .39.43.93.65 1.47.65.48 0 .97-.17 1.35-.53.81-.75.87-2.01.12-2.83-.18-.2-.36-.41-.54-.66-.1-.14-.19-.28-.29-.43 0 0-.05-.07-.05-.07-.59-.93-1.81-1.17-2.74-.58-.93.6-1.19 1.87-.59 2.8z"/><path d="m108.6 79.54c3.21-1.99 6.53-4.05 7.69-7.61 1.1-3.41-.33-6.95-1.71-10.37-.92-2.28-1.87-4.64-1.87-6.61 0-1.98.95-4.33 1.87-6.62 1.38-3.42 2.81-6.96 1.71-10.37-.97-2.96-3.5-4.92-6.08-6.59-.93-.6-2.17-.34-2.77.59s-.34 2.17.59 2.77c1.97 1.28 3.87 2.71 4.46 4.48.66 2.02-.45 4.74-1.61 7.63-1.06 2.63-2.17 5.36-2.17 8.11s1.1 5.48 2.16 8.11c1.17 2.89 2.27 5.62 1.61 7.64-.71 2.16-3.27 3.76-5.99 5.44-2.35 1.46-4.77 2.96-6.31 5.07-.36.49-.68 1.01-.91 1.5-.01.01-.01.02-.02.04-.02.05-.04.09-.06.14-.91 1.84-1.45 3.95-1.96 6-.76 3.07-1.49 5.97-3.28 7.28-1.77 1.29-4.74 1.08-7.88.87-2.8-.2-5.69-.4-8.24.44-1.19.38-2.37 1.02-3.83 2.07-.97.71-1.92 1.51-2.83 2.29-2.47 2.09-4.8 4.07-7.16 4.07s-4.69-1.98-7.16-4.07c-.92-.78-1.87-1.58-2.85-2.3-1.45-1.04-2.62-1.68-3.81-2.06-2.56-.83-5.45-.63-8.25-.44-3.14.22-6.11.42-7.89-.87-1.79-1.3-2.52-4.2-3.28-7.28-.52-2.08-1.06-4.22-1.97-6.03-.01-.03-.03-.06-.04-.09v-.01c-.26-.54-.57-1.06-.93-1.54-1.54-2.12-3.97-3.62-6.31-5.08-2.72-1.69-5.29-3.28-5.99-5.44-.66-2.03.45-4.75 1.61-7.64 1.06-2.63 2.16-5.36 2.16-8.11s-1.1-5.48-2.17-8.11c-1.17-2.88-2.27-5.61-1.61-7.63.71-2.17 3.28-3.76 6-5.45 2.35-1.46 4.77-2.96 6.31-5.08 1.56-2.15 2.26-4.95 2.93-7.65.76-3.08 1.48-5.99 3.29-7.31 1.77-1.29 4.74-1.08 7.89-.86 2.79.19 5.69.4 8.24-.43 2.44-.8 4.59-2.62 6.67-4.37 2.47-2.09 4.8-4.06 7.15-4.06s4.68 1.97 7.15 4.06c2.08 1.76 4.23 3.58 6.67 4.38 2.55.83 5.45.63 8.24.43 3.15-.22 6.12-.43 7.89.86 1.46 1.06 2.22 3.13 2.99 6.12.27 1.07 1.36 1.72 2.43 1.44 1.07-.27 1.72-1.36 1.44-2.43-.77-3.02-1.82-6.4-4.51-8.36-2.95-2.15-6.8-1.88-10.52-1.62-2.53.18-4.91.34-6.72-.25-1.7-.55-3.46-2.05-5.33-3.63-2.77-2.34-5.91-5-9.73-5s-6.96 2.66-9.73 5c-1.87 1.58-3.63 3.07-5.33 3.62-1.82.59-4.2.42-6.73.25-3.72-.26-7.57-.53-10.52 1.62-2.99 2.17-3.92 5.94-4.82 9.58-.6 2.44-1.17 4.74-2.28 6.26-1.08 1.48-3.07 2.72-5.18 4.03-3.21 1.99-6.53 4.05-7.69 7.61-1.1 3.4.33 6.94 1.71 10.36.92 2.28 1.87 4.64 1.87 6.62s-.95 4.33-1.87 6.61c-1.38 3.42-2.81 6.96-1.71 10.38 1.16 3.55 4.48 5.61 7.69 7.6 2.11 1.31 4.11 2.55 5.2 4.05.05.07.09.14.14.21l-11.66 29.92c-.23.59-.17 1.26.17 1.79.34.54.91.88 1.54.93l15.28 1.14 12.02 9.49c.36.28.79.43 1.24.43.18 0 .35-.02.52-.07.61-.17 1.11-.61 1.34-1.2l8.5-21.81c.19.16.37.31.56.47 2.78 2.35 5.92 5.01 9.75 5.01s6.97-2.66 9.75-5.01c.19-.16.37-.31.56-.47l8.5 21.81c.23.59.73 1.04 1.34 1.2.17.05.35.07.52.07.44 0 .88-.15 1.24-.43l12.02-9.49 15.28-1.14c.63-.05 1.2-.39 1.54-.93s.4-1.2.17-1.79l-11.67-29.92c.05-.07.09-.15.15-.22 1.08-1.49 3.07-2.73 5.19-4.04zm-66.15 42.71-10.38-8.2c-.31-.25-.69-.4-1.09-.42l-13.19-.99 9.01-23.12c.03.11.06.22.08.33.9 3.63 1.84 7.39 4.81 9.54 2.95 2.15 6.8 1.88 10.52 1.62 2.53-.18 4.91-.34 6.74.25.44.14.91.36 1.42.66zm54.57-8.62c-.4.03-.78.18-1.09.42l-10.38 8.2-7.92-20.31c.51-.3.98-.52 1.43-.66 1.82-.59 4.2-.43 6.73-.25 3.72.26 7.57.53 10.52-1.62 2.97-2.16 3.91-5.92 4.81-9.55.03-.11.06-.22.08-.33l9.01 23.12z"/><path d="m64 16.62c-21.14 0-38.33 17.19-38.33 38.33s17.19 38.33 38.33 38.33 38.33-17.19 38.33-38.33c0-21.13-17.19-38.33-38.33-38.33zm0 72.66c-18.93 0-34.33-15.4-34.33-34.33s15.4-34.33 34.33-34.33 34.33 15.4 34.33 34.33-15.4 34.33-34.33 34.33z"/><path d="m82.8 44.3-9.2-1.34c-.38-.05-.7-.29-.87-.63l-4.11-8.33c-.87-1.77-2.65-2.87-4.62-2.87s-3.75 1.1-4.62 2.87l-4.11 8.33c-.17.34-.49.58-.87.63l-9.2 1.34c-1.96.28-3.55 1.63-4.16 3.51s-.11 3.9 1.3 5.28l6.66 6.49c.27.26.39.65.33 1.02l-1.57 9.16c-.33 1.95.45 3.88 2.05 5.04s3.68 1.31 5.43.39l8.22-4.32c.34-.18.74-.18 1.07 0l8.23 4.32c.76.4 1.58.6 2.4.6 1.06 0 2.12-.33 3.02-.99 1.6-1.16 2.38-3.09 2.05-5.04l-1.57-9.16c-.06-.38.06-.76.33-1.02l6.65-6.49c1.42-1.38 1.91-3.4 1.3-5.28-.59-1.88-2.19-3.22-4.14-3.51zm.06 5.93-6.65 6.49c-1.22 1.18-1.77 2.89-1.48 4.56l1.57 9.16c.11.64-.28 1-.46 1.13s-.64.39-1.21.09l-8.23-4.32c-.75-.39-1.57-.59-2.4-.59-.82 0-1.65.2-2.4.59l-8.23 4.32c-.57.3-1.04.04-1.21-.09s-.57-.49-.46-1.13l1.57-9.16c.29-1.67-.27-3.38-1.48-4.56l-6.65-6.49c-.46-.45-.36-.98-.29-1.18.07-.21.29-.69.93-.79l9.2-1.34c1.68-.24 3.13-1.3 3.88-2.82l4.11-8.33c.29-.58.82-.64 1.03-.64s.75.06 1.03.64l4.11 8.33c.75 1.52 2.2 2.57 3.88 2.82l9.2 1.34c.64.09.86.58.93.79.07.2.18.73-.29 1.18z"/></g></g></svg>