<svg id="Capa_1" enable-background="new 0 0 512 512" height="512" viewBox="0 0 512 512" width="512" xmlns="http://www.w3.org/2000/svg"><g><path d="m245.002 21.996c-135.311 0-245.002 109.691-245.002 245.002 0 27.273 4.462 53.502 12.686 78.004l125.944 142.762c32.172 15.53 68.255 24.236 106.372 24.236 135.311 0 245.002-109.691 245.002-245.002s-109.691-245.002-245.002-245.002z" fill="#1d2e79"/><path d="m332.281 483.619-32.293-32.293 19.5-49.146c1.692-4.265.687-9.128-2.558-12.373l-81.91-82.035-22.324-10.443-10.677 9.943 93.302 93.452-19.5 49.146c-1.692 4.265-.687 9.128 2.558 12.373l37.639 37.639c4.491 4.491 11.773 4.491 16.263 0 4.491-4.491 4.491-11.772 0-16.263z" fill="#27a6ff"/><g><circle cx="324.149" cy="491.75" fill="#58d4fa" r="20.25"/></g><path d="m499.882 316.017-37.639-37.639c-3.245-3.245-8.108-4.25-12.373-2.558l-49.146 19.5-79.885-80.012-10.977 10.574 5.265 16.254 74.68 74.794c3.245 3.245 8.108 4.25 12.373 2.558l49.146-19.5 32.293 32.293c4.491 4.491 11.773 4.491 16.264 0 4.49-4.491 4.49-11.772-.001-16.264z" fill="#ffc242"/><path d="m426.396 410.133-132.838-132.965-13.363 1.13-4.278 13.755 134.215 134.343c4.491 4.491 11.772 4.491 16.263 0 4.492-4.491 4.492-11.772.001-16.263z" fill="#02c0fc"/><g><circle cx="419.499" cy="419.499" fill="#64f9ea" r="20.25"/></g><g><circle cx="491.75" cy="324.149" fill="#fef156" r="20.25"/></g><circle cx="221.029" cy="209.797" fill="#3f57a0" r="101.091"/><circle cx="221.029" cy="209.797" fill="#02c0fc" r="42.453"/><path d="m305.144 155.765c-7.912 7.912-7.445 21.154 1.399 28.437 7.689 6.332 19.037 5.46 26.081-1.583l2.786-2.785c-7.911 7.911-7.445 21.154 1.399 28.437 7.689 6.332 19.037 5.46 26.081-1.583l8.771-8.771c-7.132 7.132-7.132 18.802 0 25.934l1.233 1.233c7.132 7.132 18.802 7.132 25.934 0 14.894-14.894 55.387-55.387 61.119-61.119 25.875-25.875 22.708-47.58 32.218-57.09l5.371-5.355c19.272-19.216 19.288-50.426.035-69.661l-7.304-7.298c-21.938-10.186-54.404-11.929-74.154 4.821l-87.037 73.775z" fill="#ffc7ab"/><path d="m58.488 323.098-15.833-19.199-22.337 4.702c-6.209 11.061-8.875 23.785-7.631 36.401 3.764 11.214 8.327 22.06 13.603 32.484l31.406-15.938 4.452-24.483c-.161-4.767-1.348-9.54-3.66-13.967z" fill="#58d4fa"/><path d="m211.286 216.033c-8.314-8.314-21.792-8.314-30.105-.001l-14.627 14.627c-8.313 8.313-8.314 21.792 0 30.106 8.313 8.313 21.792 8.313 30.105 0l14.627-14.627c8.314-8.314 8.314-21.792 0-30.105z" fill="#e8f8fc"/><path d="m212.355 389.959c-6.773-7.46-17.534-8.821-25.789-4.126 7.647-8.189 7.499-21.017-.485-29-6.761-6.761-16.997-7.9-24.95-3.451l1.756-1.756c7.725-7.726 8.548-21.111 1.225-29.22-6.282-6.957-16.022-8.637-24.003-5.09l-31.747 6.864-44.493 56.203 7.163 59.114c5.214 5.258 10.669 10.276 16.339 15.047h13.946v10.902c11.704 8.489 24.178 15.979 37.315 22.32 6.123-3.53 11.894-7.901 17.131-13.138l25.738-25.738-1.324-9.063 13.748-3.361 17.258-17.258c7.953-7.955 8.733-20.92 1.172-29.249z" fill="#e8f8fc"/><path d="m84.219 253.854c-7.358-5.87-18.082-4.664-23.952 2.694l-23.163 29.034 10.384 16.675 17.461 3.08 21.964-27.53c5.87-7.358 4.665-18.082-2.694-23.953z" fill="#ade9f7"/><circle cx="42.654" cy="307.265" fill="#27a6ff" r="23.779"/><path d="m480.118 14.413c-19.195-19.195-50.308-19.221-69.535-.059-3.256 3.256-7.518 5.315-12.093 5.84l-56.602 8.396c-21.288 3.158-38.554 18.927-43.248 39.463l10.222 10.495.154 19.01c-12.701 12.701-73.156 73.156-81.384 81.384-7.911 7.912-7.445 21.155 1.4 28.438 7.69 6.332 19.037 5.459 26.08-1.584l50.031-50.031 115.535-115.534c18.783-18.783 49.702-24.882 72.062-13.196z" fill="#ffaa7b"/><g><path d="m299.009 66.583 16.121-4.289c10.917-2.904 18.644 10.507 10.656 18.495l-16.769 16.769c-3.001-3.905-12.792-8.696-11.409-23.116.257-2.688.736-5.311 1.401-7.859z" fill="#f7965b"/></g><path d="m156.215 272.466c-8.243-9.003-22.232-9.235-30.771-.696l-86.269 86.269c-5.476 5.476-10.018 11.531-13.628 17.968 9.092 18.268 20.389 35.244 33.557 50.569l18.008-5.194v-34.75l30.217-36.537 32.78-32.78 14.969-14.969c7.926-7.928 8.707-21.612 1.137-29.88z" fill="#ade9f7"/><circle cx="160.093" cy="267.226" fill="#02c0fc" r="20.083"/><path d="m143.147 398.112-56.131 56.131c4.743 4.005 9.637 7.836 14.678 11.477l47.991-47.992 31.487 31.487 13.077-13.077-38.026-38.026c-3.609-3.611-9.465-3.611-13.076 0z" fill="#3feadd"/><path d="m95.85 350.815-28.335 28.335c-2.092 2.092-3.057 5.059-2.596 7.981l4.497 28.478-10.612 10.612c4.015 4.691 8.198 9.232 12.551 13.605l14.469-14.469c2.092-2.092 3.057-5.059 2.595-7.98l-4.496-28.479 25.005-25.005c3.611-3.611 3.611-9.466 0-13.077s-9.467-3.612-13.078-.001z" fill="#02c0fc"/></g></svg>