<svg id="Flat_ok" viewBox="0 0 64 64" xmlns="http://www.w3.org/2000/svg"><g fill="#9194af"><path d="m55 24h-14c-.553 0-1-.448-1-1s.447-1 1-1h14c.553 0 1 .448 1 1s-.447 1-1 1z"/><path d="m51.996 43h-11.992c-.555 0-1.004-.448-1.004-1s.449-1 1.004-1h11.992c.555 0 1.004.448 1.004 1s-.449 1-1.004 1z"/><path d="m54 36h-12c-.553 0-1-.448-1-1s.447-1 1-1h12c.553 0 1 .448 1 1s-.447 1-1 1z"/><path d="m59 30h-18c-.553 0-1-.448-1-1s.447-1 1-1h18c.553 0 1 .448 1 1s-.447 1-1 1z"/><path d="m46.996 49h-9.991c-.555 0-1.004-.448-1.004-1s.449-1 1.004-1h9.991c.555 0 1.004.448 1.004 1s-.449 1-1.004 1z"/><path d="m32 25c-.553 0-1-.448-1-1v-17.846c0-.257.099-.504.276-.69l2.053-2.154c.188-.198.45-.31.724-.31h7.947c.553 0 1 .448 1 1s-.447 1-1 1h-7.519l-1.481 1.554v17.446c0 .552-.447 1-1 1z"/><path d="m36 25c-.553 0-1-.448-1-1v-11.846c0-.257.099-.504.276-.69l2.053-2.154c.188-.198.45-.31.724-.31h9.947c.553 0 1 .448 1 1s-.447 1-1 1h-9.519l-1.481 1.554v11.446c0 .552-.447 1-1 1z"/><path d="m40 31c-.553 0-1-.448-1-1v-11.846c0-.257.099-.504.276-.69l2.053-2.154c.188-.198.45-.31.724-.31h9.947c.553 0 1 .448 1 1s-.447 1-1 1h-9.519l-1.481 1.554v11.446c0 .552-.447 1-1 1z"/></g><circle cx="47.745" cy="48" fill="#c76dbd" r="2"/><circle cx="52" cy="42" fill="#4dafa9" r="2"/><circle cx="55" cy="23" fill="#4dafa9" r="2"/><circle cx="54" cy="35" fill="#fcd554" r="2"/><circle cx="59" cy="29" fill="#c76dbd" r="2"/><path d="m40 50v12h-19v-10h-7c-1.66 0-3-1.34-3-3v-5l-2-7h-3l-3-2 4-10c-.06-.63 0-1.36 0-2 0-11.52 9.5-20.95 21-21v26h16s-4 22-4 22z" fill="#7272aa"/><path d="m16 21h-6c-.553 0-1-.448-1-1s.447-1 1-1h5.586l2.707-2.707c.188-.188.441-.293.707-.293h6c.553 0 1 .448 1 1s-.447 1-1 1h-5.586l-2.707 2.707c-.188.188-.441.293-.707.293z" fill="#b4b8c1"/><path d="m7 24 2 4h8l2-2-2-2z" fill="#b4b8c1"/><circle cx="24" cy="8" fill="#b4b8c1" r="1"/><circle cx="24" cy="13" fill="#b4b8c1" r="1"/><circle cx="36" cy="52" fill="#b4b8c1" r="1"/><circle cx="36" cy="57" fill="#b4b8c1" r="1"/><circle cx="42.999" cy="4" fill="#4dafa9" r="2"/><circle cx="48" cy="10" fill="#c76dbd" r="2"/><circle cx="52" cy="16" fill="#fcd554" r="2"/><path d="m20 49c-.553 0-1-.448-1-1v-13.586l-2.707-2.707c-.391-.391-.391-1.023 0-1.414s1.023-.391 1.414 0l3 3c.188.188.293.442.293.707v14c0 .552-.447 1-1 1z" fill="#b4b8c1"/><circle cx="36" cy="29" fill="#9194af" r="9"/><circle cx="36" cy="29" fill="#c8cbd4" r="4"/><path d="m32 59c-.553 0-1-.448-1-1v-10c0-.265.105-.52.293-.707l2.707-2.707v-3.586c0-.552.447-1 1-1s1 .448 1 1v4c0 .265-.105.52-.293.707l-2.707 2.707v9.586c0 .552-.447 1-1 1z" fill="#b4b8c1"/></svg>