<svg id="Layer_1" viewBox="0 0 512 512" xmlns="http://www.w3.org/2000/svg" data-name="Layer 1"><path d="m497.06 25.605c-1.38-5.213-5.451-9.285-10.665-10.664-27.986-7.402-60.778-8.925-94.834-4.402-37.972 5.042-76.429 17.702-111.214 36.612-31.506 17.127-68.676 44.048-103.329 85.942-24.433 4.072-60.212 15.117-91.633 31.469-48.883 25.439-75.633 57.058-77.358 91.413-.395 7.602 2.555 14.695 8.304 19.972 9.741 8.939 24.812 10.505 34.738 9.131 16.209-2.225 31.442-2.881 45.542-1.978-.889 2.707-1.769 5.432-2.629 8.194-.926 2.969-.905 6.153.058 9.11 9.127 28.017 24.109 52.578 44.539 73.008 20.499 20.469 45.072 35.45 73.036 44.528 1.505.489 3.067.733 4.631.733 1.505 0 3.01-.226 4.463-.679 2.758-.859 5.478-1.738 8.181-2.625.906 14.143.246 29.386-1.995 45.581-1.353 9.934.231 24.983 9.146 34.702 4.971 5.418 11.557 8.356 18.682 8.356.427 0 .856-.01 1.286-.032 34.362-1.741 65.972-28.499 91.411-77.381 16.351-31.419 27.406-67.205 31.487-91.634 41.887-34.649 68.807-71.815 85.935-103.32 18.912-34.786 31.574-73.242 36.619-111.212 4.524-34.058 3.003-66.848-4.399-94.824zm-26.983 16.321c6.441 31.555 5.904 75.737-9.396 123.542-22.159-14.597-43.219-31.821-62.793-51.395-19.487-19.466-36.704-40.515-51.37-62.758 47.806-15.296 91.996-15.831 123.559-9.389zm-423.104 213.433c-3.348.462-6.705-.102-8.729-.776 3.664-29.38 39.488-52.219 60.991-63.409 16.319-8.493 34.068-15.448 50.257-20.506-15.48 23.882-29.897 51.437-42.381 83.227-18.534-1.963-38.673-1.483-60.138 1.464zm169.441 132.526c-21.577-7.705-40.614-19.701-56.632-35.695-15.958-15.958-27.95-34.984-35.691-56.609 3.149-9.793 6.486-19.199 9.983-28.243 14.309 21.458 31.027 41.803 49.913 60.689 18.909 18.887 39.246 35.594 60.665 49.88-9.042 3.496-18.446 6.831-28.237 9.979zm104.392 24.861c-11.193 21.509-34.041 57.349-63.395 61.013-.679-2.024-1.251-5.391-.797-8.729 2.963-21.412 3.449-41.562 1.48-60.16 31.787-12.479 59.34-26.894 83.221-42.372-5.062 16.189-12.02 33.935-20.51 50.249zm-42.686-49.264c-25.983-15.232-50.515-34.289-72.926-56.674-22.367-22.367-41.427-46.902-56.692-72.939 42.379-88.542 100.725-135.653 146.174-160.36 7.736-4.206 15.459-7.96 23.139-11.329 16.556 26.033 36.306 50.579 58.866 73.114 22.653 22.653 47.205 42.405 73.135 58.875-3.37 7.681-7.125 15.406-11.332 23.143-24.71 45.451-71.828 103.798-160.364 146.169zm-92.53 67.774c-8.591 40.39-42.356 63.034-71.271 64.527-.259.013-.518.02-.775.02-4.823 0-9.373-2.324-12.198-6.273-2.116-2.958-3.057-6.539-2.74-10.068-23.699 11.394-45.866 10.833-61.925 7.529-5.874-1.208-10.464-5.8-11.671-11.674-3.303-16.077-3.864-38.26 7.511-61.95-3.537.319-7.13-.626-10.095-2.753-4.149-2.977-6.498-7.861-6.235-12.96 1.493-28.892 24.144-62.65 64.548-71.269 8.108-1.731 16.071 3.439 17.799 11.541 1.729 8.102-3.438 16.071-11.541 17.799-18.179 3.878-29.521 15.013-35.521 26.092 5.364.619 9.851 1.722 12.578 2.505 4.893 1.405 8.739 5.195 10.216 10.066 1.478 4.872.383 10.16-2.907 14.044-13.229 15.623-19.37 32.581-18.33 50.537 17.933 1.033 34.872-5.118 50.509-18.358 3.879-3.285 9.157-4.382 14.023-2.914 4.866 1.467 8.658 5.299 10.075 10.18.794 2.735 1.913 7.235 2.538 12.62 11.081-5.997 22.209-17.327 26.07-35.483 1.723-8.103 9.691-13.273 17.792-11.551 8.104 1.723 13.275 9.689 11.552 17.792zm167.118-250.75-3.063 3.063c5.401 10.351 6.898 22.188 3.809 33.189-2.24 7.976-10.521 12.625-18.497 10.386-7.976-2.24-12.626-10.521-10.386-18.497 1.441-5.13-.505-11.356-4.951-15.938-.056-.054-.117-.1-.172-.155-.057-.057-.104-.119-.159-.177-3.232-3.17-7.427-5.143-11.528-5.394-2.042-.126-5.904.098-8.797 2.99-5.088 5.088-5.892 6.897 4.536 22.881 4.825 7.396 10.294 15.78 12.282 25.455 1.817 8.844 1.271 22.102-11.659 35.031-7.611 7.611-17.948 11.802-29.106 11.802h-.026c-7.424-.004-14.828-1.912-21.539-5.408l-3.074 3.074c-2.929 2.929-6.768 4.394-10.606 4.394s-7.678-1.464-10.606-4.393c-5.858-5.858-5.858-15.355 0-21.213l3.062-3.062c-5.4-10.334-6.901-22.176-3.807-33.192 2.242-7.975 10.524-12.625 18.498-10.384 7.976 2.24 12.625 10.522 10.385 18.498-1.462 5.202.548 11.518 5.121 16.091h.001s0 .002.001.003c3.548 3.556 8.13 5.591 12.582 5.593h.009c2.228 0 5.402-.524 7.894-3.015 5.088-5.087 5.892-6.896-4.536-22.88-4.825-7.396-10.294-15.78-12.282-25.455-1.817-8.845-1.271-22.102 11.659-35.031 8.306-8.306 19.614-12.468 31.838-11.722 6.579.401 12.992 2.227 18.867 5.293l3.04-3.039c5.857-5.858 15.355-5.858 21.213 0s5.858 15.355 0 21.214z"/><g fill-rule="evenodd"><path d="m317.815 62.18c-7.68 3.369-15.403 7.124-23.139 11.329-45.449 24.707-103.795 71.817-146.174 160.36 15.265 26.038 34.325 50.572 56.692 72.939 22.411 22.385 46.943 41.441 72.926 56.674 88.536-42.371 135.653-100.719 160.364-146.169 4.207-7.738 7.962-15.462 11.332-23.143-25.93-16.471-50.482-36.223-73.135-58.875-22.56-22.535-42.31-47.081-58.866-73.114zm35.64 154.578c-2.24 7.976-10.521 12.625-18.497 10.386-7.976-2.24-12.626-10.521-10.386-18.497 1.441-5.13-.505-11.356-4.951-15.938-.056-.054-.117-.1-.172-.155-.057-.057-.104-.119-.159-.177-3.232-3.17-7.427-5.143-11.528-5.394-2.042-.126-5.904.098-8.797 2.99-5.088 5.088-5.892 6.897 4.536 22.881 4.825 7.396 10.294 15.78 12.282 25.455 1.817 8.844 1.271 22.102-11.659 35.031-7.611 7.611-17.948 11.802-29.106 11.802h-.026c-7.424-.004-14.828-1.912-21.539-5.408l-3.074 3.074c-2.929 2.929-6.768 4.394-10.606 4.394s-7.678-1.464-10.606-4.393c-5.858-5.858-5.858-15.355 0-21.213l3.062-3.062c-5.4-10.334-6.901-22.176-3.807-33.192 2.242-7.975 10.524-12.625 18.498-10.384 7.976 2.24 12.625 10.522 10.385 18.498-1.462 5.202.548 11.518 5.121 16.091h.001s0 .002.001.003c3.548 3.556 8.13 5.591 12.582 5.593h.009c2.228 0 5.402-.524 7.894-3.015 5.088-5.087 5.892-6.896-4.536-22.88-4.825-7.396-10.294-15.78-12.282-25.455-1.817-8.845-1.271-22.102 11.659-35.031 8.306-8.306 19.614-12.468 31.838-11.722 6.579.401 12.992 2.227 18.867 5.293l3.04-3.039c5.857-5.858 15.355-5.858 21.213 0s5.858 15.355 0 21.214l-3.063 3.063c5.401 10.351 6.898 22.188 3.809 33.189z" fill="#cbe3fa"/><path d="m99.235 191.174c-21.503 11.19-57.327 34.029-60.991 63.409 2.024.674 5.382 1.238 8.729.776 21.465-2.947 41.604-3.427 60.138-1.464 12.483-31.79 26.901-59.345 42.381-83.227-16.189 5.058-33.938 12.013-50.257 20.506z" fill="#ff6d7a"/><path d="m256.615 465.029c-.454 3.338.118 6.705.797 8.729 29.354-3.664 52.201-39.504 63.395-61.013 8.49-16.314 15.448-34.06 20.51-50.249-23.881 15.478-51.434 29.893-83.221 42.372 1.969 18.599 1.482 38.749-1.48 60.16z" fill="#ff6d7a"/><path d="m134.075 267.337c-3.497 9.045-6.834 18.45-9.983 28.243 7.741 21.625 19.733 40.651 35.691 56.609 16.018 15.994 35.055 27.99 56.632 35.695 9.791-3.147 19.194-6.483 28.237-9.979-21.418-14.285-41.755-30.993-60.665-49.88-18.886-18.886-35.604-39.231-49.913-60.689z" fill="#585966"/><path d="m346.518 51.316c14.666 22.243 31.882 43.292 51.37 62.758 19.574 19.574 40.634 36.798 62.793 51.395 15.301-47.805 15.838-91.988 9.396-123.542-31.563-6.442-75.753-5.907-123.559 9.389z" fill="#ff6d7a"/><path d="m108.803 334.148-10.266 3.778c1.729 8.102-3.438 16.071-11.541 17.799-18.179 3.878-29.521 15.013-35.521 26.092 5.364.619 9.851 1.722 12.578 2.505 4.893 1.405 8.739 5.195 10.216 10.066 1.478 4.872.383 10.16-2.907 14.044-13.229 15.623-19.37 32.581-18.33 50.537 17.933 1.033 34.872-5.118 50.509-18.358 3.879-3.285 9.157-4.382 14.023-2.914 4.866 1.467 8.658 5.299 10.075 10.18.794 2.735 1.913 7.235 2.538 12.62 11.081-5.997 22.209-17.327 26.07-35.483 1.723-8.103 9.691-13.273 17.792-11.551s0 0 0 0l4.804-9.733c-14.735-8.157-28.21-18.281-40.265-30.319-11.76-11.76-21.703-24.895-29.775-39.263z" fill="#fc6"/></g></svg>