<svg id="Icons" height="512" viewBox="0 0 60 60" width="512" xmlns="http://www.w3.org/2000/svg"><path d="m1.458 58.085c-.169 0-.334-.086-.428-.24-.141-.233-.07-.535.159-.682l3.946-2.512-2.287 1.32c-.233.137-.53.062-.674-.167-.143-.229-.079-.528.144-.68l9.557-6.481-7.761 4.48c-.235.135-.532.061-.675-.169s-.077-.53.147-.68l5.642-3.756-4.36 2.517c-.236.136-.533.059-.676-.17-.142-.23-.075-.532.151-.681l2.459-1.614-1.377.795c-.228.136-.522.064-.669-.16-.146-.223-.091-.52.124-.676l7.543-5.513-6.013 3.471c-.233.136-.528.062-.672-.165s-.083-.525.137-.679l3.241-2.25-1.879 1.084c-.226.134-.518.063-.665-.153-.146-.218-.1-.513.108-.674l5.148-4.007-2.665 1.538c-.228.133-.521.063-.666-.155-.146-.22-.097-.515.113-.675l2.729-2.081c-.07-.042-.131-.102-.174-.178-.139-.239-.057-.545.183-.683l4.646-2.683c.226-.134.52-.063.666.155.146.22.097.515-.113.675l-1.112.848 2.172-1.253c.226-.134.518-.063.665.153.146.218.1.513-.108.674l-5.148 4.007 5.979-3.451c.232-.136.528-.062.672.165s.083.525-.137.679l-3.245 2.253 3.684-2.126c.229-.133.523-.063.669.16s.091.52-.124.676l-7.54 5.511 8.461-4.885c.235-.136.533-.06.676.17.142.23.075.532-.151.681l-2.47 1.621 2.802-1.617c.234-.137.531-.062.675.169.143.229.077.53-.147.68l-5.632 3.75 6.153-3.553c.234-.136.531-.061.674.167.143.229.079.528-.144.68l-9.558 6.482 10.372-5.988c.237-.136.537-.059.678.173.141.233.07.535-.159.682l-3.947 2.513 3.173-1.832c.234-.135.531-.062.674.167s.079.528-.144.68l-6.541 4.431 4.72-2.725c.225-.134.518-.064.664.152.147.218.102.512-.105.674l-3.624 2.845c.16.012.311.1.396.249.139.239.057.545-.183.683l-5.32 3.071c-.227.132-.518.064-.664-.152-.147-.218-.101-.512.105-.674l3.143-2.467-10.694 6.174c-.232.137-.53.062-.674-.167-.143-.229-.079-.528.144-.68l6.542-4.432-11.16 6.443c-.079.046-.165.067-.25.067z" fill="#d7342c"/><path d="m10.662 51.241c-.161 0-.318-.078-.415-.221-.146-.219-.1-.513.108-.674l4.762-3.702-5.655 3.265c-.226.133-.519.065-.666-.154-.146-.219-.098-.514.111-.675l5.825-4.479-4.249 2.453c-.229.133-.525.062-.671-.162-.145-.225-.087-.523.131-.678l1.371-.976c-.22.112-.494.05-.639-.153-.149-.211-.115-.5.08-.669l3.484-3.009c-.188.03-.401-.06-.507-.244-.139-.239-.057-.545.183-.683l4.261-2.46c.22-.131.507-.068.657.143.149.211.115.5-.08.669l-3.346 2.889 4.528-2.614c.229-.136.525-.063.671.162.145.225.087.523-.131.678l-1.366.973 1.678-.969c.227-.133.519-.064.666.154.146.219.098.514-.111.675l-5.825 4.479 5.402-3.118c.226-.133.517-.064.665.153.146.219.1.513-.108.674l-4.765 3.704 2.057-1.187c.239-.14.545-.057.683.183.139.239.057.545-.183.683l-8.356 4.824c-.078.046-.165.067-.25.067z" fill="#f9c82b"/><path d="m25.403 43.391c-.16 0-.318-.078-.414-.22-.147-.218-.102-.512.105-.674l.349-.274-.881.509c-.223.132-.509.067-.658-.144s-.113-.501.083-.669l1.796-1.536-2.269 1.31c-.226.132-.517.065-.663-.151-.147-.217-.103-.51.103-.673l.818-.65-1.098.634c-.219.13-.504.069-.654-.139-.15-.207-.12-.494.069-.665l2.244-2.021-2.844 1.642c-.226.132-.517.065-.664-.152-.146-.217-.102-.51.104-.673l.725-.572-.99.571c-.218.127-.499.069-.651-.135-.151-.204-.126-.489.06-.663l2.494-2.337-3.193 1.844c-.227.133-.518.064-.664-.153-.147-.218-.101-.512.106-.673l.521-.408-.76.438c-.218.13-.504.069-.654-.139-.15-.207-.12-.495.07-.666l2.221-1.996-2.686 1.55c-.227.132-.517.065-.663-.151-.147-.217-.103-.51.103-.673l.691-.549-.368.212c-.218.126-.498.07-.65-.133-.151-.203-.128-.487.056-.662l2.002-1.908-.305.176c-.214.125-.489.072-.644-.124-.153-.196-.14-.476.033-.655l1.658-1.725c-.016-.019-.029-.039-.042-.061-.138-.239-.056-.545.184-.684l1.348-.777c.214-.123.49-.07.644.125.153.196.14.476-.033.655l-.591.614.874-.504c.216-.128.497-.07.65.133.151.203.128.487-.056.662l-2.002 1.908 2.608-1.506c.225-.134.516-.066.663.151s.103.51-.103.673l-.693.551.958-.553c.22-.128.505-.069.654.139.15.207.12.495-.07.666l-2.219 1.994 2.813-1.624c.226-.134.518-.064.664.153.147.218.101.512-.106.673l-.521.408.762-.439c.217-.128.499-.07.651.135.151.204.126.489-.06.663l-2.496 2.339 3.199-1.847c.225-.134.516-.066.664.152.146.217.102.51-.104.673l-.721.569.988-.57c.22-.128.505-.069.654.139.15.207.12.494-.069.665l-2.243 2.021 2.844-1.642c.225-.133.517-.066.663.151.147.217.103.51-.103.673l-.821.652 1.104-.637c.22-.131.509-.068.658.144.149.211.113.501-.083.669l-1.797 1.536 2.267-1.308c.225-.133.518-.065.664.152.147.218.102.512-.105.674l-.343.269.308-.177c.239-.14.546-.057.683.183.139.239.057.545-.183.683l-6.394 3.692c-.078.046-.165.067-.25.067z" fill="#bcc7ce"/><g fill="#2473fe"><path d="m3.678 32.82c-.167 0-.329-.084-.424-.235-.143-.229-.079-.529.145-.68l6.847-4.608-7.075 4.085c-.235.138-.536.06-.677-.173-.142-.232-.071-.534.157-.681l.57-.365c-.199.048-.411-.041-.525-.223-.144-.228-.081-.528.141-.68l5.581-3.812-1.352.78c-.224.131-.512.066-.66-.147s-.109-.505.091-.67l5.271-4.367c-.075-.042-.14-.104-.186-.185-.139-.239-.057-.545.183-.683l3.505-2.023c.225-.131.512-.067.66.147.148.213.109.505-.091.67l-4.137 3.427 7.666-4.426c.234-.136.53-.061.673.166.144.228.081.528-.141.68l-5.585 3.813 6.982-4.03c.237-.137.536-.059.677.173.142.232.071.534-.157.681l-.104.066.611-.353c.233-.137.53-.062.674.168.143.229.079.529-.145.68l-6.85 4.61 7.514-4.338c.22-.127.506-.067.655.14.15.208.119.496-.073.666l-3.458 3.079 2.601-1.501c.238-.14.545-.057.683.183.139.239.057.545-.183.683l-6.836 3.947c-.218.129-.505.068-.655-.14s-.119-.496.073-.666l3.46-3.081-15.857 9.154c-.079.046-.165.067-.25.067z"/><path d="m29.471 57.595c-.157 0-.312-.074-.408-.211-.149-.211-.113-.501.083-.669l1.572-1.344-2.656 1.533c-.229.134-.525.062-.67-.161s-.089-.521.127-.677l3.309-2.392-3.421 1.975c-.228.135-.522.064-.669-.16-.146-.223-.091-.52.124-.676l6.611-4.83-4.747 2.74c-.228.135-.523.064-.669-.159-.145-.223-.091-.52.123-.677l5.953-4.373-3.257 1.88c-.23.134-.525.062-.669-.16-.146-.223-.09-.521.125-.677l3.393-2.468-1.636.943c-.227.133-.518.064-.664-.153-.147-.217-.101-.511.105-.673l3.847-3.011-2.381 1.374c-.223.13-.509.068-.657-.143-.149-.209-.115-.498.079-.667l3.76-3.27-2.77 1.599c-.223.132-.508.067-.657-.143-.149-.211-.115-.5.08-.668l2.43-2.099c-.151.013-.3-.058-.402-.181-.155-.187-.153-.459.005-.644l2.27-2.66c-.062-.216.027-.453.23-.57l.58-.335c.209-.123.478-.075.635.113.155.187.153.459-.005.644l-1.064 1.248 1.586-.915c.224-.131.509-.066.657.143.149.211.115.5-.08.668l-2.192 1.894 2.692-1.554c.223-.13.508-.069.657.143.149.209.115.498-.079.667l-3.76 3.27 4.038-2.331c.227-.133.519-.064.664.153.147.217.101.511-.105.673l-3.847 3.011 3.693-2.132c.228-.136.525-.062.669.16.146.223.09.521-.125.677l-3.391 2.467 2.912-1.681c.229-.133.524-.063.669.159.145.223.091.52-.123.677l-5.954 4.374 4.944-2.854c.229-.134.523-.063.669.16s.091.52-.124.676l-6.608 4.828 3.812-2.201c.228-.135.524-.063.67.161.145.223.089.521-.127.677l-4.1 2.963c.137.017.266.089.351.208.149.211.113.501-.083.669l-3.633 3.104s.002.003.002.004c.139.239.057.545-.183.683l-1.961 1.133c-.078.046-.164.067-.25.067z"/><path d="m55.688 19.306c-.126 0-.25-.047-.346-.139-.16-.153-.2-.394-.099-.591l.422-.814-.764.44c-.213.125-.485.073-.64-.12-.155-.192-.146-.469.021-.65l.678-.739-.995.574c-.218.127-.5.07-.65-.134-.152-.203-.128-.487.057-.662l1.277-1.21-1.705.984c-.222.132-.508.066-.657-.143-.149-.211-.115-.5.08-.669l1.793-1.547-2.267 1.308c-.226.132-.517.065-.664-.152-.146-.217-.102-.511.104-.673l1.648-1.3-2.038 1.177c-.228.136-.522.063-.668-.158s-.093-.518.12-.676l1.236-.919-1.548.894c-.226.132-.514.065-.662-.148-.147-.215-.105-.507.097-.672l4.297-3.5-5.104 2.946c-.228.135-.522.063-.668-.158s-.093-.518.12-.676l3.458-2.567-4.002 2.311c-.227.134-.518.063-.664-.152-.147-.218-.101-.512.105-.674l5.489-4.305-6.378 3.683c-.226.132-.516.064-.663-.15-.147-.216-.104-.509.101-.672l4.828-3.875-5.683 3.28c-.229.133-.52.063-.667-.156-.146-.22-.096-.516.115-.675l2.299-1.744-2.74 1.582c-.214.127-.492.073-.646-.127-.153-.197-.137-.478.039-.656l2.287-2.328-3.039 1.754c-.188.107-.421.085-.582-.06-.161-.143-.213-.373-.127-.571l.245-.569-.467.27c-.24.139-.546.056-.683-.183-.139-.239-.057-.545.183-.683l1.774-1.024c.188-.107.421-.085.582.06.161.143.213.373.127.571l-.246.569 4.912-2.835c.215-.126.493-.072.646.127.153.197.137.478-.039.656l-2.286 2.327 6.464-3.731c.227-.134.519-.064.667.156.146.22.096.516-.115.675l-2.301 1.745 4.441-2.563c.226-.134.515-.065.663.15.147.216.104.509-.101.672l-4.826 3.873 6.831-3.943c.226-.133.518-.063.664.152.147.218.101.512-.105.674l-5.491 4.306 5.415-3.126c.229-.133.522-.062.668.158.146.222.093.518-.12.676l-3.458 2.566 2.979-1.719c.225-.132.514-.065.662.148.147.215.105.507-.097.672l-4.295 3.499 3.648-2.106c.229-.134.522-.062.668.158.146.222.093.518-.12.676l-1.238.92.544-.313c.224-.133.516-.066.664.152.146.217.102.511-.104.673l-1.651 1.302.838-.483c.224-.131.509-.066.657.143.149.211.114.5-.08.669l-1.792 1.547.802-.463c.218-.128.5-.07.65.134.152.203.128.487-.057.662l-1.277 1.21.139-.08c.213-.125.485-.073.64.12.155.192.146.469-.021.65l-.926 1.01c.099.016.192.061.269.133.16.153.2.394.099.591l-.867 1.677c.122.235.038.528-.194.663l-.339.195c-.078.045-.164.066-.25.066z"/></g><path d="m31.302 41.953c-.165 0-.327-.082-.422-.231-.144-.226-.084-.525.136-.679l8.354-5.841-9.331 5.388c-.235.137-.535.061-.676-.171-.142-.23-.074-.532.152-.681l6.695-4.373-7.228 4.172c-.234.137-.535.061-.677-.172-.142-.231-.072-.533.155-.681l8.104-5.236-8.669 5.005c-.235.137-.534.061-.676-.171-.142-.23-.074-.532.152-.681l12.416-8.104-13.219 7.631c-.234.137-.532.06-.676-.17-.142-.23-.075-.532.151-.681l13.958-9.167-14.868 8.584c-.235.137-.535.061-.677-.172s-.072-.534.156-.682l11.278-7.257-11.962 6.905c-.235.138-.536.06-.678-.174-.141-.233-.069-.536.161-.682l7.226-4.556-7.684 4.436c-.235.138-.536.06-.678-.174-.141-.232-.07-.535.159-.681l9.16-5.826-9.712 5.607c-.235.138-.537.059-.679-.175-.141-.233-.067-.537.163-.682l5.666-3.552-6.059 3.498c-.238.138-.538.059-.679-.176-.141-.233-.067-.537.164-.681l4.008-2.499-4.341 2.506c-.234.137-.534.061-.677-.171-.142-.231-.073-.533.154-.681l12.589-8.176-13.295 7.676c-.237.137-.54.058-.679-.176-.141-.234-.066-.538.165-.682l1.62-1.004-1.377.795c-.235.138-.536.06-.678-.174-.141-.232-.07-.535.16-.681l8.199-5.205-6.868 3.965c-.236.138-.535.06-.678-.173-.141-.232-.07-.535.158-.682l7.606-4.856-5.738 3.312c-.235.138-.537.06-.678-.174-.141-.232-.07-.535.159-.681l4.38-2.783-2.42 1.396c-.232.136-.53.062-.674-.167-.143-.228-.08-.527.143-.679l10.192-6.937-6.721 3.88c-.229.137-.528.062-.673-.165-.143-.227-.082-.526.138-.679l7.182-4.974-2.852 1.646c-.232.136-.527.062-.671-.163-.145-.225-.086-.523.132-.678l5.718-4.05c-.074-.042-.14-.104-.186-.185-.139-.239-.057-.545.183-.683l6.677-3.855c.229-.135.527-.062.671.163.145.225.086.523-.132.678l-3.551 2.515 4.038-2.331c.233-.135.529-.06.673.165.143.227.082.526-.138.679l-7.174 4.969 7.896-4.559c.234-.135.531-.062.674.167.143.228.08.527-.143.679l-10.197 6.939 11.065-6.388c.236-.137.537-.06.678.174.141.232.07.535-.159.681l-4.38 2.783 4.756-2.745c.236-.137.536-.059.678.173.141.232.07.535-.158.682l-7.609 4.858 8.118-4.687c.237-.137.537-.06.678.174.141.232.07.535-.16.681l-8.194 5.202 8.708-5.027c.236-.139.539-.06.679.176.141.234.066.538-.165.682l-1.622 1.005 1.885-1.088c.235-.137.534-.061.677.171.142.231.073.533-.154.681l-12.587 8.174 13.372-7.72c.237-.139.537-.06.679.176.141.233.067.537-.164.681l-3.992 2.489 4.327-2.498c.237-.137.538-.059.679.175s.067.537-.163.682l-5.678 3.559 6.073-3.506c.236-.137.537-.06.678.174.141.232.07.535-.159.681l-9.169 5.831 9.724-5.613c.237-.137.537-.059.678.174s.069.536-.161.682l-7.229 4.558 7.688-4.438c.235-.137.535-.059.677.172.142.232.072.534-.156.682l-11.271 7.252 11.956-6.902c.235-.137.533-.059.676.17.142.23.075.532-.151.681l-13.964 9.171 13.996-8.08c.235-.137.534-.06.676.171s.074.532-.152.681l-12.411 8.101 10.131-5.849c.235-.138.535-.06.677.172s.072.533-.155.681l-8.108 5.239 5.655-3.265c.236-.137.534-.061.676.171.142.23.074.532-.152.681l-6.684 4.365 3.603-2.079c.23-.135.528-.062.672.164s.084.525-.136.679l-8.359 5.845 2.472-1.427c.238-.14.545-.057.683.183.139.239.057.545-.183.683l-12.467 7.197c-.079.046-.165.067-.25.067z" fill="#dce4ea"/><path d="m15.539 44.359c-.163 0-.323-.081-.419-.228-.146-.223-.091-.52.124-.677l4.923-3.59-3.199 1.847c-.232.137-.53.062-.674-.167-.143-.228-.08-.527.143-.679l2.204-1.499c-.212.074-.457-.004-.584-.2-.146-.224-.09-.521.125-.677l5.443-3.952-1.159.669c-.228.135-.521.063-.668-.158-.146-.223-.093-.52.121-.677l4.479-3.307c-.025-.027-.049-.059-.067-.092-.139-.239-.057-.545.183-.683l4.301-2.482c.231-.134.522-.062.668.159s.093.519-.121.676l-1.701 1.256 1.757-1.014c.229-.135.524-.062.669.16.146.224.09.521-.125.677l-5.443 3.952 3.26-1.882c.234-.135.53-.062.674.167.143.228.08.527-.143.679l-2.378 1.618c.198-.044.409.037.525.216.146.223.091.52-.124.677l-4.92 3.588.33-.19c.239-.14.546-.057.683.183.139.239.057.545-.183.683l-8.452 4.88c-.078.046-.165.067-.25.067z" fill="#2473fe"/><path d="m39.426 25.783c-.152 0-.303-.07-.4-.2-.151-.202-.128-.486.055-.661l2.942-2.814-4.732 2.732c-.22.131-.506.069-.657-.142-.149-.21-.115-.499.078-.668l3.917-3.415-4.794 2.768c-.226.132-.516.064-.663-.15-.147-.216-.104-.509.1-.672l3.238-2.601-3.367 1.943c-.229.134-.524.062-.67-.161-.145-.224-.089-.521.127-.677l.265-.19c-.214.07-.456-.002-.585-.197-.146-.222-.093-.519.12-.676l.44-.326c-.178.036-.371-.027-.491-.179-.154-.193-.145-.471.024-.652l1.886-2.027c-.222.079-.479-.008-.602-.221-.139-.239-.057-.545.183-.683l2.785-1.608c.212-.124.485-.074.641.121.154.193.145.471-.024.652l-1.868 2.009 4.39-2.534c.229-.134.522-.062.668.158.146.222.093.519-.12.676l-.262.193.783-.451c.229-.136.523-.063.67.161.145.224.089.521-.127.677l-.199.144.479-.276c.225-.133.515-.065.663.15.147.216.104.509-.1.672l-3.236 2.599 3.607-2.082c.221-.128.507-.068.657.142.149.21.115.499-.078.668l-3.916 3.414 3.869-2.233c.217-.128.498-.071.65.133.151.202.128.486-.055.661l-2.944 2.815 1.92-1.107c.237-.139.545-.058.683.183.139.239.057.545-.183.683l-5.517 3.185c-.078.046-.164.067-.25.067z" fill="#2473fe"/><path d="m52.673.635c-12.273.847-22.733 8.902-29.94 18.405-5.208-2.911-10.951.199-14.291 4.481-2.499 2.379-11.24 9.921-2.492 9.481 3.816-2.025 7.242-5.509 11.819-5.825-.352 1.021.011 1.817.583 2.51-.713 1.62-2.268 3.11-2.021 4.984-10.529 3.286-11.772 15.869-15.967 24.256.296.583 1.018.585 1.56.417 8.2-4.88 20.577-5.36 23.771-16.036 1.59-.074 2.985-1.158 4.371-1.869.655.543 1.492.739 2.306.599-.12 4.951-4.16 8.625-5.998 12.794 1.272 6.271 7.309.056 9.394-2.48 4.449-3.798 9.251-9.404 5.288-15.277 6.394-4.744 12.147-10.939 15.543-18.201 2.408-5.875 7.792-20.9-3.925-18.237zm-43.294 29.412c-1.462.639-2.685 2.485-4.313 2.479-1.676-.408-1.788-2.558-.802-3.628 4.891-4.323 10.361-14.052 17.819-8.961-1.477 2.076-3.13 4.295-4.112 6.704-3.08.341-5.993 1.787-8.592 3.406zm9.659.926c.066-.119.131-.238.197-.356 1.045 1.033 2.075 2.079 3.115 3.117-.969.93-1.904 1.897-2.791 2.898-2.233-1.462-2.084-3.72-.521-5.659zm11.997-1.863c-3.024 6.09-8.757 11.751-14.778 14.853 2.529-6.356 8.796-12.022 14.78-15.239.033.134.018.249-.003.386zm-15.243 15.902c1.7.081 3.316-1.31 4.61-2.23-1.902 4.504-6.492 6.721-10.949 7.974 1.317-4.53 3.329-9.386 7.898-11.46-.575.746-4.353 5.482-1.559 5.716zm1.595 6.781c-4.918 2.784-10.84 3.446-15.576 6.606 4.595-7.758 4.877-19.665 14.836-22.924.531.829 1.345 1.476 2.021 2.194-.105.125-.213.249-.317.375-6.144 1.762-9.017 7.83-10.568 13.531 5.441.155 12.861-4.374 14.558-10.261.654.616 1.217 1.36 2.039 1.744-1.109 3.714-3.678 6.757-6.994 8.734zm9.801-9.468c-.402.257-.833.46-1.311.274-.997-.424-1.763-1.412-2.569-2.186 1.004-.904 1.987-1.827 2.921-2.798 1.159 1.136 2.187 2.198 3.338 3.393-.793.439-1.586.878-2.379 1.317zm11.897 5.304c-2.144 1.39-10.929 14.009-11.204 6.613 2.302-3.908 5.829-7.833 5.962-12.671 2.15-1.098 4.064-2.285 6.02-3.642 1.765 3.049 1.547 6.969-.778 9.699zm7.34-16.488c-3.869 3.875-8.27 7.321-13.194 9.756-2.646.812-4.135-2.957-6.06-4.262 9.011-9.118 5.292-12.466-3.841-3.824-1.238-1.192-2.524-2.371-3.636-3.664-1.626-7.371 14.38-21.356 20.951-24.371 4.804 4.804 9.607 9.608 14.411 14.412-2.127 4.438-5.156 8.473-8.631 11.954zm11.759-23.199c-.28 3.459-1.177 6.778-2.526 9.912-4.565-4.565-9.13-9.13-13.694-13.695 4.52-1.98 9.656-3.2 14.622-2.6 2.617.675 1.454 4.36 1.598 6.383z" fill="#262626"/><path d="m39.414 14.078c-5.409.413-7.589 8.005-2.801 10.876 9.483 5.2 13.917-11.42 2.801-10.876zm3.82 9.474c-5.873 5.21-11.727-6.414-4.262-8.333 4.583-1.038 7.625 5.189 4.262 8.333z" fill="#262626"/></svg>