<svg id="Layer_1" enable-background="new 0 0 64 64" viewBox="0 0 64 64" xmlns="http://www.w3.org/2000/svg"><g><g><g><circle cx="48.72" cy="11.71" fill="#ffb95c" r="5.78"/><path d="m48.73 18.19c-.74 0-1.48-.13-2.19-.38-3.36-1.21-5.11-4.92-3.91-8.29.59-1.63 1.77-2.93 3.33-3.67s3.32-.82 4.95-.24c1.63.59 2.93 1.77 3.67 3.33s.82 3.32.24 4.95c-.59 1.63-1.77 2.93-3.33 3.67-.88.43-1.82.63-2.76.63zm0-11.55c-2.08 0-4.04 1.29-4.78 3.36-.94 2.63.43 5.54 3.06 6.49 1.28.46 2.65.39 3.88-.19s2.15-1.6 2.61-2.87c.94-2.63-.43-5.54-3.06-6.49-.57-.2-1.14-.3-1.71-.3z" fill="#682f2a"/></g><g><path d="m47.38 12.4c-1.24-.44-1.88-1.81-1.44-3.04s1.81-1.88 3.04-1.44c1.24.44 1.88 1.81 1.44 3.04s-1.8 1.88-3.04 1.44z" fill="#f9a846"/></g><g><path d="m57.98 17.07c-1.56 0-3.47-.35-5.18-.76-1.6-.37-3.34-.89-5.17-1.55-1.84-.66-3.51-1.37-4.98-2.1-3.12-1.53-6.71-3.75-6.03-5.64.74-2.05 5.7-1.15 8.59-.44.38.09.61.47.51.85-.09.38-.48.61-.85.51-4.82-1.19-6.76-.75-6.93-.45-.06.31 1.09 1.83 5.33 3.9 1.42.71 3.05 1.4 4.83 2.04s3.47 1.14 5.02 1.5c4.6 1.1 6.45.66 6.6.38.06-.33-1.16-1.91-5.64-4.06-.35-.17-.5-.59-.33-.94s.59-.5.94-.33c2.69 1.29 7.09 3.75 6.35 5.8-.33.96-1.53 1.29-3.06 1.29z" fill="#682f2a"/></g></g><g><g><g><path d="m16.86 19.11c-1.38 1.03-3.08 1.63-4.93 1.63-4.12 0-7.54-2.98-8.23-6.9.22-.52.65-.95 1.17-1.16.67-.28 1.48-.19 2.08.24.46.33.77.82 1.15 1.24s.92.78 1.48.69c.79-.13 1.24-1.03 1.99-1.25.73-.21 1.47.28 2.03.79 1.44 1.3 2.57 2.93 3.26 4.72z" fill="#abb734"/><path d="m11.93 21.44c-4.41 0-8.16-3.15-8.92-7.48-.02-.13-.01-.27.04-.39.3-.7.86-1.26 1.56-1.54.89-.38 1.95-.25 2.75.32.38.27.67.63.93.94.11.13.22.27.33.39.31.33.63.51.86.47.21-.03.44-.24.7-.47.32-.29.69-.61 1.2-.76 1.24-.36 2.34.62 2.7.94 1.52 1.39 2.71 3.12 3.44 5 .11.29.02.63-.24.82-1.55 1.15-3.4 1.76-5.35 1.76zm-7.49-7.5c.73 3.55 3.85 6.1 7.5 6.1 1.46 0 2.85-.41 4.06-1.18-.66-1.48-1.64-2.84-2.86-3.95-.57-.51-1.04-.72-1.37-.63-.2.06-.42.25-.66.46-.36.31-.8.7-1.42.8-.72.11-1.46-.22-2.11-.91-.14-.15-.27-.31-.39-.46-.22-.26-.42-.52-.65-.68-.41-.29-.95-.36-1.4-.17-.29.12-.54.35-.7.62z" fill="#682f2a"/></g><g><path d="m20.28 12.38c0 2.77-1.34 5.22-3.42 6.73-.69-1.79-1.82-3.43-3.25-4.73-.57-.5-1.3-1-2.03-.79-.75.22-1.21 1.12-1.99 1.25-.56.08-1.09-.27-1.48-.69s-.69-.91-1.15-1.24c-.6-.43-1.41-.52-2.08-.24-.52.21-.95.64-1.17 1.16-.08-.47-.13-.96-.13-1.46 0-2.8 1.38-5.28 3.51-6.81-.09.57-.12 1.14-.01 1.69.17.82.66 1.59 1.43 1.94.86.39 1.87.15 2.75-.19.87-.35 1.75-.79 2.69-.8.99 0 1.92.46 2.89.61.82.14 1.8-.09 2.25-.73.76 1.26 1.19 2.74 1.19 4.3z" fill="#6cd8d5"/><path d="m16.86 19.82c-.07 0-.13-.01-.2-.03-.21-.06-.38-.22-.46-.42-.65-1.68-1.71-3.22-3.07-4.46-.57-.51-1.04-.72-1.37-.63-.2.06-.42.25-.66.46-.36.31-.8.7-1.42.8-.72.11-1.46-.21-2.11-.91-.14-.15-.27-.31-.39-.46-.22-.26-.42-.52-.65-.68-.41-.29-.95-.36-1.4-.17-.36.14-.65.44-.8.79-.12.29-.42.46-.73.43s-.56-.27-.61-.58c-.09-.51-.14-1.04-.14-1.58.02-2.91 1.45-5.67 3.83-7.38.23-.17.54-.17.78-.02s.37.43.32.71c-.09.53-.09 1-.01 1.43.14.66.52 1.2 1.03 1.43.52.24 1.22.17 2.2-.2l.41-.17c.79-.33 1.6-.66 2.53-.67.69 0 1.32.18 1.92.35.38.11.74.21 1.09.26.64.1 1.33-.09 1.58-.44.14-.19.37-.32.6-.3.24.01.45.14.58.34.84 1.4 1.28 3.01 1.28 4.66 0 2.88-1.39 5.61-3.71 7.3-.13.09-.27.14-.42.14zm-4.93-6.97c1.01 0 1.84.74 2.15 1.01 1.28 1.17 2.33 2.58 3.06 4.12 1.54-1.43 2.44-3.46 2.44-5.6 0-1.11-.24-2.2-.7-3.2-.66.36-1.48.44-2.16.33-.43-.07-.85-.18-1.25-.3-.53-.15-1.04-.3-1.52-.3-.64.01-1.3.28-2 .57l-.44.18c-.86.33-2.13.7-3.3.18-.91-.42-1.59-1.33-1.82-2.44-.01-.08-.03-.17-.04-.25-1.27 1.36-2.02 3.15-2.07 5.03.11-.06.22-.11.33-.16.89-.38 1.95-.25 2.75.32.38.27.67.63.93.94.11.13.22.27.33.39.31.33.63.51.86.47.21-.03.44-.24.7-.47.32-.29.69-.61 1.2-.76.19-.04.37-.06.55-.06z" fill="#682f2a"/></g></g><g><path d="m19.1 8.08c-.45.64-1.44.87-2.25.73-.98-.15-1.91-.61-2.89-.61-.94.01-1.82.45-2.69.8-.88.34-1.89.58-2.75.19-.78-.34-1.27-1.12-1.44-1.94-.11-.55-.08-1.12.01-1.67 1.37-.98 3.04-1.54 4.84-1.54 3.03 0 5.7 1.62 7.17 4.04z" fill="#abb734"/><path d="m9.49 10.1c-.42 0-.86-.07-1.28-.26-.91-.42-1.59-1.33-1.82-2.44-.11-.61-.11-1.24.01-1.94.03-.18.13-.35.28-.46 1.54-1.09 3.36-1.67 5.25-1.67 3.15 0 6.12 1.68 7.76 4.39.15.24.13.54-.03.77-.66.93-1.95 1.18-2.95 1.02-.43-.07-.85-.18-1.25-.3-.53-.15-1.04-.3-1.52-.3-.64.01-1.3.28-2 .57l-.44.18c-.54.21-1.26.44-2.01.44zm-1.75-4.12c-.05.42-.04.79.03 1.14.14.66.52 1.2 1.03 1.43.52.24 1.22.17 2.2-.2l.41-.17c.79-.33 1.6-.66 2.53-.67.69 0 1.32.18 1.92.35.38.11.74.21 1.09.26.44.07.9 0 1.23-.16-1.43-2-3.77-3.22-6.24-3.22-1.51 0-2.95.43-4.2 1.24z" fill="#682f2a"/></g></g><g><g><g><g><path d="m38.46 30.46 6.04 5.09v6.1l-6.24-2.1" fill="#fa4968"/><path d="m44.5 42.36c-.08 0-.15-.01-.23-.04l-6.24-2.11c-.37-.12-.56-.52-.44-.89.13-.37.52-.56.89-.44l5.31 1.79v-4.8l-5.79-4.87c-.3-.25-.34-.69-.08-.99.25-.3.69-.34.99-.08l6.05 5.09c.16.13.25.33.25.54v6.1c0 .23-.11.44-.29.57-.13.08-.27.13-.42.13z" fill="#682f2a"/></g><g><path d="m22.09 30.46-6.05 5.09v6.1l6.24-2.1" fill="#fa4968"/><path d="m16.04 42.36c-.15 0-.29-.04-.41-.13-.18-.13-.29-.35-.29-.57v-6.1c0-.21.09-.4.25-.54l6.04-5.09c.3-.25.74-.21.99.08.25.3.21.74-.08.99l-5.79 4.88v4.8l5.31-1.79c.37-.12.77.07.89.44s-.07.77-.44.89l-6.24 2.11c-.07.02-.15.03-.23.03z" fill="#682f2a"/></g><g><path d="m34.61 9.58c-2.88-.74-5.74-.74-8.61.01 1.09-2.63 2.49-5.01 4.25-6.89h.11c1.77 1.89 3.17 4.25 4.25 6.88z" fill="#fa4968"/><path d="m26.01 10.29c-.2 0-.39-.09-.53-.24-.18-.2-.22-.48-.12-.73 1.19-2.87 2.66-5.26 4.38-7.1.13-.14.32-.22.51-.22h.11c.19 0 .38.08.51.22 1.73 1.84 3.2 4.23 4.38 7.09.1.25.06.53-.12.73s-.45.28-.71.22c-2.79-.72-5.49-.71-8.25.01-.05.02-.1.02-.16.02zm4.3-6.6c-1.17 1.35-2.2 3-3.1 4.91 2.06-.37 4.14-.37 6.2 0-.89-1.9-1.93-3.55-3.1-4.91z" fill="#682f2a"/></g><g><path d="m38.37 39.55h-16.12s-.23-3.1-.14-7.59c.15-6.24.92-15.17 3.84-22.26.02-.04.04-.07.05-.11 2.87-.75 5.73-.75 8.61-.01.02.04.04.08.05.12 2.7 6.57 3.56 14.72 3.79 20.84.2 5.26-.08 9.01-.08 9.01z" fill="#e5e5e5"/><path d="m38.37 40.25h-16.12c-.37 0-.67-.28-.7-.65 0-.03-.23-3.18-.14-7.66.15-6.31.94-15.34 3.89-22.51l.08-.16c.09-.18.26-.31.45-.37 2.96-.77 5.98-.78 8.96-.01.2.05.36.18.45.37 0 .01.04.08.04.09 2.81 6.83 3.66 15.27 3.88 21.16.19 5.23-.09 9.05-.09 9.09-.03.37-.33.65-.7.65zm-15.46-1.4h14.79c.07-1.29.19-4.38.05-8.28-.21-5.72-1.02-13.86-3.65-20.39-2.56-.61-5.05-.61-7.59.01-2.79 6.9-3.55 15.64-3.69 21.78-.07 3.23.03 5.75.09 6.88z" fill="#682f2a"/></g></g><g><circle cx="30.31" cy="15.21" fill="#6cd8d5" r="2.28"/><path d="m30.31 18.19c-1.64 0-2.98-1.34-2.98-2.98s1.34-2.98 2.98-2.98 2.98 1.34 2.98 2.98-1.34 2.98-2.98 2.98zm0-4.55c-.87 0-1.57.71-1.57 1.57s.71 1.57 1.57 1.57 1.57-.71 1.57-1.57-.7-1.57-1.57-1.57z" fill="#682f2a"/></g><g><circle cx="30.31" cy="22.02" fill="#6cd8d5" r="2.28"/><path d="m30.31 25c-1.64 0-2.98-1.34-2.98-2.98s1.34-2.98 2.98-2.98 2.98 1.34 2.98 2.98-1.34 2.98-2.98 2.98zm0-4.55c-.87 0-1.57.71-1.57 1.57s.71 1.57 1.57 1.57 1.57-.71 1.57-1.57-.7-1.57-1.57-1.57z" fill="#682f2a"/></g><g><circle cx="30.31" cy="29.33" fill="#6cd8d5" r="2.28"/><path d="m30.31 32.31c-1.64 0-2.98-1.34-2.98-2.98s1.34-2.98 2.98-2.98 2.98 1.34 2.98 2.98-1.34 2.98-2.98 2.98zm0-4.56c-.87 0-1.57.71-1.57 1.57s.71 1.57 1.57 1.57 1.57-.71 1.57-1.57-.7-1.57-1.57-1.57z" fill="#682f2a"/></g></g><g><path d="m28.36 44.73v-5.18h3.41v5.18" fill="#cccaca"/><path d="m31.77 45.43c-.39 0-.7-.31-.7-.7v-4.47h-2.01v4.47c0 .39-.31.7-.7.7s-.7-.31-.7-.7v-5.18c0-.39.31-.7.7-.7h3.41c.39 0 .7.31.7.7v5.18c.01.38-.31.7-.7.7z" fill="#682f2a"/></g><g><path d="m28.36 44.73c-.62 0-.76.28-1.14.71-.32-.2-.7-.33-1.1-.33-1.02 0-1.86.74-2.03 1.71-.1-.01-.2-.03-.3-.03-.56 0-1.07.22-1.44.59-.26-.12-.56-.2-.87-.2-1.14 0-2.07.93-2.07 2.07 0 .11.02.22.03.33-.01 0-.02 0-.03 0-.6 0-1.14.26-1.52.67-.38-.41-.92-.67-1.52-.67-.51 0-.96.19-1.32.49-1.1-.92-2.51-1.47-4.06-1.47-3.51 0-6.35 2.84-6.35 6.35s2.84 6.35 6.35 6.35h38.56c3.51 0 6.35-2.84 6.35-6.35s-2.84-6.35-6.35-6.35c-1.54 0-2.96.55-4.06 1.47-.36-.3-.82-.49-1.32-.49-.6 0-1.14.26-1.52.67-.38-.41-.92-.67-1.52-.67-.01 0-.02 0-.03 0 .02-.11.03-.22.03-.33 0-1.14-.93-2.07-2.07-2.07-.31 0-.6.07-.87.2-.37-.36-.88-.59-1.44-.59-.1 0-.2.02-.3.03-.17-.97-1.01-1.71-2.03-1.71-.41 0-.78.12-1.1.33-.38-.43-.93-.71-1.55-.71" fill="#cccaca"/><path d="m49.55 62h-38.56c-3.89 0-7.05-3.16-7.05-7.05s3.16-7.05 7.05-7.05c1.47 0 2.9.46 4.09 1.31.88-.47 1.99-.41 2.81.13.25-.17.54-.29.83-.37.14-1.39 1.32-2.49 2.76-2.49.25 0 .49.03.74.1.4-.28.87-.44 1.36-.48.42-1.01 1.41-1.69 2.55-1.69.32 0 .63.05.92.16.28-.29.64-.55 1.32-.55.39 0 .7.31.7.7s-.31.7-.7.7c-.21 0-.21 0-.46.3l-.15.17c-.23.26-.61.32-.91.13-.22-.14-.47-.22-.73-.22-.66 0-1.22.47-1.34 1.13-.07.38-.42.62-.8.57-.08-.01-.14-.02-.2-.02-.35 0-.69.14-.95.39-.21.2-.52.25-.79.13-.92-.43-1.93.29-1.94 1.23 0 .08.01.15.02.22.03.21-.03.43-.18.59s-.35.25-.57.22c-.35 0-.71.16-.97.44-.13.14-.32.23-.52.23-.2 0-.38-.08-.52-.23-.26-.29-.62-.44-1-.44-.4 0-.69.18-.87.33-.26.22-.64.22-.9 0-1.01-.84-2.29-1.3-3.61-1.3-3.11 0-5.64 2.53-5.64 5.64s2.53 5.64 5.64 5.64h38.56c3.11 0 5.64-2.53 5.64-5.64s-2.53-5.64-5.64-5.64c-1.31 0-2.6.46-3.61 1.3-.26.22-.64.22-.9 0-.18-.15-.47-.33-.87-.33-.38 0-.74.16-1 .45-.13.14-.32.23-.52.23-.2 0-.38-.08-.52-.23-.26-.29-.62-.44-1-.44-.21.02-.41-.06-.56-.22s-.2-.38-.17-.59c.01-.07.02-.15.02-.22 0-.94-1.02-1.67-1.94-1.23-.27.12-.58.07-.79-.13-.3-.29-.73-.43-1.13-.37-.37.06-.75-.2-.81-.57-.12-.65-.68-1.13-1.34-1.13-.25 0-.51.07-.73.22-.29.19-.68.13-.91-.13-.27-.3-.63-.47-1.02-.47s-.7-.31-.7-.7.31-.7.7-.7c.61 0 1.19.2 1.67.57.31-.12.65-.18.98-.18 1.13 0 2.12.68 2.55 1.69.49.04.96.2 1.36.48.24-.07.49-.1.74-.1 1.43 0 2.62 1.1 2.76 2.5.3.08.58.2.83.36.82-.54 1.93-.6 2.81-.13 1.19-.85 2.62-1.31 4.09-1.31 3.89 0 7.05 3.16 7.05 7.05s-3.14 7.04-7.03 7.04z" fill="#682f2a"/></g><g><path d="m17.89 50.25s-1.53 1.81-.91 2.76" fill="#cccaca"/><path d="m16.98 53.71c-.23 0-.45-.11-.59-.32-.86-1.32.65-3.23.96-3.6.25-.29.69-.33.99-.08s.33.69.08.99c-.54.64-1.04 1.64-.86 1.92.21.33.12.76-.2.97-.11.09-.25.12-.38.12z" fill="#682f2a"/></g><g><path d="m20.19 54.27s2.9.62 3 2.69" fill="#cccaca"/><path d="m23.19 57.66c-.37 0-.68-.29-.7-.67-.08-1.5-2.42-2.03-2.45-2.04-.38-.08-.62-.46-.54-.84s.45-.62.83-.54c.14.03 3.43.76 3.55 3.34.02.39-.28.72-.67.74 0 .01-.01.01-.02.01z" fill="#682f2a"/></g><g><path d="m21.69 54.87s1.71-3.18 4.19-2.76" fill="#cccaca"/><path d="m21.69 55.57c-.11 0-.23-.03-.33-.08-.34-.18-.47-.61-.29-.95.08-.15 1.97-3.62 4.92-3.13.38.06.64.43.58.81s-.43.64-.81.58c-1.96-.33-3.44 2.38-3.45 2.41-.13.22-.37.36-.62.36z" fill="#682f2a"/></g><g><path d="m36.46 46.82s-.24 1.97-2.62 2.07" fill="#cccaca"/><path d="m33.84 49.6c-.37 0-.68-.29-.7-.67-.02-.39.28-.72.67-.73 1.76-.08 1.95-1.4 1.95-1.45.05-.38.4-.66.78-.61.39.05.66.4.61.78-.11.88-.94 2.58-3.29 2.69 0-.01-.01-.01-.02-.01z" fill="#682f2a"/></g><g><path d="m42.65 50.25s-2.21 1.06-1.27 3.21" fill="#cccaca"/><path d="m41.38 54.17c-.27 0-.53-.16-.64-.42-.96-2.2.63-3.66 1.61-4.13.35-.17.77-.02.94.33s.02.77-.33.94c-.27.13-1.56.86-.93 2.3.16.36-.01.77-.36.93-.1.03-.19.05-.29.05z" fill="#682f2a"/></g><g><path d="m41.23 53.01s-3.18 2.09-4.77 1.26" fill="#cccaca"/><path d="m37.35 55.16c-.43 0-.85-.08-1.21-.27-.34-.18-.48-.6-.3-.95s.6-.48.95-.3c.84.43 2.88-.45 4.06-1.23.32-.21.76-.12.97.2s.12.76-.2.97c-.3.21-2.45 1.58-4.27 1.58z" fill="#682f2a"/></g><g><path d="m48.3 61.3s-.39-3.87 3.18-4.96" fill="#cccaca"/><path d="m48.29 62c-.36 0-.66-.27-.7-.63-.15-1.54.42-4.71 3.67-5.7.37-.11.76.1.88.47.11.37-.1.76-.47.88-2.98.91-2.7 4.08-2.69 4.21.04.39-.24.73-.63.77-.01 0-.03 0-.06 0z" fill="#682f2a"/></g><g><circle cx="47.75" cy="44.15" fill="#cccaca" r="1.47"/><path d="m47.75 46.33c-1.2 0-2.18-.98-2.18-2.18s.98-2.18 2.18-2.18 2.18.98 2.18 2.18-.98 2.18-2.18 2.18zm0-2.95c-.42 0-.77.35-.77.77s.35.77.77.77.77-.35.77-.77-.34-.77-.77-.77z" fill="#682f2a"/></g><g><circle cx="54.04" cy="45.63" fill="#cccaca" r="1.47"/><path d="m54.04 47.8c-1.2 0-2.18-.98-2.18-2.18s.98-2.18 2.18-2.18 2.18.98 2.18 2.18-.98 2.18-2.18 2.18zm0-2.94c-.42 0-.77.35-.77.77s.35.77.77.77.77-.35.77-.77-.35-.77-.77-.77z" fill="#682f2a"/></g><g><circle cx="16.27" cy="45.98" fill="#cccaca" r="1.47"/><path d="m16.27 48.16c-1.2 0-2.18-.98-2.18-2.18s.98-2.18 2.18-2.18 2.18.98 2.18 2.18-.98 2.18-2.18 2.18zm0-2.95c-.42 0-.77.35-.77.77s.35.77.77.77c.43 0 .77-.35.77-.77s-.34-.77-.77-.77z" fill="#682f2a"/></g><g><circle cx="10.46" cy="44.15" fill="#cccaca" r="1.47"/><path d="m10.46 46.33c-1.2 0-2.18-.98-2.18-2.18s.98-2.18 2.18-2.18 2.18.98 2.18 2.18-.98 2.18-2.18 2.18zm0-2.95c-.43 0-.77.35-.77.77s.35.77.77.77.77-.35.77-.77-.35-.77-.77-.77z" fill="#682f2a"/></g></g></g></svg>