<svg id="Capa_1" enable-background="new 0 0 512.059 512.059" height="512" viewBox="0 0 512.059 512.059" width="512" xmlns="http://www.w3.org/2000/svg"><g><path d="m504.51 256.002c0 8.45-.43 16.71-1.25 24.95l-156.3 120.84-129.04 99.77c-105.52-16.24-189.14-98.87-206.87-203.891l33.44-172.04c24.57-39.729 60.08-72.25 102.59-93.03 32.76-16.02 69.68-25.069 108.96-25.069 137.23 0 248.47 111.239 248.47 248.47z" fill="#a4e7ff"/><path d="m346.96 401.792-129.04 99.77c-105.52-16.24-189.14-98.87-206.87-203.891l33.44-172.04c24.57-39.729 60.08-72.25 102.59-93.03-5.8 68.181-2.09 259.24 199.88 369.191z" fill="#83deff"/><path d="m503.26 280.952c-6.15 61.71-34.65 116.13-76.79 155.84-53.49 50.38-128.95 77.05-208.55 64.77-.45-37.51 6.92-83.76 38.59-117.199 9.98-10.551 16.84-20.261 21.32-29.12 9.56-18.9 8.28-33.98 3.39-45.23-7.36-16.92-12.32-47.49 4.94-54.01 51.67-19.541 155.08-29.942 217.1 24.949z" fill="#9cda82"/><path d="m426.47 436.792c-53.49 50.38-128.95 77.05-208.55 64.77-.45-37.51 6.92-83.76 38.59-117.199 9.98-10.551 16.84-20.261 21.32-29.12 37.98 31.549 86.57 59.759 148.64 81.549z" fill="#8dd470"/><ellipse cx="186.076" cy="178.741" fill="#fff" rx="30.834" ry="24.555"/><ellipse cx="353.206" cy="178.741" fill="#fff" rx="30.834" ry="24.555"/><circle cx="316.275" cy="293.649" fill="#ffeab7" r="52.706"/><path d="m316.28 218.351c-41.59 0-75.3 34.07-75.3 76.091 0 31.38 42.01 92.29 63.27 121.1 6 8.14 18.05 8.14 24.05 0 21.27-28.81 63.27-89.72 63.27-121.1 0-42.021-33.71-76.091-75.29-76.091zm0 114.131c-20.8 0-37.65-17.03-37.65-38.04 0-21.011 16.85-38.04 37.65-38.04 20.79 0 37.64 17.029 37.64 38.04 0 21.01-16.85 38.04-37.64 38.04z" fill="#ff6e80"/><path d="m82.86 203.292c0 45.03-30.41 82.97-71.81 94.38-9.867-58.381 1.073-119.675 33.45-172.07 23.32 17.869 38.36 46.029 38.36 77.69z" fill="#8dd470"/><circle cx="82.864" cy="82.825" fill="#ffeab7" r="52.706"/><path d="m82.86 7.532c-41.58 0-75.29 34.06-75.29 76.08 0 31.39 42 92.29 63.27 121.109 6 8.141 18.05 8.141 24.05 0 21.26-28.819 63.27-89.72 63.27-121.109 0-42.021-33.71-76.08-75.3-76.08zm0 114.13c-20.79 0-37.64-17.04-37.64-38.05 0-21.011 16.85-38.04 37.64-38.04 20.8 0 37.65 17.029 37.65 38.04 0 21.01-16.85 38.05-37.65 38.05z" fill="#ff6e80"/></g><g><path d="m469.619 397.282c91.734-138.853 28.372-327.695-128.678-382.854-3.909-1.376-8.188.684-9.562 4.591-1.373 3.908.683 8.189 4.591 9.562 99.019 34.778 165.293 130.662 160.861 237.636-31.335-22.464-70.938-31.37-118-26.498-15.192-17.665-37.571-28.868-62.508-28.868-45.652 0-82.794 37.496-82.794 83.585 0 18.59 12.942 45.786 28.561 71.841-3.183 4.242-6.859 8.573-10.978 12.925-10.608 11.2-19.281 24.476-25.779 39.458-1.648 3.801.097 8.217 3.897 9.865 3.824 1.659 8.228-.122 9.865-3.896 5.799-13.373 13.507-25.187 22.909-35.113 3.055-3.228 5.895-6.458 8.508-9.668 9.659 15.075 19.626 29.143 27.747 40.148 9.009 12.21 27.117 12.211 36.127 0 24.175-32.768 64.73-92.65 64.73-125.56 0-14.691-3.787-28.501-10.407-40.51 43.315-2.92 79.155 7.188 106.713 30.137-15.476 131.882-135.499 228.088-269.951 210.949.201-14.794 1.715-28.791 4.516-41.69.879-4.048-1.689-8.042-5.737-8.921-4.052-.875-8.042 1.689-8.921 5.737-2.874 13.232-4.469 27.496-4.799 42.488-98.13-18.823-172.257-95.55-190.852-189.797 37.387-13.008 64.513-46.196 69.772-85.468 4.558-1.379 8.582-4.2 11.526-8.189 24.175-32.767 64.731-92.649 64.731-125.56 0-16.669-4.877-32.199-13.239-45.253 49.485-23.669 104.431-28.743 154.622-17.924 4.05.876 8.04-1.703 8.912-5.752s-1.703-8.039-5.752-8.912c-54.091-11.658-113.528-6.037-167.202 20.479-15.104-16.129-36.468-26.223-60.136-26.223-45.653 0-82.794 37.496-82.794 83.585 0 16.742 10.499 40.466 23.994 64.048-22.187 47.264-29.25 99.474-20.409 151.256 19.098 113.123 112.633 200.732 225.972 211.71 95.008 10.105 187.14-33.958 239.944-113.344zm-147.302 13.807c-3.007 4.077-8.978 4.079-11.986 0-38.697-52.451-61.801-96.06-61.801-116.653 0-37.818 30.412-68.585 67.794-68.585s67.794 30.767 67.794 68.585c0 20.593-23.104 64.202-61.801 116.653zm-305.126-123.297c-5.659-42.534-.042-85.104 16.363-124.376 10.725 17.175 22.176 33.395 31.296 45.756 2.515 3.408 5.82 5.955 9.57 7.487-4.795 32.261-26.828 59.564-57.229 71.133zm65.721-272.765c37.382 0 67.794 30.768 67.794 68.585 0 20.595-23.104 64.203-61.801 116.653-3.005 4.075-8.977 4.079-11.986 0-38.698-52.45-61.801-96.059-61.801-116.653 0-37.817 30.412-68.585 67.794-68.585z"/><path d="m211.594 154.798v-12c0-4.143-3.358-7.5-7.5-7.5s-7.5 3.357-7.5 7.5v12c0 4.143 3.358 7.5 7.5 7.5s7.5-3.358 7.5-7.5z"/><path d="m281.329 149.798c-6.191 7.105-17.145 7.039-23.279 0-2.721-3.121-7.458-3.448-10.581-.727s-3.448 7.459-.727 10.582c12.121 13.908 33.742 13.946 45.896 0 2.722-3.123 2.396-7.86-.727-10.582-3.124-2.721-7.862-2.396-10.582.727z"/><path d="m323.695 161.964c4.143 0 7.5-3.357 7.5-7.5 0-3.532 2.874-6.406 6.406-6.406s6.406 2.874 6.406 6.406c0 4.143 3.357 7.5 7.5 7.5s7.5-3.357 7.5-7.5c0-11.804-9.603-21.406-21.406-21.406s-21.406 9.603-21.406 21.406c0 4.142 3.357 7.5 7.5 7.5z"/><path d="m329.107 250.765c-.222-.076-.448-.141-.679-.195-27.786-7.813-57.24 12.391-57.24 44.869 0 .18.014.356.027.533.807 24.402 20.725 44.007 45.109 44.007 24.895 0 45.147-20.431 45.147-45.543 0-20.634-13.677-38.096-32.364-43.671zm-12.783 74.214c-16.623 0-30.147-13.701-30.147-30.543 0-16.841 13.524-30.542 30.147-30.542s30.147 13.701 30.147 30.542-13.524 30.543-30.147 30.543z"/><path d="m115.256 250.539c-2.929 2.929-2.929 7.677 0 10.606l15.972 15.972c2.929 2.928 7.678 2.929 10.606-.001 2.929-2.929 2.929-7.677 0-10.606l-15.972-15.972c-2.928-2.928-7.677-2.929-10.606.001z"/><path d="m152.525 287.808c-2.929 2.929-2.929 7.677 0 10.606l15.972 15.972c2.929 2.928 7.678 2.929 10.606-.001 2.929-2.929 2.929-7.677 0-10.606l-15.972-15.972c-2.929-2.928-7.678-2.929-10.606.001z"/><path d="m189.793 325.076c-2.929 2.929-2.929 7.678 0 10.606l15.973 15.972c2.929 2.928 7.678 2.929 10.606-.001 2.929-2.929 2.929-7.678 0-10.606l-15.972-15.972c-2.929-2.928-7.678-2.928-10.607.001z"/><path d="m82.909 38.068c-24.89 0-45.14 20.43-45.14 45.54 0 25.05 20.19 45.55 45.14 45.55 24.9 0 45.15-20.43 45.15-45.55 0-25.07-20.251-45.54-45.15-45.54zm0 76.32c-17 0-30.78-13.779-30.78-30.779 0-16.99 13.78-30.771 30.78-30.771s30.78 13.78 30.78 30.771c0 16.999-13.78 30.779-30.78 30.779z"/></g></svg>