<svg id="Capa_1" enable-background="new 0 0 512 512" height="512" viewBox="0 0 512 512" width="512" xmlns="http://www.w3.org/2000/svg"><g><g><path d="m330.64 70.732-67.97-67.97c-3.684-3.684-9.657-3.684-13.341 0l-67.97 67.97c-5.943 5.943-1.734 16.104 6.67 16.104h14.012c5.21 0 9.433 4.223 9.433 9.433v275.108h89.05v-275.108c0-5.21 4.223-9.433 9.433-9.433h14.012c8.405 0 12.614-10.161 6.671-16.104z" fill="#60b7ff"/><path d="m330.64 70.732-67.97-67.969c-3.684-3.684-9.657-3.684-13.341 0l-8.782 8.782 49.279 49.279c9.599 9.599 2.801 26.012-10.774 26.012-5.21 0-9.433 4.223-9.433 9.433v119.039c0 5.69-4.612 10.302-10.302 10.302h-47.842v145.768h58.144 30.905v-275.109c0-5.21 4.223-9.433 9.433-9.433h14.012c8.405 0 12.614-10.161 6.671-16.104z" fill="#26a6fe"/><g fill="#60b7ff"><path d="m179.071 148.446-54.247-54.246c-2.94-2.94-7.707-2.94-10.647 0l-54.247 54.246c-4.743 4.743-1.384 12.852 5.324 12.852h11.183c4.158 0 7.529 3.371 7.529 7.529v157.753h71.07v-157.754c0-4.158 3.371-7.529 7.529-7.529h11.183c6.707.001 10.066-8.109 5.323-12.851z"/><path d="m452.069 148.446-54.247-54.246c-2.94-2.94-7.707-2.94-10.647 0l-54.247 54.246c-4.743 4.743-1.384 12.852 5.324 12.852h11.183c4.158 0 7.529 3.371 7.529 7.529v157.753h71.07v-157.754c0-4.158 3.371-7.529 7.529-7.529h11.183c6.707.001 10.066-8.109 5.323-12.851z"/></g></g><path d="m452.069 148.446-54.247-54.246c-2.94-2.94-7.707-2.94-10.647 0l-10.129 10.129 36.21 36.21c7.66 7.661 2.235 20.76-8.599 20.76-4.158 0-7.529 3.371-7.529 7.529v45.451c0 5.69-4.612 10.302-10.302 10.302h-29.863v101.999h40.165 30.905v-157.754c0-4.158 3.371-7.529 7.529-7.529h11.183c6.708.001 10.067-8.109 5.324-12.851z" fill="#26a6fe"/><path d="m179.071 148.446-54.247-54.246c-2.94-2.94-7.707-2.94-10.647 0l-10.129 10.129 36.21 36.21c7.66 7.661 2.235 20.76-8.599 20.76-4.158 0-7.529 3.371-7.529 7.529v46.481c0 5.69-4.612 10.302-10.302 10.302h-29.862v100.969h40.165 30.905v-157.754c0-4.158 3.371-7.529 7.529-7.529h11.183c6.707.001 10.066-8.109 5.323-12.851z" fill="#26a6fe"/><path d="m480.436 509.673-18.809 2.327h-411.254l-18.764-9.711c-17.069 0-24.159-7.771-24.159-24.84l-7.45-15.822v-159.89l6.461-18.635c0-17.069 7.186-27.103 24.254-27.103l19.658-4.636h411.254l19.468 4.637c17.069 0 24.95 9.179 24.95 26.247l5.955 19.49v159.889l-4.354 19.813c0 17.07-10.141 28.234-27.21 28.234z" fill="#85e994"/><path d="m481.095 253.438-19.468-2.074h-11.438c17.069 0 30.905 13.837 30.905 30.905v24.546 174.279c0 17.068-13.837 30.905-30.905 30.905h11.438l18.809-2.327c17.069 0 27.21-11.164 27.21-28.233l4.354-19.812v-159.89l-4.213-18.687c0-17.068-9.624-29.612-26.692-29.612z" fill="#42daa2"/><g><circle cx="256" cy="381.682" fill="#42daa2" r="87.508"/><path d="m267.982 373.956h-23.964c-.52 0-.944-.424-.944-.944v-23.964c0-.52.424-.944.944-.944h32.634c4.267 0 7.726-3.459 7.726-7.726s-3.459-7.726-7.726-7.726h-12.926v-5.989c0-4.267-3.459-7.726-7.726-7.726s-7.726 3.459-7.726 7.726v5.989h-4.256c-9.041 0-16.396 7.355-16.396 16.396v23.964c0 9.041 7.356 16.396 16.396 16.396h23.964c.52 0 .944.424.944.944v23.964c0 .52-.424.944-.944.944h-32.634c-4.267 0-7.726 3.459-7.726 7.726s3.459 7.726 7.726 7.726h12.926v5.989c0 4.267 3.459 7.726 7.726 7.726s7.726-3.459 7.726-7.726v-5.989h4.256c9.041 0 16.396-7.355 16.396-16.396v-23.964c0-9.041-7.355-16.396-16.396-16.396z" fill="#fff"/></g><path d="m481.095 253.438-19.468-2.074c-4.113 5.871-6.533 13.014-6.533 20.727 0 19.981 16.198 36.18 36.18 36.18 7.712 0 14.856-2.421 20.727-6.533l-4.213-18.687c-.001-17.069-9.625-29.613-26.693-29.613z" fill="#bdf7a8"/><path d="m481.094 306.815c3.229.946 6.644 1.455 10.179 1.455 7.712 0 14.856-2.421 20.727-6.533v-19.467c0-17.068-13.837-30.905-30.905-30.905h-19.468c-.401.573-.772 1.168-1.141 1.764 12.005 4.242 20.608 15.685 20.608 29.141z" fill="#a6e887"/><g fill="#bdf7a8"><path d="m30.905 251.364h19.468c4.113 5.871 6.533 13.014 6.533 20.727 0 19.981-16.198 36.18-36.18 36.18-7.712 0-14.856-2.421-20.727-6.533v-19.468c.001-17.069 13.838-30.906 30.906-30.906z"/><path d="m480.436 509.673-18.809 2.327c-4.113-5.871-6.533-13.014-6.533-20.727 0-19.981 16.198-36.18 36.18-36.18 7.712 0 14.856 2.421 20.727 6.533l-4.298 17.934c-.001 17.07-10.198 30.113-27.267 30.113z"/><path d="m30.905 512h19.468c4.113-5.871 6.533-13.014 6.533-20.727 0-19.981-16.198-36.18-36.18-36.18-7.712 0-14.856 2.421-20.727 6.533v19.468c.001 17.069 13.838 30.906 30.906 30.906z"/></g><circle cx="411.557" cy="381.682" fill="#42daa2" r="23.179"/><circle cx="100.443" cy="381.682" fill="#42daa2" r="23.179"/><path d="m481.094 456.549c3.229-.946 6.644-1.455 10.179-1.455 7.712 0 14.856 2.421 20.727 6.533v19.468c0 17.068-13.837 30.905-30.905 30.905h-19.468c-.401-.573-.772-1.168-1.141-1.764 12.005-4.242 20.608-15.685 20.608-29.141z" fill="#a6e887"/></g></svg>