<svg clip-rule="evenodd" fill-rule="evenodd" height="512" image-rendering="optimizeQuality" shape-rendering="geometricPrecision" text-rendering="geometricPrecision" viewBox="0 0 512 512" width="512" xmlns="http://www.w3.org/2000/svg" xmlns:xodm="http://www.corel.com/coreldraw/odm/2003"><g id="Layer_x0020_1"><path d="m37.31 479.69c-1.28 0-2.56-.49-3.53-1.47-1.96-1.95-1.96-5.12 0-7.07l417.68-417.68c1.95-1.95 5.12-1.95 7.07 0s1.95 5.12 0 7.07l-417.68 417.68c-.98.98-2.26 1.47-3.54 1.47z" fill="#f6b863"/><path d="m472.32 511.99c-.8 0-1.6-.19-2.33-.58-1.64-.87-2.67-2.57-2.67-4.42v-9.97h-447.34c-2.76 0-5-2.24-5-5v-447.34h-9.97c-1.85 0-3.55-1.03-4.42-2.67s-.75-3.62.29-5.15l23.63-34.67c.94-1.36 2.48-2.18 4.14-2.18 1.65 0 3.2.82 4.13 2.18l23.63 34.67c1.05 1.53 1.16 3.51.29 5.15-.86 1.64-2.56 2.67-4.42 2.67h-9.97v425.01h425.01v-9.97c0-1.86 1.03-3.56 2.67-4.42 1.64-.87 3.62-.76 5.15.29l34.67 23.63c1.36.94 2.18 2.48 2.18 4.13 0 1.66-.82 3.21-2.19 4.14l-34.66 23.63c-.84.58-1.83.87-2.82.87z" fill="#575b6d"/><g fill="#1caee4"><path d="m424.57 456.09c-12.02 0-21.79-9.77-21.79-21.79 0-12.01 9.77-21.79 21.79-21.79 12.01 0 21.79 9.78 21.79 21.79 0 12.02-9.78 21.79-21.79 21.79z"/><path d="m331.95 452.3c-12.01 0-21.79-9.77-21.79-21.79 0-12.01 9.78-21.79 21.79-21.79 12.02 0 21.79 9.78 21.79 21.79 0 12.02-9.77 21.79-21.79 21.79z"/><path d="m362.29 405.18c-12.02 0-21.79-9.77-21.79-21.79 0-12.01 9.77-21.79 21.79-21.79 12.01 0 21.78 9.78 21.78 21.79 0 12.02-9.77 21.79-21.78 21.79z"/></g><path d="m403.99 340.73c-12.02 0-21.79-9.77-21.79-21.79 0-12.01 9.77-21.79 21.79-21.79 12.01 0 21.79 9.78 21.79 21.79 0 12.02-9.78 21.79-21.79 21.79z" fill="#382b73"/><path d="m334.12 339.11c-12.01 0-21.79-9.78-21.79-21.79 0-12.02 9.78-21.79 21.79-21.79 12.02 0 21.79 9.77 21.79 21.79 0 12.01-9.77 21.79-21.79 21.79z" fill="#382b73"/><path d="m344.41 286.57c-12.01 0-21.79-9.77-21.79-21.79 0-12.01 9.78-21.79 21.79-21.79 12.02 0 21.79 9.78 21.79 21.79 0 12.02-9.77 21.79-21.79 21.79z" fill="#ef5a9d"/><path d="m252.88 327.73c-12.01 0-21.79-9.77-21.79-21.79 0-12.01 9.78-21.79 21.79-21.79 12.02 0 21.79 9.78 21.79 21.79 0 12.02-9.77 21.79-21.79 21.79z" fill="#ef5a9d"/><path d="m220.93 410.6c-12.02 0-21.79-9.78-21.79-21.79 0-12.02 9.77-21.79 21.79-21.79 12.01 0 21.79 9.77 21.79 21.79 0 12.01-9.78 21.79-21.79 21.79z" fill="#ef5a9d"/><path d="m297.1 387.7c-12.02 0-21.79-9.78-21.79-21.79 0-12.02 9.77-21.79 21.79-21.79 12.01 0 21.79 9.77 21.79 21.79 0 12.01-9.78 21.79-21.79 21.79z" fill="#382b73"/><path d="m114.23 323.4c-12.01 0-21.79-9.77-21.79-21.79 0-12.01 9.77-21.79 21.79-21.79s21.79 9.78 21.79 21.79c0 12.02-9.77 21.79-21.79 21.79zm-8.12-189.02c-12.02 0-21.79-9.77-21.79-21.79 0-12.01 9.77-21.79 21.79-21.79 12.01 0 21.79 9.78 21.79 21.79 0 12.02-9.78 21.79-21.79 21.79zm98.03-1.62c-12.02 0-21.79-9.78-21.79-21.79 0-12.02 9.77-21.79 21.79-21.79 12.01 0 21.79 9.77 21.79 21.79 0 12.01-9.78 21.79-21.79 21.79zm55.24 45.49c-12.02 0-21.79-9.77-21.79-21.79 0-12.01 9.77-21.79 21.79-21.79 12.01 0 21.79 9.78 21.79 21.79 0 12.02-9.78 21.79-21.79 21.79zm-66.08 99.65c-12.01 0-21.78-9.77-21.78-21.78 0-12.02 9.77-21.79 21.78-21.79 12.02 0 21.79 9.77 21.79 21.79 0 12.01-9.77 21.78-21.79 21.78zm-57.4-72.57c-12.02 0-21.79-9.77-21.79-21.79 0-12.01 9.77-21.79 21.79-21.79 12.01 0 21.78 9.78 21.78 21.79 0 12.02-9.77 21.79-21.78 21.79z" fill="#ffc10e"/><path d="m347.12 134.92c-12.02 0-21.79-9.77-21.79-21.79 0-12.01 9.77-21.79 21.79-21.79 12.01 0 21.79 9.78 21.79 21.79 0 12.02-9.78 21.79-21.79 21.79z" fill="#ee3860"/></g></svg>