<svg id="Layer_1" enable-background="new 0 0 512.898 512.898" height="512" viewBox="0 0 512.898 512.898" width="512" xmlns="http://www.w3.org/2000/svg"><g><g><path d="m328.743 417.603-24.588-16.19-32.463 67.593v-214.109l57.051 9.463z" fill="#f55745"/><path d="m328.743 417.603-24.588-16.19-32.463 67.593v-214.109l57.051 9.463z" fill="#d94e3e"/><g><path d="m27.231 387.315 31.338-25.637c119.426-97.698 228.299-207.403 324.882-327.366 15.954-15.809 52.782-4.946 82.258 24.264s40.439 65.706 24.485 81.515c-121.056 95.711-231.761 203.6-330.349 321.947l-31.962 38.65z" fill="#e9f2ff"/><path d="m97.742 328.824c15.101 14.965 76.725 115.623 76.725 115.623s-40.307 50.021-46.196 55.857c-11.983 11.875-49.055 2.616-78.748-26.81s-42-65-28.781-79.749c11.258-12.562 77-64.921 77-64.921z" fill="#91a8dd"/><g><path d="m58.835 418.182c-4.813 4.813-8.563 18.063 29.187 50.824l42.5-40.511s-40.25-41.75-71.687-10.313z" fill="#e9f2ff"/><path d="m490.07 140.214c16.009-15.864 5.091-52.404-24.385-81.615-8.526-8.449-17.67-15.347-26.75-20.518l-342.163 342.164-37.937 37.937s16.312-16.312 47.839 18.607c28.162 31.192 23.858 55.964 21.209 63.9l30.705-37.403c98.965-118.722 210.05-226.988 331.482-323.072z" fill="#b5ceff"/><path d="m465.685 58.6c-8.526-8.449-17.67-15.348-26.75-20.519l-21.897 21.897c28.444 28.973 38.791 64.619 23.032 80.236-117.514 92.983-225.336 197.375-321.862 311.61 15.219 23.955 11.882 42.254 9.675 48.864l30.705-37.404c98.966-118.721 210.05-226.987 331.483-323.071 16.008-15.863 5.091-52.403-24.386-81.613z" fill="#a4c2ff"/></g><g><path d="m399.891 14.373c-96.96 120.336-223.145 249.507-342.948 347.579l-36.202 31.795s35.125-39.751 96.299 4.271l363.931-360.645c-28.912-26.939-65.631-38.309-81.08-23z" fill="#e9f2ff"/></g><g><path d="m244.233 174.448c-15.254 15.739-30.698 31.295-46.34 46.655 48.826 15.174 87.667 52.584 104.487 100.284 15.513-15.487 31.216-30.787 47.111-45.889-16.77-48.166-55.966-85.928-105.258-101.05z" fill="#f55745"/></g></g></g><path d="m473.244 55.589 13.006-12.889c2.986-2.958 2.908-7.949-.167-10.814-14.988-13.966-32.248-24.285-48.6-29.056-13.329-3.888-33.502-5.499-43.433 6.838-10.846 13.46-22.225 27.233-33.822 40.935-6.064 7.163 5.109 17.18 11.449 9.69 11.574-13.674 22.93-27.416 33.761-40.852 11.151-10.456 39.991-1.968 64.541 18.266l-163.754 162.275c-11.572-9.79-24.481-18.053-38.4-24.495 26.243-27.419 51.898-55.391 76.356-83.282 6.188-7.057-4.809-17.267-11.278-9.89-25.593 29.187-52.507 58.465-80.036 87.097-4.431-1.557-9.995-4.334-14.019-.184-15.281 15.768-30.828 31.42-46.209 46.523-3.721 3.654-2.538 10.057 2.169 12.183-48.238 47.096-96.172 90.196-142.616 128.214-12.174 10.041-27.053 20.676-37.206 32.8-8.193 9.334-9.27 24.119-3.012 41.686 12.812 38.628 62.953 82.85 100.789 82.257 7.24.001 17.52-1.838 21.822-8.547l29.763-36.258c31.861-38.22 65.312-75.694 99.844-111.887v112.806c0 7.564 10.78 10.492 14.261 3.247l28.747-59.855 17.418 11.47c4.898 3.227 11.625-.4 11.625-6.264v-118.981c6.142-5.95 12.287-11.865 18.415-17.686 2.136-2.029 2.886-5.121 1.917-7.904-.711-2.042-1.475-4.059-2.262-6.065 44.941-42.037 92.154-82.687 140.412-120.872 7.399-5.846 10.221-17.056 10.221-25.952-.001-19.722-12.084-44.217-31.702-64.554zm-413.907 314.242c48.381-39.61 100.803-86.837 151.029-136.144 13.801 5.889 26.712 13.779 37.07 22.928l-132.455 131.258c-15.565-11.403-36.311-18.739-55.644-18.042zm-4.536 98.337c-28.105-27.852-37.581-58.646-28.659-69.183 14.216-13.684 34.259-16.91 53.036-11.752l-25.646 25.646c-3.603 3.6-5.33 8.589-5.152 13.633.442 12.51 11.801 28.263 34.727 48.159 2.895 2.513 7.417 2.312 10.09-.236l18.998-18.109c11.915 18.978 10.757 33.335 9.191 39.818-9.441 5.117-39.32-.958-66.585-27.976zm9.337-44.683c9.961-9.961 33.071 13.727 39.051 20.703l-15.342 14.624c-2.981-2.723-31.437-27.589-23.709-35.327zm257.105-19.8-12.963-8.536c-3.74-2.463-8.947-1.02-10.885 3.017l-18.202 37.9v-95.438c5.383-5.534 10.788-11.039 16.217-16.506 1.938 4.936 8.558 6.277 12.269 2.573 4.498-4.49 9.025-8.968 13.563-13.435v90.425zm-16.058-95.66c-2.265-5.221-4.8-10.335-7.582-15.29-4.593-8.186-17.883-1.215-13.08 7.342 1.658 2.954 3.216 5.97 4.676 9.034-47.515 47.571-93.381 97.799-136.408 149.415l-16.207 19.743c-4.337-27.916-29.17-62.006-57.192-70.037l15.119-15.119c5.716 2.793 11.766 6.398 18.149 10.991 2.91 2.094 7.165 1.713 9.66-.76l137.385-136.144c7.267 7.338 19.313-1.676 11.82-9.394-16.858-17.363-37.354-30.97-59.819-39.794 11.565-11.463 23.179-23.188 34.661-34.994 43.301 14.7 78.099 48.048 94.392 90.439-5.761 5.493-29.518 28.573-35.574 34.568zm179.87-173.406c-47.112 37.294-93.238 76.92-137.237 117.886-7.954-15.673-18.3-29.944-30.566-42.333l145.335-144.023c18.025 18.594 36.534 51.633 22.468 68.47z"/></g></svg>