<svg height="256" viewBox="0 0 256 256" width="256" xmlns="http://www.w3.org/2000/svg"><g fill="none" stroke-miterlimit="10" stroke-width="0" transform="matrix(2.81 0 0 2.81 1.407 1.407)"><path d="m18.427 30.629c-.069 0-.138-.01-.205-.032-7.382-2.361-12.539-9.947-12.539-18.447v-6.499c0-.371.301-.672.672-.672 2.155 0 3.909-1.754 3.909-3.909 0-.371.301-.672.672-.672h14.983c.371 0 .672.301.672.672 0 2.155 1.754 3.909 3.91 3.909.371 0 .672.301.672.672v6.499c0 8.5-5.157 16.086-12.54 18.448-.067.021-.136.031-.206.031z" fill="#c9cfd4" transform="matrix(2.81 0 0 2.81 1.407 1.407)"/><path d="m18.427 30.985c-.108 0-.214-.016-.314-.049-7.527-2.408-12.786-10.133-12.786-18.786v-6.499c0-.567.461-1.028 1.028-1.028 1.959 0 3.554-1.594 3.554-3.553 0-.567.461-1.028 1.028-1.028h14.983c.566 0 1.028.461 1.028 1.028 0 1.959 1.594 3.553 3.554 3.553.566 0 1.028.461 1.028 1.028v6.499c0 8.653-5.258 16.378-12.787 18.786-.102.033-.208.049-.316.049zm-7.491-30.231c-.174 0-.316.142-.316.316 0 2.352-1.913 4.265-4.265 4.265-.174 0-.316.142-.316.316v6.499c0 8.347 5.055 15.794 12.292 18.109.062.019.132.019.191 0 7.238-2.315 12.293-9.762 12.293-18.109v-6.499c0-.174-.142-.316-.316-.316-2.352 0-4.266-1.913-4.266-4.265 0-.174-.142-.316-.316-.316z" fill="#000" transform="matrix(2.81 0 0 2.81 1.407 1.407)"/><path d="m58.376 46.675h-18.522c-.552 0-1-.447-1-1 0-.552.448-1 1-1h18.521c.553 0 1 .448 1 1 .001.553-.446 1-.999 1z" fill="#000"/><path d="m58.376 63.398h-3.687c-.306 0-.595-.14-.785-.38l-4.656-5.896h-9.394c-.552 0-1-.447-1-1s.448-1 1-1h9.878c.306 0 .595.14.785.38l4.656 5.896h3.202c.553 0 1 .447 1 1s-.446 1-.999 1z" fill="#000"/><path d="m49.732 36.227h-9.878c-.552 0-1-.448-1-1s.448-1 1-1h9.394l4.656-5.895c.19-.24.479-.38.785-.38h3.687c.553 0 1 .448 1 1s-.447 1-1 1h-3.202l-4.656 5.895c-.191.239-.48.38-.786.38z" fill="#000"/><circle cx="63.835" cy="62.395" fill="#f7bf50" r="4.735"/><path d="m63.834 68.133c-3.162 0-5.734-2.572-5.734-5.734s2.572-5.734 5.734-5.734 5.734 2.572 5.734 5.734-2.572 5.734-5.734 5.734zm0-9.469c-2.06 0-3.734 1.675-3.734 3.734s1.675 3.734 3.734 3.734 3.734-1.675 3.734-3.734-1.674-3.734-3.734-3.734z" fill="#000"/><circle cx="63.835" cy="45.675" fill="#7ec6c5" r="4.735"/><path d="m63.834 51.409c-3.162 0-5.734-2.572-5.734-5.734s2.572-5.735 5.734-5.735 5.734 2.573 5.734 5.735-2.572 5.734-5.734 5.734zm0-9.469c-2.06 0-3.734 1.675-3.734 3.735s1.675 3.734 3.734 3.734 3.734-1.675 3.734-3.734-1.674-3.735-3.734-3.735z" fill="#000"/><circle cx="63.835" cy="28.955" fill="#f17b7b" r="4.735"/><path d="m63.834 34.686c-3.162 0-5.734-2.572-5.734-5.734s2.572-5.735 5.734-5.735 5.734 2.573 5.734 5.735-2.572 5.734-5.734 5.734zm0-9.47c-2.06 0-3.734 1.675-3.734 3.735 0 2.059 1.675 3.734 3.734 3.734s3.734-1.675 3.734-3.734-1.674-3.735-3.734-3.735z" fill="#000"/><path d="m1 59.807v-28.265c0-2.763 2.24-5.003 5.003-5.003h28.265c2.763 0 5.003 2.24 5.003 5.003v28.265c0 2.763-2.24 5.003-5.003 5.003h-28.265c-2.763.001-5.003-2.239-5.003-5.003z" fill="#f7bf50"/><g fill="#000"><path d="m34.269 65.811h-28.266c-3.31 0-6.003-2.694-6.003-6.003v-28.266c0-3.31 2.693-6.003 6.003-6.003h28.265c3.31 0 6.003 2.693 6.003 6.003v28.266c0 3.309-2.692 6.003-6.002 6.003zm-28.266-38.272c-2.207 0-4.003 1.796-4.003 4.003v28.266c0 2.207 1.796 4.003 4.003 4.003h28.265c2.207 0 4.003-1.796 4.003-4.003v-28.266c0-2.207-1.796-4.003-4.003-4.003z"/><path d="m19.072 54.476c-.552 0-1-.447-1-1v-12.238c0-1.304-1.061-2.364-2.364-2.364h-2.956c-1.303 0-2.364 1.061-2.364 2.364v12.238c0 .553-.448 1-1 1s-1-.447-1-1v-12.238c0-2.406 1.958-4.364 4.364-4.364h2.956c2.406 0 4.364 1.958 4.364 4.364v12.238c0 .552-.447 1-1 1z"/><path d="m19.072 46.675h-9.684c-.552 0-1-.447-1-1 0-.552.448-1 1-1h9.684c.552 0 1 .448 1 1 0 .553-.447 1-1 1z"/><path d="m27.685 54.476c-.552 0-1-.447-1-1v-15.602c0-.552.448-1 1-1s1 .448 1 1v15.602c0 .552-.448 1-1 1z"/><path d="m30.884 38.874h-6.397c-.552 0-1-.448-1-1s.448-1 1-1h6.397c.552 0 1 .448 1 1s-.448 1-1 1z"/><path d="m30.884 54.476h-6.397c-.552 0-1-.447-1-1s.448-1 1-1h6.397c.552 0 1 .447 1 1s-.448 1-1 1z"/></g></g></svg>