<svg id="Icons" viewBox="0 0 60 60" xmlns="http://www.w3.org/2000/svg"><path d="m28.713 2.399c-.173 0-.341-.089-.434-.25-.138-.239-.056-.545.183-.683l1.472-.85c.238-.139.545-.057.683.183.138.239.056.545-.183.683l-1.472.85c-.079.045-.165.067-.25.067z" fill="#e6e7ec"/><path d="m29.339 59.304c-.166 0-.328-.082-.422-.232-.144-.226-.083-.524.136-.678l7.356-5.121-8.874 5.123c-.234.138-.536.06-.677-.172-.142-.232-.072-.534.156-.682l3.207-2.062-3.974 2.294c-.234.136-.534.061-.675-.17-.142-.229-.076-.531.15-.68l9.822-6.484-11.041 6.375c-.234.138-.536.06-.677-.173s-.071-.535.158-.681l7.883-5.037-8.739 5.045c-.234.138-.535.06-.677-.173-.142-.231-.072-.533.156-.681l11.38-7.314-12.361 7.137c-.236.137-.541.059-.679-.177-.14-.234-.066-.538.167-.682l.9-.554-1.287.742c-.234.138-.535.06-.677-.173-.141-.231-.071-.534.157-.681l14.633-9.382-15.619 9.017c-.237.137-.54.058-.68-.177s-.065-.539.168-.682l3.63-2.231-4.003 2.311c-.237.137-.538.06-.678-.174s-.069-.536.162-.682l14.165-8.93-14.886 8.595c-.238.138-.541.058-.68-.178-.14-.235-.064-.539.17-.682l.816-.497-1.042.602c-.236.137-.538.06-.678-.175-.141-.233-.068-.536.162-.681l15.999-10.06-16.649 9.611c-.237.138-.541.058-.68-.178s-.064-.539.17-.682l4.279-2.609-4.496 2.595c-.237.137-.539.058-.679-.175s-.068-.537.164-.682l16.769-10.492-17.298 9.986c-.238.137-.541.058-.68-.178-.14-.235-.063-.54.17-.683l3.601-2.188-3.727 2.151c-.237.138-.539.059-.679-.176s-.066-.538.166-.682l14.97-9.272-15.309 8.838c-.237.138-.541.058-.681-.179-.139-.235-.062-.54.172-.682l.22-.133-.236.136c-.238.138-.541.059-.68-.177-.14-.235-.065-.539.168-.683l10.787-6.605-10.932 6.312c-.237.138-.539.058-.679-.175s-.068-.537.164-.682l20.532-12.853-20.876 12.052c-.237.137-.541.058-.68-.177-.14-.235-.065-.539.168-.683l12.522-7.676-12.6 7.274c-.236.138-.539.059-.679-.176-.141-.234-.067-.537.165-.682l18.857-11.715-19.015 10.978c-.236.137-.539.058-.679-.175-.141-.234-.067-.538.164-.682l20.47-12.77-20.596 11.891c-.237.137-.54.058-.679-.176-.14-.235-.066-.539.167-.683l16.689-10.309-16.678 9.629c-.237.137-.539.058-.679-.176s-.066-.538.166-.682l16.04-9.954-15.981 9.226c-.236.137-.538.058-.678-.175-.141-.233-.068-.536.163-.682l16.374-10.269-16.286 9.412c-.237.137-.538.059-.678-.174-.141-.232-.07-.536.16-.681l16.196-10.256-16.062 9.274c-.237.136-.539.058-.679-.177-.14-.234-.066-.538.166-.682l7.22-4.465-6.936 4.004c-.236.136-.538.058-.678-.175-.141-.233-.068-.537.162-.682l11.131-7-10.849 6.264c-.237.136-.54.058-.68-.177s-.065-.539.168-.682l1.254-.77-.874.504c-.236.135-.539.058-.679-.175-.14-.234-.068-.537.164-.682l7.254-4.539-6.875 3.97c-.236.135-.538.059-.678-.174-.141-.233-.069-.536.161-.682l8.696-5.495-8.29 4.786c-.236.136-.537.058-.678-.174-.141-.233-.07-.536.16-.681l8.704-5.53-8.257 4.767c-.235.135-.535.06-.676-.172-.142-.231-.073-.533.154-.681l11.033-7.154-10.545 6.088c-.235.135-.535.059-.676-.171-.142-.231-.075-.532.152-.681l11.047-7.229-10.48 6.051c-.232.134-.526.061-.671-.163-.144-.225-.086-.523.132-.678l4.03-2.856-3.37 1.946c-.226.129-.509.066-.658-.144-.149-.211-.113-.5.083-.668l3.936-3.374-3.035 1.752c-.217.126-.494.071-.647-.129-.153-.199-.134-.481.044-.658l1.902-1.896-.786.454c-.203.119-.462.077-.622-.099-.158-.175-.172-.438-.033-.628l.873-1.2c-.081-.042-.152-.108-.201-.193-.138-.239-.056-.545.183-.683l1.221-.705c.205-.117.464-.077.622.099s.172.438.033.628l-.536.738 2.056-1.188c.22-.125.495-.07.647.129.153.199.134.481-.044.658l-1.902 1.896 4.393-2.537c.224-.13.508-.067.658.144.149.211.113.5-.083.669l-3.937 3.374 8.019-4.629c.231-.133.526-.062.671.163.144.225.086.523-.132.678l-4.032 2.857 16.65-9.612c.233-.135.534-.061.676.171.142.231.074.532-.152.681l-11.047 7.23 11.817-6.823c.235-.135.534-.06.677.172.142.231.072.533-.154.681l-11.028 7.15 11.919-6.882c.237-.134.537-.059.678.174s.07.536-.159.681l-8.706 5.531 9.529-5.501c.237-.134.537-.058.678.174.141.233.069.536-.16.682l-8.693 5.493 9.625-5.557c.236-.136.538-.059.679.175s.067.537-.163.682l-7.264 4.544 8.218-4.745c.237-.137.539-.058.68.177.14.235.065.539-.168.682l-1.239.761 1.997-1.153c.236-.135.537-.058.678.175.142.233.069.537-.161.682l-11.139 7.005 12.643-7.299c.237-.137.539-.059.679.177.141.234.066.538-.166.682l-7.22 4.465 8.612-4.973c.237-.136.537-.059.678.174s.069.536-.16.681l-16.193 10.254 18.798-10.854c.237-.135.538-.059.679.175.141.233.068.537-.163.681l-16.375 10.271 19.538-11.28c.236-.137.537-.058.679.176.141.234.067.538-.165.682l-16.035 9.951 18.563-10.718c.237-.137.539-.058.68.177.14.234.065.538-.167.682l-16.691 10.311 16.834-9.719c.236-.137.537-.059.679.176.141.234.067.537-.164.682l-20.475 12.772 20.478-11.823c.236-.136.538-.059.679.176.141.234.067.538-.165.682l-18.851 11.711 18.686-10.789c.236-.137.538-.058.68.177.14.235.064.539-.168.682l-12.539 7.686 12.223-7.057c.236-.135.538-.059.679.175s.067.537-.163.682l-20.528 12.851 20.173-11.647c.236-.137.538-.059.68.178.14.235.064.539-.169.682l-10.772 6.597 10.304-5.949c.237-.137.54-.058.681.179.14.236.062.541-.172.682l-.447.271c.223-.091.487-.008.615.207.141.234.066.538-.165.682l-14.968 9.271 14.411-8.32c.237-.138.54-.058.681.178.139.236.063.54-.171.682l-3.608 2.193 3.037-1.754c.237-.135.538-.058.679.175.141.234.067.537-.163.682l-16.765 10.489 16.092-9.29c.237-.137.54-.058.68.178s.064.54-.169.682l-4.292 2.618 3.634-2.098c.237-.135.536-.059.679.175.141.233.068.537-.162.682l-15.998 10.059 15.186-8.768c.236-.137.54-.058.68.178.14.235.064.54-.17.682l-.799.486.062-.036c.237-.135.537-.058.678.175s.069.536-.161.681l-14.166 8.929 13.187-7.613c.236-.137.538-.058.68.177.14.234.065.539-.168.682l-3.635 2.234 2.744-1.584c.236-.137.537-.059.677.173.142.231.071.534-.157.681l-14.631 9.381 13.355-7.71c.237-.138.539-.06.68.177.14.234.065.538-.168.682l-.992.611c.226-.099.495-.018.627.198.142.231.072.533-.156.681l-11.386 7.317 9.843-5.682c.237-.136.536-.059.678.173.141.232.07.535-.158.681l-7.869 5.028 6.234-3.6c.233-.137.533-.062.676.17.142.229.075.531-.15.68l-9.828 6.488 7.56-4.364c.236-.137.535-.059.677.172.142.232.072.534-.156.682l-3.211 2.064 1.07-.617c.232-.135.528-.062.672.165.144.226.084.524-.136.678l-7.354 5.119 3.122-1.803c.238-.139.545-.058.683.183.139.239.057.545-.183.683l-13.367 7.718c-.079.046-.165.067-.25.067z" fill="#e6e7ec"/><path d="m30.037 55.271c-.166 0-.328-.082-.422-.231-.144-.227-.083-.525.136-.679l1.221-.85-1.987 1.146c-.232.137-.532.062-.675-.169-.143-.229-.077-.53.148-.68l1.301-.866-1.957 1.129c-.23.136-.528.062-.671-.164-.144-.226-.085-.524.134-.678l8.686-6.09-10.087 5.823c-.234.138-.536.06-.677-.173-.141-.232-.071-.535.158-.681l2.165-1.383-2.699 1.558c-.235.136-.535.06-.677-.172-.141-.231-.073-.533.155-.681l6.433-4.162-7.153 4.13c-.232.138-.532.062-.675-.169-.143-.229-.077-.53.147-.68l12.375-8.245-13.491 7.788c-.234.139-.536.06-.677-.173-.141-.232-.071-.534.158-.681l9.052-5.789-9.7 5.6c-.236.138-.539.059-.679-.176-.141-.233-.067-.537.165-.682l3.788-2.358-4.132 2.385c-.237.138-.539.058-.679-.176s-.066-.538.166-.682l3.804-2.362-4.105 2.37c-.235.138-.536.06-.677-.173-.141-.232-.071-.534.158-.681l13.144-8.413-13.778 7.954c-.238.138-.54.059-.679-.177-.14-.234-.066-.538.167-.682l3.05-1.879-3.245 1.873c-.235.139-.535.06-.677-.173-.141-.231-.071-.534.158-.681l15.638-10.021-16.222 9.365c-.237.138-.538.059-.678-.175-.141-.233-.068-.536.162-.682l12.288-7.718-12.622 7.287c-.237.137-.54.059-.68-.177-.14-.235-.065-.539.168-.683l2.881-1.764-2.932 1.692c-.236.136-.538.059-.678-.174-.141-.232-.07-.535.16-.681l16.418-10.423-16.778 9.687c-.238.137-.54.059-.68-.177-.14-.235-.065-.539.168-.682l6.125-3.763-6.14 3.544c-.237.137-.54.059-.68-.177-.14-.235-.065-.539.168-.682l6.454-3.965-6.443 3.72c-.236.137-.538.058-.679-.176s-.067-.537.164-.681l13.021-8.118-13.087 7.556c-.236.137-.54.059-.68-.177-.14-.235-.065-.539.168-.682l7.04-4.324-6.962 4.02c-.237.137-.538.059-.678-.174-.141-.232-.07-.535.16-.681l15.498-9.83-15.534 8.968c-.234.139-.536.06-.677-.173-.141-.232-.071-.535.158-.682l14.147-9.031-14.107 8.144c-.237.138-.537.059-.677-.173-.141-.232-.071-.535.159-.682l11.666-7.433-11.528 6.656c-.237.136-.539.057-.679-.176-.14-.234-.066-.538.166-.682l3.064-1.902-2.777 1.604c-.236.135-.539.058-.679-.176-.141-.234-.067-.537.164-.682l3.456-2.155-3.146 1.816c-.234.135-.533.06-.675-.17s-.076-.531.149-.68l12.7-8.41-12.458 7.193c-.233.135-.534.06-.676-.171s-.075-.532.152-.681l9.826-6.432-9.481 5.475c-.237.135-.538.058-.678-.175-.141-.233-.068-.537.162-.682l1.455-.915-1.027.593c-.235.135-.534.059-.676-.171s-.074-.532.152-.68l7.327-4.786-6.884 3.975c-.234.137-.536.059-.677-.173-.142-.231-.072-.534.156-.681l4.063-2.614-3.565 2.059c-.234.134-.531.06-.674-.167-.143-.228-.08-.528.143-.679l.854-.581-.325.188c-.225.13-.51.066-.659-.145s-.112-.502.085-.669l2.887-2.45-2.228 1.287c-.21.121-.476.075-.631-.11-.156-.184-.158-.454-.005-.641l1.463-1.78-.585.338c-.187.107-.423.083-.584-.061s-.211-.376-.124-.574l.421-.955c-.042-.035-.077-.078-.106-.128-.138-.239-.056-.545.183-.683l.517-.298c.187-.107.422-.084.584.061.161.145.211.376.124.574l-.191.434 1.646-.951c.209-.12.476-.075.631.11.156.184.158.454.005.641l-1.463 1.78 4.638-2.678c.225-.13.51-.066.659.145s.112.502-.085.669l-2.888 2.45 7.368-4.253c.233-.135.531-.061.674.167s.08.528-.143.679l-.853.579 9.736-5.621c.236-.135.536-.059.677.173.141.231.071.534-.157.681l-4.063 2.614 4.622-2.669c.236-.135.535-.06.676.171.142.23.074.532-.152.68l-7.328 4.786 8.202-4.735c.237-.135.537-.058.678.175.142.233.069.537-.161.682l-1.443.907 2.007-1.159c.235-.135.534-.06.676.171s.074.532-.152.681l-9.831 6.436 11.119-6.419c.234-.136.533-.06.675.17.143.23.076.531-.148.68l-12.699 8.41 14.518-8.382c.236-.137.537-.059.679.176.141.234.067.537-.164.682l-3.451 2.152 4.463-2.577c.236-.137.537-.058.679.176.141.234.067.538-.165.682l-3.061 1.9 4.16-2.402c.237-.134.537-.058.678.174s.07.535-.159.681l-11.667 7.434 13.725-7.924c.237-.134.536-.058.678.173.141.232.07.535-.158.681l-14.15 9.033 16.896-9.755c.238-.135.537-.059.678.174.141.232.07.535-.16.681l-15.5 9.832 18.04-10.416c.237-.136.539-.058.68.177.14.235.065.539-.168.682l-7.033 4.319 6.766-3.906c.236-.137.538-.059.679.176.141.234.067.537-.164.682l-13.02 8.117 12.71-7.338c.236-.137.538-.058.68.177.14.235.065.539-.168.682l-6.443 3.957 6.031-3.482c.236-.137.538-.058.68.177.14.235.065.539-.168.682l-6.135 3.769 5.669-3.273c.236-.135.537-.058.678.174.141.233.07.536-.16.682l-16.421 10.424 15.889-9.173c.237-.137.539-.058.68.178.14.235.064.539-.169.682l-2.874 1.76 2.319-1.339c.236-.134.538-.058.679.175s.068.536-.163.681l-12.289 7.719 11.662-6.733c.237-.135.536-.06.677.173.142.232.071.534-.157.681l-15.632 10.017 14.887-8.595c.237-.137.539-.059.68.177.14.235.065.539-.167.682l-3.047 1.877 2.35-1.357c.237-.135.536-.059.677.173.142.232.071.534-.157.681l-13.148 8.417 12.248-7.072c.237-.137.537-.058.679.176.141.234.067.538-.165.682l-3.802 2.36 2.965-1.712c.236-.136.537-.058.679.176.141.234.067.538-.164.682l-3.806 2.37 2.898-1.673c.236-.136.536-.059.677.173.142.232.071.534-.157.681l-9.047 5.786 7.899-4.561c.234-.138.531-.061.675.169.143.229.077.53-.147.68l-12.369 8.242 10.759-6.212c.235-.137.534-.061.677.172.142.231.072.533-.155.681l-6.447 4.171 4.922-2.841c.237-.137.535-.059.678.173.141.232.07.535-.158.681l-2.161 1.381.621-.358c.23-.136.527-.062.672.164.144.226.084.524-.135.678l-8.683 6.088 5.693-3.287c.233-.137.531-.062.675.169.143.229.077.53-.147.68l-2.388 1.59c.155.009.304.09.393.231.144.226.084.524-.136.678l-4.054 2.821c.057.04.106.093.143.157.139.239.057.545-.183.683l-6.864 3.964c-.079.046-.165.067-.25.067z" fill="#36a3e0"/><path d="m25.443 41.115c-.157 0-.311-.074-.408-.21-.149-.21-.115-.499.08-.668l1.559-1.352-2.081 1.201c-.227.134-.519.064-.666-.154-.146-.219-.098-.514.11-.675l2.848-2.194-3.462 1.998c-.23.135-.524.062-.668-.159-.146-.222-.092-.52.122-.677l5.203-3.824-6.012 3.471c-.207.121-.47.076-.627-.104s-.165-.446-.018-.635l1.639-2.109-2.558 1.477c-.215.126-.485.072-.641-.12-.154-.193-.145-.47.023-.651l1.298-1.406-1.81 1.044c-.21.124-.479.074-.634-.112-.156-.187-.155-.459.002-.644l1.861-2.192c-.061-.042-.113-.097-.152-.164-.138-.239-.056-.545.183-.683l1.424-.823c.212-.121.479-.073.634.113.156.187.155.458-.002.644l-1.319 1.554 2.161-1.247c.214-.126.486-.072.641.12.154.193.145.47-.023.651l-1.298 1.406 1.92-1.108c.207-.122.47-.077.627.104.157.18.165.446.018.635l-1.639 2.109 11.641-6.72c.229-.131.524-.062.669.16s.091.519-.123.676l-5.201 3.824 2.122-1.225c.227-.133.519-.064.665.154s.099.514-.109.675l-2.851 2.196.11-.063c.225-.13.509-.066.657.143.149.21.115.499-.08.668l-2.221 1.925c.113.037.213.114.277.226.138.239.056.545-.183.683l-3.46 1.998c-.079.046-.165.067-.25.067z" fill="#fff"/><path d="m26.203 34.009c-.167 0-.33-.083-.424-.234-.143-.229-.08-.529.144-.68l1.953-1.322c-.173.026-.35-.076-.449-.234-.143-.229-.078-.53.146-.68l1.694-1.133c-.129-.024-.249-.098-.327-.215-.146-.219-.097-.515.112-.675l4.807-3.673-1.623.937c-.225.13-.513.065-.661-.148-.148-.214-.107-.506.094-.671l2.54-2.083c-.16.008-.32-.056-.426-.189-.154-.194-.143-.472.027-.653l2.116-2.247c-.016-.02-.03-.041-.043-.063-.139-.239-.057-.545.183-.683l1.297-.749c.213-.123.487-.073.642.123.154.194.143.472-.027.653l-1.107 1.176 1.884-1.087c.225-.13.513-.065.661.148.148.214.107.506-.094.671l-2.295 1.882 3.043-1.757c.227-.133.521-.064.666.156.146.219.097.515-.112.675l-4.808 3.673 4.558-2.631c.233-.135.532-.061.675.169.143.229.077.53-.146.68l-1.694 1.134c.134.024.257.103.334.227.143.228.079.528-.144.679l-1.953 1.322c.161-.01.361.081.457.25.139.239.057.545-.183.683l-11.267 6.504c-.079.046-.165.067-.25.067z" fill="#fff"/><g fill="#262626"><path d="m22.692 56.177c5.291 4.06 9.765 3.651 14.911-.399 15.038-9.805 21.675-30.774 16.428-47.683-.87-1.741-3.44-.718-4.934-.614-6.392.51-13.157-1.494-17.531-6.335-3.342-2.504-8.287 8.848-22.258 6.123-3.465-.997-4.11 2.844-4.567 5.396-2.32 16.295 3.549 34.514 17.951 43.512zm-15.694-46.91c.328-2.249 2.844-.727 4.337-.916 6.536.367 13.448-1.638 18.048-6.457.462-.488.711-.299 1.146.159 15.038 14.421 23.994-4.006 23.746 16.574.25 16.472-7.722 34.024-23.981 39.927-19.292-6.645-28.191-30.441-23.296-49.287z"/><path d="m10.182 33.01c2.838 9.645 9.939 18.808 19.611 22.107 16.722-5.815 25.41-27.739 20.795-43.661-7.143.655-14.815-1.311-20.393-5.968-6.437 3.384-12.288 6.719-20.282 5.504-4.124 2.517-.84 17.418.269 22.018zm19.635-26.241c5.601 4.429 12.737 5.97 19.784 5.401 2.971 16.077-3.512 35.389-19.345 42.177-16.02-6.627-22.766-25.923-19.936-42.134 6.931.428 13.948-1.169 19.497-5.444z"/><path d="m21.562 38.142c5.019 5.63 6.562 2.908 10.041-2.16 3.255-4.465 6.607-8.877 9.844-13.345 1.018-1.706-1.517-2.985-2.708-3.745-3.65-1.985-10.024 11.585-12.965 14.172-1.678-1.794-3.985-3.6-5.791-.926-3.303 2.609-.763 4.103 1.579 6.004zm-1.025-4.97c1.618-3.041 2.91-.055 4.603 1.123 2.562.183 4.325-5.213 6.27-6.92 1.921-2.556 3.795-5.222 5.709-7.742.364-.231.792.246 1.131.489.532.382 1.807.965 1.987 1.664-3.094 5.761-8.039 10.911-11.741 16.461-.493.667-1.446 2.74-2.514 1.997-1.261-1.947-8.011-4.704-5.444-7.073z"/></g></svg>