<svg id="Layer_1" height="512" viewBox="0 0 48 48" width="512" xmlns="http://www.w3.org/2000/svg" data-name="Layer 1"><path d="m44 11.46v10.07a19.9 19.9 0 0 1 -9.32 16.91l-9.47 5.98-.68.43a1.011 1.011 0 0 1 -1.06 0l-10.15-6.41a19.9 19.9 0 0 1 -9.32-16.91v-10.07a2.951 2.951 0 0 1 1-2.22 2.676 2.676 0 0 1 .98-.6 16.213 16.213 0 0 0 4.41-2.43 16.279 16.279 0 0 0 2.29-2.18 3.006 3.006 0 0 1 2.26-1.03h18.12a3.006 3.006 0 0 1 2.26 1.03 16.279 16.279 0 0 0 2.29 2.18 16.213 16.213 0 0 0 4.41 2.43 3 3 0 0 1 1.98 2.82z" fill="#68b3f3"/><path d="m44 11.46v10.07a19.9 19.9 0 0 1 -9.32 16.91l-9.47 5.98-10.22-6.45a21.306 21.306 0 0 1 -9.99-18.12v-10.61a2.676 2.676 0 0 1 .98-.6 16.213 16.213 0 0 0 4.41-2.43 16.279 16.279 0 0 0 2.29-2.18 3.006 3.006 0 0 1 2.26-1.03h18.12a3.006 3.006 0 0 1 2.26 1.03 16.279 16.279 0 0 0 2.29 2.18 16.213 16.213 0 0 0 4.41 2.43 3 3 0 0 1 1.98 2.82z" fill="#77d4f5"/><path d="m39.25 13.5v8.78a14.933 14.933 0 0 1 -6.99 12.69l-.07.04-7.19 4.54-.47.3a1.011 1.011 0 0 1 -1.06 0l-.47-.3-7.14-4.51a15.172 15.172 0 0 1 -7.11-12.89v-8.65a1 1 0 0 1 .73-.96 12.144 12.144 0 0 0 4.16-2.08 11.9 11.9 0 0 0 1.55-1.46 7.6 7.6 0 0 0 .52-.61.985.985 0 0 1 .79-.39h15a.985.985 0 0 1 .79.39 11.927 11.927 0 0 0 2.07 2.07 12.144 12.144 0 0 0 4.16 2.08 1 1 0 0 1 .73.96z" fill="#d7e4f7"/><path d="m36.75 14.76v9.19a15.561 15.561 0 0 1 -4.56 11.06l-7.19 4.54-.47.3a1.011 1.011 0 0 1 -1.06 0l-.47-.3-7.14-4.51a15.172 15.172 0 0 1 -7.11-12.89v-8.65a1 1 0 0 1 .73-.96 12.144 12.144 0 0 0 4.16-2.08 11.9 11.9 0 0 0 1.55-1.46h13.45a1.032 1.032 0 0 1 .82.41 12.731 12.731 0 0 0 2.17 2.17 12.746 12.746 0 0 0 4.36 2.17 1.05 1.05 0 0 1 .76 1.01z" fill="#e9f1ff"/><path d="m31.061 17.939a1.5 1.5 0 0 0 -2.122 0l-5.939 5.94-2.939-2.94a1.5 1.5 0 0 0 -2.122 2.122l4 4a1.5 1.5 0 0 0 2.122 0l7-7a1.5 1.5 0 0 0 0-2.122z" fill="#77d4f5"/></svg>