<?xml version="1.0" encoding="UTF-8"?>
<svg xmlns="http://www.w3.org/2000/svg" viewBox="0 0 64 64" width="512" height="512"><g id="color"><path d="M40,25V21a6,6,0,0,0-6-6H30a6,6,0,0,0-6,6v4l-2,8H42Z" style="fill:#ffa31d"/><path d="M30,33h4a0,0,0,0,1,0,0v3a2,2,0,0,1-2,2h0a2,2,0,0,1-2-2V33a0,0,0,0,1,0,0Z" style="fill:#f9b995"/><path d="M26,21H38a0,0,0,0,1,0,0v8a6,6,0,0,1-6,6h0a6,6,0,0,1-6-6V21A0,0,0,0,1,26,21Z" style="fill:#ffd3b6"/><path d="M38,27H34.828a2,2,0,0,1-1.414-.586L32,25l-1.414,1.414A2,2,0,0,1,29.172,27H26a2,2,0,0,1-2-2V23a2,2,0,0,1,2-2H38a2,2,0,0,1,2,2v2A2,2,0,0,1,38,27Z" style="fill:#47cbf4"/><path d="M61,57A107.131,107.131,0,0,1,3,57V37a107.122,107.122,0,0,0,58,0Z" style="fill:#47cbf4"/><path d="M49,48v5l-4.42-1.77a1.937,1.937,0,0,1-.92-.75L40,45V60.69c-2.67.21-5.33.31-8,.31s-5.33-.1-8-.31V45l-3.66,5.48a1.937,1.937,0,0,1-.92.75L15,53V48l3-2,3.67-5.51,1.14-1.71A4,4,0,0,1,26.14,37H37.86a4,4,0,0,1,3.33,1.78l1.14,1.71L46,46Z" style="fill:#706ecf"/><path d="M40,45l3.655,5.483a2.006,2.006,0,0,0,.922.748L49,53V48l-3-2-3.677-5.515a105.347,105.347,0,0,1-20.646,0L18,46l-3,2v5l4.423-1.769a2.006,2.006,0,0,0,.922-.748L24,45V60.685a105.243,105.243,0,0,0,16,0Z" style="fill:#706ecf"/><path d="M15,31.921a16.123,16.123,0,0,1-12,0l1.246-2.044A12,12,0,0,0,6,23.63V22a5,5,0,0,0,6,0v1.63a12,12,0,0,0,1.754,6.247Z" style="fill:#00c383"/><path d="M49,25H61a0,0,0,0,1,0,0v6a2,2,0,0,1-2,2H51a2,2,0,0,1-2-2V25A0,0,0,0,1,49,25Z" style="fill:#ffa31d"/><path d="M49.764,9H48L40,3l-.517.258A2.684,2.684,0,0,0,38,5.658h0a2.685,2.685,0,0,0,1.073,2.147L46,13h7l-1.447-2.894A2,2,0,0,0,49.764,9Z" style="fill:#00c383"/><circle cx="15" cy="11" r="2" style="fill:#47cbf4"/><circle cx="23" cy="11" r="2" style="fill:#47cbf4"/><path d="M11,51l.447.894A2,2,0,0,0,13.236,53H15V48H10.5A1.5,1.5,0,0,0,9,49.5H9A1.5,1.5,0,0,0,10.5,51Z" style="fill:#ffd3b6"/><path d="M53,51l-.447.894A2,2,0,0,1,50.764,53H49V48h4.5A1.5,1.5,0,0,1,55,49.5h0A1.5,1.5,0,0,1,53.5,51Z" style="fill:#ffd3b6"/><path d="M23,21v3.877l-1.97,7.881A1,1,0,0,0,22,34h5.111A7.037,7.037,0,0,0,29,35.315V36H26.141a5,5,0,0,0-3.307,1.25,1,1,0,1,0,1.322,1.5A3,3,0,0,1,26.141,38H29.78a2.964,2.964,0,0,0,4.44,0h3.639a3,3,0,0,1,1.985.75,1,1,0,0,0,1.322-1.5A5,5,0,0,0,37.859,36H35v-.685A7.037,7.037,0,0,0,36.889,34H42a1,1,0,0,0,.97-1.242L41,24.877V21a7.009,7.009,0,0,0-7-7H30A7.009,7.009,0,0,0,23,21Zm16,4a1,1,0,0,1-1,1H34.828a1,1,0,0,1-.707-.293l-1.414-1.414a1,1,0,0,0-1.414,0l-1.414,1.414a1,1,0,0,1-.707.293H26a1,1,0,0,1-1-1V23a1,1,0,0,1,1-1H38a1,1,0,0,1,1,1ZM24.4,27.528a3,3,0,0,0,.6.288V29a6.955,6.955,0,0,0,.685,3h-2.4ZM33,36a1,1,0,0,1-2,0v-.08a6.29,6.29,0,0,0,2,0Zm-1-2a5.006,5.006,0,0,1-5-5V28h2.172a2.978,2.978,0,0,0,2.121-.879L32,26.414l.707.707A2.978,2.978,0,0,0,34.828,28H37v1A5.006,5.006,0,0,1,32,34Zm6.315-2A6.955,6.955,0,0,0,39,29V27.816a3,3,0,0,0,.6-.288L40.719,32ZM30,16h4a5,5,0,0,1,4.915,4.158A2.953,2.953,0,0,0,38,20H26a2.953,2.953,0,0,0-.915.158A5,5,0,0,1,30,16Z"/><path d="M33.293,30.293a1.537,1.537,0,0,1-2.586,0,1,1,0,0,0-1.414,1.414A3.858,3.858,0,0,0,32,33a3.858,3.858,0,0,0,2.707-1.29,1,1,0,0,0-1.414-1.414Z"/><path d="M60.734,36.036a106.617,106.617,0,0,1-57.468,0A1,1,0,0,0,2,37V57a1,1,0,0,0,.734.964A109.7,109.7,0,0,0,32,61.981a109.7,109.7,0,0,0,29.266-4.017A1,1,0,0,0,62,57V37a1,1,0,0,0-1.266-.964ZM60,56.236a106.552,106.552,0,0,1-56,0V38.306a111.294,111.294,0,0,0,15.939,2.982l-2.66,3.991L14.7,47H10.5a2.5,2.5,0,0,0-.119,5l.172.345A2.985,2.985,0,0,0,13.236,54H15c.014,0,.026-.008.04-.008a1.012,1.012,0,0,0,.331-.063l.018-.007h0l4.4-1.762a2.991,2.991,0,0,0,1.383-1.121L23,48.3V57a1,1,0,0,0,2,0V45a1,1,0,0,0-1.832-.555l-3.654,5.483a1.007,1.007,0,0,1-.462.374L16,51.522V48.535l2.555-1.7a1,1,0,0,0,.277-.277l3.355-5.032a107.3,107.3,0,0,0,19.625,0l3.356,5.033a1,1,0,0,0,.277.277L48,48.535v2.987L44.948,50.3a1,1,0,0,1-.461-.373l-3.655-5.484A1,1,0,0,0,39,45V57a1,1,0,0,0,2,0V48.3l1.824,2.736a2.988,2.988,0,0,0,1.382,1.12l4.4,1.762h0l.018.007a.972.972,0,0,0,.336.064c.012,0,.022.007.035.007h1.764a2.985,2.985,0,0,0,2.683-1.658L53.619,52a2.5,2.5,0,0,0-.119-5H49.3l-2.582-1.721L44.06,41.288A111.611,111.611,0,0,0,60,38.306ZM13.236,52a.993.993,0,0,1-.894-.553l-.447-.894A1,1,0,0,0,11,50h-.5a.5.5,0,0,1,0-1H14v3ZM53.5,49a.5.5,0,0,1,0,1H53a1,1,0,0,0-.9.553l-.447.894a.993.993,0,0,1-.894.553H50V49Z"/><path d="M2.64,32.854A17.553,17.553,0,0,0,9,34.076a17.553,17.553,0,0,0,6.36-1.222,1,1,0,0,0,.494-1.454l-1.247-2.044A11,11,0,0,1,13,23.631v-1.47l.948-2.845a1,1,0,1,0-1.9-.632L11.17,21.33a3.9,3.9,0,0,1-4.34,0l-.882-2.646a1,1,0,1,0-1.9.632L5,22.161v1.47a11,11,0,0,1-1.607,5.725L2.146,31.4a1,1,0,0,0,.494,1.454ZM5.1,30.4A12.988,12.988,0,0,0,7,23.631a5.691,5.691,0,0,0,4,0A12.988,12.988,0,0,0,12.9,30.4l.6.986a15.025,15.025,0,0,1-9,0Z"/><path d="M61,24H59.847l-.368-2.2a4.541,4.541,0,0,0-8.958,0L50.153,24H49a1,1,0,0,0-1,1v6a3,3,0,0,0,3,3h8a3,3,0,0,0,3-3V25A1,1,0,0,0,61,24Zm-8.507-1.877a2.542,2.542,0,0,1,5.014,0L57.819,24H52.181ZM58.919,26l-1.451,1.814a3.16,3.16,0,0,1-4.936,0L51.081,26ZM59,32H51a1,1,0,0,1-1-1V27.851l.97,1.211a5.16,5.16,0,0,0,8.06,0L60,27.852V31A1,1,0,0,1,59,32Z"/><path d="M11,54a4,4,0,0,1,0-8,1,1,0,0,0,0-2,6,6,0,0,0,0,12,1,1,0,0,0,0-2Z"/><path d="M53,46a4,4,0,0,1,0,8,1,1,0,0,0,0,2,6,6,0,0,0,0-12,1,1,0,0,0,0,2Z"/><path d="M38.474,8.6,39,9h0v4a1,1,0,0,0,2,0V10.5l4.4,3.3a1,1,0,0,0,.6.2h7a1,1,0,0,0,.9-1.447l-1.448-2.9A2.985,2.985,0,0,0,49.764,8H48.333L40.6,2.2a1,1,0,0,0-1.048-.1l-.516.259a3.682,3.682,0,0,0-.562,6.24ZM39.9,4.172,47.4,9.8a1,1,0,0,0,.6.2h1.764a.993.993,0,0,1,.894.553L51.382,12H46.333l-6.66-4.995A1.693,1.693,0,0,1,39,5.658,1.671,1.671,0,0,1,39.9,4.172Z"/><path d="M12.162,11.928A2.981,2.981,0,0,0,17.816,12h2.368a2.981,2.981,0,0,0,5.654-.072A2.985,2.985,0,0,0,28.07,8.051L26.948,4.684a1,1,0,1,0-1.9.632l1.122,3.368a.991.991,0,0,1-.138.9.972.972,0,0,1-.277.239A2.99,2.99,0,0,0,20.184,10H17.816a2.99,2.99,0,0,0-5.575-.175.937.937,0,0,1-.415-1.141l1.122-3.368a1,1,0,1,0-1.9-.632L9.93,8.051a2.985,2.985,0,0,0,2.232,3.877ZM23,10a1,1,0,1,1-1,1A1,1,0,0,1,23,10Zm-8,0a1,1,0,1,1-1,1A1,1,0,0,1,15,10Z"/></g></svg>
