<svg id="Icons" height="512" viewBox="0 0 60 60" width="512" xmlns="http://www.w3.org/2000/svg"><path d="m54 21v34a4 4 0 0 1 -4 4h-40a4 4 0 0 1 -4-4v-34l24-16z" fill="#193870"/><g fill="#3fb2e0"><path d="m12 54h-6v-2h6a1 1 0 0 0 1-1v-8h2v8a3 3 0 0 1 -3 3z"/><path d="m22 59h-2v-19.76a2.013 2.013 0 0 0 -.587-1.413l-6.12-6.12 1.414-1.414 6.12 6.12a4.025 4.025 0 0 1 1.173 2.827z"/><path d="m28 59h-2v-27.76a2.013 2.013 0 0 0 -.587-1.413l-5.62-5.62 1.414-1.414 5.62 5.62a4.025 4.025 0 0 1 1.173 2.827z"/><path d="m54 54h-6a3 3 0 0 1 -3-3v-8h2v8a1 1 0 0 0 1 1h6z"/><path d="m40 59h-2v-19.76a4.026 4.026 0 0 1 1.173-2.827l6.62-6.62 1.414 1.414-6.62 6.62a2.013 2.013 0 0 0 -.587 1.413z"/><path d="m34 59h-2v-27.76a4.026 4.026 0 0 1 1.173-2.827l6.62-6.62 1.414 1.414-6.62 6.62a2.013 2.013 0 0 0 -.587 1.413z"/><path d="m29 6.22h2v13.78h-2z"/></g><path d="m2.453 23.779a1.067 1.067 0 0 0 1.482.267l25.472-17.634a1.036 1.036 0 0 1 1.187 0l25.471 17.634a1.067 1.067 0 0 0 1.482-.267l1.275-1.829a.991.991 0 0 0 -.249-1.382l-27.979-19.382a1.04 1.04 0 0 0 -1.187 0l-27.98 19.382a.991.991 0 0 0 -.249 1.382z" fill="#132f56"/><circle cx="14" cy="42" fill="#40f2ff" r="3"/><circle cx="13" cy="30" fill="#40f2ff" r="3"/><circle cx="19" cy="22" fill="#40f2ff" r="3"/><circle cx="46" cy="42" fill="#40f2ff" r="3"/><circle cx="47" cy="30" fill="#40f2ff" r="3"/><circle cx="41" cy="22" fill="#40f2ff" r="3"/><circle cx="30" cy="21" fill="#40f2ff" r="3"/></svg>