<svg height="512" viewBox="0 0 128 128" width="512" xmlns="http://www.w3.org/2000/svg"><g id="Flat"><g id="Color"><circle cx="58.5" cy="29.5" fill="#26c6da" r="17.997" transform="matrix(.18 -.984 .984 .18 18.951 81.734)"/><path d="m84.477 94.6c-3.443-5.756-11.977-16.1-11.977-16.1a6.007 6.007 0 0 0 6-6.368c-.507-9.072-3.7-24.632-20-24.632-10 0-16.991 6.9-18.011 8.023a48.346 48.346 0 0 0 -9.418 14.811 5.72 5.72 0 0 0 2.494 7.2 5.544 5.544 0 0 0 7.12-1.718 69.925 69.925 0 0 0 3.815-6.316c-.287 5.4-.233 12.166-.141 16.757a14.974 14.974 0 0 0 3.452 9.279c1.467 1.769 13.621 13.935 20.673 20.969a7.093 7.093 0 0 0 11.016-8.792l-3.907-6.236a5.618 5.618 0 0 0 8.407.523c2-2 1.928-4.976.477-7.4z" fill="#26c6da"/><path d="m77.163 29.61-12.27-2.385-1.145 5.89 12.27 2.385a1.5 1.5 0 0 0 1.759-1.186l.573-2.945a1.5 1.5 0 0 0 -1.187-1.759z" fill="#263238"/><rect fill="#37474f" height="28" rx="5" transform="matrix(.191 -.982 .982 .191 14.541 73.018)" width="14" x="44.559" y="13.689"/><rect fill="#9c27b0" height="16" rx="3" width="16" x="1.5" y="110.5"/><rect fill="#00bcd4" height="14.364" rx="3" transform="matrix(.707 -.707 .707 .707 26.627 85.969)" width="14.364" x="109.904" y="3.661"/><circle cx="118" cy="118" fill="#5e35b1" r="8.5"/><path d="m18.7 13.525-5.588-9.893a3 3 0 0 0 -5.224 0l-5.588 9.893a3 3 0 0 0 2.612 4.475h11.176a3 3 0 0 0 2.612-4.475z" fill="#ffca28"/><path d="m43.237 64a1.459 1.459 0 0 0 -1.565 1.431l-.428 9.542c1.049-1.585 2.134-3.424 3.247-5.461l.177-3.947a1.5 1.5 0 0 0 -1.431-1.565z" fill="#00acc1"/><path d="m71.289 89.739a1.5 1.5 0 0 1 -.228-1.131l3.638-7.39s-1.472-1.833-2.2-2.718c-3.575.087-5.5-3.246-5.082-6.818a19.581 19.581 0 0 0 -.377-6.182 1.5 1.5 0 0 0 -2.883.828 16.809 16.809 0 0 1 .279 5.029c-.594 4.887 2.24 9.455 6.819 10.065l-2.955 6.009a4.391 4.391 0 0 0 .5 3.974l6.8 10.072a5.6 5.6 0 0 0 4.867 2.146z" fill="#00acc1"/><path d="m125.581 45.639c-4.253-9.652-29.73-5.584-50.61.97a1.5 1.5 0 0 0 .9 2.862c27.668-8.749 44.426-7.7 46.93-2.71 3.919 7.805-28.757 28.432-52.192 38.108-15.172 6.265-59.476 19.317-64 8.838-1.826-4.235 5.668-12.574 18.847-21.14a1.5 1.5 0 1 0 -1.635-2.515c-8.872 5.775-23.521 16.766-19.992 24.779 6.537 14.825 55.665-2.263 67.9-7.181 21.297-8.557 59.21-29.85 53.852-42.011z" fill="#5e35b1"/></g></g></svg>