<svg height="512" viewBox="0 0 64 64" width="512" xmlns="http://www.w3.org/2000/svg"><g id="laptop_&#xB7;_rocket_&#xB7;_internet_&#xB7;_start_up_&#xB7;_launch" data-name="laptop &#xB7; rocket &#xB7; internet &#xB7; start up &#xB7; launch"><path d="m8 13h48a2 2 0 0 1 2 2v30a0 0 0 0 1 0 0h-52a0 0 0 0 1 0 0v-30a2 2 0 0 1 2-2z" fill="#004fac"/><path d="m10 17h44v24h-44z" fill="#bddbff"/><path d="m61 57v2a2.006 2.006 0 0 1 -2 2h-54a2.006 2.006 0 0 1 -2-2v-2z" fill="#58595b"/><path d="m61 57h-58l3-12h52z" fill="#939598"/><path d="m58 45h-2.726a9.654 9.654 0 0 1 -9.643 10h-42.131l-.5 2h58z" fill="#808285"/><path d="m38 53h-12l-1 4h14z" fill="#d1d3d4"/><path d="m25.5 55-.5 2h14l-.5-2z" fill="#bcbec0"/><path d="m30 41h24v-24a24 24 0 0 1 -24 24z" fill="#9bc9ff"/><path d="m24 38a2.888 2.888 0 0 0 -1.21.26 3.786 3.786 0 0 0 .21-1.26 4 4 0 0 0 -4-4 5 5 0 0 0 -9-3v11h17a3 3 0 0 0 -3-3z" fill="#ff9811"/><path d="m50 28a5 5 0 0 0 -5 5 4 4 0 0 0 -4 4 3.786 3.786 0 0 0 .21 1.26 2.888 2.888 0 0 0 -1.21-.26 3 3 0 0 0 -3 3h17v-11a5.01 5.01 0 0 0 -4-2z" fill="#ff9811"/><path d="m51.246 28.161a24.1 24.1 0 0 1 -10.046 10.065c0 .011.005.023.009.034-.015-.007-.031-.009-.046-.015a23.775 23.775 0 0 1 -3.948 1.649 2.989 2.989 0 0 0 -.215 1.106h17v-11a5.023 5.023 0 0 0 -2.754-1.839z" fill="#ee8700"/><path d="m35.714 7.7a17.957 17.957 0 0 0 -2.986-3.976l-.728-.724-.728.728a17.957 17.957 0 0 0 -2.986 3.972 5.97 5.97 0 0 0 7.428 0z" fill="#ed1c24"/><path d="m38 16.46v12.54h-12v-12.54a18 18 0 0 1 2.29-8.76 5.944 5.944 0 0 0 7.42 0 18 18 0 0 1 2.29 8.76z" fill="#ffcd00"/><path d="m38 21v6h6a6 6 0 0 0 -6-6z" fill="#ed1c24"/><path d="m20 27h6v-6a6 6 0 0 0 -6 6z" fill="#ed1c24"/><path d="m33 26 1-4h-4l1 4z" fill="#ed1c24"/><path d="m32 31a3 3 0 0 0 -3 3c0 1.657 3 5 3 5s3-3.343 3-5a3 3 0 0 0 -3-3z" fill="#ff5023"/><g fill="#231f20"><path d="m59 44.89v-29.89a3.009 3.009 0 0 0 -3-3h-17.54a18.891 18.891 0 0 0 -5.02-8.98l-.73-.73a1.008 1.008 0 0 0 -1.42 0l-.73.73a18.891 18.891 0 0 0 -5.02 8.98h-17.54a3.009 3.009 0 0 0 -3 3v29.88l-2.97 11.88-.03 2.24a3.009 3.009 0 0 0 3 3h54a3.009 3.009 0 0 0 3-3v-2zm-27.02-40.45.02-.03.02.03a16.915 16.915 0 0 1 2.35 2.95 5.093 5.093 0 0 1 -4.74 0 16.915 16.915 0 0 1 2.35-2.95zm-4.98 12.02a17.017 17.017 0 0 1 1.66-7.31 6.987 6.987 0 0 0 6.68 0 17.017 17.017 0 0 1 1.66 7.31v11.54h-10zm-1 13.54h12a1 1 0 0 0 1-1v-1h5a1 1 0 0 0 1-1 7 7 0 0 0 -6-6.92v-2.08h14v9.82a5.975 5.975 0 0 0 -8.93 4.27 5 5 0 0 0 -4.07 4.91 4 4 0 0 0 -3.86 3h-8.28a4 4 0 0 0 -3.86-3 5 5 0 0 0 -4.07-4.91 5.975 5.975 0 0 0 -8.93-4.27v-9.82h14v2.08a7 7 0 0 0 -6 6.92 1 1 0 0 0 1 1h5v1a1 1 0 0 0 1 1zm13-4v-3.9a5.01 5.01 0 0 1 3.9 3.9zm3.15 11.93a2.877 2.877 0 0 1 -.15-.93 3.009 3.009 0 0 1 3-3 1 1 0 0 0 1-1 3.979 3.979 0 0 1 7-2.61v9.61h-14.72a1.988 1.988 0 0 1 1.72-1 1.9 1.9 0 0 1 .79.17.991.991 0 0 0 1.09-.17.98.98 0 0 0 .27-1.07zm-20.03 1.07a.991.991 0 0 0 1.09.17 1.9 1.9 0 0 1 .79-.17 1.988 1.988 0 0 1 1.72 1h-14.72v-9.61a3.979 3.979 0 0 1 7 2.61 1 1 0 0 0 1 1 3.009 3.009 0 0 1 3 3 2.877 2.877 0 0 1 -.15.93.98.98 0 0 0 .27 1.07zm2.88-16.9v3.9h-3.9a5.01 5.01 0 0 1 3.9-3.9zm-18-7.1a1 1 0 0 1 1-1h17.18a19.027 19.027 0 0 0 -.16 2h-15.02a1 1 0 0 0 -1 1v24a1 1 0 0 0 1 1h44a1 1 0 0 0 1-1v-24a1 1 0 0 0 -1-1h-15.02a19.027 19.027 0 0 0 -.16-2h17.18a1 1 0 0 1 1 1v29h-50zm-.22 31h50.44l2.5 10h-19.94l-.81-3.24a1 1 0 0 0 -.97-.76h-12a1 1 0 0 0 -.97.76l-.81 3.24h-19.94zm30.94 10h-11.44l.5-2h10.44zm22.28 3a1 1 0 0 1 -1 1h-54a1 1 0 0 1 -1-1v-1h56z"/><path d="m37 48h2v2h-2z"/><path d="m9 48h2v2h-2z"/><path d="m13 48h2v2h-2z"/><path d="m17 48h2v2h-2z"/><path d="m21 48h2v2h-2z"/><path d="m41 48h2v2h-2z"/><path d="m45 48h2v2h-2z"/><path d="m49 48h2v2h-2z"/><path d="m25 48h2v2h-2z"/><path d="m29 48h2v2h-2z"/><path d="m33 48h2v2h-2z"/><path d="m53 48h2v2h-2z"/><path d="m41 52h6v2h-6z"/><path d="m49 52h2v2h-2z"/><path d="m53 52h2v2h-2z"/><path d="m9 52h2v2h-2z"/><path d="m13 52h2v2h-2z"/><path d="m17 52h6v2h-6z"/><path d="m30.03 26.243a1 1 0 0 0 .97.757h2a1 1 0 0 0 .97-.757l1-4a1 1 0 0 0 -.97-1.243h-4a1 1 0 0 0 -.97 1.243zm2.689-3.243-.5 2h-.438l-.5-2z"/><path d="m32 19a1 1 0 0 0 1-1v-5a1 1 0 0 0 -2 0v5a1 1 0 0 0 1 1z"/><path d="m36 34a4 4 0 0 0 -8 0c0 1.941 2.712 5.062 3.256 5.668a1 1 0 0 0 1.488 0c.544-.606 3.256-3.727 3.256-5.668zm-6 0a2 2 0 0 1 4 0c0 .637-.939 2.125-2 3.451-1.063-1.332-2-2.831-2-3.451z"/></g></g></svg>