<svg enable-background="new 0 0 512 512" viewBox="0 0 512 512" xmlns="http://www.w3.org/2000/svg"><g id="_x32_9_Star"><g><g><path d="m289.289 42.855 46.632 94.486c5.408 10.957 15.861 18.552 27.953 20.309l104.272 15.152c30.451 4.425 42.61 41.846 20.575 63.325l-75.452 73.547c-8.75 8.529-12.743 20.818-10.677 32.861l17.812 103.85c5.202 30.328-26.631 53.456-53.867 39.137l-93.263-49.031c-10.816-5.686-23.737-5.686-34.552 0l-93.263 49.031c-27.236 14.319-59.069-8.809-53.867-39.137l17.812-103.85c2.066-12.043-1.927-24.332-10.677-32.861l-75.452-73.547c-22.035-21.479-9.876-58.9 20.575-63.325l104.272-15.152c12.092-1.757 22.545-9.352 27.953-20.309l46.632-94.486c13.617-27.593 52.964-27.593 66.582 0z" fill="#fcc85d"/><path d="m413.255 309.65c-8.736 8.579-12.75 20.856-10.625 32.897l17.787 103.808c5.194 30.379-26.68 53.517-53.911 39.193l-93.262-49.031c-10.782-5.745-23.689-5.745-34.55 0l-93.262 49.031c-27.231 14.324-59.026-8.815-53.832-39.193l12.356-72.17 47.458-24.948c10.86-5.746 23.768-5.746 34.55 0l93.262 49.031c27.231 14.324 59.105-8.815 53.911-39.193l-17.866-103.808c-2.046-12.042 1.968-24.319 10.704-32.897l62.725-61.073 79.411 11.49c30.458 4.407 42.656 41.87 20.62 63.355z" fill="#ef9638"/><path d="m413.255 309.65c-8.736 8.579-12.75 20.856-10.625 32.897l17.787 103.808c5.194 30.379-26.68 53.517-53.911 39.193l-93.262-49.031c-10.782-5.745-23.689-5.745-34.55 0l-93.262 49.031c-23.847 12.514-51.078-3.62-54.068-28.175 7.083.944 14.638-.236 21.879-4.014l93.262-49.031c10.86-5.746 23.768-5.746 34.55 0l93.262 49.031c27.231 14.324 59.105-8.815 53.911-39.193l-17.787-103.808c-2.125-12.042 1.889-24.319 10.625-32.897l75.475-73.508c9.051-8.815 12.356-20.384 10.861-31.245l.709.079c30.458 4.407 42.656 41.87 20.62 63.355z" fill="#f78426"/></g><path d="m468.995 166.96-104.265-15.148c-10.184-1.483-18.968-7.87-23.511-17.085l-46.637-94.481c-7.301-14.795-22.089-23.987-38.59-23.987-16.494 0-31.281 9.192-38.582 23.987l-46.629 94.481c-4.55 9.215-13.335 15.602-23.503 17.085l-104.273 15.148c-16.332 2.375-29.644 13.596-34.74 29.29-5.096 15.687-.922 32.588 10.891 44.101l75.451 73.553c7.363 7.171 10.714 17.5 8.977 27.63l-17.816 103.85c-2.79 16.271 3.774 32.395 17.124 42.095 13.366 9.707 30.728 10.944 45.307 3.274l93.266-49.035c9.1-4.788 19.96-4.781 29.06 0l93.266 49.035c14.586 7.664 31.926 6.44 45.315-3.282 13.35-9.699 19.906-25.824 17.116-42.087l-17.816-103.842c-1.737-10.145 1.622-20.475 8.985-27.638l75.451-73.553c11.813-11.513 15.986-28.414 10.891-44.101-5.094-15.694-18.406-26.915-34.738-29.29zm15.61 64.937-75.451 73.553c-10.145 9.876-14.772 24.11-12.382 38.083l17.816 103.85c2.052 11.974-2.59 23.395-12.42 30.543-9.83 7.14-22.112 8.032-32.887 2.375l-93.266-49.035c-12.508-6.584-27.506-6.595-40.035 0l-93.268 49.034c-10.752 5.649-23.05 4.773-32.88-2.375-9.838-7.148-14.48-18.561-12.428-30.543l17.816-103.85c2.398-13.957-2.229-28.199-12.374-38.083l-75.451-73.553c-8.7-8.477-11.659-20.444-7.901-32.003 3.751-11.559 13.173-19.499 25.202-21.251l104.28-15.149c14.011-2.037 26.124-10.845 32.395-23.541l46.629-94.481c5.38-10.898 15.84-17.408 27.991-17.408 12.159 0 22.619 6.51 27.999 17.408l46.637 94.481c6.264 12.697 18.377 21.505 32.403 23.541l104.272 15.149c12.028 1.752 21.451 9.692 25.202 21.251 3.76 11.56.801 23.527-7.899 32.004z"/></g></g><g id="Layer_1"/></svg>