<svg enable-background="new 0 0 64 64" height="64" viewBox="0 0 64 64" width="64" xmlns="http://www.w3.org/2000/svg"><g id="_x35_0_code_x2C__programming_x2C__program_x2C__bitcoin_x2C__block_x2C__chain_x2C__cryptocurrency"/><g id="_x34_9_balloon_x2C__takeoff_x2C__bitcoin_x2C__coin_x2C__block_x2C__chain_x2C__cryptocurrency"/><g id="_x34_8_video_card_x2C__mining_x2C__farm_x2C__computer_x2C__block_x2C__chain_x2C__cryptocurrency"/><g id="_x34_7_money_box_x2C__saving_x2C__bitcoin_x2C__coin_x2C__block_x2C__chain_x2C__cryptocurrency"/><g id="_x34_6_portfolio_x2C__finance_x2C__bank_note_x2C__bitcoin_x2C__coin_x2C__cryptocurrency"/><g id="_x34_5_tap_x2C__water_x2C__bitcoin_x2C__coin_x2C__block_x2C__chain_x2C__cryptocurrency"/><g id="_x34_4_phone_x2C__bitcoin_x2C__coin_x2C__block_x2C__chain_x2C__cryptocurrency"/><g id="_x34_3_rocket_x2C__sun_x2C__bitcoin_x2C__coin_x2C__block_x2C__chain_x2C__cryptocurrency"/><g id="_x34_2_transfer_x2C__network_x2C__bitcoin_x2C__coin_x2C__block_x2C__chain_x2C__cryptocurrency"/><g id="_x34_1_scales_x2C__comparison_x2C__bitcoin_x2C__coin_x2C__block_x2C__chain_x2C__cryptocurrency"/><g id="_x34_0_calculator_x2C__calculating_x2C__bitcoin_x2C__coin_x2C__block_x2C__chain_x2C__cryptocurrency"/><g id="_x33_9_start-up_x2C__plant_x2C__hand_x2C__bitcoin_x2C__coin_x2C__cryptocurrency"/><g id="_x33_8_idea_x2C__bulb_x2C__bitcoin_x2C__coin_x2C__block_x2C__chain_x2C__cryptocurrency"/><g id="_x33_7_users_x2C__user_x2C__co-founder_x2C__bitcoin_x2C__coin_x2C__cryptocurrency"/><g id="_x33_6_safe_x2C__protection_x2C__bitcoin_x2C__coin_x2C__block_x2C__chain_x2C__cryptocurrency"/><g id="_x33_5_flash_drive_x2C__key_x2C__block_x2C__chain_x2C__cryptocurrency"/><g id="_x33_4_cloud_x2C__mining_x2C__bitcoin_x2C__coin_x2C__block_x2C__chain_x2C__cryptocurrency"/><g id="_x33_3_start_up_x2C__plant_x2C__bitcoin_x2C__coin_x2C__block_x2C__chain_x2C__cryptocurrency"/><g id="_x33_2_planet_x2C__bitcoin_x2C__coin_x2C__block_x2C__chain_x2C__cryptocurrency"/><g id="_x33_1_payment_x2C__hand_x2C__bitcoin_x2C__coin_x2C__block_x2C__chain_x2C__cryptocurrency"/><g id="_x33_0_user_x2C__laptop_x2C__bitcoin_x2C__coin_x2C__block_x2C__chain_x2C__cryptocurrency"/><g id="_x32_9_thief_x2C__bag_x2C__bitcoin_x2C__coin_x2C__block_x2C__chain_x2C__cryptocurrency"/><g id="_x32_8_code_x2C__programming_x2C__program_x2C__bitcoin_x2C__coin_x2C__cryptocurrency"/><g id="_x32_7_bitcoin_x2C__coin_x2C__block_x2C__chain_x2C__cryptocurrency"/><g id="_x32_6_shield_x2C__protection_x2C__bitcoin_x2C__coin_x2C__block_x2C__chain_x2C__cryptocurrency"/><g id="_x32_5_bug_x2C__laptop_x2C__miner_x2C__program_x2C__block_x2C__chain_x2C__cryptocurrency"/><g id="_x32_4_computer_x2C__monitor_x2C__bitcoin_x2C__coin_x2C__block_x2C__chain_x2C__cryptocurrency"/><g id="_x32_3_network_x2C__idea_x2C__bitcoin_x2C__coin_x2C__block_x2C__chain_x2C__cryptocurrency"/><g id="_x32_2_block_x2C__chain_x2C__cryptocurrency_x2C__technology_x2C__future"><g><g><path d="m62.5 40.995v18l-4 4v-18z" fill="#7f67c9"/></g><g><path d="m51.5 40.995h11l-4 4h-18l4-4z" fill="#967adc"/></g><g><path d="m58.5 44.995v18h-18v-11-7z" fill="#ac92ec"/></g><g><path d="m62.5 1.005v18l-4 4v-18z" fill="#7f67c9"/></g><g><path d="m62.5 1.005-4 4h-18l4-4z" fill="#967adc"/></g><g><path d="m58.5 5.005v18h-7-11v-11.01-6.99z" fill="#ac92ec"/></g><g><path d="m23.5 1.005-4 4h-18l4-4z" fill="#967adc"/></g><g><path d="m23.5 11.995v7.01l-4 4v-18l4-4z" fill="#7f67c9"/></g><g><path d="m12.5 40.995h11l-4 4h-18l4-4z" fill="#967adc"/></g><g><path d="m23.5 51.995v7l-4 4v-18l4-4z" fill="#7f67c9"/></g><g><path d="m1.5 44.995h18v18h-18z" fill="#ac92ec"/></g><g><path d="m19.5 5.005v18h-7-11v-18z" fill="#ac92ec"/></g></g><g><g><g><path d="m19.503 24.006h-18c-.553 0-1-.447-1-1v-18c0-.553.447-1 1-1h18c.553 0 1 .447 1 1v18c0 .553-.447 1-1 1zm-17-2h16v-16h-16z"/></g><g><path d="m23.503 20.006c-.553 0-1-.447-1-1v-17h-17c-.553 0-1-.447-1-1s.447-1 1-1h18c.553 0 1 .447 1 1v18c0 .553-.447 1-1 1z"/></g><g><path d="m1.503 6.006c-.256 0-.512-.098-.707-.293-.391-.391-.391-1.023 0-1.414l4-4c.391-.391 1.023-.391 1.414 0s.391 1.023 0 1.414l-4 4c-.195.195-.451.293-.707.293z"/></g><g><path d="m19.503 24.006c-.256 0-.512-.098-.707-.293-.391-.391-.391-1.023 0-1.414l4-4c.391-.391 1.023-.391 1.414 0s.391 1.023 0 1.414l-4 4c-.195.195-.451.293-.707.293z"/></g><g><path d="m19.503 6.006c-.256 0-.512-.098-.707-.293-.391-.391-.391-1.023 0-1.414l4-4c.391-.391 1.023-.391 1.414 0s.391 1.023 0 1.414l-4 4c-.195.195-.451.293-.707.293z"/></g></g><g><g><path d="m19.503 63.994h-18c-.553 0-1-.447-1-1v-18c0-.553.447-1 1-1h18c.553 0 1 .447 1 1v18c0 .553-.447 1-1 1zm-17-2h16v-16h-16z"/></g><g><path d="m23.503 59.994c-.553 0-1-.447-1-1v-17h-17c-.553 0-1-.447-1-1s.447-1 1-1h18c.553 0 1 .447 1 1v18c0 .553-.447 1-1 1z"/></g><g><path d="m1.503 45.994c-.256 0-.512-.098-.707-.293-.391-.391-.391-1.023 0-1.414l4-4c.391-.391 1.023-.391 1.414 0s.391 1.023 0 1.414l-4 4c-.195.195-.451.293-.707.293z"/></g><g><path d="m19.503 63.994c-.256 0-.512-.098-.707-.293-.391-.391-.391-1.023 0-1.414l4-4c.391-.391 1.023-.391 1.414 0s.391 1.023 0 1.414l-4 4c-.195.195-.451.293-.707.293z"/></g><g><path d="m19.503 45.994c-.256 0-.512-.098-.707-.293-.391-.391-.391-1.023 0-1.414l4-4c.391-.391 1.023-.391 1.414 0s.391 1.023 0 1.414l-4 4c-.195.195-.451.293-.707.293z"/></g></g><g><g><path d="m12.503 43.994c-.553 0-1-.447-1-1v-7c0-.553.447-1 1-1s1 .447 1 1v7c0 .553-.447 1-1 1z"/></g><g><path d="m12.503 38.994c-2.206 0-4-1.794-4-4v-4c0-2.206 1.794-4 4-4s4 1.794 4 4v4c0 2.206-1.794 4-4 4zm0-10c-1.103 0-2 .897-2 2v4c0 1.103.897 2 2 2s2-.897 2-2v-4c0-1.102-.898-2-2-2z"/></g><g><path d="m12.503 30.994c-.553 0-1-.447-1-1v-7c0-.553.447-1 1-1s1 .447 1 1v7c0 .553-.447 1-1 1z"/></g></g><g><g><path d="m28.497 52.994h-7c-.553 0-1-.447-1-1s.447-1 1-1h7c.553 0 1 .447 1 1s-.447 1-1 1z"/></g><g><path d="m33.497 55.994h-4c-2.206 0-4-1.794-4-4s1.794-4 4-4h4c2.206 0 4 1.794 4 4s-1.794 4-4 4zm-4-6c-1.103 0-2 .897-2 2s.897 2 2 2h4c1.103 0 2-.897 2-2s-.897-2-2-2z"/></g><g><path d="m40.497 52.994h-6c-.553 0-1-.447-1-1s.447-1 1-1h6c.553 0 1 .447 1 1s-.447 1-1 1z"/></g></g><g><g><path d="m28.497 12.994h-7c-.553 0-1-.447-1-1s.447-1 1-1h7c.553 0 1 .447 1 1s-.447 1-1 1z"/></g><g><path d="m33.497 15.994h-4c-2.206 0-4-1.794-4-4s1.794-4 4-4h4c2.206 0 4 1.794 4 4s-1.794 4-4 4zm-4-6c-1.103 0-2 .897-2 2s.897 2 2 2h4c1.103 0 2-.897 2-2s-.897-2-2-2z"/></g><g><path d="m40.497 12.994h-6c-.553 0-1-.447-1-1s.447-1 1-1h6c.553 0 1 .447 1 1s-.447 1-1 1z"/></g></g><g><g><path d="m58.497 24.006h-18c-.553 0-1-.447-1-1v-18c0-.553.447-1 1-1h18c.553 0 1 .447 1 1v18c0 .553-.447 1-1 1zm-17-2h16v-16h-16z"/></g><g><path d="m62.497 20.006c-.553 0-1-.447-1-1v-17h-17c-.553 0-1-.447-1-1s.447-1 1-1h18c.553 0 1 .447 1 1v18c0 .553-.447 1-1 1z"/></g><g><path d="m40.497 6.006c-.256 0-.512-.098-.707-.293-.391-.391-.391-1.023 0-1.414l4-4c.391-.391 1.023-.391 1.414 0s.391 1.023 0 1.414l-4 4c-.195.195-.451.293-.707.293z"/></g><g><path d="m58.497 24.006c-.256 0-.512-.098-.707-.293-.391-.391-.391-1.023 0-1.414l4-4c.391-.391 1.023-.391 1.414 0s.391 1.023 0 1.414l-4 4c-.195.195-.451.293-.707.293z"/></g><g><path d="m58.497 6.006c-.256 0-.512-.098-.707-.293-.391-.391-.391-1.023 0-1.414l4-4c.391-.391 1.023-.391 1.414 0s.391 1.023 0 1.414l-4 4c-.195.195-.451.293-.707.293z"/></g></g><g><g><path d="m58.497 63.994h-18c-.553 0-1-.447-1-1v-18c0-.553.447-1 1-1h18c.553 0 1 .447 1 1v18c0 .553-.447 1-1 1zm-17-2h16v-16h-16z"/></g><g><path d="m62.497 59.994c-.553 0-1-.447-1-1v-17h-17c-.553 0-1-.447-1-1s.447-1 1-1h18c.553 0 1 .447 1 1v18c0 .553-.447 1-1 1z"/></g><g><path d="m40.497 45.994c-.256 0-.512-.098-.707-.293-.391-.391-.391-1.023 0-1.414l4-4c.391-.391 1.023-.391 1.414 0s.391 1.023 0 1.414l-4 4c-.195.195-.451.293-.707.293z"/></g><g><path d="m58.497 63.994c-.256 0-.512-.098-.707-.293-.391-.391-.391-1.023 0-1.414l4-4c.391-.391 1.023-.391 1.414 0s.391 1.023 0 1.414l-4 4c-.195.195-.451.293-.707.293z"/></g><g><path d="m58.497 45.994c-.256 0-.512-.098-.707-.293-.391-.391-.391-1.023 0-1.414l4-4c.391-.391 1.023-.391 1.414 0s.391 1.023 0 1.414l-4 4c-.195.195-.451.293-.707.293z"/></g></g><g><g><path d="m51.497 43.994c-.553 0-1-.447-1-1v-7c0-.553.447-1 1-1s1 .447 1 1v7c0 .553-.447 1-1 1z"/></g><g><path d="m51.497 38.994c-2.206 0-4-1.794-4-4v-4c0-2.206 1.794-4 4-4s4 1.794 4 4v4c0 2.206-1.794 4-4 4zm0-10c-1.103 0-2 .897-2 2v4c0 1.103.897 2 2 2s2-.897 2-2v-4c0-1.102-.897-2-2-2z"/></g><g><path d="m51.497 30.994c-.553 0-1-.447-1-1v-7c0-.553.447-1 1-1s1 .447 1 1v7c0 .553-.447 1-1 1z"/></g></g></g></g><g id="_x32_1_smart_contact_x2C__contact_x2C__block_x2C__chain_x2C__cryptocurrency"/><g id="_x32_0_lock_x2C__safe_x2C__protection_x2C__block_x2C__chain_x2C__cryptocurrency_x2C__program"/><g id="_x31_9_server_x2C__data_x2C__bitcoin_x2C__coin_x2C__block_x2C__chain_x2C__cryptocurrency"/><g id="_x31_8_key_x2C__bitcoin_x2C__coin_x2C__block_x2C__chain_x2C__cryptocurrency"/><g id="_x31_7_pool_x2C__network_x2C__bitcoin_x2C__coin_x2C__block_x2C__chain_x2C__cryptocurrency"/><g id="_x31_6_mining_x2C__shovel_x2C__mine_x2C__coin_x2C__block_x2C__chain_x2C__cryptocurrency"/><g id="_x31_5_purse_x2C__bitcoin_x2C__coin_x2C__block_x2C__chain_x2C__cryptocurrency"/><g id="_x31_4_safe_x2C__protection_x2C__block_x2C__chain_x2C__cryptocurrency_x2C__program"/><g id="_x31_3_mining_x2C__funnel_x2C__satoshi_x2C__bitcoin_x2C__coin_x2C__cryptocurrency"/><g id="_x31_2_chart_x2C__bitcoin_x2C__coin_x2C__block_x2C__chain_x2C__cryptocurrency"/><g id="_x31_1_computer_x2C__monitor_x2C__bitcoin_x2C__coin_x2C__block_x2C__chain_x2C__cryptocurrency"/><g id="_x31_0_mining_x2C__pickaxe_x2C__stone_x2C__mine_x2C___bitcoin_x2C__coin_x2C__cryptocurrency"/><g id="_x39__miner_x2C__mining_x2C__computer_x2C__pickaxe_x2C__program_x2C__cryptocurrency"/><g id="_x38__video_card_x2C__mining_x2C__bitcoin_x2C__coin_x2C__block_x2C__chain_x2C__cryptocurrency"/><g id="_x37__exchanger_x2C__site_x2C__bitcoin_x2C__coin_x2C__block_x2C__chain_x2C__cryptocurrency"/><g id="_x36__shop_x2C__product_x2C__bitcoin_x2C__coin_x2C__block_x2C__chain_x2C__cryptocurrency"/><g id="_x35__bitcoin_x2C__coin_x2C__exchange_x2C__block_x2C__chain_x2C__cryptocurrency_x2C__product"/><g id="_x34__bitcoin_x2C__coin_x2C__exchange_x2C__block_x2C__chain_x2C__cryptocurrency"/><g id="_x33__bitcoin_x2C__coin_x2C__exchange_x2C__block_x2C__chain_x2C__cryptocurrency"/><g id="_x32__brain_x2C__smart_x2C__coin_x2C__block_x2C__chain_x2C__cryptocurrency"/><g id="_x31__bitcoin_x2C__coin_x2C__block_x2C__chain_x2C__cryptocurrency"/></svg>