<?xml version="1.0" encoding="iso-8859-1"?>
<!-- Generator: Adobe Illustrator 19.0.0, SVG Export Plug-In . SVG Version: 6.00 Build 0)  -->
<svg version="1.1" id="Capa_1" xmlns="http://www.w3.org/2000/svg" xmlns:xlink="http://www.w3.org/1999/xlink" x="0px" y="0px"
	 viewBox="0 0 512 512" style="enable-background:new 0 0 512 512;" xml:space="preserve">
<path style="fill:#74B9DF;" d="M464.466,254.552c0,128.258-103.976,232.233-232.231,232.233C103.974,486.785,0,382.81,0,254.552
	S103.974,22.319,232.234,22.319C360.49,22.319,464.466,126.294,464.466,254.552z"/>
<path style="opacity:0.1;enable-background:new    ;" d="M28.238,254.552c0-123.516,96.432-224.494,218.115-231.793
	c-4.672-0.28-9.377-0.44-14.119-0.44C103.974,22.319,0,126.294,0,254.552s103.974,232.233,232.234,232.233
	c4.742,0,9.447-0.16,14.119-0.439C124.67,479.046,28.238,378.068,28.238,254.552z"/>
<circle style="fill:#FFFFFF;" cx="232.23" cy="254.55" r="180.97"/>
<path style="opacity:0.1;enable-background:new    ;" d="M84.922,254.552c0-94.269,72.086-171.69,164.14-180.18
	c-5.541-0.511-11.152-0.785-16.827-0.785c-99.946,0-180.969,81.021-180.969,180.965c0,99.943,81.023,180.966,180.969,180.966
	c5.675,0,11.286-0.274,16.827-0.785C157.008,426.243,84.922,348.82,84.922,254.552z"/>
<path style="fill:#08375E;" d="M332.686,262.052H232.234c-4.143,0-7.5-3.358-7.5-7.5v-123.4c0-4.142,3.357-7.5,7.5-7.5
	s7.5,3.358,7.5,7.5v115.9h92.952c4.143,0,7.5,3.358,7.5,7.5S336.829,262.052,332.686,262.052z"/>
<g>
	<path style="fill:#34A1D7;" d="M232.234,103.416c-4.143,0-7.5-3.358-7.5-7.5V73.587c0-4.142,3.357-7.5,7.5-7.5s7.5,3.358,7.5,7.5
		v22.329C239.734,100.058,236.377,103.416,232.234,103.416z"/>
	<path style="fill:#34A1D7;" d="M232.234,443.019c-4.143,0-7.5-3.358-7.5-7.5v-22.33c0-4.142,3.357-7.5,7.5-7.5s7.5,3.358,7.5,7.5
		v22.33C239.734,439.661,236.377,443.019,232.234,443.019z"/>
	<path style="fill:#34A1D7;" d="M71.497,255.869H55.034c-4.143,0-7.5-3.358-7.5-7.5c0-4.143,3.357-7.5,7.5-7.5h16.463
		c4.143,0,7.5,3.357,7.5,7.5C78.997,252.511,75.64,255.869,71.497,255.869z"/>
	<path style="fill:#34A1D7;" d="M413.197,262.052h-22.328c-4.143,0-7.5-3.358-7.5-7.5s3.357-7.5,7.5-7.5h22.328
		c4.143,0,7.5,3.358,7.5,7.5S417.34,262.052,413.197,262.052z"/>
	<path style="fill:#34A1D7;" d="M104.27,390.015c-1.92,0-3.839-0.732-5.304-2.197c-2.929-2.929-2.929-7.678,0.001-10.607
		l15.791-15.789c2.928-2.928,7.677-2.928,10.607,0c2.929,2.929,2.929,7.678-0.001,10.607l-15.791,15.789
		C108.108,389.283,106.188,390.015,104.27,390.015z"/>
	<path style="fill:#34A1D7;" d="M344.408,149.88c-1.919,0-3.838-0.732-5.303-2.196c-2.929-2.929-2.93-7.677-0.001-10.607
		l15.786-15.791c2.927-2.93,7.676-2.93,10.607-0.001c2.929,2.929,2.93,7.677,0.001,10.607l-15.786,15.79
		C348.248,149.148,346.328,149.88,344.408,149.88z"/>
	<path style="fill:#34A1D7;" d="M120.063,149.879c-1.919,0-3.838-0.732-5.303-2.196l-15.793-15.789
		c-2.93-2.929-2.93-7.678-0.001-10.607c2.927-2.93,7.676-2.931,10.607-0.001l15.793,15.79c2.93,2.928,2.93,7.677,0.001,10.606
		C123.902,149.146,121.982,149.879,120.063,149.879z"/>
</g>
<path style="fill:#B1E8FF;" d="M232.234,443.019c-103.922,0-188.469-84.545-188.469-188.466
	c0-103.92,84.547-188.465,188.469-188.465c103.919,0,188.463,84.545,188.463,188.465S336.153,443.019,232.234,443.019z
	 M232.234,81.087c-95.651,0-173.469,77.816-173.469,173.465s77.817,173.466,173.469,173.466
	c95.647,0,173.463-77.817,173.463-173.466S327.882,81.087,232.234,81.087z"/>
<circle style="fill:#EF5A50;" cx="232.23" cy="254.55" r="25.21"/>
<path style="fill:#ABCCD3;" d="M167.781,265.431c0,2.834-2.318,5.153-5.152,5.153H117.24c-2.834,0-5.153-2.319-5.153-5.153v-21.757
	c0-2.834,2.319-5.153,5.153-5.153h45.389c2.834,0,5.152,2.319,5.152,5.153L167.781,265.431L167.781,265.431z"/>
<path style="fill:#86D5B5;" d="M512,399.65c0,49.717-40.308,90.03-90.024,90.03c-49.718,0-90.021-40.313-90.021-90.03
	c0-49.722,40.304-90.03,90.021-90.03C471.692,309.621,512,349.929,512,399.65z"/>
<path style="opacity:0.1;enable-background:new    ;" d="M351.123,399.65c0-46.483,35.226-84.735,80.438-89.521
	c-3.149-0.334-6.347-0.508-9.585-0.508c-49.718,0-90.021,40.308-90.021,90.03c0,49.717,40.304,90.03,90.021,90.03
	c3.238,0,6.436-0.175,9.585-0.508C386.349,484.386,351.123,446.129,351.123,399.65z"/>
<path style="fill:#FFFFFF;" d="M410.488,444.119c-5.736,0-11.328-2.35-15.346-6.451l-26.405-26.941
	c-6.262-6.39-6.161-16.648,0.229-22.913c6.391-6.266,16.648-6.164,22.912,0.229l18.592,18.969l37.864-38.79
	c6.25-6.402,16.505-6.524,22.91-0.272c6.403,6.249,6.528,16.51,0.278,22.915l-45.662,46.772c-4.021,4.114-9.614,6.478-15.354,6.482
	C410.501,444.119,410.492,444.119,410.488,444.119z"/>
<g>
</g>
<g>
</g>
<g>
</g>
<g>
</g>
<g>
</g>
<g>
</g>
<g>
</g>
<g>
</g>
<g>
</g>
<g>
</g>
<g>
</g>
<g>
</g>
<g>
</g>
<g>
</g>
<g>
</g>
</svg>
