<svg height="512" viewBox="0 0 512 512" width="512" xmlns="http://www.w3.org/2000/svg"><g id="Fill_out_line" data-name="Fill out line"><g fill="#537ec2"><path d="m467.65209 351.14323a230.91916 230.91916 0 0 1 -15.32754 28.52662 8.019 8.019 0 0 1 -11.76011 2.042l-18.94466-14.99429a8.02823 8.02823 0 0 1 -1.81655-10.51444 191.768 191.768 0 0 0 10.49647-19.57523 8.02936 8.02936 0 0 1 9.90077-4.26195l22.79137 7.878a8.021 8.021 0 0 1 4.66025 10.89929z"/><path d="m486.29159 284.26912a229.93455 229.93455 0 0 1 -5.0729 27.63731 8.01189 8.01189 0 0 1 -10.39011 5.6572l-22.79321-7.87663a8.029 8.029 0 0 1 -5.155-9.47008 190.18425 190.18425 0 0 0 3.44-18.71186 8.02633 8.02633 0 0 1 8.19871-7.01365l24.08974.78819a8.0155 8.0155 0 0 1 7.68277 8.98952z"/><path d="m479.377 251.29958-25.77115-.8432a6.14763 6.14763 0 0 1 -5.93645-5.79125l-.00657-.11408a6.14833 6.14833 0 0 1 5.33475-6.44874l25.55908-3.36879a8.00872 8.00872 0 0 1 9.0391 7.4727q.01878.31935.03667.63892a8.01 8.01 0 0 1 -8.25543 8.45444z"/><path d="m391.19395 392.32528a191.99483 191.99483 0 0 1 -327.16811-139.50758c1.69928-104.57221 86.99693-188.8177 191.97416-188.8177a191.07155 191.07155 0 0 1 109.74585 34.44336l-1.01856.877a12.00012 12.00012 0 0 0 5.70865 20.9051l41.81211 7.50848a11.99987 11.99987 0 0 0 14.116-12.15266l-1.20975-42.46428a12 12 0 0 0 -19.82447-8.7522l-8.47143 7.2934a231.99786 231.99786 0 0 0 -372.81688 188.77557c2.36324 126.08375 105.3098 227.56623 231.95848 227.56623a231.29513 231.29513 0 0 0 165.40325-69.31792 8.0148 8.0148 0 0 0 -.721-11.90988l-18.94025-14.99083a7.96989 7.96989 0 0 0 -10.54805.54391z"/></g><rect fill="#f57a08" height="203.647" rx="11.314" transform="matrix(.707 -.707 .707 .707 -10.039 295.765)" width="22.627" x="340.686" y="58.177"/><rect fill="#f57a08" height="203.647" rx="11.314" transform="matrix(.707 -.707 .707 .707 -202.039 216.236)" width="22.627" x="148.686" y="250.177"/><path d="m408 232-32.32007 32.32007a39.964 39.964 0 0 1 -37.28 10.68994l-44.98-10.38013a24.01012 24.01012 0 0 0 -28.79 28.79l10.38013 44.98a39.96413 39.96413 0 0 1 -10.68994 37.28l-32.32012 32.32012-128-128 32.32007-32.32007a39.964 39.964 0 0 1 37.28-10.68994l44.98 10.38013a24.01012 24.01012 0 0 0 28.79-28.79l-10.38007-44.98002a39.964 39.964 0 0 1 10.68994-37.28l32.32006-32.3201 85.16992 85.16992 5.66016 5.66016z" fill="#e7f2da"/><path d="m259.43255 199.72074 3.52253 15.26461a39.74487 39.74487 0 0 1 -7.64063 33.86133c-9.37711 9.27845-10.82329 20.52831-6.51168 31.15322a40.1123 40.1123 0 0 1 39.11716-31.998 40.47762 40.47762 0 0 1 9.09473 1.043l44.98144 10.37988a23.99326 23.99326 0 0 0 22.36719-6.415l32.32324-32.32325-60.68653-60.68653c-36.25-4.75-85.5 4.5-76.56745 39.72074z" fill="#f3b73f"/><path d="m152 328 68.68653 68.68652 32.32324-32.32324a23.848 23.848 0 0 0 6.79077-20.36328c-6.46721 9.33332-26.96721 9.16666-22.96721-16-16 16-44.83333 40-84.83333 0z" fill="#f3b73f"/><circle cx="240" cy="304" fill="#f3b73f" r="8"/><path d="m240 292a12 12 0 1 0 12 12 12.01312 12.01312 0 0 0 -12-12zm0 16a4 4 0 1 1 4-4 4.004 4.004 0 0 1 -4 4z"/><path d="m465.60547 332.68262-22.792-7.87793a15.99387 15.99387 0 0 0 -19.77149 8.457 184.35516 184.35516 0 0 1 -10.05761 18.75781 16.04929 16.04929 0 0 0 3.67089 20.97168l18.94434 14.99414a16.019 16.019 0 0 0 23.48926-4.04492 239.82489 239.82489 0 0 0 15.85937-29.51465 16.02376 16.02376 0 0 0 -9.34277-21.74316zm-1.60059 16.81938a227.74137 227.74137 0 0 1 -15.0625 28.03223 4.07567 4.07567 0 0 1 -2.751 1.84375 4.00366 4.00366 0 0 1 -3.14453-.80273l-18.94434-14.99415a4.04046 4.04046 0 0 1 -.88965-5.28613 196.47778 196.47778 0 0 0 10.71582-19.98437 4.06212 4.06212 0 0 1 3.67285-2.38184 3.95313 3.95313 0 0 1 1.292.21777l22.79 7.877a3.99172 3.99172 0 0 1 2.35352 2.18457 4.09271 4.09271 0 0 1 -.03217 3.2939z"/><path d="m478.87012 267.2832-24.09278-.78808a15.96139 15.96139 0 0 0 -16.38769 13.959c-.7959 6.00684-1.9043 12.03809-3.2959 17.92578a15.996 15.996 0 0 0 10.32813 18.8691l22.79589 7.877a16.011 16.011 0 0 0 20.76661-11.29688 238.864 238.864 0 0 0 5.249-28.59863 16.017 16.017 0 0 0 -15.36328-17.94727zm3.45117 16.50489a227.0164 227.0164 0 0 1 -4.98535 27.15625 4.01023 4.01023 0 0 1 -5.20117 2.83886l-22.792-7.876a4.02945 4.02945 0 0 1 -2.57031-4.76953c1.48242-6.2754 2.665-12.70411 3.51367-19.10743a3.9796 3.9796 0 0 1 3.9668-3.54394c.04492 0 .09082.001.13574.00293l24.08789.78808a4.00242 4.00242 0 0 1 2.90235 1.39258 4.05732 4.05732 0 0 1 .94238 3.1182z"/><path d="m439.68164 245.127a14.07855 14.07855 0 0 0 13.66211 13.3252l25.752.84277c.18067.00684.35938.00879.54.00879a16.01128 16.01128 0 0 0 15.9834-16.92676l-.03809-.63867a16.007 16.007 0 0 0 -18.07031-14.93555l-25.55957 3.36915a14.17769 14.17769 0 0 0 -12.27832 14.75781zm13.83789-3.05859 25.57129-3.37012a3.826 3.826 0 0 1 .5166-.03515 4.01148 4.01148 0 0 1 3.99414 3.77441l.03711.624a4.0102 4.0102 0 0 1 -4.00293 4.24219l-25.90136-.8457a2.09675 2.09675 0 0 1 -2.06934-1.9541l-.00879-.19629a2.175 2.175 0 0 1 1.86328-2.23929z"/><path d="m425.64746 400.499-18.94141-14.99121a15.96935 15.96935 0 0 0 -21.1455 1.1377 182.81894 182.81894 0 0 1 -129.53418 53.35451c-.999 0-2.00391-.00781-3.00782-.02344a184.00068 184.00068 0 1 1 101.19145-339.59961 20.04992 20.04992 0 0 0 14.81152 27.72266l41.81446 7.50977a20.00237 20.00237 0 0 0 23.52539-20.25586l-1.21-42.46387a19.99982 19.99982 0 0 0 -33.041-14.58692l-3.61525 3.11227a237.82619 237.82619 0 0 0 -140.58012-45.415c-.60059 0-1.21192.00293-1.81445.00684-64.77247.50293-125.20508 26.20507-170.165 72.37207-44.99707 46.20609-69.1084 107.3623-67.89255 172.20409a239.99975 239.99975 0 0 0 411.06345 163.709 16.01567 16.01567 0 0 0 -1.459-23.793zm-7.0957 15.377a227.99986 227.99986 0 0 1 -390.51076-155.5176c-1.15526-61.61231 21.74806-119.71582 64.4922-163.6074 42.70606-43.85254 100.11817-68.2666 161.65821-68.74414.57812-.00393 1.14648-.00686 1.72359-.00686a226.03413 226.03413 0 0 1 137.252 45.87695 6.00089 6.00089 0 0 0 7.52832-.24316l7.24512-6.23731a7.99965 7.99965 0 0 1 13.21582 5.835l1.209 42.46484a8.00021 8.00021 0 0 1 -9.41015 8.10156l-41.8125-7.50879a8.00222 8.00222 0 0 1 -4.332-13.44238 6.00112 6.00112 0 0 0 -.9209-9.16016 196.01108 196.01108 0 1 0 28.123 301.47754 3.962 3.962 0 0 1 5.24707-.24609l18.93945 14.99023a4.00315 4.00315 0 0 1 1.50777 2.88477 4.0471 4.0471 0 0 1 -1.15524 3.083z"/><path d="m291.61719 272.43066 44.98144 10.37989a47.73248 47.73248 0 0 0 44.73437-12.83106l27.88476-27.88379a19.32157 19.32157 0 0 0 20.43848-31.75195l-128-128a19.32574 19.32574 0 0 0 -31.752 20.43848l-27.88373 27.88477a47.724 47.724 0 0 0 -12.83106 44.73242l10.38086 44.98438a15.999 15.999 0 0 1 -19.1875 19.18555l-44.9834-10.37989a47.74585 47.74585 0 0 0 -44.73241 12.83105l-27.88477 27.88379a19.32157 19.32157 0 0 0 -20.43848 31.752l128 128a19.32574 19.32574 0 0 0 31.75195-20.43848l27.88379-27.88482a47.724 47.724 0 0 0 12.83106-44.73242l-10.38086-44.98438a15.99821 15.99821 0 0 1 19.1875-19.18555zm-30.87989 21.88575 10.37989 44.98047a35.79532 35.79532 0 0 1 -9.62207 33.55175l-29.49512 29.49512-5.65723-5.65723 29.4961-29.49511a27.72445 27.72445 0 0 0 7.9209-23.76368 4.00028 4.00028 0 0 0 -7.24707-1.70605 9.73367 9.73367 0 0 1 -10.89942 3.40039c-4.45117-1.78809-6.21191-7.7998-4.83008-16.49414a3.99947 3.99947 0 0 0 -6.77832-3.45605c-19.57519 19.57324-44.28906 34.88476-79.17676 0l-45.17187-45.17188 29.49512-29.49512a35.80157 35.80157 0 0 1 33.55175-9.62207l44.98047 10.37989a27.99914 27.99914 0 0 0 33.57911-33.57911l-10.37989-44.98047a35.79532 35.79532 0 0 1 9.62207-33.55175l29.49512-29.49512 45.37256 45.37256c-24.35986-1.25366-51.17847 3.4917-63.771 17.66748-6.6914 7.5332-8.78222 17.21777-6.0664 27.92383l3.52246 15.26465a35.76593 35.76593 0 0 1 -6.7334 30.29492c-9.88867 9.90234-12.457 22.4375-7.22754 35.32422a3.99812 3.99812 0 0 0 3.7041 2.49609c.12305 0 .2461-.00586.37012-.0166a4.00131 4.00131 0 0 0 3.55176-3.18457 36.10971 36.10971 0 0 1 35.19726-28.79683 36.482 36.482 0 0 1 8.19531.94043l44.98145 10.37989a27.99129 27.99129 0 0 0 26.09473-7.48438l29.49511-29.49512 5.65723 5.65718-29.49512 29.49512a35.78909 35.78909 0 0 1 -33.55175 9.62207l-44.98047-10.37989a27.99914 27.99914 0 0 0 -33.57911 33.57911zm-31.56542 126.85547a7.31574 7.31574 0 0 1 -10.34376 0l-128-128a7.31414 7.31414 0 0 1 10.34376-10.34376l128 128a7.31574 7.31574 0 0 1 0 10.34376zm-47.66749-69.32374a45.46243 45.46243 0 0 0 22.73877 1.06592c11.1875-2.3623 20.61133-8.70605 28.25586-15.35742 1.12305 10.11133 7.10254 13.77148 10.13379 14.98926a17.25212 17.25212 0 0 0 12.8252-.25781 19.9276 19.9276 0 0 1 -5.27637 9.24707l-29.49512 29.49511zm239.66749-122.67626a7.31574 7.31574 0 0 1 -10.34376 0l-128-128a7.31414 7.31414 0 0 1 10.34376-10.34376l128 128a7.31574 7.31574 0 0 1 0 10.34376zm-154.31934-15.08594-3.543-15.34864c-2.11328-8.332-.71484-15.1123 4.27344-20.72753 8.67676-9.76661 33.14087-18.27735 66.56665-14.20386l28.14819 28.14819c-36.57715 34.42407-65.03589 20.20557-80.50879 12.46778a4.00046 4.00046 0 0 0 -3.57812 7.15624c8.23633 4.11719 20.93652 10.46778 36.85742 10.46778 15.09009 0 33.07324-5.71558 52.88745-24.43384l23.07446 23.07446-29.49511 29.49414a19.99345 19.99345 0 0 1 -18.63965 5.34668l-44.98048-10.37988a44.51247 44.51247 0 0 0 -9.99512-1.14551 44.12356 44.12356 0 0 0 -37.0332 20.40235 24.54185 24.54185 0 0 1 7.24121-12.71387 4.03621 4.03621 0 0 0 .31738-.35352 43.72724 43.72724 0 0 0 8.40727-37.25097z"/><path d="m224.08008 267.99805a44.51247 44.51247 0 0 1 -9.99512-1.14551l-30.68066-7.08008a3.99989 3.99989 0 1 1 1.79882-7.79492l30.68165 7.08008a36.482 36.482 0 0 0 8.19531.94043 4 4 0 0 1 0 8z"/><path d="m147.63672 262.99023a4 4 0 0 1 -2.82813-6.8291 27.99314 27.99314 0 0 1 26.09473-7.4834 3.9999 3.9999 0 0 1 -1.79883 7.79493 19.99345 19.99345 0 0 0 -18.63965 5.34668 3.99009 3.99009 0 0 1 -2.82812 1.17089z"/></g></svg>