<svg id="Capa_1" enable-background="new 0 0 512.001 512.001" height="512" viewBox="0 0 512.001 512.001" width="512" xmlns="http://www.w3.org/2000/svg"><path d="m169.356 438.969h147.521v59.163h-147.521z" fill="#5c90ae"/><path d="m328.151 287.372h.07v80.31l-32.44 71.29h-107.21v-62.24c0-10.66 2.82-21.12 8.17-30.34l14.46-24.91c5.34-9.21 8.16-19.68 8.16-30.33v-37.72c0-20.36 16.51-36.86 36.86-36.86h7.12v-88.3c0-1.59.07-3.16.21-4.71 3.29-.56 6.64-.84 10.01-.84h37.72c6.11 0 11.87-1.49 16.94-4.12v80.78c-.03 0-.05-.01-.07-.01z" fill="#ffdad5"/><path d="m56.583 175.731v-153.521l71.746 6v147.521z" fill="#5c90ae"/><path d="m448.575 78.744h-100.429v7.118c0 20.359-16.504 36.864-36.864 36.864h-37.719c-10.654 0-21.119 2.817-30.334 8.165l-24.911 14.458c-9.215 5.348-19.68 8.165-30.334 8.165h-59.654v-107.208l68.704-32.437h124.69 180.278v11.448c-.001 29.507-23.921 53.427-53.427 53.427z" fill="#ffdad5"/><path d="m448.575 78.744h-100.429v7.118c0 20.359-16.504 36.864-36.864 36.864h-37.719c-10.654 0-21.119 2.817-30.334 8.165l-24.911 14.458c-9.215 5.348-19.68 8.165-30.334 8.165h-59.654v-107.208l68.704-32.437h124.69 180.278v11.448c-.001 29.507-23.921 53.427-53.427 53.427z" fill="#ffdad5"/><path d="m10.001 175.731h46.582v-153.521l-46.582-6.078z" fill="#f1eeee"/><path d="m502.001 3.869h-304.969c-1.477 0-2.935.327-4.27.957l-54.434 25.7v-2.315c0-5.2-3.985-9.532-9.167-9.965l-71.517-5.981-46.349-6.049c-5.474-.708-10.495 3.146-11.21 8.622-.714 5.477 3.146 10.495 8.622 11.21l37.875 4.942v134.741h-36.581c-5.523 0-10 4.477-10 10s4.477 10 10 10h46.582 71.747c5.523 0 10-4.477 10-10v-12.217h49.654c12.402 0 24.628-3.291 35.354-9.516l24.911-14.458c1.648-.957 3.355-1.796 5.093-2.557v69.677c-18.589 1.132-35.25 13.747-41.364 31.349-1.719 4.95-2.616 10.181-2.616 15.423v37.72c0 6.448-1.258 12.825-3.645 18.78-.903 2.249-1.95 4.437-3.168 6.534l-10.521 18.127c-.002.003-.003.006-.005.009l-3.93 6.771c-6.229 10.735-9.521 22.961-9.521 35.359v52.237h-9.215c-5.523 0-10 4.477-10 10v59.163c0 5.523 4.477 10 10 10h147.521c5.523 0 10-4.477 10-10v-59.163c0-5.523-4.477-10-10-10h-5.557l26.004-57.146c.592-1.3.898-2.713.898-4.142v-80.31c0-5.523-4.477-10-10-10h-.07c-5.523 0-9.965 4.477-9.965 10 0 .283.012.564.035.841v77.301l-28.875 63.456h-90.776v-52.237c0-8.876 2.358-17.633 6.819-25.32l14.462-24.915c.93-1.603 1.785-3.244 2.586-4.915 4.538-9.476 6.925-19.887 6.925-30.431v-37.72c0-8.331 3.812-15.788 9.783-20.719 4.645-3.835 10.596-6.141 17.076-6.141l18.095-.003v107.088c0 5.523 4.477 10 10 10s10-4.477 10-10v-117.087c0-5.523-4.477-10-10-10h-10.976v-73.836c.074 0 .148-.007.222-.007h37.72c2.317 0 4.648-.172 6.939-.514v65.969c-.046.391 0 .789 0 1.192 0 5.105 3.756 9.317 8.697 9.925 6.055.781 11.303-3.964 11.303-9.915v-75.2c11.535-8.135 18.977-21.337 19.837-35.439h90.516c34.974 0 63.427-28.453 63.427-63.427v-11.448c-.002-5.523-4.479-10-10.002-10zm-195.124 484.263h-127.521v-39.163h127.521zm-188.548-322.401h-51.746v-132.649l51.747 4.328v128.321zm373.672-140.414c0 23.946-19.481 43.427-43.427 43.427h-90.428v-10.973c0-5.523-4.477-10-10-10h-117.088c-5.523 0-10 4.477-10 10s4.477 10 10 10h107.088v10.973 7.118c0 8.981-4.642 17.521-12.14 22.453-5.002 3.29-10.593 4.408-16.486 4.408-10.407 0-20.814 0-31.22 0-5.529 0-11.054.008-16.519 1.001-8.273 1.406-16.27 4.28-23.572 8.518l-24.911 14.458c-7.68 4.458-16.434 6.814-25.314 6.814h-49.654v-90.871l60.945-28.774h292.727v1.448z"/><path d="m336.531 237.481c-2.985-4.564-9.357-5.749-13.86-2.76-4.534 3.01-5.795 9.338-2.77 13.86 3.027 4.526 9.337 5.799 13.87 2.77 4.531-3.028 5.779-9.34 2.76-13.87z"/></svg>