<svg id="Layer_1" enable-background="new 0 0 512 512" viewBox="0 0 512 512" xmlns="http://www.w3.org/2000/svg"><g><path d="m87.4 384c.3.9.7 1.8 1.2 2.6-.5-.8-.9-1.7-1.2-2.6z" fill="#ea6077"/><path d="m456.4 417.8c-27.2 25.2-71.9 35.9-106.1 43-10.3 1.8-20.3 2.9-30.5 3.6-7.7 38.6-21.6 38.6-32.4.3-26.9-1.2-52.6-6-76.3-13.1-19.2 44.6-32.1 30.2-33-11.6-34.9-17.5-108.9-41.7-77.1-82 32.5-52.4 108.6-181.3 135.6-226.8 4.6-7.7 10.9-14.2 18.3-18.9 17.5-12.8 45.3-7.2 62 .5 8.5-.4 118.3 230.2 124.5 238.5 4.8 9.5 12.5 24.7 17.3 34.2 6.2 10.2 5.7 23.6-2.3 32.3z" fill="#ea6077"/><path d="m309.1 107c-1-.6-2-1.2-3.1-1.8 1.1.6 2.1 1.2 3.1 1.8z" fill="#cd3858"/><path d="m441.5 351.4c-9.4 9.2-21.8 18.6-33.6 25.4-5.6-26.7-50.1-116.3-82.3-174.5-10.4-18.9-20.5-36.4-29.1-50.4-17.7-26.5-20.1-37.5-41.6-39.6 3.7-8 12.6-6.3 19.6-7.3 12.1-2.9 35.8 3.6 44.6 7.4 9.3.7 119 227 122.4 239z" fill="#cd3858"/><path d="m458.8 385.6c-.5 7.7-3.6 28.7-22 29.2-22.5.7-30.6 14.9-43 26.4-6.5 6-18.9 10.8-32.8 12.7 12.8-8.9 33.6-25.8 43-46.5 15.3-7.1 28-15.2 38.1-23 4.1-3.1 7.8-6.3 11.3-9.4z" fill="#2a723a"/><path d="m89.8 388.4c.4.6.9 1.1 1.4 1.6-.6-.5-1-1-1.4-1.6z" fill="#5f9c45"/><path d="m453.4 375c-14.9 13.1-28.6 22.5-49.4 32.4-9.2 19.2-25.6 34.4-43 46.5-3.2 2.2-6.2 4.1-9.4 6.1-10.2 3.3-21.4 3.3-31.9 4.4-7.7 38.6-21.6 38.6-32.4.3-26.9-1.2-52.6-6-76.3-13.1-19.2 44.6-32.1 30.2-33-11.6-29.9-12.1-57.9-28.8-75.4-41.2-10.9-10.5-14.5-28.9-3.5-41.5 142.4 62.4 121.4 49.5 272.1 48.1 18.9-10.7 58.4-29.4 78.5-37.5z" fill="#5f9c45"/><path d="m456.4 417.8c-10 11.2-26.5 22.1-40.9 27.8-21.8 8.8-44.5 11.7-65.2 15.2.2-.1 4.5-2.6 10.7-6.9 14-1.9 26.4-6.7 32.8-12.7 12.4-11.5 20.5-25.7 43-26.4 18.4-.5 21.5-21.6 22-29.2l1.3 2.6c4.9 9.8 3.4 21.7-3.7 29.6z" fill="#1c5128"/><path d="m87.4 384c.3.9.7 1.8 1.2 2.6-.5-.8-.9-1.7-1.2-2.6z" fill="#256131"/><path d="m361 453.9c-4.1 2.8-6.9 4.7-10.7 6.9-10.3 1.8-20.3 2.9-30.5 3.6-7.7 38.6-21.6 38.6-32.4.3-26.9-1.2-52.6-6-76.3-13.1-19.2 44.6-32.5 30.8-33.3-11-23.2-11.2-59.6-23.6-76.4-41-5-5.2-7.1-12.8-8-18.7 2.6 1.9 5.6 4.7 8.9 8.7 10.6 13.1 17.1 3.8 34.2 16.2s10.8 19.5 36.9 21.8 30.4-.8 46.8 9.5c53 31.8 48.7.7 101.6 13.7 12.2 4.3 26.3 4.9 39.2 3.1z" fill="#256131"/><path d="m256.5 425.2h-.1c-90.6-10.1-146.2-42.7-162.5-53.4.3-1.3.8-2.7 1.3-4.1.5-1.2 1.1-2.4 1.8-3.7z" fill="#e7eda9"/><g><path d="m453.4 375c-3.5 3.1-7.3 6.3-11.3 9.4-10.1 7.8-22.8 15.9-38.1 23 4.3-9.5 6.3-19.8 4-30.5 6.1-3.6 12-7.5 17.7-11.8 6-4.5 11.3-9.2 15.9-13.6z" fill="#c1d36e"/><path d="m408.9 385.8c.1 7.5-1.8 14.8-4.9 21.6-34.9 18.4-99.8 26-147.5 17.8-80.3-10.1-132.2-36.9-161.3-57.5 4-8 8.1-12.8 13.2-21.8 57 45.5 218.6 84.4 299.5 30.9.6 3 1 6 1 9z" fill="#d8e299"/></g><path d="m211 451.6c-.4 1.1-.9 2.3-1.4 3.5-4.4 10-11.7 22.9-19.8 24.1-1.2.2-2.2-.2-3.2-1-5.4-4.7-7.6-21.5-8.3-34-.1-1.5-.2-2.9-.2-4.2z" fill="#2a723a"/><path d="m319.8 464.4c-.2 1.3-.5 2.6-.8 4-2.2 10.3-6.5 22.6-13.5 25.3-1.1.4-2.2.3-3.4-.3-5.2-2.8-10-14.1-13.5-24.7-.4-1.3-.9-2.6-1.2-3.9z" fill="#2a723a"/><path d="m308 403.1.3-.1c-.2.1-.3.1-.3.1z" fill="#dd3b5d"/><ellipse cx="308.3" cy="184.4" fill="#cd3858" rx="19.4" ry="34.5" transform="matrix(.944 -.329 .329 .944 -43.52 111.768)"/><ellipse cx="270.5" cy="148.5" fill="#cd3858" rx="11.3" ry="17" transform="matrix(.944 -.329 .329 .944 -33.813 97.314)"/><ellipse cx="331.5" cy="209.9" fill="#cd3858" rx="8.2" ry="9.8" transform="matrix(.944 -.329 .329 .944 -50.628 120.818)"/><ellipse cx="278.1" cy="173.8" fill="#cd3858" rx="3.4" ry="4" transform="matrix(.944 -.329 .329 .944 -41.715 101.235)"/><path d="m102.6 398.8c-3.5-2.4-9.6-3.8-12.6-6.7-3.7-3.6-4.1-9-3.8-14.9 1.7.5 4.2 1.5 7.2 3.7 1.2 7.7 5.7 14 9.2 17.9z" fill="#44854d"/><path d="m93.5 380.9c-3.1-2.2-5.5-3.2-7.2-3.7.1-3.1 1-6.3 2.6-9 0 0 1.7 1.3 5 3.5-.8 3.3-.9 6.4-.4 9.2z" fill="#91c17f"/><path d="m95.2 367.7c-.6 1.4-1 2.7-1.3 4.1-3.3-2.2-5-3.5-5-3.5l2.2-3.6c1.2 1 2.6 2 4.1 3z" fill="#e7eda9"/><path d="m104.1 342.7c-3.3 5.5-9.9 16.5-13.1 21.9 1.3 1 2.8 2 4.2 3.1 4-8 8.1-12.8 13.2-21.8-1.5-1.1-2.9-2.1-4.3-3.2z" fill="#e7eda9"/><path d="m254.9 112.3c-7.4 4.7-13.8 11.1-18.3 18.9-23.4 39.6-99 167.2-128.2 214.7-1.5-1.1-3-2.2-4.3-3.2l10.5-17.5 15.9-26.6 8.4-14 25.9-43.3 28.2-47.1 45.4-75.9c.3-.4 6.7-6 16.5-6z" fill="#f7b4c7"/><path d="m317.6 112.5c-16.7-7.7-45.2-13-62.7-.1-9.8-.1-16.2 5.5-16.6 5.9-.6-3.9 4-8.8 8.4-11.5 20.2-12.6 53.4-11 70.9 5.7z" fill="#f38aa6"/><g><path d="m463.7 386.4-131.4-259.9c-16.4-38.2-76-39.7-97.5-10.4l-149.5 250c-5.9 9.9-3.4 22.5 5.8 29.3 15.8 11.8 44.8 31.1 82.9 46.9.4 42.9 19 58.8 39.4 13.8 23.7 6.8 47.3 10.8 70.7 12.2 11 39.6 31 38.3 38.9-.3 35.7-2.5 166-26.5 140.7-81.6zm-7.3 31.4c-35.7 31.2-93.5 42.6-136.6 46.6-7.7 38.6-21.6 38.6-32.4.3-26.9-1.2-52.6-6-76.3-13.1-19.2 44.6-32.1 30.2-33-11.6-35.1-14.2-67.3-34.6-84.5-47.7-7.5-5.6-9.6-15.9-4.8-24l149.5-250c20.5-26.4 74.6-25.7 90.4 10.1l131.4 259.9c4.9 9.7 3.4 21.6-3.7 29.5z" fill="#4e1827"/></g><g fill="#cd3858"><ellipse cx="356.8" cy="275" rx="18.2" ry="26.8" transform="matrix(.944 -.329 .329 .944 -70.647 132.778)"/><ellipse cx="297.4" cy="238.9" rx="10.1" ry="14.9" transform="matrix(.944 -.329 .329 .944 -62.072 111.218)"/><ellipse cx="336" cy="306.1" rx="10.1" ry="14.9" transform="matrix(.944 -.329 .329 .944 -82.049 127.668)"/><ellipse cx="362" cy="328.2" rx="6.5" ry="9.6" transform="matrix(.944 -.329 .329 .944 -87.874 137.458)"/><ellipse cx="323.9" cy="244.9" rx="6.4" ry="9.5" transform="matrix(.944 -.329 .329 .944 -62.577 120.268)"/><ellipse cx="372.8" cy="310.1" rx="3.4" ry="4" transform="matrix(.944 -.329 .329 .944 -81.315 140.007)"/><ellipse cx="314.5" cy="260.7" rx="3.4" ry="4" transform="matrix(.944 -.329 .329 .944 -68.294 118.056)"/></g><g><path d="m148.5 210.1c-25.8-1.5-51-8.9-70.1-19.5-25.5-14.1-40.1-34-30.1-53.1 17.7-33.9 61.3-10.6 61.3-10.6s4.6-22 19-33.9c7-5.7 16.2-9 28.4-6.4 36.8 8 27.3 75-8.5 123.5z" fill="#ee4a5c"/><path d="m148.5 210.1c-25.8-1.5-51-8.9-70.1-19.5 46.6 23.7 78.8-22.3 78-58.9-.7-29.7-20.4-37-27.8-38.7 7-5.7 16.2-9 28.4-6.4 36.8 8 27.3 75-8.5 123.5z" fill="#d52942"/><ellipse cx="62.8" cy="142.2" fill="#f27b8f" rx="14.6" ry="8.4" transform="matrix(.376 -.927 .927 .376 -92.579 146.882)"/><ellipse cx="62" cy="166" fill="#f27b8f" rx="3.3" ry="5.7" transform="matrix(.955 -.298 .298 .955 -46.618 25.991)"/><g><path d="m149.5 212.2-1.1-.1c-44-2.6-87.4-22.6-100.9-46.4-5.5-9.8-5.9-19.9-1.1-29.2 4.7-9 11.6-15 20.5-17.8 16.4-5.1 34.8 2.2 41.2 5.1 1.8-6.8 8-25.6 22.4-34.9 7.8-5.1 16.8-6.6 26.8-4.4 10.2 2.2 17.8 9 21.7 19.5 9.7 25.7-2.8 71.7-28.9 107.2zm-70.3-91.1c-3.7 0-7.4.4-11 1.6-7.8 2.4-13.9 7.7-18.1 15.8s-3.9 16.6 1 25.3c12.8 22.6 54.1 41.5 96.5 44.3 25-34.3 36.9-78.2 27.7-102.5-3.5-9.3-9.8-15-18.8-17-8.9-1.9-16.8-.6-23.7 3.8-16 10.4-21.2 34.6-21.3 34.9l-.5 2.6-2.4-1.3c-.2-.1-14.4-7.5-29.4-7.5z" fill="#4d1727"/></g></g><g><path d="m227.6 82.8c-10.4-9.8-18.5-22-22.9-33.3-5.8-15.1-4.9-28.8 6.1-33.3 19.6-8.1 29.9 17.3 29.9 17.3s9.8-7.7 20.2-7.6c5 .1 10.1 1.9 14.4 7.4 12.8 16.5-15.1 41.6-47.7 49.5z" fill="#ee4a5c"/><path d="m227.6 82.8c-10.4-9.8-18.5-22-22.9-33.3 11.4 26.7 41.5 18.6 54.2 2.8 10.3-12.9 4.5-23 2-26.4 5 .1 10.1 1.9 14.4 7.4 12.8 16.5-15.1 41.6-47.7 49.5z" fill="#d52942"/><ellipse cx="215.4" cy="23.3" fill="#f27b8f" rx="8.1" ry="4.7" transform="matrix(.884 -.468 .468 .884 14.153 103.561)"/><ellipse cx="206.6" cy="33.2" fill="#f27b8f" rx="3.2" ry="1.8" transform="matrix(.385 -.923 .923 .385 96.368 210.995)"/><g><path d="m227.1 85-.8-.8c-18.3-17.2-29.5-41-26.7-56.5 1.2-6.5 4.8-11.1 10.5-13.5 5.5-2.3 10.8-2.3 15.8-.2 8.4 3.5 13.6 12.2 15.7 16.4 3.9-2.6 12.7-7.5 21.7-6.4 5.4.7 10 3.4 13.6 8 3.8 4.9 4.6 10.7 2.4 16.9-5.2 14.9-26.7 30-51.2 35.9zm-8.6-68.4c-2.2 0-4.5.5-6.8 1.4-4.4 1.8-7.1 5.3-8.1 10.4-2.5 13.8 8 36 24.6 52.1 22.4-5.7 42.6-19.8 47.3-33 1.7-4.9 1.1-9.3-1.8-13.1s-6.6-6-10.9-6.5c-10.2-1.2-20.7 7-20.8 7.1l-2.1 1.7-1-2.5c-.1-.1-5.2-12.5-14.6-16.5-1.9-.7-3.8-1.1-5.8-1.1z" fill="#4d1727"/></g></g><g><ellipse cx="198.5" cy="349.4" fill="#ee4a5c" rx="11.6" ry="14.7" transform="matrix(.285 -.958 .958 .285 -193.002 440.028)"/><ellipse cx="305.5" cy="366.2" fill="#ee4a5c" rx="11.6" ry="14.7" transform="matrix(.285 -.958 .958 .285 -132.652 554.574)"/><ellipse cx="207.8" cy="338" fill="#4d1727" rx="7.4" ry="14.9"/><ellipse cx="298.2" cy="349.4" fill="#4d1727" rx="7.4" ry="14.9"/><g><path d="m237.7 343.6c4.1 0 8.1 1.8 10.8 5.2 2.9 3.6 8 4.3 11.7 1.6 5.5-4 12.9-3.4 17.8 1.3 2.8 2.7 4.3 6.4 4.2 10.3-.1 3.8-1.8 7.5-4.7 10l-.5.5c-.3.2-.8.7-2.2 1.4-15.3 8.3-33.9 5.8-46.5-6.3-.9-.9-1.5-1.5-1.8-2l-.5-.6c-2.1-3.2-2.8-7.2-1.8-10.9.9-3.7 3.4-6.9 6.8-8.8 2.1-1.1 4.4-1.7 6.7-1.7z" fill="#fff"/></g><g><path d="m237.7 343.6c4.1 0 8.1 1.8 10.8 5.2 2.9 3.6 8 4.3 11.7 1.6 5.5-4 12.9-3.4 17.8 1.3 2.8 2.7 4.3 6.4 4.2 10.3-.1 3.8-1.8 7.5-4.7 10l-.5.5c-.3.2-.8.7-2.2 1.4-15.3 8.3-33.9 5.8-46.5-6.3-.9-.9-1.5-1.5-1.8-2l-.5-.6c-2.1-3.2-2.8-7.2-1.8-10.9.9-3.7 3.4-6.9 6.8-8.8 2.1-1.1 4.4-1.7 6.7-1.7zm17.4 12.5c-3.7 0-7.4-1.6-9.8-4.7-3-3.7-8.2-4.8-12.4-2.5-2.4 1.3-4.1 3.5-4.8 6.2s-.2 5.4 1.3 7.7l.4.6s.2.4 1.2 1.3c11.3 10.8 28.1 13.1 41.8 5.6 1.1-.6 1.4-.9 1.5-.9l.5-.5c2.1-1.8 3.2-4.3 3.3-7.1s-1-5.3-3-7.2c-3.4-3.3-8.7-3.7-12.6-.9-2.2 1.6-4.8 2.4-7.4 2.4z" fill="#4d1727"/></g></g></g></svg>