<svg id="Capa_1" enable-background="new 0 0 512 512" viewBox="0 0 512 512" xmlns="http://www.w3.org/2000/svg"><g><g><g><path d="m270.395 104.885h-123.279c-5.523 0-10 4.477-10 10v18.191c12.729 8.657 22.306 21.6 26.677 36.732h39.724c1.657 0 3 1.343 3 3v19.116c0 2.992 3.617 4.49 5.733 2.375l23.026-23.026c.938-.938 2.209-1.464 3.536-1.464h31.584c5.523 0 10-4.477 10-10v-44.923c-.001-5.524-4.478-10.001-10.001-10.001z" fill="#26a6fe"/><path d="m270.395 104.885h-12.116v40.038c0 5.523-4.477 10-10 10h-90.856c2.69 4.642 4.85 9.627 6.369 14.885h39.724c1.657 0 3 1.343 3 3v19.116c0 2.992 3.617 4.49 5.733 2.375l23.026-23.026c.938-.938 2.209-1.464 3.536-1.464h31.584c5.523 0 10-4.477 10-10v-44.923c0-5.524-4.477-10.001-10-10.001z" fill="#0593fc"/><g><path d="m441.204 240.214c-2.459 0-4.611-1.748-5.114-4.155l-10.001-47.813c-1.143-10.494-10.209-18.4-21.111-18.4h-55.298c-1.724 0-3.432-.181-5.098-.531v32.18l-10.508 10.508c-2.917 2.917-2.917 7.645 0 10.562l10.508 10.508v13.704c0 9.882 8.011 17.893 17.893 17.893h29.697c4.048 0 7.33 3.282 7.33 7.33v22.783c6.226-1.616 12.753-2.48 19.478-2.48h22.648c5.811 0 11.375 1.072 16.515 3.015v-54.104l-.287-1z" fill="#ffdfcf"/><g><path d="m457.856 240.214h-16.652c-2.459 0-4.611-1.748-5.114-4.155l-7.946-37.989.114 53.144v41.089h13.371c5.811 0 11.375 1.072 16.515 3.015v-54.104z" fill="#ffcebf"/></g><path d="m348.98 121.001h86.372c18.69 0 33.841 15.151 33.841 33.841v50.239c0 9.431-2.223 18.729-6.489 27.14l-4.561 8.993h-16.939c-2.947 0-5.49-2.066-6.093-4.951l-10.011-47.862c-1.074-10.095-9.97-17.556-20.122-17.556h-55.297c-14.597 0-26.624-12.217-25.554-26.774.946-12.899 11.712-23.07 24.853-23.07z" fill="#d88a55"/><g><path d="m435.352 121.001h-13.21c3.575 3.053 5.853 7.582 5.864 12.651l.148 69.351 6.957 33.26c.603 2.884 3.146 4.951 6.093 4.951h16.939l4.561-8.993c4.266-8.411 6.489-17.709 6.489-27.14v-50.239c0-18.69-15.151-33.841-33.841-33.841z" fill="#c57a44"/></g><path d="m489.717 339.147v155.353c0 5.523-4.477 10-10 10h-129.533c-5.523 0-10-4.477-10-10v-124.645c0-43.518 35.279-78.797 78.797-78.797h22.647c26.559 0 48.089 21.53 48.089 48.089z" fill="#fe5694"/><path d="m458.143 293.969v171.031c0 5.523-4.477 10-10 10h-107.959v19.5c0 5.523 4.477 10 10 10h129.533c5.523 0 10-4.477 10-10v-155.353c0-20.756-13.151-38.441-31.574-45.178z" fill="#fd3581"/><g><path d="m305 417.135h-29.32c-12.954 0-23.456 10.502-23.456 23.456 0 12.954 10.502 23.456 23.456 23.456h29.32z" fill="#ffdfcf"/></g><path d="m420.814 338c-12.954 0-23.456 10.502-23.456 23.456v55.679h-93.358v46.912h112.735c15.207 0 27.535-12.328 27.535-27.535v-75.056c.001-12.954-10.501-23.456-23.456-23.456z" fill="#b9acac"/></g><path d="m53.857 246.052v49.002c5.142-1.932 10.706-2.997 16.515-2.997h40.519c.539 0 1.071.027 1.607.041v-20.098c0-4.048 3.282-7.33 7.33-7.33h30.122c9.647 0 17.468-7.821 17.468-17.468v-58.904c0-37.751-30.88-68.29-68.759-67.734-34.582.508-65.121 30.096-66.655 64.648-.82 18.466 5.761 35.387 17.022 48.058 3.127 3.518 4.831 8.075 4.831 12.782z" fill="#cdbfba"/><g fill="#b9acac"><path d="m80.562 272v20.058h30.328c.539 0 1.071.027 1.607.041v-20.099c0-4.048 3.282-7.33 7.33-7.33h-31.935c-4.048 0-7.33 3.282-7.33 7.33z"/><path d="m167.418 247.202v-58.904c0-30.036-19.557-55.487-46.625-64.363 13.427 12.377 21.845 30.106 21.845 49.807v90.928h7.312c9.648 0 17.468-7.821 17.468-17.468z"/></g><path d="m128.24 432.573h-102.935l-3.022 1v60.927c0 5.523 4.477 10 10 10h111.666c5.523 0 10-4.477 10-10v-70.594c-7.149 5.433-16.057 8.667-25.709 8.667z" fill="#b9acac"/><path d="m153.949 494.5v-19.5h-131.666v19.5c0 5.523 4.477 10 10 10h111.666c5.523 0 10-4.477 10-10z" fill="#9e9797"/><path d="m22.283 339.147v94.426h105.957c24.066 0 43.576-19.51 43.576-43.576v-38.013c0-33.648-27.277-60.925-60.925-60.925h-40.519c-26.559-.001-48.089 21.529-48.089 48.088z" fill="#e1d3ce"/><path d="m91.186 401.447c-9.776 0-18.628-4.021-25-10.491v113.544h50v-113.544c-6.372 6.47-15.224 10.491-25 10.491z" fill="#cdbfba"/><path d="m66.186 475h50v29.5h-50z" fill="#b9acac"/><circle cx="91.186" cy="366.341" fill="#b9acac" r="36.106"/><path d="m91.186 330.235c-.132 0-.263.009-.395.01 4.526 6.032 7.209 13.527 7.209 21.649 0 19.808-15.953 35.883-35.711 36.096 6.587 8.778 17.078 14.457 28.897 14.457 19.941 0 36.106-16.165 36.106-36.106s-16.166-36.106-36.106-36.106z" fill="#9e9797"/><path d="m122.234 188.301c.498 1.985.766 4.061.766 6.199v10c0 5.571-1.801 10.727-4.845 14.927h49.263v-31.126z" fill="#00f2a6"/><path d="m142.638 188.301h24.78v31.126h-24.78z" fill="#05e39c"/><path d="m97.5 231c-14.575 0-26.5-11.925-26.5-26.5v-10c0-14.575 11.925-26.5 26.5-26.5 14.575 0 26.5 11.925 26.5 26.5v10c0 14.575-11.925 26.5-26.5 26.5z" fill="#e1d3ce"/><path d="m373.377 7.5h-226.261c-5.523 0-10 4.477-10 10v44.923c0 5.523 4.477 10 10 10h143.521c1.326 0 2.598.527 3.536 1.464l23.026 23.026c2.115 2.115 5.733.617 5.733-2.375v-19.115c0-1.657 1.343-3 3-3h47.446c5.523 0 10-4.477 10-10v-44.923c-.001-5.523-4.478-10-10.001-10z" fill="#ffe177"/><path d="m373.377 7.5h-12.116v39.5c0 5.523-4.477 10-10 10h-214.145v5.423c0 5.523 4.477 10 10 10h143.521c1.326 0 2.598.527 3.536 1.464l23.026 23.026c2.115 2.116 5.733.617 5.733-2.375v-19.115c0-1.657 1.343-3 3-3h47.446c5.523 0 10-4.477 10-10v-44.923c-.001-5.523-4.478-10-10.001-10z" fill="#ffd15b"/></g></g><g><path d="m465.643 289.019v-46.012l3.75-7.394c4.776-9.416 7.3-19.974 7.3-30.532v-50.239c0-22.796-18.545-41.341-41.341-41.341h-86.372c-16.895 0-31.098 13.187-32.334 30.021-.656 8.93 2.386 17.51 8.566 24.16 3.334 3.588 7.407 6.356 11.871 8.175v22.53l-8.312 8.312c-2.827 2.827-4.384 6.586-4.384 10.584s1.557 7.757 4.384 10.584l8.312 8.312v10.598c0 14.002 11.391 25.393 25.393 25.393h29.527v15.73c-34.408 11.356-59.318 43.792-59.318 81.955v39.779h-57.005c-17.069 0-30.956 13.887-30.956 30.957s13.887 30.956 30.956 30.956h57.004v22.953c0 9.649 7.851 17.5 17.5 17.5h129.533c9.649 0 17.5-7.851 17.5-17.5v-155.353c0-22.056-12.913-41.151-31.574-50.128zm-134.038-144.398c.664-9.039 8.296-16.12 17.375-16.12h86.372c14.525 0 26.341 11.817 26.341 26.341v50.239c0 8.212-1.963 16.424-5.678 23.747l-2.478 4.885h-11.298l-9.728-46.51c-1.658-13.63-13.422-23.859-27.534-23.859h-55.297c-5.098 0-10.012-2.141-13.48-5.874-3.31-3.561-4.942-8.125-4.595-12.849zm60.567 112.549h-29.697c-5.731 0-10.393-4.662-10.393-10.393v-13.705c0-1.989-.79-3.897-2.197-5.303l-10.509-10.463 10.509-10.508c1.407-1.406 2.197-3.314 2.197-5.303v-23.149h52.896c6.454 0 12.017 4.766 12.664 10.85.027.249.065.497.117.742l10.011 47.862c1.323 6.324 6.973 10.915 13.434 10.915h9.439v35.585c-2.936-.481-5.945-.742-9.015-.742h-22.647c-4.066 0-8.061.303-11.979.85v-12.408c0-8.177-6.652-14.83-14.83-14.83zm-132.448 183.421c0-8.798 7.158-15.956 15.956-15.956h20.82v31.913h-20.82c-8.799-.001-15.956-7.159-15.956-15.957zm222.493 53.909c0 1.378-1.122 2.5-2.5 2.5h-129.533c-1.378 0-2.5-1.122-2.5-2.5v-22.953h69.051c19.318 0 35.035-15.717 35.035-35.036v-75.056c0-17.069-13.887-30.956-30.956-30.956s-30.956 13.887-30.956 30.956v4.545c0 4.142 3.358 7.5 7.5 7.5s7.5-3.358 7.5-7.5v-4.544c0-8.798 7.158-15.956 15.956-15.956s15.956 7.158 15.956 15.956v75.056c0 11.048-8.988 20.036-20.035 20.036h-105.235v-31.913h85.858c4.142 0 7.5-3.358 7.5-7.5v-16.135c0-4.142-3.358-7.5-7.5-7.5s-7.5 3.358-7.5 7.5v8.635h-42.174v-39.779c0-39.313 31.984-71.297 71.297-71.297h22.647c22.381 0 40.589 18.208 40.589 40.589z"/><path d="m377 195.598c-4.142 0-7.5 3.358-7.5 7.5v2.932c0 4.142 3.358 7.5 7.5 7.5s7.5-3.358 7.5-7.5v-2.932c0-4.142-3.358-7.5-7.5-7.5z"/><path d="m91.186 425.224c-4.142 0-7.5 3.358-7.5 7.5v8c0 4.142 3.358 7.5 7.5 7.5s7.5-3.358 7.5-7.5v-8c0-4.142-3.358-7.5-7.5-7.5z"/><path d="m147.116 79.923h142.486l22.293 22.293c2.082 2.083 4.847 3.186 7.667 3.186 1.4 0 2.815-.272 4.166-.832 4.072-1.687 6.703-5.625 6.703-10.032v-14.615h42.946c9.649 0 17.5-7.851 17.5-17.5v-44.923c0-9.649-7.851-17.5-17.5-17.5h-226.261c-9.649 0-17.5 7.851-17.5 17.5v44.923c0 9.65 7.85 17.5 17.5 17.5zm-2.5-62.423c0-1.378 1.122-2.5 2.5-2.5h226.261c1.378 0 2.5 1.122 2.5 2.5v44.923c0 1.378-1.122 2.5-2.5 2.5h-47.446c-5.79 0-10.5 4.71-10.5 10.5v9.117l-15.956-15.956c-2.361-2.361-5.5-3.661-8.839-3.661h-143.52c-1.378 0-2.5-1.122-2.5-2.5z"/><path d="m176.853 47.462h13.147c4.142 0 7.5-3.358 7.5-7.5s-3.358-7.5-7.5-7.5h-13.147c-4.142 0-7.5 3.358-7.5 7.5s3.358 7.5 7.5 7.5z"/><path d="m251 47.462h92.639c4.142 0 7.5-3.358 7.5-7.5s-3.358-7.5-7.5-7.5h-92.639c-4.142 0-7.5 3.358-7.5 7.5s3.358 7.5 7.5 7.5z"/><path d="m180.771 144.847h35.229c4.142 0 7.5-3.358 7.5-7.5s-3.358-7.5-7.5-7.5h-35.229c-4.142 0-7.5 3.358-7.5 7.5s3.358 7.5 7.5 7.5z"/><path d="m252.411 144.847c4.142 0 7.5-3.358 7.5-7.5s-3.358-7.5-7.5-7.5h-11.194c-4.142 0-7.5 3.358-7.5 7.5s3.358 7.5 7.5 7.5z"/><path d="m213.654 47.462h13.147c4.142 0 7.5-3.358 7.5-7.5s-3.358-7.5-7.5-7.5h-13.147c-4.142 0-7.5 3.358-7.5 7.5s3.358 7.5 7.5 7.5z"/><path d="m287.895 159.809v-44.923c0-9.649-7.851-17.5-17.5-17.5h-69.395c-4.142 0-7.5 3.358-7.5 7.5s3.358 7.5 7.5 7.5h69.395c1.378 0 2.5 1.122 2.5 2.5v44.923c0 1.378-1.122 2.5-2.5 2.5h-31.584c-3.338 0-6.477 1.3-8.839 3.661l-15.955 15.955v-9.116c0-5.79-4.71-10.5-10.5-10.5h-33.19c-3.772-10.276-9.798-19.681-17.839-27.606-2.487-2.451-5.123-4.693-7.871-6.749v-13.068c0-1.378 1.122-2.5 2.5-2.5h18.883c4.142 0 7.5-3.358 7.5-7.5s-3.358-7.5-7.5-7.5h-18.884c-9.649 0-17.5 7.851-17.5 17.5v4.361c-7.742-3.36-16.038-5.395-24.616-5.988v-8.372c0-4.142-3.358-7.5-7.5-7.5s-7.5 3.358-7.5 7.5v8.861c-34.777 4.864-63.912 35.644-65.489 71.132-.875 19.713 5.84 38.667 18.908 53.373 1.895 2.132 2.938 4.902 2.938 7.801v42.966c-18.662 8.976-31.574 28.072-31.574 50.128v23.852c0 4.142 3.358 7.5 7.5 7.5s7.5-3.358 7.5-7.5v-23.853c0-22.381 18.208-40.589 40.589-40.589h40.519c.336 0 .667.019 1.002.025l.414.013c.014 0 .028-.001.042-.001 28.786.777 51.967 24.418 51.967 53.388v38.013c0 19.893-16.184 36.076-36.076 36.076h-4.554v-30.699c6.9-7.716 11.106-17.891 11.106-29.033 0-24.045-19.562-43.606-43.606-43.606s-43.606 19.562-43.606 43.607c0 11.142 4.206 21.316 11.106 29.033v30.699h-28.903v-28.073c0-4.142-3.358-7.5-7.5-7.5s-7.5 3.358-7.5 7.5v96.5c0 9.649 7.851 17.5 17.5 17.5h111.666c9.649 0 17.5-7.851 17.5-17.5v-65.745c10.925-9.375 17.867-23.267 17.867-38.758v-38.013c0-34.641-25.881-63.332-59.318-67.801v-12.013h29.953c13.768 0 24.968-11.201 24.968-24.968v-58.904c0-3.713-.273-7.383-.796-10.989h24.895v14.616c0 4.408 2.631 8.345 6.704 10.032 1.351.56 2.765.832 4.166.832 2.82 0 5.585-1.104 7.667-3.186l22.293-22.293h30.549c9.647-.001 17.498-7.852 17.498-17.501zm-214.209 246.46c5.361 2.359 11.278 3.678 17.5 3.678s12.139-1.319 17.5-3.678v61.231h-35zm17.5-68.534c15.773 0 28.606 12.833 28.606 28.606s-12.833 28.606-28.606 28.606-28.606-12.832-28.606-28.606 12.832-28.606 28.606-28.606zm-61.403 156.765v-53.427h28.902v55.927h-26.402c-1.378 0-2.5-1.122-2.5-2.5zm43.903 2.5v-14.5h35v14.5zm72.763-2.5c0 1.378-1.122 2.5-2.5 2.5h-20.263v-55.927h4.554c6.413 0 12.549-1.199 18.209-3.367zm-4.491-349.113c9.781 9.638 15.833 22.01 17.484 35.415h-30.834c-4.299-9.724-13.023-17.064-23.608-19.457v-33.053c13.938 1.209 26.869 7.152 36.958 17.095zm-10.458 59.113v-8.699h28.418v16.126h-29.246c.536-2.392.828-4.875.828-7.427zm-34-29c10.477 0 19 8.523 19 19v10c0 10.477-8.523 19-19 19s-19-8.523-19-19v-10c0-10.477 8.523-19 19-19zm52.45 81.67h-30.123c-8.177 0-14.83 6.653-14.83 14.83v11.558h-34.625c-3.07 0-6.079.261-9.015.742v-38.247c0-6.576-2.389-12.885-6.726-17.766-10.461-11.771-15.836-26.951-15.135-42.743 1.233-27.749 23.519-51.912 50.504-56.644v32.444c-15.15 3.426-26.5 16.986-26.5 33.156v10c0 18.748 15.252 34 34 34 10.16 0 19.287-4.485 25.522-11.573h36.896v20.274c0 5.497-4.471 9.969-9.968 9.969z"/></g></g><g/><g/><g/><g/><g/><g/><g/><g/><g/><g/><g/><g/><g/><g/><g/></svg>