<svg height="512" viewBox="0 0 64 64" width="512" xmlns="http://www.w3.org/2000/svg"><g id="_04-VR" data-name="04-VR"><path d="m36.779 63h15.421a10.806 10.806 0 0 0 10.8-10.8 3.194 3.194 0 0 0 -3.195-3.2 3.189 3.189 0 0 0 -1.514.382l-21.963 11.826a.953.953 0 0 0 .451 1.792z" fill="#5292d2"/><path d="m40.328 62.208 21.963-11.826c.034-.018.072-.025.107-.042a3.183 3.183 0 0 0 -4.107-.958l-21.963 11.826a.953.953 0 0 0 .451 1.792h3.049a.92.92 0 0 1 .5-.792z" fill="#1f7ecc"/><path d="m61.99 29a18.255 18.255 0 0 1 -3.72 6.32c-7.5 8.39-4.94 11.85-4.94 11.85l.67.83-21 11-.02-.51c.25-5-4.51-7.2-4.51-7.2-.9-.43-3.73-1.3-12.35 1.1 0 0-6.31 1.41-4.03-6.19a2.5 2.5 0 0 0 -1-3.18c-1.92-1.24 1-2.48 1-2.48s-2.83-.26-2.37-1.77c.33-1.09.95-1.58.84-2.38a1.493 1.493 0 0 0 -1.14-1.22c-1.73-.44-5.84-2.44-2.42-5.17l8.64-19c3.61-5.45 10.41-10.32 21.32-9.98 14.12.43 20.99 8.55 23.69 12.98a18.655 18.655 0 0 1 1.46 2.84 19.977 19.977 0 0 1 -.12 12.16z" fill="#e5e4e9"/><path d="m62.11 16.84a18.655 18.655 0 0 0 -1.46-2.84c-2.7-4.43-9.57-12.55-23.69-12.98-1.072-.033-2.092 0-3.086.06 13.491.75 20.136 8.589 22.776 12.92a18.655 18.655 0 0 1 1.46 2.84 19.977 19.977 0 0 1 -.12 12.16 18.255 18.255 0 0 1 -3.72 6.32c-7.5 8.39-4.94 11.85-4.94 11.85l1.4 2.541 3.27-1.711-.67-.83s-2.56-3.46 4.94-11.85a18.255 18.255 0 0 0 3.72-6.32 19.977 19.977 0 0 0 .12-12.16z" fill="#acabaf"/><path d="m61.99 29h-30.99v-15h29.65a18.655 18.655 0 0 1 1.46 2.84 1.661 1.661 0 0 1 .05.16 18.2 18.2 0 0 1 .76 4 19.551 19.551 0 0 1 -.93 8z" fill="#d8584d"/><path d="m33 16h28.74a22.632 22.632 0 0 0 -1.09-2h-29.65v15h2z" fill="#a2423a"/><path d="m62.92 21h-19.92v-4h19.16a18.2 18.2 0 0 1 .76 4z" fill="#72b0a5"/><path d="m31.176 15.071-14.529-4.071h-15.647v19h15.647l14.529-2.714z" fill="#5e616a"/><path d="m6 15h10l15 4v4l-15-4h-10z" fill="#ffbb4e"/><path d="m1 11h5v19h-5z" fill="#5292d2"/><circle cx="42" cy="31" fill="#5292d2" r="8"/><circle cx="42" cy="31" fill="#ffbb4e" r="5"/><path d="m39 31a5 5 0 0 1 4-4.9 5 5 0 1 0 0 9.8 5 5 0 0 1 -4-4.9z" fill="#d87f09"/><path d="m63.046 16.5a25.082 25.082 0 0 0 -5.5-8.046c-3.639-3.676-10.161-8.119-20.552-8.437-12.584-.394-19.019 5.883-21.874 9.983h-14.12a1 1 0 0 0 -1 1v19a1 1 0 0 0 1 1h3.921a2.692 2.692 0 0 0 -.182 1.639c.531 2.471 4.278 3.457 4.437 3.5a.507.507 0 0 1 .4.386c.02.143-.055.3-.261.687a6.965 6.965 0 0 0 -.553 1.271 1.921 1.921 0 0 0 .23 1.66 2.525 2.525 0 0 0 .89.78 1.885 1.885 0 0 0 .667 2.936 1.472 1.472 0 0 1 .642 1.918 1.074 1.074 0 0 0 -.052.137c-.865 2.88-.688 5 .528 6.307 1.67 1.794 4.548 1.174 4.721 1.134 8.047-2.241 10.83-1.558 11.669-1.154.041.019 4.139 1.963 3.93 6.324l.017.51a1 1 0 0 0 1.463.853l21-11a1 1 0 0 0 .313-1.515l-.623-.764c-.019-.03-1.838-3.123 4.86-10.622 7.802-8.742 4.189-19.05 4.029-19.487zm-1.795 11.5h-10.776a8.985 8.985 0 0 0 -16.95 0h-1.525v-13h28.1a16.7 16.7 0 0 1 1.069 2.185 19.144 19.144 0 0 1 .082 10.815zm-12.251 3a7 7 0 1 1 -7-7 7.008 7.008 0 0 1 7 7zm-12.066-28.984c12.248.375 18.792 6.62 21.888 10.984h-27.822a.986.986 0 0 0 -.943.719l-12.591-3.528c2.906-3.691 8.751-8.502 19.468-8.175zm-6.934 19.684-13.742-3.666a.978.978 0 0 0 -.258-.034h-9v-2h8.869l14.131 3.768zm-23 7.3v-9h8.869l14.131 3.768v2.72l-13.445 2.512zm9.51-17 13.49 3.78v1.92l-13.742-3.666a.978.978 0 0 0 -.258-.034h-9v-2zm-14.51 0h3v17h-3zm50.467 35.674-18.507 9.694c-.424-4.783-4.863-6.89-5.052-6.977-2.237-1.081-6.752-.723-13.011 1.023-.018 0-1.9.375-2.769-.558-.681-.731-.713-2.219-.1-4.307a3.475 3.475 0 0 0 -1.4-4.372c-.052-.034-.093-.063-.124-.088a3.47 3.47 0 0 1 .977-.627 1 1 0 0 0 -.3-1.917 3.167 3.167 0 0 1 -1.514-.481 5 5 0 0 1 .406-.916 2.96 2.96 0 0 0 .475-1.9 2.487 2.487 0 0 0 -1.876-2.048c-1.277-.327-2.815-1.221-2.978-1.981-.089-.419.306-.886.676-1.219h9.277a1.024 1.024 0 0 0 .184-.017l13.169-2.46v.477a1 1 0 0 0 1 1h2.059a9 9 0 1 0 17.882 0h9.581a17.414 17.414 0 0 1 -3 4.653c-7.322 8.199-5.582 12.178-5.055 13.021z"/><path d="m44 18h15v-2h-16a1 1 0 0 0 -1 1v4a1 1 0 0 0 1 1h17v-2h-16z"/><path d="m42 25a6 6 0 1 0 6 6 6.006 6.006 0 0 0 -6-6zm0 10a4 4 0 1 1 4-4 4 4 0 0 1 -4 4z"/><path d="m58 25h2v2h-2z"/><path d="m54 25h2v2h-2z"/><path d="m59.806 48a4.205 4.205 0 0 0 -1.989.5l-21.963 11.828a1.953 1.953 0 0 0 .925 3.672h15.415a11.819 11.819 0 0 0 11.806-11.8 4.2 4.2 0 0 0 -4.194-4.2zm-1.806 2.674v9.405a9.818 9.818 0 0 1 -2 1.152v-9.48zm-10 5.385 2-1.077v7.018h-2zm-2 5.941h-2v-3.787l2-1.077zm-4-2.71v2.71h-5.033zm10 2.71v-8.095l2-1.077v9a9.769 9.769 0 0 1 -1.806.172zm8-3.9v-8.08a2.189 2.189 0 0 1 2 2.18 9.741 9.741 0 0 1 -2 5.905z"/></g></svg>