<svg height="512" viewBox="0 0 512 512" width="512" xmlns="http://www.w3.org/2000/svg"><g id="Layer_2" data-name="Layer 2"><path d="m463.015 208.637c-52.168 32.012-90.694-36.367-90.694-36.367-44.578-93.564-21.337-138.516-21.337-138.516s-58.7-9.1-58.7 59.01q0 .846-.016 1.676c-.892 48.31-66.524 61.288-85.8 16.981a107.3 107.3 0 0 1 -4.052-10.937c-16.364-52.537 38.129-100.484 38.129-100.484a37.946 37.946 0 0 0 -10.6 1.46c-65.085 13.308-111.624 104.691-72.838 160.466 1.328 1.909 2.545 3.818 3.707 5.782 9.982 17.026 13.357 45.905-10.87 51.289-36.654 8.145-37.792-56.19-37.35-56.988-59.579 48.028-53.283 168.591-53.283 168.591 0 85.444 69.048 181.4 199.773 181.4 266.177 0 203.931-303.363 203.931-303.363z" fill="#ff9f41"/><path d="m98.69 209.251s-24.929 40.328 0 76.277 24.816 74.788 24.816 74.788 31.335-68.811-1.284-98.194-23.532-52.871-23.532-52.871z" fill="#ffcba1"/><path d="m259.085 512c-73.285 0-127.185-30.156-160.395-71.715a187.676 187.676 0 0 0 50.81 28.876c-13.963-12.835-30.65-36.364-37.163-77.9 0 0 57.913 81.331 128.212 88.923 100.727 10.879 147.015-60.732 178.577-126.9.57 14.178 1.672 23.364 1.672 23.364s27.254-27.888 29.814-77.15a570.669 570.669 0 0 1 12.4-90.872s62.253 303.374-203.927 303.374z" fill="#ff8641"/><circle cx="262.876" cy="341.305" fill="#e05353" r="140.654"/><circle cx="262.876" cy="341.305" fill="#fff4f6" r="118.533" transform="matrix(.16 -.987 .987 .16 -116.13 546.115)"/><rect fill="#4f1968" height="72.59" rx="4.544" width="9.955" x="257.898" y="273.692"/><rect fill="#4f1968" height="58.518" rx="4.977" transform="matrix(-.707 .707 -.707 -.707 650.191 384.196)" width="9.955" x="240.549" y="297.498"/><g fill="#e05353"><path d="m368.323 345.72h-20.086a4.425 4.425 0 0 1 0-8.85h20.086a4.425 4.425 0 0 1 0 8.85z"/><path d="m177.525 345.72h-20.617a4.425 4.425 0 1 1 0-8.85h20.617a4.425 4.425 0 0 1 0 8.85z"/><path d="m262.6 451.438a4.425 4.425 0 0 1 -4.425-4.425v-20.35a4.425 4.425 0 0 1 8.85 0v20.35a4.425 4.425 0 0 1 -4.425 4.425z"/><path d="m262.6 260.375a4.425 4.425 0 0 1 -4.425-4.425v-20.35a4.425 4.425 0 0 1 8.85 0v20.35a4.425 4.425 0 0 1 -4.425 4.425z"/><path d="m187.856 420.469a4.425 4.425 0 0 1 -3.128-7.553l14.556-14.556a4.424 4.424 0 0 1 6.256 6.256l-14.556 14.556a4.407 4.407 0 0 1 -3.128 1.297z"/><path d="m323.062 285.262a4.425 4.425 0 0 1 -3.128-7.553l14.291-14.29a4.424 4.424 0 0 1 6.256 6.256l-14.291 14.29a4.407 4.407 0 0 1 -3.128 1.297z"/><path d="m202.412 285.528a4.407 4.407 0 0 1 -3.128-1.3l-14.556-14.556a4.424 4.424 0 0 1 6.256-6.256l14.556 14.556a4.425 4.425 0 0 1 -3.128 7.553z"/><path d="m337.353 420.469a4.407 4.407 0 0 1 -3.128-1.3l-14.291-14.29a4.424 4.424 0 0 1 6.256-6.256l14.291 14.29a4.425 4.425 0 0 1 -3.128 7.553z"/></g><path d="m381.269 101.705s-10.321 30.952 15.476 49.686a169.1 169.1 0 0 1 40.727 43.17s12.147-40.1-23.622-61.9a111.056 111.056 0 0 1 -32.581-30.956z" fill="#ff9f41"/><path d="m313.7 131.028s-10.321 30.952 15.476 49.686a169.079 169.079 0 0 1 40.727 43.17s12.147-40.1-23.622-61.9a111.056 111.056 0 0 1 -32.581-30.956z" fill="#ffcba1"/><circle cx="262.876" cy="341.305" fill="#b250b5" r="8.389" transform="matrix(.16 -.987 .987 .16 -116.13 546.115)"/><path d="m240.548 0-.012.013c-1.445.633-105.33 47.209-79.723 167.692-1.165-1.964-2.382-3.877-3.712-5.777-38.784-55.776 7.754-147.167 72.842-160.471a38.336 38.336 0 0 1 10.605-1.457z" fill="#ffcba1"/><path d="m262.607 160c-49.376 4.118-59.88-57.613-60.184-59.488a108.337 108.337 0 0 0 4.042 10.909c19.272 44.309 84.9 31.322 85.8-16.991 0-.544.012-1.1.012-1.672.004.004 20.455 63.065-29.67 67.242z" fill="#ff8641"/></g></svg>