<?xml version="1.0" encoding="iso-8859-1"?>
<!-- Generator: Adobe Illustrator 26.5.1, SVG Export Plug-In . SVG Version: 6.00 Build 0)  -->
<svg version="1.1" id="Capa_1" xmlns="http://www.w3.org/2000/svg" xmlns:xlink="http://www.w3.org/1999/xlink" x="0px" y="0px"
	 viewBox="0 0 510 510" style="enable-background:new 0 0 510 510;" xml:space="preserve">
<g>
	<g>
		<rect x="10" y="105" style="fill-rule:evenodd;clip-rule:evenodd;fill:#B1D952;" width="490" height="300"/>
		<path style="fill-rule:evenodd;clip-rule:evenodd;fill:#91B706;" d="M123.841,405C86.723,350.958,65,285.516,65,215
			c0-38.525,6.484-75.535,18.419-110H10v300H123.841z"/>
	</g>
	<g>
		<g>
			<g>
				<path style="fill:#052A75;" d="M500,415H10c-5.522,0-10-4.477-10-10V105c0-5.523,4.478-10,10-10h490c5.522,0,10,4.477,10,10v300
					C510,410.523,505.522,415,500,415z M20,395h470V115H20V395z"/>
			</g>
		</g>
		<g>
			<path style="fill:#FFFFFF;" d="M250.616,267.5c-19.994,0-36.26,16.266-36.26,36.26v27.48c0,19.994,16.266,36.26,36.26,36.26
				s36.261-16.266,36.261-36.26v-27.48C286.877,283.767,270.61,267.5,250.616,267.5z M266.877,331.24
				c0,8.966-7.295,16.26-16.261,16.26s-16.26-7.294-16.26-16.26v-27.48c0-8.966,7.294-16.26,16.26-16.26s16.261,7.294,16.261,16.26
				V331.24z"/>
			<path style="fill:#FFFFFF;" d="M176.61,267.5c-5.522,0-10,4.477-10,10v46.546l-34.161-52.034
				c-2.426-3.695-6.988-5.36-11.224-4.093c-4.234,1.266-7.136,5.161-7.136,9.581v80c0,5.523,4.478,10,10,10s10-4.477,10-10v-46.546
				l34.161,52.035c1.883,2.868,5.054,4.513,8.36,4.513c0.952,0,1.916-0.137,2.863-0.42c4.234-1.266,7.136-5.161,7.136-9.581v-80
				C186.61,271.978,182.133,267.5,176.61,267.5z"/>
			<path style="fill:#FFFFFF;" d="M386.931,267.553c-5.496-0.564-10.405,3.434-10.969,8.927l-5.197,50.669l-9.163-14.888
				c-1.82-2.957-5.044-4.758-8.517-4.758c-3.472,0-6.696,1.801-8.516,4.758l-9.165,14.888l-5.197-50.669
				c-0.563-5.494-5.474-9.491-10.969-8.927c-5.494,0.563-9.491,5.474-8.928,10.968l8.207,80c0.438,4.263,3.542,7.773,7.72,8.728
				c0.743,0.17,1.49,0.252,2.229,0.252c3.419,0,6.669-1.759,8.515-4.759l16.104-26.161l16.102,26.161
				c2.248,3.649,6.571,5.463,10.745,4.507c4.178-0.955,7.282-4.465,7.72-8.728l8.207-80
				C396.422,273.027,392.425,268.116,386.931,267.553z"/>
			<path style="fill:#FFFFFF;" d="M220.681,232.5v-60c0-16.542-13.458-30-30-30s-30,13.458-30,30v60c0,5.523,4.478,10,10,10
				s10-4.477,10-10v-20.001h20V232.5c0,5.523,4.478,10,10,10S220.681,238.023,220.681,232.5z M200.681,192.499h-20V172.5
				c0-5.514,4.486-10,10-10s10,4.486,10,10V192.499z"/>
			<path style="fill:#FFFFFF;" d="M277.499,142.5h-35c-5.522,0-10,4.477-10,10s4.478,10,10,10h7.5v70c0,5.523,4.478,10,10,10
				s10-4.477,10-10v-70h7.5c5.522,0,10-4.477,10-10S283.021,142.5,277.499,142.5z"/>
			<path style="fill:#FFFFFF;" d="M359.317,212.5c0-5.523-4.478-10-10-10s-10,4.477-10,10c0,5.514-4.486,10-10,10s-10-4.486-10-10
				v-40c0-5.514,4.486-10,10-10s10,4.486,10,10c0,5.523,4.478,10,10,10s10-4.477,10-10c0-16.542-13.458-30-30-30s-30,13.458-30,30
				v40c0,16.542,13.458,30,30,30S359.317,229.042,359.317,212.5z"/>
			<path style="fill:#FFFFFF;" d="M423.41,142.5c-5.522,0-10,4.477-10,10v30h-20.002v-30c0-5.523-4.478-10-10-10s-10,4.477-10,10v80
				c0,5.523,4.478,10,10,10s10-4.477,10-10v-30h20.002v30c0,5.523,4.478,10,10,10s10-4.477,10-10v-80
				C433.41,146.977,428.933,142.5,423.41,142.5z"/>
			<path style="fill:#FFFFFF;" d="M130.335,242.5c0.594,0,1.195-0.053,1.796-0.163c4.467-0.813,7.824-4.533,8.178-9.059l6.25-80
				c0.43-5.506-3.685-10.318-9.19-10.749c-5.521-0.427-10.319,3.685-10.749,9.191l-3.3,42.244l-2.676-5.708
				c-1.646-3.512-5.176-5.755-9.055-5.755s-7.408,2.243-9.055,5.755l-2.676,5.708l-3.3-42.244c-0.43-5.506-5.22-9.616-10.749-9.191
				c-5.506,0.43-9.62,5.243-9.19,10.749l6.25,80c0.354,4.526,3.711,8.246,8.178,9.059c4.463,0.818,8.92-1.483,10.847-5.593
				l9.695-20.683l9.695,20.683C122.952,240.302,126.512,242.501,130.335,242.5z"/>
		</g>
	</g>
</g>
<g>
</g>
<g>
</g>
<g>
</g>
<g>
</g>
<g>
</g>
<g>
</g>
<g>
</g>
<g>
</g>
<g>
</g>
<g>
</g>
<g>
</g>
<g>
</g>
<g>
</g>
<g>
</g>
<g>
</g>
</svg>
