<svg id="Capa_1" enable-background="new 0 0 510 510" viewBox="0 0 510 510" xmlns="http://www.w3.org/2000/svg"><g><g><g><g><circle cx="255" cy="255" fill="#67ccd1" r="156"/></g></g><g><g><circle cx="38" cy="358.481" fill="#b1d952" r="28"/></g><g><circle cx="38" cy="472" fill="#fdcb50" r="28"/></g><g><circle cx="151.519" cy="472" fill="#fd7da0" r="28"/></g></g><g><g><circle cx="472" cy="151.519" fill="#b1d952" r="28"/></g><g><circle cx="472" cy="38" fill="#fdcb50" r="28"/></g><g><circle cx="358.481" cy="38" fill="#fd7da0" r="28"/></g></g><g><g><path d="m419.133 478.623h-102.176c-20.361 0-36.867-16.506-36.867-36.867v-102.266c0-20.361 16.506-36.867 36.867-36.867h102.176c20.361 0 36.867 16.506 36.867 36.867v102.266c0 20.361-16.506 36.867-36.867 36.867z" fill="#fff"/></g><g><path d="m362.339 381.838c0-29.123 8.385-56.284 22.861-79.215h-68.243c-20.361 0-36.867 16.506-36.867 36.867v102.266c0 20.361 16.506 36.867 36.867 36.867h81.225c-22.339-26.003-35.843-59.815-35.843-96.785z" fill="#d2dcfd"/></g><g><path d="m398.182 478.623h20.951c20.361 0 36.867-16.506 36.867-36.867v-41.715l-12.045-12.045c-14.109-14.109-36.328-16.008-52.626-4.498l-27.5 19.42-14.372 37.831 20.835 29.282z" fill="#b1d952"/></g><g><path d="m363.829 402.919-.261.184c-9.778 6.905-23.109 5.766-31.573-2.699l-3.83-3.83c-9.278-9.278-24.321-9.278-33.599 0l-14.476 14.476v30.705c0 20.361 16.506 36.867 36.867 36.867h81.225c-18.014-20.968-30.277-47.017-34.353-75.703z" fill="#91b706"/></g></g><g><g><path d="m193.043 207.377h-102.176c-20.361 0-36.867-16.506-36.867-36.867v-102.266c0-20.361 16.506-36.867 36.867-36.867h102.176c20.361 0 36.867 16.506 36.867 36.867v102.266c0 20.361-16.506 36.867-36.867 36.867z" fill="#fd7da0"/></g><g><path d="m136.218 119.377c0-32.52 9.726-62.764 26.414-88h-71.765c-20.361 0-36.867 16.506-36.867 36.867v102.266c0 20.361 16.506 36.867 36.867 36.867h71.765c-16.688-25.236-26.414-55.48-26.414-88z" fill="#db4b86"/></g><g><g><path d="m171.675 111.484-46.277-26.86c-6.084-3.531-13.708.858-13.708 7.893v53.72c0 7.035 7.623 11.424 13.707 7.893l46.277-26.86c6.061-3.517 6.061-12.269.001-15.786z" fill="#fff"/></g></g></g></g><g><g><g><path d="m85.982 368.481h-19.982v-20h15.84l27.972-27.972 14.143 14.143-30.901 30.901c-1.876 1.874-4.42 2.928-7.072 2.928z" fill="#67ccd1"/></g><g><path d="m40.423 400.252h118.65v20.001h-118.65z" fill="#67ccd1" transform="matrix(.707 -.707 .707 .707 -260.876 190.693)"/></g><g><path d="m161.519 444h-20v-19.982c0-2.652 1.054-5.196 2.929-7.071l30.901-30.901 14.143 14.143-27.972 27.972v15.839z" fill="#67ccd1"/></g></g><g><g><path d="m400.188 189.491-14.143-14.143 30.901-30.901c1.876-1.875 4.419-2.929 7.071-2.929h19.983v20h-15.84z" fill="#67ccd1"/></g><g><path d="m350.927 89.748h118.65v20.001h-118.65z" fill="#67ccd1" transform="matrix(.707 -.707 .707 .707 49.628 319.308)"/></g><g><path d="m334.651 123.954-14.143-14.143 27.973-27.972v-15.839h20v19.982c0 2.652-1.054 5.196-2.929 7.071z" fill="#67ccd1"/></g></g><g fill="#052a75"><path d="m38 320.481c-20.953 0-38 17.047-38 38s17.047 38 38 38 38-17.047 38-38-17.047-38-38-38zm0 56c-9.925 0-18-8.075-18-18s8.075-18 18-18 18 8.075 18 18-8.075 18-18 18z"/><path d="m38 434c-20.953 0-38 17.047-38 38s17.047 38 38 38 38-17.047 38-38-17.047-38-38-38zm0 56c-9.925 0-18-8.075-18-18s8.075-18 18-18 18 8.075 18 18-8.075 18-18 18z"/><path d="m151.519 434c-20.953 0-38 17.047-38 38s17.047 38 38 38 38-17.047 38-38-17.047-38-38-38zm0 56c-9.925 0-18-8.075-18-18s8.075-18 18-18 18 8.075 18 18-8.075 18-18 18z"/><path d="m472 113.519c-20.953 0-38 17.047-38 38s17.047 38 38 38 38-17.047 38-38-17.047-38-38-38zm0 56c-9.925 0-18-8.075-18-18s8.075-18 18-18 18 8.075 18 18-8.075 18-18 18z"/><path d="m472 76c20.953 0 38-17.047 38-38s-17.047-38-38-38-38 17.047-38 38 17.047 38 38 38zm0-56c9.925 0 18 8.075 18 18s-8.075 18-18 18-18-8.075-18-18 8.075-18 18-18z"/><path d="m358.481 76c20.953 0 38-17.047 38-38s-17.047-38-38-38-38 17.047-38 38 17.047 38 38 38zm0-56c9.925 0 18 8.075 18 18s-8.075 18-18 18-18-8.075-18-18 8.076-18 18-18z"/><path d="m419.133 292.623h-2.431c2.852-12.291 4.298-24.895 4.298-37.623 0-91.533-74.467-166-166-166-5.02 0-10.065.238-15.09.694v-21.45c0-12.519-4.875-24.288-13.727-33.14s-20.622-13.727-33.14-13.727h-102.176c-25.843 0-46.867 21.024-46.867 46.867v102.266c0 25.842 21.024 46.867 46.867 46.867h2.432c-2.853 12.291-4.299 24.895-4.299 37.623 0 91.533 74.467 166 166 166 5.02 0 10.064-.238 15.09-.694v21.45c0 25.842 21.024 46.867 46.867 46.867h102.176c25.843 0 46.867-21.024 46.867-46.867v-102.266c0-25.843-21.024-46.867-46.867-46.867zm-18.482-47.623h-83.758c-.492-23.9-2.743-46.839-6.569-67.483 17.032-6.02 33.058-14.826 47.413-26.148 24.482 24.273 40.432 57.132 42.914 93.631zm-.009 20c-.635 9.357-2.163 18.595-4.566 27.623h-79.119c-.488 0-.97.022-1.455.037.732-9.061 1.191-18.306 1.384-27.66zm-58.366-126.974c-11.147 8.321-23.362 14.963-36.267 19.775-1.451-5.68-3.035-11.12-4.752-16.272-3.997-11.991-8.315-21.354-12.747-28.643 19.765 4.66 37.994 13.342 53.766 25.14zm-102.366-16.787c5.152-7.807 10.575-12.239 15.09-12.239 10.12 0 22.944 19.865 31.744 54.505-10.346 2.303-20.985 3.495-31.744 3.495-5.039 0-10.088-.261-15.09-.774zm-2.66 64.814c5.883.625 11.823.947 17.75.947 12.188 0 24.239-1.346 35.962-3.946 3.252 17.959 5.435 38.764 5.928 61.946h-83.773c.243-11.268.889-22.363 1.946-33.134 10.273-5.491 18.267-14.698 22.187-25.813zm-146.383 11.324c-14.815 0-26.867-12.052-26.867-26.867v-102.266c0-14.814 12.052-26.867 26.867-26.867h102.176c7.177 0 13.923 2.794 18.998 7.869 5.074 5.074 7.869 11.821 7.869 18.998v102.266c0 14.814-12.052 26.867-26.867 26.867zm103.631 19.963c-.732 9.06-1.191 18.306-1.384 27.66h-83.756c.635-9.357 2.163-18.595 4.566-27.623h79.119c.488 0 .971-.022 1.455-.037zm-85.149 47.66h83.758c.492 23.9 2.743 46.839 6.569 67.483-17.033 6.02-33.058 14.826-47.413 26.149-24.482-24.274-40.432-57.133-42.914-93.632zm58.375 106.974c11.147-8.321 23.363-14.963 36.268-19.775 1.451 5.68 3.035 11.12 4.752 16.272 3.997 11.991 8.315 21.354 12.747 28.643-19.766-4.66-37.995-13.342-53.767-25.14zm102.366 16.788c-5.152 7.806-10.575 12.238-15.09 12.238-10.12 0-22.944-19.865-31.744-54.505 10.346-2.303 20.985-3.495 31.744-3.495 5.038 0 10.087.26 15.09.773zm2.66-64.815c-5.884-.625-11.824-.947-17.75-.947-12.188 0-24.239 1.346-35.962 3.946-3.252-17.959-5.435-38.764-5.928-61.946h83.773c-.243 11.268-.888 22.362-1.945 33.133-10.274 5.492-18.268 14.698-22.188 25.814zm173.25 117.809c0 14.814-12.053 26.867-26.867 26.867h-102.176c-14.814 0-26.867-12.052-26.867-26.867v-102.266c0-14.814 12.053-26.867 26.867-26.867h102.176c14.814 0 26.867 12.052 26.867 26.867z"/></g></g></g><g/><g/><g/><g/><g/><g/><g/><g/><g/><g/><g/><g/><g/><g/><g/></svg>