<svg id="world-compass" enable-background="new 0 0 300 300" height="512" viewBox="0 0 300 300" width="512" xmlns="http://www.w3.org/2000/svg"><g><circle cx="120" cy="118.828" fill="#d2ddff" r="74"/><g fill="#4c241d"><path d="m67.656 50.484c-1.023 0-2.047-.391-2.828-1.172l-11.312-11.312c-1.562-1.562-1.562-4.094 0-5.656s4.094-1.562 5.656 0l11.312 11.312c1.562 1.562 1.562 4.094 0 5.656-.781.782-1.804 1.172-2.828 1.172z"/><path d="m56.344 50.484c-1.023 0-2.047-.391-2.828-1.172-1.562-1.562-1.562-4.094 0-5.656l11.312-11.312c1.562-1.562 4.094-1.562 5.656 0s1.562 4.094 0 5.656l-11.312 11.312c-.781.782-1.805 1.172-2.828 1.172z"/><circle cx="102" cy="48.828" r="4"/></g><g><circle cx="150" cy="152.828" fill="#ffce56" r="96"/><path d="m150 252.828c-55.141 0-100-44.859-100-100s44.859-100 100-100 100 44.859 100 100-44.859 100-100 100zm0-192c-50.729 0-92 41.271-92 92s41.271 92 92 92 92-41.271 92-92-41.271-92-92-92z" fill="#4c241d"/></g><g><path d="m150 122.524 60-29.696-29.695 60 29.695 60-60-29.695-60 29.695 29.695-60-29.695-60z" fill="#8690c3"/><path d="m209.998 216.828c-.602 0-1.207-.135-1.771-.416l-58.227-28.816-58.227 28.816c-1.539.766-3.391.457-4.602-.756-1.213-1.213-1.518-3.064-.756-4.602l28.816-58.227-28.815-58.225c-.762-1.537-.457-3.389.756-4.602 1.211-1.211 3.066-1.518 4.602-.756l58.226 28.817 58.227-28.816c1.539-.766 3.389-.455 4.602.756 1.213 1.213 1.518 3.064.756 4.602l-28.816 58.227 28.816 58.227c.762 1.537.457 3.389-.756 4.602-.768.765-1.792 1.169-2.831 1.169zm-59.998-37.695c.607 0 1.215.139 1.773.414l49.391 24.445-24.445-49.391c-.553-1.117-.553-2.43 0-3.547l24.445-49.391-49.391 24.445c-1.117.551-2.43.551-3.547 0l-49.391-24.445 24.445 49.391c.553 1.117.553 2.43 0 3.547l-24.445 49.391 49.391-24.445c.559-.276 1.167-.414 1.774-.414z" fill="#4c241d"/></g><g><path d="m121.716 124.544 28.284-83.716 28.284 83.716 83.716 28.284-83.716 28.284-28.284 83.716-28.284-83.716-83.716-28.284z" fill="#9dc1e4"/><path d="m150 268.828c-1.715 0-3.24-1.094-3.789-2.719l-27.652-81.84-81.84-27.652c-1.625-.549-2.719-2.074-2.719-3.789s1.094-3.24 2.719-3.789l81.84-27.652 27.652-81.84c.549-1.625 2.074-2.719 3.789-2.719s3.24 1.094 3.789 2.719l27.652 81.84 81.84 27.652c1.625.549 2.719 2.074 2.719 3.789s-1.094 3.24-2.719 3.789l-81.84 27.652-27.652 81.84c-.549 1.625-2.074 2.719-3.789 2.719zm-99.504-116 72.5 24.496c1.182.398 2.109 1.326 2.508 2.508l24.496 72.5 24.496-72.5c.398-1.182 1.326-2.109 2.508-2.508l72.5-24.496-72.5-24.496c-1.182-.398-2.109-1.326-2.508-2.508l-24.496-72.5-24.496 72.5c-.398 1.182-1.326 2.109-2.508 2.508zm71.219-28.285h.039z" fill="#4c241d"/></g><path d="m150 116.828c-2.209 0-4-1.791-4-4v-64c0-2.209 1.791-4 4-4s4 1.791 4 4v64c0 2.209-1.791 4-4 4z" fill="#4c241d"/><g><circle cx="150" cy="152.828" fill="#e66353" r="24"/><path d="m150 180.828c-15.439 0-28-12.561-28-28s12.561-28 28-28 28 12.561 28 28-12.561 28-28 28zm0-48c-11.027 0-20 8.973-20 20s8.973 20 20 20 20-8.973 20-20-8.973-20-20-20z" fill="#4c241d"/></g><path d="m150 256.828c-2.209 0-4-1.791-4-4v-60c0-2.209 1.791-4 4-4s4 1.791 4 4v60c0 2.209-1.791 4-4 4z" fill="#4c241d"/><path d="m110 156.828h-64c-2.209 0-4-1.791-4-4s1.791-4 4-4h64c2.209 0 4 1.791 4 4s-1.791 4-4 4z" fill="#4c241d"/><path d="m258 156.828h-68c-2.209 0-4-1.791-4-4s1.791-4 4-4h68c2.209 0 4 1.791 4 4s-1.791 4-4 4z" fill="#4c241d"/></g></svg>