<svg id="Layer_1" enable-background="new 0 0 512 512" viewBox="0 0 512 512" xmlns="http://www.w3.org/2000/svg"><g><ellipse cx="277.6" cy="459.6" fill="#f9dcd4" rx="107.1" ry="23.9"/><g><g><g><g><path d="m253.7 448.6c1.7-19.8.7-39.9-.4-59.7-1-17.8-2.4-35.6-4.2-53.3-.3-3.6-.7-7.1-1.1-10.7-.1-1.3-1-2.5-2.5-2.5-1.2 0-2.6 1.1-2.5 2.5 1.1 10.2 2 20.4 2.9 30.6 1.7 20.4 3.1 41 3.5 61.5.2 10.5.2 21.1-.7 31.6-.1 1.3 1.2 2.5 2.5 2.5 1.5 0 2.4-1.2 2.5-2.5z" fill="#3f1311"/></g><path d="m253.9 446.9s-30.2-10.3-28.8 8.4c.3 1.6 1.8 2.7 3.4 2.4l20.1-3.5c3.4-.6 5.8-3.7 5.3-7 .1-.1.1-.3 0-.3z" fill="#3f1311"/></g><g><g><path d="m305.9 448.6c-1.7-19.8-.7-39.9.4-59.7 1-17.8 2.4-35.6 4.2-53.3.3-3.6.7-7.1 1.1-10.7.1-1.3-1.3-2.5-2.5-2.5-1.5 0-2.4 1.2-2.5 2.5-1.1 10.2-2 20.4-2.9 30.6-1.7 20.4-3.1 41-3.5 61.5-.2 10.5-.2 21.1.7 31.6.1 1.3 1.1 2.5 2.5 2.5 1.2 0 2.6-1.2 2.5-2.5z" fill="#3f1311"/></g><path d="m300.7 446.9s30.2-10.3 28.8 8.4c-.3 1.6-1.8 2.7-3.4 2.4l-20.1-3.5c-3.4-.6-5.8-3.7-5.3-7-.1-.1-.1-.3 0-.3z" fill="#3f1311"/></g></g><g><g><g><path d="m125.8 241.2c-12.9 3.2-25.1 8.5-36.1 15.9-5 3.4-9.9 8.2-9.6 14.8.3 5.7 5.1 9.3 9.6 12 6 3.5 12.3 6.3 17.6 10.7 2 1.6 4.5-1.5 2.5-3.2-4.6-3.8-9.8-6.5-15-9.3-3.8-2-8.6-4.3-10.3-8.6-2-5.4 3-10 6.9-12.8 4.9-3.4 10.2-6.4 15.7-8.9 6.2-2.8 12.6-5.1 19.2-6.7 1-.3 1.9-1.1 1.7-2.2-.1-.9-1.2-2-2.2-1.7z" fill="#3f1311"/></g><g><path d="m107.2 294.5.3.3c-.2-.2.1.1.1.1.2.2.4.5.5.7-.1-.2 0 0 0 .1.1.1.1.2.2.4.1.3.2.5.3.8.1.2 0-.2 0 .2 0 .1 0 .3.1.4 0 .3.1.6.1.9s0-.3 0 .1v.5c0 .3-.1.6-.1.9 0 0-.1.4-.1.2 0-.1-.1.2-.1.2-.1.3-.2.6-.3.9s-.3.6-.4.8c-.2.3.1-.2-.1.1-.1.1-.2.3-.3.4-.3.5-.7.9-1.1 1.4-.4.4-.7.7-1.2 1.1-.8.7-1 1.9-.4 2.8.6.8 2 1.1 2.8.4 2.5-2.1 4.5-4.8 5.2-8 .6-3.2-.5-6.7-3-8.8-.8-.7-2.2-.5-2.8.3-.8.9-.5 2.1.3 2.8z" fill="#3f1311"/></g><g><path d="m106.7 293.6c0 .2-.1.3-.1.5 0 0-.1.5-.1.3.1-.2-.1.2-.1.3-.1.2-.1.3-.2.5-.2.6-.4 1.1-.6 1.7s-.5 1.2-.8 1.8c-.1.3-.3.5-.4.8-.3.5.2-.3-.1.2-.1.1-.2.2-.2.4-.3.5-.7.9-1.1 1.4.2-.2.1-.1-.1 0-.1.1-.2.2-.3.3-.2.2-.5.4-.7.6-.1.1-.2.1-.3.2.4-.3 0 0-.1.1-.2.1-.5.2-.7.3-.1 0-.3.1-.4.1-.2.1.4-.1 0 0-.3.1-.6.1-1 .1-1 .1-1.9 1.2-1.7 2.2.2 1.1 1.1 1.8 2.2 1.7 3-.2 5.7-2.1 7.4-4.5 1.8-2.5 2.6-5.5 3.5-8.5.3-1-.7-2.2-1.7-2.3-1.3-.1-2.1.7-2.4 1.8z" fill="#3f1311"/></g><g><path d="m106.2 292.7c-.2.5-.4 1-.6 1.5-.1.1-.1.3-.2.4-.2.3.1-.1 0 .1s-.3.5-.5.7c-.3.4-.7.8-1.1 1.3-.2.2.2-.2 0 0-.1.1-.2.2-.4.3-.2.2-.4.4-.6.5-.2.2-.4.3-.7.5-.1.1-.2.1-.3.2-.2.1.3-.1-.1 0-.5.2-1 .5-1.5.7-.3.1-.5.2-.8.2.5-.1 0 0-.1 0s-.3.1-.4.1c-.6.1-1.1.1-1.7.2-1 0-1.9 1.2-1.7 2.2.2 1.2 1.1 1.8 2.2 1.7 5.4-.1 10.6-4 12.2-9.1.3-1 0-2.2-1-2.6-1-.3-2.4 0-2.7 1.1z" fill="#3f1311"/></g><g><path d="m108.6 291.6c-2.2-1.5-5-1.8-7.4-.8-1.2.5-2.7 1.4-3.2 2.7-.7 1.8.3 3.4 1.8 4.5 1.2.9 2.5 1.7 3.8 2.5.9.6 2.2.6 2.8-.3.6-.8.6-2.2-.3-2.8-1.2-.8-2.4-1.6-3.6-2.4-.1-.1-.3-.2-.4-.3s-.3-.3-.4-.3c.2.2.3.3.2.1l-.1-.1c-.1-.2-.1-.1.1.2 0-.1-.1-.1-.1-.2.1.3.1.4.1.2 0 .4 0 .4 0 .2 0 .1-.1.2-.1.3.1-.2.1-.1-.1.2 0-.1.1-.1.1-.2-.2.2-.3.3-.1.1.1-.1.2-.2.3-.2.1-.1.2-.1.3-.2-.3.2-.3.2-.2.1.1 0 .1-.1.2-.1.2-.1.5-.2.7-.3.5-.2-.3.1 0 0 .1 0 .2 0 .3-.1.3 0 .6-.1.8-.1h.4c.3 0 .5.1.8.1-.3-.1-.4-.1-.2 0 .1 0 .1 0 .2.1.1 0 .2.1.3.1.1.1.3.1.4.2.3.2-.4-.3 0 0 .9.6 2.1.6 2.8-.3s.7-2.3-.2-2.9z" fill="#3f1311"/></g></g><path d="m165.1 355.3c1.3.1 2.7-.5 3.1-1.7.3-1.1-.3-2.3-1-3.3-1.2-1.9-2.4-3.9-3.4-6-.4-.8-.7-1.6-.8-2.4-.1-1 .4-2 .6-3.1.6-2.2.4-4.7-.7-6.7s-3.3-3.5-5.6-3.5c-2.7 0-5.1 1.9-6.1 4.4s-.8 5.3.1 7.8 2.4 4.7 4 6.9c1.5 2 3 3.4 4.9 4.9 1.7 1.2 2.9 2.5 4.9 2.7z" fill="#c66e50"/><path d="m413 192.7c1.5-3.4 2.9-5.8 4.5-7.3l.5-.4-.2-.6s0-.1-.1-.2c-.5-2-.7-4-.9-6.2-.2-2.7-.5-5.5-1.5-8.2-.7-1.9-1.6-3.8-2.5-5.5-.9-1.8-1.8-3.7-2.5-5.7-1.3-3.6-1.7-7.3-2.1-11.3l-.1-1.1c-.4-4-1.1-8.1-3.5-11.9-2-3.1-4.6-5.8-7.2-8.2l-.5-.4-.6.2c-.2.1-.3.1-.5.2-.7.3-1.4.5-2.1.7l-.5.2c-2.1.6-4 1.2-6 1.4-1.6.2-3.1.1-4.4-.2-3-.8-5-3.1-6.3-7.3-.1-.3-.2-.5-.2-.8-.4-1.5-.9-3-1.7-4.5s-1.8-2.8-2.7-4c-.3-.4-.6-.7-.8-1.1-2-2.7-4.3-6.3-3.9-10.4v-.1c0-.1 0-.2 0-.2 0-.1 0-.2.1-.3.3-1.4 1.1-2.7 2.3-3.9l.5-.5-.4-.7c-1.4-2.6-4.7-3.7-7.4-4.6-.7-.2-1.4-.5-2-.7-3.3-1.3-6.3-3.3-8.8-5.1-1-.7-2-1.4-2.9-2.2-3.9-2.9-8-5.9-12.8-7.4-4.5-1.4-9.1-.9-13.5-.6-2.9.3-5.9.5-8.8.3-3.9-.3-7.4-1.8-11.2-3.4-3.1-1.3-6.2-2.6-9.6-3.3-6.6-1.2-13.2-.8-18.7-.2l-1.1.1.2 1c.4 2.2.1 4.1-1 5.6-.9 1.4-2.3 2.1-4.2 2.3-.8.1-1.7.1-2.6 0-.6-.1-1.1-.1-1.7-.2-1.1-.2-2.3-.3-3.5-.3-.9 0-1.8 0-2.8.1-.8.1-1.6.2-2.4.4-.4.1-.8.2-1.3.3-1.1.3-2.2.5-3.2.6-1.6.2-2.9 0-4.1-.5-2.3-1-3.5-3.5-3.1-6.1.3-1.6 1-3.1 2.5-4.7l1.3-1.5-2-.1c-2.1-.2-4.3-.4-6.4-.6-6-.6-12.2-1.2-18.4-.7-.6 0-1.1.1-1.7.2-3.6.4-7.2 1.3-10.7 2.6-3.5 1.4-7.1 3.2-10.6 5.5-4.7 3.1-9 6.6-13.3 10.1-1.7 1.4-3.5 2.8-5.3 4.2-.5.4-.9.7-1.4 1.1-5.9 4.5-12.1 8.1-18.8 11.8l-1.9 1.1c-5.2 3-11 6.7-13.4 12.8l-.4 1 1 .4c2 .7 3.6 1.7 5 3 2.6 2.5 3.8 6 3.3 9.5-.5 3.4-2.6 6.6-5.3 8.4-.8.5-1.6.9-2.5 1.3-1 .5-2.1.9-3.1 1.6-1.8 1.3-3.1 3.1-4.2 4.8l-.6.9c-2.1 3.2-4.1 6.3-7.4 7.9-.7.3-1.5.6-2.3.7-2.6.3-5.2-.8-7.2-2.9-.1-.2-.3-.3-.4-.5l-1.1-1.4-.6 1.6c-2.1 5.2-4.6 10.2-7.5 14.9-.8 1.4-1.8 2.8-2.6 4.1-2.2 3.4-4.6 6.9-6.2 10.9-1.2 2.9-1.8 5.8-1.7 8.6 0 2.3.3 4.6.6 6.8.1 1 .3 1.9.4 2.9.3 2.6.5 5.9-.3 9.2-.4 1.6-1 3.2-1.5 4.7-.5 1.2-.9 2.5-1.3 3.8-2 6.9.6 13.7 2.7 19.1 0 .1 0 .1.1.2l.1 1 1-.1c.2 0 .3 0 .5-.1.8-.1 1.6-.1 2.4-.1 1.6 0 3.4.2 5.4.6l.3.1c1.6.3 3.3.6 4.6 1.5 4.3 2.8 3 9.9.4 13.9-1.3 2.1-3.3 3.9-5.6 5-1.6.8-3.4 1.3-5.7 1.6-.6.1-1.2.1-1.9.2h-.9l-.1.9c-.3 2.9-.5 6 .1 9 .7 3.7 2.6 7.1 4.3 9.9.4.7.9 1.4 1.3 2.2 1.3 2.1 2.6 4.3 3.7 6.5 1.5 3 2.3 6.1 2.7 9.5v.4c.2 1.8.3 3.6 1.1 5.4.5 1.2 1.3 2.4 2.4 3.5 1.6 1.8 3.6 3.2 5.6 4.5.3.2.7.5 1 .7 2.3 1.6 4.6 3.3 6.5 5.6 1.2 1.4 2 3 2.9 4.8.8 1.6 1.7 3.2 2.8 4.7 3.1 4.1 7.4 7.8 12.6 10.8l1.3.8.2-1.5c.3-2.6 1.5-6.2 5.4-7.9h.1s.1 0 .2-.1h.1.1c.5-.1 1-.3 1.5-.3 2.9-.3 6 .7 9.7 3.3 3.5 2.4 6.9 5.4 10.2 9 2.9 3.2 9.4 11.4 5.9 19.4-.1.2-.1.3-.2.5l-.3.5.4.5.2.3c.7.9 1.4 1.9 2.1 2.8 2.7 3.2 6.4 3.5 9.3 3.4h.5c.6 0 1.2 0 1.8-.1 1.1 0 2.2-.1 3.3-.1 1.6 0 3.1.1 4.6.3 1.1.2 2.2.5 3.4.9 1.8.6 3.7 1.5 5.8 2.6.5.3 1.1.6 1.6.9 2.3 1.3 4.7 2.7 7.4 3.5 2.1.6 4.3.7 7.1.4 1.4-.2 2.8-.4 4-.6 1.5-.3 3.5-.6 5.5-.9 2-.2 3.9-.3 5.6-.3 2.6.1 5.3.4 7.8.8 1 .1 1.9.2 2.9.4 3.1.4 6.5.6 9.8.3.3 0 .7-.1 1-.1 3.1-.5 6.1-1.7 8.5-2.8l1.3-.6-1-1c-.7-.7-1.6-1.5-2.7-2.1-.4-.2-.8-.4-1.1-.5-1.1-.5-2.2-1-3.2-1.7-.1-.1-.2-.1-.2-.2-1.3-1.2-2.7-2.9-3-5-.1-.5-.1-1.1 0-1.6.3-2 1.6-3.9 3.9-5.8 3.2-2.7 7.5-5 12.1-6.2.9-.3 1.9-.5 2.9-.6s1.8-.1 2.6.1c.1 0 .1 0 .2.1 1.5.4 2.8 1.3 4.3 2.7 3.7 3.3 5 6 4.2 8.9-.3 1.2-1 2.2-1.6 3.3-.3.5-.6.9-.8 1.4-.4.7-.8 1.5-1.1 2.3l-.5 1.1 1.1.3c2.2.6 4.6.7 7.1.4 4.5-.5 9.4-2.4 14.7-5.7 1.9-1.1 3.7-2.4 5.5-3.6 4.7-3.1 9.6-6.4 15.1-8.3 1.5-.5 3.1-1 4.6-1.4 2.3-.7 4.6-1.4 6.9-2.3 3.6-1.4 6.9-3.2 9.7-5.3 3.1-2.3 5.7-5 7.8-8.2.2-.3.3-.5.5-.7.9-1.3 1.7-2.6 2.7-3.7 1.4-1.4 3-2.6 4.4-3.5 2.8-1.9 6.1-4.2 8.8-7.5 1-1.1 1.8-2.4 2.6-3.6l.3-.5-.3-.5c-.6-1-1-2.2-1.4-3.4l-.1-.3c-.8-2.5-1.4-5.2-1.8-7.9-.3-1.8-.6-3.6-.3-5.2.6-2.9 2.3-5.7 4.8-7.6 2.1-1.7 4.9-2.8 7.9-3.1.6-.1 1.2-.1 1.9-.1 1.5 0 3.1.1 4.4 1.1 1.1.9 1.9 2.2 2.8 3.7l.6 1 .9-.8c3.3-2.8 5.8-6.8 7.3-11.7 1-3.3 1.4-6.8 1.7-10.1.2-2 .4-4.2.8-6.2.8-4.5 3.2-8.2 5.7-12.1l.7-1c1.1-1.7 2.5-4.1 3.3-6.8.9-2.8 1.1-5.8 1.2-8.1.1-2.8 0-5.6-.1-8.3-.1-2.9-.3-6-1.3-9 0 0 0-.1 0-.2l-.1-1.2-1.1.3c-.3.1-.6.2-.8.3-.7.2-1.5.5-2.2.6-.5.1-1 0-1.4-.1-.9-.3-1.6-1.1-2.2-2.6-1.1-2.8-1.5-6-1.2-10.1-.7-3.9-.3-7.5.9-10.6zm-63.7-5.1c-2.6 1.7-5.3 3.5-8.3 3.8-.2 0-.5 0-.7.1-2.3.1-4.3-.8-5.9-2.5-2-2.2-3.1-5.6-2.8-8.8.4-2.8 2.1-5.5 3.5-7.7 1.4-2.3 3.1-4.5 4.7-6.7l.3-.4c2-2.7 4.1-4.4 6.5-5.1.5-.1 1-.2 1.5-.3 2.4-.3 4.6.5 6.3 2.3 1.1 1.1 1.9 2.5 2.6 3.8 1 1.8 1.8 3.4 2.2 5 1 3.7-.4 7.1-1.8 9.2-1.9 2.9-4.8 5.1-7.5 6.8zm-58.2 89.6c1.3-7 6-13.4 11.8-15.9 1.5-.7 3.2-1.1 4.9-1.3 2.4-.3 4.7 0 6.7.8 2.7 1.1 4.3 3.4 5 7.5 1.3 7-1.5 15.1-7 20.2-2.4 2.2-5.1 3.5-8.3 3.9-2.5.3-5.1 0-7.8-1-5-2-6.3-8.7-5.3-14.2zm-78 24.5c.1-.2.2-.2.3-.3.6-.5 1.3-.8 2.1-1.1.1-.1.2-.1.3-.1.1-.1.2-.1.3-.1h.1.1.1c.1 0 .3-.1.4-.1 4.9-.6 9.5 3.7 11.8 6.3 2.1 2.3 3.3 4.6 3.5 6.8.3 2.8-1.1 5.3-2.6 7.7-1.6 2.5-3.4 4.1-5.3 4.9-.6.2-1.2.4-1.8.4-1.8.2-3.8-.2-5.6-1.3-2.8-1.6-5.2-4.1-6.8-5.9-1.8-2-2.7-4.5-2.8-7 .3-3.9 2.3-7.6 5.9-10.2zm13.4-156.9c-1.7 1.1-3.7 1.8-6.3 2.1-1.6.2-3.2.2-4.9.2h-.1c-3.8 0-7.7.1-11.1-1.5-2.2-1-4.6-3-4.5-5.7.1-2 1-4 1.8-5.7 1-2.3 2.3-4.7 3.9-7.1 1.1-1.8 2.4-3.6 4-4.9 2.8-2.2 5.4-3.4 7.8-3.7 1-.1 2.1-.1 3.1.2 3.5.8 6.5 3.1 8.3 6.3 1.7 3 2.3 6.6 2 10.7-.2 4.5-1.5 7.4-4 9.1z" fill="#ea995f"/><path d="m159.9 116.6c-7 4.8-14 9.6-18.7 16.5-2.9 4.3-4.8 9.3-7.3 13.9-.2.3-.4.7-.6 1-1.2.8-2.5 1.3-3.7 1.6-4.3 1-6.2-3-5.8-6.8.5-4.3 3.4-8 6.4-10.9 4.7-4.6 10.1-8.5 15.5-12.3 2.5-1.8 5-3.5 7.9-4.6 1.8-.6 4-.9 5.4.3.3.4.6.8.9 1.3z" fill="#c66e50"/><path d="m115.3 244.7c-1.5-1.6-3.3-3.1-5.5-3.2-1.4-.1-2.7.5-3.9 1.1-4.2 2.4-7.1 7-7.4 11.8-.3 4.4 7.7 7.8 11 8.5 3.5.7 7.6-.2 9.7-3.2 1.6-2.3 1.6-5.4.7-8.1s-2.7-4.9-4.6-6.9z" fill="#c66e50"/><path d="m171.3 332.8c-2.2-1-5-1.8-6.8-.2-1.8 1.7-1.1 4.7 0 7 3.3 7.3 8.4 13.7 14.7 18.7 1.2.9 1.4 2 2.4 3.1 1.9.3 3.8.7 5.7.3 1.9-.3 3.7-1.5 4.2-3.4.2-.8.2-1.7.1-2.6-.6-5.3-3.4-10.2-7.1-14-3.8-3.9-8.4-6.7-13.2-8.9z" fill="#c66e50"/><path d="m230.3 301.3c-2.4-1.1-5-2-7.6-1.5-4.3.7-7.5 5.3-7.2 9.7s3.4 8.3 7.5 10.1c3.2 1.5 11.2 3.9 14.6 1.7 1.9-1.2 2.4-3.7 2.4-5.9 0-3.6-1.2-7.2-3.6-9.9-1.8-1.8-3.9-3.1-6.1-4.2z" fill="#c66e50"/><path d="m318 268.7c-7.8-1.6-10 3.2-14.9 9.2-3.7 4.3-10 6.1-7.9 12.1 2.4 5.6 18.1 5.8 21.7 3.6 9.2-5.6 21-20.3 1.1-24.9z" fill="#c66e50"/><path d="m367.8 175.5c-.3-1-1-1.8-1.8-2.5-1.4-1.4-2.9-2.7-4.7-3.2s-3.8-.2-5.6.2c-6.3 1.6-16.7 7.5-17.6 14.9-.9 7.8 13.1 4.6 16.9 3.3 4.4-1.4 8.5-4 11.3-7.7 1.1-1.4 2-3.2 1.5-5z" fill="#c66e50"/><path d="m222.5 121.4c-6.5 3-18.3 7.8-20.4 14.7-1.4 4.6 4.4 8.4 10.2 10.8 16.6 6.6 23.8-5 27.7-9.8 1.5-1.8 2.7-3.9 2.6-6.2 0-1.4-.5-2.7-1.2-3.9-1.4-2.2-3.7-3.9-6.3-4-1.9-.2-10.9-2.4-12.6-1.6z" fill="#c66e50"/><path d="m413 192.7c1.5-3.4 2.9-5.8 4.5-7.3l.5-.4-.2-.6s0-.1-.1-.2c-.5-2-.7-4-.9-6.2-.2-2.7-.5-5.5-1.5-8.2-.7-1.9-1.6-3.8-2.5-5.5-.9-1.8-1.8-3.7-2.5-5.7-1.3-3.6-1.7-7.3-2.1-11.3l-.1-1.1c-.4-4-1.1-8.1-3.5-11.9-2-3.1-4.6-5.8-7.2-8.2l-.5-.4-.6.2c-.2.1-.3.1-.5.2-.7.3-1.4.5-2.1.7l-.5.2c-2.1.6-4 1.2-6 1.4-1.6.2-3.1.1-4.4-.2-3-.8-5-3.1-6.3-7.3-.1-.3-.2-.5-.2-.8-.4-1.5-.9-3-1.7-4.5s-1.8-2.8-2.7-4c-.3-.4-.6-.7-.8-1.1-2-2.7-4.3-6.3-3.9-10.4v-.1c0-.1 0-.2 0-.2 0-.1 0-.2.1-.3.3-1.4 1.1-2.7 2.3-3.9l.5-.5-.4-.7c-1.4-2.6-4.7-3.7-7.4-4.6-.7-.2-1.4-.5-2-.7-3.3-1.3-6.3-3.3-8.8-5.1-1-.7-2-1.4-2.9-2.2-3.9-2.9-8-5.9-12.8-7.4-4.5-1.4-9.1-.9-13.5-.6-2.9.3-5.9.5-8.8.3-3.9-.3-7.4-1.8-11.2-3.4-3.1-1.3-6.2-2.6-9.6-3.3-6.6-1.2-13.2-.8-18.7-.2l-1.1.1.2 1c.4 2.2.1 4.1-1 5.6-.9 1.4-2.3 2.1-4.2 2.3-.8.1-1.7.1-2.6 0-.6-.1-1.1-.1-1.7-.2-1.1-.2-2.3-.3-3.5-.3-.9 0-1.8 0-2.8.1-.8.1-1.6.2-2.4.4-.4.1-.8.2-1.3.3-1.1.3-2.2.5-3.2.6-1.6.2-2.9 0-4.1-.5-2.3-1-3.5-3.5-3.1-6.1.3-1.6 1-3.1 2.5-4.7l1.3-1.5-2-.1c-2.1-.2-4.3-.4-6.4-.6-6-.6-12.2-1.2-18.4-.7-.6 0-1.1.1-1.7.2-3.6.4-7.2 1.3-10.7 2.6-3.5 1.4-7.1 3.2-10.6 5.5-4 2.6-7.7 5.5-11.3 8.5 5.9-2.5 12.7-3.7 18.2-4.4 4.6-.6 9.4-.6 13.9.6 5.8 1.6 10.9 5.3 16.8 6.5 3.5.7 7.1.5 10.7.5 13.2-.2 26.4 1.1 39.6 2.4 4.3.4 8.6.9 12.6 2.4 6.5 2.4 11.8 7.8 14.3 14.2 1.9 3.2 3.1 6.8 5.3 9.7 7.1 9.1 21.7 8 30.2 15.8 1.4 1.3 2.6 2.8 3.7 4.4 1.4 2.1 2.6 4.4 3.9 6.7 1.9 3.7 3.9 7.3 5.9 11 9.2 17.3 18.8 36.6 14.4 55.8-1.4 6-4 11.6-5.1 17.6-2.3 13.1 2.3 28.8-7 38.3-3.3 3.3-7.8 5.2-10.7 8.9-2.6 3.4-3.4 7.7-4.2 11.9-1.9 9.9-4.4 19.8-9.7 28.4s-13.8 15.6-23.7 17c-3.6.5-7.5.3-10.7 1.9-5.2 2.7-7.1 9.2-11.6 13-2.1 1.8-4.5 2.9-7.1 3.7 1.5.4 2.8 1.3 4.3 2.7 3.7 3.3 5 6 4.2 8.9-.3 1.2-1 2.2-1.6 3.3-.3.5-.6.9-.8 1.4-.4.7-.8 1.5-1.1 2.3l-.5 1.1 1.1.3c2.2.6 4.6.7 7.1.4 4.5-.5 9.4-2.4 14.7-5.7 1.9-1.1 3.7-2.4 5.5-3.6 4.7-3.1 9.6-6.4 15.1-8.3 1.5-.5 3.1-1 4.6-1.4 2.3-.7 4.6-1.4 6.9-2.3 3.6-1.4 6.9-3.2 9.7-5.3 3.1-2.3 5.7-5 7.8-8.2.2-.3.3-.5.5-.7.9-1.3 1.7-2.6 2.7-3.7 1.4-1.4 3-2.6 4.4-3.5 2.8-1.9 6.1-4.2 8.8-7.5 1-1.1 1.8-2.4 2.6-3.6l.3-.5-.3-.5c-.6-1-1-2.2-1.4-3.4l-.1-.3c-.8-2.5-1.4-5.2-1.8-7.9-.3-1.8-.6-3.6-.3-5.2.6-2.9 2.3-5.7 4.8-7.6 2.1-1.7 4.9-2.8 7.9-3.1.6-.1 1.2-.1 1.9-.1 1.5 0 3.1.1 4.4 1.1 1.1.9 1.9 2.2 2.8 3.7l.6 1 .9-.8c3.3-2.8 5.8-6.8 7.3-11.7 1-3.3 1.4-6.8 1.7-10.1.2-2 .4-4.2.8-6.2.8-4.5 3.2-8.2 5.7-12.1l.7-1c1.1-1.7 2.5-4.1 3.3-6.8.9-2.8 1.1-5.8 1.2-8.1.1-2.8 0-5.6-.1-8.3-.1-2.9-.3-6-1.3-9 0 0 0-.1 0-.2l-.1-1.2-1.1.3c-.3.1-.6.2-.8.3-.7.2-1.5.5-2.2.6-.5.1-1 0-1.4-.1-.9-.3-1.6-1.1-2.2-2.6-1.1-2.8-1.5-6-1.2-10.1-.2-3.3.2-6.9 1.4-10z" fill="#c1654f"/><path d="m271.5 367.7c-.4-.2-.8-.4-1.1-.5-1.1-.5-2.2-1-3.2-1.7-.1-.1-.2-.1-.2-.2-1.3-1.2-2.7-2.9-3-5-2.6 1.8-5.7 2.8-8.7 3.6-15.7 4.2-32.2 5.4-48.3 3.5 1.8.6 3.7 1.5 5.8 2.6.5.3 1.1.6 1.6.9 2.3 1.3 4.7 2.7 7.4 3.5 2.1.6 4.3.7 7.1.4 1.4-.2 2.8-.4 4-.6 1.5-.3 3.5-.6 5.5-.9 2-.2 3.9-.3 5.6-.3 2.6.1 5.3.4 7.8.8 1 .1 1.9.2 2.9.4 3.1.4 6.5.6 9.8.3.3 0 .7-.1 1-.1 3.1-.5 6.1-1.7 8.5-2.8l1.3-.6-1-1c-.8-1-1.6-1.8-2.8-2.3z" fill="#c1654f"/><path d="m160 127.4c-1.1 1.9-2.9 3.2-4.7 4.5-4.6 3.3-9.2 6.6-13.8 9.9-2.4 1.8-5.2 4.4-8.1 6.2.2-.3.4-.6.6-1 2.5-4.6 4.3-9.6 7.3-13.9 4.7-6.9 11.7-11.7 18.7-16.5.3.5.5 1 .6 1.5.9 3 1 6.6-.6 9.3z" fill="#f19d80"/><path d="m223.9 87.8c2.6-.2 3.2 3.6.7 4.2-2.4.6-4.9 1.2-7.2 2.1-12.5 4.9-18.9 19.4-31.1 25-3.6 1.7-7.6 2.5-10.9 4.8-5.5 3.8-7.7 10.8-10.8 16.8-4.4 8.6-11.2 16-19.4 21-2.1 1.3-4.3 2.4-5.9 4.2-3.9 4.5-3.1 11.2-3.6 17.1-.6 7.6-3.8 14.8-4.1 22.4-.3 7.8 2.3 15.4 3 23.2.5 6.3-.2 12.8 1.2 19 1.2 5.2 3.9 10 6 15 4 9.3 5.9 19.4 5.7 29.6 0 1.9-2.3 2.8-3.6 1.5-1-1-1.9-1.9-2.2-2.3-1.4-2.2-2-4.8-3.1-7.1-10-22.2-20.2-45.2-20.9-69.9-.3-11.6 1.5-23.2 3.3-34.7.9-5.8 1.8-11.7 4.1-17.2 2.1-5 5.3-9.4 7.9-14 .2-.3.4-.6.7-.7 2.8-1.7 5.4-4.2 7.7-5.9 4.6-3.3 9.2-6.6 13.8-9.9 1.8-1.3 3.6-2.6 4.7-4.5 1.7-2.8 1.5-6.3.5-9.4-.3-.9 0-1.9.8-2.4 1.6-1.1 3.3-2.3 4.9-3.5 6.1-4.6 11.8-9.9 18.4-13.8 11.7-7.2 25.5-9.4 39.4-10.6z" fill="#f5c38c"/><path d="m159.7 293.3c2.3 4.9 3.1 10.4 5.3 15.3 2.6 5.5 7.1 10.1 12.6 12.6 1.3.6 3 1 3.9 0 1.1-1.1.3-3-.7-4.3-2.3-2.8-5.4-5-7.7-7.8-3.3-4.1-4.6-9.3-6.5-14.1-1.4-3.5-3.5-8.6-7-10.6-5.8-3.3-1 6.7.1 8.9z" fill="#f5c38c"/><g fill="#801b18"><path d="m110.2 237.3-.4-.1c-2.3-.5-5.3-1-8.3-.7-1.7.2-3.3.6-4.8 1.4h-.1-.1c-2.5 1.7-8.1 6.2-6.2 12.4.9 3 3.3 4.6 7 4.9 1.2.1 2.5.1 4.1-.1h.3c.2 0 .4 0 .6-.1 5.2-.6 8.9-3 10.9-7 1-2 1.4-4.2 1.2-6.2-.1-1-.3-2.4-1.3-3.3-.7-.8-1.9-1-2.9-1.2z"/><path d="m164.4 331.4c-2-1.4-5-3.2-8-2.8-.4.1-.9.1-1.3.3-3.2 1.3-4.8 4.2-4.7 8.1 0 1.5.3 3.1.9 4.8.6 1.8 1.5 3.6 2.5 5 1.7 2.4 4 4.4 6.7 6 1.5.9 3.2 1.5 4.8 2.1 1.3.5 2.5.9 3.6 1.5 1.3.6 2.4 1.5 3.5 2.4l.1.1c.8.6 1.9 1.4 3.1 1.6h.9c.5-.1.9-.2 1.3-.4 1.2-.6 2.2-2.1 2.7-4 .1-.5.2-1 .3-1.4.8-6.6-4.4-12.6-8.5-16.5-2.7-2.9-5.3-5-7.9-6.8z"/><path d="m286.8 348.7c-1.1-.8-2.4-1.1-4-.9-1.3.1-2.6.6-3.6 1-4.4 1.6-8 3.6-10.6 5.9-.5.4-1.2 1.2-1.8 2-.3.5-.7 1.3-.9 2-.1.8 0 1.6.3 2.4.4 1 1.3 1.9 1.8 2.3 1 .8 2.1 1.3 3.1 1.8.5.2 1 .4 1.4.7 1.6.9 2.9 2.1 3.9 3.2l.3.4c1.4 1.5 3.7 4.1 6.2 3.9.8-.1 1.5-.5 2.1-1.1.7-.8 1.8-3.4 3.4-7.6.8-2 1.6-4 1.9-4.5.1-.2.2-.4.4-.6.7-1 1.4-2.2 1.5-3.6.2-2.9-2.8-5.5-5.4-7.3z"/><path d="m398.2 290.6-.1-.2c-.5-1-1.1-1.9-1.8-2.7-1.3-1.7-2.9-1.8-4.3-1.7-.5 0-.9.1-1.4.1-1 .1-2 .3-2.9.6-3 1-5.4 2.8-6.8 5.1-.7 1.1-1.2 2.4-1.4 3.8v.1.1.1.1.9.1c.1 1.9.5 3.8.8 5.4.4 2.1.9 3.8 1.4 5.4l.1.3c.2.6.5 1.3.8 2v.2l.1.2.1.1v.3l.5.2c.7.3 1.6.5 2.5.4h.2c1.9-.2 3.8-1.3 5.4-2.1l.2-.1c2.9-1.6 5-3.4 6.5-5.5 2.1-2.9 2.4-6.6 1-10.6 0-.8-.4-1.7-.9-2.6z"/><path d="m427.9 200.8c-.1-.4-.2-.7-.3-1.1-.3-1.3-.6-2.6-.8-3.9-.1-.5-.2-1.1-.3-1.6 0-.2-.1-.4-.1-.6-.5-2.8-1.4-8-5.3-7.8-.1 0-.1 0-.2 0-1.6.2-2.8 1.7-3.8 3.1-1 1.5-1.7 3.1-2.3 4.5-1.2 3-1.4 6.5-1.6 9.5-.3 3.9.2 7 1.3 9.3.1.2.2.4.3.7l.3.3.4.1h.3.2c.5-.1 1-.2 1.5-.4.2-.1.4-.1.7-.2l4-1.1c.6-.2 1.1-.3 1.7-.5.9-.2 1.8-.5 2.7-.8 1.1-.3 2.3-.7 2.4-2.5.2-2.2-.5-4.7-1.1-7z"/><path d="m398.2 114c-.7-1.6-1.4-3-2.1-4.2-1.8-3.5-3.9-6.1-6.3-8-2.8-2.3-6.2-3.9-9.2-5.3-2.5-1.1-4.4-1.6-6-1.4-.7.1-1.4.3-2 .7l-.1.1c-.4.3-.8.6-1.2.9l-.3.2c-1.1 1-1.7 2.1-1.9 3.2-.5 3.9 2 7.1 4.1 9.9.2.3.4.5.6.8 1.1 1.5 2.3 3.1 3.1 4.9.5 1 .8 2.1 1.1 3.3.1.4.3.9.4 1.3.9 2.7 2.2 5.6 6 6.1.9.1 1.8.1 2.8 0 2.2-.2 4.4-1 6.3-1.6l.4-.1c.2-.1.4-.1.7-.2 2.3-.7 6-1.9 5.6-5.3-.2-1.5-.9-2.9-1.5-4.2-.2-.4-.3-.8-.5-1.1z"/><path d="m271.3 70.9c.1-.8.1-1.6-.1-2.4-.2-1.2-.8-2.5-1.3-3.6v-.1c-.1-.2-.2-.4-.3-.7-.1-.2-.2-.4-.3-.6-1-2.1-2.2-4.1-4.6-5-2.2-.8-4.6-.7-6.8-.7h-.1c-.4 0-.9 0-1.4.1-1.1.1-1.9.4-2.6.9-.9.6-1.1 1.3-1.3 1.9 0 .1-.1.2-.1.4-.3.8-.9 1.7-1.6 2.5l-.3.3c-.1.1-.2.2-.3.3l-.3.3c0 .1-.1.1-.2.2l-.1.1c-.2.2-.4.4-.6.5-1.6 1.6-3.6 3.5-3.8 6.1-.1 1.4.5 2.3 1 2.7 1.3 1.2 3.3 1.2 4.4 1h.4c1.1-.2 2.1-.4 3.1-.6 1.3-.3 2.4-.5 3.7-.7.4 0 .8-.1 1.1-.1 1.6-.1 3.2.1 4.9.3.8.1 1.6.2 2.5.3h1.4c2.1-.1 3.4-1.4 3.6-3.4z"/><path d="m135.2 141.3c.7-1.1 1.4-2.2 2-2.9 1.2-1.4 2.5-2.5 3.9-3.3l1.8-.9c1-.4 2.1-.9 3-1.6 2.5-1.8 4.1-4.7 4.3-7.7.2-3.2-1.4-6.1-4.4-8.1-3.4-2.2-7.6-2.4-10.8-2.4-.4 0-.8 0-1.3 0-1.8 0-3.6 0-5.4.2s-3.4.6-4.7 1.2c-.5.2-1.1.6-1.4.8l-.1.1-.1.1c-.1.1-.3.3-.3.4-.2.3-.3.5-.4.8-.8 1.4-1.6 3-2 4.7-.6 2.5-.8 5-.9 7.3 0 .9-.1 1.7-.2 2.6-.1 1.5-.2 3-.2 4.5-.1 2.4.1 4.4.6 6.1v.1l.1.1c.1.2.1.3.2.4v.1.1c.7 1.8 1.7 3.3 3.2 4.4 1.4 1 2.8 1.5 4.2 1.3 3.8-.4 6.6-4.9 8.9-8.4z"/><path d="m226.1 306.5c-3.2-3.3-6.2-4.7-8.9-4.4-.3 0-.6.1-.8.2h-.1-.1l-.5.2-.5.2c-4.2 2.3-6.4 6.5-5.6 10.8.4 2.4 1.9 4.1 3.4 5.6l.4.4c1.5 1.5 3.2 3.1 5.2 4 1.3.6 2.6.8 3.8.7.9-.1 1.7-.4 2.4-.9 1.9-1.2 3.1-3.2 4-4.8 1.1-1.9 2-4.1 1.1-6.5-.7-2.2-2.3-4-3.8-5.5z"/><path d="m219.6 120.6c-.7-.1-1.5-.1-2.2-.1-2.6.3-4.8 1.8-6.8 3.3-.5.4-1.1 1-1.8 1.9-.7.8-1.3 1.7-1.9 2.7-1.3 2-2.5 4.2-3.6 6.5-.6 1.4-1.3 3-1.6 4.9v.2.1.1.2.1.1c.2.6.5 1.2.9 1.6.8.8 1.9 1.5 3.4 2 3 1 6.1.9 9.2.9h.8.1c1.2 0 2.5 0 3.8-.2 2.4-.3 4.2-.9 5.7-2.1 2.6-2 3-5.7 3-8.7.1-2.5-.3-6.1-2.5-9.1-1.5-2.3-3.9-4-6.5-4.4z"/><path d="m355.7 167.6c-1-2-2.5-4.8-5.1-5.5-.8-.2-1.5-.3-2.3-.2-3.5.4-6 3.9-7.8 6.5-.2.3-.4.6-.6.9-1.3 1.7-2.6 3.6-3.8 5.5-.9 1.6-2.1 3.6-2.4 5.7-.3 2.7.6 5.5 2.3 7.2 1.3 1.3 2.9 1.9 4.8 1.6 1.1-.1 2.4-.5 3.8-1.2 2.4-1.2 5-2.9 7.4-4.9 2.8-2.2 4.5-4.5 5.3-7.1.9-3.1-.3-6-1.6-8.5z"/><path d="m315.5 263.7c-1.4-1.3-3.4-1.6-4.9-1.7-.9-.1-1.8-.1-2.8 0-2.6.3-5.2 1.4-7.3 3-4.4 3.5-7.3 8.9-7.8 14.6-.2 2.4.2 4.6 1 6.5.8 1.8 1.9 3 3.6 3.5.3.1.6.2 1 .3h.1.1.1.1c.1 0 .2.1.3.1s.3.1.4.1c1.4.3 2.7.4 3.9.3h.5c3.5-.4 6.6-2.3 9.2-5.4 4.1-5.1 5.7-11.9 4.3-17.7-.3-1.3-.8-2.7-1.8-3.6z"/></g><path d="m116.8 132.1c-.2 2.2-.4 4.5 0 6.7.3 2.2 1.2 4.4 2.7 6 .5.5 1.2 1 1.9.8.6-.2.9-.9 1.1-1.5 1-2.9 1.8-5.9 2.9-8.7 1.1-2.9 2.6-5.6 4.9-7.7 1.3-1.2 2.8-2.1 4-3.3s2.2-2.9 2-4.6c-.1-1-.6-1.9-1.1-2.8-.8-1.3-1.8-2.4-3.2-3.1-1.6-.8-3.5-.6-5.3-.2-2.3.6-4.5 1.9-6.1 3.8-1.7 2-1.9 4.1-2.4 6.5-.6 2.7-1.1 5.3-1.4 8.1z" fill="#c66e50"/><path d="m91.3 250.2c2.5-.8 5.1-1.5 7.6-2.3 2.3-.7 4.7-1.4 6.4-3.1s2.6-4.6 1.2-6.5c-1.3-1.8-3.9-2.2-6.2-1.9-3.7.5-7.5 2.3-9.6 5.4-1 1.5-1.4 2.9-1.2 4.6.2 1.5-.3 4.5 1.8 3.8z" fill="#c66e50"/><path d="m215.3 319.6c.5-.1.8-.5 1.2-.8 1.5-1.5 3.1-3 3.7-5 .4-1.3.4-2.8.3-4.2-.3-2.9-1-5.8-2.9-8-.6-.7-1.4-1.3-2.3-1.2-.4.1-.8.3-1.1.5-2.4 1.5-4.4 3.6-5.5 6.2-1.1 2.8-.9 6.1 1 8.6 1 1.2 3.9 4.3 5.6 3.9z" fill="#c66e50"/><path d="m271.5 365.4c.5.2 1 .4 1.5.3.6-.1 1.1-.5 1.5-.9 2-2 2.9-4.7 3.7-7.4.6-1.7 1.1-3.6.6-5.4-.1-.4-.3-.8-.6-1.1-.6-.6-1.6-.6-2.4-.5-3.8.5-7.4 2.6-9.8 5.6-.7.8-1.3 1.8-1.1 2.8.1.6.5 1.2.9 1.7 1.8 2.4 2.9 3.7 5.7 4.9z" fill="#c5604d"/><path d="m293.8 285.8c.7.9 1.7 1.6 2.8 1.7.4 0 .8 0 1.2-.2.4-.3.7-.7.9-1.2 2.2-4.8 3.6-10.1 7.2-14 1.8-2 4.2-3.7 4.8-6.4.2-.8.2-1.7-.3-2.4-.9-1.5-3.2-1.5-4.9-1-6.7 2-13.5 9-13.5 16.4-.1 2.3.4 5.3 1.8 7.1z" fill="#c66e50"/><path d="m205 143.7c.5.2 1 .4 1.5.3 1.2-.2 1.8-1.4 2.2-2.5 1.1-2.9 2.3-6 4.5-8.2 1.3-1.2 2.8-2.2 4.2-3.3s2.7-2.5 3.2-4.2-.1-3.8-1.7-4.6-3.6 0-5.2.7c-4 1.9-8.3 4.1-10.1 8.1-.7 1.6-.9 3.4-1.8 5-1.3 2.9.3 7.3 3.2 8.7z" fill="#c66e50"/><path d="m250.4 72.6c.9-.8 1.7-1.9 2.8-2.4 1.4-.6 3-.4 4.4-1 .7-.4 1.3-1 1.8-1.6.9-1.1 1.8-2.3 2.3-3.7s.6-2.9 0-4.3c-.8-1.8-2.9-2.9-4.9-2.8s-3.8 1.2-5 2.8c-.7.9-1.2 2-1.8 3-.9 1.5-2 3-3.2 4.2-.9.9-3.2 2.1-3.2 3.5-.1 3.4 4.8 3.9 6.8 2.3z" fill="#c5604d"/><path d="m343.1 176.6c1.1-1.1 2.6-1.7 3.8-2.6 2.1-1.6 3.4-4.1 3.6-6.8.1-.8 0-1.6-.3-2.3-.8-1.6-2.9-2.3-4.7-1.9s-3.2 1.7-4.5 3c-3.5 3.6-9 10.6-8.5 16.2.2 2.5 2.4 3.5 4.7 2.4 3-1.5 3.5-5.8 5.9-8z" fill="#c66e50"/><path d="m380.4 111.7c-.5-1-1-2-1-3s.5-1.8 1-2.7c.8-1.6 1.5-3.3 1.2-5-.2-1.5-1.1-2.9-2.1-4.1-1.4-1.7-3.5-3.3-5.7-3-1.9.3-3.4 1.9-4.3 3.5-1.3 2.2-2 4.9-1.2 7.2.9 2.5 3.3 4.3 4.8 6.3 1.4 1.8 2 3.8 3.1 5.8.8 1.4 2.7 4.1 4.4 3.1 2.5-1.3.6-6.4-.2-8.1z" fill="#c5604d"/><path d="m416.3 208.3c.7-1.6 1.3-3.2 1.8-4.8.5-1.5.9-3 1.9-4.2.5-.6 1.2-1.1 1.7-1.7 2.8-2.9 2.7-7.9.4-11.2-.2-.3-.4-.6-.8-.7-.2 0-.4 0-.7.1-3 .9-4.8 4-6.1 6.9-1.7 3.9-2.6 7.7-2.5 11.9 0 1.2-.2 2.4.4 3.5 1.2 1.8 3.1 2.2 3.9.2z" fill="#c5604d"/><path d="m386.8 304c1.1-1.2 2.1-2.6 3.6-3.2.6-.2 1.2-.3 1.7-.5 1.9-.7 2.9-2.8 3.4-4.8.4-1.7.7-3.6 0-5.2-.7-1.5-2.1-2.6-3.6-3.1s-3.3-.5-4.9-.1c-4.4 1-9.3 5-8.5 10 .6 4 3.2 12.4 8.3 6.9z" fill="#c5604d"/><path d="m164.7 353.8c1.3-.5 1.3-2.4 1-3.7-.6-2.6-1.2-5.2-1.8-7.8-1-4.2-2-8.6-4.6-12-1.1-1.4-2.5-2.7-4.3-2.7-2.1-.1-4 1.7-4.7 3.7s-.5 4.2-.2 6.4c.2 1.8.5 3.7 1.3 5.3 1.5 2.7 9.5 12.1 13.3 10.8z" fill="#c66e50"/><path d="m229.5 305.7c-3.3-3.7-8.2-7.5-13.2-6.6-.3 0-.6 0-1 .2-.1 0-.1.1-.2.1-.8.3-1.6.7-2.4 1.2-.1.1-.2.2-.3.3-3.6 2.5-6 6.5-5.9 11 0 2.9 1.1 5.6 3 7.7 2 2.3 4.4 4.6 7 6.1 2.5 1.4 5.5 1.9 8.3.9 2.5-1 4.4-3.1 5.8-5.3 1.6-2.5 3-5.3 2.7-8.3-.3-2.7-1.9-5.2-3.8-7.3zm-1.5 12.3c-.9 1.7-2 3.4-3.6 4.4-1.6 1.1-3.5.9-5.3.1-2.1-.9-3.7-2.6-5.3-4.2-1.5-1.4-2.8-3-3.1-5.1-.7-4.1 1.6-7.8 5.1-9.7.3-.2.6-.3 1-.5 3.2-.9 6.6 1.9 8.7 4 1.5 1.5 3 3.2 3.6 5.2.6 2.2-.1 4-1.1 5.8z" fill="#3f1311"/><path d="m320.5 268c-.7-3.6-2-6.8-5.7-8.2-3.9-1.5-8.6-1.1-12.3.6-6.6 2.8-11.2 9.8-12.4 16.6-1 5.4.1 13.1 6 15.2 6 2.1 12.3 1.4 17.1-3.1 5.5-5.1 8.7-13.6 7.3-21.1zm-8.3 16.4c-2.3 2.8-5.3 4.8-9 5.1-1.2.1-2.4 0-3.6-.3-.2-.1-.5-.1-.7-.2-.1 0-.1 0-.2-.1 0 0 0 0-.1 0-.3-.1-.6-.2-.9-.3-1.4-.5-2.4-1.6-3-3-.8-1.8-1.1-3.9-.9-6 .4-5.3 3.2-10.5 7.4-13.8 2.6-2 6-3.1 9.3-2.8 1.5.1 3.1.4 4.3 1.5.9.8 1.2 2 1.5 3.1 1.4 5.7-.4 12.2-4.1 16.8z" fill="#3f1311"/><path d="m229.6 124.6c-1.9-3.4-5.2-6-9-6.8-4.4-1-8.4 1.1-11.7 3.7-1.7 1.4-3 3.3-4.2 5.1-1.5 2.3-2.9 4.7-4 7.3-.9 1.9-1.8 4-1.9 6.1-.2 3.1 2.4 5.5 5.1 6.7 3.6 1.6 7.7 1.6 11.6 1.6 4 0 8.2-.1 11.7-2.5 3.2-2.2 4.3-6 4.6-9.8.2-4-.3-8-2.2-11.4zm-1.8 9.6c-.1 2.7-.4 6.2-2.7 7.9-2.5 2-6 2-9 2.1-3.2 0-6.6.2-9.7-.8-1.1-.4-2.2-.9-3-1.7-.3-.4-.6-.8-.7-1.3 0 0 0 0 0-.1 0-.1 0-.1 0-.2.3-1.6.8-3 1.5-4.6 1-2.2 2.2-4.4 3.5-6.4.6-.9 1.2-1.8 1.9-2.7.6-.7 1.1-1.4 1.6-1.7 2.4-1.8 5-3.6 8.2-3.1 2.5.4 4.7 2 6.1 4 1.7 2.5 2.3 5.6 2.3 8.6z" fill="#3f1311"/><path d="m431.5 203.5c-.5-2.9-1.3-5.2-1.8-8.1-.8-4.5-1.6-10.5-6.6-12.2-1-.3-1.9-.4-2.7-.3-.6-2.2-.6-4.5-.8-6.7s-.5-4.3-1.2-6.3c-1.3-4-3.5-7.6-5-11.4-1.7-4.1-1.9-8.4-2.4-12.8-.4-4.3-1.3-8.5-3.5-12.3-1.8-3.2-4.4-5.9-7-8.4 1-.7 1.8-1.7 2.2-2.8 1.5-3.8-1.2-8.1-2.8-11.4-1.8-3.6-3.8-7.1-6.7-10-3-2.9-6.7-4.9-10.4-6.6-2-.9-4-1.8-6.2-2-1.5-.1-3.2-.1-4.6.4-1.4-2.1-3.5-3.6-6-4.6-3.3-1.3-6.5-2.4-9.5-4.3-5.4-3.4-10.2-7.9-16.1-10.7-3.2-1.5-6.6-2.3-10.2-2.4-4-.1-8 .5-12 .7-3.9.2-7.6-.4-11.2-1.9s-7-3.2-10.8-4.2c-7.6-2-15.5-1.7-23.2-.9-.9-2.3-2.1-4.7-3.8-6.5-2.1-2.1-5-2.9-7.9-3-3.3-.1-7.3-.4-9.9 2-.6.5-1.1 1.2-1.5 1.9-.3.5-.3 1-.4 1.2-.3.5-.6 1-.9 1.5-8.4-.4-16.8-1.8-25.3-1.6-8.8.2-16.8 2.6-24.4 6.9-7.5 4.3-14 10.1-20.7 15.4-3.4 2.8-7 5.4-10.7 7.7-3.6 2.2-7.3 4.3-10.9 6.3-6.6 3.6-13.7 8-16.2 15.5-.7-.1-1.5-.2-2.2-.2-2.7-.2-5.4-.1-8.1 0-2.4.1-4.9.4-7.2 1.4-1.8.8-2.9 1.7-3.9 3.3-1.1 1.9-2 4-2.6 6.1-.6 2.4-.8 4.8-.9 7.3-.1 2.4-.3 4.9-.4 7.3-.1 2.3.1 4.7.7 6.9-2.1 5.8-4.7 11.5-7.8 16.8-3 5.1-6.8 9.9-9.2 15.3-1.2 2.6-2 5.3-2.3 8.1-.4 3.4.1 6.8.5 10.1.4 3.2.8 6.5.3 9.7-.5 3-1.8 5.8-2.7 8.7-1.1 3.5-1.5 7.1-.9 10.8.6 3.9 2 7.6 3.4 11.2-.5.2-1 .4-1.4.7-.1 0-.2.1-.2.1-.1 0-.1.1-.2.1-4.7 3.1-8.6 8.2-7.7 14 .4 2.7 1.7 5.2 3.9 6.8 1.8 1.3 3.9 1.8 6 1.9-.2 2.5-.3 4.9-.1 7.3.3 3.5 1.5 6.7 3.1 9.8 3.1 5.9 7.9 11.4 8.9 18.2.5 3.8.5 7.4 2.7 10.8 1.6 2.5 4 4.4 6.4 6.2 2.4 1.7 4.9 3.3 7.1 5.4 2.6 2.5 3.7 5.9 5.6 9 2.3 3.7 5.7 6.9 9.1 9.6 2.4 1.9 5 3.6 7.7 5 .3 1.9.8 3.7 1.5 5.3 1.5 3.4 3.9 6.3 6.8 8.6s6.2 3.6 9.7 4.9c1.7.6 3.1 1.5 4.5 2.6 1.2.9 2.5 1.9 4 2.3 2 .6 4 .1 5.6-.9.6.8 1.1 1.6 1.7 2.3 2.1 2.5 4.8 4.2 8.1 4.6 3.3.5 6.7-.1 10-.1 3.7.1 7.1 1.1 10.3 2.8 2.9 1.5 5.7 3.4 8.8 4.6 3.6 1.4 7.3 1.7 11 1.1 3.9-.5 7.7-1.6 11.7-1.7 3.6-.1 7.3.5 10.9.9 4.1.5 8.4 1 12.5.5s7.9-2.1 11.6-3.8c2.4 2.1 5.4 3.8 8.6 2.4 3-1.3 4-4.4 4.9-7.3 6.7 1.8 13.9 0 20-3 7.3-3.7 13.5-9.2 21-12.7 3.9-1.8 8.2-2.7 12.2-4.1 3.6-1.2 7.1-2.8 10.4-4.8s6.3-4.5 8.8-7.5c2.6-3 4.1-6.7 7.4-9.1 1.8-1.4 3.8-2.5 5.6-3.9 1.7-1.3 3.4-2.9 4.8-4.5 1.3-1.5 2.5-3 3.5-4.7 2.5.6 5.2-.4 7.5-1.5 2.9-1.4 5.7-3.1 8-5.5 2.2-2.2 3.8-5.2 4-8.4.2-2.5-.3-4.8-1.1-7.1 3.5-2.6 6.1-6.4 7.8-10.4 2.3-5.5 2.8-11.4 3.5-17.2.3-2.8.8-5.4 2-7.9 1.1-2.3 2.6-4.4 3.9-6.5 1.4-2.2 2.8-4.5 3.7-7 .9-2.6 1.4-5.4 1.5-8.1.2-3.3.1-6.6 0-9.9-.1-3.6-.5-7.1-1.5-10.5.5-.1 1-.3 1.6-.4 1.6-.4 3.5-.7 5-1.7 2.8-1.5 2.3-5.5 1.7-8.5zm-61.3-103.2c.2-1.1.8-2 1.6-2.7.4-.4.8-.7 1.3-1h.1c2.1-1.3 5.2-.1 7.2.8 3.1 1.4 6.3 2.9 9 5.1 2.5 2.1 4.5 4.9 6 7.7.7 1.4 1.4 2.8 2 4.2.7 1.5 1.7 3.2 1.9 4.9.4 2.9-3.4 3.8-5.5 4.5-2.8.9-6 2.1-9.1 1.7s-4.3-2.6-5.1-5.4c-.5-1.6-.9-3.2-1.6-4.7-.8-1.8-2-3.5-3.2-5.1-2.3-2.9-5-6.1-4.6-10zm-123.9-28.7c.1-2.5 2.4-4.4 4-6l.1-.1c.1-.1.2-.2.2-.3.3-.3.6-.6.8-1 .7-.9 1.3-1.8 1.7-2.8.3-.8.4-1.3 1.1-1.8 1-.7 2.3-.7 3.5-.8 2.1-.1 4.5-.2 6.5.6s3.1 2.6 4 4.5c.2.4.4.8.6 1.3.5 1.1 1 2.3 1.3 3.5.1.7.2 1.4.1 2.1-.3 2.2-1.9 2.9-4 2.7-2.5-.2-5-.7-7.5-.6-2.7.1-5.3 1-8 1.4-1.9.3-4.5-.1-4.4-2.7zm-127.3 65.5c.1-2.4.3-4.7.4-7.1s.3-4.7.9-7c.4-1.6 1.2-3.1 2-4.5.1-.2.3-.5.4-.7.1-.1.2-.3.3-.3.3-.2.8-.5 1.2-.7 3.3-1.5 7.4-1.3 11-1.3 3.5 0 7.2.4 10.2 2.3 2.5 1.6 4.1 4.1 3.9 7.2-.2 2.7-1.6 5.4-3.8 7-1.4 1-3.2 1.5-4.7 2.4-1.6.9-3 2.1-4.2 3.5-3 3.6-7.5 14.6-13.8 9.9-1.4-1-2.3-2.4-2.8-3.9 0-.3-.1-.6-.3-.8-.7-2.1-.8-4.1-.7-6zm-21.4 117.2c-2.7-.2-5.2-1.2-6.1-4.2-1.5-4.7 2.2-8.8 5.8-11.3 4-2 8.2-1.5 12.4-.6 1 .2 2.2.4 3 1.1.7.7.9 1.8 1 2.7.2 2-.3 3.9-1.1 5.7-2.1 4.2-6.2 6.1-10.7 6.5-.1 0-.1 0-.2 0-1.4.1-2.8.2-4.1.1zm82.2 100.1c0 .4-.1.8-.2 1.3-.4 1.4-1.1 2.8-2.2 3.4-.5.3-1 .4-1.6.3-1-.1-1.9-.8-2.8-1.5-1.2-.9-2.3-1.8-3.7-2.5-2.7-1.4-5.7-2-8.3-3.5-2.5-1.4-4.7-3.4-6.4-5.7-.9-1.2-1.8-2.9-2.4-4.7-.5-1.5-.8-3.1-.9-4.6-.1-3.1.9-5.9 4.1-7.1 2.9-1 6.1.8 8.4 2.4 2.8 1.9 5.4 4.2 7.8 6.5 4.1 4 9 9.6 8.2 15.7zm104.6 17.2c-2.4 2.5-5.7-1.5-7.1-3.1-1.3-1.4-2.5-2.5-4.2-3.4-1.4-.8-3-1.3-4.3-2.3-.6-.6-1.3-1.3-1.5-2-.3-.6-.3-1.2-.2-1.8.1-.5.4-1.2.7-1.6.5-.7 1-1.3 1.6-1.9 2.9-2.6 6.6-4.4 10.2-5.7 2.2-.8 4.7-1.6 6.8-.2 1.9 1.3 5.2 3.9 5.1 6.5-.1 1.4-1 2.6-1.7 3.7-1.1 1.3-4.3 10.6-5.4 11.8zm113.2-68.3c-1.6 2.2-3.8 3.9-6.2 5.2-1.5.8-3.5 2-5.4 2.1-.7.1-1.4 0-2-.3 0-.1-.1-.2-.2-.3v-.1c-.3-.6-.6-1.3-.8-2 0-.1-.1-.2-.1-.3-.6-1.7-1-3.5-1.4-5.3-.4-1.7-.7-3.5-.8-5.3 0-.3 0-.7 0-1s0 0 0-.1 0-.2 0-.3c.2-1.2.6-2.4 1.3-3.4 1.4-2.3 3.7-3.9 6.3-4.7 1.3-.4 2.6-.6 4-.7 1.5-.1 2.5.1 3.5 1.3.6.8 1.2 1.7 1.7 2.6.5.9.9 1.8 1.2 2.7.9 3.4 1 6.9-1.1 9.9zm23.1-78.5c.1 2.7.2 5.5.1 8.2-.1 2.6-.3 5.3-1.1 7.8-.7 2.3-1.9 4.5-3.2 6.5-2.7 4.3-5.6 8.4-6.5 13.5-1 5.4-.9 10.9-2.6 16.2-1.3 4.3-3.6 8.4-7 11.3-.8-1.4-1.7-3-3-4-1.5-1.2-3.2-1.4-5-1.3-3.7 0-7.5 1.2-10.4 3.4-2.6 2-4.5 4.9-5.2 8.2-.4 1.8 0 3.8.2 5.6.4 2.7 1.1 5.4 1.9 8.1.4 1.2.8 2.8 1.6 4-.8 1.2-1.6 2.4-2.5 3.5-2.5 3-5.4 5.2-8.6 7.3-1.6 1.1-3.2 2.2-4.6 3.6-1.3 1.4-2.3 3-3.3 4.6-2 3.1-4.5 5.7-7.5 7.9-2.9 2.1-6.1 3.8-9.5 5.1-3.7 1.5-7.6 2.4-11.4 3.6-7.6 2.6-14 7.7-20.7 11.9-6.1 3.7-13.8 7-21 5.1.3-.8.7-1.5 1.1-2.2.9-1.6 2.1-3.1 2.6-4.9 1.1-4-1.6-7.4-4.5-9.9-1.4-1.3-3-2.5-4.9-2.9-2-.5-4.1 0-6 .5-4.4 1.2-9 3.4-12.5 6.4-2 1.7-3.8 3.8-4.2 6.4-.5 3 1.1 5.6 3.3 7.5.1.1.3.2.4.3 1.4 1 2.9 1.6 4.4 2.4 1 .5 1.7 1.1 2.4 1.9-2.6 1.2-5.4 2.3-8.2 2.8-3.5.5-7.1.3-10.6-.1-3.6-.4-7.2-1-10.8-1.1-3.9-.1-7.6.4-11.4 1.1-3.5.7-7.1 1.3-10.7.3-3.1-.9-6-2.7-8.8-4.3-3-1.6-6.1-3-9.4-3.6-3.5-.6-6.9-.3-10.4-.2-3.3.1-6.3-.5-8.5-3.1-.8-1-1.6-2-2.3-3 .1-.2.2-.3.2-.5 3.2-7.4-1.1-15.1-6.1-20.5-3.1-3.4-6.6-6.5-10.4-9.1-3.5-2.4-7.8-4.4-12.1-3.1-.1 0-.2.1-.3.1s-.2.1-.3.1c-3.8 1.7-5.6 5-6 8.7-4.7-2.8-9-6.3-12.3-10.6-2.2-3-3.4-6.6-5.7-9.5-1.9-2.3-4.3-4.1-6.7-5.8-2.2-1.6-4.6-3.1-6.4-5.1-.9-1-1.7-2-2.2-3.2-.7-1.7-.9-3.6-1-5.5-.3-3.5-1.2-6.7-2.8-9.9-1.5-3-3.4-5.9-5.1-8.8-1.8-3-3.5-6.1-4.2-9.6-.5-2.8-.4-5.8-.1-8.7 2.8-.2 5.6-.6 8-1.8s4.5-3.1 6-5.4c2.7-4.2 4.3-12-.7-15.3-1.5-1-3.4-1.3-5.2-1.7-1.9-.4-3.7-.6-5.6-.6-1 0-2 0-3 .2 0-.1-.1-.3-.1-.5-2.3-5.9-4.5-12.1-2.7-18.5.8-2.9 2.1-5.6 2.9-8.6.8-3.1.7-6.3.4-9.5s-.9-6.4-.9-9.6c0-2.8.6-5.6 1.7-8.2 2.2-5.3 5.7-9.9 8.7-14.8 3-4.8 5.5-9.9 7.6-15.1.2.2.3.4.5.6 2.8 2.9 6.9 4.2 10.7 2.5 4-1.8 6.1-5.6 8.4-9.1 1.1-1.7 2.3-3.4 4-4.5 1.7-1.2 3.8-1.7 5.6-2.9 3.1-2 5.2-5.5 5.7-9 .6-3.9-.7-7.6-3.6-10.3-1.5-1.4-3.4-2.5-5.3-3.2 2.3-5.8 7.8-9.3 13-12.3 7.1-4.1 14.2-8 20.8-13 6.6-5.1 12.9-10.7 19.9-15.3 6.9-4.5 14.3-7.5 22.6-8.1 8.2-.6 16.5.7 24.7 1.3-1.3 1.5-2.4 3.2-2.7 5.2-.5 3 .8 5.9 3.6 7.2 3 1.4 6.2.3 9.2-.3 1.6-.3 3.3-.5 5-.5s3.4.4 5.1.5c2.9.3 6-.1 7.8-2.8 1.3-1.9 1.5-4.2 1.1-6.4 6.1-.6 12.3-.9 18.4.2 7.3 1.4 13.5 6 20.9 6.7 7.3.6 14.9-1.9 22.1.2 5.8 1.8 10.5 5.9 15.4 9.4 2.8 2 5.8 3.9 9 5.2 2.7 1.1 7.4 2 8.9 4.9-1.2 1.2-2.2 2.6-2.6 4.4 0 .1-.1.3-.1.4s0 .3 0 .4c-.3 4.2 1.7 7.8 4.1 11.1 1.2 1.6 2.5 3.2 3.5 5 .9 1.6 1.3 3.4 1.8 5.1 1.1 3.7 3.1 6.9 7 7.9 3.6 1 7.5-.1 11-1.2.8-.3 1.8-.5 2.7-.8.2-.1.3-.1.5-.2 2.6 2.4 5.1 4.9 7.1 8 2.2 3.5 2.9 7.4 3.3 11.4.4 4.3.7 8.5 2.2 12.6 1.4 3.9 3.5 7.4 5 11.2 1.7 4.6 1.1 9.6 2.4 14.3 0 .1.1.1.1.2-2.2 2-3.7 5.2-4.8 7.6-1.3 3.2-1.6 6.8-1.9 10.2-.2 3.6-.1 7.2 1.3 10.6.5 1.4 1.3 2.7 2.8 3.2 1.6.6 3.5-.2 5.1-.7 0 .1 0 .2.1.4.9 2.7 1.1 5.7 1.3 8.7zm7.2-16.9c-.1 1.2-.6 1.4-1.7 1.7-1.5.4-2.9.8-4.4 1.2-1.3.4-2.7.7-4 1.1-.7.2-1.4.4-2.1.6-.1 0-.1 0-.1 0-.1-.1-.2-.4-.2-.5-1.3-2.7-1.4-5.9-1.2-8.9s.4-6.4 1.6-9.2c.6-1.5 1.3-3 2.2-4.4.7-1.1 1.8-2.6 3.2-2.7 3.3-.1 4 5.2 4.4 7.6.4 1.8.6 3.7 1.1 5.5.6 2.6 1.5 5.4 1.2 8z" fill="#3f1311"/><path d="m356.3 176c-.8 2.7-2.8 4.8-5 6.6s-4.7 3.5-7.3 4.7c-2.4 1.2-5.3 2-7.4-.2-1.6-1.6-2.3-4.1-2-6.4.3-1.9 1.3-3.7 2.3-5.4 1.1-1.9 2.4-3.7 3.7-5.5 2.2-2.9 5.3-8.1 9.7-6.8 2.3.7 3.6 3.2 4.6 5.1 1.2 2.6 2.2 5 1.4 7.9zm3.9-5.1c-.5-1.9-1.3-3.6-2.3-5.3-.8-1.4-1.6-2.8-2.8-4-2.4-2.4-5.6-3.2-8.8-2.3-2.9.9-5.2 3.1-7 5.5-1.7 2.3-3.5 4.7-5.1 7.2s-3.2 5.2-3.7 8.1c-.6 5.9 3.1 12.6 9.7 12.4 3.8-.1 7.2-2.5 10.2-4.5 2.9-1.9 5.9-4.1 7.8-7.1 2-3 3-6.5 2-10z" fill="#3f1311"/><g><g><path d="m351.1 217.3c12.1-.1 24.2 1.9 35.6 5.9 4.7 1.6 11.2 4.1 11.9 9.9.6 4.6-3.5 8.4-6.5 11.2-4.8 4.4-9.7 8.7-13.6 13.9-1.5 2.1 1.6 4.5 3.2 2.5 3.8-5.1 8.6-9.1 13.2-13.5 3.7-3.5 7.7-7.6 7.9-13 .1-6.6-5.3-11-10.8-13.4-6-2.5-12.5-4.2-18.9-5.4-7.3-1.4-14.8-2.1-22.2-2-1.1 0-1.9 1.2-1.7 2.2-.1 1.1.9 1.7 1.9 1.7z" fill="#3f1311"/></g><g><path d="m378.6 258c-1.9 2.7-2.1 6.3-.7 9.2 1.4 3 4 5.1 7 6.5 1 .5 2.2-.1 2.6-1 .4-1-.1-2.2-1-2.6-1.1-.5-1.8-1-2.8-1.8-.1-.1-.3-.2-.4-.3-.1 0-.2-.2-.1-.1-.2-.2-.4-.5-.6-.7s-.4-.5-.6-.8c-.1-.1-.2-.2-.2-.4.1.2 0-.1-.1-.2-.1-.2-.2-.5-.3-.7s-.1-.3-.2-.5c0-.1-.1-.3 0-.1-.1-.3-.1-.6-.1-.9 0-.1 0-.3 0-.4s0-.5 0-.2c0-.3 0-.6.1-.9 0-.1 0-.3.1-.4 0 0 .1-.4.1-.2-.1.2.1-.3.1-.3 0-.1.1-.2.2-.4 0 0 .2-.5.1-.3s.2-.3.2-.3c.6-.9.5-2.1-.3-2.8-1.2-.4-2.5-.3-3.1.6z" fill="#3f1311"/></g><g><path d="m378.2 260.9c1.5 2.7 3 5.4 5.4 7.4 2.2 1.9 5.3 3.1 8.2 2.5 1-.2 1.9-1.1 1.7-2.2-.2-1-1.1-1.9-2.2-1.7-.3.1-.6.1-.9.1-.1 0-.2 0-.2 0h.2c-.1 0-.4 0-.5 0-.3 0-.5-.1-.8-.1-.1 0-.5-.1-.2-.1.3.1-.2-.1-.2-.1-.3-.1-.6-.2-.8-.3-.1-.1-.2-.1-.4-.2-.1 0-.5-.3-.1-.1-.5-.3-1-.7-1.4-1-.1-.1-.2-.2-.3-.3-.3-.2.1.1-.1-.1s-.4-.5-.7-.7c-.4-.5-.8-1-1.1-1.5-.4-.5-.7-1.1-1-1.6-.2-.3-.3-.5-.5-.8.2.4-.1-.1-.1-.2-.1-.2-.2-.3-.3-.5-.5-.9-1.5-1.6-2.6-1.1-.9.4-1.7 1.7-1.1 2.6z" fill="#3f1311"/></g><g><path d="m379 260.8c2.8 4.6 8.8 7.1 14 5.9 1-.2 1.9-1.1 1.7-2.2-.2-1-1.1-2-2.2-1.7-.5.1-1.1.2-1.6.3-.2 0-.3 0-.5 0-.1 0-.5 0-.2 0s-.2 0-.2 0c-.1 0-.3 0-.4 0-.5-.1-1.1-.1-1.6-.3-.2 0-.3-.1-.1 0-.2 0-.3-.1-.5-.1-.3-.1-.5-.2-.8-.3s-.5-.2-.7-.3c-.1-.1-.2-.1-.4-.2s-.3-.2-.1 0c-.5-.3-.9-.6-1.3-1-.2-.2-.4-.4-.6-.5-.4-.4.3.3-.1-.1-.1-.1-.2-.2-.3-.3-.4-.4-.7-.9-1-1.4-.5-.9-2-1-2.8-.4s-.9 1.7-.3 2.6z" fill="#3f1311"/></g><g><path d="m382.8 260.4c.3-.4-.3.2 0 0 .1-.1.2-.2.4-.3.1-.1.2-.1.3-.2.1 0 .1-.1.2-.1.2-.1.1-.1-.2.1.2-.1.5-.2.7-.3.1-.1.3-.1.4-.1.4-.1-.5.1-.1 0 .3-.1.6-.1.9-.1h.3c.3 0 .5 0 .8.1h.2c.2.1.1 0-.2-.1.1.1.3.1.4.1s.2.1.4.2.1.1-.1-.1c.1 0 .1.1.2.1-.2-.2-.3-.3-.2-.2s.1 0-.1-.2c.1.2.1.1 0-.2 0 .2 0 .1 0-.2v.2c.1-.3.1-.4 0-.2v.1c-.1.2-.1.1.1-.1-.1.1-.2.3-.3.4s-.2.2-.3.3c-1 1.1-1.9 2.2-2.9 3.2-.7.8-.5 2.2.3 2.8.9.7 2.1.5 2.8-.3.9-1 1.8-2 2.7-3 1.1-1.2 2-2.8 1.3-4.4-.6-1.5-2.2-2.2-3.7-2.5-1.3-.2-2.6-.1-3.9.3-1.4.4-2.6 1.2-3.5 2.3-.7.8-.5 2.2.3 2.8.9.6 2 .4 2.8-.4z" fill="#3f1311"/></g></g><path d="m193.9 251.1s32.9-25.1 79.8-24.9l.1 6-76.1 24z" fill="#f5c38c"/><path d="m193.8 253.9 34.1-14s30.4-8.3 30.8-8.3c.3 0 16.2-2.5 16.2-2.5s-.9 13.5-.9 14.1c0 .7-6.2 17.8-6.2 17.8l-20.5 11.6-16.2 1.3-20-3.7-13.1-10.9z" fill="#3f1311"/><path d="m275.1 244.5s-16.1-9.1-30.4 3.8-3.6 24.9-3.6 24.9 25.9.5 34-28.7z" fill="#de5255"/><path d="m252 247.5c.8-.5 1.6-1.1 2.5-1.2s2 .3 2.3 1.2c.4 1.1-.4 2.3-1.4 3-1 .8-2.1 1.4-3.1 2.2-2.7 2.1-4.4 5.4-6.7 7.9-1 1.1-2.3 2.1-3.7 1.8-.3-.1-.5-.2-.7-.3-1.4-1.5 2.6-6.5 3.5-7.7 2.2-2.7 4.6-5 7.3-6.9z" fill="#e8656b"/><g><path d="m238.1 276.4c-32.3 4-45.4-20.1-45.5-20.4l-1-1.9 1.7-1.3c1.1-.8 27-20.2 81.2-26.2l2.4-.3.4 2.3c.1.4 5.4 35.3-27.6 45.2-4.1 1.4-7.9 2.2-11.6 2.6zm-39.9-20.8c4 5.9 18.7 22.9 50.1 13.6 24.3-7.3 24.9-29.8 24.3-37.2-.4 0-.8.1-1.3.2-42.4 5.2-66.5 19.1-73.1 23.4z" fill="#3f1311"/></g><path d="m194.4 248.9c2.8 4.2 2 9.7-1.9 12.9-2.8-4.2-2-9.7 1.9-12.9z" fill="#3f1311"/><path d="m271.5 223.6c5 .5 8.8 4.5 8.8 9.6-5-.5-8.7-4.6-8.8-9.6z" fill="#3f1311"/><ellipse cx="178.2" cy="218.1" fill="#c66e50" rx="11.6" ry="17.9" transform="matrix(.961 -.277 .277 .961 -53.43 57.885)"/><g><path d="m236.4 286.7s4.7 11.1 16.2 10.4 11.9-10.9 11.9-10.9-5.3 8.3-28.1.5z" fill="#c66e50"/><path d="m234.7 283.3c6.9 4.6 14.6 6.7 22.7 4.7 2.6-.6 5.1-1.6 7.9-2.9-6 12.3-26.1 11.1-30.6-1.8z" fill="#3f1311"/></g><ellipse cx="174.7" cy="217.2" fill="#3f1311" rx="11.6" ry="17.9" transform="matrix(.961 -.277 .277 .961 -53.32 56.882)"/><ellipse cx="170.2" cy="209.4" fill="#fff" rx="5.9" ry="3.9" transform="matrix(.526 -.851 .851 .526 -97.379 244.176)"/><path d="m254 189.8c-5.9 2.2-9.3 5.8-11.1 9.2-2.6 4.9-2.3 9.5-2.3 9.5 1-1.9 2-3.6 3.1-5.1 12.2-15.8 32.8-5.8 32.8-5.8s-8.2-13.1-22.5-7.8z" fill="#c66e50"/><path d="m238.8 213c2-13.8 15.3-25.4 29.5-20.5 4.3 1.4 8 3.9 11 7-4.6-1.5-8.9-2.9-13.4-3.3-11.9-1.4-20.7 7.7-27.1 16.8z" fill="#3f1311"/><path d="m248.5 144.7c11.4-7.9 28.4-1.8 35.2 9.5-4.4-1.8-8.4-4-12.9-5.6-7.1-2.9-14.4-4.1-22.3-3.9z" fill="#3f1311"/><path d="m181.8 176.3c-8.6.6-16.4 3-23.8 7-3.5 1.9-6.7 4-10.3 5.8 5.7-11.9 22-19.6 34.1-12.8z" fill="#3f1311"/><g><path d="m345.9 62.1c5.4-10.3 11.6-20.1 18.5-29.5 1.9-2.6-2-5.7-3.9-3.1-7.2 9.7-13.6 19.9-19.2 30.6-.6 1.2.1 2.8 1.3 3.3 1.3.6 2.7-.1 3.3-1.3z" fill="#3f1311"/></g><g><path d="m356.1 72.4c10.1-5.4 19.9-11.3 29.5-17.6 2.7-1.8-.4-5.7-3-4-9.2 6.1-18.6 11.7-28.3 17-1.2.6-1.9 1.9-1.4 3.3.4 1 2 1.9 3.2 1.3z" fill="#3f1311"/></g></g></g></g></svg>