<svg id="Layer_1" enable-background="new 0 0 512 512" height="512" viewBox="0 0 512 512" width="512" xmlns="http://www.w3.org/2000/svg"><g><circle cx="256" cy="256" fill="#ffe177" r="256"/><path d="m256 0c-7.637 0-15.197.335-22.664.99 130.769 11.471 233.336 121.263 233.336 255.01s-102.567 243.539-233.336 255.01c7.467.655 15.027.99 22.664.99 141.385 0 256-114.615 256-256s-114.615-256-256-256z" fill="#ffd15b"/><path d="m256 468.217c-42.813 0-86.305-14.315-107.139-28.456-3.531-2.396-4.45-7.201-2.054-10.732 2.397-3.53 7.202-4.449 10.732-2.054 14.69 9.971 54.411 25.789 98.461 25.789 108.496 0 196.765-88.268 196.765-196.765s-88.269-196.764-196.765-196.764c-4.267 0-7.726-3.459-7.726-7.726s3.459-7.726 7.726-7.726c117.017 0 212.217 95.2 212.217 212.217s-95.2 212.217-212.217 212.217z" fill="#2abcc8"/><path d="m220.416 339.728c-4.658 0-9.315-1.777-12.869-5.331l-59.887-59.887c-16.536-16.536 9.139-42.338 25.738-25.738l47.017 47.017 118.186-118.186c16.395-16.395 42.51 8.967 25.738 25.738l-131.054 131.056c-3.554 3.554-8.211 5.331-12.869 5.331z" fill="#fff"/><g><path d="m203.272 65.617c9.943 0 9.96-15.453 0-15.453-9.943 0-9.959 15.453 0 15.453z" fill="#2abcc8"/></g><g><path d="m153.794 86.014c9.943 0 9.96-15.453 0-15.453-9.943.001-9.959 15.453 0 15.453z" fill="#2abcc8"/></g><g><path d="m111.282 118.522c9.943 0 9.96-15.453 0-15.453-9.943.001-9.96 15.453 0 15.453z" fill="#2abcc8"/></g><g><path d="m78.631 160.926c9.943 0 9.96-15.453 0-15.453-9.943 0-9.959 15.453 0 15.453z" fill="#2abcc8"/></g><g><path d="m58.068 210.335c9.943 0 9.96-15.453 0-15.453-9.943 0-9.959 15.453 0 15.453z" fill="#2abcc8"/></g><g><path d="m50.994 263.383c9.943 0 9.96-15.453 0-15.453-9.943 0-9.96 15.453 0 15.453z" fill="#2abcc8"/></g><g><path d="m57.89 316.454c9.943 0 9.96-15.453 0-15.453-9.943 0-9.959 15.453 0 15.453z" fill="#2abcc8"/></g><g><path d="m78.288 365.932c9.943 0 9.96-15.453 0-15.453-9.943 0-9.96 15.453 0 15.453z" fill="#2abcc8"/></g><g><path d="m110.796 408.445c9.943 0 9.96-15.453 0-15.453-9.943 0-9.96 15.453 0 15.453z" fill="#2abcc8"/></g></g></svg>