<svg id="Capa_1" enable-background="new 0 0 510 510" viewBox="0 0 510 510" xmlns="http://www.w3.org/2000/svg"><g><g clip-rule="evenodd" fill-rule="evenodd"><g><path d="m77.997 402.251c0 29.383 21.942 53.639 50.335 57.28 9.944 23.768 33.417 40.469 60.794 40.469 36.382 0 65.874-29.493 65.874-65.874 0-136.908 0-273.816 0-410.724-9.185-8.328-21.374-13.402-34.749-13.402-24.867 0-45.635 17.541-50.613 40.924-3.726-.928-7.624-1.424-11.637-1.424-26.51 0-48 21.49-48 48 0 6.549 1.314 12.79 3.688 18.479-31.385 3.851-55.689 30.597-55.689 63.022 0 5.971.826 11.749 2.366 17.227-15.387 11.385-25.366 29.663-25.366 50.273 0 18.193 7.776 34.568 20.182 45.99-5.812 9.01-9.185 19.741-9.185 31.26 0 24.737 15.554 45.837 37.413 54.065-3.47 7.421-5.413 15.701-5.413 24.435z" fill="#fd7da0"/><path d="m432.003 402.251c0 29.383-21.942 53.639-50.335 57.28-9.944 23.768-33.418 40.469-60.794 40.469-36.382 0-65.874-29.493-65.874-65.874 0-136.908 0-273.816 0-410.724 9.185-8.328 21.374-13.402 34.749-13.402 24.868 0 45.635 17.541 50.613 40.924 3.726-.928 7.624-1.424 11.637-1.424 26.51 0 48 21.49 48 48 0 6.549-1.314 12.79-3.688 18.479 31.385 3.851 55.689 30.597 55.689 63.022 0 5.971-.826 11.749-2.366 17.227 15.387 11.385 25.366 29.663 25.366 50.273 0 18.193-7.776 34.568-20.182 45.99 5.812 9.01 9.185 19.741 9.185 31.26 0 24.737-15.554 45.837-37.413 54.065 3.47 7.421 5.413 15.701 5.413 24.435z" fill="#67ccd1"/><path d="m432.003 402.251c0 29.383-21.942 53.639-50.335 57.28-9.944 23.768-33.418 40.469-60.794 40.469-36.382 0-65.874-29.493-65.874-65.874v-109.851h208.998c-.218 24.51-15.703 45.372-37.408 53.541 3.47 7.421 5.413 15.701 5.413 24.435z" fill="#bc9af4"/><path d="m255 173.942c65.165 27.216 58.768-28.441 96.999-28.441 19.373 0 36.846-11.645 44.302-29.525l.041-.07c2.355-5.668 3.657-11.884 3.657-18.404 0-26.51-21.49-48-48-48-4.013 0-7.911.495-11.637 1.424-4.978-23.385-25.745-40.926-50.613-40.926-13.375 0-25.564 5.074-34.749 13.402z" fill="#fd6050"/><path d="m387.323 269.187c-78.125 27.108-62.865-47.534-132.323-28.923v167.363c71.442 41.247 59.274-65.206 125.482-32.191 7.874 3.926 16.669 6.067 25.768 6.067 6.946 0 13.834-1.253 20.335-3.698l.019.005c21.852-8.232 37.398-29.328 37.398-54.059 0-11.517-3.373-22.246-9.182-31.255l-.007-.002c-10.63-16.515-28.923-26.496-48.563-26.496-6.543.001-12.929 1.108-18.927 3.189z" fill="#fdcb50"/></g><path d="m252.096 453.529c-87.084-60.712-144.065-161.612-144.065-275.82 0-21.086 1.942-41.719 5.658-61.729-31.385 3.85-55.689 30.596-55.689 63.021 0 5.971.826 11.749 2.366 17.227-15.387 11.385-25.366 29.663-25.366 50.273 0 18.193 7.776 34.568 20.182 45.99-5.812 9.01-9.185 19.741-9.185 31.26 0 24.737 15.554 45.837 37.413 54.065-3.471 7.421-5.413 15.701-5.413 24.435 0 29.383 21.942 53.639 50.335 57.28 9.944 23.768 33.417 40.469 60.794 40.469 29.628 0 54.688-19.56 62.97-46.471z" fill="#db4b86"/></g><g fill="#052a75"><path d="m485 246.501c0-20.644-8.95-40.405-24.225-54.082.814-4.411 1.226-8.902 1.226-13.418 0-33.115-22.11-61.67-53.021-70.607.678-3.566 1.02-7.205 1.02-10.893 0-31.981-26.019-58-58-58-1.527 0-3.053.06-4.573.18-9.018-23.467-31.938-39.681-57.678-39.681-12.491 0-24.56 3.754-34.749 10.7-10.189-6.946-22.258-10.7-34.749-10.7-25.74 0-48.66 16.214-57.677 39.681-1.521-.12-3.046-.18-4.573-.18-31.981 0-58 26.019-58 58 0 3.688.342 7.326 1.02 10.893-30.911 8.937-53.021 37.492-53.021 70.607 0 4.517.411 9.008 1.226 13.418-15.275 13.677-24.226 33.438-24.226 54.082 0 17.522 6.415 34.469 17.819 47.593-4.482 9.194-6.823 19.307-6.823 29.656 0 24.673 13.643 47.361 34.789 59.193-1.854 6.226-2.789 12.687-2.789 19.307 0 32.082 22.617 59.618 53.466 66.241 12.878 25.393 38.859 41.509 67.664 41.509 28.157 0 52.781-15.418 65.874-38.254 13.093 22.836 37.717 38.254 65.874 38.254 28.805 0 54.786-16.116 67.663-41.508 30.849-6.624 53.466-34.16 53.466-66.241 0-6.62-.936-13.082-2.789-19.307 21.146-11.832 34.789-34.521 34.789-59.193 0-10.35-2.341-20.462-6.823-29.656 11.405-13.124 17.82-30.072 17.82-47.594zm-295.874 243.499c-22.603 0-42.844-13.475-51.569-34.329-1.378-3.295-4.41-5.605-7.954-6.06-23.72-3.041-41.606-23.402-41.606-47.361 0-4.186.529-8.28 1.579-12.243 4.643.994 9.382 1.495 14.173 1.495 5.918 0 11.818-.777 17.535-2.309 5.335-1.429 8.5-6.913 7.071-12.247-1.429-5.335-6.913-8.501-12.247-7.071-4.03 1.08-8.188 1.627-12.359 1.627-5.763 0-11.42-1.029-16.814-3.058-.132-.05-.265-.096-.399-.14-18.285-7.07-30.539-24.921-30.539-44.555 0-9.208 2.624-18.143 7.589-25.84 2.638-4.089 1.949-9.482-1.63-12.778-10.776-9.917-16.956-23.998-16.956-38.63 0-16.792 7.743-32.162 21.247-42.185.02-.015.041-.029.061-.044 8.966-6.623 20.043-10.271 31.191-10.271 5.523 0 10-4.477 10-10s-4.477-10-10-10c-10.138 0-20.235 2.185-29.484 6.29-.01-.43-.016-.86-.016-1.291 0-26.989 20.166-49.815 46.906-53.095 3.106-.381 5.855-2.194 7.428-4.899s1.789-5.991.583-8.878c-1.936-4.636-2.917-9.557-2.917-14.627 0-20.953 17.047-38 38-38 2.999 0 5.987.352 8.886 1.045.107.031.215.06.325.087 6.683 1.67 12.79 5.127 17.66 9.997 1.953 1.953 4.512 2.929 7.071 2.929s5.119-.977 7.071-2.929c3.905-3.905 3.905-10.237 0-14.142-4.908-4.907-10.637-8.874-16.899-11.737 6.605-14.736 21.5-24.751 38.138-24.751 8.965 0 17.608 2.859 24.749 8.124v105.933c-7.232 3.646-15.253 5.562-23.372 5.562-23.445 0-44.057-15.816-50.125-38.462-1.429-5.335-6.914-8.502-12.247-7.071-5.335 1.429-8.501 6.913-7.071 12.247 8.406 31.374 36.962 53.286 69.443 53.286 7.972 0 15.876-1.334 23.372-3.909v145.382c-2.74 1.103-5.679 1.677-8.648 1.677-10.458 0-19.654-7.056-22.361-17.158-1.43-5.334-6.913-8.502-12.248-7.071-5.334 1.43-8.5 6.913-7.071 12.248 5.046 18.83 22.185 31.981 41.679 31.981 2.914 0 5.812-.297 8.648-.878v41.996c-8.327-1.492-16.88-1.135-25.201 1.094-30.93 8.288-49.351 40.193-41.063 71.124 1.197 4.468 5.237 7.415 9.653 7.414.856 0 1.728-.111 2.595-.343 5.334-1.429 8.5-6.913 7.071-12.248-5.433-20.277 6.644-41.195 26.921-46.628 6.629-1.777 13.484-1.739 20.024.084v49.742c.001 30.809-25.064 55.874-55.873 55.874zm257.288-192.089c4.965 7.697 7.589 16.632 7.589 25.84 0 19.633-12.254 37.483-30.537 44.554-.134.044-.267.091-.401.141-5.395 2.029-11.052 3.058-16.814 3.058-5.523 0-10 4.477-10 10s4.477 10 10 10c4.791 0 9.53-.501 14.173-1.496 1.05 3.962 1.579 8.057 1.579 12.243 0 23.87-17.755 44.168-41.344 47.326-.092.009-.185.02-.277.032-2.024.262-4.087.396-6.131.396-8.37 0-16.626-2.212-23.877-6.398-4.784-2.76-10.899-1.122-13.66 3.661s-1.122 10.899 3.661 13.66c7.406 4.275 15.552 7.099 23.966 8.346-10.431 12.921-26.265 20.726-43.467 20.726-30.809 0-55.874-25.065-55.874-55.874v-114.264c2.931-1.289 6.112-1.964 9.328-1.964 6.184 0 11.997 2.408 16.369 6.78 1.953 1.953 4.512 2.929 7.071 2.929s5.118-.977 7.071-2.929c3.905-3.905 3.906-10.237 0-14.142-8.149-8.15-18.985-12.639-30.511-12.639-3.147 0-6.275.346-9.328 1.023v-110.805c7.599 2.201 14.593 3.299 21.053 3.299 5.917 0 11.387-.921 16.458-2.76 5.192-1.882 7.875-7.617 5.993-12.81-1.882-5.192-7.619-7.876-12.81-5.993-7.676 2.783-17.739 1.885-30.694-2.749v-138.978c7.141-5.265 15.784-8.124 24.749-8.124 16.638 0 31.533 10.015 38.137 24.751-6.262 2.863-11.992 6.83-16.899 11.737-3.905 3.905-3.906 10.237 0 14.142 1.953 1.953 4.512 2.929 7.071 2.929s5.118-.977 7.071-2.929c4.871-4.87 10.977-8.327 17.66-9.997.109-.027.217-.057.325-.087 2.899-.694 5.887-1.045 8.886-1.045 20.953 0 38 17.047 38 38 0 5.07-.981 9.991-2.917 14.627-1.205 2.888-.989 6.173.583 8.878s4.322 4.518 7.428 4.899c26.741 3.28 46.906 26.106 46.906 53.095 0 .431-.005.861-.016 1.291-9.249-4.104-19.345-6.29-29.484-6.29-5.523 0-10 4.477-10 10s4.477 10 10 10c11.147 0 22.225 3.647 31.191 10.271.02.015.04.029.061.044 13.504 10.023 21.248 25.393 21.248 42.185 0 14.632-6.18 28.713-16.955 38.632-3.58 3.296-4.269 8.689-1.631 12.778z"/><path d="m181.848 217.171c1.43-5.335-1.736-10.818-7.071-12.248-5.335-1.432-10.819 1.737-12.248 7.071-4.753 17.737-20.897 30.125-39.261 30.125-7.125 0-14.153-1.883-20.323-5.445-4.782-2.76-10.898-1.123-13.66 3.66s-1.123 10.898 3.66 13.66c9.206 5.315 19.691 8.125 30.323 8.125 4.565 0 9.038-.514 13.356-1.491 2.486 5.15 3.79 10.821 3.79 16.559 0 20.993-17.079 38.073-38.072 38.073-5.523 0-10 4.477-10 10s4.477 10 10 10c32.021 0 58.072-26.051 58.072-58.073 0-8.343-1.807-16.592-5.261-24.15 12.816-7.935 22.595-20.567 26.695-35.866z"/><path d="m384.044 259.74c-23.653 8.208-35.385 5.457-42.151 2.672-5.108-2.102-10.951.336-13.053 5.443-2.101 5.107.336 10.951 5.443 13.053 6.955 2.861 14.382 4.296 22.521 4.296 10.038 0 21.157-2.184 33.797-6.57 5.217-1.811 7.979-7.508 6.169-12.726s-7.51-7.979-12.726-6.168z"/></g></g><g/><g/><g/><g/><g/><g/><g/><g/><g/><g/><g/><g/><g/><g/><g/></svg>