<svg id="Capa_1" enable-background="new 0 0 512 512" height="512" viewBox="0 0 512 512" width="512" xmlns="http://www.w3.org/2000/svg"><g><g><path clip-rule="evenodd" d="m354.69 99.298c98.732 17.643 164.468 111.765 146.779 210.241-17.66 98.505-112.026 164.043-210.786 146.428-98.732-17.643-164.468-111.765-146.779-210.241 17.66-98.505 112.027-164.043 210.786-146.428z" fill="#99e6fc" fill-rule="evenodd"/></g><g><path clip-rule="evenodd" d="m237.392 276.798c-3.43-15.098 3.969-30.083 25.881-33.532 35.603-5.598 32.173-19.622 21.147-53.974-6.69-46.793 56.892-19.933 84.36-86.913-4.621-1.187-9.326-2.234-14.088-3.082-98.76-17.614-193.126 47.923-210.786 146.428-.283 1.47-.51 2.94-.737 4.411 18.652 7.266 34.64 17.416 43.456 31.808 26.249 42.919-8.476 59.911-13.89 97.911 23.641 34.494 59.131 60.845 101.906 72.493-.879-31.836 37.077-31.892 21.543-64.379-19.332-40.516 25.144-39.498 20.778-66.188-5.529-33.871-70.953-6.757-79.57-44.983z" fill="#6fd7a3" fill-rule="evenodd"/></g><g><path clip-rule="evenodd" d="m368.524 239.619c-16.498 6.673-16.951 27.651 6.123 34.522 19.956 5.937 39.629 19.424 47.084 41.025 12.388 35.794-33.081 56.547-24.01 127.457 52.526-23.806 92.835-72.154 103.749-133.083 7.88-43.796-.765-86.743-21.487-122.481-37.049-8.482-55.928 14.165-68.939 31.327-8.164 10.772-10.318 13.402-20.098 16.059-6.463 1.781-16.81 2.884-22.422 5.174z" fill="#6fd7a3" fill-rule="evenodd"/></g><g><path clip-rule="evenodd" d="m366.823 106.847c30.87 21.233 54.681 51.769 68.344 87.11 11.169-7.295 25.54-11.309 44.816-6.899-23.584-40.714-62.845-72.069-111.204-84.679-.652 1.556-1.304 3.026-1.956 4.468z" fill="#62dbfb" fill-rule="evenodd"/></g><g><path clip-rule="evenodd" d="m435.167 193.957c12.246 31.638 16.356 67.121 10.148 103.17-6.208 36.02-21.912 67.8-43.937 93.076-4.139 14.08-6.406 30.959-3.657 52.419 52.526-23.806 92.835-72.154 103.749-133.083 7.88-43.796-.765-86.743-21.487-122.481-19.276-4.41-33.648-.395-44.816 6.899z" fill="#3ec3a4" fill-rule="evenodd"/></g><g><path clip-rule="evenodd" d="m401.378 390.203c-32.06 36.756-77.528 59.742-126.738 61.975v.17c5.244 1.442 10.602 2.629 16.044 3.619 37.644 6.729 74.665 1.357 107.037-13.345-2.75-21.459-.482-38.339 3.657-52.419z" fill="#62dbfb" fill-rule="evenodd"/></g><g><path clip-rule="evenodd" d="m388.99 152.621c3.231 3.365 8.306 3.365 11.537 0l8.759-9.104 50.485-52.391c38.183-39.639-19.673-99.918-57.969-60.166l-7.058 7.295-7.03-7.295c-35.887-37.236-88.867 13.091-64.177 52.278 1.701 2.686 3.77 5.344 6.236 7.888z" fill="#f07281" fill-rule="evenodd"/></g><g><path clip-rule="evenodd" d="m379.862 134.555-4.139 4.298 13.266 13.769c3.231 3.365 8.306 3.365 11.537 0l8.759-9.104 50.485-52.391c30.728-31.921-.737-77.158-34.158-72.917 17.745 14.25 25.682 42.184 4.734 63.926l-43.767 45.435z" fill="#eb5569" fill-rule="evenodd"/></g><g><path clip-rule="evenodd" d="m158.56 448.051h-64.347l-28.347-48.065 28.347-62.767 101.651-15.126c27.95-4.184 41.103 11.083 87.194 35.087 39.232 22.082 25.597 56.349 18.029 68.111l180.115-13.911c25.087.65 37.248 40.261-1.843 52.08l-153.129 25.333c-25.512 5.74-54.029 9.698-79.881-4.043z" fill="#fed2a4" fill-rule="evenodd"/></g><g><path clip-rule="evenodd" d="m246.349 454.836-87.79-36.699h-83.651v29.913h83.651l87.79 36.699c25.852 13.741 54.369 9.783 79.881 4.043l153.129-25.333c27.213-8.228 29.594-29.942 20.041-42.58-3.997 5.231-10.488 9.783-20.041 12.666l-153.129 25.335c-25.512 5.739-54.028 9.697-79.881-4.044z" fill="#ffbd86" fill-rule="evenodd"/></g><g><path clip-rule="evenodd" d="m216.302 358.113c-14.57-3.449-19.956 16.681-3.713 26.181l88.498 40.997c3.09-4.807 7.2-13.402 8.306-23.382-26.987-14.901-73.277-35.54-93.091-43.796z" fill="#ffbd86" fill-rule="evenodd"/></g><g><path clip-rule="evenodd" d="m94.213 337.699v110.351 6.588c0 3.28-2.693 5.994-6.009 5.994h-74.694c-3.317 0-6.01-2.714-6.01-5.994v-122.084c0-3.308 2.693-5.994 6.01-5.994h74.694c3.317 0 6.009 2.686 6.009 5.994z" fill="#3ec3a4" fill-rule="evenodd"/></g><g><path clip-rule="evenodd" d="m74.908 417.374h-61.398c-3.317 0-6.01-2.686-6.01-5.966v43.23c0 3.28 2.693 5.994 6.01 5.994h74.694c3.317 0 6.009-2.714 6.009-5.994v-6.588-36.642c-.028 3.28-2.693 5.966-6.009 5.966z" fill="#0bb494" fill-rule="evenodd"/></g><g><path clip-rule="evenodd" d="m184.554 213.098c2.239 2.347 5.726 2.347 7.965 0l6.066-6.277 34.923-36.247c26.419-27.425-13.606-69.1-40.111-41.59l-4.847 5.033-4.876-5.033c-24.832-25.785-61.484 9.048-44.391 36.133 1.162 1.866 2.608 3.704 4.309 5.457z" fill="#f07281" fill-rule="evenodd"/></g><g><path clip-rule="evenodd" d="m178.232 200.602-2.863 2.997 9.184 9.5c2.239 2.347 5.726 2.347 7.965 0l6.066-6.277 34.923-36.247c21.26-22.053-.51-53.352-23.641-50.412 12.274 9.839 17.773 29.178 3.288 44.22l-30.274 31.412z" fill="#eb5569" fill-rule="evenodd"/></g><path d="m511.714 431.7c-2.116-15.717-14.867-27.416-30.318-27.817-.257-.005-.515 0-.772.02l-18.756 1.449c16.058-17.418 28.792-37.751 37.274-59.752 1.49-3.865-.435-8.206-4.3-9.696-3.865-1.488-8.206.435-9.696 4.3-9.836 25.511-25.886 48.598-46.468 66.938l-33.771 2.608c2.371-18.863 9.078-32.963 15.249-45.892 7.859-16.466 15.282-32.019 8.665-51.14-7.403-21.449-26.369-38.13-52.034-45.766-7.553-2.249-12.385-6.581-12.609-11.304-.178-3.741 2.565-7.219 7.18-9.085 2.642-1.078 7.509-1.991 11.805-2.797 3.375-.633 6.864-1.288 9.751-2.084 12.45-3.383 15.863-7.886 24.108-18.766 13.433-17.719 28.996-34.472 58.091-29.198 18.914 34.222 26.148 74.534 18.976 114.496-.731 4.077 1.98 7.975 6.058 8.707.448.081.894.12 1.333.12 3.562 0 6.722-2.548 7.374-6.177 12.627-70.363-15.844-141.714-72.817-184.289l29.138-30.245c10.642-11.048 15.636-24.35 14.441-38.469-1.033-12.208-6.947-24.335-16.225-33.272-16.453-15.849-44.433-22.245-66.976 1.157l-1.658 1.713-1.64-1.701c-12.552-13.029-28.279-18.016-44.288-14.043-17.446 4.33-32.05 18.702-37.205 36.614-4.05 14.075-1.555 28.469 6.774 40.656-32.43.67-63.894 9.635-92.08 26.326-11.457-5.021-25.631-4.286-37.781 7.919-9.195-9.225-20.652-12.705-32.334-9.801-12.86 3.195-23.614 13.77-27.397 26.94-3.614 12.581-.19 25.489 9.387 35.409l15.828 16.432c-8.363 16.418-14.248 33.949-17.498 52.192-.254 1.42-.479 2.839-.701 4.258-.034.169-.061.339-.084.508-3.825 24.853-2.694 49.614 3.343 73.791l-37.96 5.649c-1.694-5.521-6.842-9.548-12.917-9.548h-74.695c-7.449 0-13.509 6.053-13.509 13.494v39.046c0 4.142 3.358 7.5 7.5 7.5s7.5-3.358 7.5-7.5v-37.54h71.712v119.073h-71.712v-46.983c0-4.142-3.358-7.5-7.5-7.5s-7.5 3.358-7.5 7.5v48.489c0 7.441 6.06 13.494 13.509 13.494h74.694c7.141 0 12.99-5.567 13.463-12.582h55.389l86.088 35.988c14.097 7.418 28.655 10.079 43.208 10.079 13.91 0 27.818-2.431 41.313-5.459l152.918-25.298c.32-.053.636-.126.946-.22 25.1-7.59 32.051-25.092 30.186-38.941zm-46.599-253.962c-32.423-.284-49.984 22.841-60.049 36.117-7.845 10.351-8.78 11.366-16.114 13.359-2.31.637-5.345 1.206-8.558 1.809-5.239.983-10.656 2-14.684 3.643-10.516 4.253-16.999 13.554-16.517 23.695.543 11.45 9.258 20.784 23.313 24.969 9.922 2.952 33.889 12.396 42.135 36.289 4.607 13.314-.691 24.415-8.024 39.779-6.75 14.143-14.642 30.732-16.941 53.529l-76.155 5.881c1.468-4.053 2.743-8.821 3.327-14.092 1.294-11.949-.883-27.766-15.615-41.605 2.122-3.477 5.404-6.539 8.83-9.727 7.484-6.964 16.799-15.631 14.299-30.812-3.592-22.009-25.765-24.725-43.581-26.907-20.412-2.5-33.026-4.993-36.078-18.53-.917-4.04-1.271-9.95 2.258-15.156 3.253-4.8 9.296-8.019 17.474-9.306 16.839-2.648 26.545-7.396 31.473-15.395 7.254-11.775 2.279-27.625-4.15-47.657-2.043-15.543 4.469-19.021 23.178-26.593 13.64-5.52 30.219-12.236 44.307-28.485l24.335 25.272c2.991 3.114 6.961 4.829 11.179 4.828 4.215 0 8.183-1.713 11.172-4.824l19.612-20.357c15.541 11.354 28.83 25.009 39.574 40.276zm-139.076-125.262c3.643-12.658 14.253-23.189 26.403-26.204 2.077-.516 4.443-.872 7.017-.872 6.707 0 14.818 2.422 22.855 10.765l7.03 7.294c1.412 1.465 3.358 2.293 5.393 2.295h.008c2.032 0 3.977-.824 5.39-2.285l7.07-7.306c15.489-16.079 34.152-11.973 45.778-.773 12.507 12.048 18.276 33 1.388 50.532l-59.245 61.495c-.002.003-.005.006-.008.009-.268.277-.445.285-.726-.007l-59.219-61.498c-9.316-9.663-12.56-21.541-9.134-33.445zm-182.818 92.034c2.294-7.987 8.964-14.627 16.597-16.524 1.435-.356 2.859-.533 4.267-.533 5.058 0 9.9 2.285 14.203 6.75l4.875 5.033c1.413 1.458 3.356 2.282 5.387 2.282h.011c2.034-.003 3.98-.832 5.391-2.297l4.846-5.032c10.277-10.666 21.734-6.927 28.422-.484 7.842 7.555 11.464 20.687.888 31.666l-39.572 41.053-39.548-41.057c-7.489-7.759-7.27-15.624-5.767-20.857zm35.906 73.766c2.512 2.632 5.854 4.083 9.409 4.083 3.55 0 6.888-1.446 9.398-4.072l40.975-42.508c15.874-16.478 12.3-37.825.722-50.783 28.35-15.41 60.008-22.557 92.324-20.791l16.833 17.481c-11.956 14.3-26.498 20.188-39.477 25.441-17.888 7.239-36.385 14.726-32.317 43.226.06.418.155.831.284 1.233 5.78 18.007 9.311 30.229 5.861 35.829-2.358 3.827-9.237 6.589-21.033 8.444-15.649 2.464-23.625 9.902-27.56 15.708-5.109 7.538-6.696 17.089-4.471 26.883 5.592 24.806 29.597 27.746 48.884 30.108 19.59 2.399 28.996 4.605 30.601 14.444 1.141 6.93-2.546 10.733-9.715 17.403-3.637 3.384-7.578 7.057-10.654 11.674-.799-.483-1.616-.962-2.458-1.435-.069-.039-.14-.077-.21-.114-12.34-6.427-22.183-12.158-30.868-17.214-20.406-11.88-33.836-19.688-51.891-19.4.476-11.637-3.024-23.262-10.745-35.888-8.052-13.144-21.99-24.062-41.441-32.521 2.721-14.521 7.246-28.538 13.506-41.809zm-29.761 42.688c14.569 6.884 24.94 15.231 30.859 24.893 8.036 13.139 9.18 22.62 8.42 29.727l-34.657 5.157c-5.066-19.597-6.613-39.626-4.622-59.777zm328.272 195.178-152.632 25.251c-.142.023-.282.051-.422.083-24.966 5.617-51.296 9.098-74.715-3.349-.205-.109-.414-.208-.627-.297l-87.79-36.699c-.916-.383-1.899-.58-2.893-.58h-56.847v-96.865l95.262-14.176c17.769-2.662 28.223 3.428 51.133 16.767 8.802 5.125 18.776 10.932 31.377 17.498 16.569 9.347 24.122 21.904 22.453 37.308-.637 5.75-2.415 10.777-4.086 14.443l-82.111-38.037c-3.76-1.743-8.217-.105-9.958 3.653s-.106 8.216 3.653 9.958l88.4 40.951c1.244.6 2.59.827 3.899.712l179.622-13.873c8.826.418 14.559 7.891 15.49 14.811 1.335 9.899-5.839 18.264-19.208 22.441z"/></g></svg>