<?xml version="1.0" encoding="UTF-8"?>
<svg xmlns="http://www.w3.org/2000/svg" xmlns:xlink="http://www.w3.org/1999/xlink" version="1.1" id="Capa_1" x="0px" y="0px" viewBox="0 0 512 512" style="enable-background:new 0 0 512 512;" xml:space="preserve" width="512" height="512">
<g>
	<g>
		<path style="fill:#FFE177;" d="M399.003,87.17H112.997c-18.014,0-32.617,14.603-32.617,32.617v286.006&#10;&#9;&#9;&#9;c0,18.014,14.603,32.617,32.617,32.617h83.856c6.494,0,12.495,3.465,15.742,9.089l27.663,47.914&#10;&#9;&#9;&#9;c6.996,12.118,24.487,12.118,31.484,0l27.663-47.914c3.247-5.624,9.248-9.089,15.742-9.089h83.856&#10;&#9;&#9;&#9;c18.014,0,32.617-14.603,32.617-32.617V119.787C431.619,101.773,417.016,87.17,399.003,87.17z"/>
		<path style="fill:#FFD15B;" d="M128.444,241.408l-18.657-5.204c-1.353-0.377-2.525-1.229-3.301-2.398l-10.714-16.136&#10;&#9;&#9;&#9;c-2.314-3.485-7.432-3.485-9.746,0l-9.235,13.908v60.972l12.067-4.492c1.316-0.49,2.765-0.49,4.081,0l18.153,6.757&#10;&#9;&#9;&#9;c3.92,1.459,8.061-1.549,7.884-5.729l-0.816-19.352c-0.059-1.403,0.388-2.781,1.261-3.881l12.035-15.176&#10;&#9;&#9;&#9;C134.055,247.399,132.473,242.532,128.444,241.408z"/>
		<path style="fill:#FFD15B;" d="M335.243,89.845h-114.1l16.309,20.564c1.247,1.572,1.886,3.54,1.801,5.544l-1.166,27.643&#10;&#9;&#9;&#9;c-0.252,5.97,5.662,10.267,11.262,8.182l25.93-9.651c1.88-0.7,3.949-0.7,5.829,0l25.93,9.651c5.6,2.084,11.514-2.212,11.262-8.182&#10;&#9;&#9;&#9;l-1.166-27.643c-0.085-2.004,0.555-3.972,1.801-5.544L335.243,89.845z"/>
		<path style="fill:#FFD15B;" d="M401.514,87.276c0.063,0.83,0.106,1.665,0.106,2.511v286.006c0,18.014-14.603,32.617-32.617,32.617&#10;&#9;&#9;&#9;H82.997c-0.846,0-1.681-0.042-2.511-0.106c1.283,16.839,15.343,30.106,32.511,30.106h83.856c6.494,0,12.495,3.465,15.742,9.089&#10;&#9;&#9;&#9;l27.663,47.914c6.996,12.118,24.487,12.118,31.484,0l27.663-47.914c3.247-5.624,9.248-9.089,15.742-9.089h83.856&#10;&#9;&#9;&#9;c18.014,0,32.617-14.603,32.617-32.617V119.787C431.619,102.619,418.353,88.559,401.514,87.276z"/>
		<path style="fill:#FE7AB6;" d="M262.96,11.233l15.305,23.049c1.11,1.671,2.784,2.887,4.716,3.426l26.651,7.433&#10;&#9;&#9;&#9;c5.756,1.605,8.015,8.558,4.302,13.24L296.742,80.06c-1.246,1.572-1.886,3.54-1.801,5.544l1.166,27.643&#10;&#9;&#9;&#9;c0.252,5.97-5.662,10.267-11.262,8.182l-25.93-9.651c-1.88-0.7-3.949-0.7-5.829,0l-25.93,9.651&#10;&#9;&#9;&#9;c-5.6,2.084-11.514-2.213-11.262-8.182l1.166-27.643c0.085-2.004-0.555-3.972-1.801-5.544l-17.192-21.678&#10;&#9;&#9;&#9;c-3.713-4.682-1.454-11.634,4.302-13.24l26.651-7.433c1.932-0.539,3.606-1.755,4.716-3.426l15.305-23.049&#10;&#9;&#9;&#9;C252.345,6.256,259.655,6.256,262.96,11.233z"/>
		<path style="fill:#FE7AB6;" d="M85.253,193.233l10.714,16.136c0.777,1.17,1.949,2.021,3.301,2.399l18.657,5.204&#10;&#9;&#9;&#9;c4.029,1.124,5.611,5.991,3.012,9.269l-12.035,15.176c-0.873,1.1-1.32,2.478-1.261,3.881l0.816,19.352&#10;&#9;&#9;&#9;c0.176,4.179-3.964,7.188-7.884,5.728l-18.153-6.757c-1.316-0.49-2.765-0.49-4.081,0l-18.153,6.757&#10;&#9;&#9;&#9;c-3.92,1.459-8.061-1.549-7.884-5.728l0.816-19.352c0.059-1.403-0.388-2.781-1.261-3.881L39.823,226.24&#10;&#9;&#9;&#9;c-2.599-3.278-1.018-8.145,3.012-9.269l18.657-5.204c1.353-0.377,2.525-1.229,3.301-2.399l10.714-16.136&#10;&#9;&#9;&#9;C77.822,189.748,82.939,189.748,85.253,193.233z"/>
		<path style="fill:#FE7AB6;" d="M435.435,289.944l8.389,12.634c0.608,0.916,1.526,1.583,2.585,1.878l14.608,4.074&#10;&#9;&#9;&#9;c3.155,0.88,4.393,4.691,2.358,7.257l-9.424,11.883c-0.683,0.862-1.034,1.94-0.987,3.039l0.639,15.153&#10;&#9;&#9;&#9;c0.138,3.272-3.104,5.628-6.173,4.485l-14.213-5.29c-1.031-0.384-2.165-0.384-3.195,0l-14.213,5.29&#10;&#9;&#9;&#9;c-3.07,1.143-6.311-1.213-6.173-4.485l0.639-15.153c0.046-1.099-0.304-2.177-0.987-3.039l-9.424-11.883&#10;&#9;&#9;&#9;c-2.035-2.566-0.797-6.377,2.358-7.257l14.608-4.074c1.059-0.295,1.977-0.962,2.585-1.878l8.389-12.634&#10;&#9;&#9;&#9;C429.616,287.215,433.623,287.215,435.435,289.944z"/>
	</g>
	<g>
		
			<line style="fill:none;stroke:#000000;stroke-width:15;stroke-linecap:round;stroke-linejoin:round;stroke-miterlimit:10;" x1="81.072" y1="38.04" x2="85.053" y2="59.164"/>
		
			<line style="fill:none;stroke:#000000;stroke-width:15;stroke-linecap:round;stroke-linejoin:round;stroke-miterlimit:10;" x1="38.837" y1="53.116" x2="64.969" y2="79.248"/>
		
			<line style="fill:none;stroke:#000000;stroke-width:15;stroke-linecap:round;stroke-linejoin:round;stroke-miterlimit:10;" x1="23.762" y1="95.351" x2="44.885" y2="99.332"/>
		
			<line style="fill:none;stroke:#000000;stroke-width:15;stroke-linecap:round;stroke-linejoin:round;stroke-miterlimit:10;" x1="430.928" y1="38.04" x2="426.947" y2="59.164"/>
		
			<line style="fill:none;stroke:#000000;stroke-width:15;stroke-linecap:round;stroke-linejoin:round;stroke-miterlimit:10;" x1="473.163" y1="53.116" x2="447.031" y2="79.248"/>
		
			<line style="fill:none;stroke:#000000;stroke-width:15;stroke-linecap:round;stroke-linejoin:round;stroke-miterlimit:10;" x1="488.238" y1="95.351" x2="467.115" y2="99.332"/>
		
			<line style="fill:none;stroke:#000000;stroke-width:15;stroke-linecap:round;stroke-linejoin:round;stroke-miterlimit:10;" x1="81.072" y1="478.098" x2="85.053" y2="456.974"/>
		
			<line style="fill:none;stroke:#000000;stroke-width:15;stroke-linecap:round;stroke-linejoin:round;stroke-miterlimit:10;" x1="38.837" y1="463.022" x2="64.969" y2="436.89"/>
		
			<line style="fill:none;stroke:#000000;stroke-width:15;stroke-linecap:round;stroke-linejoin:round;stroke-miterlimit:10;" x1="23.762" y1="420.787" x2="44.885" y2="416.806"/>
		
			<line style="fill:none;stroke:#000000;stroke-width:15;stroke-linecap:round;stroke-linejoin:round;stroke-miterlimit:10;" x1="430.928" y1="478.098" x2="426.947" y2="456.974"/>
		
			<line style="fill:none;stroke:#000000;stroke-width:15;stroke-linecap:round;stroke-linejoin:round;stroke-miterlimit:10;" x1="473.163" y1="463.022" x2="447.031" y2="436.89"/>
		
			<line style="fill:none;stroke:#000000;stroke-width:15;stroke-linecap:round;stroke-linejoin:round;stroke-miterlimit:10;" x1="488.238" y1="420.787" x2="467.115" y2="416.806"/>
		<path style="fill:none;stroke:#000000;stroke-width:15;stroke-linecap:round;stroke-linejoin:round;stroke-miterlimit:10;" d="&#10;&#9;&#9;&#9;M308.393,367.179v-72.164l48.79,70.651c0.905,1.307,1.873,0.667,1.873-0.923l-0.676-69.863"/>
		
			<line style="fill:none;stroke:#000000;stroke-width:15;stroke-linecap:round;stroke-linejoin:round;stroke-miterlimit:10;" x1="268.428" y1="294.879" x2="268.428" y2="367.179"/>
		<path style="fill:none;stroke:#000000;stroke-width:15;stroke-linecap:round;stroke-linejoin:round;stroke-miterlimit:10;" d="&#10;&#9;&#9;&#9;M152.943,294.879l14.086,71.214c0.518,1.458,2.585,1.444,3.083-0.021l21.995-71.06"/>
		<path style="fill:none;stroke:#000000;stroke-width:15;stroke-linecap:round;stroke-linejoin:round;stroke-miterlimit:10;" d="&#10;&#9;&#9;&#9;M192.107,294.879l21.939,71.214c0.518,1.458,2.585,1.444,3.083-0.021l14.143-71.06"/>
		
			<polyline style="fill:none;stroke:#000000;stroke-width:15;stroke-linecap:round;stroke-linejoin:round;stroke-miterlimit:10;" points="&#10;&#9;&#9;&#9;152.943,190.573 174.183,223.102 195.249,190.742 &#9;&#9;"/>
		
			<line style="fill:none;stroke:#000000;stroke-width:15;stroke-linecap:round;stroke-linejoin:round;stroke-miterlimit:10;" x1="174.1" y1="257.069" x2="174.183" y2="223.102"/>
		<path style="fill:none;stroke:#000000;stroke-width:15;stroke-linecap:round;stroke-linejoin:round;stroke-miterlimit:10;" d="&#10;&#9;&#9;&#9;M312.852,190.573v45.756c0,7.792,3.865,13.039,10.432,17.234c3.198,2.043,7.237,3.499,12.257,3.505&#10;&#9;&#9;&#9;c4.347,0.006,7.98-1,10.985-2.513c7.653-3.854,12.532-9.706,12.532-18.274v-45.708"/>
		
			<circle style="fill:none;stroke:#000000;stroke-width:15;stroke-linecap:round;stroke-linejoin:round;stroke-miterlimit:10;" cx="247.823" cy="223.821" r="33.248"/>
		<path style="fill:none;stroke:#000000;stroke-width:15;stroke-linecap:round;stroke-linejoin:round;stroke-miterlimit:10;" d="&#10;&#9;&#9;&#9;M431.619,285.71V119.787c0-18.014-14.603-32.617-32.617-32.617H297.81"/>
		<path style="fill:none;stroke:#000000;stroke-width:15;stroke-linecap:round;stroke-linejoin:round;stroke-miterlimit:10;" d="&#10;&#9;&#9;&#9;M394.057,438.409h4.946c18.014,0,32.617-14.603,32.617-32.617v-58.761"/>
		<path style="fill:none;stroke:#000000;stroke-width:15;stroke-linecap:round;stroke-linejoin:round;stroke-miterlimit:10;" d="&#10;&#9;&#9;&#9;M80.381,266.056v139.736c0,18.014,14.603,32.617,32.617,32.617h83.856c6.494,0,12.495,3.465,15.742,9.089l27.663,47.914&#10;&#9;&#9;&#9;c6.996,12.118,24.487,12.118,31.484,0l27.663-47.914c3.247-5.624,9.248-9.089,15.742-9.089h43.91"/>
		<path style="fill:none;stroke:#000000;stroke-width:15;stroke-linecap:round;stroke-linejoin:round;stroke-miterlimit:10;" d="&#10;&#9;&#9;&#9;M121.943,87.17h-8.946c-18.014,0-32.617,14.603-32.617,32.617v69.274"/>
		
			<line style="fill:none;stroke:#000000;stroke-width:15;stroke-linecap:round;stroke-linejoin:round;stroke-miterlimit:10;" x1="214.575" y1="87.17" x2="157.943" y2="87.17"/>
		<path style="fill:none;stroke:#000000;stroke-width:15;stroke-linecap:round;stroke-linejoin:round;stroke-miterlimit:10;" d="&#10;&#9;&#9;&#9;M262.96,11.233l15.305,23.049c1.11,1.671,2.784,2.887,4.716,3.426l26.651,7.433c5.756,1.605,8.015,8.558,4.302,13.24&#10;&#9;&#9;&#9;L296.742,80.06c-1.246,1.572-1.886,3.54-1.801,5.544l1.166,27.643c0.252,5.97-5.662,10.267-11.262,8.182l-25.93-9.651&#10;&#9;&#9;&#9;c-1.88-0.7-3.949-0.7-5.829,0l-25.93,9.651c-5.6,2.084-11.514-2.213-11.262-8.182l1.166-27.643&#10;&#9;&#9;&#9;c0.085-2.004-0.555-3.972-1.801-5.544l-17.192-21.678c-3.713-4.682-1.454-11.634,4.302-13.24l26.651-7.433&#10;&#9;&#9;&#9;c1.932-0.539,3.606-1.755,4.716-3.426l15.305-23.049C252.345,6.256,259.655,6.256,262.96,11.233z"/>
		<path style="fill:none;stroke:#000000;stroke-width:15;stroke-linecap:round;stroke-linejoin:round;stroke-miterlimit:10;" d="&#10;&#9;&#9;&#9;M85.253,193.233l10.714,16.136c0.777,1.17,1.949,2.021,3.301,2.399l18.657,5.204c4.029,1.124,5.611,5.991,3.012,9.269&#10;&#9;&#9;&#9;l-12.035,15.176c-0.873,1.1-1.32,2.478-1.261,3.881l0.816,19.352c0.176,4.179-3.964,7.188-7.884,5.728l-18.153-6.757&#10;&#9;&#9;&#9;c-1.316-0.49-2.765-0.49-4.081,0l-18.153,6.757c-3.92,1.459-8.061-1.549-7.884-5.728l0.816-19.352&#10;&#9;&#9;&#9;c0.059-1.403-0.388-2.781-1.261-3.881L39.823,226.24c-2.599-3.278-1.018-8.145,3.012-9.269l18.657-5.204&#10;&#9;&#9;&#9;c1.353-0.377,2.525-1.229,3.301-2.399l10.714-16.136C77.822,189.748,82.939,189.748,85.253,193.233z"/>
		<path style="fill:none;stroke:#000000;stroke-width:15;stroke-linecap:round;stroke-linejoin:round;stroke-miterlimit:10;" d="&#10;&#9;&#9;&#9;M435.435,289.944l8.389,12.634c0.608,0.916,1.526,1.583,2.585,1.878l14.608,4.074c3.155,0.88,4.393,4.691,2.358,7.257&#10;&#9;&#9;&#9;l-9.424,11.883c-0.683,0.862-1.034,1.94-0.987,3.039l0.639,15.153c0.138,3.272-3.104,5.628-6.173,4.485l-14.213-5.29&#10;&#9;&#9;&#9;c-1.031-0.384-2.165-0.384-3.195,0l-14.213,5.29c-3.07,1.143-6.311-1.213-6.173-4.485l0.639-15.153&#10;&#9;&#9;&#9;c0.046-1.099-0.304-2.177-0.987-3.039l-9.424-11.883c-2.035-2.566-0.797-6.377,2.358-7.257l14.608-4.074&#10;&#9;&#9;&#9;c1.059-0.295,1.977-0.962,2.585-1.878l8.389-12.634C429.616,287.215,433.623,287.215,435.435,289.944z"/>
	</g>
</g>















</svg>
