<svg id="Capa_1" enable-background="new 0 0 512 512" height="512" viewBox="0 0 512 512" width="512" xmlns="http://www.w3.org/2000/svg"><g><path d="m403.319 82.075h-65.685l-54.932 20.604-30.881-20.604h-143.14c-18.557 0-33.601 15.044-33.601 33.601v115.164l10.302 27.235-10.302 35.577v116.661c0 18.557 15.044 33.601 33.601 33.601h86.387c6.69 0 12.872 3.569 16.217 9.363l28.498 49.36c7.208 12.484 25.226 12.484 32.434 0l28.498-49.36c3.345-5.794 9.527-9.363 16.217-9.363h86.387c18.557 0 33.601-15.044 33.601-33.601v-294.637c0-18.558-15.044-33.601-33.601-33.601z" fill="#ffe177"/><path d="m128.293 240.967-19.221-5.361c-1.394-.389-2.601-1.266-3.401-2.471l-11.038-16.623c-2.384-3.59-7.656-3.59-10.04 0l-9.513 14.328v62.812l12.431-4.627c1.356-.505 2.848-.505 4.204 0l18.701 6.961c4.039 1.503 8.304-1.596 8.122-5.901l-.841-19.936c-.061-1.446.4-2.865 1.299-3.998l12.399-15.634c2.678-3.378 1.049-8.392-3.102-9.55z" fill="#ffd15b"/><path d="m337.634 82.075h-117.544l16.801 21.185c1.284 1.619 1.943 3.646 1.856 5.711l-1.201 28.478c-.259 6.15 5.833 10.577 11.602 8.429l26.712-9.943c1.937-.721 4.068-.721 6.005 0l26.712 9.943c5.769 2.147 11.862-2.279 11.602-8.429l-1.201-28.478c-.087-2.065.572-4.092 1.856-5.711z" fill="#ffd15b"/><path d="m405.906 82.184c.065.855.109 1.715.109 2.587v294.638c0 18.557-15.044 33.601-33.601 33.601h-294.638c-.871 0-1.732-.044-2.587-.109 1.322 17.347 15.806 31.014 33.492 31.014h86.387c6.69 0 12.872 3.569 16.217 9.363l28.498 49.36c7.208 12.484 25.226 12.484 32.434 0l28.498-49.36c3.345-5.794 9.527-9.363 16.217-9.363h86.387c18.557 0 33.601-15.044 33.601-33.601v-294.638c0-17.686-13.667-32.17-31.014-33.492z" fill="#ffd15b"/><path d="m263.171 3.846 15.767 23.745c1.143 1.722 2.868 2.974 4.858 3.53l27.455 7.657c5.929 1.654 8.257 8.816 4.432 13.639l-17.712 22.333c-1.284 1.619-1.943 3.646-1.856 5.711l1.201 28.477c.259 6.15-5.833 10.577-11.602 8.429l-26.712-9.943c-1.937-.721-4.068-.721-6.005 0l-26.712 9.943c-5.769 2.147-11.862-2.279-11.602-8.429l1.201-28.477c.087-2.065-.572-4.092-1.856-5.711l-17.711-22.333c-3.825-4.823-1.498-11.985 4.432-13.639l27.455-7.657c1.991-.555 3.715-1.808 4.858-3.53l15.768-23.745c3.405-5.128 10.936-5.128 14.341 0z" fill="#fe7ab6"/><path d="m80.1 191.339 11.038 16.623c.8 1.205 2.007 2.082 3.401 2.471l19.22 5.361c4.151 1.158 5.78 6.172 3.102 9.548l-12.399 15.634c-.899 1.134-1.36 2.553-1.299 3.998l.841 19.936c.182 4.306-4.084 7.404-8.122 5.901l-18.701-6.961c-1.356-.505-2.848-.505-4.204 0l-18.701 6.961c-4.039 1.503-8.304-1.596-8.122-5.901l.841-19.936c.061-1.445-.4-2.865-1.299-3.998l-12.399-15.634c-2.678-3.376-1.049-8.391 3.102-9.548l19.22-5.361c1.394-.389 2.601-1.266 3.401-2.471l11.038-16.623c2.386-3.59 7.658-3.59 10.042 0z" fill="#fe7ab6"/><path d="m440.85 290.968 8.642 13.016c.627.944 1.572 1.63 2.663 1.935l15.049 4.197c3.25.906 4.526 4.832 2.429 7.476l-9.708 12.241c-.704.888-1.065 1.999-1.017 3.131l.659 15.61c.142 3.371-3.197 5.798-6.36 4.621l-14.642-5.45c-1.062-.395-2.23-.395-3.292 0l-14.642 5.45c-3.162 1.177-6.502-1.249-6.36-4.621l.659-15.61c.048-1.132-.313-2.243-1.017-3.131l-9.708-12.241c-2.097-2.644-.821-6.57 2.429-7.476l15.049-4.197c1.091-.304 2.036-.991 2.663-1.935l8.642-13.016c1.868-2.811 5.996-2.811 7.862 0z" fill="#fe7ab6"/><g fill="#62dbfb"><path d="m79.885 60.951c-3.642 0-6.885-2.587-7.584-6.297l-4.101-21.761c-.79-4.194 1.968-8.233 6.161-9.024 4.196-.789 8.233 1.969 9.024 6.161l4.101 21.761c.79 4.194-1.968 8.233-6.161 9.024-.484.092-.966.136-1.44.136z"/><path d="m59.203 81.64c-1.977 0-3.955-.755-5.463-2.263l-26.921-26.921c-3.018-3.017-3.018-7.909 0-10.927 3.017-3.017 7.909-3.017 10.927 0l26.921 26.921c3.018 3.017 3.018 7.909 0 10.927-1.509 1.508-3.486 2.263-5.464 2.263z"/><path d="m38.522 102.331c-.475 0-.956-.044-1.44-.135l-21.762-4.101c-4.193-.79-6.952-4.83-6.161-9.024.79-4.193 4.821-6.951 9.024-6.161l21.762 4.101c4.193.79 6.952 4.83 6.161 9.024-.699 3.708-3.942 6.296-7.584 6.296z"/><path d="m432.115 60.951c-.475 0-.956-.044-1.44-.135-4.193-.79-6.952-4.83-6.161-9.024l4.101-21.761c.791-4.193 4.829-6.956 9.024-6.161 4.193.79 6.952 4.83 6.161 9.024l-4.101 21.761c-.699 3.709-3.942 6.296-7.584 6.296z"/><path d="m452.797 81.64c-1.977 0-3.955-.755-5.463-2.263-3.018-3.017-3.018-7.909 0-10.927l26.921-26.921c3.017-3.017 7.909-3.017 10.927 0s3.018 7.909 0 10.927l-26.922 26.921c-1.509 1.508-3.486 2.263-5.463 2.263z"/><path d="m473.478 102.331c-3.642 0-6.885-2.587-7.584-6.297-.79-4.194 1.968-8.233 6.161-9.024l21.762-4.101c4.194-.789 8.233 1.969 9.024 6.161.79 4.194-1.968 8.233-6.161 9.024l-21.762 4.101c-.485.092-.966.136-1.44.136z"/><path d="m75.801 492.529c-.474 0-.956-.044-1.44-.135-4.193-.79-6.952-4.83-6.161-9.024l4.101-21.762c.79-4.193 4.823-6.951 9.024-6.161 4.193.79 6.952 4.83 6.161 9.024l-4.101 21.762c-.699 3.709-3.942 6.296-7.584 6.296z"/><path d="m32.282 476.997c-1.977 0-3.955-.755-5.463-2.263-3.018-3.017-3.018-7.909 0-10.927l26.921-26.921c3.017-3.017 7.909-3.017 10.927 0s3.018 7.909 0 10.927l-26.921 26.921c-1.509 1.508-3.486 2.263-5.464 2.263z"/><path d="m16.744 433.488c-3.642 0-6.885-2.587-7.584-6.297-.79-4.194 1.968-8.233 6.161-9.024l21.762-4.101c4.202-.79 8.233 1.969 9.024 6.161.79 4.194-1.968 8.233-6.161 9.024l-21.762 4.101c-.484.092-.966.136-1.44.136z"/><path d="m436.199 492.529c-3.642 0-6.885-2.587-7.584-6.297l-4.101-21.762c-.79-4.194 1.968-8.233 6.161-9.024 4.197-.789 8.233 1.969 9.024 6.161l4.101 21.762c.79 4.194-1.968 8.233-6.161 9.024-.484.091-.966.136-1.44.136z"/><path d="m479.718 476.997c-1.977 0-3.955-.755-5.463-2.263l-26.921-26.921c-3.018-3.017-3.018-7.909 0-10.927 3.017-3.017 7.909-3.017 10.927 0l26.921 26.921c3.018 3.017 3.018 7.909 0 10.927-1.51 1.508-3.487 2.263-5.464 2.263z"/><path d="m495.256 433.488c-.474 0-.956-.044-1.44-.135l-21.762-4.101c-4.193-.79-6.952-4.83-6.161-9.024.79-4.193 4.828-6.956 9.024-6.161l21.762 4.101c4.193.79 6.952 4.83 6.161 9.024-.699 3.709-3.941 6.296-7.584 6.296z"/></g><g fill="#faf7f7"><path d="m361.473 288.326c-.025 0-.051 0-.076.001-4.267.041-7.692 3.534-7.651 7.801l.489 50.558-37.902-54.884c-1.922-2.783-5.43-3.991-8.657-2.986-3.228 1.007-5.427 3.995-5.427 7.376v74.343c0 4.267 3.459 7.726 7.726 7.726s7.726-3.459 7.726-7.726v-49.557l36.184 52.396c2.334 3.37 6.2 4.811 9.852 3.671 3.74-1.168 6.157-4.709 6.156-9.095l-.696-71.972c-.041-4.242-3.492-7.652-7.724-7.652z"/><path d="m268.803 288.326c-4.267 0-7.726 3.459-7.726 7.726v74.482c0 4.267 3.459 7.726 7.726 7.726s7.726-3.459 7.726-7.726v-74.482c0-4.267-3.459-7.726-7.726-7.726z"/><path d="m232.033 288.611c-4.188-.833-8.253 1.885-9.086 6.07l-9.853 49.51-15.531-50.413c-1.256-4.078-5.582-6.366-9.658-5.109-2.807.865-4.766 3.184-5.304 5.875l-15.369 49.652-9.819-49.643c-.828-4.186-4.892-6.906-9.079-6.08-4.186.828-6.908 4.893-6.08 9.079l14.512 73.363c.073.369.173.732.299 1.088 1.332 3.75 4.889 6.258 8.864 6.258h.064c4.001-.027 7.554-2.59 8.843-6.378.023-.067.045-.135.066-.203l15.281-49.372 15.213 49.383c.032.104.066.208.103.31 1.331 3.752 4.889 6.26 8.865 6.26h.063c4.002-.027 7.556-2.59 8.844-6.378.109-.32.197-.648.263-.98l14.569-73.205c.832-4.186-1.885-8.254-6.07-9.087z"/><path d="m163.982 224.4-.08 32.682c-.011 4.268 3.44 7.735 7.707 7.745h.02c4.258 0 7.715-3.447 7.726-7.707l.08-32.709 20.456-31.424c2.328-3.576 1.316-8.363-2.26-10.691-3.576-2.327-8.362-1.316-10.691 2.26l-15.236 23.405-15.402-23.588c-2.333-3.573-7.121-4.577-10.694-2.245-3.573 2.333-4.578 7.121-2.245 10.694z"/><path d="m362.167 180.872c-4.267 0-7.726 3.459-7.726 7.726v47.088c0 3.522-.984 8.06-8.659 11.925-2.324 1.17-4.949 1.764-7.803 1.764-.009 0-.019 0-.028 0-3.189-.005-5.961-.788-8.477-2.396-5.1-3.259-7.181-6.516-7.181-11.243v-47.137c0-4.267-3.459-7.726-7.726-7.726s-7.726 3.459-7.726 7.726v47.137c0 10.174 4.682 18.111 14.313 24.265 4.999 3.195 10.644 4.818 16.777 4.827h.049c5.289 0 10.252-1.149 14.753-3.414 14.184-7.143 17.161-17.933 17.161-25.727v-47.088c0-4.268-3.46-7.727-7.727-7.727z"/><path d="m247.576 180.872c-23.146 0-41.977 18.831-41.977 41.977 0 23.147 18.831 41.978 41.977 41.978 23.147 0 41.978-18.831 41.978-41.978 0-23.146-18.831-41.977-41.978-41.977zm0 68.503c-14.626 0-26.525-11.899-26.525-26.525s11.899-26.525 26.525-26.525 26.525 11.899 26.525 26.525-11.899 26.525-26.525 26.525z"/></g></g></svg>