<svg id="Icons" height="512" viewBox="0 0 60 60" width="512" xmlns="http://www.w3.org/2000/svg"><path d="m59 9v29c0 1.66-1.34 3-3 3h-36c-1.66 0-3-1.34-3-3v-29l1-1h40z" fill="#dce4ea"/><path d="m59 4v5h-42v-5c0-1.66 1.34-3 3-3h36c1.66 0 3 1.34 3 3z" fill="#0a365e"/><path d="m47 17c0 .83-.34 1.58-.88 2.12s-1.29.88-2.12.88h-12l-3.27 1.96c-.76.46-1.73-.09-1.73-.98v-.98h-2c-1.66 0-3-1.34-3-3 0-.83.34-1.58.88-2.12s1.29-.88 2.12-.88h19c1.66 0 3 1.34 3 3z" fill="#2aa869"/><path d="m29 30c0 .83.34 1.58.88 2.12s1.29.88 2.12.88h12s3.27 1.96 3.27 1.96c.76.46 1.73-.09 1.73-.98v-.98h2c1.66 0 3-1.34 3-3 0-.83-.34-1.58-.88-2.12s-1.29-.88-2.12-.88h-19c-1.66 0-3 1.34-3 3z" fill="#2473fe"/><g fill="#97a7af"><path d="m22.23 41h.77c2.21 0 4 1.79 4 4v2c0 2.77-1.89 5.11-4.45 5.79z"/><path d="m5.45 52.79c-2.56-.68-4.45-3.02-4.45-5.79v-2c0-2.21 1.79-4 4-4h.77s-.32 11.79-.32 11.79z"/><path d="m9 35h10v6h-10z"/></g><path d="m23 47v3c0 4.97-4.03 9-9 9s-9-4.03-9-9v-3l1-1h16z" fill="#bcc7ce"/><path d="m23 43v4h-2.08c-.49 0-.91.36-.98.85-.41 2.91-2.92 5.15-5.94 5.15s-5.53-2.24-5.94-5.15c-.07-.49-.49-.85-.98-.85h-2.08v-4c0-1.66 1.34-3 3-3h12c1.66 0 3 1.34 3 3z" fill="#cad3d8"/><circle cx="14" cy="47" fill="#03cde2" r="2"/><path d="m13 22h2c4.967 0 9 4.033 9 9v1c0 2.208-1.792 4-4 4h-12c-2.208 0-4-1.792-4-4v-1c0-4.967 4.033-9 9-9z" fill="#0a365e"/><path d="m22 6h-1c-.552 0-1-.447-1-1s.448-1 1-1h1c.552 0 1 .447 1 1s-.448 1-1 1z" fill="#d7342c"/><path d="m27 6h-1c-.552 0-1-.447-1-1s.448-1 1-1h1c.552 0 1 .447 1 1s-.448 1-1 1z" fill="#2aa869"/><path d="m10 31c-.552 0-1-.447-1-1v-2c0-.553.448-1 1-1s1 .447 1 1v2c0 .553-.448 1-1 1z" fill="#10ddff"/><path d="m18 31c-.552 0-1-.447-1-1v-2c0-.553.448-1 1-1s1 .447 1 1v2c0 .553-.448 1-1 1z" fill="#10ddff"/><path d="m15 33h-2c-.552 0-1-.447-1-1s.448-1 1-1h2c.552 0 1 .447 1 1s-.448 1-1 1z" fill="#10ddff"/><path d="m20 24v-3c0-.553.448-1 1-1s1 .447 1 1v4z" fill="#97a7af"/><path d="m6 25v-4c0-.553.448-1 1-1s1 .447 1 1v3z" fill="#97a7af"/><path d="m20 37h-12c-2.757 0-5-2.243-5-5v-1c0-5.514 4.486-10 10-10h2c5.514 0 10 4.486 10 10v1c0 2.757-2.243 5-5 5zm-7-14c-4.411 0-8 3.589-8 8v1c0 1.654 1.346 3 3 3h12c1.654 0 3-1.346 3-3v-1c0-4.411-3.589-8-8-8z" fill="#cad3d8"/></svg>