<svg height="512" viewBox="0 0 60 60" width="512" xmlns="http://www.w3.org/2000/svg"><g id="Page-1" fill="none" fill-rule="evenodd"><g id="010---Chat-Bot-Head" fill-rule="nonzero"><path id="Shape" d="m48 17h-36c-3.3137085 0-6 2.6862915-6 6v22c0 3.3137085 2.6862915 6 6 6 .5522847 0 1 .4477153 1 1v7l11.5-7.664c.3275598-.2184174.7122982-.3353 1.106-.336h22.394c3.3137085 0 6-2.6862915 6-6v-22c0-3.3137085-2.6862915-6-6-6z" fill="#e8edfc"/><path id="Shape" d="m48 17h-3c3.3137085 0 6 2.6862915 6 6v22c0 3.3137085-2.6862915 6-6 6h3c3.3137085 0 6-2.6862915 6-6v-22c0-3.3137085-2.6862915-6-6-6z" fill="#cad9fc"/><path id="Shape" d="m4 28h2v12h-2c-1.65685425 0-3-1.3431458-3-3v-6c0-1.6568542 1.34314575-3 3-3z" fill="#a4c2f7"/><path id="Shape" d="m54 28h2c1.6568542 0 3 1.3431458 3 3v6c0 1.6568542-1.3431458 3-3 3h-2z" fill="#a4c2f7"/><path id="Shape" d="m56 28h-2v.184c1.1962368.4197527 1.9977321 1.548258 2 2.816v6c-.0022679 1.267742-.8037632 2.3962473-2 2.816v.184h2c1.6568542 0 3-1.3431458 3-3v-6c0-.7956495-.3160705-1.5587112-.8786797-2.1213203-.5626091-.5626092-1.3256708-.8786797-2.1213203-.8786797z" fill="#7facfa"/><circle id="Oval" cx="30" cy="5" fill="#e8edfc" r="4"/><path id="Shape" d="m30 1c-.5146843.00216946-1.0240724.10404706-1.5.3 1.5110147.60851068 2.5007405 2.07405844 2.5007405 3.703s-.9897258 3.09448932-2.5007405 3.703c1.496414.6077595 3.211506.25594653 4.3478056-.8918556s1.4708211-2.86635044.8480212-4.35656747-2.0807039-2.45966481-3.6958268-2.45757693z" fill="#cad9fc"/><circle id="Oval" cx="18" cy="31" fill="#a4c2f7" r="4"/><circle id="Oval" cx="42" cy="31" fill="#a4c2f7" r="4"/><path id="Shape" d="m4 40h2v5c0 3.3137085 2.6862915 6 6 6 .5522847 0 1 .4477153 1 1v7l3-2v-5c0-.5522847-.4477153-1-1-1-3.3137085 0-6-2.6862915-6-6v-5h-2c-1.65685425 0-3-1.3431458-3-3v-6c0-1.6568542 1.34314575-3 3-3h2v-5c0-3.3137085 2.6862915-6 6-6h-3c-3.3137085 0-6 2.6862915-6 6v5h-2c-1.65685425 0-3 1.3431458-3 3v6c0 1.6568542 1.34314575 3 3 3z" fill="#fff"/><path id="Shape" d="m28.5 8.7c.2335515.09564513.4756308.16897206.723.219.2556362.05293753.5159418.08007363.777.081.5126894-.00269127 1.0200144-.10456375 1.494-.3-1.5070842-.61044543-2.4933126-2.07397837-2.4933126-3.7s.9862284-3.08955457 2.4933126-3.7c-.4738451-.19589885-.9812616-.29778971-1.494-.3-.2609573-.00006084-.5212618.02607012-.777.078-.2474707.05099877-.4895525.12533095-.723.222-1.5110147.60851068-2.5007405 2.07405844-2.5007405 3.703s.9897258 3.09448932 2.5007405 3.703z" fill="#fff"/><path id="Rectangle-path" d="m12 16h8v2h-8z" fill="#fff"/><g fill="#428dff"><circle id="Oval" cx="16" cy="17" r="1"/><path id="Shape" d="m56 27h-1v-4c-.0044086-3.8641657-3.1358343-6.9955914-7-7h-17v-6.1c2.5149632-.51336472 4.2326695-2.84769871 3.9746808-5.4015243-.2579888-2.55382558-2.4078572-4.49745519-4.9746808-4.49745519s-4.716692 1.94362961-4.9746808 4.49745519c-.2579887 2.55382559 1.4597176 4.88815958 3.9746808 5.4015243v6.1h-9c-.5522847 0-1 .4477153-1 1s.4477153 1 1 1h28c2.7600532.0033061 4.9966939 2.2399468 5 5v22c-.0033061 2.7600532-2.2399468 4.9966939-5 5h-22.395c-.5919839-.0020813-1.1712097.1719649-1.664.5l-9.941 6.631v-5.131c0-1.1045695-.8954305-2-2-2-2.76005315-.0033061-4.99669388-2.2399468-5-5v-22c.00330612-2.7600532 2.23994685-4.9966939 5-5 .5522847 0 1-.4477153 1-1s-.4477153-1-1-1c-3.86416566.0044086-6.99559136 3.1358343-7 7v4h-1c-2.209139 0-4 1.790861-4 4v6c0 2.209139 1.790861 4 4 4h1v4c.00440864 3.8641657 3.13583434 6.9955914 7 7v7c-.0000552.3688869.2029784.707846.528235.881874.3252565.1740279.7199063.1548582 1.026765-.049874l11.5-7.665c.1630395-.108292.3542741-.1663578.55-.167h22.395c3.8641657-.0044086 6.9955914-3.1358343 7-7v-4h1c2.209139 0 4-1.790861 4-4v-6c0-2.209139-1.790861-4-4-4zm-29-22c0-1.65685425 1.3431458-3 3-3s3 1.34314575 3 3-1.3431458 3-3 3-3-1.34314575-3-3zm-23 34c-1.1045695 0-2-.8954305-2-2v-6c0-1.1045695.8954305-2 2-2h1v10zm54-2c0 1.1045695-.8954305 2-2 2h-1v-10h1c1.1045695 0 2 .8954305 2 2z"/><path id="Shape" d="m18 36c2.7614237 0 5-2.2385763 5-5s-2.2385763-5-5-5-5 2.2385763-5 5c.0033061 2.7600532 2.2399468 4.9966939 5 5zm0-8c1.6568542 0 3 1.3431458 3 3s-1.3431458 3-3 3-3-1.3431458-3-3 1.3431458-3 3-3z"/><path id="Shape" d="m47 31c0-2.7614237-2.2385763-5-5-5s-5 2.2385763-5 5 2.2385763 5 5 5c2.7600532-.0033061 4.9966939-2.2399468 5-5zm-8 0c0-1.6568542 1.3431458-3 3-3s3 1.3431458 3 3-1.3431458 3-3 3-3-1.3431458-3-3z"/><path id="Shape" d="m30 42c4.255 0 5.785-2.369 5.848-2.47.2871121-.4615055.1498416-1.0680807-.308-1.361-.4614452-.2940805-1.073197-.1667616-1.379.287-.042.063-1.08 1.544-4.161 1.544-3.054 0-4.1-1.456-4.16-1.542-.3008393-.4542147-.9099123-.5840322-1.3698145-.2919616s-.6013799.8985412-.3181855 1.3639616c.063.101 1.593 2.47 5.848 2.47z"/></g></g></g></svg>