<svg id="Layer_1" enable-background="new 0 0 70 70" height="512" viewBox="0 0 70 70" width="512" xmlns="http://www.w3.org/2000/svg"><g><path d="m63.9541397 44.9896851c-6.6181488 7.8891106-38.4954681 12.9751358-52.2611961 6.7882118-12.0013208-5.3666267-10.8315115-34.6606483 0-41.0480003 12.5964603-7.4686947 46.4148407-1.8820839 52.2611961 6.5271645 3.9930801 5.6863364 4.4562607 22.4461707 0 27.732624z" fill="#fff"/><path d="m63.9534111 44.9914818c-6.619873 7.8901367-38.4899902 12.9697266-52.2600098 6.7900391-3.0600586-1.3701172-5.2700195-4.300293-6.6699219-8.0102539 5.1799316 2.5498047 11.3400879 4.0200195 17.9299316 4.0200195 18.5 0 33.4899902-11.5698242 33.4899902-25.8398418 0-3.9101563-1.1298828-7.6201172-3.1398926-10.9501953 5.0600586 1.7001953 8.9899902 3.8701172 10.6499023 6.2602539 3.9899943 5.6796874 4.4602091 22.4399394.0000002 27.7299785z" opacity=".05"/><path d="m38.761219 64.9104538c7.2132912-5.0961037 6.5519066-12.4865875 2.8011894-17.1195068l14.1190414-5.9126015c3.5961419 12.7074051-5.8463553 22.1714439-16.9202308 23.0321083z" fill="#fff"/><path d="m38.761219 64.9104538c7.2132912-5.0961037 6.5519066-12.4865875 2.8011894-17.1195068l14.1190414-5.9126015c3.5961419 12.7074051-5.8463553 22.1714439-16.9202308 23.0321083z" opacity=".05"/><g><path d="m65.582077 17.9641495c-.2643356-.4117279-.8088455-1.6166096-1.8299599-2.5600586-8.9338036-8.9338055-46.4475708-14.2834721-55.8798828-3-8.2414198 9.4286041-8.3834648 34.6430168 2.9897461 40.1000977 8.9315767 3.9988861 22.5170288 3.1890793 32.1601563 1.2900391.7066078 6.6433144-4.7918587 10.3009415-4.2700195 11.1098633 1.7970772 2.0311661 17.3518066-1.9409943 18.5799561-15.1098633 6.8066826-2.6497345 10.1644096-5.5237617 10.6500282-17.0600586.432106-9.205597-2.3753052-14.669983-2.4000245-14.7700196zm-8.199955 30.8198242c.0910378-3.5677147-1.2265472-7.055336-1.6900635-6.909668-1.118927.327961 3.9695511 15.62286-14.3199463 21.9399414 3.0462418-2.1690483 4.8367195-6.5698853 3.9300537-10.5-.5568886-3.3413353-3.2699242-5.9204903-3.75-5.5200195-.4321404.3549042.8531837 2.2936783 1.3199463 4.9599609-8.9573059 1.2288857-22.9681454 1.8833199-31.0899658-2.1000977-1.9699707-.9799805-3.5600586-2.8198242-4.6999512-4.9897461-4.7347695-9.0152587-3.0494451-25.1402225 2.6699229-31.6499023 7.3853102-8.4766884 31.5010109-5.5620832 42.3499756-2.1904297 11.2044029 3.5625067 11.1491547 6.740881 11.6199951 7.0800781.0260773.100008 2.6720543 4.9817123 2.5000038 13.7900391-.1359186 11.0797768-2.9808893 13.1635552-8.8399706 16.0898438z"/><path d="m29.5494804 57.8406143c-6.6496677-.0801086-14.7385406 1.7242126-21.4326172-2.6679688-2.295166-1.5107422-3.2785645-3.0429688-3.6057129-2.8574219-.1425781.0766602-.0930176.5708008.277832 1.3549805.3674316.7817383 1.090332 1.8349609 2.2438965 2.8891602 1.1538086 1.0458984 2.7424316 2.0668945 4.6728516 2.793457 5.6909571 2.1644211 11.998044 1.0866585 17.9770508.2431641 2.8579102-.4560547 4.6397705-.7016602 4.6531982-1.0561523.0150147-.3300782-1.8222656-.709961-4.786499-.6992188z"/><path d="m59.2259941 8.199501c5.4702644 2.3291225 6.1314812 5.984601 6.8879433 5.8330078 1.2832947-.1551704-.7882385-9.5165901-13.0391884-9.4370117-1.8198242.0288086-2.9326172.2646484-2.9630127.5947266-.0791702.8583832 5.421669 1.4481449 9.1142578 3.0092773z"/></g></g></svg>