<svg enable-background="new 0 0 32 32" height="32" viewBox="0 0 32 32" width="32" xmlns="http://www.w3.org/2000/svg"><g id="_x3C_Layer_x3E_"><g id="Gmail"><g><g><path d="m3.477 26.5h4.614v-11.187l-6.591-5.563v14.775c0 1.092.886 1.975 1.977 1.975z" fill="#80d8ff"/></g><g><path d="m23.909 26.5h4.614c1.091 0 1.977-.883 1.977-1.975l.031-14.525-6.622 5.313z" fill="#1ad2a4"/></g><g><path d="m23.909 6.758v8.555l6.591-4.936v-2.632c0-2.441-2.79-3.834-4.746-2.37z" fill="#fff176"/></g><g><path d="m8.091 15.313-.528-9 8.437 6.367 8.219-6.149-.31 8.782-7.909 5.923z" fill="#ff8a80"/></g><g><path d="m1.5 7.745v2.632l6.591 4.936v-8.555l-1.845-1.383c-1.956-1.464-4.746-.071-4.746 2.37z" fill="#e67c73"/></g></g><g><g><path d="m16.468 13.572c.134.098.35.096.482-.002l8.458-6.311 1.845-1.383c.6-.449 1.278-.627 1.93-.591-.981-.652-2.335-.728-3.43.091l-1.845 1.383-7.908 5.921-.191.41z" fill="#fff"/></g><g><path d="m3 25.025v-14.148-2.632c0-1.803 1.521-3.029 3.104-2.96-1.946-1.3-4.604.076-4.604 2.46v2.632 14.148c0 1.091.886 1.975 1.977 1.975h.197c-.41-.362-.674-.885-.674-1.475z" fill="#fff"/></g></g><g><path d="m28.523 27h-4.614c-.276 0-.5-.224-.5-.5v-9c0-.276.224-.5.5-.5s.5.224.5.5v8.5h4.114c.814 0 1.477-.662 1.477-1.475v-16.78c0-.952-.509-1.774-1.36-2.201-.854-.428-1.821-.342-2.585.231l-9.755 7.306c-.178.133-.422.133-.6 0l-9.754-7.306c-.765-.571-1.732-.658-2.586-.231-.851.427-1.36 1.249-1.36 2.201v16.78c0 .813.663 1.475 1.477 1.475h4.114v-8.5c0-.276.224-.5.5-.5s.5.224.5.5v9c0 .276-.224.5-.5.5h-4.614c-1.366 0-2.477-1.11-2.477-2.475v-16.78c0-1.318.733-2.504 1.913-3.095 1.183-.591 2.574-.467 3.633.325l9.454 7.081 9.455-7.081c1.059-.792 2.451-.916 3.633-.325 1.179.591 1.912 1.777 1.912 3.095v16.78c0 1.365-1.111 2.475-2.477 2.475z" fill="#455a64"/></g><g><path d="m16 21.736c-.105 0-.211-.033-.3-.1l-7.909-5.923c-.221-.166-.266-.479-.101-.7.166-.22.479-.267.7-.101l7.61 5.699 7.609-5.699c.221-.165.535-.12.7.101.166.221.12.535-.101.7l-7.908 5.923c-.089.067-.195.1-.3.1z" fill="#455a64"/></g></g></g><g id="Layer_1"/></svg>