<svg clip-rule="evenodd" fill-rule="evenodd" stroke-linejoin="round" stroke-miterlimit="2" viewBox="0 0 96 96" xmlns="http://www.w3.org/2000/svg"><g transform="translate(-2832 -32)"><path d="m2846 38c-2.12 0-4.16.843-5.66 2.343s-2.34 3.535-2.34 5.657v74c0 4.418 3.58 8 8 8h74c2.12 0 4.16-.843 5.66-2.343s2.34-3.535 2.34-5.657v-74c0-4.418-3.58-8-8-8z" fill="#c3e5db"/><path d="m2928 120v-48.828l-56.83 56.828h48.83c2.12 0 4.16-.843 5.66-2.343s2.34-3.535 2.34-5.657z" fill="#28a851"/><g transform="matrix(1.067 0 0 1.067 2792.53 -3.2)"><circle cx="104.5" cy="55.5" fill="#fffef1" r="9.375"/></g><path d="m2838 99.172v20.828c0 4.418 3.58 8 8 8h74c2.12 0 4.16-.843 5.66-2.343s2.34-3.535 2.34-5.657v-4.828l-44.76-44.758c-2.18-2.186-5.15-3.414-8.24-3.414s-6.06 1.228-8.24 3.414z" fill="#2abd59"/><g transform="matrix(1.273 0 0 1.273 2786.91 -13.091)"><path d="m36.971 46.429c-.857.016-1.543.715-1.542 1.572 0 .856.686 1.555 1.543 1.57 5.202.093 9.43 4.227 9.457 9.437.004.865.706 1.563 1.57 1.563.865.001 1.567-.697 1.572-1.562.031-5.202 4.233-9.391 9.443-9.438.862-.007 1.557-.708 1.557-1.57.001-.862-.693-1.563-1.554-1.572-5.216-.055-9.408-4.225-9.446-9.44-.006-.864-.708-1.56-1.571-1.56s-1.565.696-1.571 1.56c-.039 5.223-4.262 9.343-9.458 9.44z" fill="#15aaf7"/></g></g></svg>