<svg clip-rule="evenodd" fill-rule="evenodd" stroke-linejoin="round" stroke-miterlimit="2" viewBox="0 0 96 96" xmlns="http://www.w3.org/2000/svg"><g transform="translate(-3312 -512)"><path d="m3337 596.342c-2.33.825-4 3.048-4 5.658 0 3.311 2.69 6 6 6s6-2.689 6-6c0-2.61-1.67-4.834-4-5.658v-1.513s3.41-3.415 3.41-3.415c.38-.375.59-.884.59-1.414v-5c0-1.104-.9-2-2-2s-2 .896-2 2v4.172s-3.41 3.414-3.41 3.414c-.38.375-.59.883-.59 1.413zm21 0c-2.33.824-4 3.048-4 5.658 0 3.311 2.69 6 6 6s6-2.689 6-6c0-2.61-1.67-4.834-4-5.658v-11.342c0-1.104-.9-2-2-2s-2 .896-2 2zm21 0c-2.33.824-4 3.048-4 5.658 0 3.311 2.69 6 6 6s6-2.689 6-6c0-2.61-1.67-4.833-4-5.658v-2.343c0-.53-.21-1.038-.59-1.413l-3.41-3.414v-4.172c0-1.104-.9-2-2-2s-2 .896-2 2v5c0 .53.21 1.039.59 1.414l3.41 3.415zm17.34-13.342c.83 2.33 3.05 4 5.66 4 3.31 0 6-2.689 6-6s-2.69-6-6-6c-2.61 0-4.83 1.671-5.66 4l-1.51-.001s-3.42-3.413-3.42-3.413c-.37-.375-.88-.586-1.41-.586h-5c-1.1 0-2 .896-2 2s.9 2 2 2h4.17s3.42 3.413 3.42 3.413c.37.375.88.585 1.41.586zm-72.68-4c-.83-2.329-3.05-4-5.66-4-3.31 0-6 2.689-6 6s2.69 6 6 6c2.61 0 4.83-1.67 5.66-4l2.34-.001c.53-.001 1.04-.211 1.41-.586l3.42-3.413h4.17c1.1 0 2-.896 2-2s-.9-2-2-2h-5c-.53 0-1.04.211-1.41.586l-3.42 3.413zm0-17h11.34c1.1 0 2-.896 2-2s-.9-2-2-2h-11.34c-.83-2.329-3.05-4-5.66-4-3.31 0-6 2.689-6 6s2.69 6 6 6c2.61 0 4.83-1.671 5.66-4zm72.68-4h-11.34c-1.1 0-2 .896-2 2s.9 2 2 2h11.34c.83 2.329 3.05 4 5.66 4 3.31 0 6-2.689 6-6s-2.69-6-6-6c-2.61 0-4.83 1.671-5.66 4zm-72.68-17 1.51.001s3.42 3.413 3.42 3.413c.37.375.88.586 1.41.586h5c1.1 0 2-.896 2-2s-.9-2-2-2h-4.17s-3.42-3.413-3.42-3.413c-.37-.375-.88-.585-1.41-.586l-2.34-.001c-.83-2.33-3.05-4-5.66-4-3.31 0-6 2.689-6 6s2.69 6 6 6c2.61 0 4.83-1.671 5.66-4zm72.68-4-2.34.001c-.53.001-1.04.211-1.41.586l-3.42 3.413h-4.17c-1.1 0-2 .896-2 2s.9 2 2 2h5c.53 0 1.04-.211 1.41-.586l3.42-3.413 1.51-.001c.83 2.329 3.05 4 5.66 4 3.31 0 6-2.689 6-6s-2.69-6-6-6c-2.61 0-4.83 1.67-5.66 4zm-38.34-13.342v11.342c0 1.104.9 2 2 2s2-.896 2-2v-11.342c2.33-.824 4-3.048 4-5.658 0-3.311-2.69-6-6-6s-6 2.689-6 6c0 2.61 1.67 4.834 4 5.658zm21 0v1.513s-3.41 3.415-3.41 3.415c-.38.375-.59.884-.59 1.414v5c0 1.104.9 2 2 2s2-.896 2-2v-4.172s3.41-3.414 3.41-3.414c.38-.375.59-.883.59-1.413v-2.343c2.33-.825 4-3.048 4-5.658 0-3.311-2.69-6-6-6s-6 2.689-6 6c0 2.61 1.67 4.834 4 5.658zm-42 0v2.343c0 .53.21 1.038.59 1.413l3.41 3.414v4.172c0 1.104.9 2 2 2s2-.896 2-2v-5c0-.53-.21-1.039-.59-1.414l-3.41-3.415v-1.513c2.33-.824 4-3.048 4-5.658 0-3.311-2.69-6-6-6s-6 2.689-6 6c0 2.61 1.67 4.833 4 5.658z" fill="#1c719d"/><g transform="matrix(.781 0 0 .781 2922.5 497.5)"><path d="m594.56 54.4c0-4.948-4.012-8.96-8.96-8.96h-51.2c-4.948 0-8.96 4.012-8.96 8.96v51.2c0 4.948 4.012 8.96 8.96 8.96h51.2c4.948 0 8.96-4.012 8.96-8.96z" fill="#15aaf7"/></g><g transform="matrix(.781 0 0 .781 2922.5 497.5)"><path d="m594.56 54.4c0-4.948-4.012-8.96-8.96-8.96h-51.2c-4.948 0-8.96 4.012-8.96 8.96v51.2c0 4.948 4.012 8.96 8.96 8.96h51.2c4.948 0 8.96-4.012 8.96-8.96zm-5.12 0v51.2c0 2.121-1.719 3.84-3.84 3.84h-51.2c-2.121 0-3.84-1.719-3.84-3.84v-51.2c0-2.121 1.719-3.84 3.84-3.84h51.2c2.121 0 3.84 1.719 3.84 3.84z" fill="#1c719d"/></g><g transform="matrix(1.273 0 0 1.273 3294.91 498.909)"><path d="m36.971 46.429c-.857.016-1.543.715-1.542 1.572 0 .856.686 1.555 1.543 1.57 5.202.093 9.43 4.227 9.457 9.437.004.865.706 1.563 1.57 1.563.865.001 1.567-.697 1.572-1.562.031-5.202 4.233-9.391 9.443-9.438.862-.007 1.557-.708 1.557-1.57.001-.862-.693-1.563-1.554-1.572-5.216-.055-9.408-4.225-9.446-9.44-.006-.864-.708-1.56-1.571-1.56s-1.565.696-1.571 1.56c-.039 5.223-4.262 9.343-9.458 9.44z" fill="#eaf6ff"/></g><g fill="#eaf6ff"><path d="m3372 546h-2c-1.1 0-2 .896-2 2s.9 2 2 2h2v2c0 1.104.9 2 2 2s2-.896 2-2v-2h2c1.1 0 2-.896 2-2s-.9-2-2-2h-2v-2c0-1.104-.9-2-2-2s-2 .896-2 2z"/><path d="m3367 569h-2c-1.1 0-2 .896-2 2s.9 2 2 2h2v2c0 1.104.9 2 2 2s2-.896 2-2v-2h2c1.1 0 2-.896 2-2s-.9-2-2-2h-2v-2c0-1.104-.9-2-2-2s-2 .896-2 2z"/></g></g></svg>