<svg fill="none" height="512" viewBox="0 0 512 512" width="512" xmlns="http://www.w3.org/2000/svg"><path clip-rule="evenodd" d="m89.1244 89.1244c-23.659 23.6516-32.2022 56.6966-25.6296 87.1336-26.1724 16.881-43.4948 46.289-43.4948 79.742s17.3248 62.861 43.4948 79.74c-6.5702 30.437 1.973 63.481 25.6296 87.138l53.8756-53.876v-229.002h72.816v97.744l66.584-97.744h82.328l-18.679 25.951 76.829-76.829c-23.657-23.6542-56.701-32.1974-87.138-25.6296-16.879-26.1676-46.287-43.4924-79.74-43.4924s-62.861 17.3248-79.74 43.4948c-30.437-6.5702-63.484 1.973-87.138 25.6296zm136.5926 197.1596-9.901-14.756v24.657z" fill="#0173d3" fill-rule="evenodd"/><path d="m448.508 176.26c6.567-30.437-1.976-63.484-25.63-87.138l-76.829 76.829-61.353 85.241 85.28 121.032h-86.592l-57.667-85.94-9.901 9.901v76.039h-72.816v-3.222l-53.8756 53.876c23.6546 23.654 56.6986 32.197 87.1356 25.63 16.879 26.167 46.287 43.492 79.74 43.492s62.861-17.325 79.74-43.492c30.437 6.567 63.481-1.976 87.138-25.63 23.654-23.657 32.197-56.701 25.63-87.138 26.167-16.879 43.492-46.287 43.492-79.74s-17.325-62.861-43.492-79.74z" fill="#19a8eb"/></svg>