<svg enable-background="new 0 0 512 512" viewBox="0 0 512 512" xmlns="http://www.w3.org/2000/svg"><g id="_x31_4_Chat"><g><path d="m228.138 350.499c-3.742 74.814 53.821 138.437 128.636 142.179 26.958 1.348 52.496-5.266 74.281-17.814 21.653 8.274 44.256 7.462 62.362-.103-15.031-3.52-26.882-11.139-35.132-20.518 23.591-23.035 38.892-54.668 40.669-90.199 3.742-74.816-53.821-138.439-128.636-142.181-74.814-3.742-138.438 53.82-142.18 128.636z" fill="#699dfd"/><path d="m375.412 191.482c5.006 100.091-72.005 185.21-172.096 190.216-36.066 1.804-70.232-7.045-99.378-23.833-28.969 11.07-59.208 9.983-83.432-.138 20.109-4.709 35.964-14.902 47.001-27.45-31.561-30.818-52.032-73.139-54.41-120.673-5.006-100.094 72.005-185.213 172.097-190.219 100.091-5.006 185.211 72.004 190.218 172.097z" fill="#cee8fa"/><circle cx="365.354" cy="360.056" fill="#fff" r="18.221"/><circle cx="439.895" cy="360.056" fill="#fff" r="18.221"/><path d="m98.344 139.974h83.381c2.685 0 4.863-2.177 4.863-4.863 0-2.685-2.177-4.863-4.863-4.863h-83.381c-2.685 0-4.863 2.177-4.863 4.863s2.178 4.863 4.863 4.863z" fill="#fffff4"/><path d="m298.115 191.208h-199.771c-2.685 0-4.863 2.177-4.863 4.863 0 2.685 2.177 4.863 4.863 4.863h199.77c2.685 0 4.863-2.177 4.863-4.863s-2.177-4.863-4.862-4.863z" fill="#fffff4"/><path d="m298.115 252.166h-199.771c-2.685 0-4.863 2.177-4.863 4.863 0 2.685 2.177 4.863 4.863 4.863h199.77c2.685 0 4.863-2.177 4.863-4.863s-2.177-4.863-4.862-4.863z" fill="#fffff4"/><path d="m380.266 191.241c-5.145-102.972-92.645-181.909-195.314-176.711-102.568 5.128-181.842 92.748-176.711 195.316 2.272 45.44 20.875 88.056 52.51 120.547-10.9 11.014-25.104 18.795-41.354 22.601-2.054.482-3.564 2.229-3.737 4.333-.173 2.101 1.026 4.074 2.973 4.889 25.911 10.825 56.72 11.159 84.875.997 31.175 17.446 65.899 25.066 100.049 23.34 7.503-.375 14.902-1.239 22.195-2.476 11.899 61.86 64.524 110.148 130.78 113.459 26.269 1.315 52.133-4.676 74.955-17.33 21.188 7.508 44.312 7.187 63.803-.957 1.947-.814 3.148-2.787 2.973-4.891-.176-2.101-1.683-3.851-3.737-4.331-11.499-2.692-21.597-8.092-29.463-15.716 49.773-52.011 53.079-135.52 2.638-191.273-23.096-25.529-54.073-41.342-87.99-45.221.796-8.759 1.002-17.632.555-26.576zm-177.193 185.6c-33.972 1.667-67.416-6.32-96.708-23.19-1.272-.731-2.796-.849-4.162-.328-21.535 8.227-44.841 9.73-65.878 4.516 13.614-5.451 25.479-13.716 34.834-24.351 1.707-1.945 1.596-4.884-.254-6.691-31.916-31.165-50.72-72.87-52.952-117.436-4.86-97.214 70.273-180.258 167.484-185.121 97.7-4.843 180.249 70.186 185.118 167.484 4.873 97.482-69.992 180.238-167.482 185.117zm257.416-107.279c47.504 52.513 44.277 132.493-5.601 181.203-1.85 1.807-1.961 4.746-.254 6.691 6.301 7.163 14.094 12.912 22.976 17.012-14.498 2.818-30.208 1.436-44.82-4.146-1.363-.522-2.892-.401-4.162.328-21.689 12.494-46.416 18.427-71.612 17.173-61.682-3.086-110.687-48.089-121.741-105.617 75.917-16.962 132.502-79.556 143.314-154.727 31.57 3.612 60.404 18.324 81.9 42.083z" fill="#2c2988"/><path d="m365.353 383.138c12.729 0 23.086-10.354 23.086-23.083 0-12.726-10.357-23.081-23.086-23.081s-23.083 10.354-23.083 23.081c0 12.729 10.354 23.083 23.083 23.083zm0-36.439c7.367 0 13.36 5.99 13.36 13.356 0 7.365-5.993 13.358-13.36 13.358-7.365 0-13.358-5.993-13.358-13.358s5.993-13.356 13.358-13.356z" fill="#2c2988"/><path d="m439.895 383.138c12.729 0 23.083-10.354 23.083-23.083 0-12.726-10.354-23.081-23.083-23.081s-23.083 10.354-23.083 23.081c-.001 12.729 10.354 23.083 23.083 23.083zm0-36.439c7.365 0 13.358 5.99 13.358 13.356 0 7.365-5.993 13.358-13.358 13.358s-13.358-5.993-13.358-13.358 5.992-13.356 13.358-13.356z" fill="#2c2988"/><g fill="#fff"><path d="m242.82 117.282c-16.479-2.57-28.459-13.069-26.837-23.454s16.225-16.683 32.704-14.113c16.433 2.563 28.465 13.015 26.843 23.401-1.622 10.385-16.277 16.729-32.71 14.166z" opacity=".4"/><path d="m282.085 139.709c-7.063-1.102-12.197-5.601-11.502-10.052s6.954-7.15 14.017-6.049c7.043 1.099 12.2 5.578 11.505 10.029-.696 4.451-6.977 7.17-14.02 6.072z" opacity=".4"/><path d="m419.421 292.25c-10.167-1.586-17.559-8.063-16.558-14.471 1.001-6.407 10.011-10.293 20.178-8.707 10.139 1.581 17.562 8.03 16.562 14.438-1.002 6.407-10.043 10.322-20.182 8.74z" opacity=".4"/><path d="m443.646 306.087c-4.358-.68-7.526-3.456-7.097-6.202s4.291-4.412 8.648-3.732c4.346.678 7.527 3.442 7.098 6.188-.428 2.746-4.303 4.424-8.649 3.746z" opacity=".4"/></g></g></g><g id="Layer_1"/></svg>