<svg clip-rule="evenodd" fill-rule="evenodd" height="512" stroke-linejoin="round" stroke-miterlimit="2" viewBox="0 0 32 32" width="512" xmlns="http://www.w3.org/2000/svg"><g><path d="m16.68 4.904c.315-.379.789-.621 1.32-.621.946 0 1.715.769 1.715 1.715s-.769 1.715-1.715 1.715c-.143 0-.283-.018-.416-.051-.746-.186-1.299-.861-1.299-1.664 0-.416.149-.797.395-1.094z" fill="#ffd233"/><path d="m17.567 4.338c.138-.036.283-.055.433-.055.946 0 1.715.769 1.715 1.715s-.769 1.715-1.715 1.715c-.143 0-.283-.018-.416-.051-.746-.186-1.299-.861-1.299-1.664 0-.189.031-.37.087-.54-.001.025-.002.051-.002.077 0 .56.386 1.031.906 1.161.093.023.19.035.29.035.661 0 1.197-.536 1.197-1.196 0-.661-.536-1.197-1.196-1.197z" fill="#fac300"/><path d="m9.174 8.4c.315-.379.79-.62 1.32-.62.947 0 1.715.768 1.715 1.714 0 .947-.768 1.715-1.715 1.715-.143 0-.282-.018-.415-.051-.746-.186-1.299-.861-1.299-1.664 0-.415.148-.797.394-1.094z" fill="#ffd233"/><path d="m10.061 7.835c.138-.036.284-.055.433-.055.947 0 1.715.768 1.715 1.714 0 .947-.768 1.715-1.715 1.715-.143 0-.282-.018-.415-.051-.746-.186-1.299-.861-1.299-1.664 0-.188.03-.37.087-.54-.002.026-.003.051-.003.077 0 .56.386 1.031.907 1.161.093.023.19.036.29.036.66 0 1.196-.537 1.196-1.197 0-.661-.536-1.196-1.196-1.196z" fill="#fac300"/><path d="m14.186 9.913c.314-.379.789-.621 1.32-.621.946 0 1.714.769 1.714 1.715s-.768 1.715-1.714 1.715c-.144 0-.283-.018-.416-.051-.746-.186-1.299-.861-1.299-1.664 0-.416.148-.797.395-1.094z" fill="#ffd233"/><path d="m8.174 16.412c.315-.38.79-.621 1.32-.621.947 0 1.715.768 1.715 1.715 0 .946-.768 1.714-1.715 1.714-.143 0-.282-.017-.415-.051-.746-.186-1.299-.86-1.299-1.663 0-.416.148-.797.394-1.094z" fill="#ffd233"/><path d="m9.061 15.846c.138-.036.284-.055.433-.055.947 0 1.715.768 1.715 1.715 0 .946-.768 1.714-1.715 1.714-.143 0-.282-.017-.415-.051-.746-.186-1.299-.86-1.299-1.663 0-.189.03-.371.087-.54-.002.025-.003.05-.003.076 0 .56.386 1.031.907 1.161.093.023.19.036.29.036.66 0 1.196-.536 1.196-1.197 0-.66-.536-1.196-1.196-1.196z" fill="#fac300"/><path d="m15.072 9.347c.139-.036.284-.055.434-.055.946 0 1.714.769 1.714 1.715s-.768 1.715-1.714 1.715c-.144 0-.283-.018-.416-.051-.746-.186-1.299-.861-1.299-1.664 0-.189.03-.37.087-.54-.002.025-.003.051-.003.077 0 .56.386 1.031.907 1.161.093.023.19.035.29.035.66 0 1.197-.536 1.197-1.196 0-.661-.536-1.197-1.197-1.197z" fill="#fac300"/><path d="m4.5 6.644-1.085 1.618c-.153.229-.464.29-.693.136-.23-.153-.291-.464-.137-.693l1.584-2.364c.186-.277.498-.443.831-.443s.645.166.831.443l1.584 2.364c.154.229.093.54-.137.693-.229.154-.54.093-.693-.136l-1.085-1.618v18.356c0 .232.052.451.146.647l18.5-18.501c.196-.195.512-.195.708 0 .195.196.195.512 0 .708l-18.501 18.5c.196.094.415.146.647.146h19.356l-1.618-1.085c-.229-.153-.29-.464-.136-.693.153-.23.464-.291.693-.137l2.364 1.584c.277.186.443.498.443.831s-.166.645-.443.831l-2.364 1.584c-.229.154-.54.093-.693-.137-.154-.229-.093-.54.136-.693l1.618-1.085h-19.356c-1.381 0-2.5-1.119-2.5-2.5v-18.356z" fill="#707070"/><g fill="#ff5b77"><path d="m16.605 21.666v1.834c0 .183-.072.358-.201.487s-.304.201-.487.201h-1.834c-.183 0-.358-.072-.487-.201s-.201-.304-.201-.487v-1.834c0-.183.072-.358.201-.487s.304-.202.487-.202h1.834c.183 0 .358.073.487.202s.201.304.201.487z"/><path d="m22.617 21.083v1.834c0 .183-.073.358-.202.487s-.304.201-.487.201h-1.834c-.183 0-.358-.072-.487-.201s-.201-.304-.201-.487v-1.834c0-.183.072-.358.201-.487s.304-.201.487-.201h1.834c.183 0 .358.072.487.201s.202.304.202.487z"/><path d="m23.023 15.666v1.834c0 .183-.073.358-.202.487s-.304.201-.487.201h-1.834c-.183 0-.358-.072-.487-.201s-.201-.304-.201-.487v-1.834c0-.183.072-.358.201-.487s.304-.202.487-.202h1.834c.183 0 .358.073.487.202s.202.304.202.487z"/><path d="m28.188 17.083v1.834c0 .183-.072.358-.201.487s-.304.201-.487.201h-1.834c-.183 0-.358-.072-.487-.201s-.202-.304-.202-.487v-1.834c0-.183.073-.358.202-.487s.304-.201.487-.201h1.834c.183 0 .358.072.487.201s.201.304.201.487z"/></g><path d="m15.709 20.977h.208c.183 0 .358.073.487.202s.201.304.201.487v1.834c0 .183-.072.358-.201.487s-.304.201-.487.201h-1.834c-.183 0-.358-.072-.487-.201s-.201-.304-.201-.487v-.208h1.818c.132 0 .258-.052.351-.145s.145-.22.145-.351z" fill="#ff385a"/><path d="m21.72 20.395h.208c.183 0 .358.072.487.201s.202.304.202.487v1.834c0 .183-.073.358-.202.487s-.304.201-.487.201h-1.834c-.183 0-.358-.072-.487-.201s-.201-.304-.201-.487v-.208h1.818c.132 0 .258-.052.351-.145s.145-.219.145-.351z" fill="#ff385a"/><path d="m22.126 14.977h.208c.183 0 .358.073.487.202s.202.304.202.487v1.834c0 .183-.073.358-.202.487s-.304.201-.487.201h-1.834c-.183 0-.358-.072-.487-.201s-.201-.304-.201-.487v-.208h1.818c.132 0 .258-.052.351-.145s.145-.22.145-.351z" fill="#ff385a"/><path d="m27.292 16.395h.208c.183 0 .358.072.487.201s.201.304.201.487v1.834c0 .183-.072.358-.201.487s-.304.201-.487.201h-1.834c-.183 0-.358-.072-.487-.201s-.202-.304-.202-.487v-.208h1.819c.131 0 .258-.052.351-.145s.145-.219.145-.351z" fill="#ff385a"/></g></svg>