<svg id="Layer_1" enable-background="new 0 0 66 66" height="512" viewBox="0 0 66 66" width="512" xmlns="http://www.w3.org/2000/svg"><g><g><g><path d="m51.11 7.13c0 2.7-8.11 4.9-18.12 4.9s-18.11-2.2-18.11-4.9c0-2.71 8.11-4.9 18.11-4.9s18.12 2.19 18.12 4.9z" fill="#ec5664"/></g><g><path d="m49.92 8.88c-2.61 1.84-9.2 3.15-16.92 3.15-10.01 0-18.11-2.2-18.11-4.9 0-1.72 3.26-3.23 8.21-4.1.67 3.33 10.52 5.97 22.56 5.97 1.46 0 2.88-.05 4.26-.12z" fill="#db4554"/></g><g><path d="m51.12 7.13v12.67c0 2.7-8.11 4.89-18.12 4.89-10 0-18.11-2.2-18.11-4.89v-12.67c0 2.71 8.11 4.91 18.11 4.91 10.01 0 18.12-2.2 18.12-4.91z" fill="#ffce59"/></g><g><path d="m50.4 21.17c-2.19 2.03-9.15 3.53-17.41 3.53-10 0-18.11-2.2-18.11-4.89v-12.68c0 .85.8 1.66 2.21 2.35-.06.28-.1.56-.1.84 0 5.98 14.66 10.85 32.75 10.85z" fill="#f5bb43"/></g><g><path d="m33 12.75c-9.36 0-18.83-1.93-18.83-5.62s9.47-5.62 18.83-5.62 18.84 1.93 18.84 5.62-9.48 5.62-18.84 5.62zm0-9.8c-10.78 0-17.39 2.44-17.39 4.18s6.62 4.18 17.39 4.18c10.78 0 17.4-2.44 17.4-4.18s-6.62-4.18-17.4-4.18z" fill="#434753"/></g><g><path d="m33 12.75c-9.36 0-18.83-1.93-18.83-5.62s9.47-5.62 18.83-5.62 18.84 1.93 18.84 5.62-9.48 5.62-18.84 5.62zm0-9.8c-10.78 0-17.39 2.44-17.39 4.18s6.62 4.18 17.39 4.18c10.78 0 17.4-2.44 17.4-4.18s-6.62-4.18-17.4-4.18z" fill="#434753"/></g><g><path d="m33 25.42c-9.36 0-18.83-1.93-18.83-5.61v-12.68c0-.4.32-.72.72-.72s.72.32.72.72c0 1.75 6.62 4.19 17.39 4.19 10.78 0 17.4-2.44 17.4-4.19 0-.4.32-.72.72-.72s.72.32.72.72v12.67c0 3.69-9.48 5.62-18.84 5.62zm-17.4-15.98v10.36c0 1.74 6.62 4.18 17.39 4.18 10.78 0 17.4-2.43 17.4-4.18v-10.36c-3 2.19-10.23 3.32-17.4 3.32-7.16 0-14.39-1.13-17.39-3.32z" fill="#434753"/></g><g><path d="m40.82 20.03c-.36 0-.67-.26-.71-.63-.05-.39.23-.76.62-.81 2.26-.29 4.3-.72 5.91-1.24.38-.12.78.09.9.47s-.09.78-.47.9c-1.71.55-3.79.98-6.16 1.29-.02.02-.06.02-.09.02z" fill="#434753"/></g><g><path d="m14.88 20.63c-.4 0-.72-.32-.72-.72v-.1c0-.4.32-.72.72-.72s.72.32.72.72v.1c0 .39-.32.72-.72.72z" fill="#434753"/></g><g><g><path d="m22.87 16.82c0 1.23-.99 2.21-2.21 2.21-1.23 0-2.21-.99-2.21-2.21s.99-2.21 2.21-2.21 2.21.99 2.21 2.21z" fill="#fff"/></g><g><path d="m22.86 17.02c-.11 1.13-1.05 2.01-2.2 2.01-1.22 0-2.21-.98-2.21-2.21 0-.89.52-1.65 1.27-1.99-.01.06-.01.12-.01.18 0 1.23.98 2.22 2.21 2.22.33.01.65-.07.94-.21z" fill="#e5e8ec"/></g><g><path d="m20.66 19.75c-1.62 0-2.93-1.32-2.93-2.93s1.32-2.93 2.93-2.93 2.93 1.31 2.93 2.93-1.31 2.93-2.93 2.93zm0-4.42c-.82 0-1.5.67-1.5 1.49s.67 1.5 1.5 1.5c.82 0 1.49-.67 1.49-1.5 0-.82-.67-1.49-1.49-1.49z" fill="#434753"/></g></g><g><g><path d="m51.12 19.8v12.67c0 2.7-8.11 4.89-18.12 4.89-10 0-18.11-2.2-18.11-4.89v-12.67c0 2.71 8.11 4.91 18.11 4.91 10.01 0 18.12-2.2 18.12-4.91z" fill="#a0ce69"/></g><g><path d="m50.94 33.14c-1.19 2.38-8.77 4.23-17.95 4.23-10 0-18.11-2.2-18.11-4.89v-12.68c0 1.37 2.07 2.61 5.42 3.5-.01.06-.01.13-.01.19 0 5.34 12.45 9.69 27.81 9.69.96.01 1.91-.01 2.84-.04z" fill="#8abf4f"/></g><g><path d="m33 38.08c-9.36 0-18.83-1.93-18.83-5.61v-12.67c0-.4.32-.72.72-.72s.72.32.72.72c0 1.75 6.62 4.19 17.39 4.19 10.78 0 17.4-2.44 17.4-4.19 0-.4.32-.72.72-.72s.72.32.72.72v12.67c0 3.69-9.48 5.61-18.84 5.61zm-17.4-15.97v10.36c0 1.74 6.62 4.18 17.39 4.18 10.78 0 17.4-2.43 17.4-4.18v-10.36c-3 2.19-10.23 3.32-17.4 3.32-7.16 0-14.39-1.13-17.39-3.32z" fill="#434753"/></g><g><path d="m43.03 32.29c-.34 0-.64-.24-.71-.59-.07-.39.19-.77.58-.84 1.93-.35 3.56-.79 4.85-1.3.37-.15.79.03.94.4s-.03.79-.4.94c-1.38.55-3.1 1.02-5.13 1.38-.04.01-.08.01-.13.01z" fill="#434753"/></g><g><g><path d="m22.25 29.36c0 1.23-.99 2.21-2.21 2.21-1.23 0-2.21-.99-2.21-2.21s.99-2.21 2.21-2.21c1.22.01 2.21.99 2.21 2.21z" fill="#fff"/></g><g><path d="m22.24 29.56c-.11 1.13-1.05 2.01-2.2 2.01-1.22 0-2.21-.98-2.21-2.21 0-.89.52-1.65 1.27-1.99-.01.06-.01.12-.01.18 0 1.23.98 2.22 2.21 2.22.33.01.65-.07.94-.21z" fill="#e5e8ec"/></g><g><path d="m20.04 32.3c-1.62 0-2.93-1.32-2.93-2.93s1.32-2.93 2.93-2.93 2.93 1.31 2.93 2.93c0 1.61-1.32 2.93-2.93 2.93zm0-4.42c-.82 0-1.5.67-1.5 1.49s.67 1.5 1.5 1.5c.82 0 1.49-.67 1.49-1.5s-.67-1.49-1.49-1.49z" fill="#434753"/></g></g></g><g><g><path d="m51.12 32.65v12.67c0 2.7-8.11 4.89-18.12 4.89-10 0-18.11-2.2-18.11-4.89v-12.67c0 2.71 8.11 4.91 18.11 4.91 10.01 0 18.12-2.2 18.12-4.91z" fill="#51bfe7"/></g><g><path d="m50.94 45.98c-1.19 2.38-8.77 4.23-17.95 4.23-10 0-18.11-2.2-18.11-4.89v-12.67c0 1.37 2.07 2.61 5.42 3.5-.01.06-.01.13-.01.19 0 5.34 12.45 9.69 27.81 9.69.96.01 1.91-.02 2.84-.05z" fill="#3badd8"/></g><g><path d="m33 50.93c-9.36 0-18.83-1.93-18.83-5.61v-12.67c0-.4.32-.72.72-.72s.72.32.72.72c0 1.75 6.62 4.19 17.39 4.19 10.78 0 17.4-2.44 17.4-4.19 0-.4.32-.72.72-.72s.72.32.72.72v12.67c0 3.68-9.48 5.61-18.84 5.61zm-17.4-15.98v10.36c0 1.74 6.62 4.18 17.39 4.18 10.78 0 17.4-2.43 17.4-4.18v-10.36c-3 2.19-10.23 3.32-17.4 3.32-7.16.01-14.39-1.13-17.39-3.32z" fill="#434753"/></g><g><path d="m43.03 45.14c-.34 0-.64-.24-.71-.59-.07-.39.19-.77.58-.84 1.93-.35 3.56-.79 4.85-1.3.37-.15.79.03.94.4s-.03.79-.4.94c-1.38.55-3.1 1.02-5.13 1.38-.04.01-.08.01-.13.01z" fill="#434753"/></g><g><g><path d="m22.25 42.21c0 1.23-.99 2.21-2.21 2.21-1.23 0-2.21-.99-2.21-2.21s.99-2.21 2.21-2.21 2.21.99 2.21 2.21z" fill="#fff"/></g><g><path d="m22.24 42.41c-.11 1.13-1.05 2.01-2.2 2.01-1.22 0-2.21-.98-2.21-2.21 0-.89.52-1.65 1.27-1.99-.01.06-.01.12-.01.18 0 1.23.98 2.22 2.21 2.22.33.01.65-.07.94-.21z" fill="#e5e8ec"/></g><g><path d="m20.04 45.14c-1.62 0-2.93-1.32-2.93-2.93s1.32-2.93 2.93-2.93 2.93 1.31 2.93 2.93-1.32 2.93-2.93 2.93zm0-4.42c-.82 0-1.5.67-1.5 1.49s.67 1.5 1.5 1.5c.82 0 1.49-.67 1.49-1.5 0-.82-.67-1.49-1.49-1.49z" fill="#434753"/></g></g></g></g><g><path d="m31.19 50.21h3.61v5.56h-3.61z" fill="#f5f5fa"/></g><g><path d="m49.27 59.77c0 1-.81 1.8-1.8 1.8h-6.74v-3.61h6.74c.99.01 1.8.81 1.8 1.81z" fill="#f5f5fa"/></g><g><path d="m49.27 59.77c0 1-.81 1.8-1.8 1.8h-6.74v-3.61h6.74c.99.01 1.8.81 1.8 1.81z" fill="#f5f5fa"/></g><g><path d="m25.27 57.97v3.61h-6.74c-1 0-1.8-.81-1.8-1.8 0-1 .81-1.8 1.8-1.8h6.74z" fill="#f5f5fa"/></g><g><path d="m40.72 57.66v4.21c0 1.04-.85 1.89-1.89 1.89h-11.67c-1.04 0-1.89-.85-1.89-1.89v-4.21c0-1.04.85-1.89 1.89-1.89h11.67c1.05 0 1.89.85 1.89 1.89z" fill="#ccd0d9"/></g><g><path d="m40.72 60.48v1.4c0 1.04-.85 1.89-1.89 1.89h-11.67c-1.05 0-1.89-.85-1.89-1.89v-4.22c0-.96.72-1.75 1.65-1.87-.05.18-.07.36-.07.55 0 2.55 4.29 4.63 9.58 4.63 1.54 0 3-.18 4.29-.49z" fill="#a9b1bc"/></g><g><path d="m38.83 64.49h-11.67c-1.44 0-2.61-1.17-2.61-2.61v-4.21c0-1.44 1.17-2.61 2.61-2.61h11.67c1.44 0 2.61 1.17 2.61 2.61v4.21c0 1.44-1.17 2.61-2.61 2.61zm-11.67-8c-.65 0-1.17.53-1.17 1.17v4.21c0 .65.53 1.17 1.17 1.17h11.67c.65 0 1.17-.53 1.17-1.17v-4.21c0-.65-.53-1.17-1.17-1.17z" fill="#434753"/></g><g><path d="m47.47 62.29h-6.74c-.4 0-.72-.32-.72-.72v-3.61c0-.4.32-.72.72-.72h6.74c1.39 0 2.52 1.13 2.52 2.52 0 1.4-1.13 2.53-2.52 2.53zm-6.03-1.43h6.02c.6 0 1.09-.49 1.09-1.09s-.49-1.09-1.09-1.09h-6.02z" fill="#434753"/></g><g><path d="m47.47 62.29h-6.74c-.4 0-.72-.32-.72-.72v-3.61c0-.4.32-.72.72-.72h6.74c1.39 0 2.52 1.13 2.52 2.52 0 1.4-1.13 2.53-2.52 2.53zm-6.03-1.43h6.02c.6 0 1.09-.49 1.09-1.09s-.49-1.09-1.09-1.09h-6.02z" fill="#434753"/></g><g><path d="m25.27 62.29h-6.74c-1.39 0-2.52-1.13-2.52-2.52s1.13-2.52 2.52-2.52h6.74c.4 0 .72.32.72.72v3.61c0 .39-.32.71-.72.71zm-6.74-3.6c-.6 0-1.09.49-1.09 1.09s.49 1.09 1.09 1.09h6.02v-2.17h-6.02z" fill="#434753"/></g><g><path d="m34.8 56.49h-3.61c-.4 0-.72-.32-.72-.72v-5.56c0-.4.32-.72.72-.72h3.61c.4 0 .72.32.72.72v5.56c0 .4-.32.72-.72.72zm-2.89-1.44h2.17v-4.12h-2.17z" fill="#434753"/></g></g></svg>