<svg id="Icons" viewBox="0 0 60 60" xmlns="http://www.w3.org/2000/svg"><circle cx="30" cy="6" fill="#f7ca3c" r="5"/><circle cx="30" cy="22" fill="#f7ca3c" r="5"/><circle cx="30" cy="38" fill="#f7ca3c" r="5"/><circle cx="6" cy="14" fill="#4ed8d5" r="5"/><circle cx="6" cy="30" fill="#4ed8d5" r="5"/><circle cx="6" cy="46" fill="#4ed8d5" r="5"/><circle cx="54" cy="22" fill="#ea4458" r="5"/><circle cx="54" cy="38" fill="#ea4458" r="5"/><circle cx="30" cy="54" fill="#f7ca3c" r="5"/><g fill="#262626"><path d="m30 16c-3.309 0-6 2.691-6 6s2.691 6 6 6c2.967 0 5.431-2.167 5.91-5h5.676l-.293.293c-.391.391-.391 1.023 0 1.414.195.195.451.293.707.293s.512-.098.707-.293l2-2c.391-.391.391-1.023 0-1.414l-2-2c-.391-.391-1.023-.391-1.414 0s-.391 1.023 0 1.414l.293.293h-5.676c-.478-2.833-2.942-5-5.91-5zm0 10c-2.206 0-4-1.794-4-4s1.794-4 4-4 4 1.794 4 4-1.794 4-4 4z"/><path d="m30 44c2.967 0 5.431-2.167 5.91-5h5.676l-.293.293c-.391.391-.391 1.023 0 1.414.195.195.451.293.707.293s.512-.098.707-.293l2-2c.391-.391.391-1.023 0-1.414l-2-2c-.391-.391-1.023-.391-1.414 0s-.391 1.023 0 1.414l.293.293h-5.676c-.478-2.833-2.942-5-5.91-5-3.309 0-6 2.691-6 6s2.691 6 6 6zm0-10c2.206 0 4 1.794 4 4s-1.794 4-4 4-4-1.794-4-4 1.794-4 4-4z"/><path d="m6 20c3.309 0 6-2.691 6-6 0-.437-.05-.861-.139-1.271l7.263-2.901-.315.731c-.219.507.016 1.096.522 1.313.129.056.263.082.396.082.387 0 .756-.227.918-.604l1.272-2.954c.219-.507-.015-1.096-.522-1.313l-2.954-1.272c-.506-.219-1.097.015-1.313.522-.219.507.016 1.096.522 1.313l.742.32-7.281 2.909c-1.056-1.72-2.949-2.874-5.112-2.874-3.309 0-6 2.691-6 6s2.691 6 6 6zm0-10c2.206 0 4 1.794 4 4s-1.794 4-4 4-4-1.794-4-4 1.794-4 4-4z"/><path d="m6 36c2.163 0 4.056-1.154 5.112-2.874l7.281 2.909-.742.32c-.507.218-.741.807-.522 1.313.162.379.531.604.918.604.133 0 .267-.026.396-.082l2.954-1.272c.508-.218.741-.807.522-1.313l-1.272-2.954c-.218-.509-.809-.739-1.313-.522-.507.218-.741.807-.522 1.313l.315.731-7.263-2.901c.089-.41.139-.835.139-1.271s-.05-.861-.139-1.271l7.263-2.901-.315.731c-.219.507.016 1.096.522 1.313.129.056.263.082.396.082.387 0 .756-.227.918-.604l1.272-2.954c.219-.507-.015-1.096-.522-1.313l-2.954-1.272c-.506-.218-1.097.014-1.313.522-.219.507.016 1.096.522 1.313l.742.32-7.281 2.909c-1.056-1.72-2.949-2.874-5.112-2.874-3.309 0-6 2.691-6 6s2.691 6 6 6zm0-10c2.206 0 4 1.794 4 4s-1.794 4-4 4-4-1.794-4-4 1.794-4 4-4z"/><path d="m6 52c2.163 0 4.056-1.154 5.112-2.874l7.281 2.909-.742.32c-.507.218-.741.807-.522 1.313.162.379.531.604.918.604.133 0 .267-.026.396-.082l2.954-1.272c.508-.218.741-.807.522-1.313l-1.272-2.954c-.218-.509-.809-.741-1.313-.522-.507.218-.741.807-.522 1.313l.315.731-7.263-2.901c.089-.41.139-.835.139-1.271 0-3.309-2.691-6-6-6s-6 2.691-6 6 2.691 6 6 6zm0-10c2.206 0 4 1.794 4 4s-1.794 4-4 4-4-1.794-4-4 1.794-4 4-4z"/><path d="m54 16c-.834 0-1.642.168-2.4.5-.506.221-.737.811-.516 1.316s.811.741 1.316.516c.505-.22 1.043-.332 1.6-.332 2.206 0 4 1.794 4 4s-1.794 4-4 4-4-1.794-4-4c0-.557.112-1.095.332-1.6.222-.506-.01-1.096-.516-1.316-.506-.224-1.096.011-1.316.516-.332.759-.5 1.566-.5 2.4 0 3.309 2.691 6 6 6s6-2.691 6-6-2.691-6-6-6z"/><path d="m54 32c-3.309 0-6 2.691-6 6s2.691 6 6 6 6-2.691 6-6-2.691-6-6-6zm0 10c-2.206 0-4-1.794-4-4s1.794-4 4-4 4 1.794 4 4-1.794 4-4 4z"/><path d="m45.778 11.994-1.189-2.989c-.204-.513-.781-.766-1.299-.559-.513.204-.764.785-.559 1.299l.299.751-7.204-3.089c.109-.452.174-.922.174-1.408 0-3.308-2.691-5.999-6-5.999s-6 2.691-6 6 2.691 6 6 6c2.112 0 3.969-1.1 5.039-2.754l7.191 3.083-.739.294c-.514.204-.764.786-.561 1.299.156.393.532.631.93.631.123 0 .248-.022.369-.07l2.989-1.188c.247-.099.444-.29.549-.534.105-.243.109-.519.011-.766zm-15.778-1.994c-2.206 0-4-1.794-4-4s1.794-4 4-4 4 1.794 4 4-1.794 4-4 4z"/><path d="m43.29 51.554c.122.049.247.071.37.071.397 0 .773-.238.929-.63l1.189-2.989c.099-.247.095-.522-.011-.766-.104-.244-.302-.436-.549-.534l-2.989-1.188c-.513-.203-1.094.047-1.299.561-.203.513.047 1.095.561 1.299l.739.294-7.191 3.083c-1.069-1.654-2.926-2.754-5.039-2.754-3.309 0-6 2.691-6 6s2.691 6 6 6 6-2.691 6-6c0-.486-.064-.955-.174-1.408l7.204-3.089-.299.751c-.205.514.046 1.095.559 1.299zm-13.29 6.446c-2.206 0-4-1.794-4-4s1.794-4 4-4 4 1.794 4 4-1.794 4-4 4z"/></g></svg>