<svg height="512" viewBox="0 0 64 64" width="512" xmlns="http://www.w3.org/2000/svg"><g id="Fill_1" data-name="Fill 1"><path d="m52.55 26.6a.9876.9876 0 0 0 -.94-.09l-19.61 8.4-19.61-8.4a1.0045 1.0045 0 0 0 -1.39.92v10.32a.9845.9845 0 0 0 .25.66c4.96 5.58 12.52 8.78 20.75 8.78s15.79-3.2 20.75-8.78a.9845.9845 0 0 0 .25-.66v-10.32a.982.982 0 0 0 -.45-.83z" fill="#42362e"/><path d="m53 27.43v2.84l-19.82 8.49a2.9644 2.9644 0 0 1 -1.18.24 2.8889 2.8889 0 0 1 -1.19-.25l-19.81-8.49v-2.83a1.0045 1.0045 0 0 1 1.39-.92l19.61 8.4 19.61-8.4a1.0045 1.0045 0 0 1 1.39.92z" fill="#322923"/></g><g id="Fill_2" data-name="Fill 2"><path d="m32 37a.9915.9915 0 0 1 -.3936-.0811l-28-12a.9994.9994 0 0 1 0-1.8378l28-12a.9934.9934 0 0 1 .7872 0l28 12a.9994.9994 0 0 1 0 1.8378l-28 12a.9915.9915 0 0 1 -.3936.0811z" fill="#42362e"/></g><g id="Effect_Line" data-name="Effect Line"><path d="m23 19a1 1 0 0 1 -.3936-1.9194l9-3.857a.9934.9934 0 0 1 .7872 0l2 .857a1 1 0 1 1 -.7872 1.8379l-1.6064-.688-8.6064 3.688a.9941.9941 0 0 1 -.3936.0815z" fill="#554f47"/><circle cx="38" cy="16.791" fill="#554f47" r="1"/><path d="m33.999 45.12a1 1 0 0 1 -.0693-1.9975 23.3906 23.3906 0 0 0 15.0703-6.5615v-1.561a1 1 0 0 1 2 0v1.9678a1.0008 1.0008 0 0 1 -.2773.6909 25.2939 25.2939 0 0 1 -16.6527 7.4585c-.0231.0015-.0475.0028-.071.0028z" fill="#322923"/></g><g id="Line" fill="#ffe145"><path d="m46 44a1 1 0 0 1 -1-1v-12.3408l-13.3936-5.74a1 1 0 1 1 .7872-1.8378l14 6a.999.999 0 0 1 .6064.9186v13a1 1 0 0 1 -1 1z"/><path d="m49 53h-6a1 1 0 0 1 -1-1v-6a4 4 0 0 1 8 0v6a1 1 0 0 1 -1 1z"/></g></svg>