<svg id="Layer_1" enable-background="new 0 0 50 50" height="512" viewBox="0 0 50 50" width="512" xmlns="http://www.w3.org/2000/svg"><g id="_x38__1_"><g><path d="m7.2 39.6c-.1-.3 0-.6.3-.7l28-11.1-14.8-3.5c-.2 0-.4-.2-.4-.4s.1-.4.3-.5l23.5-13.4c.2-.1.6-.1.7.2.1.2.1.6-.2.7l-22.5 12.7 15.1 3.6c.2.1.4.2.4.5 0 .2-.1.4-.3.5l-29.5 11.7c-.2.1-.5 0-.6-.3z" fill="#626681"/></g><g><path d="m42.3 45.3-36.1-4.8c-.2 0-.3-.2-.4-.3-.1-.2 0-.4.1-.5l13-14.9-12.5-16.2c-.1-.3-.1-.6.1-.8s.5-.1.7.1l12.8 16.6c.1.2.1.5 0 .6l-12.7 14.5 34.3 4.5-4.9-16.2c0-.1 0-.2 0-.3l6.3-16.3c.1-.3.4-.4.7-.3s.4.4.3.7l-6.2 16.1 5.1 16.8c.1.2 0 .3-.1.5-.2.1-.4.2-.5.2z" fill="#626681"/></g><g><g><g><circle cx="43.4" cy="10.9" fill="#58b44f" r="5.5"/></g></g><g><g><path d="m45.4 7.4c0 2.8-2.3 5.2-5.2 5.2-1 0-1.6 1.2-1 2 1.2 1.4 3.1 2.1 5.2 1.7s3.9-2.1 4.3-4.2-.4-4.1-1.8-5.4c-.5-.5-1.5-.1-1.5.7z" fill="#4b9b43"/></g></g><g><g><path d="m43.2 8.4c0 1.1-1.3 3-2 3s-1.3-.9-1.3-2 .6-2 1.3-2 2 0 2 1z" fill="#63c558"/></g></g><g><g><path d="m43.8 14.9c-.1-.4.2-.7.5-.8 1.1-.2 2-1.1 2.2-2.2.1-.4.4-.6.8-.5s.6.4.5.8c-.3 1.6-1.7 2.9-3.3 3.2-.2.1-.6-.1-.7-.5z" fill="#63c558"/></g></g></g><g><g><g><circle cx="6.3" cy="6.8" fill="#fc4a32" r="5.2"/></g></g><g><g><path d="m8.2 3.5c0 2.7-2.2 4.9-4.9 4.9-1 0-1.6 1.2-.9 1.9 1.2 1.3 2.9 2 4.9 1.6s3.7-2 4.1-4-.3-3.9-1.7-5.1c-.6-.4-1.5 0-1.5.7z" fill="#e23e2d"/></g></g><g><g><path d="m6.1 4.5c0 1-1.2 2.8-1.9 2.8s-1.3-.8-1.3-1.8.6-1.9 1.3-1.9 1.9-.1 1.9.9z" fill="#ff6252"/></g></g><g><g><path d="m6.7 10.6c-.1-.3.2-.6.5-.7 1.1-.2 1.9-1 2.1-2.1.1-.3.4-.6.7-.5s.6.4.5.7c-.3 1.5-1.6 2.8-3.1 3.1-.3.1-.6-.1-.7-.5z" fill="#ff6252"/></g></g></g><g><g><g><circle cx="44" cy="44.3" fill="#fc4a32" r="4.1"/></g></g><g><g><path d="m45.5 41.8c0 2.1-1.7 3.8-3.8 3.8-.8 0-1.2.9-.7 1.5.9 1 2.3 1.6 3.8 1.3 1.6-.3 2.9-1.6 3.2-3.1.3-1.6-.3-3-1.3-4-.5-.4-1.2-.1-1.2.5z" fill="#e23e2d"/></g></g><g><g><path d="m43.8 42.5c0 .8-.9 2.2-1.5 2.2-.5 0-1-.6-1-1.4s.4-1.4 1-1.4 1.5-.2 1.5.6z" fill="#ff6252"/></g></g><g><g><path d="m44.3 47.3c-.1-.3.1-.5.4-.6.8-.2 1.5-.8 1.7-1.6.1-.3.3-.4.6-.4.3.1.4.3.4.6-.2 1.2-1.2 2.2-2.4 2.4-.4.1-.7-.1-.7-.4z" fill="#ff6252"/></g></g></g><g><g><g><circle cx="19.8" cy="23.8" fill="#2260ef" r="5.9"/></g></g><g><g><path d="m21.8 20.9v.2c0 2.3-1.9 4.2-4.2 4.2-1.9 0-2.6 2.4-1 3.4 1 .7 2.3 1.1 3.7 1 3-.2 5.5-2.9 5.5-5.9 0-1.5-.5-2.8-1.5-3.9-.9-.9-2.5-.3-2.5 1z" fill="#1445c8"/></g></g><g><g><path d="m19.6 21.2c0 1.2-1.3 3.2-2.1 3.2s-1.4-.9-1.4-2.1.6-2.1 1.4-2.1c.7 0 2.1-.1 2.1 1z" fill="#3e7df9"/></g></g><g><g><path d="m20.3 28.2c-.1-.4.2-.8.6-.8 1.2-.2 2.2-1.2 2.4-2.4.1-.4.5-.6.8-.6.4.1.6.5.6.8-.4 1.7-1.8 3.1-3.5 3.5-.5.1-.9-.1-.9-.5z" fill="#2260ef"/></g></g></g><g><g><g><circle cx="7.8" cy="38.8" fill="#f7cc6d" r="4.5"/></g></g><g><g><path d="m9.5 35.9c0 2.3-1.9 4.2-4.2 4.2-.8 0-1.3 1-.8 1.6 1 1.1 2.5 1.7 4.2 1.4s3.2-1.7 3.5-3.5c.4-1.8-.3-3.4-1.5-4.4-.4-.3-1.2.1-1.2.7z" fill="#f4bc5f"/></g></g><g><g><path d="m7.6 36.8c0 .9-1 2.5-1.6 2.5s-1.1-.7-1.1-1.6c0-1 .5-1.7 1.1-1.7s1.6-.1 1.6.8z" fill="#f9d78d"/></g></g><g><g><path d="m8.2 42.1c-.1-.3.1-.6.4-.6.9-.2 1.6-.9 1.8-1.8.1-.3.4-.5.6-.4.3.1.5.4.4.6-.3 1.3-1.4 2.4-2.7 2.7-.2 0-.5-.2-.5-.5z" fill="#f9d78d"/></g></g></g><g><g><g><circle cx="37.2" cy="27.7" fill="#f7cc6d" r="3.9"/></g></g><g><g><path d="m38.6 25.3c0 2-1.6 3.6-3.6 3.6-.7 0-1.2.9-.7 1.4.9 1 2.2 1.5 3.7 1.2s2.7-1.5 3-3-.3-2.9-1.3-3.8c-.4-.3-1.1 0-1.1.6z" fill="#f4bc5f"/></g></g><g><g><path d="m37 26c0 .8-.9 2.1-1.4 2.1s-.9-.6-.9-1.4.4-1.4.9-1.4 1.4 0 1.4.7z" fill="#f9d78d"/></g></g><g><g><path d="m37.5 30.6c0-.3.1-.5.4-.6.8-.1 1.4-.8 1.6-1.6.1-.3.3-.4.6-.4.3.1.4.3.4.6-.2 1.2-1.2 2.1-2.3 2.3-.4.1-.7-.1-.7-.3z" fill="#f9d78d"/></g></g></g></g></svg>