<svg id="Layer_3" height="512" viewBox="0 0 64 64" width="512" xmlns="http://www.w3.org/2000/svg" data-name="Layer 3"><circle cx="32" cy="32" fill="#e2e7f6" r="30"/><path d="m58 30a29.98 29.98 0 0 0 -14.629-25.763 30 30 0 0 0 -26.742 53.526 30 30 0 0 0 41.371-27.763z" fill="#f2f2f2"/><g fill="#7aadf9"><path d="m43.52 14.828h2v8.281h-2z" transform="matrix(.669 -.743 .743 .669 .638 39.369)"/><path d="m48.923 24.967h2v8.067h-2z" transform="matrix(.988 -.152 .152 .988 -3.829 7.927)"/><path d="m37.26 37.743h11.023v1.999h-11.023z" transform="matrix(.949 -.317 .317 .949 -10.064 15.53)"/><path d="m32.687 28.726h1.999v10.667h-1.999z" transform="matrix(.949 -.316 .316 .949 -9.042 12.4)"/><path d="m17.815 34.943h16.426v2h-16.426z" transform="matrix(.447 -.894 .894 .447 -17.76 43.149)"/><path d="m17.257 28.328h2v15.229h-2z" transform="matrix(.965 -.263 .263 .965 -8.814 6.07)"/><path d="m38.238 42.113h2v8.569h-2z" transform="matrix(.858 -.514 .514 .858 -18.279 26.798)"/><path d="m29.465 45.862h8.807v1.999h-8.807z" transform="matrix(.342 -.94 .94 .342 -21.749 62.667)"/></g><circle cx="39" cy="14" fill="#b52f28" r="4"/><path d="m35 14a3.982 3.982 0 0 0 1.2 2.849 3.932 3.932 0 0 0 1.03.151 4 4 0 0 0 2.8-6.849 3.944 3.944 0 0 0 -1.03-.151 4 4 0 0 0 -4 4z" fill="#d23f34"/><circle cx="15" cy="24" fill="#f3a748" r="6"/><path d="m15 18a5.993 5.993 0 0 0 -4.824 9.558 5.992 5.992 0 0 0 8.013-8.634 5.967 5.967 0 0 0 -3.189-.924z" fill="#f9d266"/><circle cx="31" cy="26" fill="#3b5892" r="4"/><path d="m31 22a4 4 0 0 0 -4 4 3.955 3.955 0 0 0 .561 2.011 3.977 3.977 0 0 0 5.878-5.16 3.956 3.956 0 0 0 -2.439-.851z" fill="#4c6cb5"/><circle cx="21" cy="46" fill="#b52f28" r="4"/><path d="m21 42a3.988 3.988 0 0 0 -3.372 6.136 3.984 3.984 0 0 0 5.828-5.272 3.964 3.964 0 0 0 -2.456-.864z" fill="#d23f34"/><circle cx="51" cy="36" fill="#f0ae42" r="4"/><path d="m51 32a3.983 3.983 0 0 0 -3.2 6.379 3.984 3.984 0 0 0 5.321-5.758 3.966 3.966 0 0 0 -2.121-.621z" fill="#f9d266"/><circle cx="36" cy="41" fill="#b52f28" r="3"/><path d="m33 41a2.965 2.965 0 0 0 .446 1.554 2.965 2.965 0 0 0 1.554.446 3 3 0 0 0 3-3 2.965 2.965 0 0 0 -.446-1.554 2.965 2.965 0 0 0 -1.554-.446 3 3 0 0 0 -3 3z" fill="#d23f34"/><circle cx="49" cy="23" fill="#3b5892" r="3"/><path d="m46 23a2.983 2.983 0 0 0 .558 1.733 2.992 2.992 0 0 0 3.667-4.466 2.99 2.99 0 0 0 -4.225 2.733z" fill="#4c6cb5"/><circle cx="32" cy="52" fill="#3b5892" r="2"/><path d="m32 50a1.992 1.992 0 0 0 -1.6 3.183 1.98 1.98 0 0 0 1.184.4 2 2 0 0 0 2-2 1.98 1.98 0 0 0 -.4-1.184 1.983 1.983 0 0 0 -1.184-.399z" fill="#4c6cb5"/><circle cx="42" cy="51" fill="#f3a748" r="2"/><path d="m40 51a1.986 1.986 0 0 0 .189.837 1.991 1.991 0 0 0 3.011-2.426 1.991 1.991 0 0 0 -3.2 1.589z" fill="#f9d266"/></svg>