<svg height="512" viewBox="0 0 512 512" width="512" xmlns="http://www.w3.org/2000/svg"><g id="Filled-Outline"><g id="Hosting-server-cloud_copy" data-name="Hosting-server-cloud copy"><circle cx="464" cy="376" fill="#ffd648" r="24"/><circle cx="376" cy="464" fill="#ffd648" r="24"/><circle cx="256" cy="448" fill="#ffd648" r="24"/><circle cx="136" cy="464" fill="#ffd648" r="24"/><circle cx="48" cy="376" fill="#ffd648" r="24"/><path d="m360 280v32a16 16 0 0 1 -16 16h-176a16 16 0 0 1 -16-16v-32a16 16 0 0 1 16-16h176a16 16 0 0 1 16 16z" fill="#ffd648"/><rect fill="#ffd648" height="64" rx="16" width="208" x="152" y="200"/><rect fill="#ffd648" height="64" rx="16" width="208" x="152" y="136"/><path d="m224 328h-56a16 16 0 0 1 -16-16v-32a16 16 0 0 1 16-16h56a16 16 0 0 0 -16 16v32a16 16 0 0 0 16 16z" fill="#ffb300"/><path d="m224 264h-56a16 16 0 0 1 -16-16v-32a16 16 0 0 1 16-16h56a16 16 0 0 0 -16 16v32a16 16 0 0 0 16 16z" fill="#ffb300"/><path d="m224 200h-56a16 16 0 0 1 -16-16v-32a16 16 0 0 1 16-16h56a16 16 0 0 0 -16 16v32a16 16 0 0 0 16 16z" fill="#ffb300"/><path d="m416 136a72 72 0 0 1 0 144h-56a16 16 0 0 0 -16-16 16 16 0 0 0 16-16v-32a16 16 0 0 0 -16-16 16 16 0 0 0 16-16v-32a16 16 0 0 0 -16-16h-176a16 16 0 0 0 -16 16v32a16 16 0 0 0 16 16 16 16 0 0 0 -16 16v32a16 16 0 0 0 16 16 16 16 0 0 0 -16 16h-40a88 88 0 1 1 14.4-174.83 144.037 144.037 0 0 1 270.58 33.38 71.505 71.505 0 0 1 19.02-2.55z" fill="#00d0ce"/><path d="m256 24a144.26 144.26 0 0 1 32.01 3.57 144.245 144.245 0 0 0 -97.61 77.6 88.017 88.017 0 0 0 -38.08 171.6 16.457 16.457 0 0 0 -.32 3.23h-40a88 88 0 1 1 14.4-174.83 143.993 143.993 0 0 1 129.6-81.17z" fill="#00a5ab"/><path d="m384 200a16 16 0 0 1 16 16v32a16 16 0 0 1 -16 16 15.99 15.99 0 0 1 15.99 15.56 72.663 72.663 0 0 1 -7.99.44h-32a16 16 0 0 0 -16-16 16 16 0 0 0 16-16v-32a16 16 0 0 0 -16-16 16 16 0 0 0 16-16v-32a16 16 0 0 0 -16-16s37.91.55 42.57.2a16 16 0 0 1 13.43 15.8v32a16 16 0 0 1 -16 16z" fill="#00a5ab"/><g fill="#00074e"><path d="m176 160h96v16h-96z"/><path d="m288 160h16v16h-16z"/><path d="m320 160h16v16h-16z"/><path d="m176 224h96v16h-96z"/><path d="m288 224h16v16h-16z"/><path d="m320 224h16v16h-16z"/><path d="m176 288h96v16h-96z"/><path d="m288 288h16v16h-16z"/><path d="m320 288h16v16h-16z"/><path d="m464 344a32.057 32.057 0 0 0 -30.987 24h-89.013v-32a24.028 24.028 0 0 0 24-24v-24h48a80 80 0 1 0 -13.044-158.939 152.031 152.031 0 0 0 -281.115-32.561 97.271 97.271 0 0 0 -9.841-.5 96 96 0 0 0 0 192h32v24a24.028 24.028 0 0 0 24 24v32h-89.013a32 32 0 1 0 0 16h97.013a8 8 0 0 0 8-8v-40h16v64h-64a8 8 0 0 0 -8 8v25.013a32 32 0 1 0 16 0v-17.013h64a8 8 0 0 0 8-8v-72h32v81.013a32 32 0 1 0 16 0v-81.013h32v72a8 8 0 0 0 8 8h64v17.013a32 32 0 1 0 16 0v-25.013a8 8 0 0 0 -8-8h-64v-64h16v40a8 8 0 0 0 8 8h97.013a32 32 0 1 0 30.987-40zm-416 48a16 16 0 1 1 16-16 16.019 16.019 0 0 1 -16 16zm104 72a16 16 0 1 1 -16-16 16.019 16.019 0 0 1 16 16zm120-16a16 16 0 1 1 -16-16 16.019 16.019 0 0 1 16 16zm120 16a16 16 0 1 1 -16-16 16.019 16.019 0 0 1 16 16zm-232-280v-32a8.009 8.009 0 0 1 8-8h176a8.009 8.009 0 0 1 8 8v32a8.009 8.009 0 0 1 -8 8h-176a8.009 8.009 0 0 1 -8-8zm0 64v-32a8.009 8.009 0 0 1 8-8h176a8.009 8.009 0 0 1 8 8v32a8.009 8.009 0 0 1 -8 8h-176a8.009 8.009 0 0 1 -8-8zm-128-56a80.091 80.091 0 0 1 80-80 80.944 80.944 0 0 1 13.1 1.064 7.994 7.994 0 0 0 8.5-4.4 136.036 136.036 0 0 1 255.55 31.513 8 8 0 0 0 9.958 6.085 64 64 0 1 1 16.892 125.738h-49.376a24.015 24.015 0 0 0 -4.755-8 23.9 23.9 0 0 0 6.131-16v-32a23.9 23.9 0 0 0 -6.131-16 23.9 23.9 0 0 0 6.131-16v-32a24.028 24.028 0 0 0 -24-24h-176a24.028 24.028 0 0 0 -24 24v32a23.9 23.9 0 0 0 6.131 16 23.9 23.9 0 0 0 -6.131 16v32a23.9 23.9 0 0 0 6.131 16 24.015 24.015 0 0 0 -4.755 8h-33.376a80.091 80.091 0 0 1 -80-80zm128 120v-32a8.009 8.009 0 0 1 8-8h176a8.009 8.009 0 0 1 8 8v32a8.009 8.009 0 0 1 -8 8h-176a8.009 8.009 0 0 1 -8-8zm304 80a16 16 0 1 1 16-16 16.019 16.019 0 0 1 -16 16z"/></g></g></g></svg>