<svg id="Capa_1" enable-background="new 0 0 512 512" height="512" viewBox="0 0 512 512" width="512" xmlns="http://www.w3.org/2000/svg"><g><g><path d="m467 150h-422c-24.814 0-45-20.186-45-45v-60c0-24.814 20.186-45 45-45h422c24.814 0 45 20.186 45 45v60c0 24.814-20.186 45-45 45z" fill="#4d4d99"/></g><path d="m467 0h-211v150h211c24.814 0 45-20.186 45-45v-60c0-24.814-20.186-45-45-45z" fill="#292966"/><g id="Server_6_"><g><circle cx="75" cy="75" fill="#9ff" r="15"/></g><g><circle cx="135" cy="75" fill="#9ff" r="15"/></g><g><circle cx="195" cy="75" fill="#9ff" r="15"/></g><g><path d="m437 90h-120c-8.291 0-15-6.709-15-15s6.709-15 15-15h120c8.291 0 15 6.709 15 15s-6.709 15-15 15z" fill="#5a5ab3"/></g></g><g><path d="m467 331h-422c-24.814 0-45-20.186-45-45v-60c0-24.814 20.186-45 45-45h422c24.814 0 45 20.186 45 45v60c0 24.814-20.186 45-45 45z" fill="#4d4d99"/></g><path d="m467 181h-211v150h211c24.814 0 45-20.186 45-45v-60c0-24.814-20.186-45-45-45z" fill="#292966"/><g id="Server_5_"><g><circle cx="75" cy="256" fill="#9ff" r="15"/></g><g><circle cx="135" cy="256" fill="#9ff" r="15"/></g><g><circle cx="195" cy="256" fill="#9ff" r="15"/></g><g><path d="m437 271h-120c-8.291 0-15-6.709-15-15s6.709-15 15-15h120c8.291 0 15 6.709 15 15s-6.709 15-15 15z" fill="#5a5ab3"/></g></g><g><path d="m467 512h-422c-24.814 0-45-20.186-45-45v-60c0-24.814 20.186-45 45-45h422c24.814 0 45 20.186 45 45v60c0 24.814-20.186 45-45 45z" fill="#4d4d99"/></g><path d="m467 362h-211v150h211c24.814 0 45-20.186 45-45v-60c0-24.814-20.186-45-45-45z" fill="#292966"/><g id="Server_1_"><g><circle cx="75" cy="437" fill="#9ff" r="15"/></g><g><circle cx="135" cy="437" fill="#9ff" r="15"/></g><g><circle cx="195" cy="437" fill="#9ff" r="15"/></g><g><path d="m437 452h-120c-8.291 0-15-6.709-15-15s6.709-15 15-15h120c8.291 0 15 6.709 15 15s-6.709 15-15 15z" fill="#5a5ab3"/></g></g></g></svg>