<?xml version="1.0" encoding="iso-8859-1"?>
<!-- Generator: Adobe Illustrator 27.2.0, SVG Export Plug-In . SVG Version: 6.00 Build 0)  -->
<svg version="1.1" id="Capa_1" xmlns="http://www.w3.org/2000/svg" xmlns:xlink="http://www.w3.org/1999/xlink" x="0px" y="0px"
	 viewBox="0 0 509.535 509.535" style="enable-background:new 0 0 509.535 509.535;" xml:space="preserve">
<g>
	<g>
		<g>
			<path style="fill:#FFFFFF;" d="M77.026,360.258c-7.819,37.074-33.239,67.594-67.032,82.262l-0.002,0.002
				c16.764,19.276,41.38,31.448,68.817,31.448c28.037,0,53.127-12.709,69.903-32.719c36.08,24.932,79.756,39.519,126.813,39.519
				c123.969,0,224.466-101.242,224.466-226.131S399.494,28.508,275.525,28.508S51.059,129.75,51.059,254.639
				c0,38.155,9.38,74.103,25.944,105.631L77.026,360.258z"/>
			<path style="fill:#FFFFFF;" d="M275.525,482.27c-45.399,0-89.126-13.487-126.547-39.018
				c-17.69,20.493-43.185,32.218-70.169,32.218c-26.788,0-52.284-11.65-69.949-31.964l-1.025-1.18l1.376-1.101l0.186-0.082
				c33.624-14.595,58.275-44.708,66.04-80.631c-16.932-32.409-25.878-69.007-25.878-105.874c0-60.801,23.503-117.962,66.18-160.955
				c42.68-42.997,99.426-66.676,159.786-66.676s117.106,23.679,159.786,66.676c42.677,42.993,66.18,100.154,66.18,160.955
				s-23.503,117.962-66.18,160.955C392.631,458.591,335.885,482.27,275.525,482.27z M148.441,439.239l1.124,0.776
				c37.164,25.681,80.72,39.254,125.96,39.254c122.944,0,222.966-100.769,222.966-224.631S398.469,30.008,275.525,30.008
				S52.559,130.776,52.559,254.639c0,36.053,8.667,71.842,25.081,103.606l1.487-0.775l-0.633,3.098
				c-7.687,36.445-32.295,67.136-66.018,82.49c17.03,18.718,41.089,29.412,66.333,29.412c26.547,0,51.606-11.73,68.754-32.184
				L148.441,439.239z"/>
		</g>
		<path style="fill:#D2DCFD;" d="M153.353,262.064c0-93.742,42.534-177.542,109.345-233.181
			C144.699,35.582,51.059,134.088,51.059,254.639c0,38.155,9.38,74.103,25.944,105.631l0.022-0.012
			c-7.819,37.074-33.239,67.594-67.032,82.262l-0.002,0.002c16.764,19.276,41.38,31.448,68.817,31.448
			c28.037,0,53.127-12.709,69.903-32.719c27.953,19.315,60.467,32.416,95.578,37.341
			C188.178,423.546,153.353,346.878,153.353,262.064z"/>
	</g>
	<g>
		<path style="fill:#052A75;" d="M441.343,87.718C354.054-3.906,196.993-3.91,109.707,87.719
			C38.329,157.631,20.629,272.968,66.463,361.57c-7.852,31.972-30.232,58.631-60.444,71.746c-1.705,0.76-3.236,1.979-4.268,3.53
			c-1.552,2.218-2.094,5.083-1.539,7.726c0.335,1.626,1.145,3.198,2.234,4.484c37.08,44.034,107.919,46.499,147.851,5.219
			c89.646,58.807,216.531,44.809,291.047-32.717C532.263,333.693,532.268,175.584,441.343,87.718z M275.526,470.737
			c-43.854,0.044-85.965-13.331-121.934-38.239c-1.724-0.979-3.745-1.402-5.717-1.239c-2.352,0.193-4.662,1.265-6.303,2.977
			c-27.514,34.504-81.337,39.638-114.651,10.882c30.524-17.718,52.5-47.784,59.889-82.812c0.531-2.514,0.056-5.002-1.138-7.064
			C10.328,214.215,115.64,37.148,275.528,38.541C560.023,50.381,559.965,458.928,275.526,470.737z"/>
		<path style="fill:#052A75;" d="M376.993,231.82H174.057c-5.523,0-10-4.478-10-10c0-5.522,4.477-10,10-10h202.936
			c5.523,0,10,4.478,10,10C386.993,227.343,382.516,231.82,376.993,231.82z"/>
		<path style="fill:#052A75;" d="M317.979,311.552H174.057c-5.523,0-10-4.478-10-10c0-5.523,4.477-10,10-10h143.922
			c5.523,0,10,4.477,10,10C327.979,307.074,323.502,311.552,317.979,311.552z"/>
	</g>
</g>
<g>
</g>
<g>
</g>
<g>
</g>
<g>
</g>
<g>
</g>
<g>
</g>
<g>
</g>
<g>
</g>
<g>
</g>
<g>
</g>
<g>
</g>
<g>
</g>
<g>
</g>
<g>
</g>
<g>
</g>
</svg>
